<?xml version="1.0" encoding="utf-8"?>
<!-- Generator: Adobe Illustrator 23.0.1, SVG Export Plug-In . SVG Version: 6.00 Build 0)  -->
<svg version="1.1" id="Livello_1" xmlns="http://www.w3.org/2000/svg" xmlns:xlink="http://www.w3.org/1999/xlink" x="0px" y="0px"
	 viewBox="0 0 227.4 177.8" style="enable-background:new 0 0 227.4 177.8;" xml:space="preserve">
<style type="text/css">
	.st0{fill:#A95C53;}
	.st1{opacity:0.7;}
	.st2{fill:#A95C53;stroke:#A95C53;stroke-width:0.2;stroke-miterlimit:10;}
</style>
<g>
	<g>
		<g>
			<g>
				<g>
					<defs>
						<path id="SVGID_1_" d="M99.6,68.8c-5.3,2.4-16.2,6.3-18.8,8.6c-2.2,2-6.5,5.5-8.6,7.7c-2.7,2.8-4.3,6-6,9.3
							c-5.9,11.6-9.4,35.3-17,42c-1.4,1.3-6.4-1.3-11.8-3c-3.2-1-10.7-6.5-12.7-7.8c-2.3-1.4-4-3.5-5.3-5.7
							c-2.7-4.8-2.8-10.3-4.1-15.5c-1.3-5.2-3.4-10.2-6.5-14.4C6,86.1,2.4,82.6,0.7,77.9c-1.4-3.7-1.1-8.6,2.9-11.3
							c1.8,0.6,3.5,1.6,5.3,2.3c1.9,0.8,4,1.5,6,2c10.2,2.7,21.1,2.3,31.7,3.6c4.9,0.6,9.9,1.2,14.9,1.5c3.1,0.2,8.1,1.1,10.9-1.1"
							/>
					</defs>
					
						<linearGradient id="SVGID_2_" gradientUnits="userSpaceOnUse" x1="-2210.958" y1="1015.8644" x2="-2210.8872" y2="920.879" gradientTransform="matrix(0.4972 0.8677 -0.8677 0.4972 1993.869 1522.4323)">
						<stop  offset="0" style="stop-color:#E6EBEC"/>
						<stop  offset="8.086210e-02" style="stop-color:#E8E4E4"/>
						<stop  offset="0.3898" style="stop-color:#EDCFC9"/>
						<stop  offset="1" style="stop-color:#D98485"/>
					</linearGradient>
					<use xlink:href="#SVGID_1_"  style="overflow:visible;fill:url(#SVGID_2_);"/>
					<clipPath id="SVGID_3_">
						<use xlink:href="#SVGID_1_"  style="overflow:visible;"/>
					</clipPath>
				</g>
				<g>
					<g>
						<g>
							<path class="st0" d="M53.8,78.5c-3,1.1-5.9,2.9-8.1,5.2c-2.3,2.3-4,5.2-5.4,8.2c-1.4,3-2.6,6-4,9c-1.4,3-2.9,5.9-4.9,8.5
								c2-2.6,3.5-5.6,4.8-8.6c1.3-3,2.4-6.1,3.8-9.1c1.4-3,3-5.9,5.3-8.4c2.3-2.4,5.1-4.3,8.3-5.5L53.8,78.5z"/>
						</g>
						<g>
							<path class="st0" d="M67.7,77c-1.9,0.9-3.5,2.5-4.7,4.3c-1.2,1.8-2.1,3.8-2.9,5.9c-1.5,4.1-2.5,8.4-3.8,12.6
								c-1.4,4.2-2.8,8.4-4.7,12.3c-0.9,2-2,3.9-3.3,5.7c-1.3,1.8-2.9,3.4-4.9,4.3c2-1,3.5-2.6,4.8-4.4c1.3-1.8,2.3-3.7,3.3-5.7
								c1.8-4,3.2-8.2,4.5-12.4c1.3-4.2,2.2-8.5,3.7-12.7c0.7-2.1,1.6-4.1,2.8-6c1.2-1.9,2.8-3.6,4.9-4.6L67.7,77z"/>
						</g>
						<g class="st1">
							<path class="st0" d="M29.7,82.6c-2.5,1.1-5.3,1.3-8,1.1c-1.3-0.1-2.7-0.3-4-0.7c-1.3-0.4-2.6-0.9-3.7-1.7
								c1.2,0.7,2.5,1.1,3.7,1.4c1.3,0.3,2.6,0.5,4,0.6c1.3,0.1,2.7,0.1,4,0C27.1,83.3,28.4,83,29.7,82.6z"/>
						</g>
						<g>
							<path class="st0" d="M40.8,79.6c-1.3,0.8-2.8,1.1-4.3,1.3c-1.5,0.1-3,0-4.5-0.1c-1.5-0.2-2.9-0.5-4.4-0.9
								c-1.4-0.4-2.8-0.9-4.2-1.6c1.4,0.4,2.8,0.8,4.3,1.1c1.4,0.3,2.9,0.6,4.3,0.7c1.5,0.2,2.9,0.3,4.4,0.3
								C38,80.3,39.4,80.2,40.8,79.6z"/>
						</g>
					</g>
					<path class="st2" d="M118.1,58.8c-15.8,13.6-43.5,16.1-63.6,18.9C42.8,79.4,27.1,80.8,18,89.2c8.2-8.2,29.1-10.8,40.1-11.1
						c13.6-0.3,29.3-3.5,42-8.6C106.7,66.9,113.8,62.5,118.1,58.8"/>
				</g>
			</g>
		</g>
		<g>
			<g>
				<g>
					<defs>
						<path id="SVGID_4_" d="M103.1,73.5c-4.4,3.7-13.9,10.5-15.7,13.4c-1.6,2.5-4.8,7.1-6.2,9.8c-1.8,3.5-2.5,6.9-3.2,10.6
							c-2.6,12.7,0.5,36.5-4.9,45c-1,1.6-6.5,0.5-12.1,0.3c-3.3-0.1-12-3.4-14.3-4c-2.6-0.7-4.8-2.2-6.7-4.1
							c-3.9-3.9-5.5-9.1-8.2-13.8c-2.6-4.6-6-8.9-10.2-12.1c-3.8-3-8.2-5.5-11.1-9.4c-2.3-3.2-3.4-8-0.3-11.7
							c1.9,0.1,3.9,0.6,5.8,0.8c2.1,0.2,4.2,0.3,6.4,0.3c10.6-0.1,21-3.5,31.5-5.1c4.9-0.8,9.8-1.5,14.7-2.6c3-0.6,8.1-1.2,10.2-4"
							/>
					</defs>
					
						<linearGradient id="SVGID_5_" gradientUnits="userSpaceOnUse" x1="-1791.2267" y1="545.6588" x2="-1791.1561" y2="450.6733" gradientTransform="matrix(0.7146 0.6996 -0.6996 0.7146 1692.588 998.9383)">
						<stop  offset="0" style="stop-color:#E6EBEC"/>
						<stop  offset="8.086210e-02" style="stop-color:#E8E4E4"/>
						<stop  offset="0.3898" style="stop-color:#EDCFC9"/>
						<stop  offset="1" style="stop-color:#D98485"/>
					</linearGradient>
					<use xlink:href="#SVGID_4_"  style="overflow:visible;fill:url(#SVGID_5_);"/>
					<clipPath id="SVGID_6_">
						<use xlink:href="#SVGID_4_"  style="overflow:visible;"/>
					</clipPath>
				</g>
				<g>
					<g>
						<g>
							<path class="st0" d="M61.6,95.3c-2.6,1.9-4.9,4.4-6.4,7.3c-1.6,2.9-2.4,6.1-3,9.3c-0.6,3.2-0.9,6.5-1.4,9.8
								c-0.5,3.3-1.2,6.5-2.4,9.6c1.2-3.1,1.8-6.3,2.3-9.6c0.4-3.3,0.7-6.5,1.2-9.8c0.5-3.3,1.3-6.5,2.9-9.5c1.5-3,3.8-5.5,6.4-7.6
								L61.6,95.3z"/>
						</g>
						<g>
							<path class="st0" d="M74.6,90.1c-1.6,1.4-2.7,3.3-3.3,5.4c-0.7,2.1-1,4.2-1.2,6.4c-0.4,4.4-0.1,8.8-0.3,13.2
								c-0.2,4.4-0.4,8.8-1.1,13.1c-0.4,2.2-0.9,4.3-1.7,6.4c-0.8,2-1.9,4-3.5,5.5c1.6-1.5,2.7-3.5,3.4-5.5c0.8-2.1,1.2-4.2,1.6-6.4
								c0.7-4.3,0.8-8.7,0.9-13.1c0.1-4.4-0.2-8.8,0.1-13.2c0.2-2.2,0.4-4.4,1.1-6.6c0.6-2.1,1.7-4.2,3.4-5.7L74.6,90.1z"/>
						</g>
						<g class="st1">
							<path class="st0" d="M39.5,105.7c-2.1,1.8-4.7,2.7-7.4,3.3c-1.3,0.2-2.7,0.4-4,0.4c-1.4,0-2.7-0.2-4-0.6
								c1.3,0.3,2.7,0.4,4,0.4c1.3,0,2.7-0.2,4-0.5c1.3-0.2,2.6-0.6,3.9-1.1C37.2,107.1,38.4,106.5,39.5,105.7z"/>
						</g>
						<g>
							<path class="st0" d="M49.4,99.8c-1,1.1-2.4,1.8-3.8,2.4c-1.4,0.5-2.9,0.9-4.3,1.1c-1.5,0.2-3,0.3-4.5,0.3
								c-1.5,0-3-0.1-4.4-0.4c1.5,0,3,0,4.4-0.1c1.5-0.1,2.9-0.2,4.4-0.5c1.4-0.2,2.9-0.5,4.3-0.9C46.9,101.3,48.2,100.8,49.4,99.8z
								"/>
						</g>
					</g>
					<path class="st2" d="M118.1,58.8c-11.5,17.4-37.4,27.3-56,35.5c-10.8,4.8-25.6,10.4-32.1,21c5.6-10.1,25.1-18.4,35.6-21.6
						c13-4,27.3-11.4,38.1-19.7C109.3,69.7,115,63.6,118.1,58.8"/>
				</g>
			</g>
		</g>
		<g>
			<g>
				<g>
					<defs>
						<path id="SVGID_7_" d="M107.6,77c-3.2,4.8-10.5,13.8-11.5,17.2c-0.8,2.9-2.7,8.1-3.3,11.1c-0.8,3.8-0.5,7.3-0.2,11.1
							c1,13,10.4,35,7.5,44.7c-0.6,1.8-6.1,2.3-11.6,3.6c-3.2,0.8-12.5,0-14.9,0c-2.7,0-5.3-0.8-7.5-2.1c-4.8-2.7-7.8-7.3-11.6-11
							c-3.8-3.7-8.2-6.9-13.1-8.9c-4.5-1.8-9.4-3-13.3-6.1c-3.1-2.4-5.4-6.7-3.5-11.1c1.9-0.4,3.9-0.5,5.8-0.8
							c2.1-0.3,4.2-0.8,6.2-1.4c10.1-3,19.2-9.1,28.9-13.5c4.5-2.1,9-4.1,13.5-6.5c2.7-1.4,7.5-3.4,8.8-6.6"/>
					</defs>
					
						<linearGradient id="SVGID_8_" gradientUnits="userSpaceOnUse" x1="-1259.3533" y1="207.4601" x2="-1259.2827" y2="112.4746" gradientTransform="matrix(0.878 0.4787 -0.4787 0.878 1260.1869 577.2209)">
						<stop  offset="0" style="stop-color:#E6EBEC"/>
						<stop  offset="8.086210e-02" style="stop-color:#E8E4E4"/>
						<stop  offset="0.3898" style="stop-color:#EDCFC9"/>
						<stop  offset="1" style="stop-color:#D98485"/>
					</linearGradient>
					<use xlink:href="#SVGID_7_"  style="overflow:visible;fill:url(#SVGID_8_);"/>
					<clipPath id="SVGID_9_">
						<use xlink:href="#SVGID_7_"  style="overflow:visible;"/>
					</clipPath>
				</g>
				<g>
					<g>
						<g>
							<path class="st0" d="M73.7,109.3c-2,2.6-3.5,5.5-4.2,8.7c-0.7,3.2-0.7,6.5-0.3,9.8c0.3,3.3,0.9,6.5,1.4,9.8
								c0.4,3.3,0.6,6.6,0.3,9.9c0.3-3.3,0-6.6-0.4-9.8c-0.5-3.3-1.1-6.5-1.5-9.8c-0.4-3.3-0.5-6.6,0.2-9.9c0.6-3.3,2.1-6.4,4.1-9
								L73.7,109.3z"/>
						</g>
						<g>
							<path class="st0" d="M84.8,100.7c-1.2,1.8-1.6,3.9-1.7,6.1c-0.1,2.2,0.2,4.3,0.6,6.5c0.8,4.3,2.3,8.5,3.3,12.8
								c1,4.3,2,8.6,2.5,13c0.2,2.2,0.3,4.4,0.1,6.6c-0.2,2.2-0.7,4.4-1.9,6.3c1.2-1.9,1.6-4.1,1.8-6.3c0.2-2.2,0-4.4-0.2-6.6
								c-0.5-4.4-1.6-8.6-2.7-12.9c-1.1-4.3-2.6-8.4-3.5-12.7c-0.4-2.2-0.8-4.4-0.7-6.6c0-2.2,0.5-4.5,1.7-6.4L84.8,100.7z"/>
						</g>
						<g class="st1">
							<path class="st0" d="M55.3,125.3c-1.5,2.3-3.8,3.9-6.2,5.1c-1.2,0.6-2.5,1.1-3.8,1.5c-1.3,0.4-2.7,0.6-4,0.5
								c1.4,0,2.7-0.3,3.9-0.7c1.3-0.4,2.5-0.9,3.7-1.5c1.2-0.6,2.3-1.3,3.4-2.1C53.4,127.3,54.4,126.4,55.3,125.3z"/>
						</g>
						<g>
							<path class="st0" d="M63.2,117c-0.6,1.4-1.8,2.4-3,3.3c-1.2,0.9-2.5,1.6-3.9,2.3c-1.4,0.6-2.8,1.1-4.2,1.5
								c-1.4,0.4-2.9,0.7-4.4,0.9c1.4-0.4,2.8-0.8,4.2-1.3c1.4-0.5,2.7-1,4.1-1.7c1.3-0.6,2.6-1.3,3.9-2.1
								C61.1,119.1,62.3,118.2,63.2,117z"/>
						</g>
					</g>
					<path class="st2" d="M118.1,58.8c-6.3,19.8-28.6,36.5-44.2,49.4c-9.1,7.5-21.8,17-25.1,28.9c2.7-11.3,19.1-24.5,28.3-30.4
						c11.4-7.3,23.2-18.4,31.3-29.3C112.6,71.7,116.4,64.3,118.1,58.8"/>
				</g>
			</g>
		</g>
		<g>
			<g>
				<g>
					<defs>
						<path id="SVGID_10_" d="M113,79.2c-1.8,5.5-6.4,16.2-6.4,19.6c0,3-0.4,8.6-0.1,11.6c0.3,3.9,1.5,7.2,2.8,10.7
							c4.5,12.2,19.6,30.8,19.4,41c0,1.9-5.3,3.8-10.2,6.6c-2.9,1.7-12,3.4-14.3,4.1c-2.6,0.7-5.3,0.6-7.8,0
							c-5.3-1.3-9.5-4.9-14.2-7.5c-4.7-2.5-9.8-4.4-15-5c-4.8-0.5-9.9-0.3-14.4-2.2c-3.7-1.5-7.1-5-6.4-9.8c1.7-0.9,3.6-1.5,5.3-2.3
							c1.9-0.9,3.8-1.9,5.6-3.1c8.9-5.6,16-14,24.1-20.9c3.8-3.2,7.5-6.4,11.2-9.9c2.2-2.1,6.3-5.3,6.6-8.8"/>
					</defs>
					
						<linearGradient id="SVGID_11_" gradientUnits="userSpaceOnUse" x1="-655.5048" y1="26.8091" x2="-655.4342" y2="-68.1763" gradientTransform="matrix(0.9751 0.2216 -0.2216 0.9751 729.3207 289.1284)">
						<stop  offset="0" style="stop-color:#E6EBEC"/>
						<stop  offset="8.086210e-02" style="stop-color:#E8E4E4"/>
						<stop  offset="0.3898" style="stop-color:#EDCFC9"/>
						<stop  offset="1" style="stop-color:#D98485"/>
					</linearGradient>
					<use xlink:href="#SVGID_10_"  style="overflow:visible;fill:url(#SVGID_11_);"/>
					<clipPath id="SVGID_12_">
						<use xlink:href="#SVGID_10_"  style="overflow:visible;"/>
					</clipPath>
				</g>
				<g>
					<g>
						<g>
							<path class="st0" d="M89.1,119.5c-1.2,3-1.9,6.3-1.6,9.5c0.2,3.3,1.1,6.4,2.4,9.5c1.2,3.1,2.7,6,4,9c1.3,3,2.4,6.2,2.9,9.4
								c-0.6-3.2-1.8-6.4-3.1-9.4c-1.3-3-2.8-5.9-4.1-9c-1.3-3-2.3-6.2-2.5-9.6c-0.3-3.3,0.3-6.7,1.5-9.8L89.1,119.5z"/>
						</g>
						<g>
							<path class="st0" d="M97.5,108.2c-0.7,2-0.5,4.2,0,6.3c0.5,2.1,1.4,4.1,2.4,6.1c2,3.9,4.5,7.5,6.7,11.4
								c2.1,3.8,4.3,7.7,5.9,11.8c0.8,2,1.5,4.1,1.9,6.3c0.4,2.2,0.5,4.4-0.1,6.5c0.6-2.1,0.5-4.4,0-6.5c-0.4-2.2-1.2-4.2-2-6.3
								c-1.7-4.1-3.9-7.9-6.1-11.7c-2.2-3.8-4.8-7.4-6.8-11.3c-1-2-1.9-4-2.5-6.2c-0.6-2.1-0.8-4.5-0.1-6.7L97.5,108.2z"/>
						</g>
						<g class="st1">
							<path class="st0" d="M75.8,139.9c-0.8,2.6-2.6,4.8-4.6,6.6c-1,0.9-2.1,1.7-3.2,2.5c-1.2,0.7-2.4,1.3-3.7,1.6
								c1.3-0.4,2.5-1.1,3.6-1.8c1.1-0.7,2.2-1.6,3.2-2.5c1-0.9,1.9-1.9,2.7-2.9C74.5,142.3,75.2,141.2,75.8,139.9z"/>
						</g>
						<g>
							<path class="st0" d="M81.1,129.8c-0.2,1.5-1.1,2.8-2,4c-0.9,1.2-2,2.2-3.1,3.2c-1.2,0.9-2.3,1.8-3.6,2.6
								c-1.3,0.8-2.6,1.5-4,2c1.3-0.8,2.5-1.6,3.7-2.4c1.2-0.9,2.4-1.7,3.5-2.7c1.1-0.9,2.2-2,3.1-3
								C79.7,132.3,80.6,131.1,81.1,129.8z"/>
						</g>
					</g>
					<path class="st2" d="M118.1,58.8c-0.7,20.8-17.6,42.9-29.1,59.6c-6.7,9.7-16.3,22.3-16.3,34.7c-0.5-11.6,11.8-28.8,19-37
						c9-10.2,17.3-24,22.1-36.7C116.3,72.7,118,64.5,118.1,58.8"/>
				</g>
			</g>
		</g>
		<g>
			<g>
				<g>
					<defs>
						<path id="SVGID_13_" d="M118.7,79.8c-0.3,5.8-1.7,17.3-0.8,20.6c0.8,2.9,2,8.3,3,11.2c1.3,3.7,3.4,6.5,5.6,9.5
							c7.6,10.5,27.2,24.3,29.8,34.1c0.5,1.9-4,5.1-8,9.2c-2.3,2.4-10.6,6.6-12.7,7.8c-2.3,1.4-4.9,2-7.5,2.2
							c-5.5,0.2-10.4-2.1-15.7-3.3c-5.2-1.2-10.6-1.6-15.8-0.7c-4.8,0.8-9.6,2.4-14.5,1.8c-3.9-0.5-8.2-2.9-8.8-7.7
							c1.4-1.3,3-2.4,4.5-3.7c1.6-1.4,3.1-2.9,4.5-4.5c7.1-7.9,11.6-17.8,17.5-26.6c2.8-4.1,5.5-8.3,8.1-12.6
							c1.6-2.6,4.6-6.8,4-10.2"/>
					</defs>
					
						<linearGradient id="SVGID_14_" gradientUnits="userSpaceOnUse" x1="-25.284" y1="17.3487" x2="-25.2135" y2="-77.6367" gradientTransform="matrix(0.9986 -5.221873e-02 5.221873e-02 0.9986 140.0806 156.4175)">
						<stop  offset="0" style="stop-color:#E6EBEC"/>
						<stop  offset="8.086210e-02" style="stop-color:#E8E4E4"/>
						<stop  offset="0.3898" style="stop-color:#EDCFC9"/>
						<stop  offset="1" style="stop-color:#D98485"/>
					</linearGradient>
					<use xlink:href="#SVGID_13_"  style="overflow:visible;fill:url(#SVGID_14_);"/>
					<clipPath id="SVGID_15_">
						<use xlink:href="#SVGID_13_"  style="overflow:visible;"/>
					</clipPath>
				</g>
				<g>
					<g>
						<g>
							<path class="st0" d="M106.7,125.1c-0.4,3.2-0.1,6.5,1,9.6c1.1,3.1,2.8,5.9,4.8,8.5c2,2.6,4.2,5.1,6.3,7.6
								c2.1,2.6,4,5.3,5.4,8.3c-1.5-3-3.4-5.6-5.5-8.2c-2.1-2.5-4.4-4.9-6.4-7.5c-2.1-2.6-3.9-5.4-5.1-8.5c-1.2-3.1-1.5-6.5-1.2-9.9
								L106.7,125.1z"/>
						</g>
						<g>
							<path class="st0" d="M111.7,112c-0.1,2.1,0.7,4.2,1.7,6.1c1.1,1.9,2.5,3.6,3.9,5.2c3,3.2,6.4,6,9.5,9.1
								c3.1,3.1,6.2,6.2,8.9,9.7c1.4,1.7,2.6,3.6,3.6,5.5c1,2,1.7,4.1,1.7,6.3c0-2.2-0.8-4.3-1.7-6.3c-1-2-2.3-3.8-3.6-5.5
								c-2.7-3.4-5.9-6.5-9-9.6c-3.1-3.1-6.6-5.8-9.6-9c-1.5-1.6-2.9-3.3-4.1-5.2c-1.1-1.9-2-4.1-1.9-6.4L111.7,112z"/>
						</g>
						<g class="st1">
							<path class="st0" d="M99.5,148.4c-0.1,2.7-1.2,5.3-2.6,7.6c-0.7,1.1-1.5,2.2-2.4,3.2c-0.9,1-2,1.9-3.2,2.5
								c1.1-0.7,2.1-1.7,3-2.7c0.9-1,1.7-2.1,2.4-3.2c0.7-1.1,1.3-2.3,1.8-3.6C98.9,151,99.3,149.8,99.5,148.4z"/>
						</g>
						<g>
							<path class="st0" d="M101.8,137.1c0.2,1.5-0.3,3-0.8,4.4c-0.6,1.4-1.3,2.7-2.1,3.9c-0.9,1.2-1.8,2.4-2.8,3.5
								c-1,1.1-2.1,2.1-3.3,3c1-1.1,2-2.2,2.9-3.3c0.9-1.2,1.8-2.3,2.6-3.5c0.8-1.2,1.6-2.5,2.2-3.8
								C101.2,140,101.7,138.6,101.8,137.1z"/>
						</g>
					</g>
					<path class="st2" d="M118.1,58.8c5,20.2-5.3,46-11.8,65.3c-3.8,11.2-9.6,25.9-6.3,37.8c-3.6-11,3.5-30.9,8.2-40.8
						c5.9-12.2,10.1-27.8,11.3-41.3C120.2,72.7,119.5,64.3,118.1,58.8"/>
				</g>
			</g>
		</g>
		<g>
			<g>
				<g>
					<defs>
						<path id="SVGID_16_" d="M124.4,78.8c1.3,5.6,3.1,17.1,4.9,20.1c1.6,2.6,4.2,7.5,6,9.9c2.3,3.2,5,5.3,8,7.6
							c10.2,8,32.8,16,38,24.7c1,1.7-2.5,6-5.2,11c-1.6,2.9-8.4,9.2-10.1,11c-1.8,2-4.2,3.3-6.6,4.1c-5.2,1.7-10.6,0.8-16,1.1
							c-5.3,0.3-10.6,1.4-15.4,3.6c-4.4,2-8.6,4.9-13.4,5.7c-3.9,0.6-8.6-0.6-10.5-5c0.9-1.7,2.3-3.2,3.3-4.8
							c1.2-1.8,2.2-3.6,3.1-5.5c4.6-9.5,6.3-20.3,9.6-30.4c1.5-4.7,3.1-9.4,4.4-14.3c0.8-3,2.6-7.8,1.1-10.9"/>
					</defs>
					
						<linearGradient id="SVGID_17_" gradientUnits="userSpaceOnUse" x1="583.7147" y1="179.7934" x2="583.7853" y2="84.8079" gradientTransform="matrix(0.9467 -0.3221 0.3221 0.9467 -463.0342 189.1105)">
						<stop  offset="0" style="stop-color:#E6EBEC"/>
						<stop  offset="8.086210e-02" style="stop-color:#E8E4E4"/>
						<stop  offset="0.3898" style="stop-color:#EDCFC9"/>
						<stop  offset="1" style="stop-color:#D98485"/>
					</linearGradient>
					<use xlink:href="#SVGID_16_"  style="overflow:visible;fill:url(#SVGID_17_);"/>
					<clipPath id="SVGID_18_">
						<use xlink:href="#SVGID_16_"  style="overflow:visible;"/>
					</clipPath>
				</g>
				<g>
					<g>
						<g>
							<path class="st0" d="M125.2,125.7c0.5,3.2,1.7,6.3,3.6,9c1.9,2.7,4.3,4.9,7,6.8c2.6,2,5.4,3.7,8.1,5.6c2.7,1.9,5.3,4,7.4,6.5
								c-2.2-2.5-4.8-4.5-7.5-6.4c-2.7-1.9-5.5-3.6-8.2-5.5c-2.7-1.9-5.2-4.1-7.2-6.8c-2-2.7-3.2-5.9-3.8-9.2L125.2,125.7z"/>
						</g>
						<g>
							<path class="st0" d="M126.4,111.7c0.5,2.1,1.8,3.9,3.3,5.4c1.5,1.5,3.3,2.8,5.2,3.9c3.7,2.3,7.8,4,11.6,6.2
								c3.8,2.1,7.7,4.3,11.2,6.9c1.8,1.3,3.5,2.7,5,4.4c1.5,1.6,2.8,3.5,3.3,5.6c-0.6-2.1-1.9-4-3.4-5.6c-1.5-1.6-3.2-3-5-4.3
								c-3.6-2.6-7.4-4.7-11.3-6.8c-3.8-2.1-7.9-3.8-11.7-6.1c-1.9-1.1-3.7-2.4-5.4-3.9c-1.6-1.5-3-3.4-3.6-5.7L126.4,111.7z"/>
						</g>
						<g class="st1">
							<path class="st0" d="M124.6,150.1c0.7,2.6,0.3,5.4-0.4,8c-0.4,1.3-0.9,2.6-1.5,3.8c-0.6,1.2-1.4,2.4-2.3,3.3
								c0.9-1,1.6-2.2,2.1-3.4c0.6-1.2,1-2.5,1.4-3.8c0.4-1.3,0.6-2.6,0.8-3.9C124.8,152.8,124.8,151.4,124.6,150.1z"/>
						</g>
						<g>
							<path class="st0" d="M123.8,138.6c0.6,1.4,0.6,2.9,0.4,4.4c-0.2,1.5-0.5,2.9-1,4.4c-0.5,1.4-1,2.8-1.7,4.1
								c-0.7,1.3-1.4,2.6-2.3,3.8c0.7-1.3,1.3-2.6,1.9-4c0.6-1.4,1.1-2.7,1.5-4.1c0.5-1.4,0.8-2.8,1.1-4.2
								C124,141.5,124.1,140.1,123.8,138.6z"/>
						</g>
					</g>
					<path class="st2" d="M118.1,58.8c10.3,18.1,7.5,45.7,6.4,66c-0.6,11.8-2.2,27.6,4.3,38.1c-6.5-9.6-5.1-30.7-3.2-41.5
						c2.3-13.4,2.2-29.5-0.4-42.9C123.9,71.6,121,63.8,118.1,58.8"/>
				</g>
			</g>
		</g>
		<g>
			<g>
				<g>
					<defs>
						<path id="SVGID_19_" d="M129.7,76.4c2.8,5,7.6,15.6,10.1,18c2.2,2,6.1,6,8.4,7.9c3,2.4,6.3,3.7,9.8,5.2
							c12,5,35.9,6.5,43.3,13.5c1.4,1.3-0.8,6.5-2,12c-0.7,3.3-5.6,11.2-6.7,13.3c-1.2,2.4-3.1,4.3-5.3,5.8
							c-4.5,3.1-10,3.7-15.1,5.4c-5,1.7-9.8,4.2-13.9,7.7c-3.7,3.2-6.9,7-11.4,9.1c-3.6,1.7-8.5,1.8-11.5-1.9
							c0.5-1.9,1.3-3.7,1.9-5.5c0.6-2,1.1-4.1,1.5-6.2c1.9-10.4,0.6-21.2,1-31.9c0.2-5,0.4-9.9,0.3-14.9c0-3.1,0.4-8.2-2-10.8"/>
					</defs>
					
						<linearGradient id="SVGID_20_" gradientUnits="userSpaceOnUse" x1="1125.4998" y1="501.8752" x2="1125.5703" y2="406.8897" gradientTransform="matrix(0.8233 -0.5676 0.5676 0.8233 -1034.4761 384.7385)">
						<stop  offset="0" style="stop-color:#E6EBEC"/>
						<stop  offset="8.086210e-02" style="stop-color:#E8E4E4"/>
						<stop  offset="0.3898" style="stop-color:#EDCFC9"/>
						<stop  offset="1" style="stop-color:#D98485"/>
					</linearGradient>
					<use xlink:href="#SVGID_19_"  style="overflow:visible;fill:url(#SVGID_20_);"/>
					<clipPath id="SVGID_21_">
						<use xlink:href="#SVGID_19_"  style="overflow:visible;"/>
					</clipPath>
				</g>
				<g>
					<g>
						<g>
							<path class="st0" d="M143.2,121.2c1.4,2.9,3.4,5.6,5.9,7.7c2.5,2.1,5.5,3.5,8.6,4.7c3.1,1.2,6.2,2.1,9.3,3.2
								c3.1,1.1,6.2,2.4,8.9,4.2c-2.8-1.8-5.9-3-9-4.1c-3.1-1.1-6.3-1.9-9.4-3.1c-3.1-1.1-6.1-2.5-8.8-4.6c-2.6-2.1-4.7-4.8-6.2-7.8
								L143.2,121.2z"/>
						</g>
						<g>
							<path class="st0" d="M140.5,107.5c1,1.9,2.8,3.3,4.7,4.3c1.9,1,4,1.8,6.1,2.4c4.2,1.2,8.6,1.7,12.9,2.8
								c4.3,1,8.6,2.1,12.7,3.6c2.1,0.8,4.1,1.7,6,2.8c1.9,1.2,3.6,2.6,4.7,4.5c-1.2-1.9-2.9-3.3-4.8-4.4c-1.9-1.1-3.9-2-6-2.8
								c-4.1-1.5-8.4-2.5-12.7-3.4c-4.3-1-8.7-1.5-12.9-2.6c-2.1-0.6-4.2-1.3-6.2-2.3c-2-1-3.8-2.5-5-4.5L140.5,107.5z"/>
						</g>
						<g class="st1">
							<path class="st0" d="M149.2,144.9c1.4,2.4,1.8,5.2,1.8,7.8c0,1.4-0.1,2.7-0.4,4c-0.3,1.3-0.7,2.6-1.4,3.8
								c0.6-1.2,0.9-2.5,1.1-3.9c0.2-1.3,0.3-2.7,0.3-4c0-1.3-0.1-2.7-0.3-4C150.1,147.4,149.8,146.1,149.2,144.9z"/>
						</g>
						<g>
							<path class="st0" d="M145.3,134.1c0.9,1.2,1.4,2.7,1.6,4.1c0.3,1.5,0.3,3,0.3,4.5c-0.1,1.5-0.2,3-0.5,4.4
								c-0.3,1.5-0.6,2.9-1.2,4.3c0.3-1.5,0.5-2.9,0.7-4.4c0.2-1.5,0.3-2.9,0.4-4.4c0.1-1.5,0-2.9-0.1-4.4
								C146.3,136.8,146,135.4,145.3,134.1z"/>
						</g>
					</g>
					<path class="st2" d="M118.1,58.8c14.9,14.6,19.6,42,24.2,61.8c2.6,11.5,5.4,27.1,14.5,35.5c-8.9-7.5-13.2-28.1-14.4-39
						c-1.4-13.5-5.9-29-12.1-41.1C127.1,69.5,122.3,62.8,118.1,58.8"/>
				</g>
			</g>
		</g>
		<g>
			<g>
				<g>
					<defs>
						<path id="SVGID_22_" d="M134,72.6c4.1,4.1,11.6,13,14.7,14.5c2.7,1.4,7.5,4.2,10.3,5.3c3.6,1.5,7.1,1.9,10.8,2.3
							c12.9,1.5,36.4-3.6,45.3,1.2c1.7,0.9,1,6.4,1.3,12.1c0.2,3.3-2.4,12.3-2.8,14.6c-0.5,2.6-1.8,5-3.5,7
							c-3.5,4.2-8.6,6.2-13.1,9.3c-4.4,3-8.3,6.7-11.2,11.2c-2.7,4-4.8,8.6-8.5,11.9c-3,2.6-7.6,4.1-11.6,1.3
							c-0.1-1.9,0.3-3.9,0.3-5.8c0.1-2.1,0-4.2-0.2-6.4c-1-10.5-5.2-20.6-7.7-30.9c-1.2-4.8-2.3-9.6-3.8-14.4c-0.9-3-1.9-8-4.8-9.9"
							/>
					</defs>
					
						<linearGradient id="SVGID_23_" gradientUnits="userSpaceOnUse" x1="1559.1554" y1="959.2704" x2="1559.226" y2="864.285" gradientTransform="matrix(0.6377 -0.7703 0.7703 0.6377 -1531.09 728.5276)">
						<stop  offset="0" style="stop-color:#E6EBEC"/>
						<stop  offset="8.086210e-02" style="stop-color:#E8E4E4"/>
						<stop  offset="0.3898" style="stop-color:#EDCFC9"/>
						<stop  offset="1" style="stop-color:#D98485"/>
					</linearGradient>
					<use xlink:href="#SVGID_22_"  style="overflow:visible;fill:url(#SVGID_23_);"/>
					<clipPath id="SVGID_24_">
						<use xlink:href="#SVGID_22_"  style="overflow:visible;"/>
					</clipPath>
				</g>
				<g>
					<g>
						<g>
							<path class="st0" d="M159.2,112.1c2.1,2.5,4.8,4.5,7.8,5.8c3,1.3,6.3,1.9,9.5,2.2c3.3,0.3,6.6,0.3,9.9,0.5
								c3.3,0.2,6.6,0.6,9.7,1.6c-3.2-0.9-6.5-1.3-9.7-1.5c-3.3-0.2-6.6-0.1-9.9-0.4c-3.3-0.2-6.6-0.8-9.7-2.1
								c-3.1-1.3-5.8-3.3-8.1-5.8L159.2,112.1z"/>
						</g>
						<g>
							<path class="st0" d="M152.9,99.5c1.5,1.5,3.6,2.4,5.7,2.8c2.1,0.5,4.3,0.6,6.5,0.6c4.4,0,8.7-0.7,13.2-0.8
								c4.4-0.2,8.8-0.3,13.2,0c2.2,0.2,4.4,0.5,6.5,1.1c2.1,0.6,4.2,1.5,5.8,3.1c-1.6-1.5-3.7-2.4-5.8-3c-2.1-0.6-4.3-0.9-6.5-1
								c-4.4-0.3-8.8-0.1-13.2,0.1c-4.4,0.2-8.7,0.9-13.2,1c-2.2,0-4.4-0.1-6.6-0.5c-2.2-0.5-4.3-1.3-6-2.9L152.9,99.5z"/>
						</g>
						<g class="st1">
							<path class="st0" d="M171.5,133.2c1.9,1.9,3.1,4.5,3.9,7.1c0.4,1.3,0.6,2.6,0.7,4c0.1,1.3,0.1,2.7-0.3,4c0.2-1.3,0.2-2.7,0-4
								c-0.2-1.3-0.4-2.6-0.8-3.9c-0.4-1.3-0.8-2.5-1.4-3.8C173,135.4,172.3,134.2,171.5,133.2z"/>
						</g>
						<g>
							<path class="st0" d="M164.8,123.8c1.2,0.9,2,2.2,2.7,3.6c0.6,1.4,1.1,2.8,1.5,4.2c0.3,1.5,0.6,2.9,0.7,4.4
								c0.1,1.5,0.2,3,0,4.5c-0.1-1.5-0.3-2.9-0.5-4.4c-0.2-1.4-0.5-2.9-0.9-4.3c-0.3-1.4-0.8-2.8-1.3-4.2
								C166.5,126.2,165.8,124.9,164.8,123.8z"/>
						</g>
					</g>
					<path class="st2" d="M118.1,58.8c18.3,10,30.3,35,40.1,52.9c5.7,10.4,12.5,24.6,23.6,30.2c-10.6-4.8-20.4-23.5-24.4-33.6
						c-5-12.6-13.6-26.2-22.8-36.3C129.7,66.7,123.2,61.5,118.1,58.8"/>
				</g>
			</g>
		</g>
		<g>
			<g>
				<g>
					<defs>
						<path id="SVGID_25_" d="M137.2,67.7c5,2.8,14.7,9.3,18.1,10c2.9,0.6,8.3,2,11.3,2.3c3.9,0.5,7.3-0.1,11-0.7
							c12.8-2.1,34-13.3,43.9-11.2c1.9,0.4,2.8,5.9,4.6,11.2c1.1,3.2,1.1,12.4,1.3,14.8c0.2,2.7-0.4,5.3-1.5,7.7
							c-2.3,5-6.6,8.4-10,12.5c-3.4,4.1-6.2,8.7-7.8,13.8c-1.5,4.6-2.2,9.6-4.9,13.7c-2.2,3.3-6.3,6-10.8,4.4
							c-0.6-1.8-0.8-3.8-1.3-5.7c-0.5-2-1.2-4.1-1.9-6.1c-3.8-9.8-10.7-18.4-15.9-27.6c-2.4-4.3-4.9-8.6-7.6-12.9
							c-1.6-2.6-4-7.2-7.3-8.2"/>
					</defs>
					
						<linearGradient id="SVGID_26_" gradientUnits="userSpaceOnUse" x1="1851.9319" y1="1517.4368" x2="1852.0026" y2="1422.4513" gradientTransform="matrix(0.4039 -0.9148 0.9148 0.4039 -1915.3712 1194.5148)">
						<stop  offset="0" style="stop-color:#E6EBEC"/>
						<stop  offset="8.086210e-02" style="stop-color:#E8E4E4"/>
						<stop  offset="0.3898" style="stop-color:#EDCFC9"/>
						<stop  offset="1" style="stop-color:#D98485"/>
					</linearGradient>
					<use xlink:href="#SVGID_25_"  style="overflow:visible;fill:url(#SVGID_26_);"/>
					<clipPath id="SVGID_27_">
						<use xlink:href="#SVGID_25_"  style="overflow:visible;"/>
					</clipPath>
				</g>
				<g>
					<g>
						<g>
							<path class="st0" d="M172.2,98.9c2.7,1.8,5.8,3,9,3.4c3.2,0.4,6.5,0.1,9.8-0.5c3.2-0.6,6.4-1.5,9.6-2.2
								c3.2-0.7,6.5-1.2,9.8-1.1c-3.3,0-6.6,0.5-9.8,1.2c-3.2,0.7-6.4,1.7-9.6,2.3c-3.2,0.7-6.6,1.1-9.9,0.7
								c-3.3-0.4-6.5-1.6-9.3-3.4L172.2,98.9z"/>
						</g>
						<g>
							<path class="st0" d="M162.7,88.5c1.9,1,4.1,1.3,6.2,1.2c2.2-0.1,4.3-0.6,6.4-1.2c4.2-1.2,8.2-3,12.4-4.4
								c4.2-1.4,8.4-2.7,12.7-3.6c2.2-0.4,4.4-0.7,6.6-0.7c2.2,0,4.4,0.3,6.4,1.4c-2-1-4.2-1.3-6.4-1.3c-2.2,0-4.4,0.3-6.5,0.8
								c-4.3,0.9-8.5,2.3-12.6,3.7c-4.2,1.4-8.2,3.3-12.4,4.5c-2.1,0.6-4.3,1.1-6.5,1.3c-2.2,0.1-4.5-0.1-6.6-1.2L162.7,88.5z"/>
						</g>
						<g class="st1">
							<path class="st0" d="M189.7,115.9c2.4,1.3,4.2,3.5,5.6,5.7c0.7,1.2,1.3,2.4,1.8,3.6c0.5,1.3,0.8,2.6,0.8,4
								c-0.1-1.3-0.6-2.6-1.1-3.9c-0.5-1.2-1.1-2.4-1.8-3.6c-0.7-1.1-1.5-2.2-2.4-3.2C191.8,117.5,190.8,116.6,189.7,115.9z"/>
						</g>
						<g>
							<path class="st0" d="M180.7,108.7c1.4,0.5,2.6,1.6,3.5,2.7c1,1.1,1.8,2.4,2.6,3.7c0.7,1.3,1.4,2.7,1.9,4
								c0.5,1.4,1,2.8,1.2,4.3c-0.5-1.4-1.1-2.8-1.7-4.1c-0.6-1.3-1.3-2.7-2-3.9c-0.7-1.3-1.5-2.5-2.4-3.7
								C183,110.5,182,109.4,180.7,108.7z"/>
						</g>
					</g>
					<path class="st2" d="M118.1,58.8c20.3,4.6,38.7,25.5,53,40c8.3,8.4,18.8,20.3,30.9,22.6c-11.4-1.7-26-17-32.7-25.7
						c-8.3-10.8-20.2-21.5-31.8-28.7C131.4,63.2,123.7,60,118.1,58.8"/>
				</g>
			</g>
		</g>
	</g>
	<g>
		<g>
			<g>
				<g>
					<defs>
						<path id="SVGID_28_" d="M103.1,14.8c-4.4,3.7-13.9,10.5-15.7,13.4c-1.6,2.5-4.8,7.1-6.2,9.8c-1.8,3.5-2.5,6.9-3.2,10.6
							c-2.6,12.7,0.5,36.5-4.9,45c-1,1.6-6.5,0.5-12.1,0.3c-3.3-0.1-12-3.4-14.3-4c-2.6-0.7-4.8-2.2-6.7-4.1
							c-3.9-3.9-5.5-9.1-8.2-13.8c-2.6-4.6-6-8.9-10.2-12.1c-3.8-3-8.2-5.5-11.1-9.4c-2.3-3.2-3.4-8-0.3-11.7
							c1.9,0.1,3.9,0.6,5.8,0.8c2.1,0.2,4.2,0.3,6.4,0.3c10.6-0.1,21-3.5,31.5-5.1c4.9-0.8,9.8-1.5,14.7-2.6c3-0.6,8.1-1.2,10.2-4"
							/>
					</defs>
					
						<linearGradient id="SVGID_29_" gradientUnits="userSpaceOnUse" x1="-1832.2756" y1="503.7304" x2="-1832.2051" y2="408.745" gradientTransform="matrix(0.7146 0.6996 -0.6996 0.7146 1692.588 998.9383)">
						<stop  offset="0" style="stop-color:#E6EBEC"/>
						<stop  offset="8.086210e-02" style="stop-color:#E8E4E4"/>
						<stop  offset="0.3898" style="stop-color:#EDCFC9"/>
						<stop  offset="1" style="stop-color:#D98485"/>
					</linearGradient>
					<use xlink:href="#SVGID_28_"  style="overflow:visible;fill:url(#SVGID_29_);"/>
					<clipPath id="SVGID_30_">
						<use xlink:href="#SVGID_28_"  style="overflow:visible;"/>
					</clipPath>
				</g>
				<g>
					<g>
						<g>
							<path class="st0" d="M61.6,36.6c-2.6,1.9-4.9,4.4-6.4,7.3c-1.6,2.9-2.4,6.1-3,9.3c-0.6,3.2-0.9,6.5-1.4,9.8
								c-0.5,3.3-1.2,6.5-2.4,9.6c1.2-3.1,1.8-6.3,2.3-9.6c0.4-3.3,0.7-6.5,1.2-9.8c0.5-3.3,1.3-6.5,2.9-9.5c1.5-3,3.8-5.5,6.4-7.6
								L61.6,36.6z"/>
						</g>
						<g>
							<path class="st0" d="M74.6,31.4c-1.6,1.4-2.7,3.3-3.3,5.4c-0.7,2.1-1,4.2-1.2,6.4c-0.4,4.4-0.1,8.8-0.3,13.2
								c-0.2,4.4-0.4,8.8-1.1,13.1c-0.4,2.2-0.9,4.3-1.7,6.4c-0.8,2-1.9,4-3.5,5.5c1.6-1.5,2.7-3.5,3.4-5.5c0.8-2.1,1.2-4.2,1.6-6.4
								c0.7-4.3,0.8-8.7,0.9-13.1c0.1-4.4-0.2-8.8,0.1-13.2c0.2-2.2,0.4-4.4,1.1-6.6c0.6-2.1,1.7-4.2,3.4-5.7L74.6,31.4z"/>
						</g>
						<g class="st1">
							<path class="st0" d="M39.5,47c-2.1,1.8-4.7,2.7-7.4,3.3c-1.3,0.2-2.7,0.4-4,0.4c-1.4,0-2.7-0.2-4-0.6c1.3,0.3,2.7,0.4,4,0.4
								c1.3,0,2.7-0.2,4-0.5c1.3-0.2,2.6-0.6,3.9-1.1C37.2,48.4,38.4,47.8,39.5,47z"/>
						</g>
						<g>
							<path class="st0" d="M49.4,41.2c-1,1.1-2.4,1.8-3.8,2.4c-1.4,0.5-2.9,0.9-4.3,1.1c-1.5,0.2-3,0.3-4.5,0.3
								c-1.5,0-3-0.1-4.4-0.4c1.5,0,3,0,4.4-0.1c1.5-0.1,2.9-0.2,4.4-0.5c1.4-0.2,2.9-0.5,4.3-0.9C46.9,42.6,48.2,42.1,49.4,41.2z"
								/>
						</g>
					</g>
					<path class="st2" d="M118.1,0.1c-11.5,17.4-37.4,27.3-56,35.5c-10.8,4.8-25.6,10.4-32.1,21c5.6-10.1,25.1-18.4,35.6-21.6
						c13-4,27.3-11.4,38.1-19.7C109.3,11,115,4.9,118.1,0.1"/>
				</g>
			</g>
		</g>
		<g>
			<g>
				<g>
					<defs>
						<path id="SVGID_31_" d="M107.6,18.3c-3.2,4.8-10.5,13.8-11.5,17.2c-0.8,2.9-2.7,8.1-3.3,11.1c-0.8,3.8-0.5,7.3-0.2,11.1
							c1,13,10.4,35,7.5,44.7c-0.6,1.8-6.1,2.3-11.6,3.6c-3.2,0.8-12.5,0-14.9,0c-2.7,0-5.3-0.8-7.5-2.1c-4.8-2.7-7.8-7.3-11.6-11
							c-3.8-3.7-8.2-6.9-13.1-8.9c-4.5-1.8-9.4-3-13.3-6.1c-3.1-2.4-5.4-6.7-3.5-11.1c1.9-0.4,3.9-0.5,5.8-0.8
							c2.1-0.3,4.2-0.8,6.2-1.4c10.1-3,19.2-9.1,28.9-13.5c4.5-2.1,9-4.1,13.5-6.5c2.7-1.4,7.5-3.4,8.8-6.6"/>
					</defs>
					
						<linearGradient id="SVGID_32_" gradientUnits="userSpaceOnUse" x1="-1287.4392" y1="155.9413" x2="-1287.3687" y2="60.9559" gradientTransform="matrix(0.878 0.4787 -0.4787 0.878 1260.1869 577.2209)">
						<stop  offset="0" style="stop-color:#E6EBEC"/>
						<stop  offset="8.086210e-02" style="stop-color:#E8E4E4"/>
						<stop  offset="0.3898" style="stop-color:#EDCFC9"/>
						<stop  offset="1" style="stop-color:#D98485"/>
					</linearGradient>
					<use xlink:href="#SVGID_31_"  style="overflow:visible;fill:url(#SVGID_32_);"/>
					<clipPath id="SVGID_33_">
						<use xlink:href="#SVGID_31_"  style="overflow:visible;"/>
					</clipPath>
				</g>
				<g>
					<g>
						<g>
							<path class="st0" d="M73.7,50.6c-2,2.6-3.5,5.5-4.2,8.7c-0.7,3.2-0.7,6.5-0.3,9.8c0.3,3.3,0.9,6.5,1.4,9.8
								c0.4,3.3,0.6,6.6,0.3,9.9c0.3-3.3,0-6.6-0.4-9.8c-0.5-3.3-1.1-6.5-1.5-9.8c-0.4-3.3-0.5-6.6,0.2-9.9c0.6-3.3,2.1-6.4,4.1-9
								L73.7,50.6z"/>
						</g>
						<g>
							<path class="st0" d="M84.8,42.1c-1.2,1.8-1.6,3.9-1.7,6.1c-0.1,2.2,0.2,4.3,0.6,6.5C84.5,59,86,63.1,87,67.4
								c1,4.3,2,8.6,2.5,13c0.2,2.2,0.3,4.4,0.1,6.6c-0.2,2.2-0.7,4.4-1.9,6.3c1.2-1.9,1.6-4.1,1.8-6.3c0.2-2.2,0-4.4-0.2-6.6
								c-0.5-4.4-1.6-8.6-2.7-12.9c-1.1-4.3-2.6-8.4-3.5-12.7c-0.4-2.2-0.8-4.4-0.7-6.6c0-2.2,0.5-4.5,1.7-6.4L84.8,42.1z"/>
						</g>
						<g class="st1">
							<path class="st0" d="M55.3,66.7c-1.5,2.3-3.8,3.9-6.2,5.1c-1.2,0.6-2.5,1.1-3.8,1.5c-1.3,0.4-2.7,0.6-4,0.5
								c1.4,0,2.7-0.3,3.9-0.7c1.3-0.4,2.5-0.9,3.7-1.5c1.2-0.6,2.3-1.3,3.4-2.1C53.4,68.6,54.4,67.7,55.3,66.7z"/>
						</g>
						<g>
							<path class="st0" d="M63.2,58.3c-0.6,1.4-1.8,2.4-3,3.3c-1.2,0.9-2.5,1.6-3.9,2.3c-1.4,0.6-2.8,1.1-4.2,1.5
								c-1.4,0.4-2.9,0.7-4.4,0.9c1.4-0.4,2.8-0.8,4.2-1.3c1.4-0.5,2.7-1,4.1-1.7c1.3-0.6,2.6-1.3,3.9-2.1
								C61.1,60.4,62.3,59.5,63.2,58.3z"/>
						</g>
					</g>
					<path class="st2" d="M118.1,0.1c-6.3,19.8-28.6,36.5-44.2,49.4c-9.1,7.5-21.8,17-25.1,28.9C51.4,67.2,67.9,54,77.1,48
						c11.4-7.3,23.2-18.4,31.3-29.3C112.6,13,116.4,5.6,118.1,0.1"/>
				</g>
			</g>
		</g>
		<g>
			<g>
				<g>
					<defs>
						<path id="SVGID_34_" d="M113,20.5c-1.8,5.5-6.4,16.2-6.4,19.6c0,3-0.4,8.6-0.1,11.6c0.3,3.9,1.5,7.2,2.8,10.7
							c4.5,12.2,19.6,30.8,19.4,41c0,1.9-5.3,3.8-10.2,6.6c-2.9,1.7-12,3.4-14.3,4.1c-2.6,0.7-5.3,0.6-7.8,0
							c-5.3-1.3-9.5-4.9-14.2-7.5c-4.7-2.5-9.8-4.4-15-5c-4.8-0.5-9.9-0.3-14.4-2.2c-3.7-1.5-7.1-5-6.4-9.8c1.7-0.9,3.6-1.5,5.3-2.3
							c1.9-0.9,3.8-1.9,5.6-3.1c8.9-5.6,16-14,24.1-20.9c3.8-3.2,7.5-6.4,11.2-9.9c2.2-2.1,6.3-5.3,6.6-8.8"/>
					</defs>
					
						<linearGradient id="SVGID_35_" gradientUnits="userSpaceOnUse" x1="-668.5067" y1="-30.4094" x2="-668.4362" y2="-125.3948" gradientTransform="matrix(0.9751 0.2216 -0.2216 0.9751 729.3207 289.1284)">
						<stop  offset="0" style="stop-color:#E6EBEC"/>
						<stop  offset="8.086210e-02" style="stop-color:#E8E4E4"/>
						<stop  offset="0.3898" style="stop-color:#EDCFC9"/>
						<stop  offset="1" style="stop-color:#D98485"/>
					</linearGradient>
					<use xlink:href="#SVGID_34_"  style="overflow:visible;fill:url(#SVGID_35_);"/>
					<clipPath id="SVGID_36_">
						<use xlink:href="#SVGID_34_"  style="overflow:visible;"/>
					</clipPath>
				</g>
				<g>
					<g>
						<g>
							<path class="st0" d="M89.1,60.8c-1.2,3-1.9,6.3-1.6,9.5c0.2,3.3,1.1,6.4,2.4,9.5c1.2,3.1,2.7,6,4,9c1.3,3,2.4,6.2,2.9,9.4
								c-0.6-3.2-1.8-6.4-3.1-9.4c-1.3-3-2.8-5.9-4.1-9c-1.3-3-2.3-6.2-2.5-9.6c-0.3-3.3,0.3-6.7,1.5-9.8L89.1,60.8z"/>
						</g>
						<g>
							<path class="st0" d="M97.5,49.6c-0.7,2-0.5,4.2,0,6.3C98,58,98.9,60,99.8,62c2,3.9,4.5,7.5,6.7,11.4
								c2.1,3.8,4.3,7.7,5.9,11.8c0.8,2,1.5,4.1,1.9,6.3c0.4,2.2,0.5,4.4-0.1,6.5c0.6-2.1,0.5-4.4,0-6.5c-0.4-2.2-1.2-4.2-2-6.3
								c-1.7-4.1-3.9-7.9-6.1-11.7c-2.2-3.8-4.8-7.4-6.8-11.3c-1-2-1.9-4-2.5-6.2c-0.6-2.1-0.8-4.5-0.1-6.7L97.5,49.6z"/>
						</g>
						<g class="st1">
							<path class="st0" d="M75.8,81.3c-0.8,2.6-2.6,4.8-4.6,6.6c-1,0.9-2.1,1.7-3.2,2.5c-1.2,0.7-2.4,1.3-3.7,1.6
								c1.3-0.4,2.5-1.1,3.6-1.8c1.1-0.7,2.2-1.6,3.2-2.5c1-0.9,1.9-1.9,2.7-2.9C74.5,83.7,75.2,82.5,75.8,81.3z"/>
						</g>
						<g>
							<path class="st0" d="M81.1,71.1c-0.2,1.5-1.1,2.8-2,4c-0.9,1.2-2,2.2-3.1,3.2c-1.2,0.9-2.3,1.8-3.6,2.6c-1.3,0.8-2.6,1.5-4,2
								c1.3-0.8,2.5-1.6,3.7-2.4c1.2-0.9,2.4-1.7,3.5-2.7c1.1-0.9,2.2-2,3.1-3C79.7,73.7,80.6,72.5,81.1,71.1z"/>
						</g>
					</g>
					<path class="st2" d="M118.1,0.1C117.5,20.9,100.5,43,89,59.7C82.3,69.4,72.7,82,72.7,94.4c-0.5-11.6,11.8-28.8,19-37
						c9-10.2,17.3-24,22.1-36.7C116.3,14,118,5.8,118.1,0.1"/>
				</g>
			</g>
		</g>
		<g>
			<g>
				<g>
					<defs>
						<path id="SVGID_37_" d="M118.7,21.1c-0.3,5.8-1.7,17.3-0.8,20.6c0.8,2.9,2,8.3,3,11.2c1.3,3.7,3.4,6.5,5.6,9.5
							c7.6,10.5,27.2,24.3,29.8,34.1c0.5,1.9-4,5.1-8,9.2c-2.3,2.4-10.6,6.6-12.7,7.8c-2.3,1.4-4.9,2-7.5,2.2
							c-5.5,0.2-10.4-2.1-15.7-3.3c-5.2-1.2-10.6-1.6-15.8-0.7c-4.8,0.8-9.6,2.4-14.5,1.8c-3.9-0.5-8.2-2.9-8.8-7.7
							c1.4-1.3,3-2.4,4.5-3.7c1.6-1.4,3.1-2.9,4.5-4.5C89.6,89.8,94.1,79.9,100,71c2.8-4.1,5.5-8.3,8.1-12.6c1.6-2.6,4.6-6.8,4-10.2
							"/>
					</defs>
					
						<linearGradient id="SVGID_38_" gradientUnits="userSpaceOnUse" x1="-22.22" y1="-41.2484" x2="-22.1494" y2="-136.2338" gradientTransform="matrix(0.9986 -5.221873e-02 5.221873e-02 0.9986 140.0806 156.4175)">
						<stop  offset="0" style="stop-color:#E6EBEC"/>
						<stop  offset="8.086210e-02" style="stop-color:#E8E4E4"/>
						<stop  offset="0.3898" style="stop-color:#EDCFC9"/>
						<stop  offset="1" style="stop-color:#D98485"/>
					</linearGradient>
					<use xlink:href="#SVGID_37_"  style="overflow:visible;fill:url(#SVGID_38_);"/>
					<clipPath id="SVGID_39_">
						<use xlink:href="#SVGID_37_"  style="overflow:visible;"/>
					</clipPath>
				</g>
				<g>
					<g>
						<g>
							<path class="st0" d="M106.7,66.4c-0.4,3.2-0.1,6.5,1,9.6c1.1,3.1,2.8,5.9,4.8,8.5c2,2.6,4.2,5.1,6.3,7.6
								c2.1,2.6,4,5.3,5.4,8.3c-1.5-3-3.4-5.6-5.5-8.2c-2.1-2.5-4.4-4.9-6.4-7.5c-2.1-2.6-3.9-5.4-5.1-8.5c-1.2-3.1-1.5-6.5-1.2-9.9
								L106.7,66.4z"/>
						</g>
						<g>
							<path class="st0" d="M111.7,53.3c-0.1,2.1,0.7,4.2,1.7,6.1c1.1,1.9,2.5,3.6,3.9,5.2c3,3.2,6.4,6,9.5,9.1
								c3.1,3.1,6.2,6.2,8.9,9.7c1.4,1.7,2.6,3.6,3.6,5.5c1,2,1.7,4.1,1.7,6.3c0-2.2-0.8-4.3-1.7-6.3c-1-2-2.3-3.8-3.6-5.5
								c-2.7-3.4-5.9-6.5-9-9.6c-3.1-3.1-6.6-5.8-9.6-9c-1.5-1.6-2.9-3.3-4.1-5.2c-1.1-1.9-2-4.1-1.9-6.4L111.7,53.3z"/>
						</g>
						<g class="st1">
							<path class="st0" d="M99.5,89.7c-0.1,2.7-1.2,5.3-2.6,7.6c-0.7,1.1-1.5,2.2-2.4,3.2c-0.9,1-2,1.9-3.2,2.5
								c1.1-0.7,2.1-1.7,3-2.7c0.9-1,1.7-2.1,2.4-3.2c0.7-1.1,1.3-2.3,1.8-3.6C98.9,92.4,99.3,91.1,99.5,89.7z"/>
						</g>
						<g>
							<path class="st0" d="M101.8,78.5c0.2,1.5-0.3,3-0.8,4.4c-0.6,1.4-1.3,2.7-2.1,3.9c-0.9,1.2-1.8,2.4-2.8,3.5
								c-1,1.1-2.1,2.1-3.3,3c1-1.1,2-2.2,2.9-3.3c0.9-1.2,1.8-2.3,2.6-3.5c0.8-1.2,1.6-2.5,2.2-3.8C101.2,81.3,101.7,80,101.8,78.5
								z"/>
						</g>
					</g>
					<path class="st2" d="M118.1,0.1c5,20.2-5.3,46-11.8,65.3c-3.8,11.2-9.6,25.9-6.3,37.8c-3.6-11,3.5-30.9,8.2-40.8
						c5.9-12.2,10.1-27.8,11.3-41.3C120.2,14,119.5,5.7,118.1,0.1"/>
				</g>
			</g>
		</g>
		<g>
			<g>
				<g>
					<defs>
						<path id="SVGID_40_" d="M124.4,20.2c1.3,5.6,3.1,17.1,4.9,20.1c1.6,2.6,4.2,7.5,6,9.9c2.3,3.2,5,5.3,8,7.6
							c10.2,8,32.8,16,38,24.7c1,1.7-2.5,6-5.2,11c-1.6,2.9-8.4,9.2-10.1,11c-1.8,2-4.2,3.3-6.6,4.1c-5.2,1.7-10.6,0.8-16,1.1
							c-5.3,0.3-10.6,1.4-15.4,3.6c-4.4,2-8.6,4.9-13.4,5.7c-3.9,0.6-8.6-0.6-10.5-5c0.9-1.7,2.3-3.2,3.3-4.8
							c1.2-1.8,2.2-3.6,3.1-5.5c4.6-9.5,6.3-20.3,9.6-30.4c1.5-4.7,3.1-9.4,4.4-14.3c0.8-3,2.6-7.8,1.1-10.9"/>
					</defs>
					
						<linearGradient id="SVGID_41_" gradientUnits="userSpaceOnUse" x1="602.6133" y1="124.2429" x2="602.6839" y2="29.2575" gradientTransform="matrix(0.9467 -0.3221 0.3221 0.9467 -463.0342 189.1105)">
						<stop  offset="0" style="stop-color:#E6EBEC"/>
						<stop  offset="8.086210e-02" style="stop-color:#E8E4E4"/>
						<stop  offset="0.3898" style="stop-color:#EDCFC9"/>
						<stop  offset="1" style="stop-color:#D98485"/>
					</linearGradient>
					<use xlink:href="#SVGID_40_"  style="overflow:visible;fill:url(#SVGID_41_);"/>
					<clipPath id="SVGID_42_">
						<use xlink:href="#SVGID_40_"  style="overflow:visible;"/>
					</clipPath>
				</g>
				<g>
					<g>
						<g>
							<path class="st0" d="M125.2,67c0.5,3.2,1.7,6.3,3.6,9c1.9,2.7,4.3,4.9,7,6.8c2.6,2,5.4,3.7,8.1,5.6c2.7,1.9,5.3,4,7.4,6.5
								c-2.2-2.5-4.8-4.5-7.5-6.4c-2.7-1.9-5.5-3.6-8.2-5.5c-2.7-1.9-5.2-4.1-7.2-6.8c-2-2.7-3.2-5.9-3.8-9.2L125.2,67z"/>
						</g>
						<g>
							<path class="st0" d="M126.4,53.1c0.5,2.1,1.8,3.9,3.3,5.4c1.5,1.5,3.3,2.8,5.2,3.9c3.7,2.3,7.8,4,11.6,6.2
								c3.8,2.1,7.7,4.3,11.2,6.9c1.8,1.3,3.5,2.7,5,4.4c1.5,1.6,2.8,3.5,3.3,5.6c-0.6-2.1-1.9-4-3.4-5.6c-1.5-1.6-3.2-3-5-4.3
								c-3.6-2.6-7.4-4.7-11.3-6.8c-3.8-2.1-7.9-3.8-11.7-6.1c-1.9-1.1-3.7-2.4-5.4-3.9c-1.6-1.5-3-3.4-3.6-5.7L126.4,53.1z"/>
						</g>
						<g class="st1">
							<path class="st0" d="M124.6,91.4c0.7,2.6,0.3,5.4-0.4,8c-0.4,1.3-0.9,2.6-1.5,3.8c-0.6,1.2-1.4,2.4-2.3,3.3
								c0.9-1,1.6-2.2,2.1-3.4c0.6-1.2,1-2.5,1.4-3.8c0.4-1.3,0.6-2.6,0.8-3.9C124.8,94.1,124.8,92.8,124.6,91.4z"/>
						</g>
						<g>
							<path class="st0" d="M123.8,79.9c0.6,1.4,0.6,2.9,0.4,4.4c-0.2,1.5-0.5,2.9-1,4.4c-0.5,1.4-1,2.8-1.7,4.1
								c-0.7,1.3-1.4,2.6-2.3,3.8c0.7-1.3,1.3-2.6,1.9-4c0.6-1.4,1.1-2.7,1.5-4.1c0.5-1.4,0.8-2.8,1.1-4.2
								C124,82.9,124.1,81.4,123.8,79.9z"/>
						</g>
					</g>
					<path class="st2" d="M118.1,0.1c10.3,18.1,7.5,45.7,6.4,66c-0.6,11.8-2.2,27.6,4.3,38.1c-6.5-9.6-5.1-30.7-3.2-41.5
						c2.3-13.4,2.2-29.5-0.4-42.9C123.9,12.9,121,5.1,118.1,0.1"/>
				</g>
			</g>
		</g>
		<g>
			<g>
				<g>
					<defs>
						<path id="SVGID_43_" d="M129.7,17.7c2.8,5,7.6,15.6,10.1,18c2.2,2,6.1,6,8.4,7.9c3,2.4,6.3,3.7,9.8,5.2
							c12,5,35.9,6.5,43.3,13.5c1.4,1.3-0.8,6.5-2,12c-0.7,3.3-5.6,11.2-6.7,13.3c-1.2,2.4-3.1,4.3-5.3,5.8
							c-4.5,3.1-10,3.7-15.1,5.4c-5,1.7-9.8,4.2-13.9,7.7c-3.7,3.2-6.9,7-11.4,9.1c-3.6,1.7-8.5,1.8-11.5-1.9
							c0.5-1.9,1.3-3.7,1.9-5.5c0.6-2,1.1-4.1,1.5-6.2c1.9-10.4,0.6-21.2,1-31.9c0.2-5,0.4-9.9,0.3-14.9c0-3.1,0.4-8.2-2-10.8"/>
					</defs>
					
						<linearGradient id="SVGID_44_" gradientUnits="userSpaceOnUse" x1="1158.8057" y1="453.5666" x2="1158.8763" y2="358.5811" gradientTransform="matrix(0.8233 -0.5676 0.5676 0.8233 -1034.4761 384.7385)">
						<stop  offset="0" style="stop-color:#E6EBEC"/>
						<stop  offset="8.086210e-02" style="stop-color:#E8E4E4"/>
						<stop  offset="0.3898" style="stop-color:#EDCFC9"/>
						<stop  offset="1" style="stop-color:#D98485"/>
					</linearGradient>
					<use xlink:href="#SVGID_43_"  style="overflow:visible;fill:url(#SVGID_44_);"/>
					<clipPath id="SVGID_45_">
						<use xlink:href="#SVGID_43_"  style="overflow:visible;"/>
					</clipPath>
				</g>
				<g>
					<g>
						<g>
							<path class="st0" d="M143.2,62.6c1.4,2.9,3.4,5.6,5.9,7.7c2.5,2.1,5.5,3.5,8.6,4.7c3.1,1.2,6.2,2.1,9.3,3.2
								c3.1,1.1,6.2,2.4,8.9,4.2c-2.8-1.8-5.9-3-9-4.1c-3.1-1.1-6.3-1.9-9.4-3.1c-3.1-1.1-6.1-2.5-8.8-4.6c-2.6-2.1-4.7-4.8-6.2-7.8
								L143.2,62.6z"/>
						</g>
						<g>
							<path class="st0" d="M140.5,48.8c1,1.9,2.8,3.2,4.7,4.3c1.9,1,4,1.8,6.1,2.4c4.2,1.2,8.6,1.7,12.9,2.8
								c4.3,1,8.6,2.1,12.7,3.6c2.1,0.8,4.1,1.7,6,2.8c1.9,1.2,3.6,2.6,4.7,4.5c-1.2-1.9-2.9-3.3-4.8-4.4c-1.9-1.1-3.9-2-6-2.8
								c-4.1-1.5-8.4-2.5-12.7-3.4c-4.3-1-8.7-1.5-12.9-2.6c-2.1-0.6-4.2-1.3-6.2-2.3c-2-1-3.8-2.5-5-4.5L140.5,48.8z"/>
						</g>
						<g class="st1">
							<path class="st0" d="M149.2,86.2c1.4,2.4,1.8,5.2,1.8,7.8c0,1.4-0.1,2.7-0.4,4c-0.3,1.3-0.7,2.6-1.4,3.8
								c0.6-1.2,0.9-2.5,1.1-3.9c0.2-1.3,0.3-2.7,0.3-4c0-1.3-0.1-2.7-0.3-4C150.1,88.8,149.8,87.4,149.2,86.2z"/>
						</g>
						<g>
							<path class="st0" d="M145.3,75.4c0.9,1.2,1.4,2.7,1.6,4.1c0.3,1.5,0.3,3,0.3,4.5c-0.1,1.5-0.2,3-0.5,4.4
								c-0.3,1.5-0.6,2.9-1.2,4.3c0.3-1.5,0.5-2.9,0.7-4.4c0.2-1.5,0.3-2.9,0.4-4.4c0.1-1.5,0-2.9-0.1-4.4
								C146.3,78.2,146,76.7,145.3,75.4z"/>
						</g>
					</g>
					<path class="st2" d="M118.1,0.1c14.9,14.6,19.6,42,24.2,61.8c2.6,11.5,5.4,27.1,14.5,35.5c-8.9-7.5-13.2-28.1-14.4-39
						c-1.4-13.5-5.9-29-12.1-41.1C127.1,10.8,122.3,4.1,118.1,0.1"/>
				</g>
			</g>
		</g>
		<g>
			<g>
				<g>
					<defs>
						<path id="SVGID_46_" d="M134,13.9c4.1,4.1,11.6,13,14.7,14.5c2.7,1.4,7.5,4.2,10.3,5.3c3.6,1.5,7.1,1.9,10.8,2.3
							c12.9,1.5,36.4-3.6,45.3,1.2c1.7,0.9,1,6.4,1.3,12.1c0.2,3.3-2.4,12.3-2.8,14.6c-0.5,2.6-1.8,5-3.5,7
							c-3.5,4.2-8.6,6.2-13.1,9.3c-4.4,3-8.3,6.7-11.2,11.2c-2.7,4-4.8,8.6-8.5,11.9c-3,2.6-7.6,4.1-11.6,1.3
							c-0.1-1.9,0.3-3.9,0.3-5.8c0.1-2.1,0-4.2-0.2-6.4c-1-10.5-5.2-20.6-7.7-30.9c-1.2-4.8-2.3-9.6-3.8-14.4c-0.9-3-1.9-8-4.8-9.9"
							/>
					</defs>
					
						<linearGradient id="SVGID_47_" gradientUnits="userSpaceOnUse" x1="1604.3535" y1="921.852" x2="1604.4241" y2="826.8666" gradientTransform="matrix(0.6377 -0.7703 0.7703 0.6377 -1531.09 728.5276)">
						<stop  offset="0" style="stop-color:#E6EBEC"/>
						<stop  offset="8.086210e-02" style="stop-color:#E8E4E4"/>
						<stop  offset="0.3898" style="stop-color:#EDCFC9"/>
						<stop  offset="1" style="stop-color:#D98485"/>
					</linearGradient>
					<use xlink:href="#SVGID_46_"  style="overflow:visible;fill:url(#SVGID_47_);"/>
					<clipPath id="SVGID_48_">
						<use xlink:href="#SVGID_46_"  style="overflow:visible;"/>
					</clipPath>
				</g>
				<g>
					<g>
						<g>
							<path class="st0" d="M159.2,53.4c2.1,2.5,4.8,4.5,7.8,5.8c3,1.3,6.3,1.9,9.5,2.2c3.3,0.3,6.6,0.3,9.9,0.5
								c3.3,0.2,6.6,0.6,9.7,1.6c-3.2-0.9-6.5-1.3-9.7-1.5c-3.3-0.2-6.6-0.1-9.9-0.4c-3.3-0.2-6.6-0.8-9.7-2.1
								c-3.1-1.3-5.8-3.3-8.1-5.8L159.2,53.4z"/>
						</g>
						<g>
							<path class="st0" d="M152.9,40.9c1.5,1.5,3.6,2.4,5.7,2.8c2.1,0.5,4.3,0.6,6.5,0.6c4.4,0,8.7-0.7,13.2-0.8
								c4.4-0.2,8.8-0.3,13.2,0c2.2,0.2,4.4,0.5,6.5,1.1c2.1,0.6,4.2,1.5,5.8,3c-1.6-1.5-3.7-2.4-5.8-3c-2.1-0.6-4.3-0.9-6.5-1
								c-4.4-0.3-8.8-0.1-13.2,0.1c-4.4,0.2-8.7,0.9-13.2,1c-2.2,0-4.4-0.1-6.6-0.5c-2.2-0.5-4.3-1.3-6-2.9L152.9,40.9z"/>
						</g>
						<g class="st1">
							<path class="st0" d="M171.5,74.5c1.9,1.9,3.1,4.5,3.9,7.1c0.4,1.3,0.6,2.6,0.7,4c0.1,1.3,0.1,2.7-0.3,4c0.2-1.3,0.2-2.7,0-4
								c-0.2-1.3-0.4-2.6-0.8-3.9c-0.4-1.3-0.8-2.5-1.4-3.8C173,76.7,172.3,75.5,171.5,74.5z"/>
						</g>
						<g>
							<path class="st0" d="M164.8,65.1c1.2,0.9,2,2.2,2.7,3.6c0.6,1.4,1.1,2.8,1.5,4.2c0.3,1.5,0.6,2.9,0.7,4.4
								c0.1,1.5,0.2,3,0,4.5c-0.1-1.5-0.3-2.9-0.5-4.4c-0.2-1.4-0.5-2.9-0.9-4.3c-0.3-1.4-0.8-2.8-1.3-4.2
								C166.5,67.6,165.8,66.2,164.8,65.1z"/>
						</g>
					</g>
					<path class="st2" d="M118.1,0.1c18.3,10,30.3,35,40.1,52.9c5.7,10.4,12.5,24.6,23.6,30.2c-10.6-4.8-20.4-23.5-24.4-33.6
						c-5-12.6-13.6-26.2-22.8-36.3C129.7,8,123.2,2.8,118.1,0.1"/>
				</g>
			</g>
		</g>
	</g>
</g>
</svg>
