<?xml version="1.0" encoding="utf-8"?>
<!-- Generator: Adobe Illustrator 23.0.1, SVG Export Plug-In . SVG Version: 6.00 Build 0)  -->
<svg version="1.1" id="Livello_1" xmlns="http://www.w3.org/2000/svg" xmlns:xlink="http://www.w3.org/1999/xlink" x="0px" y="0px"
	 viewBox="0 0 70.6 17.3" style="enable-background:new 0 0 70.6 17.3;" xml:space="preserve">
<style type="text/css">
	.st0{fill:#FFFFFF;}
</style>
<g>
	<g>
		<path class="st0" d="M12,14.3C10.9,15.5,9.5,16,8,16c-1,0-1.9-0.2-2.7-0.6c-0.8-0.4-1.6-0.9-2.2-1.6c-0.6-0.7-1.1-1.5-1.5-2.4
			S1.1,9.5,1.1,8.5s0.2-1.9,0.5-2.8S2.5,4,3.1,3.4c0.6-0.7,1.4-1.2,2.2-1.6c0.9-0.4,1.8-0.6,2.8-0.6c1.4,0,2.5,0.3,3.5,0.9
			s1.7,1.3,2.2,2.3l-2,1.6c-0.4-0.7-0.9-1.3-1.5-1.7C9.6,4,8.8,3.8,8.1,3.8c-0.6,0-1.2,0.1-1.7,0.4s-1,0.6-1.3,1.1
			c-0.4,0.5-0.6,1-0.8,1.6C4,7.4,3.9,8,3.9,8.7S4,10,4.2,10.6c0.2,0.6,0.5,1.1,0.9,1.5s0.8,0.8,1.4,1c0.5,0.3,1.1,0.4,1.7,0.4
			c1.4,0,2.7-0.7,3.8-2v-1H9.1V8.4h5.3v7.5H12V14.3z"/>
		<path class="st0" d="M23.8,16c-1.1,0-2-0.2-2.9-0.6c-0.9-0.4-1.6-1-2.2-1.7s-1.1-1.5-1.4-2.4s-0.5-1.8-0.5-2.7
			c0-1,0.2-1.9,0.5-2.8c0.4-0.9,0.9-1.7,1.5-2.4s1.4-1.2,2.3-1.6s1.8-0.6,2.8-0.6c1.1,0,2,0.2,2.9,0.6s1.6,1,2.2,1.7
			s1.1,1.5,1.4,2.4s0.5,1.8,0.5,2.7c0,1-0.2,1.9-0.5,2.8c-0.4,0.9-0.8,1.7-1.5,2.3c-0.6,0.7-1.4,1.2-2.3,1.6
			C25.8,15.8,24.8,16,23.8,16z M19.6,8.7c0,0.6,0.1,1.2,0.3,1.8c0.2,0.6,0.5,1.1,0.8,1.6c0.4,0.4,0.8,0.8,1.3,1.1s1.1,0.4,1.8,0.4
			c0.7,0,1.3-0.1,1.8-0.4c0.5-0.3,1-0.7,1.3-1.1c0.4-0.5,0.6-1,0.8-1.6C27.9,9.9,28,9.3,28,8.7s-0.1-1.2-0.3-1.8
			c-0.2-0.6-0.5-1.1-0.8-1.6c-0.4-0.5-0.8-0.8-1.3-1.1s-1.1-0.4-1.8-0.4c-0.7,0-1.3,0.1-1.8,0.4s-1,0.6-1.3,1.1
			c-0.4,0.5-0.6,1-0.8,1.6S19.6,8.1,19.6,8.7z"/>
		<path class="st0" d="M44.1,3.9h-4.7V16h-2.8V3.9H32V1.4h12.1V3.9z"/>
		<path class="st0" d="M51.9,15.9V1.4h2.8V16h-2.8V15.9z"/>
		<path class="st0" d="M69.5,3.9h-4.7V16H62V3.9h-4.7V1.4h12.1L69.5,3.9L69.5,3.9z"/>
	</g>
</g>
</svg>
