<?xml version="1.0" encoding="utf-8"?>
<!-- Generator: Adobe Illustrator 23.0.1, SVG Export Plug-In . SVG Version: 6.00 Build 0)  -->
<svg version="1.1" id="Livello_1" xmlns="http://www.w3.org/2000/svg" xmlns:xlink="http://www.w3.org/1999/xlink" x="0px" y="0px"
	 viewBox="0 0 22.8 17.7" style="enable-background:new 0 0 22.8 17.7;" xml:space="preserve">
<style type="text/css">
	.st0{fill:#E3A5A3;}
</style>
<g>
	<g>
		<g>
			<path class="st0" d="M21.4,7.2c-0.2-0.3-0.2-0.4-0.3-0.8l-0.3-1.1c-0.2-0.8-1.1-1.2-1.9-1c-0.2,0.1-0.5,0.2-0.6,0.4l0-0.1
				c-0.3-0.8-1.2-1.3-2-1c-0.3,0.1-0.6,0.3-0.8,0.5c-0.4-0.5-1-0.7-1.7-0.5c-0.3,0.1-0.5,0.2-0.7,0.4l-0.9-3
				c-0.3-0.9-1.2-1.4-2.1-1.1S8.7,1.3,9,2.2l1.9,6c-0.3,0-0.5,0.1-0.7,0.3C9.7,8.8,9.5,9.2,9.5,9.7c0,0.3,0.1,0.7,0.2,1l0.1,0.2
				l0.1,0.5c0.1,0.5,0.3,1,0.5,1.4c0.4,0.9,0.8,1.7,1.5,2.2c0.4,0.3,0.9,0.6,1.4,0.8c0.2,0.1,0.5,0.2,0.7,0.4
				c0.5,0.3,1.3,0.7,1.5,1.2l0.1,0.4l7.2-2.2l-0.1-0.4c-0.1-0.2-0.1-0.4-0.2-0.6c-0.2-0.5-0.4-1.1-0.4-1.6c0-0.3,0-0.7,0.1-1
				c0-0.2,0.1-0.5,0.1-0.7l0-0.3c0-0.7,0.1-1.3-0.2-2C21.8,8.2,21.7,7.7,21.4,7.2z M21.4,10.7l0,0.4c0,0.2,0,0.4-0.1,0.7
				c0,0.4-0.1,0.8-0.1,1.2c0.1,0.6,0.3,1.2,0.5,1.8c0,0.1,0,0.1,0.1,0.2l-5.7,1.8c-0.4-0.6-1.2-1-1.7-1.3c-0.3-0.1-0.5-0.3-0.8-0.4
				c-0.5-0.2-0.9-0.4-1.3-0.7c-0.6-0.4-1-1.4-1.2-1.9c-0.2-0.4-0.3-0.9-0.4-1.3l-0.1-0.5l-0.1-0.2c-0.1-0.2-0.2-0.5-0.2-0.7
				c0-0.2,0.1-0.5,0.3-0.6C10.7,9,10.9,9,11.1,9l0.5,1.7l0.8-0.2l-0.5-1.6l-0.1-0.4l-2-6.5C9.6,1.5,9.9,1,10.3,0.8
				c0.5-0.1,0.9,0.1,1.1,0.6l1.3,4.3l0.8,2.6l0.8-0.2l-0.8-2.6c-0.1-0.4,0.1-0.8,0.5-1c0.4-0.1,0.8,0.1,1,0.5l0.2,0.6l0.6,2l0.8-0.2
				l-0.6-2c-0.1-0.4,0.1-0.8,0.5-1s0.8,0.1,1,0.5l0.4,1.3l0.2,0.6l0.8-0.2L18.6,6c-0.1-0.4,0.1-0.8,0.5-0.9C19.5,5,19.9,5.2,20,5.6
				l0.3,1c0.1,0.4,0.2,0.7,0.4,1C20.9,8,21.1,8.5,21.2,9C21.4,9.5,21.4,10.1,21.4,10.7z"/>
		</g>
	</g>
	<g>
		<g>
			<path class="st0" d="M2,14.8C0,10.1,0.9,5.8,2.1,3L3,3.3C1.9,6,1,10,2.9,14.4L2,14.8z"/>
		</g>
		<g>
			<g>
				<polygon class="st0" points="0.1,2.7 4.3,0 4.5,5 				"/>
			</g>
		</g>
		<g>
			<g>
				<polygon class="st0" points="0,15.1 4.3,17.7 4.4,12.7 				"/>
			</g>
		</g>
	</g>
</g>
</svg>
