<?xml version="1.0" encoding="utf-8"?>
<!-- Generator: Adobe Illustrator 23.0.1, SVG Export Plug-In . SVG Version: 6.00 Build 0)  -->
<!DOCTYPE svg PUBLIC "-//W3C//DTD SVG 1.1//EN" "http://www.w3.org/Graphics/SVG/1.1/DTD/svg11.dtd" [
	<!ENTITY ns_extend "http://ns.adobe.com/Extensibility/1.0/">
	<!ENTITY ns_ai "http://ns.adobe.com/AdobeIllustrator/10.0/">
	<!ENTITY ns_graphs "http://ns.adobe.com/Graphs/1.0/">
	<!ENTITY ns_vars "http://ns.adobe.com/Variables/1.0/">
	<!ENTITY ns_imrep "http://ns.adobe.com/ImageReplacement/1.0/">
	<!ENTITY ns_sfw "http://ns.adobe.com/SaveForWeb/1.0/">
	<!ENTITY ns_custom "http://ns.adobe.com/GenericCustomNamespace/1.0/">
	<!ENTITY ns_adobe_xpath "http://ns.adobe.com/XPath/1.0/">
]>
<svg version="1.1" id="Livello_1" xmlns:x="&ns_extend;" xmlns:i="&ns_ai;" xmlns:graph="&ns_graphs;"
	 xmlns="http://www.w3.org/2000/svg" xmlns:xlink="http://www.w3.org/1999/xlink" x="0px" y="0px" viewBox="0 0 510.2 510.2"
	 style="enable-background:new 0 0 510.2 510.2;" xml:space="preserve">
<style type="text/css">
	.st0{opacity:0.78;fill:none;stroke:#404896;stroke-width:0.5;stroke-miterlimit:10;enable-background:new    ;}
	.st1{fill:none;stroke:#444695;stroke-width:0.5;stroke-miterlimit:10;}
	.st2{opacity:0.5;}
	.st3{fill:#454897;}
</style>
<metadata>
	<x:xmpmeta  xmlns:x="adobe:ns:meta/">
		<rdf:RDF  xmlns:rdf="http://www.w3.org/1999/02/22-rdf-syntax-ns#">
			
				<rdf:Description  rdf:about="" xmlns:dc="http://purl.org/dc/elements/1.1/" xmlns:stDim="http://ns.adobe.com/xap/1.0/sType/Dimensions#" xmlns:stFnt="http://ns.adobe.com/xap/1.0/sType/Font#" xmlns:xmp="http://ns.adobe.com/xap/1.0/" xmlns:xmpG="http://ns.adobe.com/xap/1.0/g/" xmlns:xmpGImg="http://ns.adobe.com/xap/1.0/g/img/" xmlns:xmpTPg="http://ns.adobe.com/xap/1.0/t/pg/">
				<xmp:CreatorTool>Adobe Illustrator CC 23.0 (Macintosh)</xmp:CreatorTool>
				<xmp:CreateDate>2019-05-28T11:37:53+02:00</xmp:CreateDate>
				<xmp:Thumbnails>
					<rdf:Alt>
						<rdf:li  rdf:parseType="Resource">
							<xmpGImg:width>256</xmpGImg:width>
							<xmpGImg:height>252</xmpGImg:height>
							<xmpGImg:format>JPEG</xmpGImg:format>
							<xmpGImg:image>/9j/4AAQSkZJRgABAgEASABIAAD/7QAsUGhvdG9zaG9wIDMuMAA4QklNA+0AAAAAABAASAAAAAEA
AQBIAAAAAQAB/+4ADkFkb2JlAGTAAAAAAf/bAIQABgQEBAUEBgUFBgkGBQYJCwgGBggLDAoKCwoK
DBAMDAwMDAwQDA4PEA8ODBMTFBQTExwbGxscHx8fHx8fHx8fHwEHBwcNDA0YEBAYGhURFRofHx8f
Hx8fHx8fHx8fHx8fHx8fHx8fHx8fHx8fHx8fHx8fHx8fHx8fHx8fHx8fHx8f/8AAEQgA/AEAAwER
AAIRAQMRAf/EAaIAAAAHAQEBAQEAAAAAAAAAAAQFAwIGAQAHCAkKCwEAAgIDAQEBAQEAAAAAAAAA
AQACAwQFBgcICQoLEAACAQMDAgQCBgcDBAIGAnMBAgMRBAAFIRIxQVEGE2EicYEUMpGhBxWxQiPB
UtHhMxZi8CRygvElQzRTkqKyY3PCNUQnk6OzNhdUZHTD0uIIJoMJChgZhJRFRqS0VtNVKBry4/PE
1OT0ZXWFlaW1xdXl9WZ2hpamtsbW5vY3R1dnd4eXp7fH1+f3OEhYaHiImKi4yNjo+Ck5SVlpeYmZ
qbnJ2en5KjpKWmp6ipqqusra6voRAAICAQIDBQUEBQYECAMDbQEAAhEDBCESMUEFURNhIgZxgZEy
obHwFMHR4SNCFVJicvEzJDRDghaSUyWiY7LCB3PSNeJEgxdUkwgJChgZJjZFGidkdFU38qOzwygp
0+PzhJSktMTU5PRldYWVpbXF1eX1RlZmdoaWprbG1ub2R1dnd4eXp7fH1+f3OEhYaHiImKi4yNjo
+DlJWWl5iZmpucnZ6fkqOkpaanqKmqq6ytrq+v/aAAwDAQACEQMRAD8A9U4q7FXYq7FXYq7FXYq7
FXYq7FXYq7FXYq7FUPc3JQ8E3fufDCAxJPRDUdt3Yk++JkvB3uB4H4TQ/PFidkTb3XNuD/a7Hxxp
MZIjAzdirsVdirsVdirsVdirsVdirsVdirsVdirsVdirsVdirsVdirsVdirsVdirsVdirsVcTQE+
GKpYrFiWPUmpwzXFuldnrcs2sS2rIq2hLpayivJpIaCUHen7W3yyZx1G+rIlLF8x6iJTI/1Z4PrZ
tfq6chPTmVDCrEH7syBiFfBxpDdknIqQR1G4yimNpqrclDeIr9+VOSG8VdirsVdirsVdirsVdirs
VdirsVdirsVdirsVdirsVQa6xpras+kLOp1KOEXL22/IRM3EOdqULbYqoyeZdAimv4Zb+GJ9M9H9
IeowRYfrG0XNmovxnYb4qmWKuxV2KuxV2KuxV2KuYVUjxGKpMxdQyqeLUIBIrQ+NO+WmNtOOfCUp
i8u20ENmYXVby1kEj3YjHOXrzVqGvxcvHJ+ISTfJslJSj8tRRyLNFIq3iXLXK3Hp7lXNTGw5AkfT
lnifKmglPWHh1OUBSm0a8UVfAAfdlRcgN4pdirsVdirsVdirsVdirsVdirsVdirsVdiqjewSz2k0
MM72ssiMsdxGFLxsRQMocMpI9xirxrTvM/5jTXVlYXF1dxy3ay6BNcenABHrNtKGkuUUwmsLWytJ
1psQMKptH5y82jUdVeO8hkvNHbUIh5XkKteXSW0Tm1dY0iRx63BZTIHKnkVAGwCqWN509DUbnzBp
eqDXb9vLiSiMei/pSm5UzhYoVR/3KcpGjarUXFWr3zDaW11511DTPMS3rS22jS2t6zWkvNfVlSRF
AjEZVee9FqpPUbYqmOuec9Vtdb1e4t/MI+qaXrWkWcVkRaGF7e/MC3CORGJPg9VyrBwRx3rTFUR5
f8532q+ev0SdfjR7W91GO+04SWa84YJaWkcUTg3XLiP3hoK7kGnHFXqGBXYq7FXYq7FXYqgr20Zi
ZIxUn7S/xyyEmnJDqEBRumWbNO6pGm9chKTMBG21seQkcUA3Ue+QJbYx6ovItjsVdirsVdirsVdi
rsVdirsVdirsVdirsVdirsVa4Jt8I2JI27nqfxxV3FeXKg5UpXvTFXKiJ9lQtetBTFVphhK8CilP
5aCm3tirRt7c1rEhrQmqjcjpirGtP8gWFpcxvLdzXdtbXcl/Z20ywkxzyOz8jMqCZ+LSHjyfwrWg
xVlOKuxV2KuxV2KuxV2KrWijY1ZQT4kY2ggOWONfsqAfEDFaXYpdirsVdirsVdirsVdirsVdirsV
dirsVdirsVdirsVdiqGvL+C1A5/FI32UHU/0xphKYCVS6/dg1SONV7Bqk/gRkxG2iWctweZHDUuI
hx/mjrUfQf65PwmMdT3hOoJ4p4hLEwZG6EZURTlxkCLC/Al2KuxV2KuxV2KuxV2KuxV2KuxV2Kux
V2KuxV2KuxV2KtO6opZjQDvigmkK18xP7tdvFv7MkRSASeTX12YHdVI9qjBsk2ERDOko22YdVOJC
g2qYEuxV2KuxV2KqdxMsEDzN0QE08fbCBZRKVC2MNNyEl1cOBsWd2NFAG53PQDGR3oNUYXuWO2fn
fyvqU8sVpfCRoo3mIMcqAxx/aZC6KHA/ya5mjTyiBYcbJE2t0jzj5Y1m6W10+99S4dDJGjxSxc1H
Up6qIGp7ZOeGcRZDWYFlOi3T214sRP7qc8SP8r9k/wAMxsgsNmCRjKuhZNmO57sVdirsVdirsVdi
rsVdirsVdirsVdirsVdirsVdirsVS29mLylB9lNqe/fLYjZonKylo1/SUuDa+qxnV/SdRFKQHrSn
ILx/HAccju5UaARC6tpxiupRMClkzLc7NVCnWopX7sh4Z281JRMcisqTRGoYBlPiDvjy2LSUyRgy
hh0IrgZhvFXYq7FXYqgtaBOmTAf5P/Exk4c2vL9LGb1Ek0u6ieFrhHhkVrdDRpAVIKKSRQt065C/
WDycqEPS810VfMEEkul2EOqHQBY3Cvb6rbKjwP6fGOOCYAGSrCnEbU+/NrIwPqPDx2PpPP3uLOKJ
8neWdUjt9D1HVbtuWm27iz08weg0LTLwcSMSWf4fYZdkyAkgDm4GaVXT0O3kXnHI54hWDE+FDXNb
MUaTj3pkaa7orsFW/ty56J6qBvkVJrXKfDl3OytHAgio6ZBXYq7FXYq7FXYq7FXYq7FXYq7FXYq7
FXYq7FXYq7FUmnJEz/6x/Xl8eTiS5sZsjLBq120ov0D3jOiQxkwOpoAznifp36ZbIXEcuTfxoa50
jURBqt5axuJ5Z7iOW3Kn99A5+FlHcqTUU65ISGwPkxMmW2HJLKBWBVhGgZTsQQozGmN0Apta726/
T+s5WW2PJVwMnYq7FXYqsmiWWJ4n+y4Kn6cINIIsUxScS2kzQzDdeh8R2IyZx8W4Y49VwbSUZbmI
jvXJQwyC5dXjIQMj82oMzYRoOpy5OI7J/wCXrJpJROw/dR/ZPi39mYeYuXpoXuyJ40kQpIodD1Vh
UH6DlFucgToGjDeO0S3f/flvWB/+Di4N+OT8SXetNfomRK/Vr+6hB/YLrOK/OdZX+5sePvAV3HX4
ujWt2OlCJLYj3LD6wD/wIx9J7x9v6ld+lpY6fW7C4h/y41FwhPt6JeT/AIJBjwdxCq9nqmnXhK2t
zHM6irxqwLrX+ZftL9IwSgRzConIq7FXYq7FXYq7FXYq7FXYq7FXYq7FUvvrchy4Hwt19jlkZNGS
CFEbZPiDCiqAcRgJTTcaNI4Vep/DAVAtNEUKoUdAKDKnJAbxV2KuxV2KuxVQu7G2u04TLWn2WGzD
5HJRkRyYTxiXNJ5fKiknhcUHYFan7wcvGo8nFlo76qlr5VtY35TSGX/JA4j6dycEtQTyTDRxHM2n
SIkaBEUKiigUbAZjkuWBTeKXYq7FXYq7FVC70+xvABdW8c4X7HqKGKnxUnoflkhIjkqF/RM8G9he
zQ03EUxNzEfn6h9Wnssi5LjvmP0K765q9ttdWYuYx1ntG369WhkIZduyu5x4YnkfmqvaapYXbmOG
YGZRV4HBjlUeLROFdfpGRMCFRWRV2KuxV2KuxV2KuxV2KuxVxAIoRUHqMVQz2Sn7DcfbrhtgYLRY
E/ak28AMPEx8NERQxxCiD5nucBNtgiAvwJdirsVdirsVdirsVdirsVdirsVdirsVdirsVdirsVdi
qhd2NneIEuoUmVTVOYBKnpVT1U+43wxkRyVCfUNRtamxuzIn/LLeEyL8lm/vVr4tz+WT4geY+X4/
UrhrccB4anC1g3+/XIa3PymHwj258SfDHw75bqmQIIBBqDuCMrV2KuxV2KuxV2KuxV2KuxV2KuxV
2KuxV2KuxV2KuxV2KuxV2KuxV2KuxV2KuxV2KuxV2KuxV2KuxVxAIIIqDsQcVS46MsB56ZMbFuvo
gc7Y/OEkBf8AnmVPics4757oWrq81r8OrQfVQOl5GTJbH3L0DRf89AB4MceC/p3+9UyVlZQykMrC
qsNwQe4ytLeKuxV2KuxV2KuxV2KuxV2KuxV2KuxV2KuxV2KuxV2KuxV2KuxV2KuxV2KuxV2KuxV2
KuxV2KuxV2Kpa2jtbEyaVL9Tbcm2I5WzE77x1HA+8ZG+55ZZx39W/wB6F0GrqJktr+I2V054xhjy
ilPhFLQBj/kkK3+TTAYdRuEphkFdirsVdirsVdirsVdirsVdirsVdirsVdirsVdirsVdirsVdirs
VdirsVdirsVdirsVdirsVdirsVWTwQXELwzxrLC4o8bgMpHuDhBrkqXfVtR07ezLXlmOtnK1ZUH/
ABTK5+L/AFJD/sgNsnYlz2KEZY6ha3sZe3epQ8ZY2BWSNv5XRqMp+YyMokc0ojIq7FXYq7FXYq7F
XYq7FXYq7FXYq7FXYq7FXYq7FXYq7FXYq7FXYq7FXYq7FXYq7FXYq7FXYq7FXYqgr3SobmRbiNmt
r1Bxju4qB+Na8WB2dP8AJbbwod8nGdbdFU4NTlhmS11RVhnkPCC4SogmY9ApJJRz/Ix/1S1CcJhe
4VMcrV2KuxV2KuxV2KuxV2KuxV2KuxV2KuxV2KuxV2KuxV2KuxV2KuxV2KuxV2KuxV2KuxV2KuxV
2KuxVZPBBcQvDPGssMg4vG4DKwPYg4Qa5KllbzSftGS80z+beS4gHv1aWP8A4cf5Xae0vIoTSKWK
aJJYXWSKQBkkQhlZTuCCNiDkCKSuwK7FXYq7FXYq7FXYq7FXYq7FXYq7FXYq7FXYq7FXYq7FXYq7
FXYq7FXYq7FXYq7FXYq7FXYq7FXYqlk1jcWUr3emLyEhL3On1CpITuzxE0Ech/4Fv2tzyFgkDsfm
hGWV9b3kHrQMSoJV1YFXRx1V1NCrDwORlEjmlXyKuxV2KuxVp3VFLMaAd8UE0hX1AV+BKjxJpk+F
rORpdQNfij29jjwqMiKjlSRaqfmO+QpsBtdil2KuxV2KuxV2KuxV2KuxV2KuxV2KuxV2KuxV2Kux
V2KuxV2KuxV2KuxVAXunSeub6wIivgAHU7RzqvRJqAnb9lxuvuKqZxl0PJVqa7Y/V2kmJgniPGe1
enqo9K8SB1r2YbEbg0w+Gb2YTyCIsoGTzVVqRQVXsWbf7gMs/L95cU6vfYKlv5lVmpNCVX+ZTX8D
TIyxebZHOTzCcQzRTRiSJg6HoRlRFOQCDyQd1IZJCP2V2A/jhDVI2l8Oo6bNL6UN1DLLv+7SRWbb
rsDXLeAjowX/AF219OST1U9OIlZX5DipX7QY12p3x4Ctoi3uQCsiEMp3qOhByEosoyTQEEAjoemV
t7sVdirsVdirsVdirsVdirsVdirsVdirsVdirsVdirsVdirsVdirsVdirTMqqWY0VRUn2GKksF1W
+e5umnkPEfs1/ZQdBmxwxADps0zKSA07zB5auJPTh1SzuJeJf047iJyFUVY0DHYAVOQzxydxA9zn
6XDEby5php+taBqMjQ6fqFpdyqvJo7eaORgvSpCEmmYc4ZI7yBHvdmBjOwATbTbtrW8VCf3Mp4uv
YE7A4Y+oOHlAhIVyKZAVX3yN0gCwwbTYZeGkmZIorVruRo7tQTKXR3pG5oKBztmbOQ3ruUQVri6i
trLWNMkDC9uJ5jbwhSTIJyOBXb3xjuQejExZJaI0NvDG32kRVb5gUyqW7UeafQf3Ef8Aqj9WY55u
VHkvwJdirsVdirsVdirsVdirsVdirsVdirsVdirsVdirsVdirsVdirsVdiqH1Cv1GenXg36sI5sM
n0lgupxkW0reCN+o5sMMrdTONG2CeRtIuYvJ36Qlmgkgk0+cQwraokqMQwqbgMWbYEdO+ZGpIM68
+9zRkqVIPyTFMmq+T21CK1sYBazSWF1AD6ly7J6fozOQtGAPKm9fHI6kXGfDZ338vc5EcgFW9duF
qoI65qcRornNhPZ1MUp/lbcY1bIGitqDkG4BY5AFcnHdjOgFKGFpZQo79T4DLiaDhgWU5UAAAdBs
Mocp2KuxV2KuxV2KuxV2KuxV2KuxV2KuxV2KuxV2KuxV2KuxV2KuxV2KuxVp0V0ZG3VgQfkcVIYl
dwNb3Dwyj7PQnoVPQ5kR7w66Yo0VAJEvQ5dxEtVALwanISNMxumGn25urlf99RkM57bdB9OYoFOV
H1FkLojrxYVGByCLQr2T/sPt7/1GGwu60ae5PxuAPbf+mS4mBgTzRUUMcS0QfM9zkSbZiIC/Al2K
uxV2KuxV2KuxV2KuxV2KuxV2KuxV2KuxV2KuxV2KuxV2KuxV2KuxV2Koe8sbe7j4TLuPsuNmHyyU
ZEMJ4xIbpPL5auA37qZGXtzqp/DllwzBxTpT0K+Dy5JUevMAvcRg1P0n+mQlkDKOmPUpzBbw28Yj
iXio/E+JyslyoxAFBUwJdirsVdirsVdirsVdirsVdirsVdirsVdirsVdirsVdirsVdirsVdirsVd
irsVdirsVdirsVdirsVdirsVdirsVdirsVdirsVdirsVdirsVdirsVdirsVdirsVdirsVdirsVdi
rsVdirsVdirsVdirsVdirsVdirsVdirsVdirsVdirsVdirsVdirsVdirsVdirsVdirsVdirsVdir
sVdirsVdirsVdirsVdirsVdirsVdirsVdirsVdirsVdirsVdirsVdirsVdirsVdirsVdirsVdirs
VdirsVdirsVdirsVdirsVdirsVdirsVdirsVdirsVdirsVdirsVdirsVdirsVdirsVdirsVdirsV
dirsVdirsVdirsVdirsVdirsVdirsVdirsVdirsVdirsVdirsVdirsVdiqGuLzixSPdh1PYZIRa5
T7kM1xL1Ln6DTDTDiLkvpVP2uQ8Dvh4FGQo6CdJk5L26jwyBFNsZWqYGTsVdirsVdirsVdirsVWS
yrGtT17DFBNJfNeTE/a4jsF2y2MWiUypLdXANebfSa/ryXCGImUba3vMhJNmPQ9jlco03QyXzReQ
bHYq7FXYq7FXYq7FXYq7FXYq7FXYq7FXYq7FVO4cxwsw6gbfM7YQGMjQSHU7/wDR+nz3nD1fRAPC
vGtSB1ofHLoR4jTQEvbzEYWuE1C2NtLBEsyojiUOrNxABou5bamWjH3LVqltqdybqK2vrM2j3Klr
c8xIGKipU0A4tTAQKsG08Cc2UhSdR2b4T9OVTGyMZoprlLkuxV2KuxV2KuxV2KuxVL7mQvM3gp4j
6MmA0yO6T6vqH1CBZ/T9XlIkfGvH7ZpWtDl8I3s1gbul1eOLVodPMRKyAB7ivwo7hiiEU6twPfIG
J4bb4AJk0dNxlcZpnircJnA5eFWPUjf6NsiUxNhfgS7FXYq7FXYq7FXYq7FXYq7FXYq7FXYq7FVK
7Fbd/o/XhDGfJIdbsJr7S7i0hKrJKoCl6hdiDvQHwy7HOjbSoS+V9Oaxngt1MMswX9/yaRgyHku7
kmgI6YnMQd2yEbdBpmqT31tc6k8NLMMYkg5Hk7DiWbkBTboBkZZAAQOrdGKawr/pKAfzD8DjezjE
epNcqb3Yq7FXYq7FXYq7FXYqlctVmcH+Y/jlo5OOeaT6rp2oX88UVYVsFljldqt6p4GpUCnHf55b
CYA80BSl8u3M0V3OZQuoyzia3dZZPTURlfTDKKA0C9eOROUAgdHIin/xcBzADU+IA1FfntmMObaT
sjbQUgX6T+OSLTHkq4GTsVdirsVdirsVdirsVdirsVdirsVdirsVcQCCD0OxxVASxGJqHdT0OLXV
LaqBg3bI00WGIDMzACItLcqfVcUY/ZGTJaYje0VkWbsVdirsVdirsVdirsVQt5blv3iCpH2h45KJ
a5x6oMDJW10qKANzkCbbI7Lo4mmenRB1OI2Sd0wAAAA6DpgZuxV2KuxV2KuxV2KuxV2KuxV2KuxV
2KuxV2KuxVpuPE8qce9emKoVvqNe/wBFaZLdhsvg+p8v3dOXata/RXE2opEZFm7FXYq7FXYq7FXY
q7FXYq7FVCb6py+OnLvStfpph3YGli/Uq/1riuyJXjxHGnHtTpgZt4q7FXYq7FXYq7FXYq7FX//Z
								</xmpGImg:image>
						</rdf:li>
					</rdf:Alt>
				</xmp:Thumbnails>
				<xmpTPg:MaxPageSize  rdf:parseType="Resource">
					<stDim:w>180.000000</stDim:w>
					<stDim:h>180.000000</stDim:h>
					<stDim:unit>Millimeters</stDim:unit>
				</xmpTPg:MaxPageSize>
				<xmpTPg:NPages>1</xmpTPg:NPages>
				<xmpTPg:HasVisibleTransparency>True</xmpTPg:HasVisibleTransparency>
				<xmpTPg:HasVisibleOverprint>False</xmpTPg:HasVisibleOverprint>
				<xmpTPg:Fonts>
					<rdf:Bag>
						<rdf:li  rdf:parseType="Resource">
							<stFnt:fontName>Amiri-Regular</stFnt:fontName>
							<stFnt:fontFamily>Amiri</stFnt:fontFamily>
							<stFnt:fontFace>Regular</stFnt:fontFace>
							<stFnt:fontType>TrueType</stFnt:fontType>
							<stFnt:versionString>Version 000.107</stFnt:versionString>
							<stFnt:composite>False</stFnt:composite>
							<stFnt:fontFileName>Amiri-Regular.ttf</stFnt:fontFileName>
						</rdf:li>
						<rdf:li  rdf:parseType="Resource">
							<stFnt:fontName>Raleway-Bold</stFnt:fontName>
							<stFnt:fontFamily>Raleway</stFnt:fontFamily>
							<stFnt:fontFace>Bold</stFnt:fontFace>
							<stFnt:fontType>Open Type</stFnt:fontType>
							<stFnt:versionString>Version 3.000g; ttfautohint (v1.5) -l 8 -r 28 -G 28 -x 14 -D latn -f cyrl -w G -c -X &quot;&quot;
								</stFnt:versionString>
							<stFnt:composite>False</stFnt:composite>
							<stFnt:fontFileName>Raleway-Bold.ttf</stFnt:fontFileName>
						</rdf:li>
					</rdf:Bag>
				</xmpTPg:Fonts>
				<xmpTPg:PlateNames>
					<rdf:Seq>
						<rdf:li>Cyan</rdf:li>
						<rdf:li>Magenta</rdf:li>
						<rdf:li>Yellow</rdf:li>
						<rdf:li>Black</rdf:li>
					</rdf:Seq>
				</xmpTPg:PlateNames>
				<xmpTPg:SwatchGroups>
					<rdf:Seq>
						<rdf:li  rdf:parseType="Resource">
							<xmpG:groupName>Gruppo campioni predefinito</xmpG:groupName>
							<xmpG:groupType>0</xmpG:groupType>
							<xmpG:Colorants>
								<rdf:Seq>
									<rdf:li  rdf:parseType="Resource">
										<xmpG:swatchName>Bianco</xmpG:swatchName>
										<xmpG:mode>CMYK</xmpG:mode>
										<xmpG:type>PROCESS</xmpG:type>
										<xmpG:cyan>0.000000</xmpG:cyan>
										<xmpG:magenta>0.000000</xmpG:magenta>
										<xmpG:yellow>0.000000</xmpG:yellow>
										<xmpG:black>0.000000</xmpG:black>
									</rdf:li>
									<rdf:li  rdf:parseType="Resource">
										<xmpG:swatchName>Nero</xmpG:swatchName>
										<xmpG:mode>CMYK</xmpG:mode>
										<xmpG:type>PROCESS</xmpG:type>
										<xmpG:cyan>0.000000</xmpG:cyan>
										<xmpG:magenta>0.000000</xmpG:magenta>
										<xmpG:yellow>0.000000</xmpG:yellow>
										<xmpG:black>100.000000</xmpG:black>
									</rdf:li>
									<rdf:li  rdf:parseType="Resource">
										<xmpG:swatchName>Rosso CMYK</xmpG:swatchName>
										<xmpG:mode>CMYK</xmpG:mode>
										<xmpG:type>PROCESS</xmpG:type>
										<xmpG:cyan>0.000000</xmpG:cyan>
										<xmpG:magenta>100.000000</xmpG:magenta>
										<xmpG:yellow>100.000000</xmpG:yellow>
										<xmpG:black>0.000000</xmpG:black>
									</rdf:li>
									<rdf:li  rdf:parseType="Resource">
										<xmpG:swatchName>Giallo CMYK</xmpG:swatchName>
										<xmpG:mode>CMYK</xmpG:mode>
										<xmpG:type>PROCESS</xmpG:type>
										<xmpG:cyan>0.000000</xmpG:cyan>
										<xmpG:magenta>0.000000</xmpG:magenta>
										<xmpG:yellow>100.000000</xmpG:yellow>
										<xmpG:black>0.000000</xmpG:black>
									</rdf:li>
									<rdf:li  rdf:parseType="Resource">
										<xmpG:swatchName>Verde CMYK</xmpG:swatchName>
										<xmpG:mode>CMYK</xmpG:mode>
										<xmpG:type>PROCESS</xmpG:type>
										<xmpG:cyan>100.000000</xmpG:cyan>
										<xmpG:magenta>0.000000</xmpG:magenta>
										<xmpG:yellow>100.000000</xmpG:yellow>
										<xmpG:black>0.000000</xmpG:black>
									</rdf:li>
									<rdf:li  rdf:parseType="Resource">
										<xmpG:swatchName>Cyan CMYK</xmpG:swatchName>
										<xmpG:mode>CMYK</xmpG:mode>
										<xmpG:type>PROCESS</xmpG:type>
										<xmpG:cyan>100.000000</xmpG:cyan>
										<xmpG:magenta>0.000000</xmpG:magenta>
										<xmpG:yellow>0.000000</xmpG:yellow>
										<xmpG:black>0.000000</xmpG:black>
									</rdf:li>
									<rdf:li  rdf:parseType="Resource">
										<xmpG:swatchName>Blu CMYK</xmpG:swatchName>
										<xmpG:mode>CMYK</xmpG:mode>
										<xmpG:type>PROCESS</xmpG:type>
										<xmpG:cyan>100.000000</xmpG:cyan>
										<xmpG:magenta>100.000000</xmpG:magenta>
										<xmpG:yellow>0.000000</xmpG:yellow>
										<xmpG:black>0.000000</xmpG:black>
									</rdf:li>
									<rdf:li  rdf:parseType="Resource">
										<xmpG:swatchName>Magenta CMYK</xmpG:swatchName>
										<xmpG:mode>CMYK</xmpG:mode>
										<xmpG:type>PROCESS</xmpG:type>
										<xmpG:cyan>0.000000</xmpG:cyan>
										<xmpG:magenta>100.000000</xmpG:magenta>
										<xmpG:yellow>0.000000</xmpG:yellow>
										<xmpG:black>0.000000</xmpG:black>
									</rdf:li>
									<rdf:li  rdf:parseType="Resource">
										<xmpG:swatchName>C=15 M=100 Y=90 K=10</xmpG:swatchName>
										<xmpG:mode>CMYK</xmpG:mode>
										<xmpG:type>PROCESS</xmpG:type>
										<xmpG:cyan>15.000000</xmpG:cyan>
										<xmpG:magenta>100.000000</xmpG:magenta>
										<xmpG:yellow>90.000000</xmpG:yellow>
										<xmpG:black>10.000000</xmpG:black>
									</rdf:li>
									<rdf:li  rdf:parseType="Resource">
										<xmpG:swatchName>C=0 M=90 Y=85 K=0</xmpG:swatchName>
										<xmpG:mode>CMYK</xmpG:mode>
										<xmpG:type>PROCESS</xmpG:type>
										<xmpG:cyan>0.000000</xmpG:cyan>
										<xmpG:magenta>90.000000</xmpG:magenta>
										<xmpG:yellow>85.000000</xmpG:yellow>
										<xmpG:black>0.000000</xmpG:black>
									</rdf:li>
									<rdf:li  rdf:parseType="Resource">
										<xmpG:swatchName>C=0 M=80 Y=95 K=0</xmpG:swatchName>
										<xmpG:mode>CMYK</xmpG:mode>
										<xmpG:type>PROCESS</xmpG:type>
										<xmpG:cyan>0.000000</xmpG:cyan>
										<xmpG:magenta>80.000000</xmpG:magenta>
										<xmpG:yellow>95.000000</xmpG:yellow>
										<xmpG:black>0.000000</xmpG:black>
									</rdf:li>
									<rdf:li  rdf:parseType="Resource">
										<xmpG:swatchName>C=0 M=50 Y=100 K=0</xmpG:swatchName>
										<xmpG:mode>CMYK</xmpG:mode>
										<xmpG:type>PROCESS</xmpG:type>
										<xmpG:cyan>0.000000</xmpG:cyan>
										<xmpG:magenta>50.000000</xmpG:magenta>
										<xmpG:yellow>100.000000</xmpG:yellow>
										<xmpG:black>0.000000</xmpG:black>
									</rdf:li>
									<rdf:li  rdf:parseType="Resource">
										<xmpG:swatchName>C=0 M=35 Y=85 K=0</xmpG:swatchName>
										<xmpG:mode>CMYK</xmpG:mode>
										<xmpG:type>PROCESS</xmpG:type>
										<xmpG:cyan>0.000000</xmpG:cyan>
										<xmpG:magenta>35.000000</xmpG:magenta>
										<xmpG:yellow>85.000000</xmpG:yellow>
										<xmpG:black>0.000000</xmpG:black>
									</rdf:li>
									<rdf:li  rdf:parseType="Resource">
										<xmpG:swatchName>C=5 M=0 Y=90 K=0</xmpG:swatchName>
										<xmpG:mode>CMYK</xmpG:mode>
										<xmpG:type>PROCESS</xmpG:type>
										<xmpG:cyan>5.000000</xmpG:cyan>
										<xmpG:magenta>0.000000</xmpG:magenta>
										<xmpG:yellow>90.000000</xmpG:yellow>
										<xmpG:black>0.000000</xmpG:black>
									</rdf:li>
									<rdf:li  rdf:parseType="Resource">
										<xmpG:swatchName>C=20 M=0 Y=100 K=0</xmpG:swatchName>
										<xmpG:mode>CMYK</xmpG:mode>
										<xmpG:type>PROCESS</xmpG:type>
										<xmpG:cyan>20.000000</xmpG:cyan>
										<xmpG:magenta>0.000000</xmpG:magenta>
										<xmpG:yellow>100.000000</xmpG:yellow>
										<xmpG:black>0.000000</xmpG:black>
									</rdf:li>
									<rdf:li  rdf:parseType="Resource">
										<xmpG:swatchName>C=50 M=0 Y=100 K=0</xmpG:swatchName>
										<xmpG:mode>CMYK</xmpG:mode>
										<xmpG:type>PROCESS</xmpG:type>
										<xmpG:cyan>50.000000</xmpG:cyan>
										<xmpG:magenta>0.000000</xmpG:magenta>
										<xmpG:yellow>100.000000</xmpG:yellow>
										<xmpG:black>0.000000</xmpG:black>
									</rdf:li>
									<rdf:li  rdf:parseType="Resource">
										<xmpG:swatchName>C=75 M=0 Y=100 K=0</xmpG:swatchName>
										<xmpG:mode>CMYK</xmpG:mode>
										<xmpG:type>PROCESS</xmpG:type>
										<xmpG:cyan>75.000000</xmpG:cyan>
										<xmpG:magenta>0.000000</xmpG:magenta>
										<xmpG:yellow>100.000000</xmpG:yellow>
										<xmpG:black>0.000000</xmpG:black>
									</rdf:li>
									<rdf:li  rdf:parseType="Resource">
										<xmpG:swatchName>C=85 M=10 Y=100 K=10</xmpG:swatchName>
										<xmpG:mode>CMYK</xmpG:mode>
										<xmpG:type>PROCESS</xmpG:type>
										<xmpG:cyan>85.000000</xmpG:cyan>
										<xmpG:magenta>10.000000</xmpG:magenta>
										<xmpG:yellow>100.000000</xmpG:yellow>
										<xmpG:black>10.000000</xmpG:black>
									</rdf:li>
									<rdf:li  rdf:parseType="Resource">
										<xmpG:swatchName>C=90 M=30 Y=95 K=30</xmpG:swatchName>
										<xmpG:mode>CMYK</xmpG:mode>
										<xmpG:type>PROCESS</xmpG:type>
										<xmpG:cyan>90.000000</xmpG:cyan>
										<xmpG:magenta>30.000000</xmpG:magenta>
										<xmpG:yellow>95.000000</xmpG:yellow>
										<xmpG:black>30.000000</xmpG:black>
									</rdf:li>
									<rdf:li  rdf:parseType="Resource">
										<xmpG:swatchName>C=75 M=0 Y=75 K=0</xmpG:swatchName>
										<xmpG:mode>CMYK</xmpG:mode>
										<xmpG:type>PROCESS</xmpG:type>
										<xmpG:cyan>75.000000</xmpG:cyan>
										<xmpG:magenta>0.000000</xmpG:magenta>
										<xmpG:yellow>75.000000</xmpG:yellow>
										<xmpG:black>0.000000</xmpG:black>
									</rdf:li>
									<rdf:li  rdf:parseType="Resource">
										<xmpG:swatchName>C=80 M=10 Y=45 K=0</xmpG:swatchName>
										<xmpG:mode>CMYK</xmpG:mode>
										<xmpG:type>PROCESS</xmpG:type>
										<xmpG:cyan>80.000000</xmpG:cyan>
										<xmpG:magenta>10.000000</xmpG:magenta>
										<xmpG:yellow>45.000000</xmpG:yellow>
										<xmpG:black>0.000000</xmpG:black>
									</rdf:li>
									<rdf:li  rdf:parseType="Resource">
										<xmpG:swatchName>C=70 M=15 Y=0 K=0</xmpG:swatchName>
										<xmpG:mode>CMYK</xmpG:mode>
										<xmpG:type>PROCESS</xmpG:type>
										<xmpG:cyan>70.000000</xmpG:cyan>
										<xmpG:magenta>15.000000</xmpG:magenta>
										<xmpG:yellow>0.000000</xmpG:yellow>
										<xmpG:black>0.000000</xmpG:black>
									</rdf:li>
									<rdf:li  rdf:parseType="Resource">
										<xmpG:swatchName>C=85 M=50 Y=0 K=0</xmpG:swatchName>
										<xmpG:mode>CMYK</xmpG:mode>
										<xmpG:type>PROCESS</xmpG:type>
										<xmpG:cyan>85.000000</xmpG:cyan>
										<xmpG:magenta>50.000000</xmpG:magenta>
										<xmpG:yellow>0.000000</xmpG:yellow>
										<xmpG:black>0.000000</xmpG:black>
									</rdf:li>
									<rdf:li  rdf:parseType="Resource">
										<xmpG:swatchName>C=100 M=95 Y=5 K=0</xmpG:swatchName>
										<xmpG:mode>CMYK</xmpG:mode>
										<xmpG:type>PROCESS</xmpG:type>
										<xmpG:cyan>100.000000</xmpG:cyan>
										<xmpG:magenta>95.000000</xmpG:magenta>
										<xmpG:yellow>5.000000</xmpG:yellow>
										<xmpG:black>0.000000</xmpG:black>
									</rdf:li>
									<rdf:li  rdf:parseType="Resource">
										<xmpG:swatchName>C=100 M=100 Y=25 K=25</xmpG:swatchName>
										<xmpG:mode>CMYK</xmpG:mode>
										<xmpG:type>PROCESS</xmpG:type>
										<xmpG:cyan>100.000000</xmpG:cyan>
										<xmpG:magenta>100.000000</xmpG:magenta>
										<xmpG:yellow>25.000000</xmpG:yellow>
										<xmpG:black>25.000000</xmpG:black>
									</rdf:li>
									<rdf:li  rdf:parseType="Resource">
										<xmpG:swatchName>C=75 M=100 Y=0 K=0</xmpG:swatchName>
										<xmpG:mode>CMYK</xmpG:mode>
										<xmpG:type>PROCESS</xmpG:type>
										<xmpG:cyan>75.000000</xmpG:cyan>
										<xmpG:magenta>100.000000</xmpG:magenta>
										<xmpG:yellow>0.000000</xmpG:yellow>
										<xmpG:black>0.000000</xmpG:black>
									</rdf:li>
									<rdf:li  rdf:parseType="Resource">
										<xmpG:swatchName>C=50 M=100 Y=0 K=0</xmpG:swatchName>
										<xmpG:mode>CMYK</xmpG:mode>
										<xmpG:type>PROCESS</xmpG:type>
										<xmpG:cyan>50.000000</xmpG:cyan>
										<xmpG:magenta>100.000000</xmpG:magenta>
										<xmpG:yellow>0.000000</xmpG:yellow>
										<xmpG:black>0.000000</xmpG:black>
									</rdf:li>
									<rdf:li  rdf:parseType="Resource">
										<xmpG:swatchName>C=35 M=100 Y=35 K=10</xmpG:swatchName>
										<xmpG:mode>CMYK</xmpG:mode>
										<xmpG:type>PROCESS</xmpG:type>
										<xmpG:cyan>35.000000</xmpG:cyan>
										<xmpG:magenta>100.000000</xmpG:magenta>
										<xmpG:yellow>35.000000</xmpG:yellow>
										<xmpG:black>10.000000</xmpG:black>
									</rdf:li>
									<rdf:li  rdf:parseType="Resource">
										<xmpG:swatchName>C=10 M=100 Y=50 K=0</xmpG:swatchName>
										<xmpG:mode>CMYK</xmpG:mode>
										<xmpG:type>PROCESS</xmpG:type>
										<xmpG:cyan>10.000000</xmpG:cyan>
										<xmpG:magenta>100.000000</xmpG:magenta>
										<xmpG:yellow>50.000000</xmpG:yellow>
										<xmpG:black>0.000000</xmpG:black>
									</rdf:li>
									<rdf:li  rdf:parseType="Resource">
										<xmpG:swatchName>C=0 M=95 Y=20 K=0</xmpG:swatchName>
										<xmpG:mode>CMYK</xmpG:mode>
										<xmpG:type>PROCESS</xmpG:type>
										<xmpG:cyan>0.000000</xmpG:cyan>
										<xmpG:magenta>95.000000</xmpG:magenta>
										<xmpG:yellow>20.000000</xmpG:yellow>
										<xmpG:black>0.000000</xmpG:black>
									</rdf:li>
									<rdf:li  rdf:parseType="Resource">
										<xmpG:swatchName>C=25 M=25 Y=40 K=0</xmpG:swatchName>
										<xmpG:mode>CMYK</xmpG:mode>
										<xmpG:type>PROCESS</xmpG:type>
										<xmpG:cyan>25.000000</xmpG:cyan>
										<xmpG:magenta>25.000000</xmpG:magenta>
										<xmpG:yellow>40.000000</xmpG:yellow>
										<xmpG:black>0.000000</xmpG:black>
									</rdf:li>
									<rdf:li  rdf:parseType="Resource">
										<xmpG:swatchName>C=40 M=45 Y=50 K=5</xmpG:swatchName>
										<xmpG:mode>CMYK</xmpG:mode>
										<xmpG:type>PROCESS</xmpG:type>
										<xmpG:cyan>40.000000</xmpG:cyan>
										<xmpG:magenta>45.000000</xmpG:magenta>
										<xmpG:yellow>50.000000</xmpG:yellow>
										<xmpG:black>5.000000</xmpG:black>
									</rdf:li>
									<rdf:li  rdf:parseType="Resource">
										<xmpG:swatchName>C=50 M=50 Y=60 K=25</xmpG:swatchName>
										<xmpG:mode>CMYK</xmpG:mode>
										<xmpG:type>PROCESS</xmpG:type>
										<xmpG:cyan>50.000000</xmpG:cyan>
										<xmpG:magenta>50.000000</xmpG:magenta>
										<xmpG:yellow>60.000000</xmpG:yellow>
										<xmpG:black>25.000000</xmpG:black>
									</rdf:li>
									<rdf:li  rdf:parseType="Resource">
										<xmpG:swatchName>C=55 M=60 Y=65 K=40</xmpG:swatchName>
										<xmpG:mode>CMYK</xmpG:mode>
										<xmpG:type>PROCESS</xmpG:type>
										<xmpG:cyan>55.000000</xmpG:cyan>
										<xmpG:magenta>60.000000</xmpG:magenta>
										<xmpG:yellow>65.000000</xmpG:yellow>
										<xmpG:black>40.000000</xmpG:black>
									</rdf:li>
									<rdf:li  rdf:parseType="Resource">
										<xmpG:swatchName>C=25 M=40 Y=65 K=0</xmpG:swatchName>
										<xmpG:mode>CMYK</xmpG:mode>
										<xmpG:type>PROCESS</xmpG:type>
										<xmpG:cyan>25.000000</xmpG:cyan>
										<xmpG:magenta>40.000000</xmpG:magenta>
										<xmpG:yellow>65.000000</xmpG:yellow>
										<xmpG:black>0.000000</xmpG:black>
									</rdf:li>
									<rdf:li  rdf:parseType="Resource">
										<xmpG:swatchName>C=30 M=50 Y=75 K=10</xmpG:swatchName>
										<xmpG:mode>CMYK</xmpG:mode>
										<xmpG:type>PROCESS</xmpG:type>
										<xmpG:cyan>30.000000</xmpG:cyan>
										<xmpG:magenta>50.000000</xmpG:magenta>
										<xmpG:yellow>75.000000</xmpG:yellow>
										<xmpG:black>10.000000</xmpG:black>
									</rdf:li>
									<rdf:li  rdf:parseType="Resource">
										<xmpG:swatchName>C=35 M=60 Y=80 K=25</xmpG:swatchName>
										<xmpG:mode>CMYK</xmpG:mode>
										<xmpG:type>PROCESS</xmpG:type>
										<xmpG:cyan>35.000000</xmpG:cyan>
										<xmpG:magenta>60.000000</xmpG:magenta>
										<xmpG:yellow>80.000000</xmpG:yellow>
										<xmpG:black>25.000000</xmpG:black>
									</rdf:li>
									<rdf:li  rdf:parseType="Resource">
										<xmpG:swatchName>C=40 M=65 Y=90 K=35</xmpG:swatchName>
										<xmpG:mode>CMYK</xmpG:mode>
										<xmpG:type>PROCESS</xmpG:type>
										<xmpG:cyan>40.000000</xmpG:cyan>
										<xmpG:magenta>65.000000</xmpG:magenta>
										<xmpG:yellow>90.000000</xmpG:yellow>
										<xmpG:black>35.000000</xmpG:black>
									</rdf:li>
									<rdf:li  rdf:parseType="Resource">
										<xmpG:swatchName>C=40 M=70 Y=100 K=50</xmpG:swatchName>
										<xmpG:mode>CMYK</xmpG:mode>
										<xmpG:type>PROCESS</xmpG:type>
										<xmpG:cyan>40.000000</xmpG:cyan>
										<xmpG:magenta>70.000000</xmpG:magenta>
										<xmpG:yellow>100.000000</xmpG:yellow>
										<xmpG:black>50.000000</xmpG:black>
									</rdf:li>
									<rdf:li  rdf:parseType="Resource">
										<xmpG:swatchName>C=50 M=70 Y=80 K=70</xmpG:swatchName>
										<xmpG:mode>CMYK</xmpG:mode>
										<xmpG:type>PROCESS</xmpG:type>
										<xmpG:cyan>50.000000</xmpG:cyan>
										<xmpG:magenta>70.000000</xmpG:magenta>
										<xmpG:yellow>80.000000</xmpG:yellow>
										<xmpG:black>70.000000</xmpG:black>
									</rdf:li>
								</rdf:Seq>
							</xmpG:Colorants>
						</rdf:li>
						<rdf:li  rdf:parseType="Resource">
							<xmpG:groupName>Grigi</xmpG:groupName>
							<xmpG:groupType>1</xmpG:groupType>
							<xmpG:Colorants>
								<rdf:Seq>
									<rdf:li  rdf:parseType="Resource">
										<xmpG:swatchName>C=0 M=0 Y=0 K=100</xmpG:swatchName>
										<xmpG:mode>CMYK</xmpG:mode>
										<xmpG:type>PROCESS</xmpG:type>
										<xmpG:cyan>0.000000</xmpG:cyan>
										<xmpG:magenta>0.000000</xmpG:magenta>
										<xmpG:yellow>0.000000</xmpG:yellow>
										<xmpG:black>100.000000</xmpG:black>
									</rdf:li>
									<rdf:li  rdf:parseType="Resource">
										<xmpG:swatchName>C=0 M=0 Y=0 K=90</xmpG:swatchName>
										<xmpG:mode>CMYK</xmpG:mode>
										<xmpG:type>PROCESS</xmpG:type>
										<xmpG:cyan>0.000000</xmpG:cyan>
										<xmpG:magenta>0.000000</xmpG:magenta>
										<xmpG:yellow>0.000000</xmpG:yellow>
										<xmpG:black>89.999400</xmpG:black>
									</rdf:li>
									<rdf:li  rdf:parseType="Resource">
										<xmpG:swatchName>C=0 M=0 Y=0 K=80</xmpG:swatchName>
										<xmpG:mode>CMYK</xmpG:mode>
										<xmpG:type>PROCESS</xmpG:type>
										<xmpG:cyan>0.000000</xmpG:cyan>
										<xmpG:magenta>0.000000</xmpG:magenta>
										<xmpG:yellow>0.000000</xmpG:yellow>
										<xmpG:black>79.998800</xmpG:black>
									</rdf:li>
									<rdf:li  rdf:parseType="Resource">
										<xmpG:swatchName>C=0 M=0 Y=0 K=70</xmpG:swatchName>
										<xmpG:mode>CMYK</xmpG:mode>
										<xmpG:type>PROCESS</xmpG:type>
										<xmpG:cyan>0.000000</xmpG:cyan>
										<xmpG:magenta>0.000000</xmpG:magenta>
										<xmpG:yellow>0.000000</xmpG:yellow>
										<xmpG:black>69.999700</xmpG:black>
									</rdf:li>
									<rdf:li  rdf:parseType="Resource">
										<xmpG:swatchName>C=0 M=0 Y=0 K=60</xmpG:swatchName>
										<xmpG:mode>CMYK</xmpG:mode>
										<xmpG:type>PROCESS</xmpG:type>
										<xmpG:cyan>0.000000</xmpG:cyan>
										<xmpG:magenta>0.000000</xmpG:magenta>
										<xmpG:yellow>0.000000</xmpG:yellow>
										<xmpG:black>59.999100</xmpG:black>
									</rdf:li>
									<rdf:li  rdf:parseType="Resource">
										<xmpG:swatchName>C=0 M=0 Y=0 K=50</xmpG:swatchName>
										<xmpG:mode>CMYK</xmpG:mode>
										<xmpG:type>PROCESS</xmpG:type>
										<xmpG:cyan>0.000000</xmpG:cyan>
										<xmpG:magenta>0.000000</xmpG:magenta>
										<xmpG:yellow>0.000000</xmpG:yellow>
										<xmpG:black>50.000000</xmpG:black>
									</rdf:li>
									<rdf:li  rdf:parseType="Resource">
										<xmpG:swatchName>C=0 M=0 Y=0 K=40</xmpG:swatchName>
										<xmpG:mode>CMYK</xmpG:mode>
										<xmpG:type>PROCESS</xmpG:type>
										<xmpG:cyan>0.000000</xmpG:cyan>
										<xmpG:magenta>0.000000</xmpG:magenta>
										<xmpG:yellow>0.000000</xmpG:yellow>
										<xmpG:black>39.999400</xmpG:black>
									</rdf:li>
									<rdf:li  rdf:parseType="Resource">
										<xmpG:swatchName>C=0 M=0 Y=0 K=30</xmpG:swatchName>
										<xmpG:mode>CMYK</xmpG:mode>
										<xmpG:type>PROCESS</xmpG:type>
										<xmpG:cyan>0.000000</xmpG:cyan>
										<xmpG:magenta>0.000000</xmpG:magenta>
										<xmpG:yellow>0.000000</xmpG:yellow>
										<xmpG:black>29.998800</xmpG:black>
									</rdf:li>
									<rdf:li  rdf:parseType="Resource">
										<xmpG:swatchName>C=0 M=0 Y=0 K=20</xmpG:swatchName>
										<xmpG:mode>CMYK</xmpG:mode>
										<xmpG:type>PROCESS</xmpG:type>
										<xmpG:cyan>0.000000</xmpG:cyan>
										<xmpG:magenta>0.000000</xmpG:magenta>
										<xmpG:yellow>0.000000</xmpG:yellow>
										<xmpG:black>19.999700</xmpG:black>
									</rdf:li>
									<rdf:li  rdf:parseType="Resource">
										<xmpG:swatchName>C=0 M=0 Y=0 K=10</xmpG:swatchName>
										<xmpG:mode>CMYK</xmpG:mode>
										<xmpG:type>PROCESS</xmpG:type>
										<xmpG:cyan>0.000000</xmpG:cyan>
										<xmpG:magenta>0.000000</xmpG:magenta>
										<xmpG:yellow>0.000000</xmpG:yellow>
										<xmpG:black>9.999100</xmpG:black>
									</rdf:li>
									<rdf:li  rdf:parseType="Resource">
										<xmpG:swatchName>C=0 M=0 Y=0 K=5</xmpG:swatchName>
										<xmpG:mode>CMYK</xmpG:mode>
										<xmpG:type>PROCESS</xmpG:type>
										<xmpG:cyan>0.000000</xmpG:cyan>
										<xmpG:magenta>0.000000</xmpG:magenta>
										<xmpG:yellow>0.000000</xmpG:yellow>
										<xmpG:black>4.998800</xmpG:black>
									</rdf:li>
								</rdf:Seq>
							</xmpG:Colorants>
						</rdf:li>
						<rdf:li  rdf:parseType="Resource">
							<xmpG:groupName>Vivaci</xmpG:groupName>
							<xmpG:groupType>1</xmpG:groupType>
							<xmpG:Colorants>
								<rdf:Seq>
									<rdf:li  rdf:parseType="Resource">
										<xmpG:swatchName>C=0 M=100 Y=100 K=0</xmpG:swatchName>
										<xmpG:mode>CMYK</xmpG:mode>
										<xmpG:type>PROCESS</xmpG:type>
										<xmpG:cyan>0.000000</xmpG:cyan>
										<xmpG:magenta>100.000000</xmpG:magenta>
										<xmpG:yellow>100.000000</xmpG:yellow>
										<xmpG:black>0.000000</xmpG:black>
									</rdf:li>
									<rdf:li  rdf:parseType="Resource">
										<xmpG:swatchName>C=0 M=75 Y=100 K=0</xmpG:swatchName>
										<xmpG:mode>CMYK</xmpG:mode>
										<xmpG:type>PROCESS</xmpG:type>
										<xmpG:cyan>0.000000</xmpG:cyan>
										<xmpG:magenta>75.000000</xmpG:magenta>
										<xmpG:yellow>100.000000</xmpG:yellow>
										<xmpG:black>0.000000</xmpG:black>
									</rdf:li>
									<rdf:li  rdf:parseType="Resource">
										<xmpG:swatchName>C=0 M=10 Y=95 K=0</xmpG:swatchName>
										<xmpG:mode>CMYK</xmpG:mode>
										<xmpG:type>PROCESS</xmpG:type>
										<xmpG:cyan>0.000000</xmpG:cyan>
										<xmpG:magenta>10.000000</xmpG:magenta>
										<xmpG:yellow>95.000000</xmpG:yellow>
										<xmpG:black>0.000000</xmpG:black>
									</rdf:li>
									<rdf:li  rdf:parseType="Resource">
										<xmpG:swatchName>C=85 M=10 Y=100 K=0</xmpG:swatchName>
										<xmpG:mode>CMYK</xmpG:mode>
										<xmpG:type>PROCESS</xmpG:type>
										<xmpG:cyan>85.000000</xmpG:cyan>
										<xmpG:magenta>10.000000</xmpG:magenta>
										<xmpG:yellow>100.000000</xmpG:yellow>
										<xmpG:black>0.000000</xmpG:black>
									</rdf:li>
									<rdf:li  rdf:parseType="Resource">
										<xmpG:swatchName>C=100 M=90 Y=0 K=0</xmpG:swatchName>
										<xmpG:mode>CMYK</xmpG:mode>
										<xmpG:type>PROCESS</xmpG:type>
										<xmpG:cyan>100.000000</xmpG:cyan>
										<xmpG:magenta>90.000000</xmpG:magenta>
										<xmpG:yellow>0.000000</xmpG:yellow>
										<xmpG:black>0.000000</xmpG:black>
									</rdf:li>
									<rdf:li  rdf:parseType="Resource">
										<xmpG:swatchName>C=60 M=90 Y=0 K=0</xmpG:swatchName>
										<xmpG:mode>CMYK</xmpG:mode>
										<xmpG:type>PROCESS</xmpG:type>
										<xmpG:cyan>60.000000</xmpG:cyan>
										<xmpG:magenta>90.000000</xmpG:magenta>
										<xmpG:yellow>0.003100</xmpG:yellow>
										<xmpG:black>0.003100</xmpG:black>
									</rdf:li>
								</rdf:Seq>
							</xmpG:Colorants>
						</rdf:li>
					</rdf:Seq>
				</xmpTPg:SwatchGroups>
				<dc:format>image/svg+xml</dc:format>
			</rdf:Description>
		</rdf:RDF>
	</x:xmpmeta>
	<sfw  xmlns="&ns_sfw;">
		<slices></slices>
		<sliceSourceBounds  bottomLeftOrigin="true" height="288.2" width="294.7" x="107.8" y="110.9"></sliceSourceBounds>
	</sfw>
</metadata>
<g id="lines">
	<g>
		<path class="st0" d="M156.8,183.7c41.1,3,82.2,13.5,121.6,32.3c39.2,18.7,73.2,43.9,101.4,73.7"/>
	</g>
</g>
<g id="circles">
	
		<image style="overflow:visible;opacity:0.5;enable-background:new    ;" width="192" height="192" xlink:href="3BE503BC5FB52D05.png"  transform="matrix(0.235 0 0 0.235 232.6542 111.0258)">
	</image>
	
		<image style="overflow:visible;opacity:0.5;enable-background:new    ;" width="192" height="192" xlink:href="3BE503BC5FB52D07.png"  transform="matrix(0.2344 0 0 0.2344 288.0341 354.2057)">
	</image>
	
		<image style="overflow:visible;opacity:0.5;enable-background:new    ;" width="192" height="192" xlink:href="3BE503BC5FB52D02.png"  transform="matrix(0.235 0 0 0.235 176.9742 354.1458)">
	</image>
	
		<image style="overflow:visible;opacity:0.5;enable-background:new    ;" width="192" height="196" xlink:href="3BE503BC5FB52D03.png"  transform="matrix(0.2332 0 0 0.2332 107.7885 267.0938)">
	</image>
	
		<image style="overflow:visible;enable-background:new    ;" width="192" height="192" xlink:href="3BE503BC5FB52D0D.png"  transform="matrix(0.2344 0 0 0.2344 132.3941 159.2057)">
	</image>
	
		<image style="overflow:visible;opacity:0.5;enable-background:new    ;" width="192" height="192" xlink:href="3BE503BC5FB52D0F.png"  transform="matrix(0.2338 0 0 0.2338 332.7342 159.2658)">
	</image>
	
		<image style="overflow:visible;enable-background:new    ;" width="192" height="188" xlink:href="3BE503BC5FB52D00.png"  transform="matrix(0.2368 0 0 0.2368 357.0385 267.6838)">
	</image>
	<g>
		<circle class="st1" cx="155.2" cy="182.1" r="22"/>
		<circle class="st1" cx="355" cy="182.1" r="22"/>
		<circle class="st1" cx="380.2" cy="290" r="22"/>
		<circle class="st1" cx="199.6" cy="376.8" r="22"/>
	</g>
</g>
<g id="languages">
	<g class="st2">
		<path class="st3" d="M249,128.1h1.7l3.7,9.7h-1.9l-0.9-2.4h-3.4l-0.9,2.4h-1.9L249,128.1z M251.2,134l-1.3-3.8l-1.4,3.8H251.2z"/>
		<path class="st3" d="M256.1,137.8v-9.7h4.3c0.4,0,0.9,0.1,1.2,0.3c0.4,0.2,0.7,0.4,1,0.7s0.5,0.6,0.6,1c0.2,0.4,0.2,0.8,0.2,1.2
			c0,0.6-0.2,1.2-0.5,1.7s-0.7,0.9-1.3,1.1l2.2,3.6h-2.1l-2-3.2H258v3.2L256.1,137.8L256.1,137.8z M258,132.9h2.4
			c0.2,0,0.3,0,0.5-0.1s0.3-0.2,0.4-0.3s0.2-0.3,0.3-0.5s0.1-0.4,0.1-0.6c0-0.2,0-0.4-0.1-0.6c-0.1-0.2-0.2-0.4-0.3-0.5
			c-0.1-0.1-0.3-0.2-0.4-0.3c-0.2-0.1-0.3-0.1-0.5-0.1H258V132.9z"/>
	</g>
	<g class="st2">
		<path class="st3" d="M352.9,184.3v1.6h-6.7v-9.7h6.6v1.6h-4.7v2.3h4.1v1.5h-4.1v2.5h4.8V184.3z"/>
		<path class="st3" d="M356.9,179.8v6.2H355v-9.7h1.5l5,6.3v-6.3h1.9v9.6h-1.5L356.9,179.8z"/>
	</g>
	<g>
		<path class="st3" d="M371.6,294.2v-9.7h6.5v1.6h-4.6v2.5h3.8v1.5h-3.8v4h-1.9V294.2z"/>
		<path class="st3" d="M380.1,294.2v-9.7h4.3c0.4,0,0.9,0.1,1.2,0.3c0.4,0.2,0.7,0.4,1,0.7c0.3,0.3,0.5,0.6,0.6,1s0.2,0.8,0.2,1.2
			c0,0.6-0.2,1.2-0.5,1.7s-0.7,0.9-1.3,1.1l2.2,3.6h-2.1l-2-3.2H382v3.2L380.1,294.2L380.1,294.2z M382,289.3h2.4
			c0.2,0,0.3,0,0.5-0.1s0.3-0.2,0.4-0.3c0.1-0.1,0.2-0.3,0.3-0.5s0.1-0.4,0.1-0.6s0-0.4-0.1-0.6s-0.2-0.4-0.3-0.5
			c-0.1-0.1-0.3-0.2-0.4-0.3c-0.2-0.1-0.3-0.1-0.5-0.1H382V289.3z"/>
	</g>
	<g class="st2">
		<path class="st3" d="M302.8,379c0.1,0.1,0.3,0.2,0.6,0.3c0.3,0.1,0.6,0.2,1,0.2s0.7-0.1,0.9-0.2c0.2-0.1,0.4-0.3,0.5-0.6
			c0.1-0.3,0.2-0.6,0.2-1s0.1-0.9,0.1-1.4v-4.9h1.9v4.9c0,0.7,0,1.4-0.1,2s-0.2,1.1-0.5,1.5s-0.6,0.8-1.1,1s-1.1,0.4-1.9,0.4
			s-1.5-0.2-2.1-0.6L302.8,379z"/>
		<path class="st3" d="M313.2,371.3h1.7l3.7,9.7h-1.9l-0.9-2.4h-3.4l-0.9,2.4h-1.9L313.2,371.3z M315.4,377.3l-1.3-3.8l-1.4,3.8
			H315.4z"/>
	</g>
	<g class="st2">
		<path class="st3" d="M190.4,381v-9.7h4.1c0.4,0,0.9,0.1,1.2,0.3c0.4,0.2,0.7,0.4,1,0.7c0.3,0.3,0.5,0.6,0.6,1s0.2,0.8,0.2,1.2
			c0,0.4-0.1,0.8-0.2,1.2c-0.1,0.4-0.3,0.7-0.6,1s-0.6,0.5-1,0.7s-0.8,0.3-1.2,0.3h-2.3v3.2L190.4,381L190.4,381z M192.3,376.1h2.2
			c0.3,0,0.6-0.1,0.9-0.4c0.2-0.3,0.3-0.7,0.3-1.1c0-0.2,0-0.5-0.1-0.7s-0.2-0.4-0.3-0.5s-0.3-0.2-0.4-0.3c-0.2-0.1-0.3-0.1-0.5-0.1
			h-2.1L192.3,376.1L192.3,376.1z"/>
		<path class="st3" d="M203.7,381.1c-0.7,0-1.3-0.1-1.9-0.4c-0.6-0.3-1.1-0.6-1.5-1.1s-0.7-1-1-1.6c-0.2-0.6-0.3-1.2-0.3-1.8
			c0-0.6,0.1-1.3,0.4-1.9s0.6-1.1,1-1.6s0.9-0.8,1.5-1.1c0.6-0.3,1.2-0.4,1.9-0.4s1.3,0.1,1.9,0.4c0.6,0.3,1.1,0.7,1.5,1.1
			c0.4,0.5,0.7,1,1,1.6s0.3,1.2,0.3,1.8c0,0.6-0.1,1.3-0.4,1.8c-0.2,0.6-0.6,1.1-1,1.6s-0.9,0.8-1.5,1.1
			C205,380.9,204.4,381.1,203.7,381.1z M200.9,376.2c0,0.4,0.1,0.8,0.2,1.2c0.1,0.4,0.3,0.7,0.6,1c0.2,0.3,0.5,0.5,0.9,0.7
			s0.7,0.3,1.2,0.3s0.9-0.1,1.2-0.3c0.3-0.2,0.6-0.4,0.9-0.7c0.2-0.3,0.4-0.7,0.5-1c0.1-0.4,0.2-0.8,0.2-1.2c0-0.4-0.1-0.8-0.2-1.2
			c-0.1-0.4-0.3-0.7-0.6-1s-0.5-0.5-0.9-0.7c-0.3-0.2-0.7-0.3-1.2-0.3s-0.9,0.1-1.2,0.3c-0.4,0.2-0.6,0.4-0.9,0.7
			c-0.2,0.3-0.4,0.6-0.5,1S200.9,375.8,200.9,376.2z"/>
	</g>
	<g class="st2">
		<path class="st3" d="M120.9,294.2v-9.7h4.3c0.4,0,0.9,0.1,1.2,0.3c0.4,0.2,0.7,0.4,1,0.7c0.3,0.3,0.5,0.6,0.6,1
			c0.2,0.4,0.2,0.8,0.2,1.2c0,0.6-0.2,1.2-0.5,1.7s-0.7,0.9-1.3,1.1l2.2,3.6h-2.1l-2-3.2h-1.9v3.2L120.9,294.2L120.9,294.2z
			 M122.8,289.3h2.4c0.2,0,0.3,0,0.5-0.1s0.3-0.2,0.4-0.3c0.1-0.1,0.2-0.3,0.3-0.5s0.1-0.4,0.1-0.6s0-0.4-0.1-0.6s-0.2-0.4-0.3-0.5
			c-0.1-0.1-0.3-0.2-0.4-0.3c-0.2-0.1-0.3-0.1-0.5-0.1h-2.3L122.8,289.3L122.8,289.3z"/>
		<path class="st3" d="M134.7,292.6c0.4,0,0.8-0.1,1.1-0.3s0.5-0.4,0.7-0.7c0.2-0.3,0.3-0.6,0.4-1c0.1-0.4,0.1-0.8,0.1-1.2v-4.9h1.9
			v4.9c0,0.7-0.1,1.3-0.2,1.9c-0.2,0.6-0.4,1.1-0.7,1.5s-0.8,0.8-1.3,1s-1.2,0.4-1.9,0.4c-0.8,0-1.4-0.1-2-0.4s-1-0.6-1.3-1.1
			c-0.3-0.4-0.6-1-0.7-1.5c-0.2-0.6-0.2-1.2-0.2-1.8v-4.9h1.9v4.9c0,0.4,0,0.8,0.1,1.2c0.1,0.4,0.2,0.7,0.4,1s0.4,0.5,0.7,0.7
			C133.9,292.5,134.3,292.6,134.7,292.6z"/>
	</g>
	<g>
		<path class="st3" d="M152.8,178.8c-0.1-0.1-0.2-0.1-0.3-0.3c-0.2-0.1-0.4-0.2-0.6-0.3c-0.2-0.1-0.5-0.2-0.8-0.3s-0.6-0.1-0.9-0.1
			c-0.5,0-0.9,0.1-1.2,0.3s-0.4,0.5-0.4,0.8c0,0.2,0,0.4,0.1,0.5s0.2,0.2,0.4,0.3s0.4,0.2,0.7,0.3s0.6,0.2,1,0.3
			c0.5,0.1,0.9,0.3,1.3,0.4c0.4,0.1,0.7,0.3,1,0.5s0.5,0.5,0.6,0.8s0.2,0.7,0.2,1.1c0,0.5-0.1,1-0.3,1.3s-0.5,0.7-0.8,0.9
			s-0.7,0.4-1.1,0.5c-0.4,0.1-0.9,0.2-1.4,0.2c-0.7,0-1.4-0.1-2.2-0.3c-0.7-0.2-1.3-0.5-1.9-0.9l0.8-1.6c0.1,0.1,0.2,0.2,0.4,0.3
			s0.5,0.3,0.8,0.4c0.3,0.1,0.6,0.2,1,0.3s0.7,0.1,1.1,0.1c1,0,1.6-0.3,1.6-1c0-0.2-0.1-0.4-0.2-0.5s-0.3-0.3-0.5-0.4
			c-0.2-0.1-0.5-0.2-0.8-0.3s-0.7-0.2-1-0.3c-0.5-0.1-0.9-0.3-1.2-0.4c-0.3-0.1-0.6-0.3-0.9-0.5s-0.4-0.4-0.5-0.7s-0.2-0.6-0.2-1
			c0-0.5,0.1-0.9,0.3-1.3s0.4-0.7,0.8-1c0.3-0.3,0.7-0.4,1.1-0.6c0.4-0.1,0.9-0.2,1.4-0.2c0.7,0,1.3,0.1,1.9,0.3
			c0.6,0.2,1.1,0.5,1.5,0.8L152.8,178.8z"/>
		<path class="st3" d="M156.1,185.9v-9.7h4.1c0.4,0,0.9,0.1,1.2,0.3c0.4,0.2,0.7,0.4,1,0.7s0.5,0.6,0.6,1c0.2,0.4,0.2,0.8,0.2,1.2
			s-0.1,0.8-0.2,1.2c-0.1,0.4-0.3,0.7-0.6,1s-0.6,0.5-1,0.7s-0.8,0.3-1.2,0.3h-2.3v3.2h-1.8V185.9z M157.9,181.1h2.2
			c0.3,0,0.6-0.1,0.9-0.4c0.2-0.3,0.3-0.7,0.3-1.1c0-0.2,0-0.5-0.1-0.7s-0.2-0.4-0.3-0.5s-0.3-0.2-0.4-0.3c-0.2-0.1-0.3-0.1-0.5-0.1
			h-2.1L157.9,181.1L157.9,181.1z"/>
	</g>
</g>
<g id="subjects">
	<g>
		<g>
			<path d="M129.7,144.5c0.2,0,0.3,0,0.5,0s0.3,0,0.5,0s0.4,0,0.5,0c0,0,0,0.1,0,0.2s0,0.2-0.1,0.2s-0.2,0-0.3,0s-0.2,0-0.3,0.1
				s-0.2,0.1-0.2,0.2c0,0,0,0.1,0.1,0.2c0.1,0.3,0.6,1.6,1.6,3.8c0.1-0.3,0.3-0.7,0.4-1.1s0.3-0.7,0.4-0.9s0.2-0.4,0.2-0.6
				s0.1-0.4,0.2-0.5s0.1-0.2,0.1-0.2c0-0.1,0-0.2-0.1-0.4s-0.2-0.3-0.3-0.5s-0.4-0.3-0.7-0.3c0,0-0.1-0.1-0.1-0.2s0-0.2,0.1-0.2
				s0.3,0,0.6,0s0.6,0,0.8,0c0,0,0.6,0,1.6-0.1c0,0.1,0,0.1,0,0.2s0,0.2,0,0.2c-0.5,0-0.8,0.2-0.8,0.5c0,0,0,0.1,0,0.2
				c0,0.1,0.1,0.2,0.1,0.3s0.1,0.3,0.2,0.5s0.2,0.5,0.3,0.7s0.2,0.6,0.4,1s0.3,0.8,0.5,1.2c0.8-1.9,1.2-3.1,1.4-3.5
				c0.1-0.2,0.1-0.3,0.1-0.4c0-0.1,0-0.2-0.1-0.3s-0.1-0.1-0.3-0.2s-0.2-0.1-0.3-0.1s-0.2,0-0.3,0c0,0,0-0.1-0.1-0.2s0-0.2,0.1-0.2
				s0.3,0,0.6,0s0.5,0,0.8,0c0.2,0,0.3,0,0.5,0s0.3,0,0.5,0s0.3,0,0.5,0c0,0,0,0.1,0,0.2s0,0.2-0.1,0.2s-0.3,0-0.6,0.1
				s-0.4,0.2-0.5,0.4c-0.9,2.3-1.7,4.2-2.3,5.6c0,0.1-0.1,0.1-0.1,0.2s-0.1,0.1-0.2,0.1c-0.1,0-0.2,0-0.2-0.1l-1.7-4.5L132,151
				c0,0-0.1,0.1-0.1,0.2s-0.2,0.1-0.2,0.1s-0.1,0-0.1-0.1c-0.9-2.2-1.7-4.2-2.5-6c-0.1-0.2-0.4-0.3-0.8-0.3c0,0,0-0.1,0-0.2
				s0-0.2,0-0.2c0.2,0,0.3,0,0.5,0s0.4,0,0.5,0S129.5,144.5,129.7,144.5z"/>
			<path d="M140.9,147.2c0,1,0.2,1.7,0.7,2.2s1.1,0.8,1.8,0.8c0.4,0,0.7-0.1,1-0.3s0.5-0.4,0.7-0.6l0,0c0,0,0,0,0.1,0.1s0,0.1,0,0.1
				c0,0.1,0,0.2-0.1,0.3s-0.2,0.3-0.3,0.4s-0.3,0.3-0.5,0.4s-0.4,0.3-0.7,0.4s-0.5,0.1-0.8,0.1c-0.9,0-1.7-0.3-2.2-0.9
				s-0.9-1.4-0.9-2.3c0-0.5,0.1-1,0.3-1.5s0.4-0.9,0.7-1.2s0.6-0.6,1-0.8s0.7-0.3,1.1-0.3c0.4,0,0.7,0.1,1,0.2s0.5,0.2,0.7,0.4
				s0.3,0.3,0.4,0.5s0.2,0.4,0.2,0.6s0.1,0.3,0.1,0.5s0,0.4-0.1,0.5s-0.2,0.2-0.3,0.2c-0.2,0-0.9,0-2,0.1S141,147.2,140.9,147.2z
				 M140.9,146.7h2.5c0.2,0,0.3-0.1,0.4-0.4c0-0.1,0-0.2-0.1-0.4s-0.1-0.3-0.2-0.5s-0.2-0.3-0.4-0.4s-0.4-0.2-0.6-0.2
				c-0.2,0-0.5,0.1-0.7,0.2s-0.4,0.3-0.5,0.5s-0.2,0.4-0.3,0.5s-0.1,0.3-0.2,0.5S140.9,146.7,140.9,146.7z"/>
			<path d="M150.2,144.3c0.2,0,0.4,0,0.6,0.1s0.4,0.1,0.5,0.1s0.1-0.1,0.1-0.3v-1.7c0-0.4,0-0.7-0.1-0.8c-0.1-0.2-0.4-0.3-1-0.3
				c0,0,0,0,0-0.1s0-0.1,0-0.2s0-0.1,0-0.1c0.7-0.1,1.5-0.3,2.2-0.6c0,0,0.1,0,0.1,0.1s0.1,0.1,0.1,0.2c-0.1,0.3-0.2,0.8-0.2,1.4
				v6.7c0,0.8,0,1.4,0.1,1.5c0,0.1,0.1,0.1,0.2,0.2s0.2,0.1,0.3,0.1s0.2,0,0.3,0s0.1,0,0.1,0s0,0.1,0,0.2v0.1l-0.1,0.1
				c-0.2,0-0.3,0-0.5,0.1s-0.4,0.1-0.5,0.1s-0.3,0.1-0.5,0.1c-0.1,0-0.3,0.1-0.4,0.1h-0.1c-0.1,0-0.1-0.1-0.1-0.3v-0.5
				c0-0.1,0-0.1,0-0.1c-0.2,0.2-0.5,0.4-0.9,0.6s-0.8,0.3-1.2,0.3c-0.7,0-1.4-0.3-1.9-1s-0.8-1.4-0.8-2.4c0-0.5,0.1-1,0.4-1.4
				s0.6-0.9,0.9-1.2s0.8-0.6,1.2-0.8S149.8,144.3,150.2,144.3z M149.7,144.9c-0.6,0-1,0.3-1.4,0.8s-0.5,1.1-0.5,1.8
				c0,0.8,0.2,1.4,0.6,2s0.9,0.8,1.6,0.8c0.3,0,0.6-0.1,0.9-0.2s0.4-0.3,0.4-0.4v-4c0-0.2-0.2-0.4-0.5-0.5S150.1,144.9,149.7,144.9z
				"/>
			<path d="M158.2,144.3c0.2,0,0.4,0,0.6,0.1s0.4,0.1,0.5,0.1s0.1-0.1,0.1-0.3v-1.7c0-0.4,0-0.7-0.1-0.8c-0.1-0.2-0.4-0.3-1-0.3
				c0,0,0,0,0-0.1s0-0.1,0-0.2s0-0.1,0-0.1c0.7-0.1,1.5-0.3,2.2-0.6c0,0,0.1,0,0.1,0.1s0.1,0.1,0.1,0.2c-0.1,0.3-0.2,0.8-0.2,1.4
				v6.7c0,0.8,0,1.4,0.1,1.5c0,0.1,0.1,0.1,0.2,0.2s0.2,0.1,0.3,0.1s0.2,0,0.3,0s0.1,0,0.1,0s0,0.1,0,0.2v0.1l-0.1,0.1
				c-0.2,0-0.3,0-0.5,0.1s-0.4,0.1-0.5,0.1s-0.3,0.1-0.5,0.1c-0.1,0-0.3,0.1-0.4,0.1h-0.1c-0.1,0-0.1-0.1-0.1-0.3v-0.5
				c0-0.1,0-0.1,0-0.1c-0.2,0.2-0.5,0.4-0.9,0.6s-0.8,0.3-1.2,0.3c-0.7,0-1.4-0.3-1.9-1s-0.8-1.4-0.8-2.4c0-0.5,0.1-1,0.4-1.4
				s0.6-0.9,0.9-1.2s0.8-0.6,1.2-0.8S157.9,144.3,158.2,144.3z M157.7,144.9c-0.6,0-1,0.3-1.4,0.8s-0.5,1.1-0.5,1.8
				c0,0.8,0.2,1.4,0.6,2s0.9,0.8,1.6,0.8c0.3,0,0.6-0.1,0.9-0.2s0.4-0.3,0.4-0.4v-4c0-0.2-0.2-0.4-0.5-0.5S158.2,144.9,157.7,144.9z
				"/>
			<path d="M164.8,146v3.3c0,0.6,0,1,0.1,1.2c0,0.1,0.2,0.1,0.4,0.2s0.4,0.1,0.6,0.1c0,0,0,0.1,0.1,0.2s0,0.2-0.1,0.2
				c-1.1-0.1-1.6-0.1-1.7-0.1c-0.2,0-0.4,0-0.5,0s-0.4,0-0.6,0s-0.4,0-0.5,0c0,0-0.1-0.1-0.1-0.2s0-0.2,0.1-0.2c0.2,0,0.3,0,0.6-0.1
				s0.4-0.1,0.4-0.2c0-0.1,0.1-0.5,0.1-1.2v-2.9c0-0.4,0-0.7-0.1-0.8c0-0.1-0.1-0.1-0.3-0.2s-0.3-0.1-0.4-0.1s-0.2,0-0.3,0
				c0,0,0-0.1,0-0.2s0-0.2,0-0.2c0.9-0.1,1.6-0.3,2.2-0.7c0,0,0.1,0,0.1,0.1s0.1,0.1,0.1,0.2c-0.1,0.5-0.1,0.9-0.1,1v0.6H164.8z
				 M163.5,142.4c-0.2-0.2-0.2-0.3-0.2-0.6s0.1-0.4,0.2-0.6s0.3-0.2,0.6-0.2s0.4,0.1,0.6,0.2s0.2,0.3,0.2,0.6s-0.1,0.4-0.2,0.6
				s-0.3,0.2-0.6,0.2S163.7,142.6,163.5,142.4z"/>
			<path d="M171.2,144.3c0.3,0,0.6,0,0.9,0.1s0.4,0.2,0.6,0.4s0.3,0.4,0.4,0.7s0.1,0.6,0.2,0.9s0,0.7,0,1.2v1.7c0,0.6,0,1,0.1,1.2
				c0,0.1,0.2,0.1,0.4,0.2s0.4,0.1,0.6,0.1c0,0,0,0.1,0.1,0.2s0,0.2-0.1,0.2c-1.1-0.1-1.6-0.1-1.7-0.1c-0.2,0-0.4,0-0.5,0
				s-0.4,0-0.6,0s-0.4,0-0.5,0c0,0-0.1-0.1-0.1-0.2s0-0.2,0.1-0.2c0.2,0,0.3,0,0.6-0.1s0.4-0.1,0.4-0.2c0.1-0.2,0.1-0.6,0.1-1.2
				v-1.6c0-1-0.1-1.7-0.3-2s-0.6-0.5-1.2-0.5c-0.2,0-0.4,0.1-0.6,0.2s-0.4,0.3-0.6,0.4S169,146,169,146v3.3c0,0.6,0,1,0.1,1.2
				c0,0.1,0.2,0.1,0.4,0.2s0.4,0.1,0.6,0.1c0,0,0,0.1,0.1,0.2s0,0.2-0.1,0.2c-1.1-0.1-1.6-0.1-1.7-0.1c-0.2,0-0.4,0-0.5,0
				s-0.4,0-0.6,0s-0.4,0-0.5,0c0,0-0.1-0.1-0.1-0.2s0-0.2,0.1-0.2c0.2,0,0.3,0,0.6-0.1s0.4-0.1,0.4-0.2c0.1-0.2,0.1-0.6,0.1-1.2
				v-2.8c0-0.5,0-0.8-0.1-0.9c0-0.1-0.1-0.1-0.3-0.2s-0.3-0.1-0.4-0.1s-0.2,0-0.3,0c0,0,0-0.1,0-0.2s0-0.2,0-0.2
				c0.9-0.1,1.6-0.3,2.2-0.7c0,0,0.1,0,0.1,0.1s0.1,0.1,0.1,0.2c-0.1,0.4-0.1,0.7-0.1,0.9v0.1l0,0c0.2-0.2,0.5-0.5,1-0.7
				S170.9,144.3,171.2,144.3z"/>
			<path d="M179.2,150.1c0.6,0,1.2,0.2,1.7,0.5s0.7,0.7,0.7,1.1c0,0.3-0.1,0.7-0.3,1s-0.5,0.7-0.9,1s-0.8,0.5-1.3,0.7
				s-1,0.3-1.5,0.3c-0.4,0-0.9-0.1-1.3-0.2s-0.7-0.4-1-0.7s-0.4-0.7-0.4-1.1c0-0.2,0.1-0.3,0.2-0.5s0.3-0.3,0.5-0.5s0.4-0.3,0.5-0.4
				s0.3-0.2,0.5-0.3c-0.3-0.1-0.6-0.3-0.9-0.5s-0.4-0.6-0.4-0.9c0.1-0.1,0.3-0.3,0.6-0.6s0.5-0.4,0.7-0.5c-0.4-0.2-0.7-0.5-0.9-0.9
				s-0.4-0.7-0.4-1.1c0-0.6,0.3-1.2,0.8-1.7s1.1-0.7,1.9-0.7c0.1,0,0.2,0,0.4,0s0.2,0,0.4,0.1c0.1,0,0.2,0.1,0.3,0.1s0.1,0,0.3,0.1
				l0.2,0.1c0.1,0.1,0.3,0.1,0.4,0.1l1.7-0.2c0.1,0,0.2,0.1,0.2,0.2c0,0.1,0,0.2-0.1,0.3s-0.2,0.3-0.2,0.3l-1-0.1h-0.1
				c0.1,0.1,0.2,0.3,0.3,0.5s0.2,0.6,0.2,0.9c0,0.6-0.3,1.1-0.8,1.6s-1.1,0.7-1.9,0.7c-0.1,0-0.3,0-0.5,0s-0.3-0.1-0.4-0.1
				c-0.2,0.1-0.3,0.2-0.4,0.3s-0.2,0.2-0.2,0.4c0,0.1,0.1,0.2,0.3,0.4s0.4,0.2,0.7,0.2L179.2,150.1L179.2,150.1z M178.5,151.2
				c-0.9,0-1.4,0-1.5,0.1c-0.2,0.1-0.4,0.3-0.6,0.5s-0.3,0.4-0.3,0.6c0,0.5,0.2,0.9,0.6,1.3s0.9,0.5,1.5,0.5c0.4,0,0.7-0.1,1.1-0.2
				s0.7-0.4,0.9-0.6s0.4-0.5,0.4-0.8c0-0.1,0-0.2-0.1-0.4s-0.2-0.3-0.4-0.4s-0.4-0.2-0.7-0.3S178.8,151.2,178.5,151.2z M177.8,144.7
				c-0.4,0-0.8,0.2-1,0.6s-0.4,0.8-0.4,1.3s0.1,1,0.4,1.4s0.6,0.6,1.1,0.6c0.4,0,0.7-0.2,1-0.5s0.4-0.8,0.4-1.2c0-0.5-0.1-1-0.4-1.4
				S178.3,144.7,177.8,144.7z"/>
		</g>
	</g>
</g>
</svg>
