<?xml version="1.0" encoding="utf-8"?>
<!-- Generator: Adobe Illustrator 23.0.1, SVG Export Plug-In . SVG Version: 6.00 Build 0)  -->
<!DOCTYPE svg PUBLIC "-//W3C//DTD SVG 1.1//EN" "http://www.w3.org/Graphics/SVG/1.1/DTD/svg11.dtd" [
	<!ENTITY ns_extend "http://ns.adobe.com/Extensibility/1.0/">
	<!ENTITY ns_ai "http://ns.adobe.com/AdobeIllustrator/10.0/">
	<!ENTITY ns_graphs "http://ns.adobe.com/Graphs/1.0/">
	<!ENTITY ns_vars "http://ns.adobe.com/Variables/1.0/">
	<!ENTITY ns_imrep "http://ns.adobe.com/ImageReplacement/1.0/">
	<!ENTITY ns_sfw "http://ns.adobe.com/SaveForWeb/1.0/">
	<!ENTITY ns_custom "http://ns.adobe.com/GenericCustomNamespace/1.0/">
	<!ENTITY ns_adobe_xpath "http://ns.adobe.com/XPath/1.0/">
]>
<svg version="1.1" id="Livello_1" xmlns:x="&ns_extend;" xmlns:i="&ns_ai;" xmlns:graph="&ns_graphs;"
	 xmlns="http://www.w3.org/2000/svg" xmlns:xlink="http://www.w3.org/1999/xlink" x="0px" y="0px" viewBox="0 0 510.2 510.2"
	 style="enable-background:new 0 0 510.2 510.2;" xml:space="preserve">
<style type="text/css">
	.st0{opacity:0.78;fill:none;stroke:#404896;stroke-width:2;stroke-miterlimit:10;enable-background:new    ;}
	.st1{opacity:0.78;fill:none;stroke:#404896;stroke-width:1.5;stroke-miterlimit:10;enable-background:new    ;}
	.st2{opacity:0.5;}
	.st3{fill:#454897;}
	.st4{fill:none;stroke:#444695;stroke-width:0.5;stroke-miterlimit:10;}
</style>
<metadata>
	<x:xmpmeta  xmlns:x="adobe:ns:meta/">
		<rdf:RDF  xmlns:rdf="http://www.w3.org/1999/02/22-rdf-syntax-ns#">
			
				<rdf:Description  rdf:about="" xmlns:dc="http://purl.org/dc/elements/1.1/" xmlns:stDim="http://ns.adobe.com/xap/1.0/sType/Dimensions#" xmlns:stFnt="http://ns.adobe.com/xap/1.0/sType/Font#" xmlns:xmp="http://ns.adobe.com/xap/1.0/" xmlns:xmpG="http://ns.adobe.com/xap/1.0/g/" xmlns:xmpGImg="http://ns.adobe.com/xap/1.0/g/img/" xmlns:xmpTPg="http://ns.adobe.com/xap/1.0/t/pg/">
				<xmp:CreatorTool>Adobe Illustrator CC 23.0 (Macintosh)</xmp:CreatorTool>
				<xmp:CreateDate>2019-05-28T11:37:33+02:00</xmp:CreateDate>
				<xmp:Thumbnails>
					<rdf:Alt>
						<rdf:li  rdf:parseType="Resource">
							<xmpGImg:width>224</xmpGImg:width>
							<xmpGImg:height>256</xmpGImg:height>
							<xmpGImg:format>JPEG</xmpGImg:format>
							<xmpGImg:image>/9j/4AAQSkZJRgABAgEASABIAAD/7QAsUGhvdG9zaG9wIDMuMAA4QklNA+0AAAAAABAASAAAAAEA
AQBIAAAAAQAB/+4ADkFkb2JlAGTAAAAAAf/bAIQABgQEBAUEBgUFBgkGBQYJCwgGBggLDAoKCwoK
DBAMDAwMDAwQDA4PEA8ODBMTFBQTExwbGxscHx8fHx8fHx8fHwEHBwcNDA0YEBAYGhURFRofHx8f
Hx8fHx8fHx8fHx8fHx8fHx8fHx8fHx8fHx8fHx8fHx8fHx8fHx8fHx8fHx8f/8AAEQgBAADgAwER
AAIRAQMRAf/EAaIAAAAHAQEBAQEAAAAAAAAAAAQFAwIGAQAHCAkKCwEAAgIDAQEBAQEAAAAAAAAA
AQACAwQFBgcICQoLEAACAQMDAgQCBgcDBAIGAnMBAgMRBAAFIRIxQVEGE2EicYEUMpGhBxWxQiPB
UtHhMxZi8CRygvElQzRTkqKyY3PCNUQnk6OzNhdUZHTD0uIIJoMJChgZhJRFRqS0VtNVKBry4/PE
1OT0ZXWFlaW1xdXl9WZ2hpamtsbW5vY3R1dnd4eXp7fH1+f3OEhYaHiImKi4yNjo+Ck5SVlpeYmZ
qbnJ2en5KjpKWmp6ipqqusra6voRAAICAQIDBQUEBQYECAMDbQEAAhEDBCESMUEFURNhIgZxgZEy
obHwFMHR4SNCFVJicvEzJDRDghaSUyWiY7LCB3PSNeJEgxdUkwgJChgZJjZFGidkdFU38qOzwygp
0+PzhJSktMTU5PRldYWVpbXF1eX1RlZmdoaWprbG1ub2R1dnd4eXp7fH1+f3OEhYaHiImKi4yNjo
+DlJWWl5iZmpucnZ6fkqOkpaanqKmqq6ytrq+v/aAAwDAQACEQMRAD8A9U4qpW11a3UQmtZknhJI
EkTB1JBod1JG2KquKuxV2KrHmhSSON5FWSUkRISAWIHIhQetAK4qvxV2KuxV2KuxV2KqFzcFDwT7
Z6nwwhG/IIXiWNXJY++AyXgcshT7DU9u2Gi133I2CcSpXow+0MSGcZWqYGTsVdirsVdirsVdirsV
dirsVdirsVYv+Z9wYPIesMLhbUND6byuaDg7BXWoZKclJHXFWFW/mjV7HUL3TNNvdLtpZvMsemyX
UdqAjpPpcc/q+mswHJXXj9rfCqdaJ5+1F9cvl1i8sLbTtOa4try0ZmW+R4Zkign9ABmWOcHnuSKM
vE9aqpr+YXmfUdBjsZLWREhkZzdUVJLjipRVaKJ2T1FDyDmqnnT7IOBWOSfmNrVpqzm6vrNrEX2q
2IiELAqtjatcxSVWR3YkrxKgb123wqxnUfzHvrnUdK1CX07m60zUbmOzkhWPmYLnSFl9b00ebmsb
zN8KFiwTju+Ksnh/MLWpdVltrPVdKntbKPn612/pNewtZmcXVvHEGJjWY8DxYgBHr8XRVkfkXzf+
lrf6rqFwP0v6k6/VyqCq2wiEpjeJpIpEV5lo6noaEVBwKy3FXYq7FXYqlrNWeSvWp/A5KQ2RiO5Y
5a+ZJZdWuofWRrd1lW0jUqWVoBuW70fcivhlxw+kMpFQ8v6tqV1dWqSXLXPrQvLcxvCIhGAQEZGC
ryqdu+W5IAA7OMWWWTET08Qa5iy5MoHdMMg3OxV2KuxV2KuxV2KuxV2KuxV2KuxVK/MfmDStDsor
nU6/V57iG1UKvP453CqSPAdT7DFVv6e8srcyW5u7dLiCNriRGKqVROJd96fY5ry8KivXFUl1jzv5
QnK6ckkd/dXUFzdQxAN6bPpzqDHORupErAcWHY1GFUw8oeatJ8z6TZ3UUsEl/wDVba6vLaM8jA9x
HzA33pUMAfY4FRGq+ZPLOkTtHqV1DazRwPetzB+GFWCyTEgdFNOR7d8VUm83eT42/eX9vE0TpH+8
+AqzqrKPiAp8DqSewIr1xVq284eWpZtTiEohbSZzaXRdKAuQrUSleVS9Kdag7d8VW2/mTyRJq9pD
b6lZvqU8KLZRJKpZobgGZfTUGlJRDyqPtcR7YqyDFXYq7FXYqld7GUmbrxepBFR167jLY7hokTE2
lp0zTjbwW/o0itjygUMwKncfarU1rvXJgm7U5LX2ul2MTW7RRcDaqyQEM1QrdQd/iHzxlMsBum1j
GS7SdhsPnlUi24xvaNyDa7FXYq7FXYq7FXYq7FXYq7FXYq7FUm81aBNrVjbQwXK2txZ3trfQyPGZ
UL2sqyhWQNGSG402YYqxef8AKhZk1aF7q1KX0s1zbXTWYa8jknuFu2SSYy0kh9VfscASnwltq4qi
R+Xl4lxZ3cFzY2k8NnqFlcQ2tm0Vu4vzCxdU9ZmDq1utSzNWvyxVrR/JnmTRLqwltL+1l9Oy0vSr
phblCbbTnkaRyzSvvIkpVaDZqdq0VTbzd5KsvMs2myXEhiFlK/1gAV9e0mQrPat0+CUhC3+rirHN
Q/Ke/ufLlposeusFS1ube9uJoS7zvN6YilYpJESYlgVOJJVl6ioBwqi7/wDLa9uWu3/SNu7S6qus
wRTWjSQ+s1qLWaOZPWHqRstSlCrKe5pgVNPL3k2TSPME+prLb/VpdOtNPjs7e3+rpGbR5nDIA7hV
b6ww49qDc4qyfFXYq7FXYqsliSVeLio/EYQaQRaDbTGr8LAj32yfiNXhKkdjT7bfQMiZMhBFKqqA
FFAO2RbG8VdirsVdirsVdirsVdirsVdirsVdirsVdirsVQtzqdnbkq71cdUUVOGmEsgCgmv6ezUY
unuy7fhXJCBa/wAxFMEdHQOjBlbcMDUHIU3A23il2KuxV2KuxV2KuxV2KuxV2KuxV2KuxV2KuxV2
KqdxcwW6c5nCL2r1PyAwgEsZSA5oI69Y+DkeIX+3JcCOPa6KLtr22uQTDIGI6r0I+g5ExITGYPJW
wMnYq7FXYq7FUv1i+a3jWKI0ll6EdQo6nJAdWucug6sY1PVNL01Y/r95BaesSIzPIkXIilQvMip3
yeHGZnYXTRkjSCn1/QIp1t5tTtIp5ApSF541dg+6kKWqeXbMoYpVdFx+Ep7pF7JaXKxsf3Epow7A
nocpnEEM8MzE10ZPmM7B2KuxV2KuxV2KuxV2KuxV2KuxV2KuxV2KuxVZPMkMLyv9lAWP0YQLKJSo
WwnUdatRI15qd1FawV4+pPIscYr9lQzEDMqUCBURZcTT/vJ3Lk3a67oN2Ivq2oWtwJnaKH05o3Dy
KoZkXiTVgpqQMxJYpjmC7aUo1siba7tWuJPqdyj3NqwWZI3VmjYivFwCSpI7HJXIcxsXByRHMMps
7kXFuktKE7MPAjrkWUZWLVsWTsVdirsVSHXQfr8RP2fTFPnyNcnfpYxjeT4PNPzFs5zq0F/ZW949
9HaNFG0diuoWrhnLenIpqY25L9sdjmVopjhokVffRbs0EmfyzrGt6pqK3ltFpiXen2SSs1qZVRxG
fUS2cuioU6ftUzOhljGIo3uev3uuynhek2SAW0UKkn01CKSaseOwqe52zAy7G3HgeIM5zDdq7FXY
q7FXYq7FXYq7FXYq7FXYq7FXYq7FXYqgNdDfoq449aL93IVyzF9QadR9BeSfmBb3NxokCQwzTlL2
3kkW3j9aQIjVZgnFwaDxFM2uKrvyLgaadEpRqWkvrSaFbWUWo2qRXlw0l3PaLaywv6AaOUrDHCnE
OFoab0pXGHo4ia5Drf3uZLMnv5ewa7Bf6/NrNuYbue5jLSBSscvCPiZIiQAValdumU6oRMYiPIBp
lPew9S0BibOQnp6pp/wK5rpCnJwHb4plkW52KuxV2KoDWLF7mAPF/fRVKjxB6jJRI5FhMHmOYY29
0UqroeQ2IOxr8ssGn7ij8/tRCCmmL7KKZl48dc3XZ9RxcgjLaw1trJrnS4oZLiEq0SXJZY5OLAst
VFakVoeleuVZJRMqPJs02I80w0vzzp092NO1WJ9F1en+8d4QoftWGb7Eo+W/tlU8BAuPqj5Owtkm
UJdirsVdirsVdirsVdirsVdirsVdirsVWyzRQxNLM6xxICzyOQqqB1JJ2GEC1YRqHn+bWZptI8lW
I1q4B9K51KQmPTbeux5zDeVh/LH9+ZUdPwerIeHy6sJbil9zpNzbsq3AAkoKsleBPfiT75KOcOty
YCCtjgC7sa4TkvkgQ71WKKa5mEUK8mb7gPE5EmhuyiDI0GW2dqtrbJCu/EbnxJ3JzEkbLsYR4RSt
gZuxV2KuxV2Koe506yuTWeIO3824P3ihyUZkcmE8UZcwox6HpSOGFuCR05FmH3EkZI5Zd7AaeA6I
4AKAAKAbADK25CappGmarata6jax3Vu3+65VDAHxHcH3GShMxNg0rHR5U8waPv5Y1Y/Vh00nU+U8
AH8sco/fRgeG+X+NGX1j4hjTY883OnfD5m0e50wL9q9hBu7SnSpkiBZK+DLj4Al9BB+wptPtL13R
tVj56bfQXa0qRDIrED/KUGq/TlM8co8xSbR2QV2KuxV2KuxV2KuxV2KpRq/m/wAs6QSl/qMMUwNP
q4b1Jq+0Scn/AAy2GGcuQQSxzWfzB1VLM3On6U1nasQsd9q1YQ7HosNqnKeYt2oBl8NMLom/d+vk
glLdP8h+YfNUi33na9naw5B4NFB9BWHYzJGaJ/q1LeLZOWojj2xjfvRV83o1lY2djaxWllAltawj
jFBEoRFHgFG2YMpEmyzVJIo5VKSKGU9iK4EEWg20TTWNTF9HJqfryYmQ1nBE9EVBbW9uvGGMID1p
1PzORMiebOMBHkqYGTsVdirsVdirsVdirsVdirsVdirsVSPVPI/lTU5PVutNh+sVr9YhBhlr4+pE
UY/ScuhnnHkUUED/AIM1W0p+iPMuoWwGwjuvTvYwPACVeQ/4LJeOD9UR9y0uFv8AmXb/AAx3ek6g
gP254p7ZyP8Anm0q/hjeI9JBd3DWfP8AEKS+XLe4Pd7e/VR9Cyxj9ePBj/nfYtlseYvOQ2bylLXx
S+tCPxZT+GPh4/5/2FbLj5h86H7HlNx48761H3cS+Ph4/wCf9hWy1+kvzEuDSHRLGy2+1c3rSivX
pDFjw4h/ET8F3aOn/mNdbT6vp+nD/lztXnb753p+GPFiHQn3ld2j5CS731rWdR1ME1eBpvq8Df8A
PKAR/rx/MV9IAWlOYeXfLcyab5d0iGfXplrDbQqA6odvVuJzVkjHixqegwjinvI+n8ckckfo3lho
bz9LazMNR1tgQsxFIbdT1jtoz9gf5X2j3yE8tjhjtH8c0gJ/lKXYq7FXYq7FXYq7FXYq7FXYq7FX
Yq7FXYq7FXYq7FXYq7FXYq7FXYq7FXYq7FWOarr99d38mh+XeL6hHQX2oOOUFkrdCw/3ZKf2Y/pb
bL4YwBxS5d3ei0w0Ly/Y6NbukHKa5nbnd3sx5zzyfzSOevsOgyGTIZHdQEzytLsVdirsVdirsVdi
rsVdirsVdirsVdirsVdirsVdirsVdirsVdirsVdirsVdirGdU1W+1i8n0PQJjD6J9PVdXUVFv4ww
9mnP3J89syIQERxS+A7/ANiE60jSNP0iwjsbGL0oI/pZmP2ndjuzMepOVTmZGykBGZBXYq7FXYq7
FXYq7FXYq7FXYq7FXYq7FXYq7FXYq7FXYq7FXYq7FXYq7FXYq7FWM6xqt/qeot5f0KT03jp+l9UX
/j1jb/dcfUGdx0/l65kQgIjil8B3/sRaeaXpdjpdjFY2MQit4hRVG5JO5ZidyxO5J65TOZkbKUVk
VdirsVdirsVdirsVdirsVdirsVdirsVdirsVdirsVdirsVdirsVdirsVdirsVY95j1m9a6j0DRSP
0xdoXluCKpaW/QzuP5j0jXufbL8UBXFL6R9qCUz0XRrLR9PSytAeCkvJK55SSyNu8kjftOx3Jyuc
zI2UgI7IK7FXYq7FXYq7FXYq7FXYq7FXYq7FXYq7FXYq7FXYq7FXYq7FXYq7FXYq7FXYqlPmTXf0
TZoII/rOp3b+hp1kDQyzHx8EQfE7dh9GWYsfEd+Q5oJd5c0H9FWsjzy/WdUvG9bUr0jeWWnQeCIP
hReww5cnEduQ5KAm2VJdirsVdirsVdirsVdirsVdirsVdirsVULm59P4V3f8BhAYSlSCM1wxqXP0
Gn6ssoNXEVSK5mQ7tzHgf65EhkJFHRurqGXocg2g2uxS7FXYq7FXYq7FXYq7FVC+vbWxs5ry7kEV
tbo0k0jdAqipOGMSTQVIfLNjdX92/mfVIzHdXScNNtG62tod1BHaSX7T/wDA9suyyAHAPj5lAZLl
CXYq7FXYq7FXYq7FXYq7FXYqo3NysK16segyUY2wnKkAbq4kP2yPYbZMgBqBlIqkc1wm/Ll7HfIE
huEJBGwzLKtRsR1GAhIKVajO8Vlc3SgF443kAPSqqSK5KG5AaiGNR+Z9Q+rSyE207C0NyDByIjbb
4JfiO+/jmV4QvrzRwpo+o3C39hAAvC6ikkkO9QUCkcd/8rICIILAik80+QlmXsRXKJimzGUdkG52
KuxV2KuxV2KuxV2KsUvQfMvmH9HKeWhaPIr6iR9m4vF+KO3PisWzuP5qA5kx/dxv+KXL3d6ObK8x
kuxV2KuxV2KuxV2KuxV2KuxV2KpVesWmYnsaD6Mug42Tmxy11rVZby5jQRCC3mkjoYZySsYrvKp9
MH55bPHGmzGaVNC8w3t9cW0cxtpVuY3dlt+XOEpSnqAs32umV5cQiDV7N4kya2JW4A7MCD+vKRyY
S5qN1bpLFNaSEhZFaMkdaMKbV9jjy3RHuQC6BYqRu5X6sLSVCRSSNRQF6D7QHcUyXin7bbOBSt9E
t7OYTetNcSKnpxGZg3BNqhaAeGWjIZNOUUnWmRkcpD0+yMryFjiHVHZW3OxV2KuxV2KuxV2KpL5q
1i5sLFLewUSavqD/AFbTYj09RhUyN/kRLV2+WW4YAmz9I5oJRehaNbaPpcNhAS4jBMszfblkY8pJ
HP8AM7Ek5HJMyNlICPyCuxV2KuxV2KuxV2KuxV2KuxV2Kpfdx0lYHo24+nJxLTMbpba6XDbpdIjM
VupHlkqRs0gANKAbbZaZ3TBbZaLa2klq8LyBraMwg1HxoTWj7b0O4pTBOdg+bMSKcWylpg3ZR+vb
KGYNlXnt1lFejjocILIhDNbXI2Cg+4I/jjQTxyaSwkZqyHiO46nJcVcmowJNlHIiooVRQDoMg2AU
3il2KuxV2KuxV2KuJAFT0xVi/lwfpvWbrzNJ8VmnOy0QHceijUmnHvM60B/lHvmRl9ERDrzKAyjM
dLsVdirsVdirsVdirsVdirsVdirsVU5oUlWjdR0PhhBpjKNoN7K4B2ow8QafryfEGowLcdnOT8VE
Hj1/VgJCRAo2ONY14r9+QbQKXYpdirsVdirsVdirsVdirsVdirHfOd1PJbW+g2TlL7W3NuJF6xWy
itzL/sY9h7kZfgAviPKP4CCntpawWlrDa26COCBFiijHRUQUUfcMpJJNlKrgV2KuxV2KuxV2KuxV
2KuxV2KuxV2KuxV2KuxV2KuxV2KuxV2KuxV2KuxV2KuxV2KsY8tf7ltZ1HzI28BJ07Sttvq8DH1Z
Af8Ai2av0KMyMvpiIfEoDJ8x0uxV2KuxV2KuxV2KuxV2KuxV2KuxV2KuxV2KuxV2KuxV2KuxV2Ku
xV2KuxV2KuxVI/OWoXNrojw2Z46jqMiWFid9pbg8ee38icn+jLsEQZb8hugpnpenW2m6dbafbLxg
tYlijHsgpU+56nK5yMiSeqUTkVdirsVdirsVdirsVdirsVdirsVdirsVdirsVdirsVdirsVdirsV
dirsVdirsVdirGiP0p57A623l+3r4f6XeDb58IB/w+X/AE4/633D9qOrJcoS7FXYq7FXYq7FXYq7
FXYq7FXYq7FXYq7FXYq7FXYq7FXYq7FXYq7FXYq7FXYqhbzUrW02karnpGu7ZKMSWueUR5oI+Yoh
/uk0+Yr+rDwFr/MDuQvk6NIba7M0iNqN7dTXd0FrSrtRFWoBISJVXLMxsjuAZ48kZcmQ5Q2uxV2K
uxV2KuxV2KuxVQmvIozT7TeAyQjbCUwFJdTjJoUIHsa5Lwyx8UIqOVJF5IajIEU2AgrsCXYq7FXY
q7FXYq7FXYq7FXYq7FXYq7FVC+uRbWsk9KlB8I8Sdh+OSiLNMMkuGJLAta8xaZpMS3mrTtGtxKIk
YJJKWkYFgoWNXPRT2zMhiMtouvjZNpZP508vGwjvzfAW0ztFGFSQyF0+0vpBfVqvf4cyI4SDVMDj
kSjdK1iC7hjvtOuBNESeEq1BBU0IINCCO4IyModCGsiUC9CsLr61ZxT0oXHxD3Gx/HNbONGnb458
UQURkWbsVdirsVdirsVULuUogUdW7+wwgMJmkpvJ4oInmmbjFGpd2oTQDrsN8ugGg81L67YrNbwt
KFluwWt1ofiAFT2228cTe57myOMFHQs0Egb9noflkLtJgYFNMrbXYq7FXYq7FXYq7FXYq7FXYq7F
XYq7FUBrqk6bJ7FSf+CGThzac49LzjzjoupamdGWy5IbbUYrieaMxhoolRwZFEoZSQWG3E/LM7T5
QLvucOO1pfP5Ov8ARdWtNa0iGTV5Abk3sE0sUczyXXEmZGIjiBHAKRQbdMTqoyBjI8P7HMx4yQmf
lrRb+ztr+71CMW9zqd7Jd/U1cSLCrqFC8l+EseNWIys5gZADkI0uqw1js970Ly8pXS469yxH35j5
j6kaYehMcqb3Yq7FXYq7FXYqgtQqHQ9qEZOLVkSPX476eyktbS29c3KNG0nNUEddgSGNT17ZdiIB
staXXOiazLJJdRhBLaCFbFGALOIaMSrcwqB2J+0MPiRG3fzb4MmJJjBZeJIBKmlQfDbMWPNsmdkz
UUUD2xYhvFXYq7FXYq7FXYq7FXYq7FXYq7FXYqtljSWNo3FVcEEexxCCLFMcurN7STjItY/2JKbH
+3Dv0cfho7qRliA2OR4JFy4ZIhuC0mvpAkYpGD8cnYf25ZAcO5YajJ4npjyZNDEkMSRIKIgAA+WR
JtQKFL8CXYq7FXYq7FXYqp3EIljK9CN1PvhBpjKNhLijI3FhQ+GTtppetF65Am2yOyrBAzuHcUQb
geOPJlzKNwMnYq7FXYq7FXYq7FXYq7FXYq7FXYq7FVkk0MbIskio0rcYwxALNQmi16mgxVcyqwIY
Ag9Qdxiqj9Qsf+WeP/gF/ph4ix4B3KyqqqFUBVHQDYYGTeKrHmhSRI3kVZJaiNCQGbiKniO9Biq/
FXYq7FXYq7FXYq0yqwowBHvirQijHRAPoGKKXYpdirsVdirsVdirsVdirsVdirsVdirEPzG8y6no
NhbXFjJHGhMr3Zosk4ijj+3DE7IsvB2UuitzK/Y3xVjV5+ZWtWGr3BuLy0awi1e+0v6uYWDrHBpr
XschKuzlhIgQqFqa+NACrHdW/MO9vZdHv5RHd3ek644sjAsYkkgn0OWb1AiPNyVZJWFEJLceO77Y
qye28/a1NqsdraaxpU9pbxRzG6uiYTfwywvI01tDGHbij/B8JPHg3Lfoqn/kPzfJqdu1rq1wv6YM
8kSwKqcD6MMMkvoyxM8c0f74MrA1owVhyU4FSPXfN+s6P5i80Fb5JEthpqW9nOQsVtDclUlu2I5s
scdTybjxqRy2GFVqefPNBvtK043mjrLNHHcfXWnP1a+je8kheO1YL+8ljgjUsE/bYfs9VUjstW1S
5k8vXkutwDVY7nX4zcXSoxg9FpAInqykbAEBvsqdh0xV6Z5M80WnmDRLK5WaOS+aztbi/iirxjku
YRJxH0174FT7FXYq7FXYq7FXYq7FXYq7FXYq7FXYq7FXYq7FXYq7FXYq7FWmRHpzUNxIZaitCOhx
Vb6ENa+mta8q0H2vH54qsnNnBH60/pxRR0PqPxVVpsNzsMVUU1HRjIqx3NuZKhECuleUm6qKHq3b
xxVC3eoeWrGe1urmeCKSSRrG0flUCR/jeNQKqpPp1Y+2+Kpg09lymDSRc4gFnBZaqG3UP4VrtXFV
8RgkRHiKOg/u2WhHh8JGKuaGFvtIrdeoB69cVU7extLeWeWCJUkuGVpnHViqhV+gAbDpiqvirsVd
irsVdirsVdirsVdirsVdirsVdirsVdirsVdirsVdirsVdiqG1TTbPVNNutNvYxLaXkTwTxnukilT
+vFXnmgfll5hsb0Xd9e215I9rymRkojajaxvaWc+wB4/VZP3nfmARhVDaZ+WnmS3MEs0OnkxajY6
gbQSt6fGCyaznjBW3RR+yy/DuNm3FSquufyv1eTTNXt5Le1u9QuQY4NTmu7hmnja8W5rJA8bJCwo
a8WbfpQE42r0vTrGzsLOK1s7aKzt4wSttAqpGhYlmCqoUfaJPTAqIxV2KuxV2KuxV2KuxV2KuxV2
KuxV2KuxV2KuxV2KuxV2KuxV2KuxV2KuxV2KuxV2KuxV2KuxV2KuxV2KuxV2KuxV2KuxV2KuxV2K
uxV2KuxV2KuxV//Z
								</xmpGImg:image>
						</rdf:li>
					</rdf:Alt>
				</xmp:Thumbnails>
				<xmpTPg:MaxPageSize  rdf:parseType="Resource">
					<stDim:w>180.000000</stDim:w>
					<stDim:h>180.000000</stDim:h>
					<stDim:unit>Millimeters</stDim:unit>
				</xmpTPg:MaxPageSize>
				<xmpTPg:NPages>1</xmpTPg:NPages>
				<xmpTPg:HasVisibleTransparency>True</xmpTPg:HasVisibleTransparency>
				<xmpTPg:HasVisibleOverprint>False</xmpTPg:HasVisibleOverprint>
				<xmpTPg:Fonts>
					<rdf:Bag>
						<rdf:li  rdf:parseType="Resource">
							<stFnt:fontName>Amiri-Regular</stFnt:fontName>
							<stFnt:fontFamily>Amiri</stFnt:fontFamily>
							<stFnt:fontFace>Regular</stFnt:fontFace>
							<stFnt:fontType>TrueType</stFnt:fontType>
							<stFnt:versionString>Version 000.107</stFnt:versionString>
							<stFnt:composite>False</stFnt:composite>
							<stFnt:fontFileName>Amiri-Regular.ttf</stFnt:fontFileName>
						</rdf:li>
						<rdf:li  rdf:parseType="Resource">
							<stFnt:fontName>Raleway-Bold</stFnt:fontName>
							<stFnt:fontFamily>Raleway</stFnt:fontFamily>
							<stFnt:fontFace>Bold</stFnt:fontFace>
							<stFnt:fontType>Open Type</stFnt:fontType>
							<stFnt:versionString>Version 3.000g; ttfautohint (v1.5) -l 8 -r 28 -G 28 -x 14 -D latn -f cyrl -w G -c -X &quot;&quot;
								</stFnt:versionString>
							<stFnt:composite>False</stFnt:composite>
							<stFnt:fontFileName>Raleway-Bold.ttf</stFnt:fontFileName>
						</rdf:li>
					</rdf:Bag>
				</xmpTPg:Fonts>
				<xmpTPg:PlateNames>
					<rdf:Seq>
						<rdf:li>Cyan</rdf:li>
						<rdf:li>Magenta</rdf:li>
						<rdf:li>Yellow</rdf:li>
						<rdf:li>Black</rdf:li>
					</rdf:Seq>
				</xmpTPg:PlateNames>
				<xmpTPg:SwatchGroups>
					<rdf:Seq>
						<rdf:li  rdf:parseType="Resource">
							<xmpG:groupName>Gruppo campioni predefinito</xmpG:groupName>
							<xmpG:groupType>0</xmpG:groupType>
							<xmpG:Colorants>
								<rdf:Seq>
									<rdf:li  rdf:parseType="Resource">
										<xmpG:swatchName>Bianco</xmpG:swatchName>
										<xmpG:mode>CMYK</xmpG:mode>
										<xmpG:type>PROCESS</xmpG:type>
										<xmpG:cyan>0.000000</xmpG:cyan>
										<xmpG:magenta>0.000000</xmpG:magenta>
										<xmpG:yellow>0.000000</xmpG:yellow>
										<xmpG:black>0.000000</xmpG:black>
									</rdf:li>
									<rdf:li  rdf:parseType="Resource">
										<xmpG:swatchName>Nero</xmpG:swatchName>
										<xmpG:mode>CMYK</xmpG:mode>
										<xmpG:type>PROCESS</xmpG:type>
										<xmpG:cyan>0.000000</xmpG:cyan>
										<xmpG:magenta>0.000000</xmpG:magenta>
										<xmpG:yellow>0.000000</xmpG:yellow>
										<xmpG:black>100.000000</xmpG:black>
									</rdf:li>
									<rdf:li  rdf:parseType="Resource">
										<xmpG:swatchName>Rosso CMYK</xmpG:swatchName>
										<xmpG:mode>CMYK</xmpG:mode>
										<xmpG:type>PROCESS</xmpG:type>
										<xmpG:cyan>0.000000</xmpG:cyan>
										<xmpG:magenta>100.000000</xmpG:magenta>
										<xmpG:yellow>100.000000</xmpG:yellow>
										<xmpG:black>0.000000</xmpG:black>
									</rdf:li>
									<rdf:li  rdf:parseType="Resource">
										<xmpG:swatchName>Giallo CMYK</xmpG:swatchName>
										<xmpG:mode>CMYK</xmpG:mode>
										<xmpG:type>PROCESS</xmpG:type>
										<xmpG:cyan>0.000000</xmpG:cyan>
										<xmpG:magenta>0.000000</xmpG:magenta>
										<xmpG:yellow>100.000000</xmpG:yellow>
										<xmpG:black>0.000000</xmpG:black>
									</rdf:li>
									<rdf:li  rdf:parseType="Resource">
										<xmpG:swatchName>Verde CMYK</xmpG:swatchName>
										<xmpG:mode>CMYK</xmpG:mode>
										<xmpG:type>PROCESS</xmpG:type>
										<xmpG:cyan>100.000000</xmpG:cyan>
										<xmpG:magenta>0.000000</xmpG:magenta>
										<xmpG:yellow>100.000000</xmpG:yellow>
										<xmpG:black>0.000000</xmpG:black>
									</rdf:li>
									<rdf:li  rdf:parseType="Resource">
										<xmpG:swatchName>Cyan CMYK</xmpG:swatchName>
										<xmpG:mode>CMYK</xmpG:mode>
										<xmpG:type>PROCESS</xmpG:type>
										<xmpG:cyan>100.000000</xmpG:cyan>
										<xmpG:magenta>0.000000</xmpG:magenta>
										<xmpG:yellow>0.000000</xmpG:yellow>
										<xmpG:black>0.000000</xmpG:black>
									</rdf:li>
									<rdf:li  rdf:parseType="Resource">
										<xmpG:swatchName>Blu CMYK</xmpG:swatchName>
										<xmpG:mode>CMYK</xmpG:mode>
										<xmpG:type>PROCESS</xmpG:type>
										<xmpG:cyan>100.000000</xmpG:cyan>
										<xmpG:magenta>100.000000</xmpG:magenta>
										<xmpG:yellow>0.000000</xmpG:yellow>
										<xmpG:black>0.000000</xmpG:black>
									</rdf:li>
									<rdf:li  rdf:parseType="Resource">
										<xmpG:swatchName>Magenta CMYK</xmpG:swatchName>
										<xmpG:mode>CMYK</xmpG:mode>
										<xmpG:type>PROCESS</xmpG:type>
										<xmpG:cyan>0.000000</xmpG:cyan>
										<xmpG:magenta>100.000000</xmpG:magenta>
										<xmpG:yellow>0.000000</xmpG:yellow>
										<xmpG:black>0.000000</xmpG:black>
									</rdf:li>
									<rdf:li  rdf:parseType="Resource">
										<xmpG:swatchName>C=15 M=100 Y=90 K=10</xmpG:swatchName>
										<xmpG:mode>CMYK</xmpG:mode>
										<xmpG:type>PROCESS</xmpG:type>
										<xmpG:cyan>15.000000</xmpG:cyan>
										<xmpG:magenta>100.000000</xmpG:magenta>
										<xmpG:yellow>90.000000</xmpG:yellow>
										<xmpG:black>10.000000</xmpG:black>
									</rdf:li>
									<rdf:li  rdf:parseType="Resource">
										<xmpG:swatchName>C=0 M=90 Y=85 K=0</xmpG:swatchName>
										<xmpG:mode>CMYK</xmpG:mode>
										<xmpG:type>PROCESS</xmpG:type>
										<xmpG:cyan>0.000000</xmpG:cyan>
										<xmpG:magenta>90.000000</xmpG:magenta>
										<xmpG:yellow>85.000000</xmpG:yellow>
										<xmpG:black>0.000000</xmpG:black>
									</rdf:li>
									<rdf:li  rdf:parseType="Resource">
										<xmpG:swatchName>C=0 M=80 Y=95 K=0</xmpG:swatchName>
										<xmpG:mode>CMYK</xmpG:mode>
										<xmpG:type>PROCESS</xmpG:type>
										<xmpG:cyan>0.000000</xmpG:cyan>
										<xmpG:magenta>80.000000</xmpG:magenta>
										<xmpG:yellow>95.000000</xmpG:yellow>
										<xmpG:black>0.000000</xmpG:black>
									</rdf:li>
									<rdf:li  rdf:parseType="Resource">
										<xmpG:swatchName>C=0 M=50 Y=100 K=0</xmpG:swatchName>
										<xmpG:mode>CMYK</xmpG:mode>
										<xmpG:type>PROCESS</xmpG:type>
										<xmpG:cyan>0.000000</xmpG:cyan>
										<xmpG:magenta>50.000000</xmpG:magenta>
										<xmpG:yellow>100.000000</xmpG:yellow>
										<xmpG:black>0.000000</xmpG:black>
									</rdf:li>
									<rdf:li  rdf:parseType="Resource">
										<xmpG:swatchName>C=0 M=35 Y=85 K=0</xmpG:swatchName>
										<xmpG:mode>CMYK</xmpG:mode>
										<xmpG:type>PROCESS</xmpG:type>
										<xmpG:cyan>0.000000</xmpG:cyan>
										<xmpG:magenta>35.000000</xmpG:magenta>
										<xmpG:yellow>85.000000</xmpG:yellow>
										<xmpG:black>0.000000</xmpG:black>
									</rdf:li>
									<rdf:li  rdf:parseType="Resource">
										<xmpG:swatchName>C=5 M=0 Y=90 K=0</xmpG:swatchName>
										<xmpG:mode>CMYK</xmpG:mode>
										<xmpG:type>PROCESS</xmpG:type>
										<xmpG:cyan>5.000000</xmpG:cyan>
										<xmpG:magenta>0.000000</xmpG:magenta>
										<xmpG:yellow>90.000000</xmpG:yellow>
										<xmpG:black>0.000000</xmpG:black>
									</rdf:li>
									<rdf:li  rdf:parseType="Resource">
										<xmpG:swatchName>C=20 M=0 Y=100 K=0</xmpG:swatchName>
										<xmpG:mode>CMYK</xmpG:mode>
										<xmpG:type>PROCESS</xmpG:type>
										<xmpG:cyan>20.000000</xmpG:cyan>
										<xmpG:magenta>0.000000</xmpG:magenta>
										<xmpG:yellow>100.000000</xmpG:yellow>
										<xmpG:black>0.000000</xmpG:black>
									</rdf:li>
									<rdf:li  rdf:parseType="Resource">
										<xmpG:swatchName>C=50 M=0 Y=100 K=0</xmpG:swatchName>
										<xmpG:mode>CMYK</xmpG:mode>
										<xmpG:type>PROCESS</xmpG:type>
										<xmpG:cyan>50.000000</xmpG:cyan>
										<xmpG:magenta>0.000000</xmpG:magenta>
										<xmpG:yellow>100.000000</xmpG:yellow>
										<xmpG:black>0.000000</xmpG:black>
									</rdf:li>
									<rdf:li  rdf:parseType="Resource">
										<xmpG:swatchName>C=75 M=0 Y=100 K=0</xmpG:swatchName>
										<xmpG:mode>CMYK</xmpG:mode>
										<xmpG:type>PROCESS</xmpG:type>
										<xmpG:cyan>75.000000</xmpG:cyan>
										<xmpG:magenta>0.000000</xmpG:magenta>
										<xmpG:yellow>100.000000</xmpG:yellow>
										<xmpG:black>0.000000</xmpG:black>
									</rdf:li>
									<rdf:li  rdf:parseType="Resource">
										<xmpG:swatchName>C=85 M=10 Y=100 K=10</xmpG:swatchName>
										<xmpG:mode>CMYK</xmpG:mode>
										<xmpG:type>PROCESS</xmpG:type>
										<xmpG:cyan>85.000000</xmpG:cyan>
										<xmpG:magenta>10.000000</xmpG:magenta>
										<xmpG:yellow>100.000000</xmpG:yellow>
										<xmpG:black>10.000000</xmpG:black>
									</rdf:li>
									<rdf:li  rdf:parseType="Resource">
										<xmpG:swatchName>C=90 M=30 Y=95 K=30</xmpG:swatchName>
										<xmpG:mode>CMYK</xmpG:mode>
										<xmpG:type>PROCESS</xmpG:type>
										<xmpG:cyan>90.000000</xmpG:cyan>
										<xmpG:magenta>30.000000</xmpG:magenta>
										<xmpG:yellow>95.000000</xmpG:yellow>
										<xmpG:black>30.000000</xmpG:black>
									</rdf:li>
									<rdf:li  rdf:parseType="Resource">
										<xmpG:swatchName>C=75 M=0 Y=75 K=0</xmpG:swatchName>
										<xmpG:mode>CMYK</xmpG:mode>
										<xmpG:type>PROCESS</xmpG:type>
										<xmpG:cyan>75.000000</xmpG:cyan>
										<xmpG:magenta>0.000000</xmpG:magenta>
										<xmpG:yellow>75.000000</xmpG:yellow>
										<xmpG:black>0.000000</xmpG:black>
									</rdf:li>
									<rdf:li  rdf:parseType="Resource">
										<xmpG:swatchName>C=80 M=10 Y=45 K=0</xmpG:swatchName>
										<xmpG:mode>CMYK</xmpG:mode>
										<xmpG:type>PROCESS</xmpG:type>
										<xmpG:cyan>80.000000</xmpG:cyan>
										<xmpG:magenta>10.000000</xmpG:magenta>
										<xmpG:yellow>45.000000</xmpG:yellow>
										<xmpG:black>0.000000</xmpG:black>
									</rdf:li>
									<rdf:li  rdf:parseType="Resource">
										<xmpG:swatchName>C=70 M=15 Y=0 K=0</xmpG:swatchName>
										<xmpG:mode>CMYK</xmpG:mode>
										<xmpG:type>PROCESS</xmpG:type>
										<xmpG:cyan>70.000000</xmpG:cyan>
										<xmpG:magenta>15.000000</xmpG:magenta>
										<xmpG:yellow>0.000000</xmpG:yellow>
										<xmpG:black>0.000000</xmpG:black>
									</rdf:li>
									<rdf:li  rdf:parseType="Resource">
										<xmpG:swatchName>C=85 M=50 Y=0 K=0</xmpG:swatchName>
										<xmpG:mode>CMYK</xmpG:mode>
										<xmpG:type>PROCESS</xmpG:type>
										<xmpG:cyan>85.000000</xmpG:cyan>
										<xmpG:magenta>50.000000</xmpG:magenta>
										<xmpG:yellow>0.000000</xmpG:yellow>
										<xmpG:black>0.000000</xmpG:black>
									</rdf:li>
									<rdf:li  rdf:parseType="Resource">
										<xmpG:swatchName>C=100 M=95 Y=5 K=0</xmpG:swatchName>
										<xmpG:mode>CMYK</xmpG:mode>
										<xmpG:type>PROCESS</xmpG:type>
										<xmpG:cyan>100.000000</xmpG:cyan>
										<xmpG:magenta>95.000000</xmpG:magenta>
										<xmpG:yellow>5.000000</xmpG:yellow>
										<xmpG:black>0.000000</xmpG:black>
									</rdf:li>
									<rdf:li  rdf:parseType="Resource">
										<xmpG:swatchName>C=100 M=100 Y=25 K=25</xmpG:swatchName>
										<xmpG:mode>CMYK</xmpG:mode>
										<xmpG:type>PROCESS</xmpG:type>
										<xmpG:cyan>100.000000</xmpG:cyan>
										<xmpG:magenta>100.000000</xmpG:magenta>
										<xmpG:yellow>25.000000</xmpG:yellow>
										<xmpG:black>25.000000</xmpG:black>
									</rdf:li>
									<rdf:li  rdf:parseType="Resource">
										<xmpG:swatchName>C=75 M=100 Y=0 K=0</xmpG:swatchName>
										<xmpG:mode>CMYK</xmpG:mode>
										<xmpG:type>PROCESS</xmpG:type>
										<xmpG:cyan>75.000000</xmpG:cyan>
										<xmpG:magenta>100.000000</xmpG:magenta>
										<xmpG:yellow>0.000000</xmpG:yellow>
										<xmpG:black>0.000000</xmpG:black>
									</rdf:li>
									<rdf:li  rdf:parseType="Resource">
										<xmpG:swatchName>C=50 M=100 Y=0 K=0</xmpG:swatchName>
										<xmpG:mode>CMYK</xmpG:mode>
										<xmpG:type>PROCESS</xmpG:type>
										<xmpG:cyan>50.000000</xmpG:cyan>
										<xmpG:magenta>100.000000</xmpG:magenta>
										<xmpG:yellow>0.000000</xmpG:yellow>
										<xmpG:black>0.000000</xmpG:black>
									</rdf:li>
									<rdf:li  rdf:parseType="Resource">
										<xmpG:swatchName>C=35 M=100 Y=35 K=10</xmpG:swatchName>
										<xmpG:mode>CMYK</xmpG:mode>
										<xmpG:type>PROCESS</xmpG:type>
										<xmpG:cyan>35.000000</xmpG:cyan>
										<xmpG:magenta>100.000000</xmpG:magenta>
										<xmpG:yellow>35.000000</xmpG:yellow>
										<xmpG:black>10.000000</xmpG:black>
									</rdf:li>
									<rdf:li  rdf:parseType="Resource">
										<xmpG:swatchName>C=10 M=100 Y=50 K=0</xmpG:swatchName>
										<xmpG:mode>CMYK</xmpG:mode>
										<xmpG:type>PROCESS</xmpG:type>
										<xmpG:cyan>10.000000</xmpG:cyan>
										<xmpG:magenta>100.000000</xmpG:magenta>
										<xmpG:yellow>50.000000</xmpG:yellow>
										<xmpG:black>0.000000</xmpG:black>
									</rdf:li>
									<rdf:li  rdf:parseType="Resource">
										<xmpG:swatchName>C=0 M=95 Y=20 K=0</xmpG:swatchName>
										<xmpG:mode>CMYK</xmpG:mode>
										<xmpG:type>PROCESS</xmpG:type>
										<xmpG:cyan>0.000000</xmpG:cyan>
										<xmpG:magenta>95.000000</xmpG:magenta>
										<xmpG:yellow>20.000000</xmpG:yellow>
										<xmpG:black>0.000000</xmpG:black>
									</rdf:li>
									<rdf:li  rdf:parseType="Resource">
										<xmpG:swatchName>C=25 M=25 Y=40 K=0</xmpG:swatchName>
										<xmpG:mode>CMYK</xmpG:mode>
										<xmpG:type>PROCESS</xmpG:type>
										<xmpG:cyan>25.000000</xmpG:cyan>
										<xmpG:magenta>25.000000</xmpG:magenta>
										<xmpG:yellow>40.000000</xmpG:yellow>
										<xmpG:black>0.000000</xmpG:black>
									</rdf:li>
									<rdf:li  rdf:parseType="Resource">
										<xmpG:swatchName>C=40 M=45 Y=50 K=5</xmpG:swatchName>
										<xmpG:mode>CMYK</xmpG:mode>
										<xmpG:type>PROCESS</xmpG:type>
										<xmpG:cyan>40.000000</xmpG:cyan>
										<xmpG:magenta>45.000000</xmpG:magenta>
										<xmpG:yellow>50.000000</xmpG:yellow>
										<xmpG:black>5.000000</xmpG:black>
									</rdf:li>
									<rdf:li  rdf:parseType="Resource">
										<xmpG:swatchName>C=50 M=50 Y=60 K=25</xmpG:swatchName>
										<xmpG:mode>CMYK</xmpG:mode>
										<xmpG:type>PROCESS</xmpG:type>
										<xmpG:cyan>50.000000</xmpG:cyan>
										<xmpG:magenta>50.000000</xmpG:magenta>
										<xmpG:yellow>60.000000</xmpG:yellow>
										<xmpG:black>25.000000</xmpG:black>
									</rdf:li>
									<rdf:li  rdf:parseType="Resource">
										<xmpG:swatchName>C=55 M=60 Y=65 K=40</xmpG:swatchName>
										<xmpG:mode>CMYK</xmpG:mode>
										<xmpG:type>PROCESS</xmpG:type>
										<xmpG:cyan>55.000000</xmpG:cyan>
										<xmpG:magenta>60.000000</xmpG:magenta>
										<xmpG:yellow>65.000000</xmpG:yellow>
										<xmpG:black>40.000000</xmpG:black>
									</rdf:li>
									<rdf:li  rdf:parseType="Resource">
										<xmpG:swatchName>C=25 M=40 Y=65 K=0</xmpG:swatchName>
										<xmpG:mode>CMYK</xmpG:mode>
										<xmpG:type>PROCESS</xmpG:type>
										<xmpG:cyan>25.000000</xmpG:cyan>
										<xmpG:magenta>40.000000</xmpG:magenta>
										<xmpG:yellow>65.000000</xmpG:yellow>
										<xmpG:black>0.000000</xmpG:black>
									</rdf:li>
									<rdf:li  rdf:parseType="Resource">
										<xmpG:swatchName>C=30 M=50 Y=75 K=10</xmpG:swatchName>
										<xmpG:mode>CMYK</xmpG:mode>
										<xmpG:type>PROCESS</xmpG:type>
										<xmpG:cyan>30.000000</xmpG:cyan>
										<xmpG:magenta>50.000000</xmpG:magenta>
										<xmpG:yellow>75.000000</xmpG:yellow>
										<xmpG:black>10.000000</xmpG:black>
									</rdf:li>
									<rdf:li  rdf:parseType="Resource">
										<xmpG:swatchName>C=35 M=60 Y=80 K=25</xmpG:swatchName>
										<xmpG:mode>CMYK</xmpG:mode>
										<xmpG:type>PROCESS</xmpG:type>
										<xmpG:cyan>35.000000</xmpG:cyan>
										<xmpG:magenta>60.000000</xmpG:magenta>
										<xmpG:yellow>80.000000</xmpG:yellow>
										<xmpG:black>25.000000</xmpG:black>
									</rdf:li>
									<rdf:li  rdf:parseType="Resource">
										<xmpG:swatchName>C=40 M=65 Y=90 K=35</xmpG:swatchName>
										<xmpG:mode>CMYK</xmpG:mode>
										<xmpG:type>PROCESS</xmpG:type>
										<xmpG:cyan>40.000000</xmpG:cyan>
										<xmpG:magenta>65.000000</xmpG:magenta>
										<xmpG:yellow>90.000000</xmpG:yellow>
										<xmpG:black>35.000000</xmpG:black>
									</rdf:li>
									<rdf:li  rdf:parseType="Resource">
										<xmpG:swatchName>C=40 M=70 Y=100 K=50</xmpG:swatchName>
										<xmpG:mode>CMYK</xmpG:mode>
										<xmpG:type>PROCESS</xmpG:type>
										<xmpG:cyan>40.000000</xmpG:cyan>
										<xmpG:magenta>70.000000</xmpG:magenta>
										<xmpG:yellow>100.000000</xmpG:yellow>
										<xmpG:black>50.000000</xmpG:black>
									</rdf:li>
									<rdf:li  rdf:parseType="Resource">
										<xmpG:swatchName>C=50 M=70 Y=80 K=70</xmpG:swatchName>
										<xmpG:mode>CMYK</xmpG:mode>
										<xmpG:type>PROCESS</xmpG:type>
										<xmpG:cyan>50.000000</xmpG:cyan>
										<xmpG:magenta>70.000000</xmpG:magenta>
										<xmpG:yellow>80.000000</xmpG:yellow>
										<xmpG:black>70.000000</xmpG:black>
									</rdf:li>
								</rdf:Seq>
							</xmpG:Colorants>
						</rdf:li>
						<rdf:li  rdf:parseType="Resource">
							<xmpG:groupName>Grigi</xmpG:groupName>
							<xmpG:groupType>1</xmpG:groupType>
							<xmpG:Colorants>
								<rdf:Seq>
									<rdf:li  rdf:parseType="Resource">
										<xmpG:swatchName>C=0 M=0 Y=0 K=100</xmpG:swatchName>
										<xmpG:mode>CMYK</xmpG:mode>
										<xmpG:type>PROCESS</xmpG:type>
										<xmpG:cyan>0.000000</xmpG:cyan>
										<xmpG:magenta>0.000000</xmpG:magenta>
										<xmpG:yellow>0.000000</xmpG:yellow>
										<xmpG:black>100.000000</xmpG:black>
									</rdf:li>
									<rdf:li  rdf:parseType="Resource">
										<xmpG:swatchName>C=0 M=0 Y=0 K=90</xmpG:swatchName>
										<xmpG:mode>CMYK</xmpG:mode>
										<xmpG:type>PROCESS</xmpG:type>
										<xmpG:cyan>0.000000</xmpG:cyan>
										<xmpG:magenta>0.000000</xmpG:magenta>
										<xmpG:yellow>0.000000</xmpG:yellow>
										<xmpG:black>89.999400</xmpG:black>
									</rdf:li>
									<rdf:li  rdf:parseType="Resource">
										<xmpG:swatchName>C=0 M=0 Y=0 K=80</xmpG:swatchName>
										<xmpG:mode>CMYK</xmpG:mode>
										<xmpG:type>PROCESS</xmpG:type>
										<xmpG:cyan>0.000000</xmpG:cyan>
										<xmpG:magenta>0.000000</xmpG:magenta>
										<xmpG:yellow>0.000000</xmpG:yellow>
										<xmpG:black>79.998800</xmpG:black>
									</rdf:li>
									<rdf:li  rdf:parseType="Resource">
										<xmpG:swatchName>C=0 M=0 Y=0 K=70</xmpG:swatchName>
										<xmpG:mode>CMYK</xmpG:mode>
										<xmpG:type>PROCESS</xmpG:type>
										<xmpG:cyan>0.000000</xmpG:cyan>
										<xmpG:magenta>0.000000</xmpG:magenta>
										<xmpG:yellow>0.000000</xmpG:yellow>
										<xmpG:black>69.999700</xmpG:black>
									</rdf:li>
									<rdf:li  rdf:parseType="Resource">
										<xmpG:swatchName>C=0 M=0 Y=0 K=60</xmpG:swatchName>
										<xmpG:mode>CMYK</xmpG:mode>
										<xmpG:type>PROCESS</xmpG:type>
										<xmpG:cyan>0.000000</xmpG:cyan>
										<xmpG:magenta>0.000000</xmpG:magenta>
										<xmpG:yellow>0.000000</xmpG:yellow>
										<xmpG:black>59.999100</xmpG:black>
									</rdf:li>
									<rdf:li  rdf:parseType="Resource">
										<xmpG:swatchName>C=0 M=0 Y=0 K=50</xmpG:swatchName>
										<xmpG:mode>CMYK</xmpG:mode>
										<xmpG:type>PROCESS</xmpG:type>
										<xmpG:cyan>0.000000</xmpG:cyan>
										<xmpG:magenta>0.000000</xmpG:magenta>
										<xmpG:yellow>0.000000</xmpG:yellow>
										<xmpG:black>50.000000</xmpG:black>
									</rdf:li>
									<rdf:li  rdf:parseType="Resource">
										<xmpG:swatchName>C=0 M=0 Y=0 K=40</xmpG:swatchName>
										<xmpG:mode>CMYK</xmpG:mode>
										<xmpG:type>PROCESS</xmpG:type>
										<xmpG:cyan>0.000000</xmpG:cyan>
										<xmpG:magenta>0.000000</xmpG:magenta>
										<xmpG:yellow>0.000000</xmpG:yellow>
										<xmpG:black>39.999400</xmpG:black>
									</rdf:li>
									<rdf:li  rdf:parseType="Resource">
										<xmpG:swatchName>C=0 M=0 Y=0 K=30</xmpG:swatchName>
										<xmpG:mode>CMYK</xmpG:mode>
										<xmpG:type>PROCESS</xmpG:type>
										<xmpG:cyan>0.000000</xmpG:cyan>
										<xmpG:magenta>0.000000</xmpG:magenta>
										<xmpG:yellow>0.000000</xmpG:yellow>
										<xmpG:black>29.998800</xmpG:black>
									</rdf:li>
									<rdf:li  rdf:parseType="Resource">
										<xmpG:swatchName>C=0 M=0 Y=0 K=20</xmpG:swatchName>
										<xmpG:mode>CMYK</xmpG:mode>
										<xmpG:type>PROCESS</xmpG:type>
										<xmpG:cyan>0.000000</xmpG:cyan>
										<xmpG:magenta>0.000000</xmpG:magenta>
										<xmpG:yellow>0.000000</xmpG:yellow>
										<xmpG:black>19.999700</xmpG:black>
									</rdf:li>
									<rdf:li  rdf:parseType="Resource">
										<xmpG:swatchName>C=0 M=0 Y=0 K=10</xmpG:swatchName>
										<xmpG:mode>CMYK</xmpG:mode>
										<xmpG:type>PROCESS</xmpG:type>
										<xmpG:cyan>0.000000</xmpG:cyan>
										<xmpG:magenta>0.000000</xmpG:magenta>
										<xmpG:yellow>0.000000</xmpG:yellow>
										<xmpG:black>9.999100</xmpG:black>
									</rdf:li>
									<rdf:li  rdf:parseType="Resource">
										<xmpG:swatchName>C=0 M=0 Y=0 K=5</xmpG:swatchName>
										<xmpG:mode>CMYK</xmpG:mode>
										<xmpG:type>PROCESS</xmpG:type>
										<xmpG:cyan>0.000000</xmpG:cyan>
										<xmpG:magenta>0.000000</xmpG:magenta>
										<xmpG:yellow>0.000000</xmpG:yellow>
										<xmpG:black>4.998800</xmpG:black>
									</rdf:li>
								</rdf:Seq>
							</xmpG:Colorants>
						</rdf:li>
						<rdf:li  rdf:parseType="Resource">
							<xmpG:groupName>Vivaci</xmpG:groupName>
							<xmpG:groupType>1</xmpG:groupType>
							<xmpG:Colorants>
								<rdf:Seq>
									<rdf:li  rdf:parseType="Resource">
										<xmpG:swatchName>C=0 M=100 Y=100 K=0</xmpG:swatchName>
										<xmpG:mode>CMYK</xmpG:mode>
										<xmpG:type>PROCESS</xmpG:type>
										<xmpG:cyan>0.000000</xmpG:cyan>
										<xmpG:magenta>100.000000</xmpG:magenta>
										<xmpG:yellow>100.000000</xmpG:yellow>
										<xmpG:black>0.000000</xmpG:black>
									</rdf:li>
									<rdf:li  rdf:parseType="Resource">
										<xmpG:swatchName>C=0 M=75 Y=100 K=0</xmpG:swatchName>
										<xmpG:mode>CMYK</xmpG:mode>
										<xmpG:type>PROCESS</xmpG:type>
										<xmpG:cyan>0.000000</xmpG:cyan>
										<xmpG:magenta>75.000000</xmpG:magenta>
										<xmpG:yellow>100.000000</xmpG:yellow>
										<xmpG:black>0.000000</xmpG:black>
									</rdf:li>
									<rdf:li  rdf:parseType="Resource">
										<xmpG:swatchName>C=0 M=10 Y=95 K=0</xmpG:swatchName>
										<xmpG:mode>CMYK</xmpG:mode>
										<xmpG:type>PROCESS</xmpG:type>
										<xmpG:cyan>0.000000</xmpG:cyan>
										<xmpG:magenta>10.000000</xmpG:magenta>
										<xmpG:yellow>95.000000</xmpG:yellow>
										<xmpG:black>0.000000</xmpG:black>
									</rdf:li>
									<rdf:li  rdf:parseType="Resource">
										<xmpG:swatchName>C=85 M=10 Y=100 K=0</xmpG:swatchName>
										<xmpG:mode>CMYK</xmpG:mode>
										<xmpG:type>PROCESS</xmpG:type>
										<xmpG:cyan>85.000000</xmpG:cyan>
										<xmpG:magenta>10.000000</xmpG:magenta>
										<xmpG:yellow>100.000000</xmpG:yellow>
										<xmpG:black>0.000000</xmpG:black>
									</rdf:li>
									<rdf:li  rdf:parseType="Resource">
										<xmpG:swatchName>C=100 M=90 Y=0 K=0</xmpG:swatchName>
										<xmpG:mode>CMYK</xmpG:mode>
										<xmpG:type>PROCESS</xmpG:type>
										<xmpG:cyan>100.000000</xmpG:cyan>
										<xmpG:magenta>90.000000</xmpG:magenta>
										<xmpG:yellow>0.000000</xmpG:yellow>
										<xmpG:black>0.000000</xmpG:black>
									</rdf:li>
									<rdf:li  rdf:parseType="Resource">
										<xmpG:swatchName>C=60 M=90 Y=0 K=0</xmpG:swatchName>
										<xmpG:mode>CMYK</xmpG:mode>
										<xmpG:type>PROCESS</xmpG:type>
										<xmpG:cyan>60.000000</xmpG:cyan>
										<xmpG:magenta>90.000000</xmpG:magenta>
										<xmpG:yellow>0.003100</xmpG:yellow>
										<xmpG:black>0.003100</xmpG:black>
									</rdf:li>
								</rdf:Seq>
							</xmpG:Colorants>
						</rdf:li>
					</rdf:Seq>
				</xmpTPg:SwatchGroups>
				<dc:format>image/svg+xml</dc:format>
			</rdf:Description>
		</rdf:RDF>
	</x:xmpmeta>
	<sfw  xmlns="&ns_sfw;">
		<slices></slices>
		<sliceSourceBounds  bottomLeftOrigin="true" height="320.4" width="294.6" x="107.9" y="78.8"></sliceSourceBounds>
	</sfw>
</metadata>
<g id="lines">
	<g>
		<path class="st0" d="M157,182.8c21.7,15.7,47.3,26.4,75.2,30.2c7.5,1,15.1,1.6,22.9,1.6c7.8,0,15.5-0.5,23-1.6
			c28-3.9,53.8-14.6,75.6-30.6"/>
		<path class="st1" d="M200.7,376.1c21.9-83.7,78.5-153.4,153.6-192.8"/>
	</g>
</g>
<g id="circles">
	
		<image style="overflow:visible;opacity:0.5;enable-background:new    ;" width="192" height="192" xlink:href="34A749D0B0F54397.png"  transform="matrix(0.235 0 0 0.235 232.5536 111.0258)">
	</image>
	
		<image style="overflow:visible;opacity:0.5;enable-background:new    ;" width="196" height="192" xlink:href="34A749D0B0F54395.png"  transform="matrix(0.2326 0 0 0.2326 287.7624 354.3796)">
	</image>
	
		<image style="overflow:visible;enable-background:new    ;" width="192" height="192" xlink:href="34A749D0B0F5439B.png"  transform="matrix(0.235 0 0 0.235 176.8736 354.1458)">
	</image>
	
		<image style="overflow:visible;opacity:0.5;enable-background:new    ;" width="192" height="196" xlink:href="34A749D0B0F5439D.png"  transform="matrix(0.2326 0 0 0.2326 107.8671 267.1541)">
	</image>
	
		<image style="overflow:visible;enable-background:new    ;" width="192" height="192" xlink:href="34A749D0B0F5439F.png"  transform="matrix(0.2338 0 0 0.2338 132.4736 159.2658)">
	</image>
	
		<image style="overflow:visible;enable-background:new    ;" width="192" height="192" xlink:href="34A749D0B0F5439C.png"  transform="matrix(0.2344 0 0 0.2344 332.6935 159.2057)">
	</image>
	
		<image style="overflow:visible;opacity:0.5;enable-background:new    ;" width="192" height="188" xlink:href="34A749D0B0F54394.png"  transform="matrix(0.2368 0 0 0.2368 356.9379 267.6838)">
	</image>
</g>
<g id="languages">
	<g class="st2">
		<path class="st3" d="M249,128.1h1.7l3.7,9.7h-1.9l-0.9-2.4h-3.4l-0.9,2.4h-1.9L249,128.1z M251.2,134l-1.3-3.8l-1.4,3.8H251.2z"/>
		<path class="st3" d="M256.1,137.8v-9.7h4.3c0.4,0,0.9,0.1,1.2,0.3c0.4,0.2,0.7,0.4,1,0.7s0.5,0.6,0.6,1c0.2,0.4,0.2,0.8,0.2,1.2
			c0,0.6-0.2,1.2-0.5,1.7s-0.7,0.9-1.3,1.1l2.2,3.6h-2.1l-2-3.2H258v3.2L256.1,137.8L256.1,137.8z M258,132.9h2.4
			c0.2,0,0.3,0,0.5-0.1s0.3-0.2,0.4-0.3s0.2-0.3,0.3-0.5s0.1-0.4,0.1-0.6c0-0.2,0-0.4-0.1-0.6c-0.1-0.2-0.2-0.4-0.3-0.5
			c-0.1-0.1-0.3-0.2-0.4-0.3c-0.2-0.1-0.3-0.1-0.5-0.1H258V132.9z"/>
	</g>
	<g>
		<path class="st3" d="M352.9,184.3v1.6h-6.7v-9.7h6.6v1.6h-4.7v2.3h4.1v1.5h-4.1v2.5h4.8V184.3z"/>
		<path class="st3" d="M356.9,179.8v6.2H355v-9.7h1.5l5,6.3v-6.3h1.9v9.6h-1.5L356.9,179.8z"/>
	</g>
	<g class="st2">
		<path class="st3" d="M371.6,294.2v-9.7h6.5v1.6h-4.6v2.5h3.8v1.5h-3.8v4h-1.9V294.2z"/>
		<path class="st3" d="M380.1,294.2v-9.7h4.3c0.4,0,0.9,0.1,1.2,0.3c0.4,0.2,0.7,0.4,1,0.7c0.3,0.3,0.5,0.6,0.6,1s0.2,0.8,0.2,1.2
			c0,0.6-0.2,1.2-0.5,1.7s-0.7,0.9-1.3,1.1l2.2,3.6h-2.1l-2-3.2H382v3.2L380.1,294.2L380.1,294.2z M382,289.3h2.4
			c0.2,0,0.3,0,0.5-0.1s0.3-0.2,0.4-0.3c0.1-0.1,0.2-0.3,0.3-0.5s0.1-0.4,0.1-0.6s0-0.4-0.1-0.6s-0.2-0.4-0.3-0.5
			c-0.1-0.1-0.3-0.2-0.4-0.3c-0.2-0.1-0.3-0.1-0.5-0.1H382V289.3z"/>
	</g>
	<g class="st2">
		<path class="st3" d="M302.8,379c0.1,0.1,0.3,0.2,0.6,0.3c0.3,0.1,0.6,0.2,1,0.2s0.7-0.1,0.9-0.2c0.2-0.1,0.4-0.3,0.5-0.6
			c0.1-0.3,0.2-0.6,0.2-1s0.1-0.9,0.1-1.4v-4.9h1.9v4.9c0,0.7,0,1.4-0.1,2s-0.2,1.1-0.5,1.5s-0.6,0.8-1.1,1s-1.1,0.4-1.9,0.4
			s-1.5-0.2-2.1-0.6L302.8,379z"/>
		<path class="st3" d="M313.2,371.3h1.7l3.7,9.7h-1.9l-0.9-2.4h-3.4l-0.9,2.4h-1.9L313.2,371.3z M315.4,377.3l-1.3-3.8l-1.4,3.8
			H315.4z"/>
	</g>
	<g>
		<path class="st3" d="M190.4,381v-9.7h4.1c0.4,0,0.9,0.1,1.2,0.3c0.4,0.2,0.7,0.4,1,0.7c0.3,0.3,0.5,0.6,0.6,1s0.2,0.8,0.2,1.2
			c0,0.4-0.1,0.8-0.2,1.2c-0.1,0.4-0.3,0.7-0.6,1s-0.6,0.5-1,0.7s-0.8,0.3-1.2,0.3h-2.3v3.2L190.4,381L190.4,381z M192.3,376.1h2.2
			c0.3,0,0.6-0.1,0.9-0.4c0.2-0.3,0.3-0.7,0.3-1.1c0-0.2,0-0.5-0.1-0.7s-0.2-0.4-0.3-0.5s-0.3-0.2-0.4-0.3c-0.2-0.1-0.3-0.1-0.5-0.1
			h-2.1L192.3,376.1L192.3,376.1z"/>
		<path class="st3" d="M203.7,381.1c-0.7,0-1.3-0.1-1.9-0.4c-0.6-0.3-1.1-0.6-1.5-1.1s-0.7-1-1-1.6c-0.2-0.6-0.3-1.2-0.3-1.8
			c0-0.6,0.1-1.3,0.4-1.9s0.6-1.1,1-1.6s0.9-0.8,1.5-1.1c0.6-0.3,1.2-0.4,1.9-0.4s1.3,0.1,1.9,0.4c0.6,0.3,1.1,0.7,1.5,1.1
			c0.4,0.5,0.7,1,1,1.6s0.3,1.2,0.3,1.8c0,0.6-0.1,1.3-0.4,1.8c-0.2,0.6-0.6,1.1-1,1.6s-0.9,0.8-1.5,1.1
			C205,380.9,204.4,381.1,203.7,381.1z M200.9,376.2c0,0.4,0.1,0.8,0.2,1.2c0.1,0.4,0.3,0.7,0.6,1c0.2,0.3,0.5,0.5,0.9,0.7
			s0.7,0.3,1.2,0.3s0.9-0.1,1.2-0.3c0.3-0.2,0.6-0.4,0.9-0.7c0.2-0.3,0.4-0.7,0.5-1c0.1-0.4,0.2-0.8,0.2-1.2c0-0.4-0.1-0.8-0.2-1.2
			c-0.1-0.4-0.3-0.7-0.6-1s-0.5-0.5-0.9-0.7c-0.3-0.2-0.7-0.3-1.2-0.3s-0.9,0.1-1.2,0.3c-0.4,0.2-0.6,0.4-0.9,0.7
			c-0.2,0.3-0.4,0.6-0.5,1S200.9,375.8,200.9,376.2z"/>
	</g>
	<g class="st2">
		<path class="st3" d="M120.9,294.2v-9.7h4.3c0.4,0,0.9,0.1,1.2,0.3c0.4,0.2,0.7,0.4,1,0.7c0.3,0.3,0.5,0.6,0.6,1
			c0.2,0.4,0.2,0.8,0.2,1.2c0,0.6-0.2,1.2-0.5,1.7s-0.7,0.9-1.3,1.1l2.2,3.6h-2.1l-2-3.2h-1.9v3.2L120.9,294.2L120.9,294.2z
			 M122.8,289.3h2.4c0.2,0,0.3,0,0.5-0.1s0.3-0.2,0.4-0.3c0.1-0.1,0.2-0.3,0.3-0.5s0.1-0.4,0.1-0.6s0-0.4-0.1-0.6s-0.2-0.4-0.3-0.5
			c-0.1-0.1-0.3-0.2-0.4-0.3c-0.2-0.1-0.3-0.1-0.5-0.1h-2.3L122.8,289.3L122.8,289.3z"/>
		<path class="st3" d="M134.7,292.6c0.4,0,0.8-0.1,1.1-0.3s0.5-0.4,0.7-0.7c0.2-0.3,0.3-0.6,0.4-1c0.1-0.4,0.1-0.8,0.1-1.2v-4.9h1.9
			v4.9c0,0.7-0.1,1.3-0.2,1.9c-0.2,0.6-0.4,1.1-0.7,1.5s-0.8,0.8-1.3,1s-1.2,0.4-1.9,0.4c-0.8,0-1.4-0.1-2-0.4s-1-0.6-1.3-1.1
			c-0.3-0.4-0.6-1-0.7-1.5c-0.2-0.6-0.2-1.2-0.2-1.8v-4.9h1.9v4.9c0,0.4,0,0.8,0.1,1.2c0.1,0.4,0.2,0.7,0.4,1s0.4,0.5,0.7,0.7
			C133.9,292.5,134.3,292.6,134.7,292.6z"/>
	</g>
	<g>
		<path class="st3" d="M152.8,178.8c-0.1-0.1-0.2-0.1-0.3-0.3c-0.2-0.1-0.4-0.2-0.6-0.3c-0.2-0.1-0.5-0.2-0.8-0.3s-0.6-0.1-0.9-0.1
			c-0.5,0-0.9,0.1-1.2,0.3s-0.4,0.5-0.4,0.8c0,0.2,0,0.4,0.1,0.5s0.2,0.2,0.4,0.3s0.4,0.2,0.7,0.3s0.6,0.2,1,0.3
			c0.5,0.1,0.9,0.3,1.3,0.4c0.4,0.1,0.7,0.3,1,0.5s0.5,0.5,0.6,0.8s0.2,0.7,0.2,1.1c0,0.5-0.1,1-0.3,1.3s-0.5,0.7-0.8,0.9
			s-0.7,0.4-1.1,0.5c-0.4,0.1-0.9,0.2-1.4,0.2c-0.7,0-1.4-0.1-2.2-0.3c-0.7-0.2-1.3-0.5-1.9-0.9l0.8-1.6c0.1,0.1,0.2,0.2,0.4,0.3
			s0.5,0.3,0.8,0.4c0.3,0.1,0.6,0.2,1,0.3s0.7,0.1,1.1,0.1c1,0,1.6-0.3,1.6-1c0-0.2-0.1-0.4-0.2-0.5s-0.3-0.3-0.5-0.4
			c-0.2-0.1-0.5-0.2-0.8-0.3s-0.7-0.2-1-0.3c-0.5-0.1-0.9-0.3-1.2-0.4c-0.3-0.1-0.6-0.3-0.9-0.5s-0.4-0.4-0.5-0.7s-0.2-0.6-0.2-1
			c0-0.5,0.1-0.9,0.3-1.3s0.4-0.7,0.8-1c0.3-0.3,0.7-0.4,1.1-0.6c0.4-0.1,0.9-0.2,1.4-0.2c0.7,0,1.3,0.1,1.9,0.3
			c0.6,0.2,1.1,0.5,1.5,0.8L152.8,178.8z"/>
		<path class="st3" d="M156.1,185.9v-9.7h4.1c0.4,0,0.9,0.1,1.2,0.3c0.4,0.2,0.7,0.4,1,0.7s0.5,0.6,0.6,1c0.2,0.4,0.2,0.8,0.2,1.2
			s-0.1,0.8-0.2,1.2c-0.1,0.4-0.3,0.7-0.6,1s-0.6,0.5-1,0.7s-0.8,0.3-1.2,0.3h-2.3v3.2h-1.8V185.9z M157.9,181.1h2.2
			c0.3,0,0.6-0.1,0.9-0.4c0.2-0.3,0.3-0.7,0.3-1.1c0-0.2,0-0.5-0.1-0.7s-0.2-0.4-0.3-0.5s-0.3-0.2-0.4-0.3c-0.2-0.1-0.3-0.1-0.5-0.1
			h-2.1L157.9,181.1L157.9,181.1z"/>
	</g>
	<g>
		<circle class="st4" cx="155.2" cy="182.1" r="22"/>
		<circle class="st4" cx="355" cy="182.1" r="22"/>
		<circle class="st4" cx="380.2" cy="290" r="22"/>
		<circle class="st4" cx="199.6" cy="376.8" r="22"/>
	</g>
</g>
<g id="subjects">
	<g>
		<path d="M161.1,408.4c0.2,0,0.5,0,0.9,0.1c0.3,0.1,0.6,0.1,0.7,0.1c0.1,0.5,0.2,1,0.2,1.7c0,0.1-0.1,0.1-0.2,0.1
			c-0.1,0-0.2,0-0.3-0.1c-0.1-0.3-0.3-0.7-0.5-1s-0.5-0.5-0.8-0.5c-0.4,0-0.6,0.1-0.8,0.3c-0.2,0.2-0.3,0.4-0.3,0.7
			c0,0.1,0,0.3,0.1,0.4c0,0.1,0.1,0.2,0.1,0.3c0,0.1,0.1,0.2,0.2,0.2c0.1,0.1,0.2,0.2,0.3,0.2s0.2,0.1,0.3,0.2
			c0.2,0.1,0.3,0.2,0.3,0.2s0.2,0.1,0.3,0.2s0.3,0.2,0.4,0.2c0.1,0.1,0.2,0.1,0.3,0.2s0.3,0.2,0.3,0.3c0.1,0.1,0.2,0.2,0.2,0.3
			c0.1,0.1,0.1,0.2,0.2,0.4c0,0.1,0.1,0.3,0.1,0.4c0,0.6-0.2,1.1-0.7,1.5s-1,0.6-1.7,0.6c-0.2,0-0.4,0-0.6,0c-0.2,0-0.4-0.1-0.6-0.1
			c-0.2-0.1-0.4-0.1-0.6-0.1c-0.1-0.2-0.1-0.4-0.2-0.8c-0.1-0.4-0.1-0.6-0.1-0.8c0.1-0.1,0.2-0.1,0.3-0.1s0.1,0,0.1,0
			c0.1,0.4,0.3,0.7,0.6,1s0.7,0.5,1.1,0.5c0.3,0,0.6-0.1,0.8-0.3c0.2-0.2,0.3-0.5,0.3-0.8c0-0.2,0-0.3-0.1-0.5
			c-0.1-0.1-0.2-0.3-0.3-0.4s-0.3-0.2-0.4-0.3c-0.1-0.1-0.3-0.2-0.5-0.3c-0.2-0.1-0.4-0.2-0.5-0.3c-0.4-0.2-0.7-0.4-0.9-0.7
			c-0.2-0.3-0.3-0.6-0.3-1c0-0.6,0.2-1,0.7-1.4C159.9,408.5,160.5,408.4,161.1,408.4z"/>
		<path d="M168.8,408.4c0.3,0,0.6,0,0.9,0.1c0.2,0.1,0.4,0.2,0.6,0.4c0.2,0.2,0.3,0.4,0.4,0.7s0.1,0.6,0.2,0.9c0,0.3,0,0.7,0,1.2
			v1.7c0,0.6,0,1,0.1,1.2c0,0.1,0.2,0.1,0.4,0.2s0.4,0.1,0.6,0.1c0,0,0,0.1,0.1,0.2s0,0.2-0.1,0.2c-1.1-0.1-1.6-0.1-1.7-0.1
			c-0.2,0-0.4,0-0.5,0s-0.4,0-0.6,0s-0.4,0-0.5,0c0,0-0.1-0.1-0.1-0.2s0-0.2,0.1-0.2c0.2,0,0.3,0,0.6-0.1s0.4-0.1,0.4-0.2
			c0.1-0.2,0.1-0.6,0.1-1.2v-1.6c0-1-0.1-1.7-0.3-2c-0.2-0.4-0.6-0.5-1.2-0.5c-0.2,0-0.4,0.1-0.6,0.2s-0.4,0.3-0.6,0.4
			c-0.2,0.1-0.2,0.2-0.2,0.3v3.3c0,0.6,0,1,0.1,1.2c0,0.1,0.2,0.1,0.4,0.2s0.4,0.1,0.6,0.1c0,0,0,0.1,0.1,0.2s0,0.2-0.1,0.2
			c-1.1-0.1-1.6-0.1-1.7-0.1c-0.2,0-0.4,0-0.5,0s-0.4,0-0.6,0s-0.4,0-0.5,0c0,0-0.1-0.1-0.1-0.2s0-0.2,0.1-0.2c0.2,0,0.3,0,0.6-0.1
			s0.4-0.1,0.4-0.2c0.1-0.2,0.1-0.6,0.1-1.2v-2.8c0-0.5,0-0.8-0.1-0.9c0-0.1-0.1-0.1-0.3-0.2s-0.3-0.1-0.4-0.1s-0.2,0-0.3,0
			c0,0,0-0.1,0-0.2s0-0.2,0-0.2c0.9-0.1,1.6-0.3,2.2-0.7c0,0,0.1,0,0.1,0.1s0.1,0.1,0.1,0.2c-0.1,0.4-0.1,0.7-0.1,0.9v0.1l0,0
			c0.2-0.2,0.5-0.5,1-0.7S168.5,408.4,168.8,408.4z"/>
		<path d="M175.9,408.4c0.5,0,0.9,0.2,1.2,0.6s0.5,0.9,0.5,1.5v3.2c0,0.5,0.2,0.7,0.5,0.7h0.1h0.1h0.1h0.1c0,0,0,0,0.1,0s0,0,0,0
			s0.1,0,0.1,0.1s0,0.2-0.1,0.3c-0.1,0.1-0.3,0.2-0.6,0.4c-0.3,0.1-0.5,0.2-0.6,0.2c-0.2,0-0.4-0.1-0.6-0.3s-0.3-0.4-0.4-0.7
			c-0.2,0.2-0.4,0.4-0.9,0.6s-0.8,0.4-1,0.4c-0.5,0-0.9-0.2-1.3-0.5c-0.4-0.3-0.5-0.8-0.5-1.3c0-0.3,0.1-0.6,0.2-0.8
			c0.2-0.2,0.3-0.4,0.5-0.5s0.5-0.2,0.9-0.3s0.8-0.3,1.1-0.4s0.5-0.2,0.7-0.3c0.1,0,0.1-0.1,0.2-0.1s0-0.1,0-0.3v-0.4
			c0-0.4-0.1-0.7-0.4-1c-0.3-0.3-0.6-0.5-0.9-0.5c-0.3,0-0.5,0.1-0.6,0.2c-0.1,0.2-0.2,0.4-0.3,0.7c-0.1,0.5-0.3,0.8-0.7,0.8
			c-0.2,0-0.3-0.1-0.4-0.2c-0.1-0.1-0.1-0.3-0.1-0.5c0,0,0-0.1,0-0.2s0-0.1,0.1-0.2c0.3-0.3,0.8-0.6,1.3-0.9
			C174.8,408.5,175.4,408.4,175.9,408.4z M175,414.5c0.3,0,0.5-0.1,0.9-0.3c0.3-0.2,0.5-0.3,0.5-0.4v-2.1c-0.8,0.2-1.3,0.4-1.5,0.5
			c-0.3,0.1-0.5,0.3-0.7,0.5s-0.3,0.5-0.3,0.7c0,0.3,0.1,0.5,0.3,0.8S174.7,414.5,175,414.5z"/>
		<path d="M181.4,413.4c0,0.6,0,1,0.1,1.2c0,0.1,0.2,0.1,0.4,0.2s0.4,0.1,0.6,0.1c0,0,0,0.1,0.1,0.2s0,0.2-0.1,0.2
			c-1.1-0.1-1.6-0.1-1.7-0.1c-0.2,0-0.4,0-0.5,0s-0.4,0-0.6,0s-0.4,0-0.5,0c0,0-0.1-0.1-0.1-0.2s0-0.2,0.1-0.2c0.2,0,0.3,0,0.6-0.1
			s0.4-0.1,0.4-0.2c0.1-0.2,0.1-0.6,0.1-1.2v-6.9c0-0.4,0-0.7-0.1-0.8c-0.1-0.2-0.4-0.3-1-0.3c0,0,0,0,0-0.1s0-0.1,0-0.2
			s0-0.1,0-0.1c0.7-0.1,1.5-0.3,2.2-0.6c0,0,0.1,0,0.1,0.1s0.1,0.1,0.1,0.2c-0.1,0.3-0.2,0.8-0.2,1.4v5.6c0.2-0.1,0.6-0.4,1.3-1
			c0.1-0.1,0.3-0.2,0.5-0.4c0.2-0.1,0.3-0.3,0.4-0.3c0.1-0.1,0.2-0.2,0.3-0.2s0.2-0.2,0.2-0.2c0-0.1,0.1-0.1,0.1-0.1v-0.1
			c0,0-0.1,0-0.1-0.1H184h-0.1h-0.1h-0.1h-0.1c0-0.1-0.1-0.1,0-0.3c0-0.1,0-0.2,0.1-0.2c0.5,0.1,1,0.1,1.5,0.1s1,0,1.4-0.1
			c0,0,0,0.1,0,0.2s0,0.2,0,0.2c-0.1,0-0.3,0-0.6,0.1s-0.5,0.2-0.6,0.3c-1.2,0.8-2,1.5-2.5,1.9c0.3,0.3,0.7,0.7,1.1,1.2
			s0.8,0.9,1.1,1.2c0.3,0.3,0.5,0.5,0.6,0.6c0.2,0.2,0.4,0.3,0.7,0.3s0.5,0.1,0.8,0.1c0,0,0,0.1,0,0.2s0,0.2,0,0.2
			c-0.1,0.1-0.5,0.1-1,0.1c-0.4,0-0.8-0.1-1.2-0.2c-0.4-0.2-0.6-0.3-0.8-0.5c-0.9-1-1.6-1.8-2.2-2.4c0,0,0,0-0.1-0.1l-0.1-0.1l0,0
			v1.4H181.4z"/>
		<path d="M188,411.3c0,1,0.2,1.7,0.7,2.2s1.1,0.8,1.8,0.8c0.4,0,0.7-0.1,1-0.3c0.3-0.2,0.5-0.4,0.7-0.6l0,0c0,0,0,0,0.1,0.1v0.1
			c0,0.1,0,0.2-0.1,0.3c-0.1,0.1-0.2,0.3-0.3,0.4s-0.3,0.3-0.5,0.4s-0.4,0.3-0.7,0.4s-0.5,0.1-0.8,0.1c-0.9,0-1.7-0.3-2.2-0.9
			s-0.9-1.4-0.9-2.3c0-0.5,0.1-1,0.3-1.5s0.4-0.9,0.7-1.2c0.3-0.3,0.6-0.6,1-0.8s0.7-0.3,1.1-0.3c0.4,0,0.7,0.1,1,0.2
			s0.5,0.2,0.7,0.4c0.2,0.2,0.3,0.3,0.4,0.5s0.2,0.4,0.2,0.6s0.1,0.3,0.1,0.5s0,0.4-0.1,0.5s-0.2,0.2-0.3,0.2c-0.2,0-0.9,0-2,0.1
			C188.7,411.3,188.1,411.3,188,411.3z M188.1,410.7h2.5c0.2,0,0.3-0.1,0.4-0.4c0-0.1,0-0.2-0.1-0.4s-0.1-0.3-0.2-0.5
			c-0.1-0.2-0.2-0.3-0.4-0.4s-0.4-0.2-0.6-0.2c-0.2,0-0.5,0.1-0.7,0.2s-0.4,0.3-0.5,0.5s-0.2,0.4-0.3,0.5s-0.1,0.3-0.2,0.5
			S188,410.7,188.1,410.7z"/>
		<path d="M196,408.4c0.2,0,0.5,0,0.9,0.1c0.3,0.1,0.6,0.1,0.7,0.1c0.1,0.5,0.2,1,0.2,1.7c0,0.1-0.1,0.1-0.2,0.1
			c-0.1,0-0.2,0-0.3-0.1c-0.1-0.3-0.3-0.7-0.5-1s-0.5-0.5-0.8-0.5c-0.4,0-0.6,0.1-0.8,0.3c-0.2,0.2-0.3,0.4-0.3,0.7
			c0,0.1,0,0.3,0.1,0.4c0,0.1,0.1,0.2,0.1,0.3c0,0.1,0.1,0.2,0.2,0.2c0.1,0.1,0.2,0.2,0.3,0.2s0.2,0.1,0.3,0.2
			c0.2,0.1,0.3,0.2,0.3,0.2s0.2,0.1,0.3,0.2s0.3,0.2,0.4,0.2c0.1,0.1,0.2,0.1,0.3,0.2s0.3,0.2,0.3,0.3c0.1,0.1,0.2,0.2,0.2,0.3
			c0.1,0.1,0.1,0.2,0.2,0.4c0,0.1,0.1,0.3,0.1,0.4c0,0.6-0.2,1.1-0.7,1.5s-1,0.6-1.7,0.6c-0.2,0-0.4,0-0.6,0c-0.2,0-0.4-0.1-0.6-0.1
			c-0.2-0.1-0.4-0.1-0.6-0.1c-0.1-0.2-0.1-0.4-0.2-0.8c-0.1-0.4-0.1-0.6-0.1-0.8c0.1-0.1,0.2-0.1,0.3-0.1s0.1,0,0.1,0
			c0.1,0.4,0.3,0.7,0.6,1s0.7,0.5,1.1,0.5c0.3,0,0.6-0.1,0.8-0.3c0.2-0.2,0.3-0.5,0.3-0.8c0-0.2,0-0.3-0.1-0.5
			c-0.1-0.1-0.2-0.3-0.3-0.4s-0.3-0.2-0.4-0.3c-0.1-0.1-0.3-0.2-0.5-0.3c-0.2-0.1-0.4-0.2-0.5-0.3c-0.4-0.2-0.7-0.4-0.9-0.7
			c-0.2-0.3-0.3-0.6-0.3-1c0-0.6,0.2-1,0.7-1.4C194.9,408.5,195.4,408.4,196,408.4z"/>
		<path d="M200.4,413.3c0.1,0,0.3,0,0.4,0.1c0.2,0.3,0.3,0.7,0.3,1.1s-0.2,1-0.6,1.6s-0.8,1.1-1.2,1.3c-0.1,0-0.1,0-0.2-0.1
			c-0.1-0.1-0.1-0.2-0.1-0.2c0.1-0.1,0.2-0.2,0.3-0.2s0.2-0.2,0.3-0.3s0.2-0.3,0.3-0.5s0.1-0.4,0.1-0.6s-0.1-0.4-0.3-0.6
			s-0.3-0.5-0.3-0.7s0.1-0.4,0.3-0.5S200.1,413.3,200.4,413.3z"/>
		<path d="M209.1,408.4h2c0.1,0,0.1,0.1,0.1,0.2c0,0.2-0.1,0.3-0.2,0.5h-1.9v4.1c0,0.9,0.3,1.3,1,1.3c0.3,0,0.7-0.1,1-0.4v0.1
			c0,0.1,0,0.2-0.1,0.2c-0.1,0.1-0.2,0.2-0.3,0.3c-0.1,0.1-0.3,0.2-0.6,0.3s-0.5,0.2-0.7,0.2s-0.4,0-0.6-0.1
			c-0.2-0.1-0.4-0.1-0.5-0.3c-0.2-0.1-0.3-0.3-0.4-0.5c-0.1-0.2-0.1-0.5-0.1-0.8V409h-0.9c-0.1,0-0.1,0-0.1-0.1c0,0,0.1-0.1,0.2-0.2
			s0.2-0.2,0.2-0.3h0.6v-1c0.1-0.1,0.2-0.2,0.4-0.4c0.2-0.2,0.3-0.3,0.4-0.4s0.2-0.2,0.2-0.2s0.1,0,0.1-0.1h0.1l0,0v2.1H209.1z"/>
		<path d="M213.1,411.3c0,1,0.2,1.7,0.7,2.2s1.1,0.8,1.8,0.8c0.4,0,0.7-0.1,1-0.3c0.3-0.2,0.5-0.4,0.7-0.6l0,0c0,0,0,0,0.1,0.1v0.1
			c0,0.1,0,0.2-0.1,0.3c-0.1,0.1-0.2,0.3-0.3,0.4s-0.3,0.3-0.5,0.4s-0.4,0.3-0.7,0.4s-0.5,0.1-0.8,0.1c-0.9,0-1.7-0.3-2.2-0.9
			s-0.9-1.4-0.9-2.3c0-0.5,0.1-1,0.3-1.5s0.4-0.9,0.7-1.2c0.3-0.3,0.6-0.6,1-0.8s0.7-0.3,1.1-0.3c0.4,0,0.7,0.1,1,0.2
			s0.5,0.2,0.7,0.4c0.2,0.2,0.3,0.3,0.4,0.5s0.2,0.4,0.2,0.6s0.1,0.3,0.1,0.5s0,0.4-0.1,0.5s-0.2,0.2-0.3,0.2c-0.2,0-0.9,0-2,0.1
			C213.9,411.3,213.3,411.3,213.1,411.3z M213.2,410.7h2.5c0.2,0,0.3-0.1,0.4-0.4c0-0.1,0-0.2-0.1-0.4s-0.1-0.3-0.2-0.5
			c-0.1-0.2-0.2-0.3-0.4-0.4s-0.4-0.2-0.6-0.2c-0.2,0-0.5,0.1-0.7,0.2s-0.4,0.3-0.5,0.5s-0.2,0.4-0.3,0.5s-0.1,0.3-0.2,0.5
			S213.2,410.7,213.2,410.7z"/>
		<path d="M219.9,411.3c0,1,0.2,1.7,0.7,2.2s1.1,0.8,1.8,0.8c0.4,0,0.7-0.1,1-0.3c0.3-0.2,0.5-0.4,0.7-0.6l0,0c0,0,0,0,0.1,0.1v0.1
			c0,0.1,0,0.2-0.1,0.3c-0.1,0.1-0.2,0.3-0.3,0.4s-0.3,0.3-0.5,0.4s-0.4,0.3-0.7,0.4s-0.5,0.1-0.8,0.1c-0.9,0-1.7-0.3-2.2-0.9
			s-0.9-1.4-0.9-2.3c0-0.5,0.1-1,0.3-1.5s0.4-0.9,0.7-1.2c0.3-0.3,0.6-0.6,1-0.8s0.7-0.3,1.1-0.3c0.4,0,0.7,0.1,1,0.2
			s0.5,0.2,0.7,0.4c0.2,0.2,0.3,0.3,0.4,0.5s0.2,0.4,0.2,0.6s0.1,0.3,0.1,0.5s0,0.4-0.1,0.5s-0.2,0.2-0.3,0.2c-0.2,0-0.9,0-2,0.1
			C220.6,411.3,220,411.3,219.9,411.3z M219.9,410.7h2.5c0.2,0,0.3-0.1,0.4-0.4c0-0.1,0-0.2-0.1-0.4s-0.1-0.3-0.2-0.5
			c-0.1-0.2-0.2-0.3-0.4-0.4s-0.4-0.2-0.6-0.2c-0.2,0-0.5,0.1-0.7,0.2s-0.4,0.3-0.5,0.5s-0.2,0.4-0.3,0.5s-0.1,0.3-0.2,0.5
			S219.9,410.7,219.9,410.7z"/>
		<path d="M227.3,408.4h2c0.1,0,0.1,0.1,0.1,0.2c0,0.2-0.1,0.3-0.2,0.5h-1.9v4.1c0,0.9,0.3,1.3,1,1.3c0.3,0,0.7-0.1,1-0.4v0.1
			c0,0.1,0,0.2-0.1,0.2c-0.1,0.1-0.2,0.2-0.3,0.3c-0.1,0.1-0.3,0.2-0.6,0.3s-0.5,0.2-0.7,0.2s-0.4,0-0.6-0.1
			c-0.2-0.1-0.4-0.1-0.5-0.3c-0.2-0.1-0.3-0.3-0.4-0.5c-0.1-0.2-0.1-0.5-0.1-0.8V409h-0.9c-0.1,0-0.1,0-0.1-0.1c0,0,0.1-0.1,0.2-0.2
			s0.2-0.2,0.2-0.3h0.6v-1c0.1-0.1,0.2-0.2,0.4-0.4c0.2-0.2,0.3-0.3,0.4-0.4s0.2-0.2,0.2-0.2s0.1,0,0.1-0.1h0.1l0,0v2.1H227.3z"/>
		<path d="M234.5,408.4c0.3,0,0.6,0,0.9,0.1c0.2,0.1,0.4,0.2,0.6,0.4c0.2,0.2,0.3,0.4,0.4,0.7s0.1,0.6,0.2,0.9c0,0.3,0,0.7,0,1.2
			v1.7c0,0.6,0,1,0.1,1.2c0,0.1,0.2,0.1,0.4,0.2s0.4,0.1,0.6,0.1c0,0,0,0.1,0.1,0.2s0,0.2-0.1,0.2c-1.1-0.1-1.6-0.1-1.7-0.1
			c-0.2,0-0.4,0-0.5,0s-0.4,0-0.6,0s-0.4,0-0.5,0c0,0-0.1-0.1-0.1-0.2s0-0.2,0.1-0.2c0.2,0,0.3,0,0.6-0.1s0.4-0.1,0.4-0.2
			c0.1-0.2,0.1-0.6,0.1-1.2v-1.6c0-1-0.1-1.7-0.3-2c-0.2-0.4-0.6-0.5-1.2-0.5c-0.2,0-0.4,0.1-0.6,0.2s-0.4,0.3-0.6,0.4
			c-0.2,0.1-0.2,0.2-0.2,0.3v3.3c0,0.6,0,1,0.1,1.2c0,0.1,0.2,0.1,0.4,0.2s0.4,0.1,0.6,0.1c0,0,0,0.1,0.1,0.2s0,0.2-0.1,0.2
			c-1.1-0.1-1.6-0.1-1.7-0.1c-0.2,0-0.4,0-0.5,0s-0.4,0-0.6,0s-0.4,0-0.5,0c0,0-0.1-0.1-0.1-0.2s0-0.2,0.1-0.2c0.2,0,0.3,0,0.6-0.1
			s0.4-0.1,0.4-0.2c0.1-0.2,0.1-0.6,0.1-1.2v-6.9c0-0.4,0-0.7-0.1-0.8c-0.1-0.2-0.4-0.3-1-0.3c0,0,0,0,0-0.1s0-0.1,0-0.2
			s0-0.1,0-0.1c0.7-0.1,1.5-0.3,2.2-0.6c0,0,0.1,0,0.1,0.1s0.1,0.1,0.1,0.2c-0.1,0.3-0.2,0.8-0.2,1.4v3.5l0,0l0,0
			c0.2-0.2,0.5-0.5,1-0.7S234.2,408.4,234.5,408.4z"/>
		<path d="M239.4,413.3c0.1,0,0.3,0,0.4,0.1c0.2,0.3,0.3,0.7,0.3,1.1s-0.2,1-0.6,1.6s-0.8,1.1-1.2,1.3c-0.1,0-0.1,0-0.2-0.1
			c-0.1-0.1-0.1-0.2-0.1-0.2c0.1-0.1,0.2-0.2,0.3-0.2s0.2-0.2,0.3-0.3s0.2-0.3,0.3-0.5s0.1-0.4,0.1-0.6s-0.1-0.4-0.3-0.6
			s-0.3-0.5-0.3-0.7s0.1-0.4,0.3-0.5S239.2,413.3,239.4,413.3z"/>
		<path d="M183.3,424.6c0.2,0,0.3,0,0.5,0s0.3,0,0.5,0s0.4,0,0.5,0c0,0,0,0.1,0,0.2s0,0.2-0.1,0.2s-0.2,0-0.3,0s-0.2,0-0.3,0.1
			s-0.2,0.1-0.2,0.2c0,0,0,0.1,0.1,0.2c0.1,0.3,0.6,1.6,1.6,3.8c0.1-0.3,0.3-0.7,0.4-1.1s0.3-0.7,0.4-0.9c0.1-0.2,0.2-0.4,0.2-0.6
			c0.1-0.2,0.1-0.4,0.2-0.5c0-0.1,0.1-0.2,0.1-0.2c0-0.1,0-0.2-0.1-0.4s-0.2-0.3-0.3-0.5s-0.4-0.3-0.7-0.3c0,0-0.1-0.1-0.1-0.2
			s0-0.2,0.1-0.2s0.3,0,0.6,0s0.6,0,0.8,0c0,0,0.6,0,1.6-0.1c0,0.1,0,0.1,0,0.2s0,0.2,0,0.2c-0.5,0-0.8,0.2-0.8,0.5c0,0,0,0.1,0,0.2
			s0.1,0.2,0.1,0.3c0,0.1,0.1,0.3,0.2,0.5s0.2,0.5,0.3,0.7s0.2,0.6,0.4,1s0.3,0.8,0.5,1.2c0.8-1.9,1.2-3.1,1.4-3.5
			c0.1-0.2,0.1-0.3,0.1-0.4s0-0.2-0.1-0.3s-0.1-0.1-0.3-0.2c-0.1,0-0.2-0.1-0.3-0.1s-0.2,0-0.3,0c0,0,0-0.1-0.1-0.2s0-0.2,0.1-0.2
			s0.3,0,0.6,0s0.5,0,0.8,0c0.2,0,0.3,0,0.5,0s0.3,0,0.5,0s0.3,0,0.5,0c0,0,0,0.1,0,0.2s0,0.2-0.1,0.2s-0.3,0-0.6,0.1
			c-0.2,0.1-0.4,0.2-0.5,0.4c-0.9,2.3-1.7,4.2-2.3,5.6c0,0.1-0.1,0.1-0.1,0.2c-0.1,0.1-0.1,0.1-0.2,0.1c-0.1,0-0.2,0-0.2-0.1
			l-1.7-4.5l-1.7,4.3c0,0-0.1,0.1-0.1,0.2c-0.1,0.1-0.2,0.1-0.2,0.1s-0.1,0-0.1-0.1c-0.9-2.2-1.7-4.2-2.5-6
			c-0.1-0.2-0.4-0.3-0.8-0.3c0,0,0-0.1,0-0.2s0-0.2,0-0.2c0.2,0,0.3,0,0.5,0s0.4,0,0.5,0S183.1,424.6,183.3,424.6z"/>
		<path d="M196.7,424.4c0.5,0,0.9,0.2,1.2,0.6s0.5,0.9,0.5,1.5v3.2c0,0.5,0.2,0.7,0.5,0.7h0.1h0.1h0.1h0.1c0,0,0,0,0.1,0s0,0,0,0
			s0.1,0,0.1,0.1s0,0.2-0.1,0.3c-0.1,0.1-0.3,0.2-0.6,0.4c-0.3,0.1-0.5,0.2-0.6,0.2c-0.2,0-0.4-0.1-0.6-0.3s-0.3-0.4-0.4-0.7
			c-0.2,0.2-0.4,0.4-0.9,0.6s-0.8,0.4-1,0.4c-0.5,0-0.9-0.2-1.3-0.5c-0.4-0.3-0.5-0.8-0.5-1.3c0-0.3,0.1-0.6,0.2-0.8
			c0.2-0.2,0.3-0.4,0.5-0.5s0.5-0.2,0.9-0.3s0.8-0.3,1.1-0.4s0.5-0.2,0.7-0.3c0.1,0,0.1-0.1,0.2-0.1s0-0.1,0-0.3v-0.4
			c0-0.4-0.1-0.7-0.4-1c-0.3-0.3-0.6-0.5-0.9-0.5c-0.3,0-0.5,0.1-0.6,0.2c-0.1,0.2-0.2,0.4-0.3,0.7c-0.1,0.5-0.3,0.8-0.7,0.8
			c-0.2,0-0.3-0.1-0.4-0.2c-0.1-0.1-0.1-0.3-0.1-0.5c0,0,0-0.1,0-0.2s0-0.1,0.1-0.2c0.3-0.3,0.8-0.6,1.3-0.9
			C195.6,424.5,196.1,424.4,196.7,424.4z M195.8,430.5c0.3,0,0.5-0.1,0.9-0.3c0.3-0.2,0.5-0.3,0.5-0.4v-2.1
			c-0.8,0.2-1.3,0.4-1.5,0.5c-0.3,0.1-0.5,0.3-0.7,0.5s-0.3,0.5-0.3,0.7c0,0.3,0.1,0.5,0.3,0.8S195.5,430.5,195.8,430.5z"/>
		<path d="M202.1,424.4h2c0.1,0,0.1,0.1,0.1,0.2c0,0.2-0.1,0.3-0.2,0.5h-1.9v4.1c0,0.9,0.3,1.3,1,1.3c0.3,0,0.7-0.1,1-0.4v0.1
			c0,0.1,0,0.2-0.1,0.2c-0.1,0.1-0.2,0.2-0.3,0.3c-0.1,0.1-0.3,0.2-0.6,0.3s-0.5,0.2-0.7,0.2s-0.4,0-0.6-0.1
			c-0.2-0.1-0.4-0.1-0.5-0.3c-0.2-0.1-0.3-0.3-0.4-0.5c-0.1-0.2-0.1-0.5-0.1-0.8V425H200c-0.1,0-0.1,0-0.1-0.1c0,0,0.1-0.1,0.2-0.2
			s0.2-0.2,0.2-0.3h0.6v-1c0.1-0.1,0.2-0.2,0.4-0.4c0.2-0.2,0.3-0.3,0.4-0.4s0.2-0.2,0.2-0.2s0.1,0,0.1-0.1h0.1l0,0L202.1,424.4
			L202.1,424.4z"/>
		<path d="M206.2,427.3c0,1,0.2,1.7,0.7,2.2s1.1,0.8,1.8,0.8c0.4,0,0.7-0.1,1-0.3c0.3-0.2,0.5-0.4,0.7-0.6l0,0c0,0,0,0,0.1,0.1v0.1
			c0,0.1,0,0.2-0.1,0.3c-0.1,0.1-0.2,0.3-0.3,0.4s-0.3,0.3-0.5,0.4s-0.4,0.3-0.7,0.4s-0.5,0.1-0.8,0.1c-0.9,0-1.7-0.3-2.2-0.9
			s-0.9-1.4-0.9-2.3c0-0.5,0.1-1,0.3-1.5s0.4-0.9,0.7-1.2c0.3-0.3,0.6-0.6,1-0.8s0.7-0.3,1.1-0.3c0.4,0,0.7,0.1,1,0.2
			s0.5,0.2,0.7,0.4c0.2,0.2,0.3,0.3,0.4,0.5s0.2,0.4,0.2,0.6s0.1,0.3,0.1,0.5s0,0.4-0.1,0.5s-0.2,0.2-0.3,0.2c-0.2,0-0.9,0-2,0.1
			C207,427.3,206.4,427.3,206.2,427.3z M206.3,426.7h2.5c0.2,0,0.3-0.1,0.4-0.4c0-0.1,0-0.2-0.1-0.4s-0.1-0.3-0.2-0.5
			c-0.1-0.2-0.2-0.3-0.4-0.4s-0.4-0.2-0.6-0.2c-0.2,0-0.5,0.1-0.7,0.2s-0.4,0.3-0.5,0.5s-0.2,0.4-0.3,0.5s-0.1,0.3-0.2,0.5
			S206.3,426.7,206.3,426.7z"/>
		<path d="M215.9,424.4c0.2,0,0.4,0,0.6,0.1c0.2,0.1,0.3,0.2,0.4,0.3c0,0.1,0.1,0.3,0.1,0.4c0,0.3-0.1,0.5-0.2,0.6
			c-0.1,0.1-0.2,0.2-0.3,0.2s-0.1,0-0.2,0c-0.1,0-0.1-0.1-0.2-0.1c-0.1-0.1-0.1-0.1-0.2-0.1c-0.2-0.1-0.4-0.2-0.6-0.2
			c-0.3,0-0.6,0.2-0.9,0.5c-0.3,0.4-0.4,0.6-0.4,0.9v2.4c0,0.6,0,1,0.1,1.2c0,0.1,0.2,0.1,0.6,0.2s0.6,0.1,0.8,0.1
			c0,0,0,0.1,0.1,0.2s0,0.2-0.1,0.2c-1.1-0.1-1.7-0.1-1.9-0.1c-0.1,0-0.7,0-1.8,0.1c0,0-0.1-0.1-0.1-0.2s0-0.2,0.1-0.2
			c0.2,0,0.3,0,0.6-0.1s0.4-0.1,0.4-0.2s0.1-0.5,0.1-1.2v-2.9c0-0.4,0-0.7-0.1-0.8c0-0.1-0.1-0.1-0.3-0.2s-0.3-0.1-0.4-0.1
			s-0.2,0-0.3,0c0,0,0-0.1,0-0.2s0-0.2,0-0.2c0.9-0.1,1.6-0.3,2.2-0.7c0,0,0.1,0,0.1,0.1s0.1,0.1,0.1,0.2s0,0.3-0.1,0.7
			c0,0.4,0,0.7,0,0.7l0,0l0,0l0,0c0.2-0.4,0.4-0.8,0.8-1.1C215.3,424.6,215.6,424.4,215.9,424.4z"/>
	</g>
	<g>
		<path d="M123.1,128.6c1.1,0,1.9-0.1,2.3-0.2l0,0l0,0c0,0,0.1,0,0.1,0.1s0,0.2,0,0.2c-0.1,0.4-0.1,0.8-0.1,1.1v3.5
			c0,0.6,0,1,0.1,1.2c0,0.1,0.2,0.1,0.4,0.2s0.4,0.1,0.6,0.1c0,0,0,0.1,0.1,0.2s0,0.2-0.1,0.2c-1.1-0.1-1.6-0.1-1.7-0.1
			c-0.2,0-0.4,0-0.5,0s-0.4,0-0.6,0s-0.4,0-0.5,0c0,0-0.1-0.1-0.1-0.2s0-0.2,0.1-0.2c0.2,0,0.3,0,0.6-0.1s0.4-0.1,0.4-0.2
			c0.1-0.2,0.1-0.6,0.1-1.2v-3c0-0.3-0.1-0.6-0.2-0.8s-0.5-0.3-1.1-0.3h-1.7v4.1c0,0.6,0,1,0.1,1.2c0,0.1,0.2,0.1,0.4,0.2
			s0.5,0.1,0.6,0.1c0,0,0,0.1,0.1,0.2s0,0.2-0.1,0.2c-1.1-0.1-1.6-0.1-1.7-0.1c-0.2,0-0.4,0-0.5,0s-0.4,0-0.6,0s-0.4,0-0.5,0
			c0,0-0.1-0.1-0.1-0.2s0-0.2,0.1-0.2c0.2,0,0.3,0,0.6-0.1s0.4-0.1,0.4-0.2c0.1-0.2,0.1-0.6,0.1-1.2V129h-0.9c0,0,0,0,0-0.1
			s0.1-0.2,0.2-0.3s0.2-0.2,0.3-0.2h0.5v-0.2c0-0.6,0.1-1.2,0.4-1.9s0.7-1.2,1.2-1.6s1.1-0.7,1.6-0.7c0.3,0,0.6,0.1,1,0.2
			s0.6,0.3,0.7,0.5c0.3,0.3,0.5,0.7,0.5,1c0,0.2-0.1,0.3-0.2,0.4s-0.3,0.2-0.5,0.2c-0.3,0-0.6-0.2-0.7-0.6c0-0.1,0-0.1-0.1-0.2
			s-0.1-0.2-0.1-0.2s-0.1-0.1-0.1-0.2c-0.1-0.2-0.2-0.3-0.4-0.4s-0.3-0.1-0.6-0.1c-0.4,0-0.8,0.3-1.1,0.9s-0.5,1.2-0.5,2v0.8h1.7
			V128.6z"/>
		<path d="M131.7,128.3c0.2,0,0.4,0,0.6,0.1s0.3,0.2,0.4,0.3c0,0.1,0.1,0.3,0.1,0.4c0,0.3-0.1,0.5-0.2,0.6s-0.2,0.2-0.3,0.2
			s-0.1,0-0.2,0s-0.1-0.1-0.2-0.1s-0.1-0.1-0.2-0.1c-0.2-0.1-0.4-0.2-0.6-0.2c-0.3,0-0.6,0.2-0.9,0.5s-0.4,0.6-0.4,0.9v2.4
			c0,0.6,0,1,0.1,1.2c0,0.1,0.2,0.1,0.6,0.2s0.6,0.1,0.8,0.1c0,0,0,0.1,0.1,0.2s0,0.2-0.1,0.2c-1.1-0.1-1.7-0.1-1.9-0.1
			c-0.1,0-0.7,0-1.7,0.1c0,0-0.1-0.1-0.1-0.2s0-0.2,0.1-0.2c0.2,0,0.3,0,0.6-0.1c0.2,0,0.4-0.1,0.4-0.2c0-0.1,0.1-0.5,0.1-1.2v-2.9
			c0-0.4,0-0.7-0.1-0.8c0-0.1-0.1-0.1-0.3-0.2s-0.3-0.1-0.4-0.1s-0.2,0-0.3,0c0,0,0-0.1,0-0.2s0-0.2,0-0.2c0.9-0.1,1.6-0.3,2.2-0.7
			c0,0,0.1,0,0.1,0.1s0.1,0.1,0.1,0.2c0,0.1,0,0.3-0.1,0.7s0,0.7,0,0.7l0,0l0,0l0,0c0.2-0.4,0.4-0.8,0.8-1.1
			S131.3,128.3,131.7,128.3z"/>
		<path d="M134.6,131.2c0,1,0.2,1.7,0.7,2.2s1.1,0.8,1.8,0.8c0.4,0,0.7-0.1,1-0.3s0.5-0.4,0.7-0.6l0,0c0,0,0,0,0.1,0.1s0,0.1,0,0.1
			c0,0.1,0,0.2-0.1,0.3s-0.2,0.3-0.3,0.4s-0.3,0.3-0.5,0.4s-0.4,0.3-0.7,0.4s-0.5,0.1-0.8,0.1c-0.9,0-1.7-0.3-2.2-0.9
			s-0.9-1.4-0.9-2.3c0-0.5,0.1-1,0.3-1.5s0.4-0.9,0.7-1.2s0.6-0.6,1-0.8s0.7-0.3,1.1-0.3c0.4,0,0.7,0.1,1,0.2s0.5,0.2,0.7,0.4
			s0.3,0.3,0.4,0.5s0.2,0.4,0.2,0.6s0.1,0.3,0.1,0.5s0,0.4-0.1,0.5s-0.2,0.2-0.3,0.2c-0.2,0-0.9,0-2,0.1S134.7,131.2,134.6,131.2z
			 M134.7,130.7h2.5c0.2,0,0.3-0.1,0.4-0.4c0-0.1,0-0.2-0.1-0.4s-0.1-0.3-0.2-0.5s-0.2-0.3-0.4-0.4s-0.4-0.2-0.6-0.2
			c-0.2,0-0.5,0.1-0.7,0.2s-0.4,0.3-0.5,0.5s-0.2,0.4-0.3,0.5s-0.1,0.3-0.2,0.5S134.6,130.7,134.7,130.7z"/>
		<path d="M141.2,133.2c0.1,0,0.3,0,0.4,0.1c0.2,0.3,0.3,0.7,0.3,1.1c0,0.4-0.2,1-0.6,1.6s-0.8,1.1-1.2,1.3c-0.1,0-0.1,0-0.2-0.1
			s-0.1-0.2-0.1-0.2c0.1-0.1,0.2-0.2,0.3-0.2s0.2-0.2,0.3-0.3s0.2-0.3,0.3-0.5s0.1-0.4,0.1-0.6c0-0.2-0.1-0.4-0.3-0.6
			s-0.3-0.5-0.3-0.7s0.1-0.4,0.3-0.5S141,133.2,141.2,133.2z"/>
		<path d="M150.4,128.3c0.2,0,0.5,0,0.9,0.1s0.6,0.1,0.7,0.1c0.1,0.5,0.2,1,0.2,1.7c0,0.1-0.1,0.1-0.2,0.1c-0.1,0-0.2,0-0.3-0.1
			c-0.1-0.3-0.3-0.7-0.5-1s-0.5-0.5-0.8-0.5c-0.4,0-0.6,0.1-0.8,0.3s-0.3,0.4-0.3,0.7c0,0.1,0,0.3,0.1,0.4s0.1,0.2,0.1,0.3
			s0.1,0.2,0.2,0.2s0.2,0.2,0.3,0.2s0.2,0.1,0.3,0.2s0.3,0.2,0.3,0.2s0.2,0.1,0.3,0.2s0.3,0.2,0.4,0.2s0.2,0.1,0.3,0.2
			s0.3,0.2,0.3,0.3s0.2,0.2,0.2,0.3s0.1,0.2,0.2,0.4s0.1,0.3,0.1,0.4c0,0.6-0.2,1.1-0.7,1.5s-1,0.6-1.7,0.6c-0.2,0-0.4,0-0.6,0
			s-0.4-0.1-0.6-0.1s-0.4-0.1-0.6-0.1c-0.1-0.2-0.1-0.4-0.2-0.8s-0.1-0.6-0.1-0.8c0.1-0.1,0.2-0.1,0.3-0.1s0.1,0,0.1,0
			c0.1,0.4,0.3,0.7,0.6,1s0.7,0.5,1.1,0.5c0.3,0,0.6-0.1,0.8-0.3s0.3-0.5,0.3-0.8c0-0.2,0-0.3-0.1-0.5s-0.2-0.3-0.3-0.4
			s-0.3-0.2-0.4-0.3s-0.3-0.2-0.5-0.3s-0.4-0.2-0.5-0.3c-0.4-0.2-0.7-0.4-0.9-0.7s-0.3-0.6-0.3-1c0-0.6,0.2-1,0.7-1.4
			S149.8,128.3,150.4,128.3z"/>
		<path d="M158.2,128.3c0.3,0,0.6,0,0.9,0.1s0.4,0.2,0.6,0.4s0.3,0.4,0.4,0.7s0.1,0.6,0.2,0.9s0,0.7,0,1.2v1.7c0,0.6,0,1,0.1,1.2
			c0,0.1,0.2,0.1,0.4,0.2s0.4,0.1,0.6,0.1c0,0,0,0.1,0.1,0.2s0,0.2-0.1,0.2c-1.1-0.1-1.6-0.1-1.7-0.1c-0.2,0-0.4,0-0.5,0
			s-0.4,0-0.6,0s-0.4,0-0.5,0c0,0-0.1-0.1-0.1-0.2s0-0.2,0.1-0.2c0.2,0,0.3,0,0.6-0.1s0.4-0.1,0.4-0.2c0.1-0.2,0.1-0.6,0.1-1.2v-1.6
			c0-1-0.1-1.7-0.3-2s-0.6-0.5-1.2-0.5c-0.2,0-0.4,0.1-0.6,0.2s-0.4,0.3-0.6,0.4S156,130,156,130v3.3c0,0.6,0,1,0.1,1.2
			c0,0.1,0.2,0.1,0.4,0.2s0.4,0.1,0.6,0.1c0,0,0,0.1,0.1,0.2s0,0.2-0.1,0.2c-1.1-0.1-1.6-0.1-1.7-0.1c-0.2,0-0.4,0-0.5,0
			s-0.4,0-0.6,0s-0.4,0-0.5,0c0,0-0.1-0.1-0.1-0.2s0-0.2,0.1-0.2c0.2,0,0.3,0,0.6-0.1s0.4-0.1,0.4-0.2c0.1-0.2,0.1-0.6,0.1-1.2v-2.8
			c0-0.5,0-0.8-0.1-0.9c0-0.1-0.1-0.1-0.3-0.2s-0.3-0.1-0.4-0.1s-0.2,0-0.3,0c0,0,0-0.1,0-0.2s0-0.2,0-0.2c0.9-0.1,1.6-0.3,2.2-0.7
			c0,0,0.1,0,0.1,0.1s0.1,0.1,0.1,0.2c-0.1,0.4-0.1,0.7-0.1,0.9v0.1l0,0c0.2-0.2,0.5-0.5,1-0.7S157.9,128.3,158.2,128.3z"/>
		<path d="M165.2,128.3c0.5,0,0.9,0.2,1.2,0.6s0.5,0.9,0.5,1.5v3.2c0,0.5,0.2,0.7,0.5,0.7h0.1h0.1h0.1h0.1c0,0,0,0,0.1,0s0,0,0,0
			s0.1,0,0.1,0.1s0,0.2-0.1,0.3s-0.3,0.2-0.6,0.4s-0.5,0.2-0.6,0.2c-0.2,0-0.4-0.1-0.6-0.3s-0.3-0.4-0.4-0.7
			c-0.2,0.2-0.4,0.4-0.9,0.6s-0.8,0.4-1,0.4c-0.5,0-0.9-0.2-1.3-0.5s-0.5-0.8-0.5-1.3c0-0.3,0.1-0.6,0.2-0.8s0.3-0.4,0.5-0.5
			s0.5-0.2,0.9-0.3s0.8-0.3,1.1-0.4s0.5-0.2,0.7-0.3c0.1,0,0.1-0.1,0.2-0.1s0-0.1,0-0.3v-0.4c0-0.4-0.1-0.7-0.4-1s-0.6-0.5-0.9-0.5
			c-0.3,0-0.5,0.1-0.6,0.2s-0.2,0.4-0.3,0.7c-0.1,0.5-0.3,0.8-0.7,0.8c-0.2,0-0.3-0.1-0.4-0.2s-0.1-0.3-0.1-0.5c0,0,0-0.1,0-0.2
			s0-0.1,0.1-0.2c0.3-0.3,0.8-0.6,1.3-0.9S164.7,128.3,165.2,128.3z M164.4,134.4c0.3,0,0.5-0.1,0.9-0.3s0.5-0.3,0.5-0.4v-2.1
			c-0.8,0.2-1.3,0.4-1.5,0.5c-0.3,0.1-0.5,0.3-0.7,0.5s-0.3,0.5-0.3,0.7c0,0.3,0.1,0.5,0.3,0.8S164.1,134.4,164.4,134.4z"/>
		<path d="M170.8,133.3c0,0.6,0,1,0.1,1.2c0,0.1,0.2,0.1,0.4,0.2s0.4,0.1,0.6,0.1c0,0,0,0.1,0.1,0.2s0,0.2-0.1,0.2
			c-1.1-0.1-1.6-0.1-1.7-0.1c-0.2,0-0.4,0-0.5,0s-0.4,0-0.6,0s-0.4,0-0.5,0c0,0-0.1-0.1-0.1-0.2s0-0.2,0.1-0.2c0.2,0,0.3,0,0.6-0.1
			s0.4-0.1,0.4-0.2c0.1-0.2,0.1-0.6,0.1-1.2v-6.9c0-0.4,0-0.7-0.1-0.8c-0.1-0.2-0.4-0.3-1-0.3c0,0,0,0,0-0.1s0-0.1,0-0.2
			s0-0.1,0-0.1c0.7-0.1,1.5-0.3,2.2-0.6c0,0,0.1,0,0.1,0.1s0.1,0.1,0.1,0.2c-0.1,0.3-0.2,0.8-0.2,1.4v5.6c0.2-0.1,0.6-0.4,1.3-1
			c0.1-0.1,0.3-0.2,0.5-0.4s0.3-0.3,0.4-0.3s0.2-0.2,0.3-0.2s0.2-0.2,0.2-0.2l0.1-0.1v-0.1c0,0-0.1,0-0.1-0.1s-0.1,0-0.1,0h-0.1
			h-0.1h-0.1H173c0-0.1-0.1-0.1,0-0.3s0-0.2,0.1-0.2c0.5,0.1,1,0.1,1.5,0.1s1,0,1.4-0.1c0,0,0,0.1,0,0.2s0,0.2,0,0.2
			c-0.1,0-0.3,0-0.6,0.1s-0.5,0.2-0.6,0.3c-1.2,0.8-2,1.5-2.5,1.9c0.3,0.3,0.7,0.7,1.1,1.2s0.8,0.9,1.1,1.2s0.5,0.5,0.6,0.6
			c0.2,0.2,0.4,0.3,0.7,0.3s0.5,0.1,0.8,0.1c0,0,0,0.1,0,0.2s0,0.2,0,0.2c-0.1,0.1-0.5,0.1-1,0.1c-0.4,0-0.8-0.1-1.2-0.2
			s-0.6-0.3-0.8-0.5c-0.9-1-1.6-1.8-2.2-2.4c0,0,0,0-0.1-0.1l-0.1-0.1l0,0v1.4H170.8z"/>
		<path d="M177.3,131.2c0,1,0.2,1.7,0.7,2.2s1.1,0.8,1.8,0.8c0.4,0,0.7-0.1,1-0.3s0.5-0.4,0.7-0.6l0,0c0,0,0,0,0.1,0.1s0,0.1,0,0.1
			c0,0.1,0,0.2-0.1,0.3s-0.2,0.3-0.3,0.4s-0.3,0.3-0.5,0.4s-0.4,0.3-0.7,0.4s-0.5,0.1-0.8,0.1c-0.9,0-1.7-0.3-2.2-0.9
			s-0.9-1.4-0.9-2.3c0-0.5,0.1-1,0.3-1.5s0.4-0.9,0.7-1.2s0.6-0.6,1-0.8s0.7-0.3,1.1-0.3c0.4,0,0.7,0.1,1,0.2s0.5,0.2,0.7,0.4
			s0.3,0.3,0.4,0.5s0.2,0.4,0.2,0.6s0.1,0.3,0.1,0.5s0,0.4-0.1,0.5s-0.2,0.2-0.3,0.2c-0.2,0-0.9,0-2,0.1S177.5,131.2,177.3,131.2z
			 M177.4,130.7h2.5c0.2,0,0.3-0.1,0.4-0.4c0-0.1,0-0.2-0.1-0.4s-0.1-0.3-0.2-0.5s-0.2-0.3-0.4-0.4s-0.4-0.2-0.6-0.2
			c-0.2,0-0.5,0.1-0.7,0.2s-0.4,0.3-0.5,0.5s-0.2,0.4-0.3,0.5s-0.1,0.3-0.2,0.5S177.4,130.7,177.4,130.7z"/>
		<path d="M185.4,128.3c0.2,0,0.5,0,0.9,0.1s0.6,0.1,0.7,0.1c0.1,0.5,0.2,1,0.2,1.7c0,0.1-0.1,0.1-0.2,0.1c-0.1,0-0.2,0-0.3-0.1
			c-0.1-0.3-0.3-0.7-0.5-1s-0.5-0.5-0.8-0.5c-0.4,0-0.6,0.1-0.8,0.3s-0.3,0.4-0.3,0.7c0,0.1,0,0.3,0.1,0.4s0.1,0.2,0.1,0.3
			s0.1,0.2,0.2,0.2s0.2,0.2,0.3,0.2s0.2,0.1,0.3,0.2s0.3,0.2,0.3,0.2s0.2,0.1,0.3,0.2s0.3,0.2,0.4,0.2s0.2,0.1,0.3,0.2
			s0.3,0.2,0.3,0.3s0.2,0.2,0.2,0.3s0.1,0.2,0.2,0.4s0.1,0.3,0.1,0.4c0,0.6-0.2,1.1-0.7,1.5s-1,0.6-1.7,0.6c-0.2,0-0.4,0-0.6,0
			s-0.4-0.1-0.6-0.1s-0.4-0.1-0.6-0.1c-0.1-0.2-0.1-0.4-0.2-0.8s-0.1-0.6-0.1-0.8c0.1-0.1,0.2-0.1,0.3-0.1s0.1,0,0.1,0
			c0.1,0.4,0.3,0.7,0.6,1s0.7,0.5,1.1,0.5c0.3,0,0.6-0.1,0.8-0.3s0.3-0.5,0.3-0.8c0-0.2,0-0.3-0.1-0.5s-0.2-0.3-0.3-0.4
			s-0.3-0.2-0.4-0.3s-0.3-0.2-0.5-0.3s-0.4-0.2-0.5-0.3c-0.4-0.2-0.7-0.4-0.9-0.7s-0.3-0.6-0.3-1c0-0.6,0.2-1,0.7-1.4
			S184.8,128.3,185.4,128.3z"/>
		<path d="M189.8,133.2c0.1,0,0.3,0,0.4,0.1c0.2,0.3,0.3,0.7,0.3,1.1c0,0.4-0.2,1-0.6,1.6s-0.8,1.1-1.2,1.3c-0.1,0-0.1,0-0.2-0.1
			s-0.1-0.2-0.1-0.2c0.1-0.1,0.2-0.2,0.3-0.2s0.2-0.2,0.3-0.3s0.2-0.3,0.3-0.5s0.1-0.4,0.1-0.6c0-0.2-0.1-0.4-0.3-0.6
			s-0.3-0.5-0.3-0.7s0.1-0.4,0.3-0.5S189.5,133.2,189.8,133.2z"/>
		<path d="M120.2,144.4h2c0.1,0,0.1,0.1,0.1,0.2c0,0.2-0.1,0.3-0.2,0.5h-1.9v4.1c0,0.9,0.3,1.3,1,1.3c0.3,0,0.7-0.1,1-0.4v0.1
			c0,0.1,0,0.2-0.1,0.2c-0.1,0.1-0.2,0.2-0.3,0.3s-0.3,0.2-0.6,0.3s-0.5,0.2-0.7,0.2s-0.4,0-0.6-0.1s-0.4-0.1-0.5-0.3
			s-0.3-0.3-0.4-0.5s-0.1-0.5-0.1-0.8V145H118c-0.1,0-0.1,0-0.1-0.1c0,0,0.1-0.1,0.2-0.2s0.2-0.2,0.2-0.3h0.6v-1
			c0.1-0.1,0.2-0.2,0.4-0.4s0.3-0.3,0.4-0.4s0.2-0.2,0.2-0.2s0.1,0,0.1-0.1s0.1,0,0.1,0l0,0v2.1H120.2z"/>
		<path d="M124.3,147.2c0,1,0.2,1.7,0.7,2.2s1.1,0.8,1.8,0.8c0.4,0,0.7-0.1,1-0.3s0.5-0.4,0.7-0.6l0,0c0,0,0,0,0.1,0.1s0,0.1,0,0.1
			c0,0.1,0,0.2-0.1,0.3s-0.2,0.3-0.3,0.4s-0.3,0.3-0.5,0.4s-0.4,0.3-0.7,0.4s-0.5,0.1-0.8,0.1c-0.9,0-1.7-0.3-2.2-0.9
			s-0.9-1.4-0.9-2.3c0-0.5,0.1-1,0.3-1.5s0.4-0.9,0.7-1.2s0.6-0.6,1-0.8s0.7-0.3,1.1-0.3s0.7,0.1,1,0.2s0.5,0.2,0.7,0.4
			s0.3,0.3,0.4,0.5s0.2,0.4,0.2,0.6s0.1,0.3,0.1,0.5s0,0.4-0.1,0.5s-0.2,0.2-0.3,0.2c-0.2,0-0.9,0-2,0.1S124.4,147.2,124.3,147.2z
			 M124.4,146.7h2.5c0.2,0,0.3-0.1,0.4-0.4c0-0.1,0-0.2-0.1-0.4s-0.1-0.3-0.2-0.5s-0.2-0.3-0.4-0.4s-0.4-0.2-0.6-0.2
			s-0.5,0.1-0.7,0.2s-0.4,0.3-0.5,0.5s-0.2,0.4-0.3,0.5s-0.1,0.3-0.2,0.5S124.3,146.7,124.4,146.7z"/>
		<path d="M131,147.2c0,1,0.2,1.7,0.7,2.2s1.1,0.8,1.8,0.8c0.4,0,0.7-0.1,1-0.3s0.5-0.4,0.7-0.6l0,0c0,0,0,0,0.1,0.1s0,0.1,0,0.1
			c0,0.1,0,0.2-0.1,0.3s-0.2,0.3-0.3,0.4s-0.3,0.3-0.5,0.4s-0.4,0.3-0.7,0.4s-0.5,0.1-0.8,0.1c-0.9,0-1.7-0.3-2.2-0.9
			s-0.9-1.4-0.9-2.3c0-0.5,0.1-1,0.3-1.5s0.4-0.9,0.7-1.2s0.6-0.6,1-0.8s0.7-0.3,1.1-0.3c0.4,0,0.7,0.1,1,0.2s0.5,0.2,0.7,0.4
			s0.3,0.3,0.4,0.5s0.2,0.4,0.2,0.6s0.1,0.3,0.1,0.5s0,0.4-0.1,0.5s-0.2,0.2-0.3,0.2c-0.2,0-0.9,0-2,0.1S131.1,147.2,131,147.2z
			 M131.1,146.7h2.5c0.2,0,0.3-0.1,0.4-0.4c0-0.1,0-0.2-0.1-0.4s-0.1-0.3-0.2-0.5s-0.2-0.3-0.4-0.4s-0.4-0.2-0.6-0.2
			c-0.2,0-0.5,0.1-0.7,0.2s-0.4,0.3-0.5,0.5s-0.2,0.4-0.3,0.5s-0.1,0.3-0.2,0.5S131.1,146.7,131.1,146.7z"/>
		<path d="M138.5,144.4h2c0.1,0,0.1,0.1,0.1,0.2c0,0.2-0.1,0.3-0.2,0.5h-1.9v4.1c0,0.9,0.3,1.3,1,1.3c0.3,0,0.7-0.1,1-0.4v0.1
			c0,0.1,0,0.2-0.1,0.2c-0.1,0.1-0.2,0.2-0.3,0.3s-0.3,0.2-0.6,0.3s-0.5,0.2-0.7,0.2s-0.4,0-0.6-0.1s-0.4-0.1-0.5-0.3
			s-0.3-0.3-0.4-0.5s-0.1-0.5-0.1-0.8V145h-0.9c-0.1,0-0.1,0-0.1-0.1c0,0,0.1-0.1,0.2-0.2s0.2-0.2,0.2-0.3h0.6v-1
			c0.1-0.1,0.2-0.2,0.4-0.4s0.3-0.3,0.4-0.4s0.2-0.2,0.2-0.2s0.1,0,0.1-0.1s0.1,0,0.1,0l0,0v2.1H138.5z"/>
		<path d="M145.6,144.3c0.3,0,0.6,0,0.9,0.1s0.4,0.2,0.6,0.4s0.3,0.4,0.4,0.7s0.1,0.6,0.2,0.9s0,0.7,0,1.2v1.7c0,0.6,0,1,0.1,1.2
			c0,0.1,0.2,0.1,0.4,0.2s0.4,0.1,0.6,0.1c0,0,0,0.1,0.1,0.2s0,0.2-0.1,0.2c-1.1-0.1-1.6-0.1-1.7-0.1c-0.2,0-0.4,0-0.5,0
			s-0.4,0-0.6,0s-0.4,0-0.5,0c0,0-0.1-0.1-0.1-0.2s0-0.2,0.1-0.2c0.2,0,0.3,0,0.6-0.1s0.4-0.1,0.4-0.2c0.1-0.2,0.1-0.6,0.1-1.2v-1.6
			c0-1-0.1-1.7-0.3-2s-0.6-0.5-1.2-0.5c-0.2,0-0.4,0.1-0.6,0.2s-0.4,0.3-0.6,0.4s-0.2,0.2-0.2,0.3v3.3c0,0.6,0,1,0.1,1.2
			c0,0.1,0.2,0.1,0.4,0.2s0.4,0.1,0.6,0.1c0,0,0,0.1,0.1,0.2s0,0.2-0.1,0.2c-1.1-0.1-1.6-0.1-1.7-0.1c-0.2,0-0.4,0-0.5,0
			s-0.4,0-0.6,0s-0.4,0-0.5,0c0,0-0.1-0.1-0.1-0.2s0-0.2,0.1-0.2c0.2,0,0.3,0,0.6-0.1s0.4-0.1,0.4-0.2c0.1-0.2,0.1-0.6,0.1-1.2v-6.9
			c0-0.4,0-0.7-0.1-0.8c-0.1-0.2-0.4-0.3-1-0.3c0,0,0,0,0-0.1s0-0.1,0-0.2s0-0.1,0-0.1c0.7-0.1,1.5-0.3,2.2-0.6c0,0,0.1,0,0.1,0.1
			s0.1,0.1,0.1,0.2c-0.1,0.3-0.2,0.8-0.2,1.4v3.5l0,0l0,0c0.2-0.2,0.5-0.5,1-0.7S145.3,144.3,145.6,144.3z"/>
		<path d="M150.6,149.2c0.1,0,0.3,0,0.4,0.1c0.2,0.3,0.3,0.7,0.3,1.1c0,0.4-0.2,1-0.6,1.6s-0.8,1.1-1.2,1.3c-0.1,0-0.1,0-0.2-0.1
			s-0.1-0.2-0.1-0.2c0.1-0.1,0.2-0.2,0.3-0.2s0.2-0.2,0.3-0.3s0.2-0.3,0.3-0.5s0.1-0.4,0.1-0.6c0-0.2-0.1-0.4-0.3-0.6
			s-0.3-0.5-0.3-0.7s0.1-0.4,0.3-0.5S150.3,149.2,150.6,149.2z"/>
		<path d="M158.3,144.5c0.2,0,0.3,0,0.5,0s0.3,0,0.5,0s0.4,0,0.5,0c0,0,0,0.1,0,0.2s0,0.2-0.1,0.2s-0.2,0-0.3,0s-0.2,0-0.3,0.1
			s-0.2,0.1-0.2,0.2c0,0,0,0.1,0.1,0.2c0.1,0.3,0.6,1.6,1.6,3.8c0.1-0.3,0.3-0.7,0.4-1.1s0.3-0.7,0.4-0.9s0.2-0.4,0.2-0.6
			s0.1-0.4,0.2-0.5s0.1-0.2,0.1-0.2c0-0.1,0-0.2-0.1-0.4s-0.2-0.3-0.3-0.5s-0.4-0.3-0.7-0.3c0,0-0.1-0.1-0.1-0.2s0-0.2,0.1-0.2
			s0.3,0,0.6,0s0.6,0,0.8,0c0,0,0.6,0,1.6-0.1c0,0.1,0,0.1,0,0.2s0,0.2,0,0.2c-0.5,0-0.8,0.2-0.8,0.5c0,0,0,0.1,0,0.2
			c0,0.1,0.1,0.2,0.1,0.3s0.1,0.3,0.2,0.5s0.2,0.5,0.3,0.7s0.2,0.6,0.4,1s0.3,0.8,0.5,1.2c0.8-1.9,1.2-3.1,1.4-3.5
			c0.1-0.2,0.1-0.3,0.1-0.4c0-0.1,0-0.2-0.1-0.3s-0.1-0.1-0.3-0.2s-0.2-0.1-0.3-0.1s-0.2,0-0.3,0c0,0,0-0.1-0.1-0.2s0-0.2,0.1-0.2
			s0.3,0,0.6,0s0.5,0,0.8,0c0.2,0,0.3,0,0.5,0s0.3,0,0.5,0s0.3,0,0.5,0c0,0,0,0.1,0,0.2s0,0.2-0.1,0.2s-0.3,0-0.6,0.1
			s-0.4,0.2-0.5,0.4c-0.9,2.3-1.7,4.2-2.3,5.6c0,0.1-0.1,0.1-0.1,0.2s-0.1,0.1-0.2,0.1c-0.1,0-0.2,0-0.2-0.1l-1.7-4.5l-1.7,4.3
			c0,0-0.1,0.1-0.1,0.2s-0.2,0.1-0.2,0.1s-0.1,0-0.1-0.1c-0.9-2.2-1.7-4.2-2.5-6c-0.1-0.2-0.4-0.3-0.8-0.3c0,0,0-0.1,0-0.2
			s0-0.2,0-0.2c0.2,0,0.3,0,0.5,0s0.4,0,0.5,0S158.1,144.5,158.3,144.5z"/>
		<path d="M171.6,144.3c0.5,0,0.9,0.2,1.2,0.6s0.5,0.9,0.5,1.5v3.2c0,0.5,0.2,0.7,0.5,0.7h0.1h0.1h0.1h0.1c0,0,0,0,0.1,0s0,0,0,0
			s0.1,0,0.1,0.1s0,0.2-0.1,0.3s-0.3,0.2-0.6,0.4s-0.5,0.2-0.6,0.2c-0.2,0-0.4-0.1-0.6-0.3s-0.3-0.4-0.4-0.7
			c-0.2,0.2-0.4,0.4-0.9,0.6s-0.8,0.4-1,0.4c-0.5,0-0.9-0.2-1.3-0.5s-0.5-0.8-0.5-1.3c0-0.3,0.1-0.6,0.2-0.8s0.3-0.4,0.5-0.5
			s0.5-0.2,0.9-0.3s0.8-0.3,1.1-0.4s0.5-0.2,0.7-0.3c0.1,0,0.1-0.1,0.2-0.1s0-0.1,0-0.3v-0.4c0-0.4-0.1-0.7-0.4-1s-0.6-0.5-0.9-0.5
			c-0.3,0-0.5,0.1-0.6,0.2s-0.2,0.4-0.3,0.7c-0.1,0.5-0.3,0.8-0.7,0.8c-0.2,0-0.3-0.1-0.4-0.2s-0.1-0.3-0.1-0.5c0,0,0-0.1,0-0.2
			s0-0.1,0.1-0.2c0.3-0.3,0.8-0.6,1.3-0.9S171.1,144.3,171.6,144.3z M170.8,150.4c0.3,0,0.5-0.1,0.9-0.3s0.5-0.3,0.5-0.4v-2.1
			c-0.8,0.2-1.3,0.4-1.5,0.5c-0.3,0.1-0.5,0.3-0.7,0.5s-0.3,0.5-0.3,0.7c0,0.3,0.1,0.5,0.3,0.8S170.5,150.4,170.8,150.4z"/>
		<path d="M177.1,144.4h2c0.1,0,0.1,0.1,0.1,0.2c0,0.2-0.1,0.3-0.2,0.5h-1.9v4.1c0,0.9,0.3,1.3,1,1.3c0.3,0,0.7-0.1,1-0.4v0.1
			c0,0.1,0,0.2-0.1,0.2c-0.1,0.1-0.2,0.2-0.3,0.3s-0.3,0.2-0.6,0.3s-0.5,0.2-0.7,0.2s-0.4,0-0.6-0.1s-0.4-0.1-0.5-0.3
			s-0.3-0.3-0.4-0.5s-0.1-0.5-0.1-0.8V145H175c-0.1,0-0.1,0-0.1-0.1c0,0,0.1-0.1,0.2-0.2s0.2-0.2,0.2-0.3h0.6v-1
			c0.1-0.1,0.2-0.2,0.4-0.4s0.3-0.3,0.4-0.4s0.2-0.2,0.2-0.2s0.1,0,0.1-0.1s0.1,0,0.1,0l0,0L177.1,144.4L177.1,144.4z"/>
		<path d="M181.2,147.2c0,1,0.2,1.7,0.7,2.2s1.1,0.8,1.8,0.8c0.4,0,0.7-0.1,1-0.3s0.5-0.4,0.7-0.6l0,0c0,0,0,0,0.1,0.1s0,0.1,0,0.1
			c0,0.1,0,0.2-0.1,0.3s-0.2,0.3-0.3,0.4s-0.3,0.3-0.5,0.4s-0.4,0.3-0.7,0.4s-0.5,0.1-0.8,0.1c-0.9,0-1.7-0.3-2.2-0.9
			s-0.9-1.4-0.9-2.3c0-0.5,0.1-1,0.3-1.5s0.4-0.9,0.7-1.2s0.6-0.6,1-0.8s0.7-0.3,1.1-0.3c0.4,0,0.7,0.1,1,0.2s0.5,0.2,0.7,0.4
			s0.3,0.3,0.4,0.5s0.2,0.4,0.2,0.6s0.1,0.3,0.1,0.5s0,0.4-0.1,0.5s-0.2,0.2-0.3,0.2c-0.2,0-0.9,0-2,0.1S181.3,147.2,181.2,147.2z
			 M181.3,146.7h2.5c0.2,0,0.3-0.1,0.4-0.4c0-0.1,0-0.2-0.1-0.4s-0.1-0.3-0.2-0.5s-0.2-0.3-0.4-0.4s-0.4-0.2-0.6-0.2
			c-0.2,0-0.5,0.1-0.7,0.2s-0.4,0.3-0.5,0.5s-0.2,0.4-0.3,0.5s-0.1,0.3-0.2,0.5S181.3,146.7,181.3,146.7z"/>
		<path d="M190.9,144.3c0.2,0,0.4,0,0.6,0.1s0.3,0.2,0.4,0.3c0,0.1,0.1,0.3,0.1,0.4c0,0.3-0.1,0.5-0.2,0.6s-0.2,0.2-0.3,0.2
			s-0.1,0-0.2,0s-0.1-0.1-0.2-0.1s-0.1-0.1-0.2-0.1c-0.2-0.1-0.4-0.2-0.6-0.2c-0.3,0-0.6,0.2-0.9,0.5s-0.4,0.6-0.4,0.9v2.4
			c0,0.6,0,1,0.1,1.2c0,0.1,0.2,0.1,0.6,0.2s0.6,0.1,0.8,0.1c0,0,0,0.1,0.1,0.2s0,0.2-0.1,0.2c-1.1-0.1-1.7-0.1-1.9-0.1
			c-0.1,0-0.7,0-1.8,0.1c0,0-0.1-0.1-0.1-0.2s0-0.2,0.1-0.2c0.2,0,0.3,0,0.6-0.1s0.4-0.1,0.4-0.2c0-0.1,0.1-0.5,0.1-1.2v-2.9
			c0-0.4,0-0.7-0.1-0.8c0-0.1-0.1-0.1-0.3-0.2s-0.3-0.1-0.4-0.1s-0.2,0-0.3,0c0,0,0-0.1,0-0.2s0-0.2,0-0.2c0.9-0.1,1.6-0.3,2.2-0.7
			c0,0,0.1,0,0.1,0.1s0.1,0.1,0.1,0.2c0,0.1,0,0.3-0.1,0.7s0,0.7,0,0.7l0,0l0,0l0,0c0.2-0.4,0.4-0.8,0.8-1.1
			S190.6,144.3,190.9,144.3z"/>
	</g>
</g>
</svg>
