<?xml version="1.0" encoding="utf-8"?>
<!-- Generator: Adobe Illustrator 21.1.0, SVG Export Plug-In . SVG Version: 6.00 Build 0)  -->
<svg version="1.1" id="Layer_1" xmlns="http://www.w3.org/2000/svg" xmlns:xlink="http://www.w3.org/1999/xlink" x="0px" y="0px"
	 viewBox="0 0 24.7 24.7" style="enable-background:new 0 0 24.7 24.7;" xml:space="preserve">
<style type="text/css">
	.st0{fill:#404896;}
	.st1{fill:#3F4696;}
</style>
<path class="st0" d="M9,20.7l-1.6-1.7l6.7-6.6L7.4,5.6L9,3.9l8.4,8.4L9,20.7z"/>
<path class="st1" d="M12.3,24.7C5.5,24.7,0,19.2,0,12.4C0,5.5,5.5,0,12.3,0s12.3,5.5,12.3,12.4C24.7,19.2,19.2,24.7,12.3,24.7z
	 M12.3,1.6C6.4,1.6,1.6,6.4,1.6,12.4s4.8,10.8,10.8,10.8c5.9,0,10.8-4.8,10.8-10.8S18.3,1.6,12.3,1.6z"/>
</svg>
