<?xml version="1.0" encoding="utf-8"?>
<!-- Generator: Adobe Illustrator 21.1.0, SVG Export Plug-In . SVG Version: 6.00 Build 0)  -->
<svg version="1.1" id="Layer_1" xmlns="http://www.w3.org/2000/svg" xmlns:xlink="http://www.w3.org/1999/xlink" x="0px" y="0px"
	 viewBox="0 0 24.7 24.7" style="enable-background:new 0 0 24.7 24.7;" xml:space="preserve">
<style type="text/css">
	.st0{fill:#404896;}
	.st1{fill:#3F4696;}
</style>
<path class="st0" d="M20.3,15.6l-1.7,1.6l-6.3-6.4l-6.4,6.4l-1.6-1.6l8-8L20.3,15.6z"/>
<path class="st1" d="M0.1,12.4C0.1,5.5,5.6,0,12.4,0s12.3,5.5,12.3,12.4c0,6.8-5.5,12.3-12.3,12.3C5.5,24.7,0,19.2,0.1,12.4z
	 M1.5,12.4c0,6,4.9,10.8,10.8,10.8c6,0,10.8-4.8,10.8-10.8S18.3,1.6,12.4,1.6C6.4,1.6,1.5,6.4,1.5,12.4z"/>
</svg>
