<?xml version="1.0" encoding="utf-8"?>
<!-- Generator: Adobe Illustrator 21.1.0, SVG Export Plug-In . SVG Version: 6.00 Build 0)  -->
<svg version="1.1" id="Layer_1" xmlns="http://www.w3.org/2000/svg" xmlns:xlink="http://www.w3.org/1999/xlink" x="0px" y="0px"
	 viewBox="0 0 24.7 24.7" style="enable-background:new 0 0 24.7 24.7;" xml:space="preserve">
<style type="text/css">
	.st0{fill:#404896;}
	.st1{fill:#3F4696;}
</style>
<path class="st0" d="M7.4,12.4L15.7,4l1.6,1.6l-6.7,6.7l6.7,6.6l-1.6,1.7L7.4,12.4z"/>
<path class="st1" d="M0,12.4C0,5.5,5.5,0,12.3,0s12.3,5.5,12.3,12.4c0,6.8-5.5,12.3-12.3,12.3C5.4,24.7-0.1,19.2,0,12.4z M1.4,12.4
	c0,6,4.9,10.8,10.8,10.8c6,0,10.8-4.8,10.8-10.8S18.2,1.6,12.3,1.6C6.3,1.6,1.4,6.4,1.4,12.4z"/>
</svg>
