<svg enable-background="new 0 0 39.6 39.6" viewBox="0 0 39.6 39.6" xmlns="http://www.w3.org/2000/svg"><g fill="#43449a"><path d="m19.8 39.6c-10.9 0-19.8-8.9-19.8-19.8s8.9-19.8 19.8-19.8 19.8 8.9 19.8 19.8-8.9 19.8-19.8 19.8zm0-37.6c-9.8 0-17.8 8-17.8 17.8s8 17.8 17.8 17.8 17.8-8 17.8-17.8-8-17.8-17.8-17.8z"/><path d="m16.4 23.3c0-.9.1-1.7.4-2.5.3-.7.9-1.4 1.8-1.9.3-.2.6-.4 1-.6s.8-.5 1.2-.8.7-.6 1-1 .4-.9.4-1.4c0-.4-.1-.7-.2-1s-.3-.5-.6-.8c-.2-.2-.5-.4-.8-.5s-.7-.2-1-.2c-.4 0-.8.1-1.1.2s-.6.3-.9.5-.5.5-.7.7c-.2.3-.4.5-.5.8l-2.4-1.4c.2-.6.6-1.1 1-1.5s.9-.8 1.4-1.1 1.1-.5 1.7-.7 1.2-.2 1.8-.2c.7 0 1.4.1 2.1.3s1.3.5 1.9 1c.5.4 1 1 1.3 1.7s.5 1.5.5 2.5c0 .6-.1 1.1-.2 1.6s-.3.9-.6 1.2c-.3.4-.6.7-.9 1-.4.3-.8.6-1.2.9-.4.2-.7.4-1.1.6s-.7.4-1 .7-.6.5-.8.9c-.2.3-.3.7-.3 1.2h-3.2zm.1 6.5v-3.8h3.1v3.8z"/></g></svg>