<?xml version="1.0" encoding="utf-8"?>
<!-- Generator: Adobe Illustrator 23.0.1, SVG Export Plug-In . SVG Version: 6.00 Build 0)  -->
<svg version="1.1" id="Livello_1" xmlns="http://www.w3.org/2000/svg" xmlns:xlink="http://www.w3.org/1999/xlink" x="0px" y="0px"
	 viewBox="0 0 39.6 39.6" style="enable-background:new 0 0 39.6 39.6;" xml:space="preserve">
<style type="text/css">
	.st0{fill:#43449A;}
</style>
<g>
	<g>
		<path class="st0" d="M19.8,39.6C8.9,39.6,0,30.7,0,19.8C0,8.9,8.9,0,19.8,0s19.8,8.9,19.8,19.8C39.6,30.7,30.7,39.6,19.8,39.6z
			 M19.8,2C10,2,2,10,2,19.8c0,9.8,8,17.8,17.8,17.8c9.8,0,17.8-8,17.8-17.8C37.6,10,29.6,2,19.8,2z"/>
	</g>
	<g>
		<g>
			<path class="st0" d="M16.4,23.3c0-0.9,0.1-1.7,0.4-2.5c0.3-0.7,0.9-1.4,1.8-1.9c0.3-0.2,0.6-0.4,1-0.6c0.4-0.2,0.8-0.5,1.2-0.8
				c0.4-0.3,0.7-0.6,1-1c0.3-0.4,0.4-0.9,0.4-1.4c0-0.4-0.1-0.7-0.2-1c-0.1-0.3-0.3-0.5-0.6-0.8c-0.2-0.2-0.5-0.4-0.8-0.5
				c-0.3-0.1-0.7-0.2-1-0.2c-0.4,0-0.8,0.1-1.1,0.2c-0.3,0.1-0.6,0.3-0.9,0.5c-0.3,0.2-0.5,0.5-0.7,0.7c-0.2,0.3-0.4,0.5-0.5,0.8
				L14,13.4c0.2-0.6,0.6-1.1,1-1.5c0.4-0.4,0.9-0.8,1.4-1.1c0.5-0.3,1.1-0.5,1.7-0.7c0.6-0.2,1.2-0.2,1.8-0.2c0.7,0,1.4,0.1,2.1,0.3
				s1.3,0.5,1.9,1c0.5,0.4,1,1,1.3,1.7c0.3,0.7,0.5,1.5,0.5,2.5c0,0.6-0.1,1.1-0.2,1.6c-0.1,0.5-0.3,0.9-0.6,1.2
				c-0.3,0.4-0.6,0.7-0.9,1c-0.4,0.3-0.8,0.6-1.2,0.9c-0.4,0.2-0.7,0.4-1.1,0.6c-0.4,0.2-0.7,0.4-1,0.7c-0.3,0.3-0.6,0.5-0.8,0.9
				c-0.2,0.3-0.3,0.7-0.3,1.2H16.4z M16.5,29.8V26h3.1v3.8H16.5z"/>
		</g>
	</g>
</g>
</svg>
