<svg enable-background="new 0 0 68.8 53.4" viewBox="0 0 68.8 53.4" xmlns="http://www.w3.org/2000/svg"><g fill="#454897"><path d="m34.4 52.2-14.5-13.1 1.3-1.5 13.2 11.9 13.1-11.9 1.4 1.5z"/><path d="m20.1 4.6v5.9h-1.8v-9.2h1.4l4.8 6.1v-6h1.8v9.2h-1.5z"/><path d="m34.7 8.9v1.6h-6.4v-9.2h6.3v1.6h-4.5v2.1h3.9v1.5h-3.9v2.4z"/><path d="m37 1.3 2.3 3.4 2.3-3.4h1.9l-3.3 4.7 3.2 4.5h-1.9l-2.2-3.3-2.2 3.3h-2l3.2-4.5-3.3-4.7z"/><path d="m51.4 2.8h-3v7.7h-1.8v-7.7h-3v-1.5h7.7v1.5z"/><path d="m4.7 19.8c0-.6.1-1.1.3-1.7s.5-1 .9-1.5c.4-.4.9-.8 1.4-1.1s1.2-.4 1.9-.4c.8 0 1.6.2 2.2.6s1.1.9 1.4 1.5l-1.4.9c-.1-.3-.3-.5-.4-.7-.2-.2-.4-.3-.6-.4s-.4-.2-.6-.2-.4-.1-.6-.1c-.5 0-.8.1-1.2.3-.3.2-.6.4-.8.7s-.4.6-.5 1-.2.7-.2 1.1.1.8.2 1.2.3.7.6 1c.2.3.5.5.9.7.3.2.7.3 1 .3.2 0 .4 0 .7-.1.2-.1.4-.1.6-.2s.4-.3.6-.4c.2-.2.3-.4.4-.6l1.5.8c-.1.3-.4.7-.6.9-.3.3-.6.5-.9.7s-.7.3-1.1.4-.8.1-1.1.1c-.7 0-1.3-.1-1.8-.4s-1-.6-1.4-1.1c-.4-.4-.7-1-.9-1.5-.4-.6-.5-1.2-.5-1.8z"/><path d="m22 15.3v9.2h-1.8v-3.9h-4.2v3.9h-1.8v-9.2h1.8v3.7h4.2v-3.7z"/><path d="m26.5 15.3h1.6l3.5 9.2h-1.8l-.9-2.3h-3.2l-.8 2.3h-1.9zm2.1 5.6-1.3-3.6-1.3 3.6z"/><path d="m32.6 24.5v-9.2h3.9c.4 0 .8.1 1.2.3s.7.4.9.7c.3.3.5.6.6 1s.2.7.2 1.1-.1.8-.2 1.1-.3.7-.6 1-.6.5-.9.7c-.4.2-.7.3-1.2.3h-2.2v3.1h-1.7zm1.8-4.7h2.1c.3 0 .6-.1.8-.4s.3-.6.3-1.1c0-.2 0-.4-.1-.6s-.2-.3-.3-.5c-.1-.1-.2-.2-.4-.3s-.3-.1-.5-.1h-2v3z"/><path d="m47.6 16.8h-3v7.7h-1.8v-7.7h-3v-1.6h7.7v1.6z"/><path d="m55.2 22.9v1.6h-6.4v-9.2h6.3v1.6h-4.5v2.1h3.9v1.5h-3.9v2.4z"/><path d="m56.6 24.5v-9.2h4.1c.4 0 .8.1 1.2.3s.7.4.9.7c.3.3.5.6.6 1s.2.7.2 1.1c0 .6-.2 1.1-.4 1.6-.3.5-.7.8-1.2 1.1l2.1 3.5h-2l-1.9-3.1h-1.8v3.1h-1.8zm1.8-4.7h2.2c.2 0 .3 0 .5-.1.1-.1.3-.2.4-.3s.2-.3.2-.5.1-.4.1-.6 0-.4-.1-.6-.2-.3-.3-.5c-.1-.1-.3-.2-.4-.3-.2-.1-.3-.1-.5-.1h-2.2v3z"/></g></svg>