<svg enable-background="new 0 0 13.4 288.7" viewBox="0 0 13.4 288.7" xmlns="http://www.w3.org/2000/svg"><g fill="#eda1a2"><path d="m10 8.5c.1-.1.2-.2.3-.5.1-.2.3-.5.4-.8s.3-.7.4-1 .1-.8.1-1.1c0-.7-.1-1.2-.4-1.5s-.6-.5-1.1-.5c-.3 0-.5.1-.7.2s-.2.3-.3.5-.2.6-.4.9c-.1.4-.2.8-.3 1.3-.2.6-.3 1.2-.5 1.7s-.5.9-.8 1.3-.6.6-1 .8-.9.3-1.5.3c-.7 0-1.2-.1-1.7-.4-.5-.2-.9-.6-1.2-1-.3-.5-.5-1-.7-1.5-.1-.6-.2-1.2-.2-1.8 0-1 .1-1.9.4-2.8s.8-1.9 1.3-2.6l2.1 1.1c-.1.1-.2.3-.4.6s-.3.6-.5 1-.3.8-.5 1.3c-.1.4-.1.9-.1 1.4 0 1.4.4 2.1 1.3 2.1.3 0 .5-.1.7-.2.2-.2.3-.5.5-.7.1-.3.3-.6.4-1 .1-.5.2-1 .4-1.5.1-.6.3-1.1.5-1.6.2-.4.5-.8.7-1.1.3-.3.6-.5.9-.7.4-.1.8-.2 1.3-.2.6 0 1.2.1 1.7.4.5.2.9.6 1.3 1 .3.4.6.9.8 1.5s.3 1.2.3 1.8c0 .9-.1 1.7-.4 2.5s-.6 1.4-1 2z"/><path d="m13.3 16.1v2.3l-4.2 1.4 4.2 1.4v2.3l-5.8-2.2-4.1 1.7 9.9 3.6v2.7l-12.7-5.2v-2.1l5.4-2.2-5.4-2.2v-2.1l12.8-5.2v2.7l-9.9 3.6 4.1 1.6z"/><path d="m.6 30.6h12.8v2.5h-12.8z"/><path d="m.6 35.8h12.8v5.4c0 .6-.1 1.1-.4 1.6s-.6.9-1 1.3-.9.6-1.4.8-1 .3-1.5.3-1.1-.1-1.6-.3-1-.5-1.4-.8-.7-.8-1-1.3c-.2-.5-.4-1-.4-1.6v-3h-4.1zm6.4 2.5v2.9c0 .5.2.8.6 1.1s.9.5 1.5.5c.3 0 .6 0 .9-.1s.5-.2.7-.4.3-.3.4-.5.1-.4.1-.6v-2.8h-4.2z"/><path d="m2.7 55.9h-2.1v-8.9h12.8v8.7h-2.2v-6.2h-3.1v5.4h-2v-5.4h-3.4z"/><path d="m11.2 71.2v-4.1h-10.6v-2.5h10.6v-4.1h2.2v10.6h-2.2z"/><path d="m.5 77.6c0-.9.2-1.8.5-2.5.4-.8.9-1.4 1.5-2 .6-.5 1.3-1 2.1-1.3s1.6-.5 2.4-.5c.9 0 1.7.2 2.4.5.8.3 1.5.8 2.1 1.3.6.6 1.1 1.2 1.4 2s.5 1.6.5 2.5-.2 1.8-.6 2.5c-.4.8-.9 1.4-1.5 2-.6.5-1.3 1-2.1 1.3s-1.6.5-2.4.5c-.9 0-1.7-.2-2.4-.5-.8-.3-1.5-.7-2.1-1.3s-1.1-1.2-1.4-2c-.2-.7-.4-1.6-.4-2.5zm6.5-3.7c-.6 0-1.1.1-1.6.3s-1 .4-1.4.7-.7.7-1 1.2-.4 1-.4 1.6.1 1.1.4 1.6c.2.5.6.9 1 1.2s.9.6 1.4.7 1 .2 1.6.2 1.1-.1 1.6-.3 1-.4 1.4-.7.7-.7.9-1.2.4-1 .4-1.6-.1-1.1-.4-1.6-.6-.9-1-1.2-.9-.5-1.4-.7c-.5-.1-1-.2-1.5-.2z"/><path d="m7.1 89.3c.8 0 1.6.1 2.3.4.8.3 1.4.7 2 1.2s1.1 1.2 1.5 2 .6 1.7.6 2.7c0 1.2-.3 2.2-.8 3.1s-1.2 1.5-2 1.9l-1.3-1.9c.4-.2.7-.4.9-.6s.4-.5.6-.8c.1-.3.2-.6.3-.9s.1-.6.1-.9c0-.6-.1-1.2-.4-1.6s-.6-.8-1-1.2-.9-.5-1.4-.6c-.5-.2-1-.2-1.5-.2-.6 0-1.1.1-1.6.3s-1 .4-1.4.8c-.4.3-.7.7-1 1.2-.2.5-.4 1-.4 1.5 0 .3 0 .6.1.9s.2.6.3.9c.2.3.4.5.6.8.2.2.5.4.9.6l-1.2 2c-.5-.2-.9-.5-1.3-.9s-.7-.8-.9-1.3c-.3-.5-.4-1-.6-1.5s0-1.2 0-1.7c0-.9.2-1.7.6-2.5s.9-1.4 1.5-2 1.3-1 2.1-1.3c.7-.2 1.5-.4 2.4-.4z"/><path d="m13.4 113.2h-12.8v-2.5h5.4v-5.8h-5.4v-2.5h12.8v2.5h-5.2v5.8h5.2z"/><path d="m13.4 119.5v2.2l-12.8 4.9v-2.6l3.2-1.2v-4.5l-3.2-1.2v-2.6zm-7.9 2.9 5-1.8-5-1.8z"/><path d="m8.8 130.4h-8.2v-2.4h12.8v1.9l-8.4 6.6h8.4v2.5h-12.8v-2z"/><path d="m2 150.6c-1-1-1.5-2.2-1.5-3.6 0-.8.2-1.6.5-2.4.3-.7.8-1.4 1.4-1.9s1.3-1 2.1-1.3 1.7-.5 2.6-.5 1.7.2 2.5.5 1.5.8 2 1.3c.6.6 1 1.2 1.4 2 .3.8.5 1.6.5 2.5 0 1.2-.3 2.2-.8 3.1s-1.2 1.5-2 1.9l-1.4-1.9c.6-.3 1.1-.8 1.5-1.4s.5-1.2.5-1.9c0-.5-.1-1-.3-1.5-.2-.4-.5-.8-.9-1.2-.4-.3-.9-.6-1.4-.7-.5-.2-1.1-.3-1.6-.3-.6 0-1.2.1-1.7.3s-1 .5-1.4.8-.7.7-.9 1.2-.3 1-.3 1.5c0 1.2.6 2.4 1.7 3.3h.9v-2.4h1.8v4.6h-6.6v-2.1h1.4z"/><path d="m2.7 163.6h-2.1v-8.9h12.8v8.7h-2.2v-6.2h-3.1v5.4h-2v-5.4h-3.4z"/><path d="m7.1 169.1c.8 0 1.6.1 2.3.4.8.3 1.4.7 2 1.2s1.1 1.2 1.5 2 .6 1.7.6 2.7c0 1.2-.3 2.2-.8 3.1s-1.2 1.5-2 1.9l-1.3-1.9c.4-.2.7-.4.9-.6s.4-.5.6-.8c.1-.3.2-.6.3-.9s.1-.6.1-.9c0-.6-.1-1.2-.4-1.6-.3-.5-.6-.8-1-1.2-.4-.3-.9-.5-1.4-.7s-1-.2-1.5-.2c-.6 0-1.1.1-1.6.3s-1 .4-1.4.8c-.4.3-.7.7-1 1.2-.2.5-.4 1-.4 1.5 0 .3 0 .6.1.9l.3.9c.2.3.4.5.6.8s.5.4.9.6l-1.2 2c-.5-.2-.9-.5-1.3-.9s-.7-.8-.9-1.3-.4-1-.6-1.5c-.1-.5-.2-1.1-.2-1.6 0-.9.2-1.7.6-2.5s.9-1.4 1.5-2c.6-.5 1.3-1 2.1-1.3s1.7-.4 2.6-.4z"/><path d="m13.4 193h-12.8v-2.5h5.4v-5.8h-5.4v-2.5h12.8v2.5h-5.2v5.8h5.2z"/><path d="m13.4 199.3v2.2l-12.8 4.9v-2.6l3.2-1.2v-4.5l-3.2-1.1v-2.6zm-7.9 2.8 5-1.8-5-1.8z"/><path d="m.6 207.7h12.8v5.4c0 .6-.1 1.1-.4 1.6s-.6.9-1 1.3-.9.6-1.4.8-1 .3-1.5.3-1.1-.1-1.6-.3-1-.5-1.4-.8-.7-.8-1-1.3c-.2-.5-.4-1-.4-1.6v-3h-4.1zm6.4 2.5v2.9c0 .5.2.8.6 1.1s.9.5 1.5.5c.3 0 .6 0 .9-.1s.5-.2.7-.4.3-.3.4-.6c.1-.2.1-.4.1-.6v-2.8z"/><path d="m11.2 228.5v-4.1h-10.6v-2.4h10.6v-4.1h2.2v10.6z"/><path d="m2.7 239h-2.1v-8.9h12.8v8.7h-2.2v-6.2h-3.1v5.4h-2v-5.4h-3.4z"/><path d="m.6 240.9h12.8v5.7c0 .6-.1 1.1-.4 1.6s-.6.9-1 1.3-.9.6-1.4.8-1 .3-1.5.3c-.8 0-1.6-.2-2.3-.6s-1.2-1-1.5-1.7l-4.8 2.9v-2.8l4.3-2.6v-2.4h-4.2zm6.4 2.5v3.1c0 .2.1.4.2.6s.3.4.4.5c.2.1.4.3.7.3s.5.1.8.1.6 0 .8-.1.5-.2.7-.4.3-.3.4-.6c.1-.2.2-.4.2-.6v-3h-4.2z"/><path d="m-2.2 279.5h16.9v3h-16.9z" transform="matrix(.5926 -.8055 .8055 .5926 -223.8574 119.5007)"/><path d="m4.7 259h3v16.9h-3z" transform="matrix(.8054 -.5927 .5927 .8054 -157.3229 55.7212)"/></g></svg>