<?xml version="1.0" encoding="utf-8"?>
<!-- Generator: Adobe Illustrator 23.0.2, SVG Export Plug-In . SVG Version: 6.00 Build 0)  -->
<svg version="1.1" id="Livello_1" xmlns="http://www.w3.org/2000/svg" xmlns:xlink="http://www.w3.org/1999/xlink" x="0px" y="0px"
	 viewBox="0 0 13.44 436.53" style="enable-background:new 0 0 13.44 436.53;" xml:space="preserve">
<style type="text/css">
	.st0{fill:#DB8685;}
</style>
<g>
	<g>
		<path class="st0" d="M3.44,379.54c-0.08,0.08-0.2,0.24-0.34,0.46c-0.14,0.22-0.28,0.49-0.42,0.81c-0.14,0.32-0.25,0.66-0.35,1.04
			s-0.14,0.75-0.14,1.13c0,0.68,0.13,1.19,0.38,1.53c0.25,0.34,0.61,0.5,1.06,0.5c0.26,0,0.48-0.06,0.66-0.19s0.33-0.31,0.46-0.55
			s0.25-0.54,0.36-0.91c0.11-0.37,0.22-0.79,0.34-1.27c0.17-0.62,0.35-1.19,0.54-1.7c0.19-0.51,0.43-0.94,0.72-1.3
			c0.29-0.35,0.63-0.63,1.04-0.82c0.4-0.19,0.9-0.29,1.48-0.29c0.68,0,1.27,0.13,1.75,0.39c0.49,0.26,0.88,0.61,1.18,1.04
			c0.3,0.44,0.52,0.94,0.66,1.51c0.14,0.57,0.21,1.17,0.21,1.79c0,0.96-0.14,1.91-0.43,2.84s-0.7,1.78-1.22,2.52L9.22,387
			c0.11-0.11,0.25-0.3,0.42-0.58c0.17-0.28,0.35-0.61,0.52-1c0.17-0.38,0.32-0.81,0.44-1.28c0.12-0.47,0.18-0.95,0.18-1.44
			c0-1.37-0.44-2.05-1.31-2.05c-0.28,0-0.51,0.08-0.7,0.23c-0.19,0.16-0.36,0.38-0.5,0.67c-0.14,0.29-0.28,0.64-0.4,1.04
			c-0.12,0.41-0.25,0.86-0.4,1.37c-0.17,0.61-0.35,1.14-0.55,1.59c-0.2,0.45-0.43,0.83-0.7,1.12c-0.27,0.3-0.58,0.53-0.94,0.68
			c-0.35,0.15-0.78,0.22-1.27,0.22c-0.65,0-1.22-0.12-1.73-0.36c-0.5-0.24-0.92-0.57-1.26-1c-0.34-0.43-0.59-0.92-0.77-1.48
			C0.09,384.16,0,383.56,0,382.91c0-0.9,0.14-1.73,0.42-2.48c0.28-0.76,0.62-1.42,1-1.98L3.44,379.54z"/>
		<path class="st0" d="M0.13,370.2v-2.29l4.23-1.44l-4.23-1.44v-2.3l5.81,2.18l4.09-1.62l-9.94-3.62v-2.7l12.78,5.2v2.09l-5.36,2.21
			l5.36,2.21v2.09l-12.78,5.17v-2.66l9.94-3.64l-4.09-1.58L0.13,370.2z"/>
		<path class="st0" d="M12.87,353.86H0.09v-2.48h12.78V353.86z"/>
		<path class="st0" d="M12.87,346.91H0.09v-5.42c0-0.59,0.12-1.13,0.37-1.63s0.57-0.93,0.97-1.29c0.4-0.36,0.86-0.64,1.37-0.85
			c0.51-0.2,1.02-0.31,1.54-0.31c0.54,0,1.07,0.1,1.58,0.29c0.51,0.19,0.96,0.46,1.36,0.81c0.4,0.35,0.71,0.77,0.95,1.26
			c0.24,0.49,0.36,1.03,0.36,1.62v3.02h4.28V346.91z M6.41,344.43v-2.88c0-0.46-0.19-0.84-0.56-1.14s-0.88-0.46-1.51-0.46
			c-0.32,0-0.61,0.05-0.87,0.14c-0.26,0.1-0.48,0.22-0.66,0.38c-0.18,0.16-0.32,0.34-0.41,0.55s-0.13,0.42-0.13,0.64v2.77H6.41z"/>
		<path class="st0" d="M10.69,325.02h2.18v8.87H0.09v-8.71h2.18v6.23h3.08v-5.38h2.02v5.38h3.33V325.02z"/>
		<path class="st0" d="M12.87,315.16H0.09v-5.65c0-0.59,0.12-1.13,0.37-1.63c0.25-0.5,0.57-0.93,0.97-1.29
			c0.4-0.36,0.86-0.64,1.37-0.85c0.51-0.2,1.02-0.31,1.54-0.31c0.83,0,1.58,0.21,2.26,0.62c0.68,0.41,1.17,0.97,1.47,1.68l4.81-2.92
			v2.79l-4.28,2.61v2.45h4.28V315.16z M6.41,312.67v-3.11c0-0.23-0.05-0.44-0.16-0.64c-0.11-0.2-0.25-0.37-0.44-0.51
			c-0.19-0.14-0.4-0.26-0.66-0.34s-0.52-0.13-0.81-0.13c-0.3,0-0.58,0.05-0.83,0.14c-0.25,0.1-0.47,0.23-0.66,0.39
			c-0.19,0.16-0.33,0.35-0.43,0.56c-0.1,0.21-0.15,0.42-0.15,0.64v3.01H6.41z"/>
		<path class="st0" d="M12.87,301.39H0.09v-2.48h12.78V301.39z"/>
		<path class="st0" d="M11.43,285.57c1.02,1.02,1.53,2.21,1.53,3.56c0,0.84-0.17,1.63-0.5,2.37c-0.34,0.74-0.8,1.38-1.39,1.93
			s-1.28,0.98-2.08,1.3c-0.8,0.32-1.66,0.48-2.58,0.48c-0.88,0-1.7-0.16-2.47-0.48c-0.77-0.32-1.45-0.76-2.03-1.31
			c-0.58-0.56-1.04-1.21-1.39-1.97C0.17,290.68,0,289.86,0,288.97c0-1.2,0.25-2.23,0.76-3.09c0.5-0.86,1.18-1.5,2.03-1.94l1.37,1.85
			c-0.64,0.32-1.12,0.78-1.46,1.36s-0.5,1.21-0.5,1.9c0,0.54,0.11,1.04,0.34,1.49c0.23,0.45,0.54,0.83,0.94,1.15
			c0.4,0.32,0.85,0.56,1.37,0.74c0.52,0.17,1.06,0.26,1.64,0.26c0.6,0,1.16-0.1,1.68-0.29c0.52-0.19,0.98-0.46,1.36-0.79
			s0.69-0.73,0.91-1.2c0.22-0.46,0.33-0.96,0.33-1.5c0-1.24-0.58-2.35-1.75-3.35h-0.9v2.57H6.3v-4.63h6.57v2.05H11.43z"/>
		<path class="st0" d="M0.09,268.84h12.78v2.47H7.42v5.8h5.45v2.48H0.09v-2.48h5.17v-5.8H0.09V268.84z"/>
		<path class="st0" d="M2.27,254.82v4.09h10.6v2.47H2.27v4.09H0.09v-10.64H2.27z"/>
		<path class="st0" d="M12.87,245.82H0.09v-8.59h2.18v6.1h3.29v-5.08h2.02v5.08h5.29V245.82z"/>
		<path class="st0" d="M12.96,228.53c0,0.94-0.18,1.79-0.55,2.55c-0.37,0.76-0.85,1.42-1.46,1.96c-0.61,0.55-1.3,0.97-2.08,1.27
			s-1.58,0.45-2.39,0.45c-0.85,0-1.67-0.16-2.45-0.48c-0.78-0.32-1.47-0.76-2.07-1.31c-0.6-0.56-1.08-1.22-1.43-1.99
			S0,229.37,0,228.47c0-0.92,0.19-1.77,0.57-2.53c0.38-0.76,0.87-1.41,1.48-1.95c0.61-0.54,1.31-0.96,2.09-1.26
			c0.78-0.3,1.57-0.45,2.38-0.45c0.85,0,1.66,0.16,2.44,0.47c0.77,0.31,1.46,0.75,2.05,1.3c0.59,0.55,1.07,1.21,1.42,1.98
			C12.78,226.79,12.96,227.63,12.96,228.53z M6.48,232.23c0.55,0,1.09-0.08,1.6-0.25c0.52-0.17,0.97-0.41,1.37-0.73
			c0.4-0.32,0.71-0.71,0.95-1.17s0.36-0.99,0.36-1.58c0-0.6-0.12-1.13-0.37-1.59c-0.25-0.46-0.57-0.85-0.98-1.17
			c-0.41-0.32-0.87-0.56-1.38-0.72s-1.03-0.24-1.56-0.24c-0.55,0-1.09,0.09-1.6,0.26c-0.52,0.17-0.97,0.42-1.37,0.74
			c-0.4,0.32-0.71,0.71-0.94,1.17c-0.23,0.46-0.35,0.98-0.35,1.56c0,0.6,0.12,1.13,0.37,1.6s0.57,0.86,0.97,1.17
			c0.4,0.31,0.86,0.55,1.37,0.71C5.43,232.15,5.95,232.23,6.48,232.23z"/>
		<path class="st0" d="M12.87,218.57H0.09v-5.65c0-0.59,0.12-1.13,0.37-1.63c0.25-0.5,0.57-0.93,0.97-1.29
			c0.4-0.36,0.86-0.64,1.37-0.85c0.51-0.2,1.02-0.31,1.54-0.31c0.83,0,1.58,0.21,2.26,0.62c0.68,0.41,1.17,0.97,1.47,1.68l4.81-2.92
			v2.79l-4.28,2.61v2.45h4.28V218.57z M6.41,216.09v-3.11c0-0.23-0.05-0.44-0.16-0.64c-0.11-0.2-0.25-0.37-0.44-0.51
			c-0.19-0.14-0.4-0.26-0.66-0.34s-0.52-0.13-0.81-0.13c-0.3,0-0.58,0.05-0.83,0.14c-0.25,0.1-0.47,0.23-0.66,0.39
			c-0.19,0.16-0.33,0.35-0.43,0.56c-0.1,0.21-0.15,0.42-0.15,0.64v3.01H6.41z"/>
		<path class="st0" d="M2.27,189.63v4.09h10.6v2.47H2.27v4.09H0.09v-10.64H2.27z"/>
		<path class="st0" d="M0.09,175.5h12.78v2.47H7.42v5.8h5.45v2.48H0.09v-2.48h5.17v-5.8H0.09V175.5z"/>
		<path class="st0" d="M10.69,162.16h2.18v8.87H0.09v-8.71h2.18v6.23h3.08v-5.38h2.02v5.38h3.33V162.16z"/>
		<path class="st0" d="M4.68,149.81h8.19v2.48H0.09v-1.93l8.39-6.66H0.11v-2.48h12.76v2.02L4.68,149.81z"/>
		<path class="st0" d="M10.69,127.89h2.18v8.87H0.09v-8.71h2.18v6.23h3.08v-5.38h2.02v5.38h3.33V127.89z"/>
		<path class="st0" d="M0.09,122.83l4.75-3.19l-4.75-3.17v-2.68l6.48,4.55l6.3-4.41v2.68l-4.57,3.02l4.57,3.04v2.7l-6.3-4.41
			l-6.48,4.55V122.83z"/>
		<path class="st0" d="M2.27,101.16v4.09h10.6v2.47H2.27v4.09H0.09v-10.64H2.27z"/>
		<path class="st0" d="M6.39,92.93c-0.78,0-1.55-0.14-2.31-0.42c-0.76-0.28-1.44-0.69-2.04-1.23c-0.6-0.54-1.09-1.2-1.46-1.98
			c-0.37-0.78-0.56-1.67-0.56-2.66c0-1.18,0.26-2.19,0.77-3.05c0.52-0.86,1.19-1.5,2.02-1.92l1.31,1.91
			c-0.36,0.17-0.66,0.37-0.91,0.61c-0.25,0.24-0.44,0.5-0.58,0.77c-0.14,0.28-0.25,0.56-0.31,0.86c-0.07,0.3-0.1,0.59-0.1,0.88
			c0,0.62,0.13,1.17,0.38,1.63s0.58,0.85,0.98,1.15s0.86,0.54,1.37,0.69c0.51,0.16,1.02,0.23,1.52,0.23c0.56,0,1.11-0.09,1.63-0.27
			c0.52-0.18,0.98-0.44,1.38-0.77c0.4-0.33,0.71-0.73,0.95-1.19c0.24-0.46,0.36-0.97,0.36-1.52c0-0.29-0.04-0.59-0.11-0.9
			c-0.07-0.31-0.19-0.61-0.34-0.89c-0.16-0.28-0.36-0.54-0.6-0.78c-0.25-0.24-0.54-0.43-0.89-0.58l1.17-2.03
			c0.48,0.2,0.9,0.5,1.27,0.87s0.67,0.8,0.93,1.28c0.25,0.47,0.44,0.98,0.58,1.52s0.2,1.07,0.2,1.58c0,0.91-0.19,1.75-0.58,2.5
			s-0.88,1.41-1.5,1.95s-1.32,0.97-2.11,1.28C8.01,92.78,7.21,92.93,6.39,92.93z"/>
		<path class="st0" d="M0.09,67.27h12.78v2.47H7.42v5.8h5.45v2.48H0.09v-2.48h5.17v-5.8H0.09V67.27z"/>
		<path class="st0" d="M0.09,59.17v-2.2l12.78-4.86v2.56l-3.19,1.19v4.46l3.19,1.17v2.56L0.09,59.17z M7.94,56.3l-5.02,1.76
			l5.02,1.84V56.3z"/>
		<path class="st0" d="M12.87,48.91H0.09v-5.42c0-0.59,0.12-1.13,0.37-1.63s0.57-0.93,0.97-1.29c0.4-0.36,0.86-0.64,1.37-0.85
			c0.51-0.2,1.02-0.31,1.54-0.31c0.54,0,1.07,0.1,1.58,0.29c0.51,0.19,0.96,0.46,1.36,0.81c0.4,0.35,0.71,0.77,0.95,1.26
			c0.24,0.49,0.36,1.03,0.36,1.62v3.02h4.28V48.91z M6.41,46.42v-2.88c0-0.46-0.19-0.84-0.56-1.14s-0.88-0.46-1.51-0.46
			c-0.32,0-0.61,0.05-0.87,0.14c-0.26,0.1-0.48,0.22-0.66,0.38c-0.18,0.16-0.32,0.34-0.41,0.55s-0.13,0.42-0.13,0.64v2.77H6.41z"/>
		<path class="st0" d="M2.27,26.33v4.09h10.6v2.47H2.27v4.09H0.09V26.33H2.27z"/>
		<path class="st0" d="M10.69,14.08h2.18v8.87H0.09v-8.71h2.18v6.23h3.08v-5.38h2.02v5.38h3.33V14.08z"/>
		<path class="st0" d="M12.87,10.33H0.09V4.68c0-0.59,0.12-1.13,0.37-1.63c0.25-0.5,0.57-0.93,0.97-1.29
			C1.83,1.4,2.29,1.12,2.8,0.92c0.51-0.2,1.02-0.31,1.54-0.31c0.83,0,1.58,0.21,2.26,0.62c0.68,0.41,1.17,0.97,1.47,1.68L12.87,0
			v2.79L8.59,5.4v2.45h4.28V10.33z M6.41,7.85V4.73c0-0.23-0.05-0.44-0.16-0.64C6.14,3.9,5.99,3.73,5.8,3.58
			C5.62,3.44,5.4,3.32,5.15,3.24S4.63,3.11,4.34,3.11c-0.3,0-0.58,0.05-0.83,0.14c-0.25,0.1-0.47,0.23-0.66,0.39
			C2.67,3.81,2.52,3.99,2.42,4.2c-0.1,0.21-0.15,0.42-0.15,0.64v3.01H6.41z"/>
	</g>
	<g>
		<g>
			
				<rect x="-1.19" y="427.36" transform="matrix(0.5926 -0.8055 0.8055 0.5926 -342.5008 180.5536)" class="st0" width="16.86" height="3"/>
		</g>
		<g>
			
				<rect x="5.74" y="406.85" transform="matrix(0.8054 -0.5927 0.5927 0.8054 -244.7231 85.0884)" class="st0" width="3" height="16.86"/>
		</g>
	</g>
</g>
</svg>
