<?xml version="1.0" encoding="utf-8"?>
<!-- Generator: Adobe Illustrator 23.0.1, SVG Export Plug-In . SVG Version: 6.00 Build 0)  -->
<svg version="1.1" id="Livello_1" xmlns="http://www.w3.org/2000/svg" xmlns:xlink="http://www.w3.org/1999/xlink" x="0px" y="0px"
	 viewBox="0 0 13.4 288.7" style="enable-background:new 0 0 13.4 288.7;" xml:space="preserve">
<style type="text/css">
	.st0{fill:#EDA1A2;}
</style>
<g>
	<g>
		<g>
			<path class="st0" d="M10,8.5c0.1-0.1,0.2-0.2,0.3-0.5c0.1-0.2,0.3-0.5,0.4-0.8c0.1-0.3,0.3-0.7,0.4-1s0.1-0.8,0.1-1.1
				c0-0.7-0.1-1.2-0.4-1.5c-0.3-0.3-0.6-0.5-1.1-0.5c-0.3,0-0.5,0.1-0.7,0.2S8.8,3.6,8.7,3.8S8.5,4.4,8.3,4.7C8.2,5.1,8.1,5.5,8,6
				C7.8,6.6,7.7,7.2,7.5,7.7C7.3,8.2,7,8.6,6.7,9c-0.3,0.4-0.6,0.6-1,0.8c-0.4,0.2-0.9,0.3-1.5,0.3C3.5,10.1,3,10,2.5,9.7
				C2,9.5,1.6,9.1,1.3,8.7C1,8.2,0.8,7.7,0.6,7.2C0.5,6.6,0.4,6,0.4,5.4c0-1,0.1-1.9,0.4-2.8S1.6,0.7,2.1,0l2.1,1.1
				C4.1,1.2,4,1.4,3.8,1.7C3.6,2,3.5,2.3,3.3,2.7C3.1,3.1,3,3.5,2.8,4C2.7,4.4,2.7,4.9,2.7,5.4c0,1.4,0.4,2.1,1.3,2.1
				c0.3,0,0.5-0.1,0.7-0.2C4.9,7.1,5,6.8,5.2,6.6c0.1-0.3,0.3-0.6,0.4-1C5.7,5.1,5.8,4.6,6,4.1C6.1,3.5,6.3,3,6.5,2.5
				C6.7,2.1,7,1.7,7.2,1.4c0.3-0.3,0.6-0.5,0.9-0.7c0.4-0.1,0.8-0.2,1.3-0.2c0.6,0,1.2,0.1,1.7,0.4c0.5,0.2,0.9,0.6,1.3,1
				c0.3,0.4,0.6,0.9,0.8,1.5c0.2,0.6,0.3,1.2,0.3,1.8c0,0.9-0.1,1.7-0.4,2.5c-0.3,0.8-0.6,1.4-1,2L10,8.5z"/>
			<path class="st0" d="M13.3,16.1v2.3l-4.2,1.4l4.2,1.4v2.3l-5.8-2.2L3.4,23l9.9,3.6v2.7L0.6,24.1V22l5.4-2.2l-5.4-2.2v-2.1
				l12.8-5.2V13l-9.9,3.6l4.1,1.6L13.3,16.1z"/>
			<path class="st0" d="M0.6,30.6h12.8v2.5H0.6V30.6z"/>
			<path class="st0" d="M0.6,35.8h12.8v5.4c0,0.6-0.1,1.1-0.4,1.6s-0.6,0.9-1,1.3c-0.4,0.4-0.9,0.6-1.4,0.8c-0.5,0.2-1,0.3-1.5,0.3
				c-0.5,0-1.1-0.1-1.6-0.3c-0.5-0.2-1-0.5-1.4-0.8c-0.4-0.3-0.7-0.8-1-1.3c-0.2-0.5-0.4-1-0.4-1.6v-3H0.6V35.8z M7,38.3v2.9
				c0,0.5,0.2,0.8,0.6,1.1s0.9,0.5,1.5,0.5c0.3,0,0.6,0,0.9-0.1c0.3-0.1,0.5-0.2,0.7-0.4c0.2-0.2,0.3-0.3,0.4-0.5s0.1-0.4,0.1-0.6
				v-2.8H7z"/>
			<path class="st0" d="M2.7,55.9H0.6V47h12.8v8.7h-2.2v-6.2H8.1v5.4h-2v-5.4H2.7V55.9z"/>
			<path class="st0" d="M11.2,71.2v-4.1H0.6v-2.5h10.6v-4.1h2.2v10.6H11.2z"/>
			<path class="st0" d="M0.5,77.6c0-0.9,0.2-1.8,0.5-2.5c0.4-0.8,0.9-1.4,1.5-2c0.6-0.5,1.3-1,2.1-1.3s1.6-0.5,2.4-0.5
				c0.9,0,1.7,0.2,2.4,0.5c0.8,0.3,1.5,0.8,2.1,1.3c0.6,0.6,1.1,1.2,1.4,2s0.5,1.6,0.5,2.5c0,0.9-0.2,1.8-0.6,2.5
				c-0.4,0.8-0.9,1.4-1.5,2c-0.6,0.5-1.3,1-2.1,1.3c-0.8,0.3-1.6,0.5-2.4,0.5c-0.9,0-1.7-0.2-2.4-0.5c-0.8-0.3-1.5-0.7-2.1-1.3
				c-0.6-0.6-1.1-1.2-1.4-2C0.7,79.4,0.5,78.5,0.5,77.6z M7,73.9c-0.6,0-1.1,0.1-1.6,0.3c-0.5,0.2-1,0.4-1.4,0.7
				c-0.4,0.3-0.7,0.7-1,1.2s-0.4,1-0.4,1.6c0,0.6,0.1,1.1,0.4,1.6c0.2,0.5,0.6,0.9,1,1.2c0.4,0.3,0.9,0.6,1.4,0.7s1,0.2,1.6,0.2
				c0.6,0,1.1-0.1,1.6-0.3c0.5-0.2,1-0.4,1.4-0.7c0.4-0.3,0.7-0.7,0.9-1.2c0.2-0.5,0.4-1,0.4-1.6c0-0.6-0.1-1.1-0.4-1.6
				s-0.6-0.9-1-1.2c-0.4-0.3-0.9-0.5-1.4-0.7C8,74,7.5,73.9,7,73.9z"/>
			<path class="st0" d="M7.1,89.3c0.8,0,1.6,0.1,2.3,0.4c0.8,0.3,1.4,0.7,2,1.2c0.6,0.5,1.1,1.2,1.5,2c0.4,0.8,0.6,1.7,0.6,2.7
				c0,1.2-0.3,2.2-0.8,3.1c-0.5,0.9-1.2,1.5-2,1.9l-1.3-1.9c0.4-0.2,0.7-0.4,0.9-0.6c0.2-0.2,0.4-0.5,0.6-0.8
				c0.1-0.3,0.2-0.6,0.3-0.9c0.1-0.3,0.1-0.6,0.1-0.9c0-0.6-0.1-1.2-0.4-1.6s-0.6-0.8-1-1.2S9,92.2,8.5,92.1c-0.5-0.2-1-0.2-1.5-0.2
				c-0.6,0-1.1,0.1-1.6,0.3c-0.5,0.2-1,0.4-1.4,0.8c-0.4,0.3-0.7,0.7-1,1.2c-0.2,0.5-0.4,1-0.4,1.5c0,0.3,0,0.6,0.1,0.9
				c0.1,0.3,0.2,0.6,0.3,0.9c0.2,0.3,0.4,0.5,0.6,0.8c0.2,0.2,0.5,0.4,0.9,0.6l-1.2,2c-0.5-0.2-0.9-0.5-1.3-0.9s-0.7-0.8-0.9-1.3
				c-0.3-0.5-0.4-1-0.6-1.5S0.5,96,0.5,95.5c0-0.9,0.2-1.7,0.6-2.5s0.9-1.4,1.5-2s1.3-1,2.1-1.3C5.4,89.5,6.2,89.3,7.1,89.3z"/>
			<path class="st0" d="M13.4,113.2H0.6v-2.5H6v-5.8H0.6v-2.5h12.8v2.5H8.2v5.8h5.2V113.2z"/>
			<path class="st0" d="M13.4,119.5v2.2l-12.8,4.9V124l3.2-1.2v-4.5l-3.2-1.2v-2.6L13.4,119.5z M5.5,122.4l5-1.8l-5-1.8V122.4z"/>
			<path class="st0" d="M8.8,130.4H0.6V128h12.8v1.9L5,136.5h8.4v2.5H0.6v-2L8.8,130.4z"/>
			<path class="st0" d="M2,150.6c-1-1-1.5-2.2-1.5-3.6c0-0.8,0.2-1.6,0.5-2.4c0.3-0.7,0.8-1.4,1.4-1.9s1.3-1,2.1-1.3
				c0.8-0.3,1.7-0.5,2.6-0.5c0.9,0,1.7,0.2,2.5,0.5c0.8,0.3,1.5,0.8,2,1.3c0.6,0.6,1,1.2,1.4,2c0.3,0.8,0.5,1.6,0.5,2.5
				c0,1.2-0.3,2.2-0.8,3.1c-0.5,0.9-1.2,1.5-2,1.9l-1.4-1.9c0.6-0.3,1.1-0.8,1.5-1.4s0.5-1.2,0.5-1.9c0-0.5-0.1-1-0.3-1.5
				c-0.2-0.4-0.5-0.8-0.9-1.2c-0.4-0.3-0.9-0.6-1.4-0.7c-0.5-0.2-1.1-0.3-1.6-0.3c-0.6,0-1.2,0.1-1.7,0.3c-0.5,0.2-1,0.5-1.4,0.8
				c-0.4,0.3-0.7,0.7-0.9,1.2c-0.2,0.5-0.3,1-0.3,1.5c0,1.2,0.6,2.4,1.7,3.3h0.9V148h1.8v4.6H0.6v-2.1H2z"/>
			<path class="st0" d="M2.7,163.6H0.6v-8.9h12.8v8.7h-2.2v-6.2H8.1v5.4h-2v-5.4H2.7V163.6z"/>
			<path class="st0" d="M7.1,169.1c0.8,0,1.6,0.1,2.3,0.4c0.8,0.3,1.4,0.7,2,1.2c0.6,0.5,1.1,1.2,1.5,2c0.4,0.8,0.6,1.7,0.6,2.7
				c0,1.2-0.3,2.2-0.8,3.1c-0.5,0.9-1.2,1.5-2,1.9l-1.3-1.9c0.4-0.2,0.7-0.4,0.9-0.6c0.2-0.2,0.4-0.5,0.6-0.8
				c0.1-0.3,0.2-0.6,0.3-0.9c0.1-0.3,0.1-0.6,0.1-0.9c0-0.6-0.1-1.2-0.4-1.6c-0.3-0.5-0.6-0.8-1-1.2c-0.4-0.3-0.9-0.5-1.4-0.7
				s-1-0.2-1.5-0.2c-0.6,0-1.1,0.1-1.6,0.3c-0.5,0.2-1,0.4-1.4,0.8c-0.4,0.3-0.7,0.7-1,1.2c-0.2,0.5-0.4,1-0.4,1.5
				c0,0.3,0,0.6,0.1,0.9c0.1,0.3,0.2,0.6,0.3,0.9c0.2,0.3,0.4,0.5,0.6,0.8s0.5,0.4,0.9,0.6l-1.2,2c-0.5-0.2-0.9-0.5-1.3-0.9
				c-0.4-0.4-0.7-0.8-0.9-1.3s-0.4-1-0.6-1.5c-0.1-0.5-0.2-1.1-0.2-1.6c0-0.9,0.2-1.7,0.6-2.5s0.9-1.4,1.5-2c0.6-0.5,1.3-1,2.1-1.3
				S6.2,169.1,7.1,169.1z"/>
			<path class="st0" d="M13.4,193H0.6v-2.5H6v-5.8H0.6v-2.5h12.8v2.5H8.2v5.8h5.2V193z"/>
			<path class="st0" d="M13.4,199.3v2.2l-12.8,4.9v-2.6l3.2-1.2v-4.5L0.6,197v-2.6L13.4,199.3z M5.5,202.1l5-1.8l-5-1.8V202.1z"/>
			<path class="st0" d="M0.6,207.7h12.8v5.4c0,0.6-0.1,1.1-0.4,1.6s-0.6,0.9-1,1.3c-0.4,0.4-0.9,0.6-1.4,0.8c-0.5,0.2-1,0.3-1.5,0.3
				c-0.5,0-1.1-0.1-1.6-0.3c-0.5-0.2-1-0.5-1.4-0.8c-0.4-0.3-0.7-0.8-1-1.3c-0.2-0.5-0.4-1-0.4-1.6v-3H0.6V207.7z M7,210.2v2.9
				c0,0.5,0.2,0.8,0.6,1.1c0.4,0.3,0.9,0.5,1.5,0.5c0.3,0,0.6,0,0.9-0.1c0.3-0.1,0.5-0.2,0.7-0.4c0.2-0.2,0.3-0.3,0.4-0.6
				c0.1-0.2,0.1-0.4,0.1-0.6v-2.8H7z"/>
			<path class="st0" d="M11.2,228.5v-4.1H0.6V222h10.6v-4.1h2.2v10.6H11.2z"/>
			<path class="st0" d="M2.7,239H0.6v-8.9h12.8v8.7h-2.2v-6.2H8.1v5.4h-2v-5.4H2.7V239z"/>
			<path class="st0" d="M0.6,240.9h12.8v5.7c0,0.6-0.1,1.1-0.4,1.6s-0.6,0.9-1,1.3c-0.4,0.4-0.9,0.6-1.4,0.8c-0.5,0.2-1,0.3-1.5,0.3
				c-0.8,0-1.6-0.2-2.3-0.6c-0.7-0.4-1.2-1-1.5-1.7l-4.8,2.9v-2.8l4.3-2.6v-2.4H0.6V240.9z M7,243.4v3.1c0,0.2,0.1,0.4,0.2,0.6
				c0.1,0.2,0.3,0.4,0.4,0.5c0.2,0.1,0.4,0.3,0.7,0.3s0.5,0.1,0.8,0.1c0.3,0,0.6,0,0.8-0.1s0.5-0.2,0.7-0.4c0.2-0.2,0.3-0.3,0.4-0.6
				c0.1-0.2,0.2-0.4,0.2-0.6v-3H7z"/>
		</g>
		<g>
			<g>
				
					<rect x="-2.2" y="279.5" transform="matrix(0.5926 -0.8055 0.8055 0.5926 -223.8574 119.5007)" class="st0" width="16.9" height="3"/>
			</g>
			<g>
				
					<rect x="4.7" y="259" transform="matrix(0.8054 -0.5927 0.5927 0.8054 -157.3229 55.7212)" class="st0" width="3" height="16.9"/>
			</g>
		</g>
	</g>
</g>
</svg>
