<?xml version="1.0" encoding="utf-8"?>
<!-- Generator: Adobe Illustrator 23.0.2, SVG Export Plug-In . SVG Version: 6.00 Build 0)  -->
<svg version="1.1" id="Livello_1" xmlns="http://www.w3.org/2000/svg" xmlns:xlink="http://www.w3.org/1999/xlink" x="0px" y="0px"
	 viewBox="0 0 680 884" style="enable-background:new 0 0 680 884;" xml:space="preserve">
<style type="text/css">
	.st0{fill:#13120D;}
	.st1{font-family:'Raleway-Regular';}
	.st2{font-size:16px;}
	.st3{fill:#2B2523;}
	.st4{font-family:'CormorantGaramond-SemiBold';}
	.st5{font-size:33.6856px;}
	.st6{fill:#1D1D1B;}
	.st7{font-size:15.84px;}
	.st8{font-family:'Raleway-Italic';}
	.st9{font-size:22px;}
	.st10{fill:#AF5076;}
	.st11{opacity:0.7;}
	.st12{fill:#AF5076;stroke:#AF5076;stroke-width:0.2;stroke-miterlimit:10;}
</style>
<text transform="matrix(1 0 0 1 106.8913 113.1557)" class="st0 st1 st2">THE VISUALIZATION SHOWS THE MOST SEARCHED DREAMS.</text>
<text transform="matrix(1 0 0 1 135.4675 132.3557)" class="st0 st1 st2">THE GRAPHIC VISUALIZES THE NUMBER OF YEARS IN</text>
<text transform="matrix(1 0 0 1 122.1555 151.5557)" class="st0 st1 st2">WHICH THE SUBJECT HAS BEEN SEARCHED ON GOOGLE</text>
<text transform="matrix(1 0 0 1 135.2989 170.7558)" class="st0 st1 st2">IN EACH ANALYZED LANGUAGE (FROM 2008 TO 2018)</text>
<g id="XMLID_5_">
	<text transform="matrix(1 0 0 1 314.6012 54.777)" class="st3 st4 st5">Key</text>
</g>
<g>
	<text transform="matrix(1 0 0 1 372.7715 272.8835)" class="st6 st1 st7">AR = ARABIC</text>
</g>
<g>
	<text transform="matrix(1 0 0 1 516.4219 424.8874)" class="st6 st1 st7">EN =</text>
	<text transform="matrix(1 0 0 1 516.4219 443.8974)" class="st6 st1 st7">ENGLISH</text>
</g>
<g>
	<text transform="matrix(1 0 0 1 485.478 558.008)" class="st6 st1 st7">ES = SPANISH</text>
</g>
<g>
	<text transform="matrix(1 0 0 1 290.6035 650.0602)" class="st6 st1 st7">FR = FRENCH</text>
</g>
<text transform="matrix(1 0 0 1 149.7483 703.2897)" class="st6 st8 st7">NUMBER OF PETALS= NUMBER OF YEARS IN WHICH</text>
<text transform="matrix(1 0 0 1 160.7339 722.2997)" class="st6 st8 st7">THE SUBJECT HAS BEEN SEARCHED ON GOOGLE</text>
<text transform="matrix(1 0 0 1 261.4352 741.3097)" class="st6 st8 st7">(FROM 2008 TO 2018 )</text>
<g>
	<text transform="matrix(1 0 0 1 62.4934 558.008)" class="st6 st1 st7">JP = JAPANESE</text>
</g>
<g>
	<text transform="matrix(1 0 0 1 119.0154 422.3991)" class="st6 st1 st7">PO =</text>
	<text transform="matrix(1 0 0 1 41.0654 441.4091)" class="st6 st1 st7">PORTUGUESE</text>
</g>
<g>
	<text transform="matrix(1 0 0 1 199.2849 272.883)" class="st6 st1 st7">RU = RUSSIAN</text>
</g>
<g>
	<text transform="matrix(1 0 0 1 291.8757 236.9221)" class="st3 st1 st9">SUBJECT</text>
</g>
<g>
	<g>
		<polygon class="st10" points="335.2,533.9 335,523.6 334.9,513.4 334.9,492.9 334.9,472.4 335,462.1 335.2,451.9 335.4,462.1 
			335.5,472.4 335.5,492.9 335.5,513.4 335.4,523.6 		"/>
	</g>
	<g>
		<polygon class="st10" points="415.1,433.7 405.2,436.1 395.2,438.5 375.2,443.1 355.2,447.6 345.2,449.8 335.2,451.9 345.2,449.5 
			355.1,447.1 375.1,442.5 395.1,438 405.1,435.8 		"/>
	</g>
	<g>
		<polygon class="st10" points="370.8,378 366.5,387.3 362.1,396.6 353.3,415.1 344.3,433.5 339.8,442.7 335.2,451.9 339.5,442.6 
			343.9,433.3 352.7,414.8 361.6,396.4 366.2,387.2 		"/>
	</g>
	<g>
		<polygon class="st10" points="299.6,378 304.2,387.2 308.8,396.4 317.7,414.8 326.5,433.3 330.9,442.6 335.2,451.9 330.6,442.7 
			326.1,433.5 317.1,415.1 308.3,396.6 303.9,387.3 		"/>
	</g>
	<g>
		<polygon class="st10" points="255.3,433.7 265.3,435.8 275.3,438 295.3,442.5 315.3,447.1 325.2,449.5 335.2,451.9 325.2,449.8 
			315.2,447.6 295.2,443.1 275.2,438.5 265.2,436.1 		"/>
	</g>
	<g>
		<polygon class="st10" points="271.1,503 279,496.5 287,490 303,477.2 319,464.5 327.1,458.2 335.2,451.9 327.3,458.4 319.3,464.9 
			303.4,477.7 287.3,490.4 279.2,496.7 		"/>
	</g>
	<g>
		<g>
			
				<image style="overflow:visible;" width="130" height="149" xlink:href="FC9F1D1116C7C089.png"  transform="matrix(1 0 0 1 358 481)">
			</image>
		</g>
		<g>
			<g>
				<g>
					<path class="st10" d="M408.4,553.5c0.6,2.4,1.6,4.7,3.2,6.6c1.6,1.9,3.5,3.5,5.6,4.8c2.1,1.4,4.3,2.5,6.5,3.9
						c2.1,1.3,4.2,2.8,6,4.6c-1.8-1.7-3.9-3.1-6.1-4.4c-2.2-1.3-4.4-2.4-6.6-3.7c-2.1-1.3-4.2-2.8-5.9-4.8c-1.7-1.9-2.8-4.3-3.4-6.8
						L408.4,553.5z"/>
				</g>
				<g>
					<path class="st10" d="M408.5,542.8c0.5,1.5,1.5,2.8,2.8,3.9c1.3,1.1,2.7,1.9,4.2,2.7c3,1.6,6.1,2.6,9.2,4.1
						c3,1.4,6.1,2.9,8.9,4.7c1.4,0.9,2.8,1.9,4,3.1c1.2,1.2,2.3,2.5,2.8,4.1c-0.6-1.6-1.7-2.9-2.9-4.1c-1.2-1.1-2.6-2.1-4-3
						c-2.9-1.7-5.9-3.1-9-4.5c-3-1.4-6.2-2.4-9.3-4c-1.5-0.8-3-1.6-4.3-2.7c-1.3-1.1-2.5-2.4-3-4.1L408.5,542.8z"/>
				</g>
				<g class="st11">
					<path class="st10" d="M409.1,572.2c0.7,2,0.5,4.1,0.2,6.1c-0.2,1-0.5,2-0.9,3c-0.4,0.9-0.9,1.9-1.6,2.6c0.6-0.8,1-1.8,1.4-2.7
						c0.4-1,0.7-1.9,0.8-2.9C409.4,576.2,409.5,574.2,409.1,572.2z"/>
				</g>
				<g>
					<path class="st10" d="M407.9,563.5c0.5,1,0.7,2.2,0.6,3.4c0,1.1-0.2,2.3-0.5,3.4c-0.6,2.2-1.4,4.4-2.7,6.2
						c0.4-1,0.8-2.1,1.1-3.2c0.3-1.1,0.7-2.1,0.9-3.2c0.3-1.1,0.5-2.2,0.6-3.3C408.1,565.7,408.2,564.6,407.9,563.5z"/>
				</g>
			</g>
			<path class="st12" d="M399.3,503c8.8,13.2,8.1,34.4,8.4,49.9c0.2,9-0.2,21.1,5.3,28.7c-5.5-6.9-5.5-23.1-4.7-31.4
				c1-10.3,0.1-22.5-2.6-32.6C404.3,512.4,401.7,506.6,399.3,503"/>
		</g>
		<g>
			
				<image style="overflow:visible;" width="130" height="148" xlink:href="FC9F1D1116C7C08B.png"  transform="matrix(1 0 0 1 373 479)">
			</image>
		</g>
		<g>
			<g>
				<g>
					<path class="st10" d="M421.8,549.1c1.2,2.2,2.8,4.1,4.9,5.5c2,1.4,4.4,2.4,6.8,3.1c2.4,0.7,4.9,1.3,7.3,2
						c2.4,0.7,4.8,1.5,7,2.8c-2.2-1.2-4.6-2-7.1-2.6c-2.4-0.6-4.9-1.1-7.3-1.8c-2.4-0.7-4.8-1.6-6.9-3c-2.1-1.4-3.9-3.4-5.2-5.6
						L421.8,549.1z"/>
				</g>
				<g>
					<path class="st10" d="M419,538.8c0.9,1.3,2.3,2.3,3.7,3c1.5,0.7,3.1,1.1,4.7,1.5c3.3,0.7,6.6,0.9,9.9,1.4
						c3.3,0.6,6.6,1.1,9.9,2.1c1.6,0.5,3.2,1.1,4.7,1.9c1.5,0.8,2.9,1.8,3.8,3.2c-1-1.4-2.4-2.4-3.9-3.1c-1.5-0.8-3.1-1.3-4.7-1.8
						c-3.2-0.9-6.5-1.4-9.9-1.9c-3.3-0.5-6.7-0.6-10-1.3c-1.7-0.3-3.3-0.7-4.9-1.4c-1.6-0.7-3.1-1.7-4.1-3.2L419,538.8z"/>
				</g>
				<g class="st11">
					<path class="st10" d="M427.6,566.9c1.2,1.7,1.6,3.8,1.8,5.9c0.1,1,0.1,2.1-0.1,3.1c-0.1,1-0.4,2-0.9,3c0.4-1,0.5-2,0.6-3
						c0.1-1,0.1-2,0-3.1C428.9,570.7,428.5,568.7,427.6,566.9z"/>
				</g>
				<g>
					<path class="st10" d="M424,558.8c0.8,0.8,1.2,1.9,1.5,3.1c0.3,1.1,0.4,2.3,0.5,3.4c0,2.3-0.2,4.6-0.9,6.7
						c0.1-1.1,0.2-2.2,0.2-3.4c0-1.1,0.1-2.2,0-3.3c0-1.1-0.1-2.2-0.3-3.3C424.8,560.9,424.6,559.8,424,558.8z"/>
				</g>
			</g>
			<path class="st12" d="M399.3,503c12.1,10.3,17.2,30.9,21.7,45.7c2.6,8.6,5.5,20.3,12.9,26.2c-7.1-5.2-11.6-20.7-13-28.9
				c-1.8-10.2-6.1-21.7-11.4-30.6C406.7,510.7,402.6,505.8,399.3,503"/>
		</g>
		<g>
			
				<image style="overflow:visible;" width="137" height="141" xlink:href="FC9F1D1116C7C08E.png"  transform="matrix(1 0 0 1 376 476)">
			</image>
		</g>
		<g>
			<g>
				<g>
					<path class="st10" d="M433.5,541.3c1.7,1.7,3.8,3.1,6.2,4c2.3,0.8,4.8,1.1,7.3,1.2c2.5,0.1,5-0.1,7.5-0.1c2.5,0,5,0.1,7.5,0.7
						c-2.5-0.5-5-0.6-7.5-0.6c-2.5,0.1-5,0.3-7.5,0.3c-2.5,0-5.1-0.2-7.5-1c-2.4-0.8-4.6-2.2-6.5-4L433.5,541.3z"/>
				</g>
				<g>
					<path class="st10" d="M428,532.1c1.2,1.1,2.8,1.6,4.4,1.9c1.6,0.3,3.3,0.2,5,0.1c3.3-0.2,6.6-1,10-1.3c3.3-0.4,6.7-0.7,10-0.7
						c1.7,0,3.4,0.2,5,0.5c1.6,0.4,3.3,0.9,4.6,2c-1.3-1.1-2.9-1.6-4.6-1.9c-1.6-0.3-3.3-0.4-5-0.4c-3.4,0-6.7,0.4-10,0.8
						c-3.3,0.4-6.6,1.2-10,1.5c-1.7,0.1-3.4,0.2-5.1,0c-1.7-0.2-3.4-0.8-4.8-1.9L428,532.1z"/>
				</g>
				<g class="st11">
					<path class="st10" d="M443.9,556.8c1.6,1.3,2.6,3.2,3.4,5.2c0.3,1,0.6,2,0.8,3c0.1,1,0.2,2.1,0,3.1c0.1-1,0-2-0.2-3.1
						c-0.2-1-0.5-2-0.8-2.9C446.2,560.1,445.3,558.3,443.9,556.8z"/>
				</g>
				<g>
					<path class="st10" d="M438.3,550c1,0.6,1.7,1.5,2.3,2.5c0.6,1,1,2.1,1.4,3.1c0.7,2.2,1.1,4.5,0.9,6.7c-0.2-1.1-0.4-2.2-0.7-3.3
						c-0.3-1.1-0.6-2.2-0.9-3.2c-0.3-1.1-0.7-2.1-1.2-3.1C439.6,551.8,439.1,550.8,438.3,550z"/>
				</g>
			</g>
			<path class="st12" d="M399.3,503c14.4,6.6,25,25,33.3,38.1c4.9,7.6,10.9,18.1,19.6,21.7c-8.3-3.1-16.8-16.8-20.4-24.3
				c-4.5-9.3-11.8-19.2-19.3-26.4C408.5,508.4,403.3,504.8,399.3,503"/>
		</g>
		<g>
			
				<image style="overflow:visible;" width="143" height="134" xlink:href="FC9F1D1116C7C08F.png"  transform="matrix(1 0 0 1 378 468)">
			</image>
		</g>
		<g>
			<g>
				<g>
					<path class="st10" d="M442.6,530.5c2.2,1.2,4.6,2,7,2.1c2.5,0.2,5-0.2,7.4-0.9c2.4-0.6,4.8-1.5,7.2-2.1
						c2.4-0.7,4.9-1.2,7.4-1.3c-2.5,0.2-5,0.7-7.4,1.5c-2.4,0.7-4.8,1.6-7.2,2.3c-2.4,0.7-4.9,1.2-7.5,1.1c-2.6-0.1-5.1-0.9-7.3-2.1
						L442.6,530.5z"/>
				</g>
				<g>
					<path class="st10" d="M434.9,523.2c1.5,0.7,3.1,0.8,4.8,0.6c1.6-0.2,3.2-0.7,4.8-1.2c3.1-1.1,6.1-2.7,9.2-4
						c3.1-1.3,6.2-2.5,9.5-3.4c1.6-0.4,3.3-0.8,5-0.9c1.7-0.1,3.4,0,4.9,0.7c-1.6-0.7-3.3-0.7-4.9-0.6c-1.7,0.1-3.3,0.5-4.9,0.9
						c-3.2,0.9-6.3,2.2-9.4,3.5c-3.1,1.3-6,2.9-9.2,4.1c-1.6,0.6-3.2,1.1-4.9,1.3c-1.7,0.2-3.5,0.2-5.1-0.6L434.9,523.2z"/>
				</g>
				<g class="st11">
					<path class="st10" d="M456.8,542.6c1.9,0.8,3.4,2.4,4.6,4c0.6,0.8,1.1,1.7,1.6,2.7c0.4,0.9,0.7,1.9,0.8,3c-0.2-1-0.6-2-1-2.9
						c-0.5-0.9-1-1.8-1.6-2.6C460,545.2,458.6,543.7,456.8,542.6z"/>
				</g>
				<g>
					<path class="st10" d="M449.6,537.6c1.1,0.3,2.1,1,2.9,1.8c0.8,0.8,1.5,1.7,2.2,2.7c1.2,1.9,2.3,4,2.7,6.2c-0.5-1-1-2-1.6-3
						c-0.6-1-1.1-1.9-1.7-2.9c-0.6-0.9-1.3-1.8-2-2.7C451.4,538.9,450.6,538.1,449.6,537.6z"/>
				</g>
			</g>
			<path class="st12" d="M399.3,503c15.7,2.4,30.8,17.3,42.4,27.6c6.8,6,15.4,14.4,24.7,15.6c-8.8-0.7-20.7-11.6-26.2-17.8
				c-6.9-7.7-16.6-15.3-25.8-20.1C409.7,505.7,403.6,503.7,399.3,503"/>
		</g>
		<g>
			
				<image style="overflow:visible;" width="145" height="137" xlink:href="FC9F1D1116C7C08A.png"  transform="matrix(1 0 0 1 379 446)">
			</image>
		</g>
		<g>
			<g>
				<g>
					<path class="st10" d="M448.5,517.7c2.4,0.6,4.9,0.7,7.3,0.1c2.4-0.5,4.7-1.6,6.9-2.9c2.2-1.3,4.2-2.7,6.4-4
						c2.1-1.3,4.4-2.5,6.8-3.3c-2.4,0.8-4.6,2.1-6.7,3.4c-2.1,1.4-4.1,2.8-6.3,4.2c-2.1,1.3-4.4,2.5-6.9,3.1c-2.5,0.6-5.1,0.6-7.6,0
						L448.5,517.7z"/>
				</g>
				<g>
					<path class="st10" d="M439,512.7c1.6,0.3,3.2-0.1,4.7-0.7c1.5-0.6,2.9-1.5,4.3-2.5c2.7-1.9,5.1-4.3,7.8-6.3
						c2.6-2.1,5.3-4.1,8.2-5.8c1.4-0.9,2.9-1.6,4.5-2.2c1.6-0.6,3.3-0.9,4.9-0.7c-1.7-0.2-3.4,0.2-4.9,0.7c-1.6,0.6-3.1,1.4-4.5,2.3
						c-2.9,1.8-5.5,3.9-8.1,6c-2.6,2.1-5,4.5-7.7,6.5c-1.4,1-2.8,1.9-4.4,2.6c-1.6,0.7-3.3,1.1-5.1,0.9L439,512.7z"/>
				</g>
				<g class="st11">
					<path class="st10" d="M465.4,525.4c2.1,0.3,3.9,1.4,5.6,2.6c0.8,0.7,1.6,1.4,2.2,2.2c0.7,0.8,1.2,1.7,1.6,2.6
						c-0.5-0.9-1.1-1.7-1.8-2.5c-0.7-0.8-1.4-1.5-2.2-2.1C469.2,527.1,467.4,526,465.4,525.4z"/>
				</g>
				<g>
					<path class="st10" d="M457.1,522.6c1.1,0,2.3,0.4,3.3,1c1,0.5,1.9,1.2,2.8,2c1.7,1.5,3.3,3.2,4.3,5.2c-0.7-0.9-1.5-1.7-2.3-2.5
						c-0.8-0.8-1.6-1.6-2.4-2.3c-0.8-0.7-1.7-1.4-2.6-2C459.2,523.4,458.2,522.9,457.1,522.6z"/>
				</g>
			</g>
			<path class="st12" d="M399.3,503c15.8-1.9,34.4,8.2,48.3,15c8.1,3.9,18.7,9.7,28,8.2c-8.7,1.7-23.1-5.5-30.1-10
				c-8.7-5.6-20.1-10.2-30.3-12.4C410,502.7,403.6,502.5,399.3,503"/>
		</g>
	</g>
	<g>
		<g>
			
				<image style="overflow:visible;" width="137" height="140" xlink:href="FC9F1D1116C7C085.png"  transform="matrix(1 0 0 1 227 511)">
			</image>
		</g>
		<g>
			<g>
				<g>
					<path class="st10" d="M301.4,572.5c-1.5,1.9-2.7,4.2-3.2,6.6c-0.5,2.4-0.5,4.9-0.3,7.4c0.3,2.5,0.7,5,1,7.5
						c0.3,2.5,0.5,5,0.2,7.5c0.2-2.5,0-5-0.3-7.5c-0.4-2.5-0.9-4.9-1.2-7.4c-0.3-2.5-0.4-5.1,0.1-7.6c0.5-2.5,1.6-4.9,3.2-6.9
						L301.4,572.5z"/>
				</g>
				<g>
					<path class="st10" d="M309.8,565.9c-0.9,1.3-1.2,3-1.3,4.6c-0.1,1.6,0.2,3.3,0.5,4.9c0.6,3.3,1.8,6.4,2.5,9.7
						c0.8,3.3,1.5,6.5,1.9,9.9c0.2,1.7,0.2,3.4,0.1,5c-0.2,1.7-0.5,3.4-1.4,4.8c0.9-1.4,1.2-3.1,1.4-4.8c0.1-1.7,0-3.3-0.2-5
						c-0.4-3.3-1.2-6.6-2-9.8c-0.8-3.2-2-6.4-2.7-9.7c-0.3-1.7-0.6-3.3-0.6-5c0-1.7,0.4-3.5,1.3-5L309.8,565.9z"/>
				</g>
				<g class="st11">
					<path class="st10" d="M287.3,584.7c-1.1,1.8-2.9,3-4.7,4c-0.9,0.5-1.9,0.8-2.9,1.1c-1,0.3-2,0.4-3.1,0.4c1,0,2-0.3,3-0.6
						c1-0.3,1.9-0.7,2.8-1.2C284.2,587.4,285.9,586.2,287.3,584.7z"/>
				</g>
				<g>
					<path class="st10" d="M293.3,578.3c-0.5,1-1.3,1.9-2.2,2.6c-0.9,0.7-1.9,1.3-3,1.7c-2.1,0.9-4.3,1.6-6.6,1.8
						c1.1-0.3,2.1-0.7,3.2-1.1c1-0.4,2.1-0.8,3.1-1.3c1-0.5,2-1,2.9-1.6C291.7,579.8,292.6,579.2,293.3,578.3z"/>
				</g>
			</g>
			<path class="st12" d="M335.2,533.9c-4.8,15.1-21.8,27.8-33.7,37.7c-6.9,5.8-16.6,13-19.2,22.1c2-8.6,14.6-18.7,21.6-23.2
				c8.7-5.6,17.7-14,23.8-22.4C331,543.7,333.9,538.1,335.2,533.9"/>
		</g>
		<g>
			
				<image style="overflow:visible;" width="136" height="145" xlink:href="FC9F1D1116C7C086.png"  transform="matrix(1 0 0 1 244 513)">
			</image>
		</g>
		<g>
			<g>
				<g>
					<path class="st10" d="M313.1,580.2c-0.9,2.3-1.4,4.8-1.3,7.2c0.1,2.5,0.9,4.9,1.8,7.2c0.9,2.3,2,4.6,3,6.9
						c1,2.3,1.8,4.7,2.2,7.2c-0.5-2.5-1.3-4.8-2.4-7.1c-1-2.3-2.2-4.5-3.2-6.8c-1-2.3-1.8-4.8-2-7.3c-0.2-2.5,0.2-5.1,1.2-7.5
						L313.1,580.2z"/>
				</g>
				<g>
					<path class="st10" d="M319.5,571.6c-0.5,1.5-0.4,3.2,0,4.8c0.4,1.6,1.1,3.1,1.8,4.6c1.5,3,3.4,5.7,5.1,8.7
						c1.6,2.9,3.3,5.9,4.5,9c0.6,1.6,1.2,3.2,1.5,4.8c0.3,1.6,0.4,3.4-0.1,5c0.5-1.6,0.3-3.3,0-5c-0.3-1.6-0.9-3.2-1.5-4.8
						c-1.3-3.1-3-6-4.6-8.9c-1.7-2.9-3.7-5.6-5.2-8.6c-0.8-1.5-1.5-3-1.9-4.7c-0.4-1.6-0.6-3.4-0.1-5.1L319.5,571.6z"/>
				</g>
				<g class="st11">
					<path class="st10" d="M302.9,595.8c-0.6,2-2,3.7-3.5,5.1c-0.8,0.7-1.6,1.3-2.5,1.9c-0.9,0.5-1.8,1-2.9,1.2
						c1-0.3,1.9-0.8,2.7-1.4c0.8-0.6,1.7-1.2,2.4-1.9C300.7,599.3,302.1,597.7,302.9,595.8z"/>
				</g>
				<g>
					<path class="st10" d="M307,588c-0.2,1.1-0.8,2.2-1.4,3.1c-0.7,0.9-1.5,1.7-2.4,2.5c-1.7,1.5-3.7,2.7-5.8,3.5
						c1-0.6,1.9-1.3,2.8-1.9c0.9-0.7,1.8-1.3,2.6-2.1c0.8-0.7,1.7-1.5,2.4-2.3C305.9,589.9,306.6,589.1,307,588z"/>
				</g>
			</g>
			<path class="st12" d="M335.2,533.9c-0.5,15.9-13.4,32.7-22.2,45.5c-5.1,7.4-12.5,17-12.4,26.4c-0.4-8.8,9-21.9,14.5-28.2
				c6.8-7.8,13.2-18.3,16.9-28C333.8,544.5,335.1,538.3,335.2,533.9"/>
		</g>
		<g>
			
				<image style="overflow:visible;" width="136" height="146" xlink:href="FC9F1D1116C7C087.png"  transform="matrix(1 0 0 1 265 513)">
			</image>
		</g>
		<g>
			<g>
				<g>
					<path class="st10" d="M326.6,584.5c-0.3,2.5-0.1,5,0.7,7.3c0.8,2.3,2.2,4.5,3.7,6.5c1.5,2,3.2,3.9,4.8,5.8c1.6,2,3,4,4.1,6.3
						c-1.1-2.3-2.6-4.3-4.2-6.2c-1.6-1.9-3.3-3.8-4.9-5.7c-1.6-2-3-4.1-3.9-6.5c-0.9-2.4-1.2-5-0.9-7.5L326.6,584.5z"/>
				</g>
				<g>
					<path class="st10" d="M330.4,574.5c-0.1,1.6,0.5,3.2,1.3,4.6c0.8,1.4,1.9,2.7,3,4c2.2,2.5,4.9,4.6,7.2,7
						c2.4,2.4,4.7,4.8,6.8,7.4c1,1.3,2,2.7,2.7,4.2c0.7,1.5,1.3,3.1,1.3,4.8c0-1.7-0.6-3.3-1.3-4.8c-0.8-1.5-1.7-2.9-2.8-4.2
						c-2.1-2.6-4.5-5-6.9-7.3c-2.4-2.3-5-4.4-7.4-6.9c-1.2-1.2-2.3-2.5-3.1-4c-0.9-1.5-1.5-3.1-1.5-4.9L330.4,574.5z"/>
				</g>
				<g class="st11">
					<path class="st10" d="M321,602.2c0,2.1-0.9,4.1-1.9,5.8c-0.6,0.9-1.2,1.7-1.9,2.5c-0.7,0.7-1.5,1.4-2.4,1.9
						c0.9-0.6,1.6-1.3,2.2-2.1c0.7-0.8,1.3-1.6,1.8-2.5C319.8,606.2,320.7,604.3,321,602.2z"/>
				</g>
				<g>
					<path class="st10" d="M322.8,593.7c0.1,1.1-0.1,2.3-0.6,3.4c-0.4,1.1-1,2.1-1.6,3c-1.3,1.9-2.8,3.6-4.7,4.9
						c0.8-0.8,1.5-1.7,2.2-2.6c0.7-0.9,1.3-1.8,2-2.7c0.6-0.9,1.2-1.9,1.7-2.9C322.2,595.8,322.7,594.8,322.8,593.7z"/>
				</g>
			</g>
			<path class="st12" d="M335.2,533.9c3.8,15.4-4,35.1-9,49.8c-2.9,8.5-7.4,19.8-4.8,28.8c-2.8-8.4,2.6-23.6,6.3-31.1
				c4.5-9.3,7.7-21.2,8.6-31.5C336.8,544.5,336.3,538.1,335.2,533.9"/>
		</g>
		<g>
			
				<image style="overflow:visible;" width="132" height="148" xlink:href="FC9F1D1116C7C099.png"  transform="matrix(1 0 0 1 288 513)">
			</image>
		</g>
		<g>
			<g>
				<g>
					<path class="st10" d="M340.7,584.9c0.4,2.4,1.3,4.8,2.7,6.8c1.4,2,3.3,3.7,5.3,5.2c2,1.5,4.1,2.8,6.2,4.3c2,1.5,4,3.1,5.7,5
						c-1.7-1.9-3.7-3.4-5.8-4.8c-2.1-1.4-4.2-2.7-6.3-4.2c-2-1.5-4-3.1-5.5-5.2c-1.5-2.1-2.5-4.5-3-7L340.7,584.9z"/>
				</g>
				<g>
					<path class="st10" d="M341.6,574.3c0.4,1.6,1.3,2.9,2.5,4.1c1.2,1.2,2.5,2.1,4,3c2.8,1.8,5.9,3.1,8.9,4.7
						c2.9,1.6,5.9,3.3,8.6,5.3c1.4,1,2.6,2.1,3.8,3.3c1.1,1.2,2.1,2.7,2.5,4.3c-0.5-1.6-1.5-3-2.6-4.2c-1.1-1.2-2.4-2.3-3.8-3.3
						c-2.7-1.9-5.7-3.6-8.6-5.1c-2.9-1.6-6.1-2.9-9-4.6c-1.4-0.9-2.9-1.8-4.1-3c-1.2-1.2-2.3-2.6-2.7-4.3L341.6,574.3z"/>
				</g>
				<g class="st11">
					<path class="st10" d="M340.1,603.5c0.5,2,0.3,4.2-0.3,6.1c-0.3,1-0.7,2-1.1,2.9c-0.5,0.9-1.1,1.8-1.8,2.5
						c0.7-0.8,1.2-1.7,1.6-2.6c0.4-0.9,0.8-1.9,1.1-2.9C340.1,607.6,340.4,605.6,340.1,603.5z"/>
				</g>
				<g>
					<path class="st10" d="M339.5,594.8c0.5,1.1,0.5,2.3,0.4,3.4c-0.1,1.1-0.4,2.3-0.7,3.4c-0.7,2.2-1.7,4.2-3.1,6
						c0.5-1,0.9-2,1.4-3.1c0.4-1,0.8-2.1,1.2-3.1c0.3-1.1,0.6-2.1,0.8-3.2C339.6,597,339.7,595.9,339.5,594.8z"/>
				</g>
			</g>
			<path class="st12" d="M335.2,533.9c7.9,13.8,5.7,34.9,4.9,50.4c-0.5,9-1.7,21,3.3,29c-5-7.3-3.9-23.4-2.4-31.6
				c1.8-10.2,1.6-22.5-0.3-32.7C339.6,543.6,337.4,537.7,335.2,533.9"/>
		</g>
		<g>
			
				<image style="overflow:visible;" width="127" height="148" xlink:href="82FF33784ADED3D2.png"  transform="matrix(1 0 0 1 308 511)">
			</image>
		</g>
		<g>
			<g>
				<g>
					<path class="st10" d="M354.4,581.5c1,2.2,2.5,4.3,4.5,5.8c1.9,1.6,4.2,2.7,6.5,3.6c2.3,0.9,4.8,1.6,7.1,2.5
						c2.4,0.8,4.7,1.9,6.8,3.2c-2.1-1.3-4.5-2.3-6.9-3.1c-2.4-0.8-4.8-1.5-7.2-2.3c-2.4-0.8-4.7-1.9-6.7-3.5c-2-1.6-3.6-3.6-4.8-5.9
						L354.4,581.5z"/>
				</g>
				<g>
					<path class="st10" d="M352.4,571c0.8,1.4,2.1,2.5,3.5,3.2c1.4,0.8,3,1.3,4.6,1.8c3.2,0.9,6.5,1.3,9.8,2.1
						c3.3,0.8,6.5,1.6,9.7,2.8c1.6,0.6,3.1,1.3,4.5,2.2c1.4,0.9,2.8,2,3.6,3.4c-0.9-1.4-2.2-2.5-3.7-3.4c-1.4-0.9-3-1.5-4.6-2.1
						c-3.2-1.1-6.4-1.9-9.7-2.6c-3.3-0.7-6.6-1.1-9.9-2c-1.6-0.4-3.2-1-4.8-1.8c-1.5-0.8-2.9-1.9-3.8-3.4L352.4,571z"/>
				</g>
				<g class="st11">
					<path class="st10" d="M358.9,599.6c1.1,1.8,1.4,3.9,1.4,6c0,1-0.1,2.1-0.3,3.1c-0.2,1-0.5,2-1.1,2.9c0.4-0.9,0.7-1.9,0.8-2.9
						c0.2-1,0.2-2,0.2-3C360,603.5,359.7,601.5,358.9,599.6z"/>
				</g>
				<g>
					<path class="st10" d="M355.9,591.3c0.7,0.9,1.1,2,1.3,3.2c0.2,1.1,0.2,2.3,0.2,3.4c-0.1,2.3-0.5,4.6-1.4,6.6
						c0.2-1.1,0.3-2.2,0.5-3.3c0.1-1.1,0.2-2.2,0.3-3.3c0-1.1,0-2.2-0.1-3.3C356.6,593.4,356.4,592.3,355.9,591.3z"/>
				</g>
			</g>
			<path class="st12" d="M335.2,533.9c11.3,11.1,15,32,18.4,47.1c2,8.8,4.1,20.7,11,27.1c-6.8-5.7-10.1-21.5-11-29.8
				c-1.1-10.3-4.5-22.1-9.2-31.4C342.1,542.1,338.3,536.9,335.2,533.9"/>
		</g>
	</g>
	<g>
		<g>
			
				<image style="overflow:visible;" width="137" height="140" xlink:href="82FF33784ADED3D5.png"  transform="matrix(1 0 0 1 227 736)">
			</image>
		</g>
		<g>
			<g>
				<g>
					<path class="st10" d="M301.4,797.2c-1.5,1.9-2.7,4.2-3.2,6.6c-0.5,2.4-0.5,4.9-0.3,7.4c0.3,2.5,0.7,5,1,7.5
						c0.3,2.5,0.5,5,0.2,7.5c0.2-2.5,0-5-0.3-7.5c-0.4-2.5-0.9-4.9-1.2-7.4c-0.3-2.5-0.4-5.1,0.1-7.6c0.5-2.5,1.6-4.9,3.2-6.9
						L301.4,797.2z"/>
				</g>
				<g>
					<path class="st10" d="M309.8,790.7c-0.9,1.3-1.2,3-1.3,4.6c-0.1,1.6,0.2,3.3,0.5,4.9c0.6,3.3,1.8,6.4,2.5,9.7
						c0.8,3.3,1.5,6.5,1.9,9.9c0.2,1.7,0.2,3.4,0.1,5c-0.2,1.7-0.5,3.4-1.4,4.8c0.9-1.4,1.2-3.1,1.4-4.8c0.1-1.7,0-3.3-0.2-5
						c-0.4-3.3-1.2-6.6-2-9.8c-0.8-3.2-2-6.4-2.7-9.7c-0.3-1.7-0.6-3.3-0.6-5c0-1.7,0.4-3.5,1.3-5L309.8,790.7z"/>
				</g>
				<g class="st11">
					<path class="st10" d="M287.3,809.4c-1.1,1.8-2.9,3-4.7,4c-0.9,0.5-1.9,0.8-2.9,1.1c-1,0.3-2,0.4-3.1,0.4c1,0,2-0.3,3-0.6
						c1-0.3,1.9-0.7,2.8-1.2C284.2,812.2,285.9,811,287.3,809.4z"/>
				</g>
				<g>
					<path class="st10" d="M293.3,803c-0.5,1-1.3,1.9-2.2,2.6c-0.9,0.7-1.9,1.3-3,1.7c-2.1,0.9-4.3,1.6-6.6,1.8
						c1.1-0.3,2.1-0.7,3.2-1.1c1-0.4,2.1-0.8,3.1-1.3c1-0.5,2-1,2.9-1.6C291.7,804.6,292.6,803.9,293.3,803z"/>
				</g>
			</g>
			<path class="st12" d="M335.2,758.6c-4.8,15.1-21.8,27.8-33.7,37.7c-6.9,5.8-16.6,13-19.2,22.1c2-8.6,14.6-18.7,21.6-23.2
				c8.7-5.6,17.7-14,23.8-22.4C331,768.4,333.9,762.8,335.2,758.6"/>
		</g>
		<g>
			
				<image style="overflow:visible;" width="136" height="144" xlink:href="82FF33784ADED3D6.png"  transform="matrix(1 0 0 1 244 738)">
			</image>
		</g>
		<g>
			<g>
				<g>
					<path class="st10" d="M313.1,805c-0.9,2.3-1.4,4.8-1.3,7.2c0.1,2.5,0.9,4.9,1.8,7.2c0.9,2.3,2,4.6,3,6.9c1,2.3,1.8,4.7,2.2,7.2
						c-0.5-2.5-1.3-4.8-2.4-7.1c-1-2.3-2.2-4.5-3.2-6.8c-1-2.3-1.8-4.8-2-7.3c-0.2-2.5,0.2-5.1,1.2-7.5L313.1,805z"/>
				</g>
				<g>
					<path class="st10" d="M319.5,796.4c-0.5,1.5-0.4,3.2,0,4.8c0.4,1.6,1.1,3.1,1.8,4.6c1.5,3,3.4,5.7,5.1,8.7
						c1.6,2.9,3.3,5.9,4.5,9c0.6,1.6,1.2,3.2,1.5,4.8c0.3,1.6,0.4,3.4-0.1,5c0.5-1.6,0.3-3.3,0-5c-0.3-1.6-0.9-3.2-1.5-4.8
						c-1.3-3.1-3-6-4.6-8.9c-1.7-2.9-3.7-5.6-5.2-8.6c-0.8-1.5-1.5-3-1.9-4.7c-0.4-1.6-0.6-3.4-0.1-5.1L319.5,796.4z"/>
				</g>
				<g class="st11">
					<path class="st10" d="M302.9,820.5c-0.6,2-2,3.7-3.5,5.1c-0.8,0.7-1.6,1.3-2.5,1.9c-0.9,0.5-1.8,1-2.9,1.2
						c1-0.3,1.9-0.8,2.7-1.4c0.8-0.6,1.7-1.2,2.4-1.9C300.7,824,302.1,822.4,302.9,820.5z"/>
				</g>
				<g>
					<path class="st10" d="M307,812.8c-0.2,1.1-0.8,2.2-1.4,3.1c-0.7,0.9-1.5,1.7-2.4,2.5c-1.7,1.5-3.7,2.7-5.8,3.5
						c1-0.6,1.9-1.3,2.8-1.9c0.9-0.7,1.8-1.3,2.6-2.1c0.8-0.7,1.7-1.5,2.4-2.3C305.9,814.7,306.6,813.8,307,812.8z"/>
				</g>
			</g>
			<path class="st12" d="M335.2,758.6c-0.5,15.9-13.4,32.7-22.2,45.5c-5.1,7.4-12.5,17-12.4,26.4c-0.4-8.8,9-21.9,14.5-28.2
				c6.8-7.8,13.2-18.3,16.9-28C333.8,769.2,335.1,763,335.2,758.6"/>
		</g>
		<g>
			
				<image style="overflow:visible;" width="136" height="145" xlink:href="82FF33784ADED3D4.png"  transform="matrix(1 0 0 1 265 738)">
			</image>
		</g>
		<g>
			<g>
				<g>
					<path class="st10" d="M326.6,809.2c-0.3,2.5-0.1,5,0.7,7.3c0.8,2.3,2.2,4.5,3.7,6.5c1.5,2,3.2,3.9,4.8,5.8c1.6,2,3,4,4.1,6.3
						c-1.1-2.3-2.6-4.3-4.2-6.2c-1.6-1.9-3.3-3.8-4.9-5.7c-1.6-2-3-4.1-3.9-6.5c-0.9-2.4-1.2-5-0.9-7.5L326.6,809.2z"/>
				</g>
				<g>
					<path class="st10" d="M330.4,799.2c-0.1,1.6,0.5,3.2,1.3,4.6c0.8,1.4,1.9,2.7,3,4c2.2,2.5,4.9,4.6,7.2,7
						c2.4,2.4,4.7,4.8,6.8,7.4c1,1.3,2,2.7,2.7,4.2c0.7,1.5,1.3,3.1,1.3,4.8c0-1.7-0.6-3.3-1.3-4.8c-0.8-1.5-1.7-2.9-2.8-4.2
						c-2.1-2.6-4.5-5-6.9-7.3c-2.4-2.3-5-4.4-7.4-6.9c-1.2-1.2-2.3-2.5-3.1-4c-0.9-1.5-1.5-3.1-1.5-4.9L330.4,799.2z"/>
				</g>
				<g class="st11">
					<path class="st10" d="M321,827c0,2.1-0.9,4.1-1.9,5.8c-0.6,0.9-1.2,1.7-1.9,2.5c-0.7,0.7-1.5,1.4-2.4,1.9
						c0.9-0.6,1.6-1.3,2.2-2.1c0.7-0.8,1.3-1.6,1.8-2.5C319.8,830.9,320.7,829,321,827z"/>
				</g>
				<g>
					<path class="st10" d="M322.8,818.4c0.1,1.1-0.1,2.3-0.6,3.4c-0.4,1.1-1,2.1-1.6,3c-1.3,1.9-2.8,3.6-4.7,4.9
						c0.8-0.8,1.5-1.7,2.2-2.6c0.7-0.9,1.3-1.8,2-2.7c0.6-0.9,1.2-1.9,1.7-2.9C322.2,820.6,322.7,819.5,322.8,818.4z"/>
				</g>
			</g>
			<path class="st12" d="M335.2,758.6c3.8,15.4-4,35.1-9,49.8c-2.9,8.5-7.4,19.8-4.8,28.8c-2.8-8.4,2.6-23.6,6.3-31.1
				c4.5-9.3,7.7-21.2,8.6-31.5C336.8,769.2,336.3,762.9,335.2,758.6"/>
		</g>
		<g>
			
				<image style="overflow:visible;" width="132" height="149" xlink:href="82FF33784ADED3D3.png"  transform="matrix(1 0 0 1 288 737)">
			</image>
		</g>
		<g>
			<g>
				<g>
					<path class="st10" d="M340.7,809.6c0.4,2.4,1.3,4.8,2.7,6.8c1.4,2,3.3,3.7,5.3,5.2c2,1.5,4.1,2.8,6.2,4.3c2,1.5,4,3.1,5.7,5
						c-1.7-1.9-3.7-3.4-5.8-4.8c-2.1-1.4-4.2-2.7-6.3-4.2c-2-1.5-4-3.1-5.5-5.2c-1.5-2.1-2.5-4.5-3-7L340.7,809.6z"/>
				</g>
				<g>
					<path class="st10" d="M341.6,799c0.4,1.6,1.3,2.9,2.5,4.1c1.2,1.2,2.5,2.1,4,3c2.8,1.8,5.9,3.1,8.9,4.7
						c2.9,1.6,5.9,3.3,8.6,5.3c1.4,1,2.6,2.1,3.8,3.3c1.1,1.2,2.1,2.7,2.5,4.3c-0.5-1.6-1.5-3-2.6-4.2c-1.1-1.2-2.4-2.3-3.8-3.3
						c-2.7-1.9-5.7-3.6-8.6-5.1c-2.9-1.6-6.1-2.9-9-4.6c-1.4-0.9-2.9-1.8-4.1-3c-1.2-1.2-2.3-2.6-2.7-4.3L341.6,799z"/>
				</g>
				<g class="st11">
					<path class="st10" d="M340.1,828.3c0.5,2,0.3,4.2-0.3,6.1c-0.3,1-0.7,2-1.1,2.9c-0.5,0.9-1.1,1.8-1.8,2.5
						c0.7-0.8,1.2-1.7,1.6-2.6c0.4-0.9,0.8-1.9,1.1-2.9C340.1,832.4,340.4,830.3,340.1,828.3z"/>
				</g>
				<g>
					<path class="st10" d="M339.5,819.5c0.5,1.1,0.5,2.3,0.4,3.4c-0.1,1.1-0.4,2.3-0.7,3.4c-0.7,2.2-1.7,4.2-3.1,6
						c0.5-1,0.9-2,1.4-3.1c0.4-1,0.8-2.1,1.2-3.1c0.3-1.1,0.6-2.1,0.8-3.2C339.6,821.7,339.7,820.6,339.5,819.5z"/>
				</g>
			</g>
			<path class="st12" d="M335.2,758.6c7.9,13.8,5.7,34.9,4.9,50.4c-0.5,9-1.7,21,3.3,29c-5-7.3-3.9-23.4-2.4-31.6
				c1.8-10.2,1.6-22.5-0.3-32.7C339.6,768.4,337.4,762.4,335.2,758.6"/>
		</g>
		<g>
			
				<image style="overflow:visible;" width="127" height="148" xlink:href="82FF33784ADED3CD.png"  transform="matrix(1 0 0 1 308 736)">
			</image>
		</g>
		<g>
			<g>
				<g>
					<path class="st10" d="M354.4,806.2c1,2.2,2.5,4.3,4.5,5.8c1.9,1.6,4.2,2.7,6.5,3.6c2.3,0.9,4.8,1.6,7.1,2.5
						c2.4,0.8,4.7,1.9,6.8,3.2c-2.1-1.3-4.5-2.3-6.9-3.1c-2.4-0.8-4.8-1.5-7.2-2.3c-2.4-0.8-4.7-1.9-6.7-3.5c-2-1.6-3.6-3.6-4.8-5.9
						L354.4,806.2z"/>
				</g>
				<g>
					<path class="st10" d="M352.4,795.7c0.8,1.4,2.1,2.5,3.5,3.2c1.4,0.8,3,1.3,4.6,1.8c3.2,0.9,6.5,1.3,9.8,2.1
						c3.3,0.8,6.5,1.6,9.7,2.8c1.6,0.6,3.1,1.3,4.5,2.2c1.4,0.9,2.8,2,3.6,3.4c-0.9-1.4-2.2-2.5-3.7-3.4c-1.4-0.9-3-1.5-4.6-2.1
						c-3.2-1.1-6.4-1.9-9.7-2.6c-3.3-0.7-6.6-1.1-9.9-2c-1.6-0.4-3.2-1-4.8-1.8c-1.5-0.8-2.9-1.9-3.8-3.4L352.4,795.7z"/>
				</g>
				<g class="st11">
					<path class="st10" d="M358.9,824.3c1.1,1.8,1.4,3.9,1.4,6c0,1-0.1,2.1-0.3,3.1c-0.2,1-0.5,2-1.1,2.9c0.4-0.9,0.7-1.9,0.8-2.9
						c0.2-1,0.2-2,0.2-3C360,828.3,359.7,826.2,358.9,824.3z"/>
				</g>
				<g>
					<path class="st10" d="M355.9,816c0.7,0.9,1.1,2,1.3,3.2c0.2,1.1,0.2,2.3,0.2,3.4c-0.1,2.3-0.5,4.6-1.4,6.6
						c0.2-1.1,0.3-2.2,0.5-3.3c0.1-1.1,0.2-2.2,0.3-3.3c0-1.1,0-2.2-0.1-3.3C356.6,818.2,356.4,817.1,355.9,816z"/>
				</g>
			</g>
			<path class="st12" d="M335.2,758.6c11.3,11.1,15,32,18.4,47.1c2,8.8,4.1,20.7,11,27.1c-6.8-5.7-10.1-21.5-11-29.8
				c-1.1-10.3-4.5-22.1-9.2-31.4C342.1,766.8,338.3,761.7,335.2,758.6"/>
		</g>
	</g>
	<g>
		<g>
			
				<image style="overflow:visible;" width="147" height="134" xlink:href="82FF33784ADED3CE.png"  transform="matrix(1 0 0 1 145 443)">
			</image>
		</g>
		<g>
			<g>
				<g>
					<path class="st10" d="M219.8,500.6c-2.5,0-4.9,0.5-7.2,1.6c-2.2,1.1-4.2,2.7-6,4.4c-1.8,1.8-3.4,3.7-5.2,5.4
						c-1.8,1.8-3.6,3.5-5.8,4.8c2.1-1.4,3.9-3.1,5.7-4.9c1.7-1.8,3.3-3.8,5.1-5.6c1.8-1.8,3.7-3.5,6-4.6c2.3-1.2,4.8-1.8,7.4-1.8
						L219.8,500.6z"/>
				</g>
				<g>
					<path class="st10" d="M230.2,503.2c-1.6,0.1-3.1,0.9-4.4,1.9c-1.3,1-2.5,2.2-3.6,3.4c-2.2,2.5-3.9,5.4-6,8
						c-2.1,2.6-4.2,5.3-6.6,7.6c-1.2,1.2-2.5,2.3-3.9,3.2c-1.4,0.9-3,1.7-4.6,1.8c1.7-0.2,3.2-1,4.6-1.9c1.4-0.9,2.6-2.1,3.8-3.3
						c2.3-2.4,4.4-5.1,6.4-7.7c2-2.7,3.8-5.5,5.9-8.1c1.1-1.3,2.2-2.5,3.6-3.6c1.3-1,2.9-1.9,4.7-2L230.2,503.2z"/>
				</g>
				<g class="st11">
					<path class="st10" d="M201.5,497.2c-2.1,0.2-4.1-0.4-6-1.2c-0.9-0.4-1.8-1-2.7-1.6c-0.8-0.6-1.6-1.3-2.2-2.2
						c0.7,0.8,1.5,1.4,2.3,2c0.8,0.6,1.7,1.1,2.7,1.5C197.5,496.5,199.5,497.1,201.5,497.2z"/>
				</g>
				<g>
					<path class="st10" d="M210.3,497.9c-1.1,0.3-2.3,0.1-3.4-0.1c-1.1-0.3-2.2-0.7-3.2-1.2c-2-1-3.9-2.3-5.5-4
						c0.9,0.7,1.9,1.2,2.8,1.8c1,0.6,1.9,1.1,2.9,1.6c1,0.5,2,1,3.1,1.3C208.1,497.7,209.1,498,210.3,497.9z"/>
				</g>
			</g>
			<path class="st12" d="M271.1,503c-14.8,5.7-35.3,0.3-50.5-2.9c-8.8-1.8-20.5-4.9-29.2-1.2c8-3.8,23.7-0.2,31.6,2.4
				c9.8,3.3,22,5.1,32.3,4.7C260.8,505.8,267,504.6,271.1,503"/>
		</g>
		<g>
			
				<image style="overflow:visible;" width="149" height="129" xlink:href="82FF33784ADED3CC.png"  transform="matrix(1 0 0 1 144 466)">
			</image>
		</g>
		<g>
			<g>
				<g>
					<path class="st10" d="M221.1,514.7c-2.4,0.7-4.6,1.9-6.4,3.5c-1.9,1.6-3.3,3.7-4.5,5.9c-1.2,2.2-2.3,4.4-3.5,6.7
						c-1.2,2.2-2.5,4.4-4.2,6.2c1.7-1.9,2.9-4.1,4.1-6.3c1.2-2.2,2.2-4.5,3.4-6.7c1.2-2.2,2.6-4.4,4.5-6.1c1.9-1.8,4.2-3,6.6-3.8
						L221.1,514.7z"/>
				</g>
				<g>
					<path class="st10" d="M231.8,514.3c-1.5,0.6-2.7,1.7-3.7,3c-1,1.3-1.8,2.8-2.5,4.3c-1.4,3-2.3,6.3-3.6,9.4
						c-1.3,3.1-2.6,6.2-4.2,9.1c-0.8,1.5-1.8,2.9-2.9,4.1c-1.1,1.3-2.4,2.4-4,3c1.6-0.7,2.8-1.8,3.9-3.1c1.1-1.3,2-2.7,2.8-4.2
						c1.6-2.9,2.8-6.1,4.1-9.2c1.2-3.1,2.1-6.4,3.5-9.5c0.7-1.5,1.5-3.1,2.5-4.4c1-1.4,2.3-2.6,4-3.3L231.8,514.3z"/>
				</g>
				<g class="st11">
					<path class="st10" d="M202.6,516.4c-1.9,0.8-4.1,0.8-6.1,0.5c-1-0.2-2-0.4-3-0.8c-1-0.4-1.9-0.8-2.7-1.5c0.9,0.6,1.8,1,2.8,1.3
						c1,0.3,2,0.6,3,0.7C198.5,516.8,200.6,516.9,202.6,516.4z"/>
				</g>
				<g>
					<path class="st10" d="M211.2,514.7c-1,0.6-2.2,0.8-3.3,0.8c-1.1,0-2.3-0.1-3.4-0.3c-2.2-0.5-4.4-1.2-6.4-2.4
						c1.1,0.4,2.1,0.7,3.2,1c1.1,0.3,2.2,0.6,3.3,0.8c1.1,0.2,2.2,0.4,3.3,0.4C209,515,210.1,515,211.2,514.7z"/>
				</g>
			</g>
			<path class="st12" d="M271.1,503c-12.7,9.5-33.9,9.9-49.4,11c-9,0.6-21.1,0.9-28.4,6.8c6.7-5.8,22.7-6.7,31.1-6.3
				c10.3,0.5,22.5-1.1,32.4-4.3C262,508.5,267.6,505.6,271.1,503"/>
		</g>
		<g>
			
				<image style="overflow:visible;" width="146" height="132" xlink:href="82FF33784ADED3F2.png"  transform="matrix(1 0 0 1 149 477)">
			</image>
		</g>
		<g>
			<g>
				<g>
					<path class="st10" d="M226.2,527.8c-2.1,1.3-3.9,3-5.2,5.1c-1.3,2.1-2.2,4.5-2.8,6.9c-0.6,2.4-1,4.9-1.6,7.4
						c-0.6,2.5-1.3,4.9-2.4,7.1c1.1-2.3,1.7-4.7,2.2-7.2c0.5-2.5,0.9-4.9,1.4-7.4c0.6-2.5,1.3-4.9,2.7-7.1c1.3-2.2,3.2-4,5.3-5.4
						L226.2,527.8z"/>
				</g>
				<g>
					<path class="st10" d="M236.4,524.6c-1.3,0.9-2.2,2.4-2.8,3.9c-0.6,1.5-1,3.2-1.2,4.8c-0.5,3.3-0.5,6.7-0.9,10
						c-0.4,3.3-0.8,6.7-1.6,9.9c-0.4,1.6-0.9,3.2-1.6,4.8c-0.7,1.5-1.6,3-3,4c1.3-1,2.2-2.5,2.9-4c0.7-1.5,1.2-3.1,1.5-4.8
						c0.7-3.3,1.1-6.6,1.4-9.9c0.3-3.3,0.3-6.7,0.8-10c0.2-1.7,0.6-3.3,1.2-4.9c0.6-1.6,1.5-3.1,2.9-4.2L236.4,524.6z"/>
				</g>
				<g class="st11">
					<path class="st10" d="M208.8,534.5c-1.6,1.3-3.7,1.8-5.8,2.1c-1,0.1-2.1,0.2-3.1,0.1c-1-0.1-2.1-0.3-3-0.7c1,0.3,2,0.4,3,0.5
						c1,0,2,0,3.1-0.1C205,536.1,207,535.6,208.8,534.5z"/>
				</g>
				<g>
					<path class="st10" d="M216.6,530.6c-0.8,0.8-1.9,1.3-3,1.7c-1.1,0.3-2.2,0.5-3.4,0.6c-2.3,0.2-4.6,0.1-6.8-0.6
						c1.1,0.1,2.3,0.1,3.4,0.1c1.1,0,2.2-0.1,3.3-0.2c1.1-0.1,2.2-0.2,3.3-0.5C214.6,531.5,215.7,531.2,216.6,530.6z"/>
				</g>
			</g>
			<path class="st12" d="M271.1,503c-9.7,12.6-30,18.8-44.5,24c-8.5,3.1-20,6.6-25.5,14.2c4.8-7.4,20.1-12.6,28.2-14.5
				c10.1-2.3,21.4-7.2,30-12.9C263.8,510.8,268.5,506.5,271.1,503"/>
		</g>
		<g>
			
				<image style="overflow:visible;" width="140" height="139" xlink:href="82FF33784ADED3F5.png"  transform="matrix(1 0 0 1 159 480)">
			</image>
		</g>
		<g>
			<g>
				<g>
					<path class="st10" d="M234.6,539.1c-1.7,1.8-2.9,4-3.6,6.4c-0.7,2.4-0.9,4.9-0.8,7.4c0.1,2.5,0.4,5,0.5,7.5
						c0.1,2.5,0.1,5-0.4,7.5c0.4-2.5,0.4-5,0.2-7.5c-0.2-2.5-0.5-5-0.6-7.5c-0.1-2.5,0-5.1,0.6-7.5c0.7-2.5,2-4.7,3.6-6.7
						L234.6,539.1z"/>
				</g>
				<g>
					<path class="st10" d="M243.5,533.2c-1,1.3-1.5,2.9-1.6,4.5c-0.2,1.6-0.1,3.3,0.1,5c0.4,3.3,1.3,6.6,1.8,9.9
						c0.5,3.3,1.1,6.6,1.2,10c0.1,1.7,0,3.4-0.3,5c-0.3,1.6-0.8,3.3-1.8,4.7c1-1.4,1.5-3,1.7-4.7c0.2-1.7,0.3-3.3,0.2-5
						c-0.2-3.3-0.8-6.6-1.4-10c-0.6-3.3-1.5-6.5-2-9.9c-0.2-1.7-0.4-3.4-0.2-5.1c0.1-1.7,0.6-3.4,1.7-4.9L243.5,533.2z"/>
				</g>
				<g class="st11">
					<path class="st10" d="M219.7,550.3c-1.2,1.7-3.1,2.8-5,3.6c-1,0.4-1.9,0.7-3,0.9c-1,0.2-2.1,0.3-3.1,0.1c1,0,2-0.1,3-0.4
						c1-0.2,2-0.6,2.9-1C216.5,552.8,218.3,551.8,219.7,550.3z"/>
				</g>
				<g>
					<path class="st10" d="M226.2,544.4c-0.5,1-1.5,1.8-2.4,2.4c-1,0.6-2,1.1-3.1,1.5c-2.1,0.8-4.4,1.3-6.7,1.3
						c1.1-0.2,2.2-0.5,3.3-0.9c1.1-0.3,2.1-0.7,3.2-1.1c1-0.4,2.1-0.8,3-1.3C224.5,545.8,225.4,545.2,226.2,544.4z"/>
				</g>
			</g>
			<path class="st12" d="M271.1,503c-5.9,14.8-23.7,26.2-36.3,35.2c-7.3,5.3-17.5,11.8-20.7,20.6c2.6-8.4,15.9-17.6,23.2-21.6
				c9.1-5,18.6-12.7,25.4-20.6C266.2,512.5,269.5,507.1,271.1,503"/>
		</g>
		<g>
			
				<image style="overflow:visible;" width="135" height="144" xlink:href="82FF33784ADED3E9.png"  transform="matrix(1 0 0 1 175 482)">
			</image>
		</g>
		<g>
			<g>
				<g>
					<path class="st10" d="M245.8,547.7c-1.1,2.2-1.7,4.6-1.8,7.1c0,2.5,0.5,4.9,1.3,7.3c0.8,2.4,1.7,4.7,2.5,7.1
						c0.8,2.4,1.5,4.8,1.7,7.3c-0.3-2.5-1-4.9-1.9-7.3c-0.9-2.4-1.9-4.7-2.7-7.1c-0.8-2.4-1.4-4.9-1.4-7.4c0-2.6,0.6-5.1,1.7-7.4
						L245.8,547.7z"/>
				</g>
				<g>
					<path class="st10" d="M252.8,539.6c-0.6,1.5-0.6,3.2-0.3,4.8c0.3,1.6,0.8,3.2,1.5,4.7c1.3,3.1,3,6,4.4,9c1.4,3,2.8,6.1,3.9,9.3
						c0.5,1.6,0.9,3.2,1.1,4.9c0.2,1.7,0.2,3.4-0.4,5c0.6-1.6,0.6-3.3,0.4-5c-0.2-1.7-0.7-3.3-1.2-4.9c-1.1-3.2-2.5-6.2-4-9.2
						c-1.5-3-3.3-5.9-4.6-9c-0.7-1.5-1.3-3.1-1.6-4.8c-0.3-1.7-0.3-3.5,0.3-5.1L252.8,539.6z"/>
				</g>
				<g class="st11">
					<path class="st10" d="M234.5,562.5c-0.7,1.9-2.2,3.5-3.8,4.8c-0.8,0.6-1.7,1.2-2.6,1.7c-0.9,0.5-1.9,0.8-2.9,1
						c1-0.3,1.9-0.7,2.8-1.2c0.9-0.5,1.7-1.1,2.5-1.7C232.1,565.8,233.6,564.3,234.5,562.5z"/>
				</g>
				<g>
					<path class="st10" d="M239.1,555c-0.2,1.1-0.9,2.1-1.7,3c-0.8,0.9-1.6,1.6-2.5,2.3c-1.8,1.3-3.9,2.5-6.1,3.1
						c1-0.5,2-1.1,2.9-1.7c0.9-0.6,1.9-1.2,2.8-1.9c0.9-0.7,1.8-1.4,2.6-2.1C237.9,556.9,238.6,556.1,239.1,555z"/>
				</g>
			</g>
			<path class="st12" d="M271.1,503c-1.6,15.8-15.7,31.7-25.4,43.8c-5.6,7-13.6,16.1-14.3,25.5c0.2-8.8,10.5-21.3,16.4-27.1
				c7.4-7.3,14.4-17.3,18.8-26.7C269,513.5,270.7,507.4,271.1,503"/>
		</g>
	</g>
	<g>
		<g>
			
				<image style="overflow:visible;" width="135" height="144" xlink:href="82FF33784ADED3EB.png"  transform="matrix(1 0 0 1 145 315)">
			</image>
		</g>
		<g>
			<g>
				<g>
					<path class="st10" d="M225.2,392.1c-1.6-1.9-3.5-3.5-5.7-4.6c-2.2-1.1-4.7-1.6-7.2-1.9c-2.5-0.3-5-0.4-7.5-0.7
						c-2.5-0.3-5-0.7-7.4-1.5c2.4,0.8,4.9,1.1,7.4,1.3c2.5,0.2,5,0.3,7.5,0.5c2.5,0.3,5,0.7,7.4,1.8c2.3,1,4.4,2.7,6,4.6
						L225.2,392.1z"/>
				</g>
				<g>
					<path class="st10" d="M229.7,401.8c-1.1-1.2-2.6-1.9-4.2-2.3c-1.6-0.4-3.3-0.6-4.9-0.6c-3.3-0.1-6.7,0.3-10,0.3
						c-3.4,0-6.7,0-10.1-0.4c-1.7-0.2-3.3-0.5-4.9-1c-1.6-0.5-3.2-1.3-4.3-2.5c1.2,1.2,2.8,1.9,4.4,2.4c1.6,0.5,3.3,0.8,4.9,0.9
						c3.3,0.3,6.7,0.3,10,0.2c3.3-0.1,6.7-0.5,10.1-0.5c1.7,0,3.4,0.2,5,0.6c1.6,0.4,3.3,1.1,4.5,2.4L229.7,401.8z"/>
				</g>
				<g class="st11">
					<path class="st10" d="M216.4,375.6c-1.5-1.5-2.3-3.5-2.8-5.5c-0.2-1-0.4-2-0.4-3.1c0-1,0-2.1,0.3-3.1c-0.2,1-0.2,2-0.1,3.1
						c0.1,1,0.3,2,0.5,3C214.4,372.1,215.2,374,216.4,375.6z"/>
				</g>
				<g>
					<path class="st10" d="M221.3,382.9c-0.9-0.7-1.5-1.7-2-2.7c-0.5-1-0.8-2.2-1-3.3c-0.4-2.2-0.6-4.5-0.3-6.8
						c0.1,1.1,0.2,2.2,0.3,3.4c0.2,1.1,0.3,2.2,0.6,3.3c0.2,1.1,0.5,2.2,0.9,3.2C220.1,381,220.6,382.1,221.3,382.9z"/>
				</g>
			</g>
			<path class="st12" d="M255.3,433.7c-13.7-8.1-22.3-27.5-29.3-41.3c-4.1-8-9-19.1-17.2-23.6c7.9,3.9,15,18.4,17.8,26.2
				c3.5,9.7,9.7,20.3,16.5,28.2C246.6,427.4,251.5,431.4,255.3,433.7"/>
		</g>
		<g>
			
				<image style="overflow:visible;" width="141" height="135" xlink:href="82FF33784ADED3E8.png"  transform="matrix(1 0 0 1 136 328)">
			</image>
		</g>
		<g>
			<g>
				<g>
					<path class="st10" d="M215,401.8c-2-1.4-4.3-2.4-6.8-2.8c-2.4-0.4-5-0.3-7.4,0.1c-2.5,0.4-4.9,1-7.4,1.4
						c-2.5,0.4-5,0.7-7.5,0.6c2.5,0.1,5-0.2,7.5-0.7c2.5-0.5,4.9-1.1,7.4-1.6c2.5-0.4,5-0.7,7.6-0.3c2.5,0.4,4.9,1.4,7.1,2.8
						L215,401.8z"/>
				</g>
				<g>
					<path class="st10" d="M222,410c-1.4-0.8-3-1.1-4.7-1.1c-1.6,0-3.3,0.3-4.9,0.7c-3.2,0.8-6.3,2.1-9.6,3
						c-3.2,0.9-6.5,1.9-9.8,2.4c-1.7,0.3-3.3,0.4-5,0.4c-1.7-0.1-3.4-0.4-4.8-1.2c1.5,0.8,3.2,1.1,4.8,1.1c1.7,0,3.3-0.1,5-0.4
						c3.3-0.6,6.5-1.6,9.7-2.6c3.2-1,6.3-2.3,9.6-3.2c1.6-0.4,3.3-0.8,5-0.8c1.7-0.1,3.5,0.2,5,1.1L222,410z"/>
				</g>
				<g class="st11">
					<path class="st10" d="M202.1,388.4c-1.8-1-3.1-2.7-4.2-4.5c-0.5-0.9-0.9-1.8-1.3-2.8c-0.3-1-0.5-2-0.5-3c0.1,1,0.4,2,0.7,3
						c0.4,1,0.8,1.9,1.3,2.8C199.2,385.5,200.5,387.1,202.1,388.4z"/>
				</g>
				<g>
					<path class="st10" d="M208.8,394.1c-1.1-0.4-2-1.2-2.7-2.1c-0.7-0.9-1.3-1.9-1.9-2.9c-1-2-1.8-4.2-2.1-6.5
						c0.4,1.1,0.8,2.1,1.2,3.1c0.4,1,0.9,2,1.4,3c0.5,1,1.1,1.9,1.7,2.9C207.1,392.6,207.8,393.4,208.8,394.1z"/>
				</g>
			</g>
			<path class="st12" d="M255.3,433.7c-15.4-4-28.9-20.4-39.4-31.8c-6.1-6.6-13.8-15.9-23-18c8.7,1.6,19.4,13.6,24.3,20.4
				c6,8.4,14.9,16.9,23.6,22.7C245.2,429.9,251,432.6,255.3,433.7"/>
		</g>
		<g>
			
				<image style="overflow:visible;" width="145" height="136" xlink:href="82FF33784ADED417.png"  transform="matrix(1 0 0 1 131 346)">
			</image>
		</g>
		<g>
			<g>
				<g>
					<path class="st10" d="M207.9,414c-2.3-0.8-4.8-1.2-7.3-0.9c-2.5,0.3-4.8,1.1-7.1,2.1c-2.3,1-4.5,2.3-6.7,3.4
						c-2.3,1.1-4.6,2.1-7.1,2.6c2.4-0.6,4.8-1.6,7-2.7c2.2-1.1,4.4-2.4,6.7-3.5c2.3-1.1,4.7-2,7.2-2.3c2.5-0.3,5.1,0,7.6,0.8
						L207.9,414z"/>
				</g>
				<g>
					<path class="st10" d="M216.8,419.9c-1.5-0.4-3.2-0.2-4.8,0.2c-1.6,0.5-3.1,1.2-4.5,2c-2.9,1.6-5.5,3.7-8.4,5.5
						c-2.8,1.8-5.7,3.6-8.8,5c-1.5,0.7-3.1,1.3-4.7,1.7c-1.6,0.4-3.3,0.6-5,0.2c1.6,0.4,3.4,0.2,5-0.2c1.6-0.4,3.2-1,4.7-1.8
						c3-1.5,5.8-3.3,8.7-5.1c2.8-1.8,5.4-3.9,8.3-5.7c1.5-0.9,3-1.6,4.6-2.2c1.6-0.5,3.4-0.8,5.1-0.3L216.8,419.9z"/>
				</g>
				<g class="st11">
					<path class="st10" d="M191.8,404.6c-2-0.5-3.8-1.8-5.3-3.2c-0.7-0.7-1.4-1.5-2-2.4c-0.6-0.9-1.1-1.8-1.3-2.8
						c0.4,1,0.9,1.8,1.5,2.7c0.6,0.8,1.3,1.6,2,2.3C188.2,402.6,189.9,403.8,191.8,404.6z"/>
				</g>
				<g>
					<path class="st10" d="M199.8,408.2c-1.1-0.1-2.2-0.6-3.2-1.3c-1-0.6-1.8-1.4-2.6-2.2c-1.5-1.7-2.9-3.5-3.8-5.6
						c0.6,0.9,1.3,1.8,2,2.7c0.7,0.9,1.4,1.7,2.2,2.5c0.8,0.8,1.6,1.6,2.4,2.3C197.8,407.2,198.7,407.9,199.8,408.2z"/>
				</g>
			</g>
			<path class="st12" d="M255.3,433.7c-15.9,0.3-33.3-11.7-46.6-19.8c-7.7-4.7-17.6-11.6-27-11.1c8.8-0.8,22.4,7.8,28.9,13
				c8.1,6.4,18.9,12.2,28.8,15.4C244.6,432.8,250.9,433.8,255.3,433.7"/>
		</g>
		<g>
			
				<image style="overflow:visible;" width="145" height="136" xlink:href="82FF33784ADED419.png"  transform="matrix(1 0 0 1 131 367)">
			</image>
		</g>
		<g>
			<g>
				<g>
					<path class="st10" d="M204.3,427.7c-2.5-0.2-5,0.2-7.3,1.1c-2.3,0.9-4.4,2.4-6.3,4c-1.9,1.6-3.7,3.4-5.6,5.1
						c-1.9,1.7-3.9,3.2-6.1,4.4c2.2-1.2,4.2-2.8,6-4.5c1.8-1.7,3.6-3.5,5.5-5.2c1.9-1.7,3.9-3.2,6.3-4.2c2.3-1,4.9-1.4,7.5-1.3
						L204.3,427.7z"/>
				</g>
				<g>
					<path class="st10" d="M214.5,430.9c-1.6,0-3.2,0.7-4.5,1.5c-1.4,0.9-2.6,2-3.8,3.2c-2.3,2.4-4.3,5.1-6.6,7.6
						c-2.3,2.5-4.5,5-7.1,7.2c-1.3,1.1-2.6,2.1-4.1,2.9c-1.5,0.8-3.1,1.5-4.8,1.5c1.7-0.1,3.3-0.8,4.7-1.6c1.4-0.8,2.8-1.9,4-3
						c2.5-2.2,4.7-4.7,6.9-7.3c2.2-2.5,4.1-5.3,6.5-7.7c1.2-1.2,2.4-2.4,3.8-3.3c1.4-0.9,3.1-1.7,4.8-1.7L214.5,430.9z"/>
				</g>
				<g class="st11">
					<path class="st10" d="M186.3,422.9c-2.1,0.1-4.1-0.7-5.9-1.6c-0.9-0.5-1.8-1.1-2.6-1.7c-0.8-0.7-1.5-1.4-2-2.3
						c0.6,0.8,1.4,1.5,2.2,2.1c0.8,0.6,1.7,1.2,2.6,1.7C182.3,422,184.2,422.8,186.3,422.9z"/>
				</g>
				<g>
					<path class="st10" d="M194.9,424.3c-1.1,0.2-2.3,0-3.4-0.4c-1.1-0.4-2.1-0.9-3.1-1.5c-1.9-1.2-3.8-2.6-5.2-4.4
						c0.9,0.7,1.8,1.4,2.7,2c0.9,0.6,1.8,1.3,2.8,1.8c1,0.6,1.9,1.1,2.9,1.5C192.8,423.9,193.8,424.3,194.9,424.3z"/>
				</g>
			</g>
			<path class="st12" d="M255.3,433.7c-15.2,4.6-35.3-2.2-50.2-6.4c-8.7-2.5-20.1-6.3-29-3.3c8.2-3.2,23.7,1.4,31.4,4.7
				c9.5,4,21.6,6.6,31.9,7C244.8,435.8,251.1,435,255.3,433.7"/>
		</g>
		<g>
			
				<image style="overflow:visible;" width="149" height="131" xlink:href="82FF33784ADED41B.png"  transform="matrix(1 0 0 1 128 391)">
			</image>
		</g>
		<g>
			<g>
				<g>
					<path class="st10" d="M204.6,441.8c-2.4,0.5-4.7,1.5-6.7,3.1c-2,1.5-3.6,3.5-4.9,5.6c-1.4,2.1-2.6,4.3-4,6.4
						c-1.4,2.1-2.8,4.2-4.7,5.9c1.8-1.8,3.2-3.9,4.5-6c1.3-2.1,2.5-4.4,3.8-6.5c1.4-2.1,2.9-4.2,4.9-5.8c2-1.6,4.4-2.7,6.8-3.3
						L204.6,441.8z"/>
				</g>
				<g>
					<path class="st10" d="M215.3,442.1c-1.5,0.5-2.9,1.5-3.9,2.7c-1.1,1.2-2,2.6-2.8,4.1c-1.6,2.9-2.8,6.1-4.3,9.1
						c-1.5,3-3,6-4.9,8.8c-0.9,1.4-2,2.7-3.1,3.9c-1.2,1.2-2.6,2.2-4.2,2.8c1.6-0.5,2.9-1.6,4.1-2.8c1.2-1.2,2.2-2.6,3.1-4
						c1.8-2.8,3.3-5.8,4.7-8.9c1.4-3,2.6-6.2,4.1-9.2c0.8-1.5,1.7-3,2.8-4.2c1.1-1.3,2.5-2.4,4.2-3L215.3,442.1z"/>
				</g>
				<g class="st11">
					<path class="st10" d="M186,442.1c-2,0.6-4.1,0.5-6.1,0c-1-0.2-2-0.6-2.9-1c-0.9-0.4-1.8-1-2.6-1.7c0.8,0.6,1.7,1.1,2.7,1.5
						c0.9,0.4,1.9,0.7,2.9,0.9C181.9,442.3,183.9,442.5,186,442.1z"/>
				</g>
				<g>
					<path class="st10" d="M194.7,441.1c-1,0.5-2.2,0.6-3.4,0.6c-1.1,0-2.3-0.3-3.4-0.6c-2.2-0.6-4.3-1.5-6.2-2.8
						c1,0.5,2.1,0.8,3.1,1.2c1.1,0.4,2.1,0.7,3.2,1c1.1,0.3,2.2,0.5,3.3,0.7C192.5,441.3,193.6,441.4,194.7,441.1z"/>
				</g>
			</g>
			<path class="st12" d="M255.3,433.7c-13.4,8.6-34.5,7.5-50.1,7.5c-9,0-21.1-0.6-28.8,4.7c7-5.3,23.2-5.1,31.4-4.1
				c10.3,1.2,22.5,0.5,32.6-2C245.8,438.5,251.6,436,255.3,433.7"/>
		</g>
	</g>
	<g>
		<g>
			
				<image style="overflow:visible;" width="136" height="146" xlink:href="82FF33784ADED418.png"  transform="matrix(1 0 0 1 242 253)">
			</image>
		</g>
		<g>
			<g>
				<g>
					<path class="st10" d="M313.4,328.6c0.5-2.4,0.6-4.9,0-7.3c-0.6-2.4-1.7-4.7-3-6.8c-1.3-2.1-2.8-4.2-4.2-6.3
						c-1.4-2.1-2.6-4.3-3.4-6.7c0.9,2.4,2.2,4.5,3.6,6.6c1.4,2.1,2.9,4.1,4.3,6.2c1.4,2.1,2.6,4.4,3.2,6.9c0.6,2.5,0.7,5.1,0.2,7.6
						L313.4,328.6z"/>
				</g>
				<g>
					<path class="st10" d="M308.6,338.2c0.2-1.6-0.2-3.2-0.8-4.7c-0.7-1.5-1.6-2.9-2.6-4.2c-2-2.7-4.4-5-6.5-7.7
						c-2.1-2.6-4.2-5.2-6-8.1c-0.9-1.4-1.7-2.9-2.3-4.5c-0.6-1.6-1-3.3-0.8-4.9c-0.2,1.7,0.2,3.4,0.8,4.9c0.6,1.6,1.4,3,2.3,4.4
						c1.8,2.8,4,5.4,6.1,8c2.1,2.6,4.6,4.9,6.6,7.6c1,1.3,2,2.7,2.7,4.3c0.7,1.5,1.2,3.3,0.9,5L308.6,338.2z"/>
				</g>
				<g class="st11">
					<path class="st10" d="M320.8,311.5c0.2-2.1,1.3-4,2.5-5.6c0.6-0.8,1.3-1.6,2.1-2.3c0.8-0.7,1.6-1.3,2.6-1.7
						c-0.9,0.5-1.7,1.1-2.4,1.8c-0.7,0.7-1.4,1.5-2,2.3C322.3,307.7,321.3,309.5,320.8,311.5z"/>
				</g>
				<g>
					<path class="st10" d="M318.1,319.9c0-1.1,0.4-2.3,0.9-3.3c0.5-1,1.2-2,1.9-2.8c1.5-1.7,3.2-3.3,5.1-4.4
						c-0.8,0.8-1.6,1.6-2.4,2.4c-0.8,0.8-1.5,1.6-2.2,2.5c-0.7,0.9-1.4,1.7-2,2.7C318.9,317.8,318.3,318.7,318.1,319.9z"/>
				</g>
			</g>
			<path class="st12" d="M299.6,378c-2.2-15.7,7.6-34.5,14-48.6c3.8-8.2,9.3-18.9,7.7-28.2c1.9,8.6-5,23.2-9.4,30.3
				c-5.4,8.8-9.8,20.3-11.8,30.5C299.2,367.4,299,373.7,299.6,378"/>
		</g>
		<g>
			
				<image style="overflow:visible;" width="134" height="147" xlink:href="82FF33784ADED41F.png"  transform="matrix(1 0 0 1 222 252)">
			</image>
		</g>
		<g>
			<g>
				<g>
					<path class="st10" d="M299.4,326.7c-0.1-2.5-0.8-4.9-2-7.1c-1.2-2.2-2.9-4-4.7-5.7c-1.8-1.7-3.8-3.3-5.7-4.9
						c-1.9-1.7-3.7-3.5-5.1-5.5c1.5,2,3.3,3.8,5.2,5.4c1.9,1.6,3.9,3.1,5.8,4.8c1.9,1.7,3.7,3.5,4.9,5.7c1.3,2.2,2,4.7,2.2,7.3
						L299.4,326.7z"/>
				</g>
				<g>
					<path class="st10" d="M297.4,337.2c-0.2-1.6-1-3.1-2.1-4.3c-1-1.3-2.3-2.4-3.6-3.4c-2.6-2-5.6-3.7-8.3-5.6
						c-2.7-1.9-5.5-3.9-8-6.2c-1.2-1.1-2.4-2.4-3.4-3.7c-1-1.3-1.8-2.9-2.1-4.5c0.3,1.7,1.1,3.2,2.1,4.5c1,1.3,2.2,2.5,3.5,3.6
						c2.5,2.2,5.3,4.1,8,6c2.8,1.9,5.7,3.5,8.4,5.5c1.4,1,2.7,2.1,3.8,3.4c1.1,1.3,2,2.8,2.3,4.6L297.4,337.2z"/>
				</g>
				<g class="st11">
					<path class="st10" d="M301.9,308.2c-0.3-2.1,0.2-4.2,0.9-6.1c0.4-1,0.9-1.9,1.4-2.8c0.6-0.9,1.2-1.7,2.1-2.3
						c-0.7,0.7-1.3,1.6-1.9,2.4c-0.5,0.9-1,1.8-1.3,2.7C302.3,304.2,301.8,306.2,301.9,308.2z"/>
				</g>
				<g>
					<path class="st10" d="M301.6,317c-0.3-1.1-0.3-2.3,0-3.4c0.2-1.1,0.6-2.2,1.1-3.3c0.9-2.1,2.1-4.1,3.7-5.7
						c-0.6,1-1.1,1.9-1.7,2.9c-0.5,1-1,2-1.5,3c-0.5,1-0.9,2.1-1.2,3.1C301.7,314.8,301.5,315.9,301.6,317z"/>
				</g>
			</g>
			<path class="st12" d="M299.6,378c-6.4-14.5-2.1-35.3,0.3-50.6c1.4-8.9,3.8-20.7-0.3-29.2c4.2,7.8,1.4,23.7-0.8,31.7
				c-2.8,10-3.9,22.2-3,32.5C296.3,367.9,297.8,374,299.6,378"/>
		</g>
		<g>
			
				<image style="overflow:visible;" width="127" height="149" xlink:href="82FF33784ADED41A.png"  transform="matrix(1 0 0 1 205 251)">
			</image>
		</g>
		<g>
			<g>
				<g>
					<path class="st10" d="M285.4,328.7c-0.8-2.3-2.1-4.5-3.8-6.3c-1.7-1.8-3.9-3.1-6.1-4.2c-2.2-1.1-4.6-2.1-6.8-3.2
						c-2.3-1.1-4.5-2.3-6.4-3.9c2,1.6,4.2,2.7,6.5,3.8c2.3,1,4.6,1.9,6.9,3c2.3,1.1,4.5,2.4,6.3,4.2c1.8,1.8,3.2,4,4.1,6.4
						L285.4,328.7z"/>
				</g>
				<g>
					<path class="st10" d="M286.4,339.4c-0.6-1.5-1.8-2.7-3.2-3.6c-1.4-0.9-2.9-1.6-4.4-2.3c-3.1-1.2-6.4-2-9.5-3.1
						c-3.2-1.1-6.3-2.2-9.3-3.7c-1.5-0.7-3-1.6-4.3-2.6c-1.3-1-2.5-2.3-3.2-3.8c0.7,1.5,2,2.7,3.3,3.7c1.3,1,2.8,1.8,4.3,2.6
						c3,1.4,6.2,2.5,9.4,3.6c3.2,1.1,6.5,1.8,9.6,3c1.6,0.6,3.1,1.3,4.6,2.2c1.4,0.9,2.7,2.2,3.5,3.8L286.4,339.4z"/>
				</g>
				<g class="st11">
					<path class="st10" d="M282.8,310.3c-0.9-1.9-1-4-0.8-6.1c0.1-1,0.3-2.1,0.6-3c0.3-1,0.7-2,1.4-2.8c-0.5,0.9-0.9,1.9-1.1,2.8
						c-0.3,1-0.4,2-0.5,3C282.1,306.2,282.2,308.3,282.8,310.3z"/>
				</g>
				<g>
					<path class="st10" d="M284.9,318.8c-0.6-1-0.9-2.1-1-3.3c-0.1-1.1,0-2.3,0.1-3.4c0.3-2.2,1-4.5,2.1-6.5
						c-0.3,1.1-0.6,2.2-0.8,3.3c-0.2,1.1-0.4,2.2-0.6,3.3c-0.2,1.1-0.3,2.2-0.3,3.3C284.4,316.6,284.5,317.7,284.9,318.8z"/>
				</g>
			</g>
			<path class="st12" d="M299.6,378c-10.1-12.2-11.6-33.4-13.5-48.8c-1.1-8.9-1.9-21-8.2-28c6.1,6.3,7.8,22.4,7.8,30.7
				c0,10.3,2.3,22.4,5.9,32.1C293.6,369.2,296.8,374.7,299.6,378"/>
		</g>
		<g>
			
				<image style="overflow:visible;" width="133" height="146" xlink:href="82FF33784ADED426.png"  transform="matrix(1 0 0 1 192 257)">
			</image>
		</g>
		<g>
			<g>
				<g>
					<path class="st10" d="M272.5,334.5c-1.4-2-3.2-3.8-5.4-5c-2.2-1.2-4.6-1.9-7-2.4c-2.5-0.5-5-0.8-7.4-1.2c-2.5-0.4-4.9-1-7.3-2
						c2.3,1,4.8,1.5,7.3,1.9c2.5,0.4,5,0.6,7.5,1c2.5,0.4,5,1.1,7.2,2.3c2.3,1.2,4.2,3,5.7,5L272.5,334.5z"/>
				</g>
				<g>
					<path class="st10" d="M276.3,344.4c-1-1.2-2.5-2.1-4-2.6c-1.6-0.5-3.2-0.8-4.9-1c-3.3-0.4-6.7-0.2-10-0.4
						c-3.3-0.2-6.7-0.4-10-1.1c-1.7-0.3-3.3-0.7-4.8-1.4c-1.5-0.6-3.1-1.5-4.1-2.8c1.1,1.3,2.6,2.1,4.2,2.7c1.6,0.6,3.2,1,4.8,1.3
						c3.3,0.6,6.7,0.7,10,0.9c3.3,0.2,6.7,0,10.1,0.3c1.7,0.1,3.4,0.4,5,0.9c1.6,0.5,3.2,1.4,4.4,2.7L276.3,344.4z"/>
				</g>
				<g class="st11">
					<path class="st10" d="M265,317.4c-1.4-1.6-2-3.6-2.4-5.7c-0.2-1-0.3-2.1-0.2-3.1c0-1,0.2-2.1,0.5-3c-0.3,1-0.3,2-0.3,3
						c0,1,0.1,2,0.3,3C263.2,313.7,263.8,315.7,265,317.4z"/>
				</g>
				<g>
					<path class="st10" d="M269.3,325c-0.9-0.8-1.4-1.8-1.8-2.9c-0.4-1.1-0.6-2.2-0.8-3.3c-0.3-2.3-0.3-4.6,0.2-6.8
						c0,1.1,0,2.3,0.1,3.4c0.1,1.1,0.2,2.2,0.3,3.3c0.1,1.1,0.4,2.2,0.6,3.3C268.3,323.1,268.7,324.1,269.3,325z"/>
				</g>
			</g>
			<path class="st12" d="M299.6,378c-13.1-9-20.3-29-26.3-43.3c-3.5-8.3-7.6-19.7-15.5-24.8c7.6,4.4,13.6,19.4,15.9,27.4
				c2.8,9.9,8.3,21,14.5,29.3C291.4,371.1,296,375.6,299.6,378"/>
		</g>
		<g>
			
				<image style="overflow:visible;" width="139" height="137" xlink:href="82FF33784ADED43C.png"  transform="matrix(1 0 0 1 183 269)">
			</image>
		</g>
		<g>
			<g>
				<g>
					<path class="st10" d="M261.7,343.5c-1.9-1.6-4.1-2.7-6.6-3.3c-2.4-0.6-4.9-0.6-7.4-0.4c-2.5,0.2-5,0.6-7.5,0.9
						c-2.5,0.3-5,0.4-7.5,0c2.5,0.3,5,0.1,7.5-0.2c2.5-0.3,5-0.8,7.5-1c2.5-0.3,5.1-0.3,7.6,0.2c2.5,0.5,4.8,1.7,6.9,3.3
						L261.7,343.5z"/>
				</g>
				<g>
					<path class="st10" d="M268.1,352.1c-1.3-0.9-3-1.3-4.6-1.4c-1.6-0.1-3.3,0.1-4.9,0.4c-3.3,0.6-6.5,1.6-9.8,2.3
						c-3.3,0.7-6.6,1.4-9.9,1.7c-1.7,0.1-3.4,0.2-5,0c-1.7-0.2-3.3-0.6-4.7-1.5c1.4,0.9,3.1,1.3,4.8,1.5c1.7,0.2,3.3,0.1,5-0.1
						c3.3-0.3,6.6-1.1,9.9-1.9c3.3-0.7,6.4-1.9,9.8-2.5c1.7-0.3,3.3-0.5,5.1-0.5c1.7,0.1,3.5,0.4,4.9,1.4L268.1,352.1z"/>
				</g>
				<g class="st11">
					<path class="st10" d="M249.8,329.1c-1.7-1.2-2.9-2.9-3.9-4.8c-0.4-0.9-0.8-1.9-1.1-2.9c-0.2-1-0.4-2-0.3-3.1c0,1,0.2,2,0.5,3
						c0.3,1,0.7,1.9,1.1,2.8C247.1,326.1,248.2,327.8,249.8,329.1z"/>
				</g>
				<g>
					<path class="st10" d="M256,335.3c-1-0.5-1.9-1.4-2.5-2.3c-0.7-0.9-1.2-1.9-1.7-3c-0.9-2.1-1.5-4.3-1.6-6.6
						c0.3,1.1,0.7,2.2,1,3.2c0.4,1.1,0.8,2.1,1.2,3.1c0.4,1,0.9,2,1.5,3C254.5,333.7,255.1,334.6,256,335.3z"/>
				</g>
			</g>
			<path class="st12" d="M299.6,378c-15-5.1-27.4-22.3-37.1-34.5c-5.6-7-12.7-16.9-21.7-19.6c8.6,2.2,18.4,15,22.8,22.1
				c5.4,8.8,13.7,17.9,21.9,24.3C289.9,373.6,295.5,376.7,299.6,378"/>
		</g>
	</g>
	<g>
		<g>
			
				<image style="overflow:visible;" width="148" height="128" xlink:href="82FF33784ADED403.png"  transform="matrix(1 0 0 1 348 277)">
			</image>
		</g>
		<g>
			<g>
				<g>
					<path class="st10" d="M418,358c2.2-1.1,4.2-2.6,5.7-4.6c1.5-1.9,2.6-4.2,3.5-6.6c0.9-2.4,1.5-4.8,2.3-7.2
						c0.8-2.4,1.8-4.7,3.1-6.9c-1.3,2.2-2.2,4.5-2.9,6.9c-0.8,2.4-1.4,4.8-2.2,7.2c-0.8,2.4-1.8,4.7-3.4,6.8c-1.5,2-3.6,3.7-5.8,4.9
						L418,358z"/>
				</g>
				<g>
					<path class="st10" d="M407.5,360.2c1.4-0.8,2.4-2.1,3.2-3.6c0.8-1.5,1.3-3,1.7-4.7c0.9-3.2,1.2-6.6,2-9.9
						c0.7-3.3,1.5-6.6,2.6-9.7c0.6-1.6,1.2-3.1,2.1-4.6c0.9-1.4,1.9-2.8,3.4-3.7c-1.4,0.9-2.5,2.3-3.3,3.7c-0.8,1.5-1.5,3-2,4.6
						c-1.1,3.2-1.8,6.5-2.4,9.7c-0.7,3.3-1,6.6-1.8,9.9c-0.4,1.6-0.9,3.3-1.7,4.8c-0.8,1.5-1.8,3-3.4,3.9L407.5,360.2z"/>
				</g>
				<g class="st11">
					<path class="st10" d="M436,353.1c1.8-1.1,3.9-1.5,6-1.5c1,0,2.1,0.1,3.1,0.2c1,0.2,2,0.5,2.9,1c-0.9-0.4-2-0.6-3-0.8
						c-1-0.1-2-0.2-3-0.2C439.9,351.9,437.9,352.2,436,353.1z"/>
				</g>
				<g>
					<path class="st10" d="M427.8,356.2c0.9-0.7,2-1.1,3.1-1.4c1.1-0.2,2.3-0.3,3.4-0.3c2.3,0.1,4.6,0.4,6.7,1.3
						c-1.1-0.2-2.2-0.3-3.3-0.4c-1.1-0.1-2.2-0.2-3.3-0.2c-1.1,0-2.2,0-3.3,0.1C429.9,355.5,428.8,355.7,427.8,356.2z"/>
				</g>
			</g>
			<path class="st12" d="M370.8,378c10.9-11.5,31.7-15.6,46.8-19.3c8.7-2.2,20.6-4.5,26.8-11.6c-5.6,6.9-21.3,10.5-29.5,11.5
				c-10.3,1.3-22,5-31.2,9.8C378.8,371,373.8,374.8,370.8,378"/>
		</g>
		<g>
			
				<image style="overflow:visible;" width="142" height="136" xlink:href="82FF33784ADED404.png"  transform="matrix(1 0 0 1 345 266)">
			</image>
		</g>
		<g>
			<g>
				<g>
					<path class="st10" d="M410.7,345.9c1.8-1.7,3.3-3.7,4.3-6c1-2.3,1.4-4.8,1.5-7.3c0.2-2.5,0.2-5,0.3-7.5c0.1-2.5,0.4-5,1.1-7.4
						c-0.7,2.4-0.9,4.9-1,7.5c-0.1,2.5,0,5-0.1,7.5c-0.1,2.5-0.5,5.1-1.4,7.4c-0.9,2.4-2.4,4.5-4.3,6.3L410.7,345.9z"/>
				</g>
				<g>
					<path class="st10" d="M401.3,350.8c1.1-1.2,1.7-2.7,2.1-4.3c0.3-1.6,0.4-3.3,0.4-4.9c-0.1-3.3-0.6-6.7-0.8-10
						c-0.2-3.3-0.4-6.7-0.2-10.1c0.1-1.7,0.3-3.4,0.8-5c0.4-1.6,1.1-3.2,2.3-4.5c-1.1,1.3-1.8,2.9-2.2,4.5c-0.4,1.6-0.6,3.3-0.7,5
						c-0.2,3.3,0.1,6.7,0.3,10c0.2,3.3,0.9,6.6,1,10c0.1,1.7,0,3.4-0.3,5.1c-0.3,1.7-1,3.4-2.2,4.7L401.3,350.8z"/>
				</g>
				<g class="st11">
					<path class="st10" d="M426.7,336.3c1.4-1.5,3.4-2.5,5.3-3.1c1-0.3,2-0.5,3-0.6c1-0.1,2.1-0.1,3.1,0.2c-1-0.1-2-0.1-3.1,0.1
						c-1,0.1-2,0.4-3,0.7C430.2,334.1,428.3,334.9,426.7,336.3z"/>
				</g>
				<g>
					<path class="st10" d="M419.7,341.5c0.6-0.9,1.6-1.6,2.6-2.2c1-0.5,2.1-0.9,3.2-1.2c2.2-0.6,4.5-0.9,6.8-0.6
						c-1.1,0.1-2.2,0.3-3.3,0.5c-1.1,0.2-2.2,0.4-3.3,0.7c-1.1,0.3-2.1,0.6-3.2,1C421.5,340.3,420.5,340.7,419.7,341.5z"/>
				</g>
			</g>
			<path class="st12" d="M370.8,378c7.3-14.1,26.3-23.6,39.7-31.3c7.8-4.5,18.6-9.9,22.7-18.4c-3.5,8.1-17.6,15.9-25.3,19.1
				c-9.5,4-19.8,10.8-27.3,17.9C376.6,369.1,372.8,374.1,370.8,378"/>
		</g>
		<g>
			
				<image style="overflow:visible;" width="133" height="142" xlink:href="82FF33784ADED407.png"  transform="matrix(1 0 0 1 340 258)">
			</image>
		</g>
		<g>
			<g>
				<g>
					<path class="st10" d="M400.5,336.2c1.3-2.1,2.2-4.4,2.5-6.9c0.3-2.5,0-5-0.5-7.4c-0.5-2.5-1.2-4.9-1.8-7.3
						c-0.6-2.4-1-5-0.9-7.5c0,2.5,0.5,5,1.1,7.4c0.6,2.4,1.4,4.8,1.9,7.3c0.6,2.5,0.9,5,0.7,7.5c-0.2,2.5-1.1,5-2.4,7.2L400.5,336.2
						z"/>
				</g>
				<g>
					<path class="st10" d="M392.7,343.6c0.8-1.4,0.9-3.1,0.8-4.7c-0.1-1.6-0.5-3.3-1-4.9c-1-3.2-2.4-6.2-3.5-9.4
						c-1.1-3.2-2.2-6.4-2.9-9.6c-0.4-1.6-0.6-3.3-0.6-5c0-1.7,0.2-3.4,1-4.9c-0.7,1.5-0.9,3.2-0.9,4.9c0.1,1.7,0.3,3.3,0.7,5
						c0.8,3.3,1.9,6.4,3,9.6c1.1,3.1,2.6,6.2,3.7,9.4c0.5,1.6,0.9,3.3,1.1,5c0.1,1.7,0,3.5-0.8,5.1L392.7,343.6z"/>
				</g>
				<g class="st11">
					<path class="st10" d="M413.3,322.6c0.9-1.9,2.6-3.3,4.3-4.4c0.9-0.5,1.8-1,2.8-1.4c1-0.4,2-0.6,3-0.7c-1,0.2-2,0.5-2.9,0.9
						c-0.9,0.4-1.8,0.9-2.7,1.5C416,319.6,414.4,320.9,413.3,322.6z"/>
				</g>
				<g>
					<path class="st10" d="M407.9,329.6c0.4-1.1,1.1-2,2-2.8c0.8-0.8,1.8-1.4,2.8-2c2-1.1,4.1-2,6.3-2.4c-1.1,0.4-2.1,0.9-3.1,1.4
						c-1,0.5-2,1-2.9,1.6c-1,0.6-1.9,1.2-2.8,1.9C409.3,327.9,408.5,328.6,407.9,329.6z"/>
				</g>
			</g>
			<path class="st12" d="M370.8,378c3.2-15.5,18.8-29.9,29.7-41c6.3-6.4,15.2-14.6,16.8-23.9c-1.1,8.8-12.6,20.1-19.1,25.3
				c-8.1,6.5-16.1,15.7-21.4,24.7C374,367.8,371.6,373.7,370.8,378"/>
		</g>
		<g>
			
				<image style="overflow:visible;" width="137" height="146" xlink:href="82FF33784ADED405.png"  transform="matrix(1 0 0 1 318 253)">
			</image>
		</g>
		<g>
			<g>
				<g>
					<path class="st10" d="M388,329.7c0.7-2.4,0.9-4.9,0.5-7.3c-0.4-2.5-1.3-4.8-2.5-7c-1.2-2.2-2.5-4.4-3.7-6.6
						c-1.2-2.2-2.3-4.5-2.9-6.9c0.7,2.4,1.8,4.7,3.1,6.8c1.3,2.2,2.6,4.3,3.8,6.5c1.2,2.2,2.2,4.6,2.7,7.1c0.5,2.5,0.3,5.1-0.4,7.6
						L388,329.7z"/>
				</g>
				<g>
					<path class="st10" d="M382.5,338.9c0.3-1.6,0.1-3.2-0.5-4.8c-0.6-1.5-1.4-3-2.3-4.4c-1.8-2.8-4-5.3-5.9-8.1
						c-1.9-2.7-3.8-5.5-5.4-8.5c-0.8-1.5-1.5-3-2-4.6c-0.5-1.6-0.7-3.3-0.4-5c-0.3,1.7,0,3.4,0.5,4.9c0.5,1.6,1.2,3.1,2,4.6
						c1.6,2.9,3.6,5.7,5.5,8.4c1.9,2.7,4.2,5.2,6.1,8c0.9,1.4,1.8,2.9,2.4,4.5c0.6,1.6,0.9,3.4,0.6,5.1L382.5,338.9z"/>
				</g>
				<g class="st11">
					<path class="st10" d="M396.6,313.1c0.4-2,1.6-3.9,2.9-5.4c0.7-0.8,1.4-1.5,2.3-2.1c0.8-0.6,1.7-1.2,2.7-1.5
						c-0.9,0.4-1.8,1-2.6,1.7c-0.8,0.6-1.5,1.4-2.2,2.1C398.4,309.5,397.2,311.2,396.6,313.1z"/>
				</g>
				<g>
					<path class="st10" d="M393.3,321.3c0-1.1,0.5-2.2,1.1-3.2c0.6-1,1.3-1.9,2.1-2.7c1.6-1.6,3.4-3.1,5.4-4.1
						c-0.9,0.7-1.7,1.4-2.6,2.2c-0.8,0.8-1.6,1.5-2.4,2.3c-0.8,0.8-1.5,1.6-2.2,2.5C394.2,319.3,393.6,320.2,393.3,321.3z"/>
				</g>
			</g>
			<path class="st12" d="M370.8,378c-1.1-15.8,10-33.9,17.4-47.5c4.3-7.9,10.6-18.2,9.7-27.6c1.3,8.7-6.7,22.8-11.5,29.5
				c-6,8.4-11.2,19.5-13.9,29.6C371.1,367.3,370.4,373.7,370.8,378"/>
		</g>
		<g>
			
				<image style="overflow:visible;" width="135" height="146" xlink:href="82FF33784ADED402.png"  transform="matrix(1 0 0 1 298 253)">
			</image>
		</g>
		<g>
			<g>
				<g>
					<path class="st10" d="M374.1,326.8c0-2.5-0.4-4.9-1.5-7.2c-1-2.3-2.6-4.2-4.3-6.1c-1.7-1.8-3.6-3.5-5.3-5.3
						c-1.8-1.8-3.4-3.7-4.7-5.9c1.3,2.1,3,4,4.8,5.7c1.8,1.8,3.7,3.4,5.5,5.2c1.8,1.8,3.4,3.8,4.5,6.1c1.1,2.3,1.7,4.9,1.7,7.4
						L374.1,326.8z"/>
				</g>
				<g>
					<path class="st10" d="M371.4,337.2c-0.1-1.6-0.8-3.1-1.8-4.5c-1-1.3-2.1-2.5-3.4-3.6c-2.5-2.2-5.3-4.1-7.9-6.2
						c-2.6-2.1-5.2-4.3-7.5-6.7c-1.2-1.2-2.2-2.5-3.1-3.9c-0.9-1.4-1.6-3-1.8-4.7c0.2,1.7,0.9,3.2,1.8,4.6c0.9,1.4,2,2.7,3.2,3.9
						c2.4,2.4,5,4.5,7.6,6.6c2.6,2.1,5.5,3.9,8,6.1c1.3,1.1,2.5,2.3,3.5,3.7c1,1.4,1.8,3,2,4.8L371.4,337.2z"/>
				</g>
				<g class="st11">
					<path class="st10" d="M377.9,308.6c-0.2-2.1,0.5-4.1,1.3-6c0.5-0.9,1-1.8,1.6-2.7c0.6-0.8,1.3-1.6,2.2-2.2
						c-0.8,0.7-1.4,1.5-2,2.3c-0.6,0.8-1.1,1.7-1.5,2.6C378.6,304.5,378,306.5,377.9,308.6z"/>
				</g>
				<g>
					<path class="st10" d="M377,317.3c-0.3-1.1-0.1-2.3,0.2-3.4c0.3-1.1,0.8-2.2,1.3-3.2c1.1-2,2.4-3.9,4.1-5.4
						c-0.7,0.9-1.3,1.9-1.9,2.8c-0.6,1-1.2,1.9-1.7,2.9c-0.5,1-1,2-1.4,3C377.3,315.1,377,316.2,377,317.3z"/>
				</g>
			</g>
			<path class="st12" d="M370.8,378c-5.4-14.9,0.4-35.3,3.8-50.5c2-8.8,5.3-20.4,1.8-29.2c3.6,8.1-0.2,23.7-3,31.6
				c-3.5,9.7-5.5,21.9-5.3,32.3C368.1,367.7,369.3,373.9,370.8,378"/>
		</g>
	</g>
	<g>
		<g>
			
				<image style="overflow:visible;" width="144" height="135" xlink:href="82FF33784ADED40C.png"  transform="matrix(1 0 0 1 394 393)">
			</image>
		</g>
		<g>
			<g>
				<g>
					<path class="st10" d="M460.3,458.1c2.2,1.1,4.7,1.7,7.2,1.6c2.5,0,4.9-0.6,7.3-1.4c2.4-0.8,4.7-1.8,7.1-2.6
						c2.4-0.9,4.8-1.6,7.3-1.8c-2.5,0.3-4.9,1.1-7.2,2c-2.3,0.9-4.6,1.9-7,2.8c-2.4,0.9-4.8,1.5-7.4,1.6c-2.6,0.1-5.1-0.5-7.4-1.5
						L460.3,458.1z"/>
				</g>
				<g>
					<path class="st10" d="M452,451.3c1.5,0.6,3.2,0.6,4.8,0.2c1.6-0.3,3.2-0.9,4.7-1.6c3.1-1.3,5.9-3.1,8.9-4.6c3-1.5,6-2.9,9.2-4
						c1.6-0.5,3.2-1,4.9-1.2c1.7-0.2,3.4-0.2,5,0.4c-1.6-0.5-3.3-0.5-5-0.3c-1.7,0.3-3.3,0.7-4.8,1.3c-3.1,1.1-6.1,2.7-9.1,4.2
						c-3,1.5-5.8,3.4-8.9,4.8c-1.5,0.7-3.1,1.3-4.8,1.7c-1.7,0.3-3.5,0.4-5.1-0.2L452,451.3z"/>
				</g>
				<g class="st11">
					<path class="st10" d="M475.3,469.1c2,0.7,3.6,2.1,4.9,3.7c0.7,0.8,1.2,1.7,1.7,2.6c0.5,0.9,0.9,1.9,1,2.9
						c-0.3-1-0.7-1.9-1.2-2.8c-0.5-0.9-1.1-1.7-1.8-2.5C478.7,471.4,477.1,470,475.3,469.1z"/>
				</g>
				<g>
					<path class="st10" d="M467.7,464.6c1.1,0.2,2.1,0.9,3,1.6c0.9,0.7,1.6,1.6,2.3,2.5c1.4,1.8,2.5,3.8,3.2,6
						c-0.6-1-1.2-1.9-1.8-2.9c-0.6-0.9-1.3-1.9-1.9-2.7c-0.7-0.9-1.4-1.7-2.2-2.5C469.6,465.8,468.8,465.1,467.7,464.6z"/>
				</g>
			</g>
			<path class="st12" d="M415.1,433.7c15.8,1.3,32,15.1,44.3,24.5c7.2,5.5,16.4,13.3,25.8,13.8c-8.8-0.1-21.5-10.1-27.4-15.9
				c-7.4-7.2-17.6-14.1-27.1-18.3C425.6,435.6,419.5,434,415.1,433.7"/>
		</g>
		<g>
			
				<image style="overflow:visible;" width="145" height="136" xlink:href="82FF33784ADED40F.png"  transform="matrix(1 0 0 1 395 372)">
			</image>
		</g>
		<g>
			<g>
				<g>
					<path class="st10" d="M465.2,444.8c2.4,0.4,5,0.3,7.3-0.4c2.4-0.7,4.6-1.9,6.6-3.3c2.1-1.4,4-3,6.1-4.5c2-1.5,4.2-2.8,6.5-3.8
						c-2.3,1-4.4,2.4-6.4,3.9c-2,1.5-3.9,3.1-6,4.6c-2,1.5-4.3,2.8-6.7,3.5c-2.4,0.8-5.1,0.9-7.6,0.6L465.2,444.8z"/>
				</g>
				<g>
					<path class="st10" d="M455.4,440.6c1.6,0.1,3.2-0.3,4.7-1.1c1.5-0.7,2.8-1.7,4.1-2.8c2.6-2.1,4.8-4.6,7.3-6.9
						c2.5-2.2,5-4.5,7.8-6.4c1.4-1,2.8-1.8,4.4-2.5c1.5-0.7,3.2-1.1,4.9-1c-1.7-0.1-3.3,0.4-4.9,1.1c-1.5,0.7-3,1.6-4.3,2.6
						c-2.7,2-5.2,4.2-7.6,6.5c-2.5,2.3-4.7,4.8-7.2,7c-1.3,1.1-2.6,2.1-4.2,2.9c-1.5,0.8-3.2,1.3-5,1.2L455.4,440.6z"/>
				</g>
				<g class="st11">
					<path class="st10" d="M482.7,451.4c2.1,0.1,4,1.1,5.7,2.2c0.8,0.6,1.7,1.3,2.4,2c0.7,0.7,1.4,1.6,1.8,2.5
						c-0.5-0.9-1.2-1.6-2-2.4c-0.7-0.7-1.5-1.3-2.4-1.9C486.5,452.7,484.7,451.8,482.7,451.4z"/>
				</g>
				<g>
					<path class="st10" d="M474.2,449.1c1.1-0.1,2.3,0.3,3.3,0.7c1,0.5,2,1.1,2.9,1.8c1.8,1.4,3.5,3,4.7,4.9
						c-0.8-0.8-1.6-1.5-2.5-2.3c-0.8-0.7-1.7-1.4-2.6-2.1c-0.9-0.7-1.8-1.3-2.8-1.8C476.3,449.8,475.3,449.3,474.2,449.1z"/>
				</g>
			</g>
			<path class="st12" d="M415.1,433.7c15.6-3,34.9,5.8,49.3,11.5c8.4,3.3,19.4,8.4,28.5,6.2c-8.5,2.3-23.4-3.9-30.7-7.8
				c-9.1-4.9-20.8-8.8-31.1-10.2C425.8,432.6,419.4,432.8,415.1,433.7"/>
		</g>
		<g>
			
				<image style="overflow:visible;" width="148" height="133" xlink:href="82FF33784ADED40D.png"  transform="matrix(1 0 0 1 394 352)">
			</image>
		</g>
		<g>
			<g>
				<g>
					<path class="st10" d="M466.4,430.8c2.5-0.3,4.9-1,7-2.4c2.1-1.3,3.9-3.1,5.5-5c1.6-1.9,3.1-4,4.6-6c1.6-2,3.3-3.9,5.2-5.4
						c-2,1.6-3.6,3.5-5.1,5.5c-1.5,2-2.9,4.1-4.5,6.1c-1.6,2-3.3,3.8-5.5,5.2c-2.1,1.4-4.6,2.3-7.1,2.6L466.4,430.8z"/>
				</g>
				<g>
					<path class="st10" d="M455.8,429.3c1.6-0.3,3-1.2,4.2-2.3c1.2-1.1,2.2-2.4,3.2-3.8c1.9-2.7,3.4-5.8,5.2-8.6
						c1.8-2.8,3.6-5.7,5.7-8.3c1.1-1.3,2.2-2.5,3.5-3.6c1.3-1.1,2.8-2,4.4-2.3c-1.6,0.4-3.1,1.3-4.4,2.4c-1.3,1.1-2.4,2.3-3.4,3.6
						c-2.1,2.6-3.8,5.5-5.6,8.3c-1.7,2.8-3.2,5.9-5.1,8.7c-0.9,1.4-2,2.8-3.2,3.9c-1.2,1.2-2.7,2.2-4.5,2.5L455.8,429.3z"/>
				</g>
				<g class="st11">
					<path class="st10" d="M484.9,432.3c2-0.4,4.2,0,6.1,0.6c1,0.3,1.9,0.8,2.8,1.3c0.9,0.5,1.7,1.1,2.4,1.9
						c-0.8-0.7-1.6-1.3-2.5-1.7c-0.9-0.5-1.8-0.9-2.8-1.2C489,432.6,487,432.2,484.9,432.3z"/>
				</g>
				<g>
					<path class="st10" d="M476.2,432.5c1.1-0.4,2.3-0.4,3.4-0.2c1.1,0.2,2.2,0.5,3.3,0.9c2.1,0.8,4.2,1.9,5.8,3.5c-1-0.6-2-1-3-1.5
						c-1-0.5-2-0.9-3.1-1.3c-1-0.4-2.1-0.7-3.2-1C478.4,432.5,477.3,432.3,476.2,432.5z"/>
				</g>
			</g>
			<path class="st12" d="M415.1,433.7c14.2-7.2,35.1-3.9,50.6-2.3c9,0.9,20.9,2.8,29.2-1.8c-7.6,4.6-23.6,2.7-31.7,0.8
				c-10.1-2.3-22.4-2.8-32.7-1.4C425.1,429.8,419,431.7,415.1,433.7"/>
		</g>
		<g>
			
				<image style="overflow:visible;" width="149" height="126" xlink:href="82FF33784ADED401.png"  transform="matrix(1 0 0 1 392 336)">
			</image>
		</g>
		<g>
			<g>
				<g>
					<path class="st10" d="M463.6,416.9c2.3-0.9,4.4-2.3,6.1-4.2c1.7-1.8,2.9-4,3.9-6.3c1-2.3,1.9-4.7,2.8-7c1-2.3,2.1-4.6,3.6-6.6
						c-1.4,2.1-2.5,4.4-3.4,6.7c-0.9,2.3-1.7,4.7-2.7,7.1c-1,2.3-2.2,4.6-3.8,6.5c-1.7,1.9-3.8,3.4-6.2,4.4L463.6,416.9z"/>
				</g>
				<g>
					<path class="st10" d="M453.1,418.4c1.4-0.7,2.6-2,3.4-3.4c0.9-1.4,1.5-2.9,2-4.5c1.1-3.2,1.7-6.5,2.6-9.7
						c1-3.2,1.9-6.4,3.3-9.5c0.7-1.5,1.5-3,2.4-4.4c1-1.4,2.1-2.6,3.6-3.4c-1.5,0.8-2.6,2.1-3.6,3.5c-0.9,1.4-1.7,2.9-2.3,4.4
						c-1.3,3.1-2.2,6.3-3.1,9.6c-0.9,3.2-1.4,6.5-2.5,9.8c-0.5,1.6-1.1,3.2-2,4.7c-0.9,1.5-2,2.8-3.6,3.6L453.1,418.4z"/>
				</g>
				<g class="st11">
					<path class="st10" d="M481.9,413.4c1.8-1,4-1.2,6-1.1c1,0.1,2.1,0.2,3.1,0.5c1,0.3,2,0.6,2.8,1.2c-0.9-0.5-1.9-0.8-2.9-1
						c-1-0.2-2-0.3-3-0.4C485.9,412.5,483.9,412.6,481.9,413.4z"/>
				</g>
				<g>
					<path class="st10" d="M473.5,415.9c0.9-0.7,2.1-1,3.2-1.1c1.1-0.1,2.3-0.1,3.4,0c2.3,0.2,4.5,0.7,6.6,1.7
						c-1.1-0.3-2.2-0.5-3.3-0.6c-1.1-0.2-2.2-0.3-3.3-0.4c-1.1-0.1-2.2-0.1-3.3-0.1C475.7,415.3,474.6,415.5,473.5,415.9z"/>
				</g>
			</g>
			<path class="st12" d="M415.1,433.7c11.7-10.7,32.7-13.3,48-16c8.9-1.6,20.9-3,27.6-9.6c-6,6.5-21.9,9-30.3,9.4
				c-10.3,0.5-22.3,3.4-31.8,7.6C423.7,427.2,418.3,430.7,415.1,433.7"/>
		</g>
		<g>
			
				<image style="overflow:visible;" width="144" height="135" xlink:href="82FF33784ADED46F.png"  transform="matrix(1 0 0 1 390 324)">
			</image>
		</g>
		<g>
			<g>
				<g>
					<path class="st10" d="M457.3,404.4c1.9-1.5,3.6-3.4,4.7-5.6c1.1-2.2,1.7-4.7,2-7.1c0.4-2.5,0.5-5,0.8-7.5
						c0.3-2.5,0.8-5,1.6-7.3c-0.8,2.4-1.2,4.9-1.5,7.4c-0.3,2.5-0.4,5-0.7,7.5c-0.3,2.5-0.8,5-1.9,7.3c-1.1,2.3-2.7,4.3-4.7,6
						L457.3,404.4z"/>
				</g>
				<g>
					<path class="st10" d="M447.5,408.7c1.2-1.1,1.9-2.6,2.4-4.2c0.4-1.6,0.6-3.2,0.7-4.9c0.2-3.3-0.1-6.7-0.1-10
						c0-3.4,0.1-6.7,0.5-10.1c0.2-1.7,0.6-3.3,1.1-4.9c0.6-1.6,1.3-3.1,2.6-4.3c-1.2,1.2-2,2.7-2.5,4.3c-0.5,1.6-0.8,3.2-1,4.9
						c-0.4,3.3-0.4,6.7-0.4,10c0,3.3,0.4,6.7,0.3,10.1c-0.1,1.7-0.2,3.4-0.7,5c-0.4,1.6-1.2,3.3-2.5,4.5L447.5,408.7z"/>
				</g>
				<g class="st11">
					<path class="st10" d="M473.9,395.9c1.5-1.4,3.5-2.2,5.5-2.7c1-0.2,2-0.4,3.1-0.4c1,0,2.1,0.1,3.1,0.4c-1-0.2-2-0.2-3.1-0.2
						c-1,0.1-2,0.2-3,0.5C477.5,394,475.6,394.7,473.9,395.9z"/>
				</g>
				<g>
					<path class="st10" d="M466.5,400.7c0.7-0.9,1.7-1.5,2.8-2c1.1-0.5,2.2-0.7,3.3-1c2.2-0.4,4.6-0.5,6.8-0.1
						c-1.1,0-2.2,0.2-3.4,0.3c-1.1,0.1-2.2,0.3-3.3,0.5c-1.1,0.2-2.2,0.5-3.2,0.8C468.4,399.5,467.4,400,466.5,400.7z"/>
				</g>
			</g>
			<path class="st12" d="M415.1,433.7c8.3-13.5,27.9-21.7,41.8-28.5c8.1-3.9,19.3-8.6,23.9-16.8c-4,7.9-18.7,14.6-26.6,17.3
				c-9.8,3.3-20.5,9.3-28.5,15.9C421.6,425.1,417.4,429.9,415.1,433.7"/>
		</g>
	</g>
	<g>
		<polygon class="st10" points="399.3,503 391.2,496.7 383.1,490.4 367,477.7 351.1,464.9 343.1,458.4 335.2,451.9 343.3,458.2 
			351.4,464.5 367.4,477.2 383.4,490 391.4,496.5 		"/>
	</g>
</g>
</svg>
