<?xml version="1.0" encoding="utf-8"?>
<!-- Generator: Adobe Illustrator 23.0.2, SVG Export Plug-In . SVG Version: 6.00 Build 0)  -->
<svg version="1.1" id="Livello_1" xmlns="http://www.w3.org/2000/svg" xmlns:xlink="http://www.w3.org/1999/xlink" x="0px" y="0px"
	 viewBox="0 0 100.34 143.96" style="enable-background:new 0 0 100.34 143.96;" xml:space="preserve">
<style type="text/css">
	.st0{fill:#AF5A4D;}
	.st1{opacity:0.7;}
	.st2{fill:#AF5A4D;stroke:#AF5A4D;stroke-width:0.2;stroke-miterlimit:10;}
	.st3{opacity:0.3;}
</style>
<g>
	<g>
		<g>
			<defs>
				<path id="SVGID_1_" d="M54.37,29.45c-0.31,6.97-2.07,20.94-0.95,24.97c0.97,3.49,2.41,10.07,3.66,13.52
					c1.6,4.42,4.13,7.85,6.8,11.54c9.23,12.73,32.95,29.46,36.05,41.3c0.59,2.25-4.88,6.2-9.63,11.08
					c-2.83,2.91-12.87,7.94-15.32,9.47c-2.73,1.72-5.94,2.48-9.07,2.62c-6.62,0.29-12.62-2.56-19-4
					c-6.27-1.42-12.81-1.91-19.14-0.87c-5.77,0.94-11.6,2.85-17.5,2.16c-4.75-0.55-9.87-3.49-10.63-9.27
					c1.65-1.62,3.67-2.96,5.44-4.48c1.93-1.66,3.77-3.48,5.49-5.4c8.53-9.52,14.05-21.54,21.19-32.23
					c3.35-5.02,6.66-9.99,9.78-15.19c1.92-3.2,5.59-8.2,4.83-12.37"/>
			</defs>
			<clipPath id="SVGID_2_">
				<use xlink:href="#SVGID_1_"  style="overflow:visible;"/>
			</clipPath>
			<linearGradient id="SVGID_3_" gradientUnits="userSpaceOnUse" x1="49.7879" y1="144.2592" x2="49.7879" y2="29.4348">
				<stop  offset="0" style="stop-color:#C8D8E0"/>
				<stop  offset="0.2473" style="stop-color:#D5A1A3"/>
				<stop  offset="0.3898" style="stop-color:#DB8685"/>
				<stop  offset="1" style="stop-color:#763130"/>
			</linearGradient>
			
				<use xlink:href="#SVGID_1_"  style="overflow:visible;fill:none;stroke:url(#SVGID_3_);stroke-width:0.6;stroke-miterlimit:10;"/>
		</g>
		<g>
			<g>
				<g>
					<path class="st0" d="M39.79,80.26c-0.43,3.92-0.08,7.93,1.24,11.66c1.29,3.74,3.46,7.13,5.88,10.27
						c2.43,3.15,5.11,6.11,7.61,9.22c2.5,3.1,4.83,6.38,6.53,9.99c-1.75-3.59-4.12-6.83-6.66-9.89c-2.54-3.07-5.26-5.99-7.74-9.12
						c-2.48-3.12-4.72-6.51-6.09-10.31c-1.4-3.78-1.82-7.89-1.43-11.9L39.79,80.26z"/>
				</g>
				<g>
					<path class="st0" d="M45.78,64.4c-0.1,2.59,0.81,5.14,2.11,7.4c1.31,2.28,2.99,4.34,4.79,6.29c3.59,3.91,7.76,7.24,11.52,11.03
						c3.76,3.76,7.53,7.55,10.81,11.75c1.64,2.1,3.14,4.32,4.33,6.7c1.18,2.37,2.07,4.97,2.03,7.65c0.01-2.68-0.91-5.26-2.11-7.61
						c-1.22-2.36-2.73-4.56-4.39-6.64c-3.31-4.16-7.11-7.9-10.91-11.62c-3.78-3.73-7.99-7.02-11.65-10.92
						c-1.83-1.94-3.56-4.01-4.92-6.34c-1.35-2.31-2.35-4.95-2.27-7.72L45.78,64.4z"/>
				</g>
				<g class="st1">
					<path class="st0" d="M31.04,108.47c-0.13,3.29-1.48,6.41-3.15,9.21c-0.87,1.39-1.84,2.72-2.96,3.92
						c-1.11,1.2-2.36,2.3-3.79,3.08c1.37-0.88,2.55-2.03,3.62-3.24c1.07-1.22,2.03-2.54,2.87-3.92c0.86-1.38,1.59-2.83,2.19-4.34
						C30.41,111.67,30.86,110.09,31.04,108.47z"/>
				</g>
				<g>
					<path class="st0" d="M33.91,94.84c0.17,1.8-0.35,3.61-1.02,5.27c-0.68,1.68-1.6,3.24-2.57,4.76c-1.02,1.48-2.12,2.92-3.32,4.25
						c-1.21,1.33-2.49,2.6-3.92,3.68c1.25-1.28,2.42-2.62,3.54-4.01c1.11-1.39,2.19-2.8,3.16-4.29c1-1.46,1.89-3,2.66-4.59
						C33.18,98.32,33.8,96.64,33.91,94.84z"/>
				</g>
			</g>
			<path class="st2" d="M53.62,0c6.07,24.45-6.36,55.7-14.27,79.01c-4.59,13.54-11.67,31.35-7.58,45.74
				c-4.4-13.3,4.2-37.38,9.93-49.32c7.1-14.79,12.22-33.61,13.64-50.03C56.1,16.8,55.33,6.75,53.62,0"/>
		</g>
	</g>
</g>
<g class="st3">
	<defs>
		<path id="SVGID_4_" class="st3" d="M54.74,29.45c-0.31,6.97-2.07,20.94-0.95,24.97c0.97,3.49,2.41,10.07,3.66,13.52
			c1.6,4.42,4.13,7.85,6.8,11.54c9.23,12.73,32.95,29.46,36.05,41.3c0.59,2.25-4.88,6.2-9.63,11.08
			c-2.83,2.91-12.87,7.94-15.32,9.47c-2.73,1.72-5.94,2.48-9.07,2.62c-6.62,0.29-12.62-2.56-19-4c-6.27-1.42-12.81-1.91-19.14-0.87
			c-5.77,0.94-11.6,2.85-17.5,2.16c-4.75-0.55-9.87-3.49-10.63-9.27c1.65-1.62,3.67-2.96,5.44-4.48c1.93-1.66,3.77-3.48,5.49-5.4
			c8.53-9.52,14.05-21.54,21.19-32.23c3.35-5.02,6.66-9.99,9.78-15.19c1.92-3.2,5.59-8.2,4.83-12.37"/>
	</defs>
	
		<linearGradient id="SVGID_5_" gradientUnits="userSpaceOnUse" x1="-91.1278" y1="-12.9444" x2="-91.0424" y2="-127.8768" gradientTransform="matrix(0.9986 -0.0522 0.0522 0.9986 142.7865 152.8885)">
		<stop  offset="0" style="stop-color:#ECF0F2"/>
		<stop  offset="0.0311" style="stop-color:#ECEEEF"/>
		<stop  offset="0.3898" style="stop-color:#F1D7D1"/>
		<stop  offset="1" style="stop-color:#DB8685"/>
	</linearGradient>
	<use xlink:href="#SVGID_4_"  style="overflow:visible;fill:url(#SVGID_5_);"/>
	<clipPath id="SVGID_6_">
		<use xlink:href="#SVGID_4_"  style="overflow:visible;"/>
	</clipPath>
</g>
</svg>
