<?xml version="1.0" encoding="utf-8"?>
<!-- Generator: Adobe Illustrator 23.0.2, SVG Export Plug-In . SVG Version: 6.00 Build 0)  -->
<svg version="1.1" id="Livello_1" xmlns="http://www.w3.org/2000/svg" xmlns:xlink="http://www.w3.org/1999/xlink" x="0px" y="0px"
	 viewBox="0 0 600 600" style="enable-background:new 0 0 600 600;" xml:space="preserve">
<style type="text/css">
	.st0{fill:none;stroke:#FFFFFF;stroke-width:2;stroke-miterlimit:10;}
	.st1{fill:none;stroke:#FFFFFF;stroke-width:2;stroke-miterlimit:10;stroke-dasharray:1.995,3.9901;}
	.st2{fill:#13120D;}
	.st3{font-family:'Raleway';}
	.st4{font-size:13px;}
	.st5{fill:url(#SVGID_1_);}
	.st6{fill:#5F7CBC;}
	.st7{fill:url(#SVGID_2_);}
	.st8{fill:url(#SVGID_3_);}
	.st9{fill:url(#SVGID_4_);}
	.st10{fill:url(#SVGID_5_);}
	.st11{fill:url(#SVGID_6_);}
	.st12{fill:url(#SVGID_7_);}
	.st13{fill:url(#SVGID_8_);}
	.st14{fill:url(#SVGID_9_);}
	.st15{fill:url(#SVGID_10_);}
	.st16{fill:url(#SVGID_11_);}
	.st17{fill:url(#SVGID_12_);}
</style>
<g>
	<g>
		<g>
			<line class="st0" x1="300" y1="300" x2="300" y2="299"/>
			<line class="st1" x1="300" y1="295.3" x2="300" y2="52.8"/>
			<line class="st0" x1="300" y1="50.9" x2="300" y2="50"/>
		</g>
	</g>
	<g>
		<g>
			<line class="st0" x1="300" y1="300" x2="300.4" y2="299.2"/>
			<line class="st1" x1="302.3" y1="296" x2="423.6" y2="85.9"/>
			<line class="st0" x1="424.5" y1="84.3" x2="425" y2="83.5"/>
		</g>
	</g>
	<g>
		<g>
			<line class="st0" x1="300" y1="300" x2="300.8" y2="299.5"/>
			<line class="st1" x1="304" y1="297.6" x2="514.1" y2="176.4"/>
			<line class="st0" x1="515.7" y1="175.5" x2="516.5" y2="175"/>
		</g>
	</g>
	<g>
		<g>
			<line class="st0" x1="300" y1="300" x2="300.9" y2="300"/>
			<line class="st1" x1="304.6" y1="300" x2="547.2" y2="300"/>
			<line class="st0" x1="549.1" y1="300" x2="550" y2="300"/>
		</g>
	</g>
	<g>
		<g>
			<line class="st0" x1="300" y1="300" x2="300.8" y2="300.4"/>
			<line class="st1" x1="304" y1="302.3" x2="514.1" y2="423.6"/>
			<line class="st0" x1="515.7" y1="424.5" x2="516.5" y2="425"/>
		</g>
	</g>
	<g>
		<g>
			<line class="st0" x1="300" y1="300" x2="300.4" y2="300.8"/>
			<line class="st1" x1="302.3" y1="304" x2="423.6" y2="514.1"/>
			<line class="st0" x1="424.5" y1="515.7" x2="425" y2="516.5"/>
		</g>
	</g>
	<g>
		<g>
			<line class="st0" x1="300" y1="300" x2="300" y2="300.9"/>
			<line class="st1" x1="300" y1="304.6" x2="300" y2="547.2"/>
			<line class="st0" x1="300" y1="549.1" x2="300" y2="550"/>
		</g>
	</g>
	<g>
		<g>
			<line class="st0" x1="300" y1="300" x2="299.5" y2="300.8"/>
			<line class="st1" x1="297.6" y1="304" x2="176.4" y2="514.1"/>
			<line class="st0" x1="175.5" y1="515.7" x2="175" y2="516.5"/>
		</g>
	</g>
	<g>
		<g>
			<line class="st0" x1="300" y1="300" x2="299.2" y2="300.4"/>
			<line class="st1" x1="296" y1="302.3" x2="85.9" y2="423.6"/>
			<line class="st0" x1="84.3" y1="424.5" x2="83.5" y2="425"/>
		</g>
	</g>
	<g>
		<g>
			<line class="st0" x1="300" y1="300" x2="299" y2="300"/>
			<line class="st1" x1="295.3" y1="300" x2="52.8" y2="300"/>
			<line class="st0" x1="50.9" y1="300" x2="50" y2="300"/>
		</g>
	</g>
	<g>
		<g>
			<line class="st0" x1="300" y1="300" x2="299.2" y2="299.5"/>
			<line class="st1" x1="296" y1="297.6" x2="85.9" y2="176.4"/>
			<line class="st0" x1="84.3" y1="175.5" x2="83.5" y2="175"/>
		</g>
	</g>
	<g>
		<g>
			<line class="st0" x1="300" y1="300" x2="299.5" y2="299.2"/>
			<line class="st1" x1="297.6" y1="296" x2="176.4" y2="85.9"/>
			<line class="st0" x1="175.5" y1="84.3" x2="175" y2="83.5"/>
		</g>
	</g>
</g>
<g>
	<text transform="matrix(1 0 0 1 271.5091 28.3058)" class="st2 st3 st4">ANIMALS</text>
</g>
<g>
	<text transform="matrix(1 0 0 1 275.5589 581.1749)" class="st2 st3 st4">PEOPLE</text>
</g>
<g>
	<text transform="matrix(1 0 0 1 435.822 64.7198)" class="st2 st3 st4">BODY</text>
</g>
<g>
	<text transform="matrix(1 0 0 1 123.0387 64.7198)" class="st2 st3 st4">OTHER</text>
</g>
<g>
	<text transform="matrix(1 0 0 1 535.2802 164.1783)"><tspan x="0" y="0" class="st2 st3 st4">FLYING</tspan><tspan x="0" y="15.6" class="st2 st3 st4">AND</tspan><tspan x="0" y="31.2" class="st2 st3 st4">FALLING</tspan></text>
</g>
<g>
	<text transform="matrix(1 0 0 1 2.9561 164.6822)"><tspan x="0" y="0" class="st2 st3 st4">WEATHER</tspan><tspan x="13.5" y="15.6" class="st2 st3 st4">EVENTS</tspan></text>
</g>
<g>
	<text transform="matrix(6.123234e-17 -1 1 6.123234e-17 582.5656 318.0333)" class="st2 st3 st4">FOOD</text>
</g>
<g>
	<text transform="matrix(6.123234e-17 -1 1 6.123234e-17 27.8072 328.1144)" class="st2 st3 st4">TRAVELS</text>
</g>
<g>
	<text transform="matrix(1 0 0 1 535.2797 443.4586)" class="st2 st3 st4">MONEY</text>
</g>
<g>
	<text transform="matrix(1 0 0 1 20.9586 443.4586)"><tspan x="0" y="0" class="st2 st3 st4">SUPER-</tspan><tspan x="-13.5" y="15.6" class="st2 st3 st4">NATURAL</tspan></text>
</g>
<g>
	<text transform="matrix(1 0 0 1 436.8304 547.215)" class="st2 st3 st4">NATURE</text>
</g>
<g>
	<text transform="matrix(1 0 0 1 86.2179 547.215)" class="st2 st3 st4">PREGNANCY</text>
</g>
<g>
	<g>
		
			<linearGradient id="SVGID_1_" gradientUnits="userSpaceOnUse" x1="3807.749" y1="-6575.1709" x2="3900.7339" y2="-6414.1162" gradientTransform="matrix(0.9999 -1.221510e-02 1.221510e-02 0.9999 -3476.0007 6734.0728)">
			<stop  offset="0" style="stop-color:#E7E7DF"/>
			<stop  offset="0.167" style="stop-color:#D8E6DD"/>
			<stop  offset="0.4789" style="stop-color:#B7DEE4"/>
			<stop  offset="1" style="stop-color:#8892C7"/>
		</linearGradient>
		<path class="st5" d="M299.5,299.9c2.8,4.6,26.6-49.5,25.8-106.5c-0.5-57-23.3-104-28.4-105.8c-8.1-2.9-5.1,15.5-5.1,15.5l0,0
			c0.5,5.4,0.8,13.3,0.7,20.1c-0.2,13-3.1,27.9-4.8,39.6l-0.5,2.7c-0.8,8.6-2.5,18.8-2.9,28.3C284.4,193.9,278.1,264,299.5,299.9z"
			/>
		<g>
			<path class="st6" d="M293.6,276.1c-0.8-6.1-1-12.3-0.5-18.5c0.5-6.2,1.5-12.2,3.3-18.1c0.8-3,1.9-5.9,3.2-8.7
				c1.2-2.8,2.6-5.6,3.9-8.4c1.3-2.7,2.7-5.6,3.6-8.5c1-2.9,1.7-5.9,2-9c-0.3,3.1-1,6.1-1.9,9s-2.2,5.7-3.5,8.6
				c-1.3,2.8-2.7,5.6-3.8,8.4c-1.2,2.8-2.2,5.7-3.1,8.6c-1.7,5.9-2.7,12-3.1,18.1c-0.4,6.2-0.2,12.3,0.7,18.3L293.6,276.1z"/>
		</g>
		<g>
			<path class="st6" d="M295.4,190.8c0-2,0.6-4,1.5-5.9c0.9-1.9,2-3.5,3-5.3c1-1.8,1.9-3.5,2.5-5.5c0.6-1.9,0.9-4,1-6
				c0,2-0.3,4-0.8,6c-0.6,1.9-1.4,3.8-2.3,5.6c-1,1.8-2.1,3.5-2.9,5.3c-0.8,1.9-1.3,3.8-1.4,5.7L295.4,190.8z"/>
		</g>
		<path class="st6" d="M300,300c-14.6-41.3-5.7-94.7-1-134.4c2.2-18.9,6-42.9,2.1-64.2c-0.6-3.6-1.5-7.1-2.6-10.5
			c-0.3-1.1-0.7-2-1.1-3.1c8.9,22.6,4,63.5-0.7,83.9c-5.8,25.3-7.9,57.3-5.6,85.2C292.2,271.5,295.9,288.6,300,300"/>
	</g>
	<g>
		
			<linearGradient id="SVGID_2_" gradientUnits="userSpaceOnUse" x1="1701.9072" y1="-5001" x2="1772.6083" y2="-4878.542" gradientTransform="matrix(0.872 0.4894 -0.4894 0.872 -3593.1472 3686.4609)">
			<stop  offset="0" style="stop-color:#E7E7DF"/>
			<stop  offset="0.167" style="stop-color:#D8E6DD"/>
			<stop  offset="0.4789" style="stop-color:#B7DEE4"/>
			<stop  offset="1" style="stop-color:#8892C7"/>
		</linearGradient>
		<path class="st7" d="M299.3,299.8c0.1,4.1,36.3-22.5,57.5-60.3c21.3-37.8,24.2-77.3,21.6-80.5c-4.2-5-9.3,8.3-9.3,8.3l0,0
			c-1.7,3.7-4.6,9-7.2,13.5c-5.1,8.5-12.7,17.2-18.2,24.3l-1.4,1.6c-3.8,5.3-8.8,11.4-12.7,17.6
			C329.6,224.2,298.8,267.9,299.3,299.8z"/>
		<g>
			<path class="st6" d="M304.4,281.8c1.8-4.3,4-8.5,6.7-12.4s5.6-7.5,9-10.7c1.7-1.6,3.5-3.1,5.4-4.5c1.9-1.4,3.8-2.7,5.8-4
				c1.9-1.3,3.9-2.7,5.6-4.2c1.8-1.5,3.3-3.2,4.7-5.2c-1.4,1.9-2.9,3.6-4.6,5.2s-3.7,2.9-5.5,4.3c-1.9,1.4-3.9,2.7-5.7,4.1
				c-1.9,1.4-3.7,2.9-5.3,4.5c-3.3,3.2-6.3,6.8-8.9,10.7s-4.8,8-6.5,12.3L304.4,281.8z"/>
		</g>
		<g>
			<path class="st6" d="M338.1,226.3c0.8-1.3,1.9-2.4,3.2-3.3c1.3-0.9,2.7-1.6,4-2.4c1.3-0.8,2.6-1.6,3.7-2.7
				c1.1-1.1,2.1-2.3,2.9-3.6c-0.8,1.3-1.7,2.6-2.8,3.6c-1.1,1.1-2.4,2-3.6,2.8c-1.3,0.8-2.7,1.5-3.9,2.4s-2.3,2-3.1,3.3L338.1,226.3
				z"/>
		</g>
		<path class="st6" d="M299.5,299.9c6.1-32.7,32.2-64.5,50.4-88.9c8.7-11.6,20.3-25.9,25.8-41.5c1-2.6,1.7-5.2,2.3-7.9
			c0.2-0.8,0.3-1.6,0.4-2.5c-2.7,18.3-21.6,43.3-32.4,55c-13.4,14.5-27,34.8-36.1,54C305.3,278.3,301.2,290.9,299.5,299.9"/>
	</g>
	<g>
		
			<linearGradient id="SVGID_3_" gradientUnits="userSpaceOnUse" x1="652.3401" y1="-2542.7668" x2="685.5673" y2="-2485.2156" gradientTransform="matrix(0.5105 0.8598 -0.8598 0.5105 -2170.7578 988.5967)">
			<stop  offset="0" style="stop-color:#E7E7DF"/>
			<stop  offset="0.167" style="stop-color:#D8E6DD"/>
			<stop  offset="0.4789" style="stop-color:#B7DEE4"/>
			<stop  offset="1" style="stop-color:#8892C7"/>
		</linearGradient>
		<path class="st8" d="M299.5,299.8c-0.9,1.7,20.1-0.6,37.6-11c17.6-10.4,28-25.8,27.7-27.7c-0.5-3-5.7,1.2-5.7,1.2l0,0
			c-1.6,1.1-4,2.6-6.1,3.8c-4,2.2-9.2,4-13.1,5.6l-0.9,0.3c-2.8,1.3-6.3,2.6-9.3,4.2C329.6,276.2,306.8,286.7,299.5,299.8z"/>
		<g>
			<path class="st6" d="M305.8,293.7c1.7-1.3,3.6-2.5,5.6-3.5c2-1,4-1.7,6.2-2.2c1.1-0.3,2.2-0.5,3.3-0.6c1.1-0.1,2.2-0.2,3.3-0.3
				c1.1-0.1,2.2-0.2,3.3-0.4c1.1-0.2,2.1-0.5,3.1-1c-1,0.5-2,0.8-3.1,1c-1.1,0.2-2.2,0.3-3.3,0.4c-1.1,0.1-2.2,0.2-3.3,0.3
				c-1.1,0.1-2.2,0.3-3.2,0.6c-2.1,0.5-4.2,1.3-6.2,2.3c-2,1-3.8,2.1-5.5,3.5L305.8,293.7z"/>
		</g>
		<g>
			<path class="st6" d="M332.5,279c0.6-0.4,1.4-0.5,2.1-0.6c0.7,0,1.5,0,2.2,0s1.4,0,2.1-0.2s1.4-0.4,2-0.8c-0.6,0.4-1.3,0.6-2,0.8
				c-0.7,0.2-1.4,0.2-2.1,0.3c-0.7,0-1.4,0-2.2,0.1c-0.7,0.1-1.4,0.3-2,0.6L332.5,279z"/>
		</g>
		<path class="st6" d="M299.5,299.9c10.2-11.9,28.3-18.7,41.4-24.3c6.3-2.7,14.3-5.8,20.3-10.8c1-0.8,1.9-1.7,2.8-2.7
			c0.3-0.3,0.5-0.6,0.8-0.9c-5.4,6.8-19,12.6-26.1,14.8c-8.9,2.7-19.2,7.8-27.4,13.5C307,292.5,302.3,296.6,299.5,299.9"/>
	</g>
	<g>
		
			<linearGradient id="SVGID_4_" gradientUnits="userSpaceOnUse" x1="888.4808" y1="-65.5053" x2="981.4657" y2="95.5493" gradientTransform="matrix(1.217603e-02 0.9999 -0.9999 1.217603e-02 410.0206 -636.5939)">
			<stop  offset="0" style="stop-color:#E7E7DF"/>
			<stop  offset="0.167" style="stop-color:#D8E6DD"/>
			<stop  offset="0.4789" style="stop-color:#B7DEE4"/>
			<stop  offset="1" style="stop-color:#8892C7"/>
		</linearGradient>
		<path class="st9" d="M299.6,299.5c-4.6,2.8,49.5,26.6,106.5,25.8c57-0.5,104-23.3,105.8-28.4c2.9-8.1-15.5-5.1-15.5-5.1l0,0
			c-5.4,0.5-13.3,0.8-20.1,0.7c-13-0.2-27.9-3.1-39.6-4.8l-2.7-0.5c-8.6-0.8-18.8-2.5-28.3-2.9C405.6,284.4,335.5,278,299.6,299.5z"
			/>
		<g>
			<path class="st6" d="M323.4,293.6c6.1-0.8,12.3-1,18.5-0.5c6.2,0.5,12.2,1.5,18.1,3.3c3,0.8,5.9,1.9,8.7,3.2
				c2.8,1.2,5.6,2.6,8.4,3.9c2.7,1.3,5.6,2.7,8.5,3.6c2.9,1,5.9,1.7,9,2c-3.1-0.3-6.1-1-9-1.9c-2.9-0.9-5.7-2.2-8.5-3.5
				c-2.8-1.3-5.6-2.7-8.4-3.8c-2.8-1.2-5.7-2.2-8.6-3.1c-5.9-1.7-12-2.7-18.1-3.1c-6.2-0.4-12.3-0.2-18.3,0.7L323.4,293.6z"/>
		</g>
		<g>
			<path class="st6" d="M408.7,295.4c2,0,4,0.6,5.9,1.5c1.9,0.9,3.5,2,5.3,3s3.5,1.9,5.5,2.5s4,0.9,6,1c-2,0-4-0.3-6-0.8
				c-1.9-0.6-3.8-1.4-5.6-2.3c-1.8-1-3.5-2.1-5.3-2.9s-3.8-1.3-5.7-1.4L408.7,295.4z"/>
		</g>
		<path class="st6" d="M299.5,299.9c41.3-14.6,94.7-5.7,134.4-1c18.9,2.2,42.9,6,64.2,2.1c3.6-0.6,7.1-1.5,10.5-2.6
			c1.1-0.3,2-0.7,3.1-1.1c-22.6,8.9-63.5,4-83.9-0.7c-25.3-5.8-57.3-7.9-85.2-5.6C328,292.2,310.9,295.9,299.5,299.9"/>
	</g>
	<g>
		
			<linearGradient id="SVGID_5_" gradientUnits="userSpaceOnUse" x1="2435.446" y1="2121.7263" x2="2493.3638" y2="2222.0427" gradientTransform="matrix(-0.4894 0.872 -0.872 -0.4894 3457.6372 -753.6213)">
			<stop  offset="0" style="stop-color:#E7E7DF"/>
			<stop  offset="0.167" style="stop-color:#D8E6DD"/>
			<stop  offset="0.4789" style="stop-color:#B7DEE4"/>
			<stop  offset="1" style="stop-color:#8892C7"/>
		</linearGradient>
		<path class="st10" d="M299.7,299.7c-3.4,0.1,18.4,29.8,49.4,47.1c30.9,17.5,63.4,19.8,65.9,17.7c4.1-3.4-6.8-7.6-6.8-7.6l0,0
			c-3-1.4-7.4-3.7-11.1-5.9c-6.9-4.2-14.1-10.4-19.9-14.9l-1.3-1.1c-4.4-3.1-9.4-7.2-14.4-10.4C361.6,324.6,325.8,299.3,299.7,299.7
			z"/>
		<g>
			<path class="st6" d="M314.4,303.9c3.5,1.4,7,3.3,10.1,5.5c3.2,2.2,6.1,4.6,8.8,7.4c1.3,1.4,2.6,2.9,3.7,4.4
				c1.1,1.6,2.2,3.1,3.3,4.7c1.1,1.6,2.2,3.2,3.5,4.6c1.3,1.4,2.7,2.7,4.2,3.8c-1.6-1.1-3-2.4-4.3-3.8c-1.3-1.4-2.4-3-3.5-4.5
				c-1.1-1.6-2.2-3.2-3.3-4.7c-1.1-1.6-2.4-3-3.7-4.4c-2.7-2.7-5.6-5.2-8.8-7.3c-3.2-2.1-6.6-3.9-10.1-5.3L314.4,303.9z"/>
		</g>
		<g>
			<path class="st6" d="M359.8,331.5c1.1,0.6,2,1.6,2.7,2.7c0.7,1.1,1.3,2.2,1.9,3.3c0.6,1.1,1.3,2.1,2.2,3s1.9,1.7,2.9,2.4
				c-1.1-0.6-2.1-1.4-3-2.3c-0.9-0.9-1.6-1.9-2.3-3c-0.6-1.1-1.2-2.2-2-3.2c-0.7-1-1.6-1.9-2.7-2.5L359.8,331.5z"/>
		</g>
		<path class="st6" d="M299.5,299.9c26.8,5,52.9,26.4,72.8,41.3c9.5,7.1,21.2,16.6,34,21.1c2.1,0.8,4.3,1.4,6.4,1.9
			c0.7,0.2,1.3,0.3,2,0.4c-15-2.2-35.5-17.7-45-26.5c-11.8-11-28.5-22.1-44.2-29.6C317.3,304.6,307,301.3,299.5,299.9"/>
	</g>
	<g>
		
			<linearGradient id="SVGID_6_" gradientUnits="userSpaceOnUse" x1="4800.5977" y1="3119.3508" x2="4893.5825" y2="3280.4053" gradientTransform="matrix(-0.8598 0.5105 -0.5105 -0.8598 6155.4458 668.8734)">
			<stop  offset="0" style="stop-color:#E7E7DF"/>
			<stop  offset="0.167" style="stop-color:#D8E6DD"/>
			<stop  offset="0.4789" style="stop-color:#B7DEE4"/>
			<stop  offset="1" style="stop-color:#8892C7"/>
		</linearGradient>
		<path class="st11" d="M299.9,299.8c-4.7-2.6,1.7,56.1,30.9,105.1c29,49.1,72.2,78.4,77.5,77.5c8.4-1.5-3.3-16-3.3-16l0,0
			c-3.1-4.4-7.3-11.1-10.6-17.1c-6.3-11.3-11.2-25.7-15.7-36.7l-0.9-2.6c-3.6-7.8-7.2-17.6-11.7-26
			C366.1,384,336.5,320.1,299.9,299.8z"/>
		<g>
			<path class="st6" d="M317,317.4c3.8,4.9,7,10.2,9.7,15.7c2.7,5.6,4.8,11.3,6.2,17.3c0.8,3,1.3,6.1,1.6,9.1s0.6,6.1,0.8,9.2
				c0.2,3,0.5,6.1,1.1,9.1c0.6,3,1.5,5.9,2.8,8.7c-1.3-2.8-2.2-5.7-2.9-8.7c-0.7-3-0.9-6.1-1.3-9.2c-0.3-3.1-0.5-6.1-0.9-9.2
				c-0.3-3.1-0.9-6.1-1.6-9c-1.5-5.9-3.6-11.7-6.4-17.2c-2.7-5.5-6-10.8-9.8-15.5L317,317.4z"/>
		</g>
		<g>
			<path class="st6" d="M358,392.2c1,1.8,1.5,3.8,1.6,5.9c0.1,2.1,0.1,4.1,0.1,6.1s0.1,4,0.6,6s1.2,3.9,2.2,5.7
				c-1-1.8-1.8-3.6-2.3-5.6c-0.5-2-0.7-4-0.8-6c0-2,0.1-4-0.2-6c-0.2-2-0.7-4-1.7-5.6L358,392.2z"/>
		</g>
		<path class="st6" d="M299.5,299.9c33.3,28.5,52.3,79.1,68.1,115.9c7.5,17.5,16.2,40.1,30.3,56.7c2.3,2.8,4.8,5.4,7.5,7.8
			c0.8,0.8,1.6,1.4,2.5,2.1c-19-15.1-35.2-53.1-41.3-73c-7.6-24.8-21.8-53.6-37.8-76.6C320.5,320.7,308.8,307.8,299.5,299.9"/>
	</g>
	<g>
		
			<linearGradient id="SVGID_7_" gradientUnits="userSpaceOnUse" x1="7398.2695" y1="2853.1035" x2="7491.2544" y2="3014.1582" gradientTransform="matrix(-0.9999 1.213695e-02 -1.213695e-02 -0.9999 7780.5356 3249.7153)">
			<stop  offset="0" style="stop-color:#E7E7DF"/>
			<stop  offset="0.167" style="stop-color:#D8E6DD"/>
			<stop  offset="0.4789" style="stop-color:#B7DEE4"/>
			<stop  offset="1" style="stop-color:#8892C7"/>
		</linearGradient>
		<path class="st12" d="M300,300c-2.8-4.6-26.6,49.5-25.8,106.5c0.5,57,23.3,104,28.4,105.8c8.1,2.9,5.1-15.5,5.1-15.5l0,0
			c-0.5-5.4-0.8-13.3-0.7-20.1c0.2-13,3.1-27.9,4.8-39.6l0.5-2.7c0.8-8.6,2.5-18.8,2.9-28.3C315.1,406,321.4,335.9,300,300z"/>
		<g>
			<path class="st6" d="M305.9,323.8c0.8,6.1,1,12.3,0.5,18.5s-1.5,12.2-3.3,18.1c-0.8,3-1.9,5.9-3.2,8.7c-1.2,2.8-2.6,5.6-3.9,8.4
				c-1.3,2.7-2.7,5.6-3.6,8.5c-1,2.9-1.7,5.9-2,9c0.3-3.1,1-6.1,1.9-9c0.9-2.9,2.2-5.7,3.5-8.5c1.3-2.8,2.7-5.6,3.8-8.4
				c1.2-2.8,2.2-5.7,3.1-8.6c1.7-5.9,2.7-12,3.1-18.1s0.2-12.3-0.7-18.3L305.9,323.8z"/>
		</g>
		<g>
			<path class="st6" d="M304.1,409.1c0,2-0.6,4-1.5,5.9c-0.9,1.9-2,3.5-3,5.3c-1,1.8-1.9,3.5-2.5,5.5c-0.6,1.9-0.9,4-1,6
				c0-2,0.3-4,0.8-6c0.6-1.9,1.4-3.8,2.3-5.6c1-1.8,2.1-3.5,2.9-5.3s1.3-3.8,1.4-5.7L304.1,409.1z"/>
		</g>
		<path class="st6" d="M299.5,299.9c14.6,41.3,5.7,94.7,1,134.4c-2.2,18.9-6,42.9-2.1,64.2c0.6,3.6,1.5,7.1,2.6,10.5
			c0.3,1.1,0.7,2,1.1,3.1c-8.9-22.6-3.9-63.5,0.7-83.9c5.8-25.3,7.9-57.3,5.6-85.2C307.3,328.4,303.6,311.3,299.5,299.9"/>
	</g>
	<g>
		
			<linearGradient id="SVGID_8_" gradientUnits="userSpaceOnUse" x1="9527.5586" y1="1374.9653" x2="9595.085" y2="1491.9249" gradientTransform="matrix(-0.872 -0.4894 0.4894 -0.872 7897.4438 6297.3364)">
			<stop  offset="0" style="stop-color:#E7E7DF"/>
			<stop  offset="0.167" style="stop-color:#D8E6DD"/>
			<stop  offset="0.4789" style="stop-color:#B7DEE4"/>
			<stop  offset="1" style="stop-color:#8892C7"/>
		</linearGradient>
		<path class="st13" d="M299.8,300.1c-0.1-3.9-34.7,21.4-54.9,57.6c-20.4,36.1-23.1,73.9-20.6,76.9c4,4.8,8.8-7.9,8.8-7.9l0,0
			c1.6-3.6,4.4-8.6,6.9-12.9c4.8-8.1,12.1-16.4,17.4-23.2l1.3-1.5c3.6-5.1,8.4-10.9,12.1-16.8C270.8,372.3,300.3,330.5,299.8,300.1z
			"/>
		<g>
			<path class="st6" d="M294.9,317.3c-1.7,4.1-3.8,8.1-6.4,11.8c-2.5,3.7-5.4,7.1-8.6,10.2c-1.6,1.6-3.4,3-5.2,4.3s-3.6,2.6-5.5,3.9
				c-1.8,1.2-3.7,2.5-5.3,4c-1.7,1.5-3.2,3.1-4.5,4.9c1.3-1.8,2.8-3.5,4.4-5s3.5-2.8,5.3-4.1c1.9-1.3,3.7-2.5,5.4-3.9
				c1.8-1.3,3.5-2.8,5.1-4.3c3.2-3.1,6.1-6.5,8.5-10.3c2.5-3.7,4.6-7.7,6.2-11.8L294.9,317.3z"/>
		</g>
		<g>
			<path class="st6" d="M262.8,370.2c-0.7,1.3-1.9,2.3-3.1,3.2c-1.2,0.8-2.5,1.5-3.8,2.3c-1.3,0.8-2.5,1.5-3.6,2.5
				c-1.1,1-2,2.2-2.8,3.4c0.7-1.3,1.6-2.4,2.7-3.5c1.1-1,2.3-1.9,3.5-2.7c1.3-0.8,2.6-1.4,3.7-2.3c1.2-0.9,2.2-1.9,2.9-3.1
				L262.8,370.2z"/>
		</g>
		<path class="st6" d="M299.5,299.9c-5.8,31.3-30.8,61.6-48.2,84.9c-8.3,11.1-19.4,24.8-24.7,39.6c-0.9,2.5-1.6,5-2.2,7.5
			c-0.2,0.8-0.3,1.5-0.4,2.3c2.6-17.5,20.6-41.4,30.9-52.5c12.8-13.8,25.8-33.2,34.5-51.6C294.1,320.6,298,308.6,299.5,299.9"/>
	</g>
	<g>
		
			<linearGradient id="SVGID_9_" gradientUnits="userSpaceOnUse" x1="10606.3818" y1="-965.1893" x2="10652.7451" y2="-884.8851" gradientTransform="matrix(-0.5104 -0.8599 0.8599 -0.5104 6474.8438 8995.0898)">
			<stop  offset="0" style="stop-color:#E7E7DF"/>
			<stop  offset="0.167" style="stop-color:#D8E6DD"/>
			<stop  offset="0.4789" style="stop-color:#B7DEE4"/>
			<stop  offset="1" style="stop-color:#8892C7"/>
		</linearGradient>
		<path class="st14" d="M299.6,300.1c1.3-2.4-28,0.8-52.4,15.4c-24.5,14.4-39.1,36-38.6,38.6c0.8,4.2,8-1.7,8-1.7l0,0
			c2.2-1.6,5.6-3.6,8.5-5.3c5.6-3.1,12.8-5.6,18.3-7.8l1.3-0.5c3.9-1.8,8.8-3.6,13-5.8C257.6,333.1,289.5,318.4,299.6,300.1z"/>
		<g>
			<path class="st6" d="M290.8,308.7c-2.4,1.9-5.1,3.5-7.8,4.8c-2.8,1.3-5.7,2.4-8.6,3.1c-1.5,0.4-3,0.6-4.6,0.8
				c-1.5,0.2-3,0.3-4.6,0.4c-1.5,0.1-3.1,0.2-4.5,0.6c-1.5,0.3-3,0.7-4.4,1.4c1.4-0.6,2.9-1.1,4.3-1.4c1.5-0.3,3-0.5,4.6-0.6
				c1.5-0.1,3.1-0.2,4.6-0.4c1.5-0.2,3-0.5,4.5-0.8c3-0.7,5.8-1.8,8.6-3.2c2.8-1.4,5.4-3,7.7-4.9L290.8,308.7z"/>
		</g>
		<g>
			<path class="st6" d="M253.5,329.1c-0.9,0.5-1.9,0.7-2.9,0.8c-1,0.1-2,0-3,0s-2,0.1-3,0.3c-1,0.2-1.9,0.6-2.8,1.1
				c0.9-0.5,1.8-0.9,2.8-1.2c1-0.2,2-0.3,3-0.4c1,0,2,0,3-0.1c1-0.1,2-0.4,2.8-0.8L253.5,329.1z"/>
		</g>
		<path class="st6" d="M299.5,299.9c-14.2,16.6-39.5,26.1-57.8,33.9c-8.7,3.8-20,8.1-28.3,15.1c-1.4,1.2-2.7,2.4-3.9,3.7
			c-0.4,0.4-0.7,0.8-1.1,1.2c7.5-9.5,26.5-17.5,36.4-20.6c12.4-3.8,26.7-10.9,38.2-18.8C289.2,310.4,295.7,304.6,299.5,299.9"/>
	</g>
	<g>
		
			<linearGradient id="SVGID_10_" gradientUnits="userSpaceOnUse" x1="10327.1602" y1="-3614.5149" x2="10399.1621" y2="-3489.8044" gradientTransform="matrix(-1.209787e-02 -0.9999 0.9999 -1.209787e-02 3893.9382 10620.0781)">
			<stop  offset="0" style="stop-color:#E7E7DF"/>
			<stop  offset="0.167" style="stop-color:#D8E6DD"/>
			<stop  offset="0.4789" style="stop-color:#B7DEE4"/>
			<stop  offset="1" style="stop-color:#8892C7"/>
		</linearGradient>
		<path class="st15" d="M299.5,300.3c3.6-2.2-38.3-20.6-82.5-20c-44.2,0.4-80.5,18-82,22c-2.3,6.2,12,4,12,4l0,0
			c4.1-0.4,10.3-0.6,15.6-0.5c10,0.2,21.6,2.4,30.7,3.7l2.1,0.4c6.6,0.6,14.6,2,21.9,2.2C217.4,312,271.7,316.9,299.5,300.3z"/>
		<g>
			<path class="st6" d="M281.1,304.9c-4.7,0.6-9.5,0.8-14.3,0.4c-4.8-0.4-9.5-1.2-14-2.5c-2.3-0.7-4.6-1.5-6.7-2.5
				c-2.2-1-4.3-2-6.5-3c-2.1-1-4.3-2.1-6.6-2.8c-2.2-0.8-4.6-1.3-6.9-1.5c2.4,0.2,4.7,0.7,6.9,1.5c2.3,0.7,4.4,1.7,6.6,2.7
				c2.2,1,4.3,2.1,6.5,3c2.2,1,4.4,1.7,6.7,2.4c4.6,1.3,9.3,2.1,14,2.4s9.5,0.2,14.2-0.5L281.1,304.9z"/>
		</g>
		<g>
			<path class="st6" d="M215,303.4c-1.6,0-3.1-0.5-4.6-1.2c-1.4-0.7-2.7-1.5-4.1-2.3c-1.4-0.8-2.7-1.5-4.2-1.9s-3.1-0.7-4.6-0.7
				c1.6,0,3.1,0.2,4.6,0.6c1.5,0.5,2.9,1.1,4.3,1.8c1.4,0.8,2.7,1.6,4.1,2.2c1.4,0.6,2.9,1,4.4,1.1L215,303.4z"/>
		</g>
		<path class="st6" d="M299.5,299.9c-32,11.3-73.3,4.4-104.1,0.8c-14.7-1.7-33.2-4.7-49.7-1.7c-2.8,0.5-5.5,1.1-8.1,2
			c-0.8,0.2-1.6,0.5-2.4,0.9c17.5-6.9,49.2-3.1,65,0.6c19.6,4.5,44.4,6.1,66,4.3C277.5,305.9,290.7,303.1,299.5,299.9"/>
	</g>
	<g>
		
			<linearGradient id="SVGID_11_" gradientUnits="userSpaceOnUse" x1="8804.04" y1="-5705.2632" x2="8863.2891" y2="-5602.6406" gradientTransform="matrix(0.4895 -0.872 0.872 0.4895 846.3124 10736.8672)">
			<stop  offset="0" style="stop-color:#E7E7DF"/>
			<stop  offset="0.167" style="stop-color:#D8E6DD"/>
			<stop  offset="0.4789" style="stop-color:#B7DEE4"/>
			<stop  offset="1" style="stop-color:#8892C7"/>
		</linearGradient>
		<path class="st16" d="M299.4,300.2c3.5-0.1-18.8-30.4-50.5-48.2c-31.6-17.9-64.8-20.3-67.4-18.1c-4.2,3.5,6.9,7.8,6.9,7.8l0,0
			c3.1,1.4,7.6,3.8,11.3,6c7.1,4.2,14.4,10.6,20.3,15.3l1.4,1.2c4.5,3.2,9.6,7.4,14.7,10.6C236.1,274.8,272.7,300.6,299.4,300.2z"/>
		<g>
			<path class="st6" d="M284.3,295.9c-3.6-1.5-7.1-3.4-10.4-5.6c-3.2-2.2-6.3-4.7-9-7.6c-1.4-1.4-2.6-2.9-3.8-4.5s-2.3-3.2-3.4-4.8
				c-1.1-1.6-2.2-3.2-3.5-4.7c-1.3-1.5-2.7-2.8-4.3-3.9c1.6,1.1,3,2.5,4.4,3.9c1.3,1.4,2.4,3.1,3.6,4.7c1.1,1.6,2.2,3.2,3.4,4.8
				c1.2,1.6,2.4,3.1,3.8,4.5c2.7,2.8,5.7,5.3,9,7.5c3.3,2.2,6.7,4,10.3,5.4L284.3,295.9z"/>
		</g>
		<g>
			<path class="st6" d="M237.9,267.7c-1.1-0.7-2-1.6-2.8-2.7s-1.3-2.2-2-3.3c-0.7-1.1-1.4-2.2-2.2-3.1c-0.9-0.9-1.9-1.7-3-2.4
				c1.1,0.7,2.1,1.4,3.1,2.3c0.9,0.9,1.6,2,2.3,3.1c0.7,1.1,1.3,2.2,2,3.3c0.8,1,1.7,1.9,2.7,2.6L237.9,267.7z"/>
		</g>
		<path class="st6" d="M299.5,299.9c-27.4-5.1-54.1-27-74.5-42.3c-9.7-7.3-21.7-17-34.8-21.6c-2.2-0.8-4.4-1.4-6.6-1.9
			c-0.7-0.2-1.3-0.3-2.1-0.4c15.3,2.3,36.3,18.1,46.1,27.1c12.1,11.2,29.1,22.6,45.3,30.2C281.4,295.2,292,298.6,299.5,299.9"/>
	</g>
	<g>
		
			<linearGradient id="SVGID_12_" gradientUnits="userSpaceOnUse" x1="6421.9648" y1="-6771.2964" x2="6480.126" y2="-6670.5576" gradientTransform="matrix(0.8599 -0.5104 0.5104 0.8599 -1851.3849 9314.1621)">
			<stop  offset="0" style="stop-color:#E7E7DF"/>
			<stop  offset="0.167" style="stop-color:#D8E6DD"/>
			<stop  offset="0.4789" style="stop-color:#B7DEE4"/>
			<stop  offset="1" style="stop-color:#8892C7"/>
		</linearGradient>
		<path class="st17" d="M299.5,299.9c3,1.6-1.1-35.1-19.3-65.8C262,203.4,235,185,231.7,185.6c-5.3,0.9,2.1,10,2.1,10l0,0
			c2,2.7,4.6,7,6.7,10.7c3.9,7.1,7,16.1,9.8,23l0.6,1.7c2.2,4.9,4.5,11,7.3,16.2C258.1,247.2,276.6,287.1,299.5,299.9z"/>
		<g>
			<path class="st6" d="M288.7,288.8c-2.4-3-4.4-6.4-6.1-9.8c-1.7-3.5-3-7.1-3.9-10.8c-0.5-1.9-0.8-3.8-1-5.7
				c-0.2-1.9-0.3-3.8-0.5-5.8c-0.1-1.9-0.3-3.8-0.7-5.7c-0.4-1.9-0.9-3.7-1.7-5.5c0.8,1.8,1.4,3.6,1.8,5.4c0.4,1.9,0.6,3.8,0.8,5.7
				c0.2,1.9,0.3,3.8,0.6,5.7c0.2,1.9,0.6,3.8,1,5.6c0.9,3.7,2.3,7.3,4,10.8s3.7,6.7,6.1,9.7L288.7,288.8z"/>
		</g>
		<g>
			<path class="st6" d="M263.1,242c-0.6-1.1-0.9-2.4-1-3.7c-0.1-1.3,0-2.5-0.1-3.8s-0.1-2.5-0.4-3.7c-0.3-1.2-0.8-2.4-1.4-3.5
				c0.6,1.1,1.1,2.3,1.4,3.5c0.3,1.2,0.4,2.5,0.5,3.7c0,1.3,0,2.5,0.1,3.8s0.5,2.5,1.1,3.5L263.1,242z"/>
		</g>
		<path class="st6" d="M299.7,299.7c-20.8-17.8-32.7-49.5-42.6-72.5c-4.7-11-10.1-25.1-18.9-35.5c-1.4-1.7-3-3.4-4.7-4.9
			c-0.5-0.5-1-0.9-1.6-1.3c11.9,9.5,22,33.2,25.9,45.7c4.8,15.5,13.7,33.5,23.6,47.9C286.6,286.7,293.9,294.8,299.7,299.7"/>
	</g>
</g>
</svg>
