<?xml version="1.0" encoding="utf-8"?>
<!-- Generator: Adobe Illustrator 23.0.2, SVG Export Plug-In . SVG Version: 6.00 Build 0)  -->
<svg version="1.1" id="Livello_1" xmlns="http://www.w3.org/2000/svg" xmlns:xlink="http://www.w3.org/1999/xlink" x="0px" y="0px"
	 viewBox="0 0 513.17 282.1" style="enable-background:new 0 0 513.17 282.1;" xml:space="preserve">
<style type="text/css">
	.st0{fill:url(#SVGID_1_);}
	.st1{fill:#607CBD;}
	.st2{fill:url(#SVGID_2_);}
	.st3{fill:url(#SVGID_3_);}
	.st4{fill:url(#SVGID_4_);}
	.st5{fill:url(#SVGID_5_);}
	.st6{fill:url(#SVGID_6_);}
	.st7{fill:url(#SVGID_7_);}
	.st8{fill:url(#SVGID_8_);}
	.st9{fill:url(#SVGID_9_);}
	.st10{fill:url(#SVGID_10_);}
	.st11{fill:url(#SVGID_11_);}
	.st12{fill:url(#SVGID_12_);}
</style>
<g>
	<g>
		
			<linearGradient id="SVGID_1_" gradientUnits="userSpaceOnUse" x1="1010.4153" y1="-418.9489" x2="1125.2115" y2="-220.116" gradientTransform="matrix(0.0226 0.9997 -0.9997 0.0226 38.9582 -1040.3248)">
			<stop  offset="0" style="stop-color:#E8E8DF"/>
			<stop  offset="0.167" style="stop-color:#DAE8DF"/>
			<stop  offset="0.4789" style="stop-color:#B6E2E7"/>
			<stop  offset="1" style="stop-color:#8993C7"/>
		</linearGradient>
		<path class="st0" d="M250.7,22.66c-5.7,3.5,61.4,32.2,131.8,30.5c70.4-1.4,128.1-30.1,130.3-36.4c3.5-10-19.2-6.1-19.2-6.1l0,0
			c-6.6,0.7-16.4,1.1-24.8,1.1c-16-0.1-34.5-3.5-49-5.4l-3.4-0.6c-10.6-0.9-23.3-2.9-35-3.2C381.4,2.56,294.8-4.34,250.7,22.66z"/>
		<g>
			<path class="st1" d="M280.1,14.96c7.5-1.1,15.2-1.4,22.8-0.9c7.6,0.5,15.1,1.7,22.4,3.8c3.7,1,7.3,2.3,10.8,3.8s6.9,3.1,10.4,4.7
				c3.4,1.6,6.9,3.2,10.5,4.3c3.6,1.2,7.3,2,11.1,2.3c-3.8-0.3-7.5-1.1-11.1-2.2c-3.6-1.1-7.1-2.7-10.6-4.2
				c-3.5-1.6-6.9-3.2-10.4-4.6c-3.5-1.5-7.1-2.7-10.7-3.7c-7.3-2-14.8-3.2-22.4-3.6c-7.6-0.4-15.2-0.1-22.6,1.1L280.1,14.96z"/>
		</g>
		<g>
			<path class="st1" d="M385.4,16.16c2.5,0,5,0.7,7.3,1.8c2.3,1.1,4.4,2.4,6.6,3.6s4.4,2.3,6.8,3c2.4,0.7,4.9,1,7.4,1.1
				c-2.5,0-5-0.3-7.4-0.9c-2.4-0.7-4.7-1.7-6.9-2.8c-2.2-1.2-4.3-2.5-6.6-3.5c-2.3-1-4.7-1.6-7.1-1.6L385.4,16.16z"/>
		</g>
		<path class="st1" d="M250.7,23.16c50.8-18.5,116.8-8.3,165.9-3c23.4,2.5,53,6.9,79.3,1.8c4.4-0.8,8.7-1.9,12.9-3.3
			c1.3-0.4,2.5-0.9,3.8-1.4c-27.8,11.3-78.4,5.7-103.6,0.2c-31.3-6.8-70.9-9-105.3-5.8C285.7,13.26,264.7,17.96,250.7,23.16"/>
	</g>
	<g>
		
			<linearGradient id="SVGID_2_" gradientUnits="userSpaceOnUse" x1="1020.8511" y1="-377.6914" x2="1115.1982" y2="-214.2774" gradientTransform="matrix(-0.2612 0.9652 -0.9652 -0.2612 348.5361 -1056.7761)">
			<stop  offset="0" style="stop-color:#E8E8DF"/>
			<stop  offset="0.167" style="stop-color:#DAE8DF"/>
			<stop  offset="0.4789" style="stop-color:#B6E2E7"/>
			<stop  offset="1" style="stop-color:#8993C7"/>
		</linearGradient>
		<path class="st2" d="M250.72,22.92c-5.31,1.43,40.91,39.66,96.8,54.69c55.82,15.27,107.98,6.06,111.18,1.61
			c5.08-7.07-13.72-9.27-13.72-9.27l0,0c-5.37-0.98-13.18-2.95-19.81-4.9c-12.59-3.8-26.38-10.78-37.37-15.65l-2.54-1.26
			c-8.15-3.17-17.69-7.7-26.85-10.66C358.43,37.47,291.77,11.89,250.72,22.92z"/>
		<g>
			<path class="st1" d="M275.69,23.69c6.17,0.88,12.31,2.43,18.18,4.59s11.51,4.85,16.77,8.2c2.68,1.65,5.22,3.51,7.63,5.51
				c2.41,2,4.72,4.05,7.11,6.12c2.31,2.05,4.69,4.13,7.28,5.83c2.56,1.78,5.29,3.27,8.21,4.39c-2.93-1.12-5.66-2.61-8.24-4.32
				c-2.58-1.7-4.97-3.78-7.38-5.78c-2.39-2.08-4.69-4.13-7.13-6.04c-2.41-2-4.97-3.78-7.57-5.4c-5.29-3.27-10.92-5.96-16.82-8.05
				c-5.9-2.08-11.96-3.61-18.07-4.39L275.69,23.69z"/>
		</g>
		<g>
			<path class="st1" d="M358.42,49.12c1.97,0.58,3.78,1.71,5.34,3.12c1.56,1.4,2.91,2.92,4.37,4.37s2.93,2.84,4.66,3.95
				c1.73,1.11,3.63,1.93,5.58,2.59c-1.97-0.58-3.87-1.4-5.62-2.43c-1.73-1.11-3.31-2.43-4.79-3.81c-1.46-1.46-2.81-2.97-4.39-4.29
				c-1.58-1.32-3.33-2.35-5.22-2.91L358.42,49.12z"/>
		</g>
		<path class="st1" d="M250.61,23.31c44.35-2.77,94,20.62,131.47,36.22c17.86,7.41,40.17,17.76,62.09,19.86
			c3.65,0.39,7.3,0.53,10.94,0.4c1.12-0.01,2.18-0.13,3.32-0.22c-24.54,2.44-63.13-13.74-81.71-23.94
			c-23.09-12.64-53.8-23.58-81.66-29.06C280.5,23.65,262.85,22.47,250.61,23.31"/>
	</g>
	<g>
		
			<linearGradient id="SVGID_3_" gradientUnits="userSpaceOnUse" x1="1029.3967" y1="-340.7983" x2="1105.5414" y2="-208.912" gradientTransform="matrix(-0.5236 0.8519 -0.8519 -0.5236 650.117 -984.9569)">
			<stop  offset="0" style="stop-color:#E8E8DF"/>
			<stop  offset="0.167" style="stop-color:#DAE8DF"/>
			<stop  offset="0.4789" style="stop-color:#B6E2E7"/>
			<stop  offset="1" style="stop-color:#8993C7"/>
		</linearGradient>
		<path class="st3" d="M250.88,22.38c-4.44-0.1,22.61,40.04,62.44,64.44c39.72,24.57,82.2,29.35,85.69,26.63
			c5.55-4.31-8.5-10.31-8.5-10.31l0,0c-3.93-1.99-9.53-5.29-14.21-8.32c-8.88-5.82-17.96-14.37-25.35-20.65l-1.68-1.56
			c-5.58-4.32-11.94-10-18.35-14.38C330.93,58.24,285.17,23.22,250.88,22.38z"/>
		<g>
			<path class="st1" d="M270.03,28.68c4.57,2.09,8.97,4.69,13.03,7.71c4.05,3.01,7.8,6.38,11.11,10.18c1.7,1.89,3.24,3.91,4.65,6.01
				c1.41,2.1,2.73,4.21,4.1,6.36c1.32,2.12,2.69,4.27,4.3,6.18c1.57,1.96,3.35,3.74,5.36,5.28c-2.01-1.54-3.78-3.31-5.39-5.22
				c-1.61-1.91-2.98-4.06-4.39-6.16c-1.37-2.15-2.69-4.27-4.14-6.31c-1.41-2.1-2.98-4.06-4.63-5.91
				c-3.35-3.74-7.09-7.11-11.18-10.07c-4.09-2.96-8.43-5.53-12.99-7.52L270.03,28.68z"/>
		</g>
		<g>
			<path class="st1" d="M328.26,67.26c1.39,0.9,2.53,2.19,3.42,3.63c0.89,1.44,1.59,2.92,2.38,4.38c0.79,1.46,1.62,2.87,2.71,4.12
				c1.08,1.25,2.37,2.32,3.73,3.28c-1.39-0.9-2.68-1.97-3.8-3.17c-1.08-1.25-2.01-2.64-2.84-4.04c-0.79-1.46-1.5-2.94-2.42-4.33
				s-2.04-2.58-3.38-3.45L328.26,67.26z"/>
		</g>
		<path class="st1" d="M250.7,22.66c34.96,7.98,68.06,37.43,93.5,58.06c12.14,9.82,27.04,22.93,43.53,29.55
			c2.74,1.14,5.53,2.07,8.37,2.81c0.87,0.25,1.72,0.4,2.62,0.59c-19.56-3.71-45.73-25.05-57.79-37.19
			c-14.99-15.06-36.26-30.54-56.57-41.14C273.76,29.75,260.37,24.81,250.7,22.66"/>
	</g>
	<g>
		
			<linearGradient id="SVGID_4_" gradientUnits="userSpaceOnUse" x1="1010.4153" y1="-418.9489" x2="1125.2115" y2="-220.116" gradientTransform="matrix(-0.7433 0.6689 -0.6689 -0.7433 919.051 -830.7375)">
			<stop  offset="0" style="stop-color:#E8E8DF"/>
			<stop  offset="0.167" style="stop-color:#DAE8DF"/>
			<stop  offset="0.4789" style="stop-color:#B6E2E7"/>
			<stop  offset="1" style="stop-color:#8993C7"/>
		</linearGradient>
		<path class="st4" d="M251.08,22.84c-6.37-2.04,15.61,67.55,62.8,119.82c46.96,52.47,106.34,77.51,112.55,75.07
			c9.86-3.87-7.89-18.54-7.89-18.54l0,0c-4.83-4.55-11.53-11.72-17-18.09c-10.36-12.2-19.84-28.44-27.85-40.68l-1.76-2.97
			c-6.23-8.62-12.99-19.56-20.39-28.63C351.53,108.84,300.3,38.67,251.08,22.84z"/>
		<g>
			<path class="st1" d="M276.08,40.11c5.72,4.97,10.97,10.61,15.55,16.7c4.58,6.09,8.56,12.56,11.72,19.46
				c1.65,3.46,3.02,7.03,4.16,10.67c1.14,3.63,2.15,7.25,3.22,10.95c1,3.62,2.07,7.32,3.59,10.77c1.44,3.51,3.24,6.84,5.49,9.92
				c-2.25-3.08-4.06-6.4-5.57-9.85c-1.51-3.45-2.58-7.14-3.73-10.78c-1.07-3.7-2.07-7.32-3.29-10.88
				c-1.14-3.63-2.58-7.14-4.17-10.53c-3.24-6.84-7.22-13.31-11.87-19.33s-9.83-11.59-15.57-16.42L276.08,40.11z"/>
		</g>
		<g>
			<path class="st1" d="M343.83,120.74c1.63,1.9,2.73,4.25,3.39,6.71c0.67,2.46,1.05,4.9,1.57,7.35c0.52,2.45,1.12,4.84,2.16,7.11
				c1.03,2.28,2.44,4.37,3.99,6.33c-1.63-1.9-3.03-3.99-4.14-6.2c-1.03-2.28-1.78-4.67-2.38-7.06c-0.52-2.45-0.91-4.89-1.65-7.29
				c-0.74-2.4-1.85-4.61-3.42-6.43L343.83,120.74z"/>
		</g>
		<path class="st1" d="M250.7,23.16c47.15,26.46,82.44,83.15,110.43,123.84c13.36,19.37,29.32,44.69,50.34,61.3
			c3.48,2.81,7.11,5.36,10.91,7.63c1.15,0.72,2.31,1.31,3.54,1.97c-26.69-13.71-55.44-55.73-67.69-78.43
			c-15.25-28.17-39.4-59.63-64.25-83.63C281.02,43.25,263.77,30.39,250.7,23.16"/>
	</g>
	<g>
		
			<linearGradient id="SVGID_5_" gradientUnits="userSpaceOnUse" x1="1031.4939" y1="-331.7291" x2="1103.318" y2="-207.326" gradientTransform="matrix(-0.9022 0.4313 -0.4313 -0.9022 1133.3562 -606.7234)">
			<stop  offset="0" style="stop-color:#E8E8DF"/>
			<stop  offset="0.167" style="stop-color:#DAE8DF"/>
			<stop  offset="0.4789" style="stop-color:#B6E2E7"/>
			<stop  offset="1" style="stop-color:#8993C7"/>
		</linearGradient>
		<path class="st5" d="M251.16,22.26c-3.46-2.35-2.59,43.3,16.47,83.02c18.89,39.8,50.09,65.34,54.25,64.97
			c6.6-0.57-1.45-12.52-1.45-12.52l0,0c-2.1-3.59-4.84-9.07-7-13.86c-4.05-9.15-6.87-20.58-9.51-29.34l-0.53-2.09
			c-2.21-6.28-4.33-14.04-7.17-20.79C296.22,91.65,277.9,40.47,251.16,22.26z"/>
		<g>
			<path class="st1" d="M263.11,37.05c2.55,4,4.7,8.31,6.37,12.77s2.91,9.05,3.59,13.75c0.38,2.37,0.56,4.76,0.61,7.14
				c0.04,2.38,0,4.73-0.01,7.14c-0.04,2.35-0.05,4.76,0.25,7.09c0.24,2.36,0.74,4.68,1.54,6.92c-0.81-2.24-1.3-4.56-1.6-6.9
				c-0.3-2.34-0.28-4.74-0.33-7.13c0.01-2.41,0.05-4.76-0.05-7.11c-0.04-2.38-0.28-4.74-0.64-7.05c-0.74-4.68-1.98-9.27-3.7-13.7
				c-1.73-4.44-3.85-8.7-6.44-12.61L263.11,37.05z"/>
		</g>
		<g>
			<path class="st1" d="M289.49,97.43c0.64,1.43,0.89,3.03,0.85,4.63c-0.04,1.59-0.24,3.13-0.36,4.69c-0.12,1.56-0.18,3.1,0.04,4.65
				c0.22,1.55,0.69,3.05,1.27,4.5c-0.64-1.43-1.11-2.93-1.39-4.45c-0.22-1.55-0.24-3.12-0.18-4.66c0.12-1.56,0.32-3.1,0.3-4.66
				s-0.3-3.09-0.91-4.46L289.49,97.43z"/>
		</g>
		<path class="st1" d="M250.88,22.38c23.61,24.22,34.75,64.5,44.35,93.87c4.59,13.99,9.68,32.01,19.35,45.7
			c1.59,2.3,3.32,4.47,5.2,6.51c0.56,0.64,1.16,1.19,1.78,1.81c-13.59-12.95-23.4-43.26-26.74-59.05
			c-4.16-19.6-13.09-42.76-23.75-61.56C265.52,39.81,257.44,29.03,250.88,22.38"/>
	</g>
	<g>
		
			<linearGradient id="SVGID_6_" gradientUnits="userSpaceOnUse" x1="1010.4153" y1="-418.9489" x2="1125.2115" y2="-220.116" gradientTransform="matrix(-0.9873 0.1584 -0.1584 -0.9873 1275.5161 -331.2245)">
			<stop  offset="0" style="stop-color:#E8E8DF"/>
			<stop  offset="0.167" style="stop-color:#DAE8DF"/>
			<stop  offset="0.4789" style="stop-color:#B6E2E7"/>
			<stop  offset="1" style="stop-color:#8993C7"/>
		</linearGradient>
		<path class="st6" d="M251.19,23.1c-4.24-5.17-23.55,65.21-12.29,134.72c10.96,69.56,47.24,122.82,53.78,124.14
			c10.38,2.11,3.43-19.85,3.43-19.85l0,0c-1.59-6.44-3.32-16.1-4.46-24.42c-2.08-15.86-1.22-34.66-1.31-49.28l0.13-3.45
			c-0.55-10.62-0.3-23.48-1.59-35.11C288.88,149.85,283.94,63.11,251.19,23.1z"/>
		<g>
			<path class="st1" d="M262.82,51.17c2.11,7.28,3.45,14.87,3.99,22.47c0.54,7.6,0.37,15.19-0.72,22.71
				c-0.49,3.8-1.29,7.54-2.3,11.22c-1.01,3.67-2.13,7.26-3.24,10.94c-1.12,3.59-2.23,7.27-2.83,10.99c-0.7,3.73-0.99,7.5-0.77,11.31
				c-0.22-3.81,0.07-7.58,0.67-11.3c0.6-3.72,1.71-7.4,2.72-11.07c1.11-3.69,2.23-7.27,3.14-10.93c1.01-3.67,1.71-7.4,2.21-11.1
				c0.99-7.5,1.16-15.1,0.52-22.68c-0.64-7.58-1.97-15.07-4.16-22.24L262.82,51.17z"/>
		</g>
		<g>
			<path class="st1" d="M275.95,155.66c0.34,2.48-0.01,5.05-0.79,7.48c-0.78,2.43-1.78,4.69-2.67,7.03
				c-0.89,2.34-1.68,4.67-2.05,7.14c-0.37,2.47-0.32,4.99-0.08,7.48c-0.34-2.48-0.38-4.99-0.11-7.45c0.37-2.47,1.05-4.89,1.84-7.22
				c0.89-2.34,1.89-4.6,2.57-7.01c0.68-2.41,0.95-4.87,0.62-7.25L275.95,155.66z"/>
		</g>
		<path class="st1" d="M250.7,23.16c25.24,47.81,24.11,114.59,25.53,163.95c0.71,23.52,0.37,53.45,9,78.81
			c1.39,4.25,3.07,8.36,5.02,12.33c0.57,1.23,1.23,2.35,1.9,3.57c-14.98-26.01-16.31-76.9-14.29-102.61
			c2.48-31.93-0.72-71.47-8.57-105.11C265.27,56.49,257.75,36.33,250.7,23.16"/>
	</g>
	<g>
		
			<linearGradient id="SVGID_7_" gradientUnits="userSpaceOnUse" x1="1021.6675" y1="-373.5498" x2="1114.1809" y2="-213.3119" gradientTransform="matrix(-0.9918 -0.1275 0.1275 -0.9918 1333.911 -26.7593)">
			<stop  offset="0" style="stop-color:#E8E8DF"/>
			<stop  offset="0.167" style="stop-color:#DAE8DF"/>
			<stop  offset="0.4789" style="stop-color:#B6E2E7"/>
			<stop  offset="1" style="stop-color:#8993C7"/>
		</linearGradient>
		<path class="st7" d="M251.1,22.72c-2.1-4.96-33.07,45.03-40.22,101.33c-7.39,56.26,8.51,105.7,13.26,108.22
			c7.55,4,7.18-14.56,7.18-14.56l0,0c0.24-5.34,1.1-13.2,2.12-19.89c2.01-12.74,6.96-27.07,10.22-38.39l0.89-2.64
			c2-8.34,5.13-18.21,6.78-27.5C251.32,129.29,267.28,61.12,251.1,22.72z"/>
		<g>
			<path class="st1" d="M253.68,47.08c-0.03,6.11-0.72,12.28-2.04,18.28c-1.32,6-3.18,11.83-5.73,17.39
				c-1.24,2.83-2.71,5.54-4.33,8.15s-3.3,5.12-5,7.72c-1.69,2.52-3.38,5.11-4.69,7.85c-1.39,2.72-2.48,5.57-3.17,8.57
				c0.7-2.99,1.78-5.84,3.09-8.58c1.31-2.74,3.01-5.33,4.63-7.94c1.7-2.6,3.38-5.11,4.92-7.73c1.62-2.61,3.01-5.33,4.24-8.08
				c2.48-5.57,4.34-11.41,5.57-17.41c1.24-6.01,1.92-12.1,1.85-18.14L253.68,47.08z"/>
		</g>
		<g>
			<path class="st1" d="M240,130.84c-0.3,1.99-1.16,3.9-2.32,5.6s-2.44,3.22-3.67,4.82c-1.22,1.61-2.36,3.23-3.21,5.06
				c-0.85,1.83-1.39,3.78-1.77,5.76c0.3-1.99,0.84-3.95,1.61-5.79c0.85-1.83,1.92-3.54,3.06-5.16c1.22-1.61,2.51-3.12,3.59-4.84
				c1.07-1.71,1.84-3.55,2.13-5.46L240,130.84z"/>
		</g>
		<path class="st1" d="M250.7,22.66c8.6,42.71-7.5,94.07-17.65,132.55c-4.82,18.34-11.9,41.4-11.01,62.97
			c0.11,3.6,0.46,7.16,1.07,10.68c0.16,1.08,0.42,2.1,0.66,3.2c-5.65-23.52,4.93-63.16,12.36-82.57c9.2-24.12,15.74-55.4,17.34-83.2
			C254.36,51.75,253.15,34.45,250.7,22.66"/>
	</g>
	<g>
		
			<linearGradient id="SVGID_8_" gradientUnits="userSpaceOnUse" x1="1010.4153" y1="-418.9489" x2="1125.2115" y2="-220.116" gradientTransform="matrix(-0.9152 -0.4029 0.4029 -0.9152 1303.7681 281.7865)">
			<stop  offset="0" style="stop-color:#E8E8DF"/>
			<stop  offset="0.167" style="stop-color:#DAE8DF"/>
			<stop  offset="0.4789" style="stop-color:#B6E2E7"/>
			<stop  offset="1" style="stop-color:#8993C7"/>
		</linearGradient>
		<path class="st8" d="M251.15,23.37c-0.76-6.65-55.17,41.98-83.45,106.48c-28.55,64.37-26.99,128.79-22.21,133.45
			c7.58,7.41,13.66-14.81,13.66-14.81l0,0c2.16-6.28,5.95-15.32,9.51-22.93c6.87-14.45,17.78-29.77,25.65-42.1l1.98-2.83
			c5.3-9.22,12.5-19.88,17.72-30.35C214,150.29,256.93,74.76,251.15,23.37z"/>
		<g>
			<path class="st1" d="M245.67,53.27c-2.18,7.26-5.17,14.36-8.84,21.04s-7.94,12.96-12.93,18.68c-2.47,2.93-5.18,5.64-8.02,8.17
				s-5.73,4.94-8.66,7.43c-2.89,2.4-5.82,4.9-8.34,7.69c-2.61,2.75-4.9,5.77-6.78,9.08c1.88-3.32,4.17-6.33,6.69-9.12
				s5.45-5.29,8.29-7.82c2.93-2.49,5.82-4.9,8.57-7.47c2.84-2.54,5.45-5.29,7.88-8.13c4.9-5.77,9.17-12.05,12.75-18.77
				c3.58-6.72,6.53-13.73,8.58-20.94L245.67,53.27z"/>
		</g>
		<g>
			<path class="st1" d="M199.99,148.15c-1.06,2.26-2.75,4.23-4.72,5.85c-1.97,1.62-4.04,2.97-6.06,4.45
				c-2.02,1.48-3.95,3.01-5.6,4.89c-1.65,1.88-2.98,4.02-4.13,6.24c1.06-2.26,2.39-4.4,3.95-6.32c1.65-1.88,3.53-3.54,5.46-5.06
				c2.02-1.48,4.09-2.84,5.97-4.5c1.88-1.66,3.44-3.58,4.46-5.75L199.99,148.15z"/>
		</g>
		<path class="st1" d="M250.7,23.16c-4.76,53.85-41.95,109.32-67.55,151.56c-12.18,20.14-28.7,45.09-35.22,71.07
			c-1.14,4.32-1.96,8.69-2.47,13.08c-0.19,1.35-0.24,2.65-0.34,4.04c1.54-29.97,28.04-73.43,43.7-93.93
			c19.42-25.47,38.18-60.41,49.85-92.93C244.84,59.06,249.48,38.05,250.7,23.16"/>
	</g>
	<g>
		
			<linearGradient id="SVGID_9_" gradientUnits="userSpaceOnUse" x1="1035.433" y1="-316.8305" x2="1099.7382" y2="-205.4505" gradientTransform="matrix(-0.7638 -0.6454 0.6454 -0.7638 1187.551 569.1932)">
			<stop  offset="0" style="stop-color:#E8E8DF"/>
			<stop  offset="0.167" style="stop-color:#DAE8DF"/>
			<stop  offset="0.4789" style="stop-color:#B6E2E7"/>
			<stop  offset="1" style="stop-color:#8993C7"/>
		</linearGradient>
		<path class="st9" d="M251.4,23.28c0.65-3.69-36.3,13.81-61.71,43.98c-25.54,30.06-34.91,64.92-33.09,68.18
			c2.9,5.18,9.69-5.79,9.69-5.79l0,0c2.16-3.03,5.63-7.29,8.74-10.81c5.98-6.68,14.27-13.18,20.45-18.55l1.51-1.2
			c4.31-4.11,9.86-8.7,14.33-13.5C211.33,85.58,246.36,51.8,251.4,23.28z"/>
		<g>
			<path class="st1" d="M243.72,38.47c-2.32,3.56-5.05,6.9-8.08,9.9c-3.03,3-6.32,5.7-9.91,7.99c-1.79,1.18-3.67,2.21-5.6,3.12
				c-1.93,0.91-3.86,1.74-5.83,2.62c-1.93,0.83-3.9,1.71-5.7,2.81c-1.84,1.07-3.55,2.32-5.08,3.8c1.54-1.48,3.25-2.74,5.04-3.84
				c1.8-1.1,3.77-1.98,5.7-2.89c1.97-0.87,3.9-1.71,5.79-2.66c1.93-0.91,3.77-1.98,5.52-3.12c3.55-2.32,6.84-5.02,9.82-8.06
				c2.99-3.04,5.68-6.34,7.93-9.89L243.72,38.47z"/>
		</g>
		<g>
			<path class="st1" d="M204.14,82.21c-0.93,1.05-2.15,1.84-3.46,2.39c-1.32,0.56-2.64,0.96-3.96,1.43s-2.6,0.99-3.78,1.74
				c-1.18,0.75-2.24,1.68-3.21,2.7c0.93-1.05,1.98-1.99,3.12-2.77c1.18-0.75,2.46-1.34,3.74-1.86c1.32-0.48,2.64-0.88,3.92-1.47
				c1.27-0.59,2.42-1.38,3.31-2.39L204.14,82.21z"/>
		</g>
		<path class="st1" d="M251.19,23.1c-11.09,28.18-39.87,52.09-60.31,70.72c-9.73,8.89-22.57,19.68-30.19,32.6
			c-1.3,2.14-2.43,4.36-3.4,6.64c-0.31,0.69-0.55,1.38-0.82,2.11c5.58-15.86,26.71-35.01,38.37-43.54
			c14.47-10.61,30.09-26.41,41.52-42.03C242.36,41.45,248.18,30.9,251.19,23.1"/>
	</g>
	<g>
		
			<linearGradient id="SVGID_10_" gradientUnits="userSpaceOnUse" x1="1038.8557" y1="-306.2088" x2="1097.842" y2="-204.0414" gradientTransform="matrix(-0.5499 -0.8351 0.8351 -0.5499 994.759 811.9694)">
			<stop  offset="0" style="stop-color:#E8E8DF"/>
			<stop  offset="0.167" style="stop-color:#DAE8DF"/>
			<stop  offset="0.4789" style="stop-color:#B6E2E7"/>
			<stop  offset="1" style="stop-color:#8993C7"/>
		</linearGradient>
		<path class="st10" d="M250.84,22.88c1.53-3.08-35.52,2.73-65.71,22.67c-30.27,19.82-47.57,48.05-46.81,51.4
			c1.2,5.31,10.02-2.58,10.02-2.58l0,0c2.68-2.11,6.84-4.95,10.5-7.24c6.99-4.32,15.98-7.89,22.81-11.02l1.64-0.67
			c4.86-2.5,10.94-5.09,16.11-8.15C199.41,67.29,239,46.67,250.84,22.88z"/>
		<g>
			<path class="st1" d="M240.13,34.25c-2.97,2.53-6.24,4.76-9.68,6.61c-3.45,1.86-7.04,3.38-10.79,4.46
				c-1.88,0.57-3.81,0.99-5.74,1.29c-1.93,0.3-3.85,0.53-5.81,0.79c-1.92,0.23-3.88,0.49-5.75,0.99c-1.89,0.46-3.72,1.12-5.46,2.03
				c1.74-0.91,3.57-1.57,5.43-2.07c1.87-0.5,3.83-0.76,5.76-1.06c1.96-0.26,3.88-0.49,5.78-0.83c1.93-0.3,3.83-0.76,5.67-1.31
				c3.72-1.12,7.32-2.64,10.74-4.54c3.42-1.9,6.65-4.1,9.54-6.64L240.13,34.25z"/>
		</g>
		<g>
			<path class="st1" d="M193.96,62.46c-1.09,0.68-2.37,1.06-3.67,1.21c-1.3,0.15-2.57,0.16-3.86,0.23c-1.29,0.08-2.54,0.2-3.78,0.55
				c-1.24,0.35-2.41,0.9-3.52,1.54c1.09-0.68,2.26-1.23,3.47-1.63c1.24-0.35,2.51-0.54,3.77-0.66c1.29-0.08,2.55-0.08,3.83-0.28
				s2.48-0.59,3.53-1.24L193.96,62.46z"/>
		</g>
		<path class="st1" d="M250.7,22.66c-17.07,21.91-48.59,35.48-71.42,46.56c-10.87,5.3-24.96,11.45-35.02,20.85
			c-1.7,1.55-3.27,3.2-4.72,4.96c-0.46,0.53-0.84,1.07-1.27,1.65c9.02-12.5,32.58-23.87,45.06-28.35
			c15.48-5.58,33.33-15.42,47.43-26.2C238.16,36.52,246.02,28.75,250.7,22.66"/>
	</g>
	<g>
		
			<linearGradient id="SVGID_11_" gradientUnits="userSpaceOnUse" x1="1010.4153" y1="-418.9489" x2="1125.2115" y2="-220.116" gradientTransform="matrix(-0.2912 -0.9566 0.9566 -0.2912 741.1501 990.2714)">
			<stop  offset="0" style="stop-color:#E8E8DF"/>
			<stop  offset="0.167" style="stop-color:#DAE8DF"/>
			<stop  offset="0.4789" style="stop-color:#B6E2E7"/>
			<stop  offset="1" style="stop-color:#8993C7"/>
		</linearGradient>
		<path class="st11" d="M250.83,23.64c4.55-4.91-67.81-14.47-135.14,6.14C48.27,50.1,0.44,93.29,0.02,99.95
			c-0.68,10.57,20.13,0.7,20.13,0.7l0,0c6.17-2.45,15.5-5.48,23.59-7.74c15.44-4.21,34.17-5.92,48.64-8l3.44-0.34
			c10.45-1.99,23.22-3.49,34.57-6.35C130.38,78.22,215.64,61.53,250.83,23.64z"/>
		<g>
			<path class="st1" d="M224.6,38.98c-6.93,3.08-14.26,5.44-21.71,7.01c-7.45,1.57-15,2.43-22.6,2.38
				c-3.83,0.03-7.65-0.25-11.42-0.75c-3.77-0.5-7.48-1.13-11.28-1.72c-3.71-0.62-7.51-1.22-11.27-1.31
				c-3.79-0.19-7.57,0.04-11.31,0.78c3.74-0.73,7.52-0.96,11.28-0.87s7.56,0.69,11.34,1.19c3.8,0.6,7.51,1.22,11.25,1.63
				c3.77,0.5,7.56,0.69,11.3,0.68c7.57-0.04,15.11-0.91,22.54-2.57c7.43-1.66,14.66-4,21.47-7.15L224.6,38.98z"/>
		</g>
		<g>
			<path class="st1" d="M122.87,66.2c-2.41,0.67-5,0.67-7.52,0.23c-2.51-0.44-4.88-1.13-7.33-1.69c-2.44-0.56-4.86-1.03-7.36-1.06
				c-2.5-0.03-4.99,0.36-7.42,0.93c2.41-0.67,4.9-1.06,7.37-1.13c2.5,0.03,4.98,0.37,7.4,0.84c2.44,0.56,4.81,1.25,7.3,1.59
				c2.48,0.34,4.96,0.27,7.27-0.37L122.87,66.2z"/>
		</g>
		<path class="st1" d="M250.7,23.16c-43.94,31.5-110.24,39.46-158.96,47.59c-23.21,3.9-52.9,7.64-76.85,19.63
			c-4.02,1.96-7.87,4.17-11.53,6.65c-1.14,0.74-2.17,1.54-3.28,2.37C23.8,81.04,74.04,72.8,99.79,71.3
			c31.97-1.88,70.7-10.44,102.97-22.79C219.66,42.13,238.62,31.94,250.7,23.16"/>
	</g>
	<g>
		
			<linearGradient id="SVGID_12_" gradientUnits="userSpaceOnUse" x1="1027.5596" y1="-352.1454" x2="1109.2073" y2="-210.7275" gradientTransform="matrix(-8.568859e-03 -0.9999 0.9999 -8.568859e-03 447.4534 1089.5254)">
			<stop  offset="0" style="stop-color:#E8E8DF"/>
			<stop  offset="0.167" style="stop-color:#DAE8DF"/>
			<stop  offset="0.4789" style="stop-color:#B6E2E7"/>
			<stop  offset="1" style="stop-color:#8993C7"/>
		</linearGradient>
		<path class="st12" d="M250.69,23.02c4.09-2.43-43.34-23.51-93.43-23.01c-50.08,0.29-91.4,20.12-93.03,24.58
			c-2.59,7.08,13.59,4.53,13.59,4.53l0,0c4.7-0.43,11.67-0.62,17.65-0.53c11.38,0.23,24.5,2.83,34.79,4.33l2.41,0.46
			c7.53,0.75,16.54,2.3,24.86,2.63C157.54,36.01,219.06,41.78,250.69,23.02z"/>
		<g>
			<path class="st1" d="M229.71,28.2c-5.34,0.71-10.82,0.84-16.22,0.41c-5.4-0.43-10.72-1.36-15.89-2.93
				c-2.62-0.75-5.17-1.71-7.64-2.81s-4.88-2.27-7.35-3.45c-2.4-1.17-4.88-2.34-7.42-3.16c-2.55-0.89-5.17-1.5-7.87-1.75
				c2.7,0.25,5.32,0.86,7.87,1.68c2.55,0.82,5.02,1.99,7.5,3.09c2.47,1.17,4.88,2.34,7.35,3.38c2.47,1.1,5.02,1.99,7.57,2.74
				c5.17,1.5,10.49,2.42,15.89,2.78c5.4,0.36,10.81,0.22,16.08-0.56L229.71,28.2z"/>
		</g>
		<g>
			<path class="st1" d="M154.83,26.29c-1.78-0.03-3.55-0.55-5.17-1.35s-3.11-1.75-4.66-2.63c-1.55-0.88-3.11-1.68-4.81-2.2
				c-1.7-0.52-3.47-0.76-5.25-0.86c1.78,0.03,3.55,0.26,5.25,0.71c1.7,0.52,3.33,1.26,4.88,2.06c1.55,0.88,3.03,1.82,4.66,2.56
				c1.63,0.73,3.33,1.18,5.03,1.21L154.83,26.29z"/>
		</g>
		<path class="st1" d="M250.7,22.66c-36.31,12.65-83.15,4.73-118.01,0.47c-16.62-2.01-37.62-5.44-56.38-2.07
			c-3.14,0.52-6.21,1.26-9.21,2.22c-0.93,0.27-1.79,0.62-2.72,0.96c19.88-7.76,55.81-3.27,73.68,0.89
			c22.19,5.15,50.33,7.11,74.83,5.18C225.71,29.35,240.69,26.22,250.7,22.66"/>
	</g>
</g>
</svg>
