<?xml version="1.0" encoding="utf-8"?>
<!-- Generator: Adobe Illustrator 23.0.1, SVG Export Plug-In . SVG Version: 6.00 Build 0)  -->
<!DOCTYPE svg PUBLIC "-//W3C//DTD SVG 1.1//EN" "http://www.w3.org/Graphics/SVG/1.1/DTD/svg11.dtd" [
	<!ENTITY ns_extend "http://ns.adobe.com/Extensibility/1.0/">
	<!ENTITY ns_ai "http://ns.adobe.com/AdobeIllustrator/10.0/">
	<!ENTITY ns_graphs "http://ns.adobe.com/Graphs/1.0/">
	<!ENTITY ns_vars "http://ns.adobe.com/Variables/1.0/">
	<!ENTITY ns_imrep "http://ns.adobe.com/ImageReplacement/1.0/">
	<!ENTITY ns_sfw "http://ns.adobe.com/SaveForWeb/1.0/">
	<!ENTITY ns_custom "http://ns.adobe.com/GenericCustomNamespace/1.0/">
	<!ENTITY ns_adobe_xpath "http://ns.adobe.com/XPath/1.0/">
]>
<svg version="1.1" id="Livello_1" xmlns:x="&ns_extend;" xmlns:i="&ns_ai;" xmlns:graph="&ns_graphs;"
	 xmlns="http://www.w3.org/2000/svg" xmlns:xlink="http://www.w3.org/1999/xlink" x="0px" y="0px" viewBox="0 0 510.2 510.2"
	 style="enable-background:new 0 0 510.2 510.2;" xml:space="preserve">
<style type="text/css">
	.st0{opacity:0.78;fill:none;stroke:#404896;stroke-width:2;stroke-miterlimit:10;enable-background:new    ;}
	.st1{opacity:0.78;fill:none;stroke:#404896;stroke-width:1.5;stroke-miterlimit:10;enable-background:new    ;}
	.st2{opacity:0.78;fill:none;stroke:#404896;stroke-width:0.5;stroke-miterlimit:10;enable-background:new    ;}
	.st3{fill:none;stroke:#444695;stroke-width:0.5;stroke-miterlimit:10;}
	.st4{opacity:0.5;}
	.st5{fill:#454897;}
</style>
<metadata>
	<x:xmpmeta  xmlns:x="adobe:ns:meta/">
		<rdf:RDF  xmlns:rdf="http://www.w3.org/1999/02/22-rdf-syntax-ns#">
			
				<rdf:Description  rdf:about="" xmlns:dc="http://purl.org/dc/elements/1.1/" xmlns:stDim="http://ns.adobe.com/xap/1.0/sType/Dimensions#" xmlns:stFnt="http://ns.adobe.com/xap/1.0/sType/Font#" xmlns:xmp="http://ns.adobe.com/xap/1.0/" xmlns:xmpG="http://ns.adobe.com/xap/1.0/g/" xmlns:xmpGImg="http://ns.adobe.com/xap/1.0/g/img/" xmlns:xmpTPg="http://ns.adobe.com/xap/1.0/t/pg/">
				<xmp:CreatorTool>Adobe Illustrator CC 23.0 (Macintosh)</xmp:CreatorTool>
				<xmp:CreateDate>2019-05-28T11:38:45+02:00</xmp:CreateDate>
				<xmp:Thumbnails>
					<rdf:Alt>
						<rdf:li  rdf:parseType="Resource">
							<xmpGImg:width>228</xmpGImg:width>
							<xmpGImg:height>256</xmpGImg:height>
							<xmpGImg:format>JPEG</xmpGImg:format>
							<xmpGImg:image>/9j/4AAQSkZJRgABAgEASABIAAD/7QAsUGhvdG9zaG9wIDMuMAA4QklNA+0AAAAAABAASAAAAAEA
AQBIAAAAAQAB/+4ADkFkb2JlAGTAAAAAAf/bAIQABgQEBAUEBgUFBgkGBQYJCwgGBggLDAoKCwoK
DBAMDAwMDAwQDA4PEA8ODBMTFBQTExwbGxscHx8fHx8fHx8fHwEHBwcNDA0YEBAYGhURFRofHx8f
Hx8fHx8fHx8fHx8fHx8fHx8fHx8fHx8fHx8fHx8fHx8fHx8fHx8fHx8fHx8f/8AAEQgBAADkAwER
AAIRAQMRAf/EAaIAAAAHAQEBAQEAAAAAAAAAAAQFAwIGAQAHCAkKCwEAAgIDAQEBAQEAAAAAAAAA
AQACAwQFBgcICQoLEAACAQMDAgQCBgcDBAIGAnMBAgMRBAAFIRIxQVEGE2EicYEUMpGhBxWxQiPB
UtHhMxZi8CRygvElQzRTkqKyY3PCNUQnk6OzNhdUZHTD0uIIJoMJChgZhJRFRqS0VtNVKBry4/PE
1OT0ZXWFlaW1xdXl9WZ2hpamtsbW5vY3R1dnd4eXp7fH1+f3OEhYaHiImKi4yNjo+Ck5SVlpeYmZ
qbnJ2en5KjpKWmp6ipqqusra6voRAAICAQIDBQUEBQYECAMDbQEAAhEDBCESMUEFURNhIgZxgZEy
obHwFMHR4SNCFVJicvEzJDRDghaSUyWiY7LCB3PSNeJEgxdUkwgJChgZJjZFGidkdFU38qOzwygp
0+PzhJSktMTU5PRldYWVpbXF1eX1RlZmdoaWprbG1ub2R1dnd4eXp7fH1+f3OEhYaHiImKi4yNjo
+DlJWWl5iZmpucnZ6fkqOkpaanqKmqq6ytrq+v/aAAwDAQACEQMRAD8A9U4q7FXYq7FXYq7FXYq7
FXYq7FXYq7FVC5uCh4J9s9T4YQjfkELQn4nJJ98HEphXNyyFPsNT27YaLXfcjYJxKlejD7QxIZxl
apgZOxV2KuxVSN1ai5FqZkF0y+oIOQ9QpWnLjWtK98VVcVdirsVaZlVSzEKqipJ2AAxVqOSOWNZI
2DxuAyOpBVlIqCCOoOKrsVdirsVdirsVdirsVdirsVdirsVdirsVdirsVS1mrPJXrU/gclIbIxHc
sctfMksurXUPrI1u6yraRqVLK0A3Ld6PuRXwy44fSGUioeX9W1K6urVJLlrn1oXluY3hEQjAICMj
BV5VO3fLckAAdnGLLLJiJ6eINcxZcmUDumGQbnYq7FXYq8dbWXtfNy3P1zT7iW48xXtrzmiDzQen
pUjRssnq1VVEaIVAAP04VVofzC85Hyv5evpb7S47nzFZtewX1yptbOGZIYito8heYO0kju37JorA
b9FXox16CbRL+9s54XnsEmWZn5iFLiGPkyuaBuKnqQOmBXn6ef8AzLPBaRJfQWtzI2ox3TTQRuVk
sbZJh6bxy+lJGWJo47bH4gcKoYfmnPqrWlrLNa/VNSsWivoeIURyy6T9e2d5OTVclB8PGm1SwNFU
H5Z/Me+t/KOjxxXcFqyx2OntbXXCNLSH6pVb2WejqUneMIhpxVm4seQ4hVklh+YGpW+sWsWv3lmt
l9T9e6udP/fW/KK19ednLETRruGjbiUZdq8sVejKysoZTVWFQfY4FbxV2KuxV2KuxV2KuxV2KuxV
2KuxV2KuxVK72MpM3Xi9SCKjr13GWx3DRImJtLTpmnG3gt/RpFbHlAoZgVO4+1WprXeuTBN2pyWv
tdLsYmt2ii4G1VkgIZqhW6g7/EPnjKZYDdNrGMl2k7DYfPKpFtxje0bkG12KuxV2KsasfO/k+70x
9VNxHb2qTTQvJcKIyGhdldt/2aJy5dl+1TFVXWvOnlPRLW8e8u4lOn28l5JbR0aQpCod/TXozDmu
w6chXriqV6P538vJ5gv9IZ7eztZPqc9jI7MJLmbUTLy5h+/NAo+YHgMKsn1O80nStOkvr9o7axtV
JllZfgjVjQk0Gw33wKl483+UBJJD9egVo5RazKVKhZfTMvByQAP3VX3/AGd+mKqUvnXymkmnRJcJ
OupzyWdu0K81WSJDI6yU3XoO3cHpviq7UfMnkiSG6i1DULRYgY7a7EkioD6zlERiSOSSMjL/ACmj
DxxVObC/stQsoL6xmS4tLlBJBPGeSujCoIOKq+KuxV2KuxV2KuxV2KuxV2KuxV2KuxV2KrJYklXi
4qPxGEGkEWg20xq/CwI99sn4jV4SpHY0+230DImTIQRSqqgBRQDtkWxvFXYq7FXYq89f8q5zb2ML
X1pdJYS6gscF7ZGeB7bUpxcOskfrpWVGACuCBTYrviq65/KlJrfXrMXFotvrMV4kVz9TBvYGvkKu
FmEgUxqzEqoQGlF5UGKqt7+X+tXdzfXMmo2nqXp0h2BtZCFfSZ/XBWs23qHb2xVk1np95feX5LHz
CI7mS8SeO7jVQFMMzOFjYDkKiJgrUJFa4qxLTPynksLe59PWZXvbnTDZPcyRq4+uFXiW9KMSC6Qv
6VD1UYVVtM/LbUrG/t779LRyTQ6lLqTAwSmv1myFnNHya4Z6/DyRidu4OBULb/lNPbaGmlwXlkrW
9xYPBeixK3EkGnXK3MaXMgm/eMeHEsoUdTxqdlXowAAoNgMVdirsVdirsVQtzqdnbkq71cdUUVOG
mEsgCgmv6ezUYunuy7fhXJCBa/zEUwR0dA6MGVtwwNQchTcDbeKXYq7FXYq7FXYq7FXYq7FXYq7F
XYq7FXYq7FXYqp3FzBbpzmcIvavU/IDCASxlIDmgjr1j4OR4hf7clwI49roou2vba5BMMgYjqvQj
6DkTEhMZg8lbAydirsVdirsVdiqX6xfNbxrFEaSy9D3CjqckB1a5y6DmWManqml6asf1+8gtPWJE
ZnkSLkRSoXmRU75PDjMzsLpoyRpBT6/oEU6282p2kU8gUpC88auwfdSFLVPLtmUMUqui4/CU90i9
ktLlY2P7iU0YdgT0OUziCGeGZia6MnzGdg7FXYq7FXYq7FXYq7FXYq7FXYq7FXYq7FXYqsnmSGF5
X+ygLH6MIFlEpULYTqOtWoka81O6itYK8fUnkWOMV+yoZiBmVKBAqIsuJp/3k7lybtdd0G7EX1bU
LW4EztFD6c0bh5FUMyLxJqwU1IGYksUxzBdtKUa2RNtd2rXEn1O5R7m1YLMkbqzRsRXi4BJUkdjk
rkOY2Lg5IjmGU2dyLi3SWlCdmHgR1yLKMrFq2LJ2KuxV2KuxVIddB+vxE/Z9MU+fI1yd+ljGN5Pg
80/MWznOrQX9lb3j30do0UbR2K6hauGct6cimpjbkv2x2OZWimOGiRV99FuzQSZ/LOsa3qmoreW0
WmJd6fZJKzWplVHEZ9RLZy6KhTp+1TM6GWMYije56/e67KeF6TZqBbRwqSRGoRSTVjx2FT3O2YGX
Y248DxBlI1/RxtLcrbN/LchrdvH7MwQ5jeHLudraNguIJ4xJBIksZ6OjBl+8ZEgjmq/ArsVdirsV
dirsVdirsVdirsVdirsVdiqA10N+irjj1ov3chXLMX1Bp1H0F5J+YFvc3GiQJDDNOUvbeSRbeP1p
AiNVmCcXBoPEUza4qu/IuBpp0SlGpaS+tJoVtZRajapFeXDSXc9otrLC/oBo5SsMcKcQ4WhpvSlc
YejiJrkOt/e5ksye/l7BrsF/r82s25hu57mMtIFKxy8I+JkiJABVqV26ZTqhExiI8gGmU97D1LQG
Js5Cenqmn/ArmukKcnAdvimWRbnYq7FXYq7FUBrFi9zAHi/voqlR4g9RkokciwmDzHMMbe6KVV0P
IbEHY1+WWDT9xR+f2ohBTTF9lFMy8eOubrs+o4uQWyXN7aNaR2ixfXblz9S+t80t5ZIyGMPqKKK7
rXhXqcjMCRN8h3Nmmxnmn2l+edOnuxp2qxPour0/3jvCFD9qwzfYlHy39sx54CBcfVHydhacT6Np
E8hlmsoXlO5lMa86+POnKv05WJyHVKn+hkSn1a7urc9yJjMKeHG49ZR9Ax4+8D8e5XelrsP2J4Lt
RsElRoXI8WlQutflFjcT5fj8dVa/StzCaXlhPGBsZoALmOv+SI/330mMY8APIqiLTUtPvCwtrhJX
UVeNSOa1/mQ/Ev0jBKBHNUTkVdirsVdirsVdirsVdiq2WaKGJpZnWOJAWeRyFVQOpJOwwgWrE7zz
jJqzS6d5Vs/0tJvHNqEhMdhFXY1l6yEfyx/fmRHDw7zNeXVjLcUh7rSbi3cLOAHoPiSvE+NCcsjn
dZkwEFbHAF3Y1wnJfJAh3qsUU1zMIoV5M33AeJyJNDdlEGRoMts7VbW2SFd+I3PiTuTmJI2XYwjw
ilbAzdirsVdirsVdiqHudOsrk1niDt/NuD94oclGZHJhPFGXMKMeh6UjhhbgkdORZh9xJGSOWXew
GngOjer6Np+rabLp15Hyt5BQcdmQj7Lof2WU7g4ITMTYbaY/YLDfmbyp5rhivry3T1LaeVQVu7f7
ImX+WVPsyU3B3Gxy6W3rhsPuXyLh5U8waPv5Y1Y/Vh00nU+U8AH8sco/fRgeG+PjRl9Y+IRTY883
OnfD5m0e50wL9q9hBu7SnSpkiBZK+DLj4Al9BB+wptPtL13RtVj56bfQXa0qRDIrED/KUGq/TlM8
co8xSbR2QVD3mnWF4FF3bxz8K8C6glSe6k7qfcZKMiOSof8ARl3Aa2V9Igr/AHNzW5j6b7sVm/5K
U9sPGDzH6Fa/SN9b0F/ZNx/3/aVuE8N0AWYGvgjAeOHhB5H5qi7S9tLyL1bWZJo60LIwah8DTofY
5AxI5qrYFdirsVSjV/N/lnSCUv8AUYYpgafVw3qTV9ok5P8AhlsMM5cgglKj5m80aqAvl/RHghbp
qOrE28Y71WBazOCOh2yzwoR+qXwC23H5FN/Is/mjUJdakB5LZ/3Fkh7UgQ/ER4uTidRW0Bw/etMo
gggt4UhgjWKGMcUjQBVUeAA2GY5N80tyRRyqUkUMp7EVwIItBtommsamL6OTU/XkxMhrOCJ6IqC2
t7deMMYQHrTqfmciZE82cYCPJUwMnYq7FXYq7FXYq7FXYq7FXYqk/mbQ5NTtI5bSQW+r2Levpl1/
JKBQq3jHIPhceGW4snCd/pPNBCr5d1tNY00XBjMF1EzQX1qxq0NxHtJGfkeh7ihwZMfCaUFM8rSk
eqeR/KmpyerdabD9YrX6xCDDLXx9SIox+k5dDPOPIooIH/Bmq2lP0R5l1C2A2Ed16d7GB4ASryH/
AAWS8cH6oj7lpcLf8y7f4Y7vSdQQH7c8U9s5H/PNpV/DG8R6SC7uGs+f4hSXy5b3B7vb36qPoWWM
frx4Mf8AO+xbLY8xechs3lKWvil9aEfiyn8MfDx/z/sK2UHeXfma7k9b/B8kdyBxF0uoW0MwA6AS
RMWI/wAk7e2SiID+P7ChbHqH5qpG/HSLJ1A/d/WLoGb35GFI42+5fpw8OHvPyXduzk896sxjfWbH
S50WsltBZyPOo8WW6cbf5QXj4VwSGOPQn4/qXdFHyEl3vrWs6jqYJq8DTfV4G/55QCP9eR/MV9IA
TSb6T5Z8v6QB+jdPgtWAp6iIPUNfGQ1c/ScrnllLmVATPK0uxV2KuxV2KuxV2KuxV2KuxV2KuxV2
KuxV2KuxV2KsW1kfoDzBFr6fDpmoGO01sfso/wBm3uj4cSfTc+BHhmRD1x4eo5fpCCynMdLsVdir
sVdirsVdirsVULyws7xVW4iDlDyjfdXRv5kdaMh91OSjIjkqD4axY7xsdStRT925VLlR0+F/hjk+
TcT/AJTHJek+R+xCLstRtLxWMD1eOgliYFJEJ6B0YBlr7jIyiRzSiMirsVdirsVdirsVdirsVdir
sVdirsVdirsVdirsVdiqhf2Ntf2U9ldIJLa5jaKVD3VxQ4YyINhUm8m3t19UuNHv3Mmo6LJ9VlkP
WWEjlbzf7OMiv+UDlueIviHKX4KAyDKUuxV2KuxV2KuxV2KuxV2KoS90y1u2WRwY7mMUhuojwlSv
YMOo8VNVPcHJRmQqGF9fafRdSX1rYbDUIVoAP+L4xUp7utV7ngMlwiXL5ITNHSRFdGDo4DKymoIO
4IIytLeKuxV2KuxV2KuxV2KuxV2KuxV2KuxV2KuxV2KuxVjOugaV5m0zW1+G3vSNL1LwpIeVtIf9
WX4K+DZkY/VAx7tx+lBZNmOl2KuxV2KuxV2KuxV2KuxV2KuxVLH0ua0dp9JZYix5S2Lki3kJNSVo
CYnP8yih7qTvlnHe0kIix1OC7Lx8Whuov761lAEiV6GgJDKezKSD45GUCPclF5FXYq7FXYq7FXYq
7FXYq7FXYq7FXYq7FXYq7FUu8xaSur6He6aTxa5iKxv/ACyD4o3/ANi4ByeOfDIFBW+WdVbVdAsb
+QcZpYgLhaU4zIeEq7eEisMOWHDIhQmeVpdirsVdirsVdirsVdirsVdirsVQt9psF4EZi0VxFUwX
MZ4yRk9eJ32PdTUHuMlGRCqFvqE8EyWephUmc8be6QUhnPhuTwk/yCd/2Sd6SMQdwhMcrS7FXYq7
FXYq7FXYq7FXYq7FXYq7FXYq7FXYqxvywPqWt+YNIpRFuU1C3rt+7vVq4A8BNG+X5d4xl5V8kBkm
UJdirsVdirsVdirsVdirsVdirsVdiqncW8FzA8FxGssMgo8bioI+RwgkbhUt+sXGksEu3abTDsl4
5q8H+TOTuyf8WHf+b+bJ0JcuaE2BBFR0ytLsVdirsVdiqhc3Pp/Cu7/gMIDCUqQRmuGNS5+g0/Vl
lBq4iqRXMyHduY8D/XIkMhIo6N1dQy9DkG0G12KXYq7FXYq7FWOX3G18+aXcf9XKyubNh/lQMtxH
/wAKZMvjvjI7iD+hHVkeUJdirsVdirsVdirsVdirsVdirsVdirsVcyqylWAKkUIO4IOKpFcztoTc
IGEtnKCYrVyQYCO0dB/df5J+z222W+EfE97RmzCASptX1S6kqJmUdlQ8QPuy6UIwG7iQnkyHZFW1
/qkJB9UyDurnlX798xzOBc6OnygWn9hfR3cXIDi67Oh7H+mVkUyib580TgZJNqM7xWVzdKAXjjeQ
A9KqpIrk4bkBpIY1H5n1D6tLITbTsLQ3IMHIiNtvgl+I77+OZXhC+vNHCmj6jcLf2EAC8LqKSSQ7
1BQKRx3/AMrICIILAik80+QlmXsRXKJimzGUdkG52KuxV2KuxVjvnHlFLoN2mzQarboWHXjcK9uw
+R9UZfh/iH9H9qCyLKEuxV2KuxV2KuxV2KuxV2KuxV2KuxV2KuxVhuvyNLezMTsjcF9gu2ZundVq
jciwDTvNvma41TUIYVtVs7G6ngobW8YskA5VNwhMCsR2Yj5bjMnNghQJuz5j7ubl6eXCBSI8l+fN
Z1jUNOt7ttPuU1CCaWSOx9QS2hipT6wGeQAPWg6ZjanSRgCRxCj16+5z4Zieb0fSWeLU0UfZlBVh
8hUfiMxIm4uPk+sFkWRZpXdW6SxTWkhIWRWjJHWjCm1fY4eW7GPcgF0CxUjdyv1YWkqEikkaigL0
H2gO4pkvFP222cClb6Jb2cwm9aa4kVPTiMzBuCbVC0A8MtGQyacopOtMjI5SHp9kZXkLHEOqOytu
dirsVdirsVY7+YB4+VriYfat5rWdT4GK6iev3DL9P9fz+5BZFlCXYq7FXYq7FXYq7FXYq7FXYq7F
XYq7FXYqxfWrYJeyBthL8anxr1/HL8UiHAzw3Y9p/lq1sYtRiikdk1KeW5nLEEq8yhWC0UUA47Vr
mVLNxV5NW6lo/lDTNLuNNmtJp1k06BrQMWX99Czcgs1F+Li268aZDNlMgb67t0cptmOkxNJfCQfZ
iBJPuQQB+OYI2DkRPFL3J7i3KU9usor0cdDhBQQhmtrkbBQfcEfxxoJ45NJYSM1ZDxHcdTkuKuTU
YEmyjkRUUKooB0GQbAKbxS7FXYq7FXYqx38w/wDlDNU/4xr/AMnFy/Tf3gQeTIsoS7FXYq7FXYq7
FXYq7FXYq7FXYq7FXYq7FUNfWEN5Fwk2Ybo46g5KMiGvJjEhukU2g6kjUQCZexDAfg1MvGSLhy08
x5r7bQtQZh6nGFe5JDH6AMhKYZwwS9yfWtrFbRCOMbdST1J8TlLlxiAKVcWTsVdirsVdirsVdirs
VdirsVY7+Yf/AChupDuyxoo8S0qKB95y/Tf3gQeTIsoS7FXYq7FXYq7FXYq7FXYq7FXYq7FXYqx/
zJ550Ty7O0OpCZStnNf8o4y6mC2Kibia7snNSVG9DiqDvfzO8q2NvLPeyy28cXUun2lEKTu0dCeY
jjlQtx7sAKnbFVDWvPaR+YPL9npsqvYXl/La6ndNGfRCx2U9xwWYkKGVolLbHbuN8VS++/MiaLX7
pIX9PR1tNPntZZ7WY8zeXjQFwUIYo6ABGIADddsKp8v5ieWfr0lpJJNCYnuonnlglSL1LJDLOgdl
6rGC3yGBUP8A8rP8tfWvqnp3n1r0/W9D6tJy9L0frHPw/uvipWvaldsNKy3ArsVdirsVdirsVdir
sVdirHfPf7zRYLPvfX9jbj5NdRs3T/JU5fp/qvuB+5BZFlCXYq7FXYq7FXYq7FXYq7FXYq7FXYq7
FUo8weVtK16TTnv1ZjplyLqEKaBiEZDG/WqNy+Je9BiqT2/5aaRZ2ekQadeXVjNo6SwwXUZilkeG
4ZWlikFxHMjAmNOJ48l4ihxVbN+WGlTaglw9/eGzW9m1H9GkwmAz3MElvcEsYzNSVZmJAk2JqKYq
h2/KiyeF4pda1CYfV7SyiMv1YmO3sbkXMCAiFWYq4oWYkkdd98VX6t+XdYbi7sbyeXUEnv8AULWB
2iSN7i+tmgMbv6ZKpRuo3GFWJf8AKuvNn6M+p87v9G/V6fVvS0n9IfW/T9CvrU9L0PS+D7XOm3Tb
FXseBXYq7FXYq7FXYq7FXYq7FWOeZqXGu+WtPP7V5JeN/q2kDkf8PImX4toyPlXzQWR5Ql2KuxV2
KuxV2KuxV2KuxV2KuxV2KuxV2KuxV2KuxV2KuxV2KuxV2KuxV2KuxV2KuxV2Ksch/wBM8/XDg8ot
I09IaHtNeSeo1P8AnnCv35edsfvP3I6sjyhLsVdirsVdirsVdirsVdirsVdirsVdirsVdirsVdir
sVdirsVdirsVdirsVdirsVQt5qVrabSNVz0jXdslGJLXPKI80EfMUQ/3SafMV/Vh4C1/mB3ITykg
V9TuJ5Fa+1C8kuGUEkiEARwLUgV4xIPllmbp3AM8eSMuTIsobXYq7FXYq7FXYq7FXYqoTXkUZp9p
vAZIRthKYCkupxk0KED2Ncl4ZY+KEVHKki8kNRkCKbAQV2BLsVdirsVdirsVdirsVdirsVdirsVd
irsVUL65FtayT0qUHwjxJ2H45KIs0wyS4YksC1rzFpmkxLeatO0a3EoiRgkkpaRgWChY1c9FPbMy
GIy2i6+Nk2lk/nTy8bCO/N8BbTO0UYVJDIXT7S+kF9Wq9/hzIjhINUwOORKN0rWILuGO+064E0RJ
4SrUEFTQgg0II7gjIyh0IayJQL0KwuvrVnFPShcfEPcbH8c1s40advjnxRBRGRZuxV2KuxV2KuxV
Qu5SiBR1bv7DCAwmaSm8nigieaZuMUal3ahNAOuw3y6AaDzUvrtis1vC0oWW7Ba3Wh+IAVPbbbxx
N7nubI4wUdCzQSBv2eh+WQu0mBgU0yttdirsVdirsVdirsVdirsVdirsVdirsVdiqA11SdNk9ipP
/BDJw5tOcel5x5x0XUtTOjLZckNtqMVxPNGYw0USo4MiiUMpILDbiflmdp8oF33OHHa0vn8nX+i6
taa1pEMmryA3JvYJpYo5nkuuJMyMRHECOAUig26YnVRkDGR4f2OZjxkhM/LWi39nbX93qEYt7nU7
2S7+pq4kWFXUKF5L8JY8asRlZzAyAHIRpdVhrHZ73oXl5Sulx17liPvzHzH1I0w9CY5U3uxV2Kux
V2KuxVBahUOh7UIycWrIkevx309lJa2lt65uUaNpOaoI67AkManr2y7EQDZa0uudE1mWSS6jCCW0
EK2KMAWcQ0YlW5hUDsT9oYfEiNu/m3wZMSTGCy8SQCVNKg+G2YsebZM7JmoooHtixDeKuxV2KuxV
2KuxV2KuxV2KuxV2KuxV2KrZY0ljaNxVXBBHscQgixTHLqze0k4yLWP9iSmx/tw79HH4aO6kZYgN
jkeCRcuGSIbgtJr6QJGKRg/HJ2H9uWQHDuWGoyeJ6Y8mTQxJDEkSCiIAAPlkSbUChS/Al2KuxV2K
uxV2KqdxCJYyvQjdT74QaYyjYS4oyNxYUPhk7aaXrReuQJtsjsqwQM7h3FEG4HjjyZcyjcDJ2Kux
V2KuxV2KuxV2KuxV2KuxV2KuxV2KrJp4IIzJNIsUY6u5CqK7dTiq5lVgQwBB6g7jFVH6hY/8s8f/
AAC/0w8RY8A7lZVVVCqAqjoBsMDJvFVks0MQUyyLGHYIpYgVZjRVFe5PQYqvxV2KuxV2KuxV2KtM
qsKMAR74q0Iox0QD6Biil2KXYq7FXYq7FXYq7FXYq7FXYq7FXYq7FUj86atqGl6BJd6eYvrYkhRF
mdIwytIokVGkKxiQpyEfMheVK4q8/uPzN15We4gvrY2ltY6Fe+nPbelLN+krp7e4VgZTw+BQ44ja
o6jqVS3zP5/m1fS9YtJ5be6tIjYXlj6apE4ki1hYHjHORjUIiV9TiwYmoClcVThvzG11xZRWmpac
s92JJ2fUD9WjjljlVW04jiWaWNSeXR22ZRTqqn3lnzzJca5qVjrFzEnG4SHTxAokhYTTTJCFlQsw
dli4vHKqsGUkfCRiql5x8xatpHnCNradngh0K/vIdJFD9cuYJIyIkHUuVO3EFgK06nAqSSfmJ5n/
AEfB6WpaKy6hLKLPWPrH+iRcLdJEguH48BI8jMQux4LT7W+FUt1jWNVur3UI9T1eD1bXzPov1KBg
DFAjxWknqxhmRzFzd/Cu/vir0nyLrd3rGhyT3k8Fzc217e2Uk9tQRuLW6khRqAtQsiKSMCshxV2K
uxV2KuxV2KuxV2KuxV2KuxV2KuxV2KuxV2KuxV2KuxV2KtOiOpR1DKeqsKg/QcVWtBC32o1NaA1A
Ow6YqsuDZxQtJcenHCu7vJxVQSepJ23OKqK6jo7yALdW7SMygASIWLsPgHXqR0xVCalfeWIGtJb6
aBed3wtWJFDdhWG/Hbkq8vtdOuKpkbm05yAyx84KeqCy1TmPh5fy8u2Ktx/VpYlMfCSI7qVoVrXq
KbdcVXNFExqyKx2NSAdx0xVtERAQihQTU0FN8VbxV2KuxV2KuxV2KuxV2KuxV2KuxV2KuxV2KuxV
2KuxV2KuxV2KuxV2KobVNNs9U026029jEtpeRPBPGe6SKVP68VeeaB+WXmGxvRd317bXkj2vKZGS
iNqNrG9pZz7AHj9Vk/ed+YBGFUNpn5aeZLcwSzQ6eTFqNjqBtBK3p8YLJrOeMFbdFH7LL8O42bcV
Kq65/K/V5NM1e3kt7W71C5Bjg1Oa7uGaeNrxbmskDxskLChrxZt+lATjavS9OsbOws4rWztorO3j
BK20CqkaFiWYKqhR9ok9MCojFXYq7FXYq7FXYq7FXYq7FXYq7FXYq7FXYq7FXYq7FXYq7FXYq7FX
Yq7FXYq7FXYq7FXYq7FXYq7FXYq7FXYq7FXYq7FXYq7FXYq7FXYq7FXYq7FXYq7FX//Z
								</xmpGImg:image>
						</rdf:li>
					</rdf:Alt>
				</xmp:Thumbnails>
				<xmpTPg:MaxPageSize  rdf:parseType="Resource">
					<stDim:w>180.000000</stDim:w>
					<stDim:h>180.000000</stDim:h>
					<stDim:unit>Millimeters</stDim:unit>
				</xmpTPg:MaxPageSize>
				<xmpTPg:NPages>1</xmpTPg:NPages>
				<xmpTPg:HasVisibleTransparency>True</xmpTPg:HasVisibleTransparency>
				<xmpTPg:HasVisibleOverprint>False</xmpTPg:HasVisibleOverprint>
				<xmpTPg:Fonts>
					<rdf:Bag>
						<rdf:li  rdf:parseType="Resource">
							<stFnt:fontName>Amiri-Regular</stFnt:fontName>
							<stFnt:fontFamily>Amiri</stFnt:fontFamily>
							<stFnt:fontFace>Regular</stFnt:fontFace>
							<stFnt:fontType>TrueType</stFnt:fontType>
							<stFnt:versionString>Version 000.107</stFnt:versionString>
							<stFnt:composite>False</stFnt:composite>
							<stFnt:fontFileName>Amiri-Regular.ttf</stFnt:fontFileName>
						</rdf:li>
						<rdf:li  rdf:parseType="Resource">
							<stFnt:fontName>Raleway-Bold</stFnt:fontName>
							<stFnt:fontFamily>Raleway</stFnt:fontFamily>
							<stFnt:fontFace>Bold</stFnt:fontFace>
							<stFnt:fontType>Open Type</stFnt:fontType>
							<stFnt:versionString>Version 3.000g; ttfautohint (v1.5) -l 8 -r 28 -G 28 -x 14 -D latn -f cyrl -w G -c -X &quot;&quot;
								</stFnt:versionString>
							<stFnt:composite>False</stFnt:composite>
							<stFnt:fontFileName>Raleway-Bold.ttf</stFnt:fontFileName>
						</rdf:li>
					</rdf:Bag>
				</xmpTPg:Fonts>
				<xmpTPg:PlateNames>
					<rdf:Seq>
						<rdf:li>Cyan</rdf:li>
						<rdf:li>Magenta</rdf:li>
						<rdf:li>Yellow</rdf:li>
						<rdf:li>Black</rdf:li>
					</rdf:Seq>
				</xmpTPg:PlateNames>
				<xmpTPg:SwatchGroups>
					<rdf:Seq>
						<rdf:li  rdf:parseType="Resource">
							<xmpG:groupName>Gruppo campioni predefinito</xmpG:groupName>
							<xmpG:groupType>0</xmpG:groupType>
							<xmpG:Colorants>
								<rdf:Seq>
									<rdf:li  rdf:parseType="Resource">
										<xmpG:swatchName>Bianco</xmpG:swatchName>
										<xmpG:mode>CMYK</xmpG:mode>
										<xmpG:type>PROCESS</xmpG:type>
										<xmpG:cyan>0.000000</xmpG:cyan>
										<xmpG:magenta>0.000000</xmpG:magenta>
										<xmpG:yellow>0.000000</xmpG:yellow>
										<xmpG:black>0.000000</xmpG:black>
									</rdf:li>
									<rdf:li  rdf:parseType="Resource">
										<xmpG:swatchName>Nero</xmpG:swatchName>
										<xmpG:mode>CMYK</xmpG:mode>
										<xmpG:type>PROCESS</xmpG:type>
										<xmpG:cyan>0.000000</xmpG:cyan>
										<xmpG:magenta>0.000000</xmpG:magenta>
										<xmpG:yellow>0.000000</xmpG:yellow>
										<xmpG:black>100.000000</xmpG:black>
									</rdf:li>
									<rdf:li  rdf:parseType="Resource">
										<xmpG:swatchName>Rosso CMYK</xmpG:swatchName>
										<xmpG:mode>CMYK</xmpG:mode>
										<xmpG:type>PROCESS</xmpG:type>
										<xmpG:cyan>0.000000</xmpG:cyan>
										<xmpG:magenta>100.000000</xmpG:magenta>
										<xmpG:yellow>100.000000</xmpG:yellow>
										<xmpG:black>0.000000</xmpG:black>
									</rdf:li>
									<rdf:li  rdf:parseType="Resource">
										<xmpG:swatchName>Giallo CMYK</xmpG:swatchName>
										<xmpG:mode>CMYK</xmpG:mode>
										<xmpG:type>PROCESS</xmpG:type>
										<xmpG:cyan>0.000000</xmpG:cyan>
										<xmpG:magenta>0.000000</xmpG:magenta>
										<xmpG:yellow>100.000000</xmpG:yellow>
										<xmpG:black>0.000000</xmpG:black>
									</rdf:li>
									<rdf:li  rdf:parseType="Resource">
										<xmpG:swatchName>Verde CMYK</xmpG:swatchName>
										<xmpG:mode>CMYK</xmpG:mode>
										<xmpG:type>PROCESS</xmpG:type>
										<xmpG:cyan>100.000000</xmpG:cyan>
										<xmpG:magenta>0.000000</xmpG:magenta>
										<xmpG:yellow>100.000000</xmpG:yellow>
										<xmpG:black>0.000000</xmpG:black>
									</rdf:li>
									<rdf:li  rdf:parseType="Resource">
										<xmpG:swatchName>Cyan CMYK</xmpG:swatchName>
										<xmpG:mode>CMYK</xmpG:mode>
										<xmpG:type>PROCESS</xmpG:type>
										<xmpG:cyan>100.000000</xmpG:cyan>
										<xmpG:magenta>0.000000</xmpG:magenta>
										<xmpG:yellow>0.000000</xmpG:yellow>
										<xmpG:black>0.000000</xmpG:black>
									</rdf:li>
									<rdf:li  rdf:parseType="Resource">
										<xmpG:swatchName>Blu CMYK</xmpG:swatchName>
										<xmpG:mode>CMYK</xmpG:mode>
										<xmpG:type>PROCESS</xmpG:type>
										<xmpG:cyan>100.000000</xmpG:cyan>
										<xmpG:magenta>100.000000</xmpG:magenta>
										<xmpG:yellow>0.000000</xmpG:yellow>
										<xmpG:black>0.000000</xmpG:black>
									</rdf:li>
									<rdf:li  rdf:parseType="Resource">
										<xmpG:swatchName>Magenta CMYK</xmpG:swatchName>
										<xmpG:mode>CMYK</xmpG:mode>
										<xmpG:type>PROCESS</xmpG:type>
										<xmpG:cyan>0.000000</xmpG:cyan>
										<xmpG:magenta>100.000000</xmpG:magenta>
										<xmpG:yellow>0.000000</xmpG:yellow>
										<xmpG:black>0.000000</xmpG:black>
									</rdf:li>
									<rdf:li  rdf:parseType="Resource">
										<xmpG:swatchName>C=15 M=100 Y=90 K=10</xmpG:swatchName>
										<xmpG:mode>CMYK</xmpG:mode>
										<xmpG:type>PROCESS</xmpG:type>
										<xmpG:cyan>15.000000</xmpG:cyan>
										<xmpG:magenta>100.000000</xmpG:magenta>
										<xmpG:yellow>90.000000</xmpG:yellow>
										<xmpG:black>10.000000</xmpG:black>
									</rdf:li>
									<rdf:li  rdf:parseType="Resource">
										<xmpG:swatchName>C=0 M=90 Y=85 K=0</xmpG:swatchName>
										<xmpG:mode>CMYK</xmpG:mode>
										<xmpG:type>PROCESS</xmpG:type>
										<xmpG:cyan>0.000000</xmpG:cyan>
										<xmpG:magenta>90.000000</xmpG:magenta>
										<xmpG:yellow>85.000000</xmpG:yellow>
										<xmpG:black>0.000000</xmpG:black>
									</rdf:li>
									<rdf:li  rdf:parseType="Resource">
										<xmpG:swatchName>C=0 M=80 Y=95 K=0</xmpG:swatchName>
										<xmpG:mode>CMYK</xmpG:mode>
										<xmpG:type>PROCESS</xmpG:type>
										<xmpG:cyan>0.000000</xmpG:cyan>
										<xmpG:magenta>80.000000</xmpG:magenta>
										<xmpG:yellow>95.000000</xmpG:yellow>
										<xmpG:black>0.000000</xmpG:black>
									</rdf:li>
									<rdf:li  rdf:parseType="Resource">
										<xmpG:swatchName>C=0 M=50 Y=100 K=0</xmpG:swatchName>
										<xmpG:mode>CMYK</xmpG:mode>
										<xmpG:type>PROCESS</xmpG:type>
										<xmpG:cyan>0.000000</xmpG:cyan>
										<xmpG:magenta>50.000000</xmpG:magenta>
										<xmpG:yellow>100.000000</xmpG:yellow>
										<xmpG:black>0.000000</xmpG:black>
									</rdf:li>
									<rdf:li  rdf:parseType="Resource">
										<xmpG:swatchName>C=0 M=35 Y=85 K=0</xmpG:swatchName>
										<xmpG:mode>CMYK</xmpG:mode>
										<xmpG:type>PROCESS</xmpG:type>
										<xmpG:cyan>0.000000</xmpG:cyan>
										<xmpG:magenta>35.000000</xmpG:magenta>
										<xmpG:yellow>85.000000</xmpG:yellow>
										<xmpG:black>0.000000</xmpG:black>
									</rdf:li>
									<rdf:li  rdf:parseType="Resource">
										<xmpG:swatchName>C=5 M=0 Y=90 K=0</xmpG:swatchName>
										<xmpG:mode>CMYK</xmpG:mode>
										<xmpG:type>PROCESS</xmpG:type>
										<xmpG:cyan>5.000000</xmpG:cyan>
										<xmpG:magenta>0.000000</xmpG:magenta>
										<xmpG:yellow>90.000000</xmpG:yellow>
										<xmpG:black>0.000000</xmpG:black>
									</rdf:li>
									<rdf:li  rdf:parseType="Resource">
										<xmpG:swatchName>C=20 M=0 Y=100 K=0</xmpG:swatchName>
										<xmpG:mode>CMYK</xmpG:mode>
										<xmpG:type>PROCESS</xmpG:type>
										<xmpG:cyan>20.000000</xmpG:cyan>
										<xmpG:magenta>0.000000</xmpG:magenta>
										<xmpG:yellow>100.000000</xmpG:yellow>
										<xmpG:black>0.000000</xmpG:black>
									</rdf:li>
									<rdf:li  rdf:parseType="Resource">
										<xmpG:swatchName>C=50 M=0 Y=100 K=0</xmpG:swatchName>
										<xmpG:mode>CMYK</xmpG:mode>
										<xmpG:type>PROCESS</xmpG:type>
										<xmpG:cyan>50.000000</xmpG:cyan>
										<xmpG:magenta>0.000000</xmpG:magenta>
										<xmpG:yellow>100.000000</xmpG:yellow>
										<xmpG:black>0.000000</xmpG:black>
									</rdf:li>
									<rdf:li  rdf:parseType="Resource">
										<xmpG:swatchName>C=75 M=0 Y=100 K=0</xmpG:swatchName>
										<xmpG:mode>CMYK</xmpG:mode>
										<xmpG:type>PROCESS</xmpG:type>
										<xmpG:cyan>75.000000</xmpG:cyan>
										<xmpG:magenta>0.000000</xmpG:magenta>
										<xmpG:yellow>100.000000</xmpG:yellow>
										<xmpG:black>0.000000</xmpG:black>
									</rdf:li>
									<rdf:li  rdf:parseType="Resource">
										<xmpG:swatchName>C=85 M=10 Y=100 K=10</xmpG:swatchName>
										<xmpG:mode>CMYK</xmpG:mode>
										<xmpG:type>PROCESS</xmpG:type>
										<xmpG:cyan>85.000000</xmpG:cyan>
										<xmpG:magenta>10.000000</xmpG:magenta>
										<xmpG:yellow>100.000000</xmpG:yellow>
										<xmpG:black>10.000000</xmpG:black>
									</rdf:li>
									<rdf:li  rdf:parseType="Resource">
										<xmpG:swatchName>C=90 M=30 Y=95 K=30</xmpG:swatchName>
										<xmpG:mode>CMYK</xmpG:mode>
										<xmpG:type>PROCESS</xmpG:type>
										<xmpG:cyan>90.000000</xmpG:cyan>
										<xmpG:magenta>30.000000</xmpG:magenta>
										<xmpG:yellow>95.000000</xmpG:yellow>
										<xmpG:black>30.000000</xmpG:black>
									</rdf:li>
									<rdf:li  rdf:parseType="Resource">
										<xmpG:swatchName>C=75 M=0 Y=75 K=0</xmpG:swatchName>
										<xmpG:mode>CMYK</xmpG:mode>
										<xmpG:type>PROCESS</xmpG:type>
										<xmpG:cyan>75.000000</xmpG:cyan>
										<xmpG:magenta>0.000000</xmpG:magenta>
										<xmpG:yellow>75.000000</xmpG:yellow>
										<xmpG:black>0.000000</xmpG:black>
									</rdf:li>
									<rdf:li  rdf:parseType="Resource">
										<xmpG:swatchName>C=80 M=10 Y=45 K=0</xmpG:swatchName>
										<xmpG:mode>CMYK</xmpG:mode>
										<xmpG:type>PROCESS</xmpG:type>
										<xmpG:cyan>80.000000</xmpG:cyan>
										<xmpG:magenta>10.000000</xmpG:magenta>
										<xmpG:yellow>45.000000</xmpG:yellow>
										<xmpG:black>0.000000</xmpG:black>
									</rdf:li>
									<rdf:li  rdf:parseType="Resource">
										<xmpG:swatchName>C=70 M=15 Y=0 K=0</xmpG:swatchName>
										<xmpG:mode>CMYK</xmpG:mode>
										<xmpG:type>PROCESS</xmpG:type>
										<xmpG:cyan>70.000000</xmpG:cyan>
										<xmpG:magenta>15.000000</xmpG:magenta>
										<xmpG:yellow>0.000000</xmpG:yellow>
										<xmpG:black>0.000000</xmpG:black>
									</rdf:li>
									<rdf:li  rdf:parseType="Resource">
										<xmpG:swatchName>C=85 M=50 Y=0 K=0</xmpG:swatchName>
										<xmpG:mode>CMYK</xmpG:mode>
										<xmpG:type>PROCESS</xmpG:type>
										<xmpG:cyan>85.000000</xmpG:cyan>
										<xmpG:magenta>50.000000</xmpG:magenta>
										<xmpG:yellow>0.000000</xmpG:yellow>
										<xmpG:black>0.000000</xmpG:black>
									</rdf:li>
									<rdf:li  rdf:parseType="Resource">
										<xmpG:swatchName>C=100 M=95 Y=5 K=0</xmpG:swatchName>
										<xmpG:mode>CMYK</xmpG:mode>
										<xmpG:type>PROCESS</xmpG:type>
										<xmpG:cyan>100.000000</xmpG:cyan>
										<xmpG:magenta>95.000000</xmpG:magenta>
										<xmpG:yellow>5.000000</xmpG:yellow>
										<xmpG:black>0.000000</xmpG:black>
									</rdf:li>
									<rdf:li  rdf:parseType="Resource">
										<xmpG:swatchName>C=100 M=100 Y=25 K=25</xmpG:swatchName>
										<xmpG:mode>CMYK</xmpG:mode>
										<xmpG:type>PROCESS</xmpG:type>
										<xmpG:cyan>100.000000</xmpG:cyan>
										<xmpG:magenta>100.000000</xmpG:magenta>
										<xmpG:yellow>25.000000</xmpG:yellow>
										<xmpG:black>25.000000</xmpG:black>
									</rdf:li>
									<rdf:li  rdf:parseType="Resource">
										<xmpG:swatchName>C=75 M=100 Y=0 K=0</xmpG:swatchName>
										<xmpG:mode>CMYK</xmpG:mode>
										<xmpG:type>PROCESS</xmpG:type>
										<xmpG:cyan>75.000000</xmpG:cyan>
										<xmpG:magenta>100.000000</xmpG:magenta>
										<xmpG:yellow>0.000000</xmpG:yellow>
										<xmpG:black>0.000000</xmpG:black>
									</rdf:li>
									<rdf:li  rdf:parseType="Resource">
										<xmpG:swatchName>C=50 M=100 Y=0 K=0</xmpG:swatchName>
										<xmpG:mode>CMYK</xmpG:mode>
										<xmpG:type>PROCESS</xmpG:type>
										<xmpG:cyan>50.000000</xmpG:cyan>
										<xmpG:magenta>100.000000</xmpG:magenta>
										<xmpG:yellow>0.000000</xmpG:yellow>
										<xmpG:black>0.000000</xmpG:black>
									</rdf:li>
									<rdf:li  rdf:parseType="Resource">
										<xmpG:swatchName>C=35 M=100 Y=35 K=10</xmpG:swatchName>
										<xmpG:mode>CMYK</xmpG:mode>
										<xmpG:type>PROCESS</xmpG:type>
										<xmpG:cyan>35.000000</xmpG:cyan>
										<xmpG:magenta>100.000000</xmpG:magenta>
										<xmpG:yellow>35.000000</xmpG:yellow>
										<xmpG:black>10.000000</xmpG:black>
									</rdf:li>
									<rdf:li  rdf:parseType="Resource">
										<xmpG:swatchName>C=10 M=100 Y=50 K=0</xmpG:swatchName>
										<xmpG:mode>CMYK</xmpG:mode>
										<xmpG:type>PROCESS</xmpG:type>
										<xmpG:cyan>10.000000</xmpG:cyan>
										<xmpG:magenta>100.000000</xmpG:magenta>
										<xmpG:yellow>50.000000</xmpG:yellow>
										<xmpG:black>0.000000</xmpG:black>
									</rdf:li>
									<rdf:li  rdf:parseType="Resource">
										<xmpG:swatchName>C=0 M=95 Y=20 K=0</xmpG:swatchName>
										<xmpG:mode>CMYK</xmpG:mode>
										<xmpG:type>PROCESS</xmpG:type>
										<xmpG:cyan>0.000000</xmpG:cyan>
										<xmpG:magenta>95.000000</xmpG:magenta>
										<xmpG:yellow>20.000000</xmpG:yellow>
										<xmpG:black>0.000000</xmpG:black>
									</rdf:li>
									<rdf:li  rdf:parseType="Resource">
										<xmpG:swatchName>C=25 M=25 Y=40 K=0</xmpG:swatchName>
										<xmpG:mode>CMYK</xmpG:mode>
										<xmpG:type>PROCESS</xmpG:type>
										<xmpG:cyan>25.000000</xmpG:cyan>
										<xmpG:magenta>25.000000</xmpG:magenta>
										<xmpG:yellow>40.000000</xmpG:yellow>
										<xmpG:black>0.000000</xmpG:black>
									</rdf:li>
									<rdf:li  rdf:parseType="Resource">
										<xmpG:swatchName>C=40 M=45 Y=50 K=5</xmpG:swatchName>
										<xmpG:mode>CMYK</xmpG:mode>
										<xmpG:type>PROCESS</xmpG:type>
										<xmpG:cyan>40.000000</xmpG:cyan>
										<xmpG:magenta>45.000000</xmpG:magenta>
										<xmpG:yellow>50.000000</xmpG:yellow>
										<xmpG:black>5.000000</xmpG:black>
									</rdf:li>
									<rdf:li  rdf:parseType="Resource">
										<xmpG:swatchName>C=50 M=50 Y=60 K=25</xmpG:swatchName>
										<xmpG:mode>CMYK</xmpG:mode>
										<xmpG:type>PROCESS</xmpG:type>
										<xmpG:cyan>50.000000</xmpG:cyan>
										<xmpG:magenta>50.000000</xmpG:magenta>
										<xmpG:yellow>60.000000</xmpG:yellow>
										<xmpG:black>25.000000</xmpG:black>
									</rdf:li>
									<rdf:li  rdf:parseType="Resource">
										<xmpG:swatchName>C=55 M=60 Y=65 K=40</xmpG:swatchName>
										<xmpG:mode>CMYK</xmpG:mode>
										<xmpG:type>PROCESS</xmpG:type>
										<xmpG:cyan>55.000000</xmpG:cyan>
										<xmpG:magenta>60.000000</xmpG:magenta>
										<xmpG:yellow>65.000000</xmpG:yellow>
										<xmpG:black>40.000000</xmpG:black>
									</rdf:li>
									<rdf:li  rdf:parseType="Resource">
										<xmpG:swatchName>C=25 M=40 Y=65 K=0</xmpG:swatchName>
										<xmpG:mode>CMYK</xmpG:mode>
										<xmpG:type>PROCESS</xmpG:type>
										<xmpG:cyan>25.000000</xmpG:cyan>
										<xmpG:magenta>40.000000</xmpG:magenta>
										<xmpG:yellow>65.000000</xmpG:yellow>
										<xmpG:black>0.000000</xmpG:black>
									</rdf:li>
									<rdf:li  rdf:parseType="Resource">
										<xmpG:swatchName>C=30 M=50 Y=75 K=10</xmpG:swatchName>
										<xmpG:mode>CMYK</xmpG:mode>
										<xmpG:type>PROCESS</xmpG:type>
										<xmpG:cyan>30.000000</xmpG:cyan>
										<xmpG:magenta>50.000000</xmpG:magenta>
										<xmpG:yellow>75.000000</xmpG:yellow>
										<xmpG:black>10.000000</xmpG:black>
									</rdf:li>
									<rdf:li  rdf:parseType="Resource">
										<xmpG:swatchName>C=35 M=60 Y=80 K=25</xmpG:swatchName>
										<xmpG:mode>CMYK</xmpG:mode>
										<xmpG:type>PROCESS</xmpG:type>
										<xmpG:cyan>35.000000</xmpG:cyan>
										<xmpG:magenta>60.000000</xmpG:magenta>
										<xmpG:yellow>80.000000</xmpG:yellow>
										<xmpG:black>25.000000</xmpG:black>
									</rdf:li>
									<rdf:li  rdf:parseType="Resource">
										<xmpG:swatchName>C=40 M=65 Y=90 K=35</xmpG:swatchName>
										<xmpG:mode>CMYK</xmpG:mode>
										<xmpG:type>PROCESS</xmpG:type>
										<xmpG:cyan>40.000000</xmpG:cyan>
										<xmpG:magenta>65.000000</xmpG:magenta>
										<xmpG:yellow>90.000000</xmpG:yellow>
										<xmpG:black>35.000000</xmpG:black>
									</rdf:li>
									<rdf:li  rdf:parseType="Resource">
										<xmpG:swatchName>C=40 M=70 Y=100 K=50</xmpG:swatchName>
										<xmpG:mode>CMYK</xmpG:mode>
										<xmpG:type>PROCESS</xmpG:type>
										<xmpG:cyan>40.000000</xmpG:cyan>
										<xmpG:magenta>70.000000</xmpG:magenta>
										<xmpG:yellow>100.000000</xmpG:yellow>
										<xmpG:black>50.000000</xmpG:black>
									</rdf:li>
									<rdf:li  rdf:parseType="Resource">
										<xmpG:swatchName>C=50 M=70 Y=80 K=70</xmpG:swatchName>
										<xmpG:mode>CMYK</xmpG:mode>
										<xmpG:type>PROCESS</xmpG:type>
										<xmpG:cyan>50.000000</xmpG:cyan>
										<xmpG:magenta>70.000000</xmpG:magenta>
										<xmpG:yellow>80.000000</xmpG:yellow>
										<xmpG:black>70.000000</xmpG:black>
									</rdf:li>
								</rdf:Seq>
							</xmpG:Colorants>
						</rdf:li>
						<rdf:li  rdf:parseType="Resource">
							<xmpG:groupName>Grigi</xmpG:groupName>
							<xmpG:groupType>1</xmpG:groupType>
							<xmpG:Colorants>
								<rdf:Seq>
									<rdf:li  rdf:parseType="Resource">
										<xmpG:swatchName>C=0 M=0 Y=0 K=100</xmpG:swatchName>
										<xmpG:mode>CMYK</xmpG:mode>
										<xmpG:type>PROCESS</xmpG:type>
										<xmpG:cyan>0.000000</xmpG:cyan>
										<xmpG:magenta>0.000000</xmpG:magenta>
										<xmpG:yellow>0.000000</xmpG:yellow>
										<xmpG:black>100.000000</xmpG:black>
									</rdf:li>
									<rdf:li  rdf:parseType="Resource">
										<xmpG:swatchName>C=0 M=0 Y=0 K=90</xmpG:swatchName>
										<xmpG:mode>CMYK</xmpG:mode>
										<xmpG:type>PROCESS</xmpG:type>
										<xmpG:cyan>0.000000</xmpG:cyan>
										<xmpG:magenta>0.000000</xmpG:magenta>
										<xmpG:yellow>0.000000</xmpG:yellow>
										<xmpG:black>89.999400</xmpG:black>
									</rdf:li>
									<rdf:li  rdf:parseType="Resource">
										<xmpG:swatchName>C=0 M=0 Y=0 K=80</xmpG:swatchName>
										<xmpG:mode>CMYK</xmpG:mode>
										<xmpG:type>PROCESS</xmpG:type>
										<xmpG:cyan>0.000000</xmpG:cyan>
										<xmpG:magenta>0.000000</xmpG:magenta>
										<xmpG:yellow>0.000000</xmpG:yellow>
										<xmpG:black>79.998800</xmpG:black>
									</rdf:li>
									<rdf:li  rdf:parseType="Resource">
										<xmpG:swatchName>C=0 M=0 Y=0 K=70</xmpG:swatchName>
										<xmpG:mode>CMYK</xmpG:mode>
										<xmpG:type>PROCESS</xmpG:type>
										<xmpG:cyan>0.000000</xmpG:cyan>
										<xmpG:magenta>0.000000</xmpG:magenta>
										<xmpG:yellow>0.000000</xmpG:yellow>
										<xmpG:black>69.999700</xmpG:black>
									</rdf:li>
									<rdf:li  rdf:parseType="Resource">
										<xmpG:swatchName>C=0 M=0 Y=0 K=60</xmpG:swatchName>
										<xmpG:mode>CMYK</xmpG:mode>
										<xmpG:type>PROCESS</xmpG:type>
										<xmpG:cyan>0.000000</xmpG:cyan>
										<xmpG:magenta>0.000000</xmpG:magenta>
										<xmpG:yellow>0.000000</xmpG:yellow>
										<xmpG:black>59.999100</xmpG:black>
									</rdf:li>
									<rdf:li  rdf:parseType="Resource">
										<xmpG:swatchName>C=0 M=0 Y=0 K=50</xmpG:swatchName>
										<xmpG:mode>CMYK</xmpG:mode>
										<xmpG:type>PROCESS</xmpG:type>
										<xmpG:cyan>0.000000</xmpG:cyan>
										<xmpG:magenta>0.000000</xmpG:magenta>
										<xmpG:yellow>0.000000</xmpG:yellow>
										<xmpG:black>50.000000</xmpG:black>
									</rdf:li>
									<rdf:li  rdf:parseType="Resource">
										<xmpG:swatchName>C=0 M=0 Y=0 K=40</xmpG:swatchName>
										<xmpG:mode>CMYK</xmpG:mode>
										<xmpG:type>PROCESS</xmpG:type>
										<xmpG:cyan>0.000000</xmpG:cyan>
										<xmpG:magenta>0.000000</xmpG:magenta>
										<xmpG:yellow>0.000000</xmpG:yellow>
										<xmpG:black>39.999400</xmpG:black>
									</rdf:li>
									<rdf:li  rdf:parseType="Resource">
										<xmpG:swatchName>C=0 M=0 Y=0 K=30</xmpG:swatchName>
										<xmpG:mode>CMYK</xmpG:mode>
										<xmpG:type>PROCESS</xmpG:type>
										<xmpG:cyan>0.000000</xmpG:cyan>
										<xmpG:magenta>0.000000</xmpG:magenta>
										<xmpG:yellow>0.000000</xmpG:yellow>
										<xmpG:black>29.998800</xmpG:black>
									</rdf:li>
									<rdf:li  rdf:parseType="Resource">
										<xmpG:swatchName>C=0 M=0 Y=0 K=20</xmpG:swatchName>
										<xmpG:mode>CMYK</xmpG:mode>
										<xmpG:type>PROCESS</xmpG:type>
										<xmpG:cyan>0.000000</xmpG:cyan>
										<xmpG:magenta>0.000000</xmpG:magenta>
										<xmpG:yellow>0.000000</xmpG:yellow>
										<xmpG:black>19.999700</xmpG:black>
									</rdf:li>
									<rdf:li  rdf:parseType="Resource">
										<xmpG:swatchName>C=0 M=0 Y=0 K=10</xmpG:swatchName>
										<xmpG:mode>CMYK</xmpG:mode>
										<xmpG:type>PROCESS</xmpG:type>
										<xmpG:cyan>0.000000</xmpG:cyan>
										<xmpG:magenta>0.000000</xmpG:magenta>
										<xmpG:yellow>0.000000</xmpG:yellow>
										<xmpG:black>9.999100</xmpG:black>
									</rdf:li>
									<rdf:li  rdf:parseType="Resource">
										<xmpG:swatchName>C=0 M=0 Y=0 K=5</xmpG:swatchName>
										<xmpG:mode>CMYK</xmpG:mode>
										<xmpG:type>PROCESS</xmpG:type>
										<xmpG:cyan>0.000000</xmpG:cyan>
										<xmpG:magenta>0.000000</xmpG:magenta>
										<xmpG:yellow>0.000000</xmpG:yellow>
										<xmpG:black>4.998800</xmpG:black>
									</rdf:li>
								</rdf:Seq>
							</xmpG:Colorants>
						</rdf:li>
						<rdf:li  rdf:parseType="Resource">
							<xmpG:groupName>Vivaci</xmpG:groupName>
							<xmpG:groupType>1</xmpG:groupType>
							<xmpG:Colorants>
								<rdf:Seq>
									<rdf:li  rdf:parseType="Resource">
										<xmpG:swatchName>C=0 M=100 Y=100 K=0</xmpG:swatchName>
										<xmpG:mode>CMYK</xmpG:mode>
										<xmpG:type>PROCESS</xmpG:type>
										<xmpG:cyan>0.000000</xmpG:cyan>
										<xmpG:magenta>100.000000</xmpG:magenta>
										<xmpG:yellow>100.000000</xmpG:yellow>
										<xmpG:black>0.000000</xmpG:black>
									</rdf:li>
									<rdf:li  rdf:parseType="Resource">
										<xmpG:swatchName>C=0 M=75 Y=100 K=0</xmpG:swatchName>
										<xmpG:mode>CMYK</xmpG:mode>
										<xmpG:type>PROCESS</xmpG:type>
										<xmpG:cyan>0.000000</xmpG:cyan>
										<xmpG:magenta>75.000000</xmpG:magenta>
										<xmpG:yellow>100.000000</xmpG:yellow>
										<xmpG:black>0.000000</xmpG:black>
									</rdf:li>
									<rdf:li  rdf:parseType="Resource">
										<xmpG:swatchName>C=0 M=10 Y=95 K=0</xmpG:swatchName>
										<xmpG:mode>CMYK</xmpG:mode>
										<xmpG:type>PROCESS</xmpG:type>
										<xmpG:cyan>0.000000</xmpG:cyan>
										<xmpG:magenta>10.000000</xmpG:magenta>
										<xmpG:yellow>95.000000</xmpG:yellow>
										<xmpG:black>0.000000</xmpG:black>
									</rdf:li>
									<rdf:li  rdf:parseType="Resource">
										<xmpG:swatchName>C=85 M=10 Y=100 K=0</xmpG:swatchName>
										<xmpG:mode>CMYK</xmpG:mode>
										<xmpG:type>PROCESS</xmpG:type>
										<xmpG:cyan>85.000000</xmpG:cyan>
										<xmpG:magenta>10.000000</xmpG:magenta>
										<xmpG:yellow>100.000000</xmpG:yellow>
										<xmpG:black>0.000000</xmpG:black>
									</rdf:li>
									<rdf:li  rdf:parseType="Resource">
										<xmpG:swatchName>C=100 M=90 Y=0 K=0</xmpG:swatchName>
										<xmpG:mode>CMYK</xmpG:mode>
										<xmpG:type>PROCESS</xmpG:type>
										<xmpG:cyan>100.000000</xmpG:cyan>
										<xmpG:magenta>90.000000</xmpG:magenta>
										<xmpG:yellow>0.000000</xmpG:yellow>
										<xmpG:black>0.000000</xmpG:black>
									</rdf:li>
									<rdf:li  rdf:parseType="Resource">
										<xmpG:swatchName>C=60 M=90 Y=0 K=0</xmpG:swatchName>
										<xmpG:mode>CMYK</xmpG:mode>
										<xmpG:type>PROCESS</xmpG:type>
										<xmpG:cyan>60.000000</xmpG:cyan>
										<xmpG:magenta>90.000000</xmpG:magenta>
										<xmpG:yellow>0.003100</xmpG:yellow>
										<xmpG:black>0.003100</xmpG:black>
									</rdf:li>
								</rdf:Seq>
							</xmpG:Colorants>
						</rdf:li>
					</rdf:Seq>
				</xmpTPg:SwatchGroups>
				<dc:format>image/svg+xml</dc:format>
			</rdf:Description>
		</rdf:RDF>
	</x:xmpmeta>
	<sfw  xmlns="&ns_sfw;">
		<slices></slices>
		<sliceSourceBounds  bottomLeftOrigin="true" height="320.3" width="298.9" x="107.9" y="78.8"></sliceSourceBounds>
	</sfw>
</metadata>
<g id="lines">
	<g>
		<path class="st0" d="M157,182.8c21.7,15.7,47.3,26.4,75.2,30.2c7.5,1,15.1,1.6,22.9,1.6c7.8,0,15.5-0.5,23-1.6
			c28-3.9,53.8-14.6,75.6-30.6"/>
		<path class="st1" d="M201.2,373.2c8.2-19.7,12.7-41.3,12.7-64c0-4.9-0.2-9.7-0.6-14.5c-1.3-15.6-4.8-30.7-10.2-44.8
			c-9.8-25.9-25.9-48.8-46.5-66.7"/>
		<path class="st2" d="M156.8,183.7c41.1,3,82.2,13.5,121.6,32.3c39.2,18.7,73.2,43.9,101.4,73.7"/>
	</g>
</g>
<g id="circles">
	
		<image style="overflow:visible;opacity:0.5;enable-background:new    ;" width="192" height="192" xlink:href="A47D2E454AF79F9C.png"  transform="matrix(0.2344 0 0 0.2344 232.6765 111.0857)">
	</image>
	
		<image style="overflow:visible;opacity:0.5;enable-background:new    ;" width="192" height="192" xlink:href="A47D2E454AF79F9D.png"  transform="matrix(0.235 0 0 0.235 287.9366 354.1458)">
	</image>
	
		<image style="overflow:visible;enable-background:new    ;" width="192" height="192" xlink:href="A47D2E454AF79F9B.png"  transform="matrix(0.235 0 0 0.235 176.8166 354.1458)">
	</image>
	
		<image style="overflow:visible;opacity:0.5;enable-background:new    ;" width="192" height="196" xlink:href="A47D2E454AF79FA4.png"  transform="matrix(0.2332 0 0 0.2332 107.8709 267.0938)">
	</image>
	
		<image style="overflow:visible;enable-background:new    ;" width="196" height="192" xlink:href="A47D2E454AF79FA7.png"  transform="matrix(0.2319 0 0 0.2319 132.2458 159.4389)">
	</image>
	
		<image style="overflow:visible;enable-background:new    ;" width="192" height="192" xlink:href="A47D2E454AF79FA5.png"  transform="matrix(0.2344 0 0 0.2344 332.6365 159.2057)">
	</image>
	
		<image style="overflow:visible;enable-background:new    ;" width="192" height="188" xlink:href="A47D2E454AF79FAB.png"  transform="matrix(0.2362 0 0 0.2362 357.0616 267.7433)">
	</image>
	<g>
		<circle class="st3" cx="155.2" cy="182.1" r="22"/>
		<circle class="st3" cx="355" cy="182.1" r="22"/>
		<circle class="st3" cx="380.2" cy="290" r="22"/>
		<circle class="st3" cx="199.6" cy="376.8" r="22"/>
	</g>
</g>
<g id="languages">
	<g class="st4">
		<path class="st5" d="M249,128.1h1.7l3.7,9.7h-1.9l-0.9-2.4h-3.4l-0.9,2.4h-1.9L249,128.1z M251.2,134l-1.3-3.8l-1.4,3.8H251.2z"/>
		<path class="st5" d="M256.1,137.8v-9.7h4.3c0.4,0,0.9,0.1,1.2,0.3c0.4,0.2,0.7,0.4,1,0.7s0.5,0.6,0.6,1c0.2,0.4,0.2,0.8,0.2,1.2
			c0,0.6-0.2,1.2-0.5,1.7s-0.7,0.9-1.3,1.1l2.2,3.6h-2.1l-2-3.2H258v3.2L256.1,137.8L256.1,137.8z M258,132.9h2.4
			c0.2,0,0.3,0,0.5-0.1s0.3-0.2,0.4-0.3s0.2-0.3,0.3-0.5s0.1-0.4,0.1-0.6c0-0.2,0-0.4-0.1-0.6c-0.1-0.2-0.2-0.4-0.3-0.5
			c-0.1-0.1-0.3-0.2-0.4-0.3c-0.2-0.1-0.3-0.1-0.5-0.1H258V132.9z"/>
	</g>
	<g>
		<path class="st5" d="M352.9,184.3v1.6h-6.7v-9.7h6.6v1.6h-4.7v2.3h4.1v1.5h-4.1v2.5h4.8V184.3z"/>
		<path class="st5" d="M356.9,179.8v6.2H355v-9.7h1.5l5,6.3v-6.3h1.9v9.6h-1.5L356.9,179.8z"/>
	</g>
	<g>
		<path class="st5" d="M371.6,294.2v-9.7h6.5v1.6h-4.6v2.5h3.8v1.5h-3.8v4h-1.9V294.2z"/>
		<path class="st5" d="M380.1,294.2v-9.7h4.3c0.4,0,0.9,0.1,1.2,0.3c0.4,0.2,0.7,0.4,1,0.7c0.3,0.3,0.5,0.6,0.6,1s0.2,0.8,0.2,1.2
			c0,0.6-0.2,1.2-0.5,1.7s-0.7,0.9-1.3,1.1l2.2,3.6h-2.1l-2-3.2H382v3.2L380.1,294.2L380.1,294.2z M382,289.3h2.4
			c0.2,0,0.3,0,0.5-0.1s0.3-0.2,0.4-0.3c0.1-0.1,0.2-0.3,0.3-0.5s0.1-0.4,0.1-0.6s0-0.4-0.1-0.6s-0.2-0.4-0.3-0.5
			c-0.1-0.1-0.3-0.2-0.4-0.3c-0.2-0.1-0.3-0.1-0.5-0.1H382V289.3z"/>
	</g>
	<g class="st4">
		<path class="st5" d="M302.8,379c0.1,0.1,0.3,0.2,0.6,0.3c0.3,0.1,0.6,0.2,1,0.2s0.7-0.1,0.9-0.2c0.2-0.1,0.4-0.3,0.5-0.6
			c0.1-0.3,0.2-0.6,0.2-1s0.1-0.9,0.1-1.4v-4.9h1.9v4.9c0,0.7,0,1.4-0.1,2s-0.2,1.1-0.5,1.5s-0.6,0.8-1.1,1s-1.1,0.4-1.9,0.4
			s-1.5-0.2-2.1-0.6L302.8,379z"/>
		<path class="st5" d="M313.2,371.3h1.7l3.7,9.7h-1.9l-0.9-2.4h-3.4l-0.9,2.4h-1.9L313.2,371.3z M315.4,377.3l-1.3-3.8l-1.4,3.8
			H315.4z"/>
	</g>
	<g>
		<path class="st5" d="M190.4,381v-9.7h4.1c0.4,0,0.9,0.1,1.2,0.3c0.4,0.2,0.7,0.4,1,0.7c0.3,0.3,0.5,0.6,0.6,1s0.2,0.8,0.2,1.2
			c0,0.4-0.1,0.8-0.2,1.2c-0.1,0.4-0.3,0.7-0.6,1s-0.6,0.5-1,0.7s-0.8,0.3-1.2,0.3h-2.3v3.2L190.4,381L190.4,381z M192.3,376.1h2.2
			c0.3,0,0.6-0.1,0.9-0.4c0.2-0.3,0.3-0.7,0.3-1.1c0-0.2,0-0.5-0.1-0.7s-0.2-0.4-0.3-0.5s-0.3-0.2-0.4-0.3c-0.2-0.1-0.3-0.1-0.5-0.1
			h-2.1L192.3,376.1L192.3,376.1z"/>
		<path class="st5" d="M203.7,381.1c-0.7,0-1.3-0.1-1.9-0.4c-0.6-0.3-1.1-0.6-1.5-1.1s-0.7-1-1-1.6c-0.2-0.6-0.3-1.2-0.3-1.8
			c0-0.6,0.1-1.3,0.4-1.9s0.6-1.1,1-1.6s0.9-0.8,1.5-1.1c0.6-0.3,1.2-0.4,1.9-0.4s1.3,0.1,1.9,0.4c0.6,0.3,1.1,0.7,1.5,1.1
			c0.4,0.5,0.7,1,1,1.6s0.3,1.2,0.3,1.8c0,0.6-0.1,1.3-0.4,1.8c-0.2,0.6-0.6,1.1-1,1.6s-0.9,0.8-1.5,1.1
			C205,380.9,204.4,381.1,203.7,381.1z M200.9,376.2c0,0.4,0.1,0.8,0.2,1.2c0.1,0.4,0.3,0.7,0.6,1c0.2,0.3,0.5,0.5,0.9,0.7
			s0.7,0.3,1.2,0.3s0.9-0.1,1.2-0.3c0.3-0.2,0.6-0.4,0.9-0.7c0.2-0.3,0.4-0.7,0.5-1c0.1-0.4,0.2-0.8,0.2-1.2c0-0.4-0.1-0.8-0.2-1.2
			c-0.1-0.4-0.3-0.7-0.6-1s-0.5-0.5-0.9-0.7c-0.3-0.2-0.7-0.3-1.2-0.3s-0.9,0.1-1.2,0.3c-0.4,0.2-0.6,0.4-0.9,0.7
			c-0.2,0.3-0.4,0.6-0.5,1S200.9,375.8,200.9,376.2z"/>
	</g>
	<g class="st4">
		<path class="st5" d="M120.9,294.2v-9.7h4.3c0.4,0,0.9,0.1,1.2,0.3c0.4,0.2,0.7,0.4,1,0.7c0.3,0.3,0.5,0.6,0.6,1
			c0.2,0.4,0.2,0.8,0.2,1.2c0,0.6-0.2,1.2-0.5,1.7s-0.7,0.9-1.3,1.1l2.2,3.6h-2.1l-2-3.2h-1.9v3.2L120.9,294.2L120.9,294.2z
			 M122.8,289.3h2.4c0.2,0,0.3,0,0.5-0.1s0.3-0.2,0.4-0.3c0.1-0.1,0.2-0.3,0.3-0.5s0.1-0.4,0.1-0.6s0-0.4-0.1-0.6s-0.2-0.4-0.3-0.5
			c-0.1-0.1-0.3-0.2-0.4-0.3c-0.2-0.1-0.3-0.1-0.5-0.1h-2.3L122.8,289.3L122.8,289.3z"/>
		<path class="st5" d="M134.7,292.6c0.4,0,0.8-0.1,1.1-0.3s0.5-0.4,0.7-0.7c0.2-0.3,0.3-0.6,0.4-1c0.1-0.4,0.1-0.8,0.1-1.2v-4.9h1.9
			v4.9c0,0.7-0.1,1.3-0.2,1.9c-0.2,0.6-0.4,1.1-0.7,1.5s-0.8,0.8-1.3,1s-1.2,0.4-1.9,0.4c-0.8,0-1.4-0.1-2-0.4s-1-0.6-1.3-1.1
			c-0.3-0.4-0.6-1-0.7-1.5c-0.2-0.6-0.2-1.2-0.2-1.8v-4.9h1.9v4.9c0,0.4,0,0.8,0.1,1.2c0.1,0.4,0.2,0.7,0.4,1s0.4,0.5,0.7,0.7
			C133.9,292.5,134.3,292.6,134.7,292.6z"/>
	</g>
	<g>
		<path class="st5" d="M152.8,178.8c-0.1-0.1-0.2-0.1-0.3-0.3c-0.2-0.1-0.4-0.2-0.6-0.3c-0.2-0.1-0.5-0.2-0.8-0.3s-0.6-0.1-0.9-0.1
			c-0.5,0-0.9,0.1-1.2,0.3s-0.4,0.5-0.4,0.8c0,0.2,0,0.4,0.1,0.5s0.2,0.2,0.4,0.3s0.4,0.2,0.7,0.3s0.6,0.2,1,0.3
			c0.5,0.1,0.9,0.3,1.3,0.4c0.4,0.1,0.7,0.3,1,0.5s0.5,0.5,0.6,0.8s0.2,0.7,0.2,1.1c0,0.5-0.1,1-0.3,1.3s-0.5,0.7-0.8,0.9
			s-0.7,0.4-1.1,0.5c-0.4,0.1-0.9,0.2-1.4,0.2c-0.7,0-1.4-0.1-2.2-0.3c-0.7-0.2-1.3-0.5-1.9-0.9l0.8-1.6c0.1,0.1,0.2,0.2,0.4,0.3
			s0.5,0.3,0.8,0.4c0.3,0.1,0.6,0.2,1,0.3s0.7,0.1,1.1,0.1c1,0,1.6-0.3,1.6-1c0-0.2-0.1-0.4-0.2-0.5s-0.3-0.3-0.5-0.4
			c-0.2-0.1-0.5-0.2-0.8-0.3s-0.7-0.2-1-0.3c-0.5-0.1-0.9-0.3-1.2-0.4c-0.3-0.1-0.6-0.3-0.9-0.5s-0.4-0.4-0.5-0.7s-0.2-0.6-0.2-1
			c0-0.5,0.1-0.9,0.3-1.3s0.4-0.7,0.8-1c0.3-0.3,0.7-0.4,1.1-0.6c0.4-0.1,0.9-0.2,1.4-0.2c0.7,0,1.3,0.1,1.9,0.3
			c0.6,0.2,1.1,0.5,1.5,0.8L152.8,178.8z"/>
		<path class="st5" d="M156.1,185.9v-9.7h4.1c0.4,0,0.9,0.1,1.2,0.3c0.4,0.2,0.7,0.4,1,0.7s0.5,0.6,0.6,1c0.2,0.4,0.2,0.8,0.2,1.2
			s-0.1,0.8-0.2,1.2c-0.1,0.4-0.3,0.7-0.6,1s-0.6,0.5-1,0.7s-0.8,0.3-1.2,0.3h-2.3v3.2h-1.8V185.9z M157.9,181.1h2.2
			c0.3,0,0.6-0.1,0.9-0.4c0.2-0.3,0.3-0.7,0.3-1.1c0-0.2,0-0.5-0.1-0.7s-0.2-0.4-0.3-0.5s-0.3-0.2-0.4-0.3c-0.2-0.1-0.3-0.1-0.5-0.1
			h-2.1L157.9,181.1L157.9,181.1z"/>
	</g>
</g>
<g id="subjects">
	<g>
		<g>
			<path d="M354.6,319.2c0.2,0,0.3,0,0.5,0s0.3,0,0.5,0s0.4,0,0.5,0c0,0,0,0.1,0,0.2s0,0.2-0.1,0.2s-0.2,0-0.3,0s-0.2,0-0.3,0.1
				s-0.2,0.1-0.2,0.2c0,0,0,0.1,0.1,0.2c0.1,0.3,0.6,1.6,1.6,3.8c0.1-0.3,0.3-0.7,0.4-1.1s0.3-0.7,0.4-0.9s0.2-0.4,0.2-0.6
				s0.1-0.4,0.2-0.5s0.1-0.2,0.1-0.2c0-0.1,0-0.2-0.1-0.4s-0.2-0.3-0.3-0.5c-0.1-0.2-0.4-0.3-0.7-0.3c0,0-0.1-0.1-0.1-0.2
				s0-0.2,0.1-0.2s0.3,0,0.6,0s0.6,0,0.8,0c0,0,0.6,0,1.6-0.1c0,0.1,0,0.1,0,0.2s0,0.2,0,0.2c-0.5,0-0.8,0.2-0.8,0.5
				c0,0,0,0.1,0,0.2s0.1,0.2,0.1,0.3s0.1,0.3,0.2,0.5s0.2,0.5,0.3,0.7s0.2,0.6,0.4,1s0.3,0.8,0.5,1.2c0.8-1.9,1.2-3.1,1.4-3.5
				c0.1-0.2,0.1-0.3,0.1-0.4s0-0.2-0.1-0.3s-0.1-0.1-0.3-0.2s-0.2-0.1-0.3-0.1s-0.2,0-0.3,0c0,0,0-0.1-0.1-0.2s0-0.2,0.1-0.2
				s0.3,0,0.6,0s0.5,0,0.8,0c0.2,0,0.3,0,0.5,0s0.3,0,0.5,0s0.3,0,0.5,0c0,0,0,0.1,0,0.2s0,0.2-0.1,0.2s-0.3,0-0.6,0.1
				s-0.4,0.2-0.5,0.4c-0.9,2.3-1.7,4.2-2.3,5.6c0,0.1-0.1,0.1-0.1,0.2s-0.1,0.1-0.2,0.1s-0.2,0-0.2-0.1l-1.7-4.5l-1.7,4.3
				c0,0-0.1,0.1-0.1,0.2s-0.2,0.1-0.2,0.1s-0.1,0-0.1-0.1c-0.9-2.2-1.7-4.2-2.5-6c-0.1-0.2-0.4-0.3-0.8-0.3c0,0,0-0.1,0-0.2
				s0-0.2,0-0.2c0.2,0,0.3,0,0.5,0s0.4,0,0.5,0S354.4,319.2,354.6,319.2z"/>
			<path d="M365.8,322c0,1,0.2,1.7,0.7,2.2s1.1,0.8,1.8,0.8c0.4,0,0.7-0.1,1-0.3s0.5-0.4,0.7-0.6l0,0c0,0,0,0,0.1,0.1s0,0.1,0,0.1
				c0,0.1,0,0.2-0.1,0.3c-0.1,0.1-0.2,0.3-0.3,0.4s-0.3,0.3-0.5,0.4s-0.4,0.3-0.7,0.4s-0.5,0.1-0.8,0.1c-0.9,0-1.7-0.3-2.2-0.9
				s-0.9-1.4-0.9-2.3c0-0.5,0.1-1,0.3-1.5s0.4-0.9,0.7-1.2s0.6-0.6,1-0.8s0.7-0.3,1.1-0.3s0.7,0.1,1,0.2s0.5,0.2,0.7,0.4
				s0.3,0.3,0.4,0.5s0.2,0.4,0.2,0.6s0.1,0.3,0.1,0.5s0,0.4-0.1,0.5s-0.2,0.2-0.3,0.2c-0.2,0-0.9,0-2,0.1S365.9,322,365.8,322z
				 M365.9,321.4h2.5c0.2,0,0.3-0.1,0.4-0.4c0-0.1,0-0.2-0.1-0.4s-0.1-0.3-0.2-0.5s-0.2-0.3-0.4-0.4s-0.4-0.2-0.6-0.2
				s-0.5,0.1-0.7,0.2s-0.4,0.3-0.5,0.5s-0.2,0.4-0.3,0.5s-0.1,0.3-0.2,0.5S365.9,321.4,365.9,321.4z"/>
			<path d="M375.1,319c0.2,0,0.4,0,0.6,0.1s0.4,0.1,0.5,0.1s0.1-0.1,0.1-0.3v-1.7c0-0.4,0-0.7-0.1-0.8c-0.1-0.2-0.4-0.3-1-0.3
				c0,0,0,0,0-0.1s0-0.1,0-0.2s0-0.1,0-0.1c0.7-0.1,1.5-0.3,2.2-0.6c0,0,0.1,0,0.1,0.1s0.1,0.1,0.1,0.2c-0.1,0.3-0.2,0.8-0.2,1.4
				v6.7c0,0.8,0,1.4,0.1,1.5c0,0.1,0.1,0.1,0.2,0.2s0.2,0.1,0.3,0.1s0.2,0,0.3,0s0.1,0,0.1,0s0,0.1,0,0.2v0.1l-0.1,0.1
				c-0.2,0-0.3,0-0.5,0.1s-0.4,0.1-0.5,0.1s-0.3,0.1-0.5,0.1c-0.1,0-0.3,0.1-0.4,0.1h-0.1c-0.1,0-0.1-0.1-0.1-0.3v-0.5
				c0-0.1,0-0.1,0-0.1c-0.2,0.2-0.5,0.4-0.9,0.6s-0.8,0.3-1.2,0.3c-0.7,0-1.4-0.3-1.9-1s-0.8-1.4-0.8-2.4c0-0.5,0.1-1,0.4-1.4
				s0.6-0.9,0.9-1.2s0.8-0.6,1.2-0.8S374.8,319,375.1,319z M374.6,319.7c-0.6,0-1,0.3-1.4,0.8s-0.5,1.1-0.5,1.8c0,0.8,0.2,1.4,0.6,2
				s0.9,0.8,1.6,0.8c0.3,0,0.6-0.1,0.9-0.2s0.4-0.3,0.4-0.4v-4c0-0.2-0.2-0.4-0.5-0.5S375,319.7,374.6,319.7z"/>
			<path d="M383.2,319c0.2,0,0.4,0,0.6,0.1s0.4,0.1,0.5,0.1s0.1-0.1,0.1-0.3v-1.7c0-0.4,0-0.7-0.1-0.8c-0.1-0.2-0.4-0.3-1-0.3
				c0,0,0,0,0-0.1s0-0.1,0-0.2s0-0.1,0-0.1c0.7-0.1,1.5-0.3,2.2-0.6c0,0,0.1,0,0.1,0.1s0.1,0.1,0.1,0.2c-0.1,0.3-0.2,0.8-0.2,1.4
				v6.7c0,0.8,0,1.4,0.1,1.5c0,0.1,0.1,0.1,0.2,0.2s0.2,0.1,0.3,0.1s0.2,0,0.3,0s0.1,0,0.1,0s0,0.1,0,0.2v0.1l-0.1,0.1
				c-0.2,0-0.3,0-0.5,0.1s-0.4,0.1-0.5,0.1s-0.3,0.1-0.5,0.1c-0.1,0-0.3,0.1-0.4,0.1h-0.1c-0.1,0-0.1-0.1-0.1-0.3v-0.5
				c0-0.1,0-0.1,0-0.1c-0.2,0.2-0.5,0.4-0.9,0.6s-0.8,0.3-1.2,0.3c-0.7,0-1.4-0.3-1.9-1s-0.8-1.4-0.8-2.4c0-0.5,0.1-1,0.4-1.4
				s0.6-0.9,0.9-1.2s0.8-0.6,1.2-0.8S382.8,319,383.2,319z M382.7,319.7c-0.6,0-1,0.3-1.4,0.8s-0.5,1.1-0.5,1.8c0,0.8,0.2,1.4,0.6,2
				s0.9,0.8,1.6,0.8c0.3,0,0.6-0.1,0.9-0.2s0.4-0.3,0.4-0.4v-4c0-0.2-0.2-0.4-0.5-0.5S383.1,319.7,382.7,319.7z"/>
			<path d="M389.7,320.8v3.3c0,0.6,0,1,0.1,1.2c0,0.1,0.2,0.1,0.4,0.2s0.4,0.1,0.6,0.1c0,0,0,0.1,0.1,0.2s0,0.2-0.1,0.2
				c-1.1-0.1-1.6-0.1-1.7-0.1c-0.2,0-0.4,0-0.5,0s-0.4,0-0.6,0s-0.4,0-0.5,0c0,0-0.1-0.1-0.1-0.2s0-0.2,0.1-0.2c0.2,0,0.3,0,0.6-0.1
				s0.4-0.1,0.4-0.2s0.1-0.5,0.1-1.2v-2.9c0-0.4,0-0.7-0.1-0.8c0-0.1-0.1-0.1-0.3-0.2s-0.3-0.1-0.4-0.1s-0.2,0-0.3,0
				c0,0,0-0.1,0-0.2s0-0.2,0-0.2c0.9-0.1,1.6-0.3,2.2-0.7c0,0,0.1,0,0.1,0.1s0.1,0.1,0.1,0.2c-0.1,0.5-0.1,0.9-0.1,1v0.6H389.7z
				 M388.4,317.2c-0.2-0.2-0.2-0.3-0.2-0.6s0.1-0.4,0.2-0.6s0.3-0.2,0.6-0.2s0.4,0.1,0.6,0.2s0.2,0.3,0.2,0.6s-0.1,0.4-0.2,0.6
				s-0.3,0.2-0.6,0.2S388.6,317.3,388.4,317.2z"/>
			<path d="M396.1,319c0.3,0,0.6,0,0.9,0.1s0.4,0.2,0.6,0.4s0.3,0.4,0.4,0.7s0.1,0.6,0.2,0.9s0,0.7,0,1.2v1.7c0,0.6,0,1,0.1,1.2
				c0,0.1,0.2,0.1,0.4,0.2s0.4,0.1,0.6,0.1c0,0,0,0.1,0.1,0.2s0,0.2-0.1,0.2c-1.1-0.1-1.6-0.1-1.7-0.1c-0.2,0-0.4,0-0.5,0
				s-0.4,0-0.6,0s-0.4,0-0.5,0c0,0-0.1-0.1-0.1-0.2s0-0.2,0.1-0.2c0.2,0,0.3,0,0.6-0.1s0.4-0.1,0.4-0.2c0.1-0.2,0.1-0.6,0.1-1.2
				v-1.6c0-1-0.1-1.7-0.3-2s-0.6-0.5-1.2-0.5c-0.2,0-0.4,0.1-0.6,0.2s-0.4,0.3-0.6,0.4s-0.2,0.2-0.2,0.3v3.3c0,0.6,0,1,0.1,1.2
				c0,0.1,0.2,0.1,0.4,0.2s0.4,0.1,0.6,0.1c0,0,0,0.1,0.1,0.2s0,0.2-0.1,0.2c-1.1-0.1-1.6-0.1-1.7-0.1c-0.2,0-0.4,0-0.5,0
				s-0.4,0-0.6,0s-0.4,0-0.5,0c0,0-0.1-0.1-0.1-0.2s0-0.2,0.1-0.2c0.2,0,0.3,0,0.6-0.1s0.4-0.1,0.4-0.2c0.1-0.2,0.1-0.6,0.1-1.2
				v-2.8c0-0.5,0-0.8-0.1-0.9c0-0.1-0.1-0.1-0.3-0.2s-0.3-0.1-0.4-0.1s-0.2,0-0.3,0c0,0,0-0.1,0-0.2s0-0.2,0-0.2
				c0.9-0.1,1.6-0.3,2.2-0.7c0,0,0.1,0,0.1,0.1s0.1,0.1,0.1,0.2c-0.1,0.4-0.1,0.7-0.1,0.9v0.1l0,0c0.2-0.2,0.5-0.5,1-0.7
				S395.8,319,396.1,319z"/>
			<path d="M404.1,324.8c0.6,0,1.2,0.2,1.7,0.5s0.7,0.7,0.7,1.1c0,0.3-0.1,0.7-0.3,1s-0.5,0.7-0.9,1s-0.8,0.5-1.3,0.7
				s-1,0.3-1.5,0.3c-0.4,0-0.9-0.1-1.3-0.2s-0.7-0.4-1-0.7s-0.4-0.7-0.4-1.1c0-0.2,0.1-0.3,0.2-0.5s0.3-0.3,0.5-0.5s0.4-0.3,0.5-0.4
				s0.3-0.2,0.5-0.3c-0.3-0.1-0.6-0.3-0.9-0.5s-0.4-0.6-0.4-0.9c0.1-0.1,0.3-0.3,0.6-0.6s0.5-0.4,0.7-0.5c-0.4-0.2-0.7-0.5-0.9-0.9
				s-0.4-0.7-0.4-1.1c0-0.6,0.3-1.2,0.8-1.7s1.1-0.7,1.9-0.7c0.1,0,0.2,0,0.4,0s0.2,0,0.4,0.1c0.1,0,0.2,0.1,0.3,0.1
				c0.1,0,0.1,0,0.3,0.1l0.2,0.1c0.1,0.1,0.3,0.1,0.4,0.1l1.7-0.2c0.1,0,0.2,0.1,0.2,0.2s0,0.2-0.1,0.3s-0.2,0.3-0.2,0.3l-1-0.1
				h-0.1c0.1,0.1,0.2,0.3,0.3,0.5s0.2,0.6,0.2,0.9c0,0.6-0.3,1.1-0.8,1.6s-1.1,0.7-1.9,0.7c-0.1,0-0.3,0-0.5,0s-0.3-0.1-0.4-0.1
				c-0.2,0.1-0.3,0.2-0.4,0.3s-0.2,0.2-0.2,0.4c0,0.1,0.1,0.2,0.3,0.4s0.4,0.2,0.7,0.2h1.4V324.8z M403.4,325.9
				c-0.9,0-1.4,0-1.5,0.1c-0.2,0.1-0.4,0.3-0.6,0.5s-0.3,0.4-0.3,0.6c0,0.5,0.2,0.9,0.6,1.3s0.9,0.5,1.5,0.5c0.4,0,0.7-0.1,1.1-0.2
				s0.7-0.4,0.9-0.6s0.4-0.5,0.4-0.8c0-0.1,0-0.2-0.1-0.4s-0.2-0.3-0.4-0.4s-0.4-0.2-0.7-0.3S403.7,325.9,403.4,325.9z M402.8,319.5
				c-0.4,0-0.8,0.2-1,0.6s-0.4,0.8-0.4,1.3s0.1,1,0.4,1.4s0.6,0.6,1.1,0.6c0.4,0,0.7-0.2,1-0.5s0.4-0.8,0.4-1.2c0-0.5-0.1-1-0.4-1.4
				S403.2,319.5,402.8,319.5z"/>
		</g>
		<g>
			<path d="M162.6,408.4c0.2,0,0.5,0,0.9,0.1c0.3,0.1,0.6,0.1,0.7,0.1c0.1,0.5,0.2,1,0.2,1.7c0,0.1-0.1,0.1-0.2,0.1
				c-0.1,0-0.2,0-0.3-0.1c-0.1-0.3-0.3-0.7-0.5-1s-0.5-0.5-0.8-0.5c-0.4,0-0.6,0.1-0.8,0.3c-0.2,0.2-0.3,0.4-0.3,0.7
				c0,0.1,0,0.3,0.1,0.4c0,0.1,0.1,0.2,0.1,0.3c0,0.1,0.1,0.2,0.2,0.2c0.1,0.1,0.2,0.2,0.3,0.2s0.2,0.1,0.3,0.2
				c0.2,0.1,0.3,0.2,0.3,0.2s0.2,0.1,0.3,0.2s0.3,0.2,0.4,0.2c0.1,0.1,0.2,0.1,0.3,0.2s0.3,0.2,0.3,0.3c0.1,0.1,0.2,0.2,0.2,0.3
				c0.1,0.1,0.1,0.2,0.2,0.4c0,0.1,0.1,0.3,0.1,0.4c0,0.6-0.2,1.1-0.7,1.5s-1,0.6-1.7,0.6c-0.2,0-0.4,0-0.6,0
				c-0.2,0-0.4-0.1-0.6-0.1c-0.2-0.1-0.4-0.1-0.6-0.1c-0.1-0.2-0.1-0.4-0.2-0.8c-0.1-0.4-0.1-0.6-0.1-0.8c0.1-0.1,0.2-0.1,0.3-0.1
				s0.1,0,0.1,0c0.1,0.4,0.3,0.7,0.6,1s0.7,0.5,1.1,0.5c0.3,0,0.6-0.1,0.8-0.3c0.2-0.2,0.3-0.5,0.3-0.8c0-0.2,0-0.3-0.1-0.5
				c-0.1-0.1-0.2-0.3-0.3-0.4s-0.3-0.2-0.4-0.3c-0.1-0.1-0.3-0.2-0.5-0.3c-0.2-0.1-0.4-0.2-0.5-0.3c-0.4-0.2-0.7-0.4-0.9-0.7
				c-0.2-0.3-0.3-0.6-0.3-1c0-0.6,0.2-1,0.7-1.4C161.5,408.5,162,408.4,162.6,408.4z"/>
			<path d="M170.4,408.4c0.3,0,0.6,0,0.9,0.1c0.2,0.1,0.4,0.2,0.6,0.4c0.2,0.2,0.3,0.4,0.4,0.7s0.1,0.6,0.2,0.9c0,0.3,0,0.7,0,1.2
				v1.7c0,0.6,0,1,0.1,1.2c0,0.1,0.2,0.1,0.4,0.2s0.4,0.1,0.6,0.1c0,0,0,0.1,0.1,0.2s0,0.2-0.1,0.2c-1.1-0.1-1.6-0.1-1.7-0.1
				c-0.2,0-0.4,0-0.5,0s-0.4,0-0.6,0s-0.4,0-0.5,0c0,0-0.1-0.1-0.1-0.2s0-0.2,0.1-0.2c0.2,0,0.3,0,0.6-0.1s0.4-0.1,0.4-0.2
				c0.1-0.2,0.1-0.6,0.1-1.2v-1.6c0-1-0.1-1.7-0.3-2c-0.2-0.4-0.6-0.5-1.2-0.5c-0.2,0-0.4,0.1-0.6,0.2s-0.4,0.3-0.6,0.4
				c-0.2,0.1-0.2,0.2-0.2,0.3v3.3c0,0.6,0,1,0.1,1.2c0,0.1,0.2,0.1,0.4,0.2s0.4,0.1,0.6,0.1c0,0,0,0.1,0.1,0.2s0,0.2-0.1,0.2
				c-1.1-0.1-1.6-0.1-1.7-0.1c-0.2,0-0.4,0-0.5,0s-0.4,0-0.6,0s-0.4,0-0.5,0c0,0-0.1-0.1-0.1-0.2s0-0.2,0.1-0.2c0.2,0,0.3,0,0.6-0.1
				s0.4-0.1,0.4-0.2c0.1-0.2,0.1-0.6,0.1-1.2v-2.8c0-0.5,0-0.8-0.1-0.9c0-0.1-0.1-0.1-0.3-0.2s-0.3-0.1-0.4-0.1s-0.2,0-0.3,0
				c0,0,0-0.1,0-0.2s0-0.2,0-0.2c0.9-0.1,1.6-0.3,2.2-0.7c0,0,0.1,0,0.1,0.1s0.1,0.1,0.1,0.2c-0.1,0.4-0.1,0.7-0.1,0.9v0.1l0,0
				c0.2-0.2,0.5-0.5,1-0.7S170.1,408.4,170.4,408.4z"/>
			<path d="M177.4,408.4c0.5,0,0.9,0.2,1.2,0.6s0.5,0.9,0.5,1.5v3.2c0,0.5,0.2,0.7,0.5,0.7h0.1h0.1h0.1h0.1c0,0,0,0,0.1,0s0,0,0,0
				s0.1,0,0.1,0.1s0,0.2-0.1,0.3c-0.1,0.1-0.3,0.2-0.6,0.4c-0.3,0.1-0.5,0.2-0.6,0.2c-0.2,0-0.4-0.1-0.6-0.3s-0.3-0.4-0.4-0.7
				c-0.2,0.2-0.4,0.4-0.9,0.6s-0.8,0.4-1,0.4c-0.5,0-0.9-0.2-1.3-0.5c-0.4-0.3-0.5-0.8-0.5-1.3c0-0.3,0.1-0.6,0.2-0.8
				c0.2-0.2,0.3-0.4,0.5-0.5s0.5-0.2,0.9-0.3s0.8-0.3,1.1-0.4s0.5-0.2,0.7-0.3c0.1,0,0.1-0.1,0.2-0.1s0-0.1,0-0.3v-0.4
				c0-0.4-0.1-0.7-0.4-1c-0.3-0.3-0.6-0.5-0.9-0.5c-0.3,0-0.5,0.1-0.6,0.2c-0.1,0.2-0.2,0.4-0.3,0.7c-0.1,0.5-0.3,0.8-0.7,0.8
				c-0.2,0-0.3-0.1-0.4-0.2c-0.1-0.1-0.1-0.3-0.1-0.5c0,0,0-0.1,0-0.2s0-0.1,0.1-0.2c0.3-0.3,0.8-0.6,1.3-0.9
				C176.4,408.5,176.9,408.4,177.4,408.4z M176.6,414.5c0.3,0,0.5-0.1,0.9-0.3c0.3-0.2,0.5-0.3,0.5-0.4v-2.1
				c-0.8,0.2-1.3,0.4-1.5,0.5c-0.3,0.1-0.5,0.3-0.7,0.5s-0.3,0.5-0.3,0.7c0,0.3,0.1,0.5,0.3,0.8S176.3,414.5,176.6,414.5z"/>
			<path d="M183,413.4c0,0.6,0,1,0.1,1.2c0,0.1,0.2,0.1,0.4,0.2s0.4,0.1,0.6,0.1c0,0,0,0.1,0.1,0.2s0,0.2-0.1,0.2
				c-1.1-0.1-1.6-0.1-1.7-0.1c-0.2,0-0.4,0-0.5,0s-0.4,0-0.6,0s-0.4,0-0.5,0c0,0-0.1-0.1-0.1-0.2s0-0.2,0.1-0.2c0.2,0,0.3,0,0.6-0.1
				s0.4-0.1,0.4-0.2c0.1-0.2,0.1-0.6,0.1-1.2v-6.9c0-0.4,0-0.7-0.1-0.8c-0.1-0.2-0.4-0.3-1-0.3c0,0,0,0,0-0.1s0-0.1,0-0.2
				s0-0.1,0-0.1c0.7-0.1,1.5-0.3,2.2-0.6c0,0,0.1,0,0.1,0.1s0.1,0.1,0.1,0.2c-0.1,0.3-0.2,0.8-0.2,1.4v5.6c0.2-0.1,0.6-0.4,1.3-1
				c0.1-0.1,0.3-0.2,0.5-0.4c0.2-0.1,0.3-0.3,0.4-0.3c0.1-0.1,0.2-0.2,0.3-0.2s0.2-0.2,0.2-0.2c0-0.1,0.1-0.1,0.1-0.1v-0.1
				c0,0-0.1,0-0.1-0.1h-0.1h-0.1h-0.1h-0.1h-0.1c0-0.1-0.1-0.1,0-0.3c0-0.1,0-0.2,0.1-0.2c0.5,0.1,1,0.1,1.5,0.1s1,0,1.4-0.1
				c0,0,0,0.1,0,0.2s0,0.2,0,0.2c-0.1,0-0.3,0-0.6,0.1s-0.5,0.2-0.6,0.3c-1.2,0.8-2,1.5-2.5,1.9c0.3,0.3,0.7,0.7,1.1,1.2
				s0.8,0.9,1.1,1.2c0.3,0.3,0.5,0.5,0.6,0.6c0.2,0.2,0.4,0.3,0.7,0.3s0.5,0.1,0.8,0.1c0,0,0,0.1,0,0.2s0,0.2,0,0.2
				c-0.1,0.1-0.5,0.1-1,0.1c-0.4,0-0.8-0.1-1.2-0.2c-0.4-0.2-0.6-0.3-0.8-0.5c-0.9-1-1.6-1.8-2.2-2.4c0,0,0,0-0.1-0.1l-0.1-0.1l0,0
				v1.4H183z"/>
			<path d="M189.5,411.3c0,1,0.2,1.7,0.7,2.2s1.1,0.8,1.8,0.8c0.4,0,0.7-0.1,1-0.3c0.3-0.2,0.5-0.4,0.7-0.6l0,0c0,0,0,0,0.1,0.1v0.1
				c0,0.1,0,0.2-0.1,0.3c-0.1,0.1-0.2,0.3-0.3,0.4s-0.3,0.3-0.5,0.4s-0.4,0.3-0.7,0.4s-0.5,0.1-0.8,0.1c-0.9,0-1.7-0.3-2.2-0.9
				s-0.9-1.4-0.9-2.3c0-0.5,0.1-1,0.3-1.5s0.4-0.9,0.7-1.2c0.3-0.3,0.6-0.6,1-0.8s0.7-0.3,1.1-0.3c0.4,0,0.7,0.1,1,0.2
				s0.5,0.2,0.7,0.4c0.2,0.2,0.3,0.3,0.4,0.5s0.2,0.4,0.2,0.6s0.1,0.3,0.1,0.5s0,0.4-0.1,0.5s-0.2,0.2-0.3,0.2c-0.2,0-0.9,0-2,0.1
				C190.3,411.3,189.7,411.3,189.5,411.3z M189.6,410.7h2.5c0.2,0,0.3-0.1,0.4-0.4c0-0.1,0-0.2-0.1-0.4s-0.1-0.3-0.2-0.5
				c-0.1-0.2-0.2-0.3-0.4-0.4s-0.4-0.2-0.6-0.2c-0.2,0-0.5,0.1-0.7,0.2s-0.4,0.3-0.5,0.5s-0.2,0.4-0.3,0.5s-0.1,0.3-0.2,0.5
				S189.6,410.7,189.6,410.7z"/>
			<path d="M197.6,408.4c0.2,0,0.5,0,0.9,0.1c0.3,0.1,0.6,0.1,0.7,0.1c0.1,0.5,0.2,1,0.2,1.7c0,0.1-0.1,0.1-0.2,0.1
				c-0.1,0-0.2,0-0.3-0.1c-0.1-0.3-0.3-0.7-0.5-1s-0.5-0.5-0.8-0.5c-0.4,0-0.6,0.1-0.8,0.3c-0.2,0.2-0.3,0.4-0.3,0.7
				c0,0.1,0,0.3,0.1,0.4c0,0.1,0.1,0.2,0.1,0.3c0,0.1,0.1,0.2,0.2,0.2c0.1,0.1,0.2,0.2,0.3,0.2s0.2,0.1,0.3,0.2
				c0.2,0.1,0.3,0.2,0.3,0.2s0.2,0.1,0.3,0.2s0.3,0.2,0.4,0.2c0.1,0.1,0.2,0.1,0.3,0.2s0.3,0.2,0.3,0.3c0.1,0.1,0.2,0.2,0.2,0.3
				c0.1,0.1,0.1,0.2,0.2,0.4c0,0.1,0.1,0.3,0.1,0.4c0,0.6-0.2,1.1-0.7,1.5s-1,0.6-1.7,0.6c-0.2,0-0.4,0-0.6,0
				c-0.2,0-0.4-0.1-0.6-0.1c-0.2-0.1-0.4-0.1-0.6-0.1c-0.1-0.2-0.1-0.4-0.2-0.8c-0.1-0.4-0.1-0.6-0.1-0.8c0.1-0.1,0.2-0.1,0.3-0.1
				s0.1,0,0.1,0c0.1,0.4,0.3,0.7,0.6,1s0.7,0.5,1.1,0.5c0.3,0,0.6-0.1,0.8-0.3c0.2-0.2,0.3-0.5,0.3-0.8c0-0.2,0-0.3-0.1-0.5
				c-0.1-0.1-0.2-0.3-0.3-0.4s-0.3-0.2-0.4-0.3c-0.1-0.1-0.3-0.2-0.5-0.3c-0.2-0.1-0.4-0.2-0.5-0.3c-0.4-0.2-0.7-0.4-0.9-0.7
				c-0.2-0.3-0.3-0.6-0.3-1c0-0.6,0.2-1,0.7-1.4C196.4,408.5,197,408.4,197.6,408.4z"/>
			<path d="M201.9,413.3c0.1,0,0.3,0,0.4,0.1c0.2,0.3,0.3,0.7,0.3,1.1s-0.2,1-0.6,1.6s-0.8,1.1-1.2,1.3c-0.1,0-0.1,0-0.2-0.1
				c-0.1-0.1-0.1-0.2-0.1-0.2c0.1-0.1,0.2-0.2,0.3-0.2s0.2-0.2,0.3-0.3s0.2-0.3,0.3-0.5s0.1-0.4,0.1-0.6s-0.1-0.4-0.3-0.6
				s-0.3-0.5-0.3-0.7s0.1-0.4,0.3-0.5S201.7,413.3,201.9,413.3z"/>
			<path d="M210.6,408.4h2c0.1,0,0.1,0.1,0.1,0.2c0,0.2-0.1,0.3-0.2,0.5h-1.9v4.1c0,0.9,0.3,1.3,1,1.3c0.3,0,0.7-0.1,1-0.4v0.1
				c0,0.1,0,0.2-0.1,0.2c-0.1,0.1-0.2,0.2-0.3,0.3c-0.1,0.1-0.3,0.2-0.6,0.3s-0.5,0.2-0.7,0.2s-0.4,0-0.6-0.1
				c-0.2-0.1-0.4-0.1-0.5-0.3c-0.2-0.1-0.3-0.3-0.4-0.5c-0.1-0.2-0.1-0.5-0.1-0.8V409h-0.9c-0.1,0-0.1,0-0.1-0.1
				c0,0,0.1-0.1,0.2-0.2s0.2-0.2,0.2-0.3h0.6v-1c0.1-0.1,0.2-0.2,0.4-0.4c0.2-0.2,0.3-0.3,0.4-0.4s0.2-0.2,0.2-0.2s0.1,0,0.1-0.1
				h0.1l0,0v2.1H210.6z"/>
			<path d="M214.7,411.3c0,1,0.2,1.7,0.7,2.2s1.1,0.8,1.8,0.8c0.4,0,0.7-0.1,1-0.3c0.3-0.2,0.5-0.4,0.7-0.6l0,0c0,0,0,0,0.1,0.1v0.1
				c0,0.1,0,0.2-0.1,0.3c-0.1,0.1-0.2,0.3-0.3,0.4s-0.3,0.3-0.5,0.4s-0.4,0.3-0.7,0.4s-0.5,0.1-0.8,0.1c-0.9,0-1.7-0.3-2.2-0.9
				s-0.9-1.4-0.9-2.3c0-0.5,0.1-1,0.3-1.5s0.4-0.9,0.7-1.2c0.3-0.3,0.6-0.6,1-0.8s0.7-0.3,1.1-0.3c0.4,0,0.7,0.1,1,0.2
				s0.5,0.2,0.7,0.4c0.2,0.2,0.3,0.3,0.4,0.5s0.2,0.4,0.2,0.6s0.1,0.3,0.1,0.5s0,0.4-0.1,0.5s-0.2,0.2-0.3,0.2c-0.2,0-0.9,0-2,0.1
				C215.5,411.3,214.9,411.3,214.7,411.3z M214.8,410.7h2.5c0.2,0,0.3-0.1,0.4-0.4c0-0.1,0-0.2-0.1-0.4s-0.1-0.3-0.2-0.5
				c-0.1-0.2-0.2-0.3-0.4-0.4s-0.4-0.2-0.6-0.2c-0.2,0-0.5,0.1-0.7,0.2s-0.4,0.3-0.5,0.5s-0.2,0.4-0.3,0.5s-0.1,0.3-0.2,0.5
				S214.8,410.7,214.8,410.7z"/>
			<path d="M221.4,411.3c0,1,0.2,1.7,0.7,2.2s1.1,0.8,1.8,0.8c0.4,0,0.7-0.1,1-0.3c0.3-0.2,0.5-0.4,0.7-0.6l0,0c0,0,0,0,0.1,0.1v0.1
				c0,0.1,0,0.2-0.1,0.3c-0.1,0.1-0.2,0.3-0.3,0.4s-0.3,0.3-0.5,0.4s-0.4,0.3-0.7,0.4s-0.5,0.1-0.8,0.1c-0.9,0-1.7-0.3-2.2-0.9
				s-0.9-1.4-0.9-2.3c0-0.5,0.1-1,0.3-1.5s0.4-0.9,0.7-1.2c0.3-0.3,0.6-0.6,1-0.8s0.7-0.3,1.1-0.3c0.4,0,0.7,0.1,1,0.2
				s0.5,0.2,0.7,0.4c0.2,0.2,0.3,0.3,0.4,0.5s0.2,0.4,0.2,0.6s0.1,0.3,0.1,0.5s0,0.4-0.1,0.5s-0.2,0.2-0.3,0.2c-0.2,0-0.9,0-2,0.1
				C222.2,411.3,221.6,411.3,221.4,411.3z M221.5,410.7h2.5c0.2,0,0.3-0.1,0.4-0.4c0-0.1,0-0.2-0.1-0.4s-0.1-0.3-0.2-0.5
				c-0.1-0.2-0.2-0.3-0.4-0.4s-0.4-0.2-0.6-0.2c-0.2,0-0.5,0.1-0.7,0.2s-0.4,0.3-0.5,0.5s-0.2,0.4-0.3,0.5s-0.1,0.3-0.2,0.5
				S221.5,410.7,221.5,410.7z"/>
			<path d="M228.9,408.4h2c0.1,0,0.1,0.1,0.1,0.2c0,0.2-0.1,0.3-0.2,0.5h-1.9v4.1c0,0.9,0.3,1.3,1,1.3c0.3,0,0.7-0.1,1-0.4v0.1
				c0,0.1,0,0.2-0.1,0.2c-0.1,0.1-0.2,0.2-0.3,0.3c-0.1,0.1-0.3,0.2-0.6,0.3s-0.5,0.2-0.7,0.2s-0.4,0-0.6-0.1
				c-0.2-0.1-0.4-0.1-0.5-0.3c-0.2-0.1-0.3-0.3-0.4-0.5c-0.1-0.2-0.1-0.5-0.1-0.8V409h-0.9c-0.1,0-0.1,0-0.1-0.1
				c0,0,0.1-0.1,0.2-0.2s0.2-0.2,0.2-0.3h0.6v-1c0.1-0.1,0.2-0.2,0.4-0.4c0.2-0.2,0.3-0.3,0.4-0.4s0.2-0.2,0.2-0.2s0.1,0,0.1-0.1
				h0.1l0,0v2.1H228.9z"/>
			<path d="M236.1,408.4c0.3,0,0.6,0,0.9,0.1c0.2,0.1,0.4,0.2,0.6,0.4c0.2,0.2,0.3,0.4,0.4,0.7s0.1,0.6,0.2,0.9c0,0.3,0,0.7,0,1.2
				v1.7c0,0.6,0,1,0.1,1.2c0,0.1,0.2,0.1,0.4,0.2s0.4,0.1,0.6,0.1c0,0,0,0.1,0.1,0.2s0,0.2-0.1,0.2c-1.1-0.1-1.6-0.1-1.7-0.1
				c-0.2,0-0.4,0-0.5,0s-0.4,0-0.6,0s-0.4,0-0.5,0c0,0-0.1-0.1-0.1-0.2s0-0.2,0.1-0.2c0.2,0,0.3,0,0.6-0.1s0.4-0.1,0.4-0.2
				c0.1-0.2,0.1-0.6,0.1-1.2v-1.6c0-1-0.1-1.7-0.3-2c-0.2-0.4-0.6-0.5-1.2-0.5c-0.2,0-0.4,0.1-0.6,0.2s-0.4,0.3-0.6,0.4
				c-0.2,0.1-0.2,0.2-0.2,0.3v3.3c0,0.6,0,1,0.1,1.2c0,0.1,0.2,0.1,0.4,0.2s0.4,0.1,0.6,0.1c0,0,0,0.1,0.1,0.2s0,0.2-0.1,0.2
				c-1.1-0.1-1.6-0.1-1.7-0.1c-0.2,0-0.4,0-0.5,0s-0.4,0-0.6,0s-0.4,0-0.5,0c0,0-0.1-0.1-0.1-0.2s0-0.2,0.1-0.2c0.2,0,0.3,0,0.6-0.1
				s0.4-0.1,0.4-0.2c0.1-0.2,0.1-0.6,0.1-1.2v-6.9c0-0.4,0-0.7-0.1-0.8c-0.1-0.2-0.4-0.3-1-0.3c0,0,0,0,0-0.1s0-0.1,0-0.2
				s0-0.1,0-0.1c0.7-0.1,1.5-0.3,2.2-0.6c0,0,0.1,0,0.1,0.1s0.1,0.1,0.1,0.2c-0.1,0.3-0.2,0.8-0.2,1.4v3.5l0,0l0,0
				c0.2-0.2,0.5-0.5,1-0.7S235.7,408.4,236.1,408.4z"/>
			<path d="M183.3,424.6c0.2,0,0.3,0,0.5,0s0.3,0,0.5,0s0.4,0,0.5,0c0,0,0,0.1,0,0.2s0,0.2-0.1,0.2s-0.2,0-0.3,0s-0.2,0-0.3,0.1
				s-0.2,0.1-0.2,0.2c0,0,0,0.1,0.1,0.2c0.1,0.3,0.6,1.6,1.6,3.8c0.1-0.3,0.3-0.7,0.4-1.1s0.3-0.7,0.4-0.9c0.1-0.2,0.2-0.4,0.2-0.6
				c0.1-0.2,0.1-0.4,0.2-0.5c0-0.1,0.1-0.2,0.1-0.2c0-0.1,0-0.2-0.1-0.4s-0.2-0.3-0.3-0.5s-0.4-0.3-0.7-0.3c0,0-0.1-0.1-0.1-0.2
				s0-0.2,0.1-0.2s0.3,0,0.6,0s0.6,0,0.8,0c0,0,0.6,0,1.6-0.1c0,0.1,0,0.1,0,0.2s0,0.2,0,0.2c-0.5,0-0.8,0.2-0.8,0.5
				c0,0,0,0.1,0,0.2s0.1,0.2,0.1,0.3c0,0.1,0.1,0.3,0.2,0.5s0.2,0.5,0.3,0.7s0.2,0.6,0.4,1s0.3,0.8,0.5,1.2c0.8-1.9,1.2-3.1,1.4-3.5
				c0.1-0.2,0.1-0.3,0.1-0.4s0-0.2-0.1-0.3s-0.1-0.1-0.3-0.2c-0.1,0-0.2-0.1-0.3-0.1s-0.2,0-0.3,0c0,0,0-0.1-0.1-0.2s0-0.2,0.1-0.2
				s0.3,0,0.6,0s0.5,0,0.8,0c0.2,0,0.3,0,0.5,0s0.3,0,0.5,0s0.3,0,0.5,0c0,0,0,0.1,0,0.2s0,0.2-0.1,0.2s-0.3,0-0.6,0.1
				c-0.2,0.1-0.4,0.2-0.5,0.4c-0.9,2.3-1.7,4.2-2.3,5.6c0,0.1-0.1,0.1-0.1,0.2c-0.1,0.1-0.1,0.1-0.2,0.1c-0.1,0-0.2,0-0.2-0.1
				l-1.7-4.5l-1.7,4.3c0,0-0.1,0.1-0.1,0.2c-0.1,0.1-0.2,0.1-0.2,0.1s-0.1,0-0.1-0.1c-0.9-2.2-1.7-4.2-2.5-6
				c-0.1-0.2-0.4-0.3-0.8-0.3c0,0,0-0.1,0-0.2s0-0.2,0-0.2c0.2,0,0.3,0,0.5,0s0.4,0,0.5,0S183.1,424.6,183.3,424.6z"/>
			<path d="M196.7,424.4c0.5,0,0.9,0.2,1.2,0.6s0.5,0.9,0.5,1.5v3.2c0,0.5,0.2,0.7,0.5,0.7h0.1h0.1h0.1h0.1c0,0,0,0,0.1,0s0,0,0,0
				s0.1,0,0.1,0.1s0,0.2-0.1,0.3c-0.1,0.1-0.3,0.2-0.6,0.4c-0.3,0.1-0.5,0.2-0.6,0.2c-0.2,0-0.4-0.1-0.6-0.3s-0.3-0.4-0.4-0.7
				c-0.2,0.2-0.4,0.4-0.9,0.6s-0.8,0.4-1,0.4c-0.5,0-0.9-0.2-1.3-0.5c-0.4-0.3-0.5-0.8-0.5-1.3c0-0.3,0.1-0.6,0.2-0.8
				c0.2-0.2,0.3-0.4,0.5-0.5s0.5-0.2,0.9-0.3s0.8-0.3,1.1-0.4s0.5-0.2,0.7-0.3c0.1,0,0.1-0.1,0.2-0.1s0-0.1,0-0.3v-0.4
				c0-0.4-0.1-0.7-0.4-1c-0.3-0.3-0.6-0.5-0.9-0.5c-0.3,0-0.5,0.1-0.6,0.2c-0.1,0.2-0.2,0.4-0.3,0.7c-0.1,0.5-0.3,0.8-0.7,0.8
				c-0.2,0-0.3-0.1-0.4-0.2c-0.1-0.1-0.1-0.3-0.1-0.5c0,0,0-0.1,0-0.2s0-0.1,0.1-0.2c0.3-0.3,0.8-0.6,1.3-0.9
				C195.6,424.5,196.1,424.4,196.7,424.4z M195.8,430.5c0.3,0,0.5-0.1,0.9-0.3c0.3-0.2,0.5-0.3,0.5-0.4v-2.1
				c-0.8,0.2-1.3,0.4-1.5,0.5c-0.3,0.1-0.5,0.3-0.7,0.5s-0.3,0.5-0.3,0.7c0,0.3,0.1,0.5,0.3,0.8S195.5,430.5,195.8,430.5z"/>
			<path d="M202.1,424.4h2c0.1,0,0.1,0.1,0.1,0.2c0,0.2-0.1,0.3-0.2,0.5h-1.9v4.1c0,0.9,0.3,1.3,1,1.3c0.3,0,0.7-0.1,1-0.4v0.1
				c0,0.1,0,0.2-0.1,0.2c-0.1,0.1-0.2,0.2-0.3,0.3c-0.1,0.1-0.3,0.2-0.6,0.3s-0.5,0.2-0.7,0.2s-0.4,0-0.6-0.1
				c-0.2-0.1-0.4-0.1-0.5-0.3c-0.2-0.1-0.3-0.3-0.4-0.5c-0.1-0.2-0.1-0.5-0.1-0.8V425H200c-0.1,0-0.1,0-0.1-0.1c0,0,0.1-0.1,0.2-0.2
				s0.2-0.2,0.2-0.3h0.6v-1c0.1-0.1,0.2-0.2,0.4-0.4c0.2-0.2,0.3-0.3,0.4-0.4s0.2-0.2,0.2-0.2s0.1,0,0.1-0.1h0.1l0,0L202.1,424.4
				L202.1,424.4z"/>
			<path d="M206.2,427.3c0,1,0.2,1.7,0.7,2.2s1.1,0.8,1.8,0.8c0.4,0,0.7-0.1,1-0.3c0.3-0.2,0.5-0.4,0.7-0.6l0,0c0,0,0,0,0.1,0.1v0.1
				c0,0.1,0,0.2-0.1,0.3c-0.1,0.1-0.2,0.3-0.3,0.4s-0.3,0.3-0.5,0.4s-0.4,0.3-0.7,0.4s-0.5,0.1-0.8,0.1c-0.9,0-1.7-0.3-2.2-0.9
				s-0.9-1.4-0.9-2.3c0-0.5,0.1-1,0.3-1.5s0.4-0.9,0.7-1.2c0.3-0.3,0.6-0.6,1-0.8s0.7-0.3,1.1-0.3c0.4,0,0.7,0.1,1,0.2
				s0.5,0.2,0.7,0.4c0.2,0.2,0.3,0.3,0.4,0.5s0.2,0.4,0.2,0.6s0.1,0.3,0.1,0.5s0,0.4-0.1,0.5s-0.2,0.2-0.3,0.2c-0.2,0-0.9,0-2,0.1
				C207,427.3,206.4,427.3,206.2,427.3z M206.3,426.7h2.5c0.2,0,0.3-0.1,0.4-0.4c0-0.1,0-0.2-0.1-0.4s-0.1-0.3-0.2-0.5
				c-0.1-0.2-0.2-0.3-0.4-0.4s-0.4-0.2-0.6-0.2c-0.2,0-0.5,0.1-0.7,0.2s-0.4,0.3-0.5,0.5s-0.2,0.4-0.3,0.5s-0.1,0.3-0.2,0.5
				S206.3,426.7,206.3,426.7z"/>
			<path d="M215.9,424.4c0.2,0,0.4,0,0.6,0.1c0.2,0.1,0.3,0.2,0.4,0.3c0,0.1,0.1,0.3,0.1,0.4c0,0.3-0.1,0.5-0.2,0.6
				c-0.1,0.1-0.2,0.2-0.3,0.2s-0.1,0-0.2,0c-0.1,0-0.1-0.1-0.2-0.1c-0.1-0.1-0.1-0.1-0.2-0.1c-0.2-0.1-0.4-0.2-0.6-0.2
				c-0.3,0-0.6,0.2-0.9,0.5c-0.3,0.4-0.4,0.6-0.4,0.9v2.4c0,0.6,0,1,0.1,1.2c0,0.1,0.2,0.1,0.6,0.2s0.6,0.1,0.8,0.1
				c0,0,0,0.1,0.1,0.2s0,0.2-0.1,0.2c-1.1-0.1-1.7-0.1-1.9-0.1c-0.1,0-0.7,0-1.8,0.1c0,0-0.1-0.1-0.1-0.2s0-0.2,0.1-0.2
				c0.2,0,0.3,0,0.6-0.1s0.4-0.1,0.4-0.2s0.1-0.5,0.1-1.2v-2.9c0-0.4,0-0.7-0.1-0.8c0-0.1-0.1-0.1-0.3-0.2s-0.3-0.1-0.4-0.1
				s-0.2,0-0.3,0c0,0,0-0.1,0-0.2s0-0.2,0-0.2c0.9-0.1,1.6-0.3,2.2-0.7c0,0,0.1,0,0.1,0.1s0.1,0.1,0.1,0.2s0,0.3-0.1,0.7
				c0,0.4,0,0.7,0,0.7l0,0l0,0l0,0c0.2-0.4,0.4-0.8,0.8-1.1C215.3,424.6,215.6,424.4,215.9,424.4z"/>
		</g>
		<g>
			<path d="M323.3,128.6c1.1,0,1.9-0.1,2.3-0.2l0,0l0,0c0,0,0.1,0,0.1,0.1s0,0.2,0,0.2c-0.1,0.4-0.1,0.8-0.1,1.1v3.5
				c0,0.6,0,1,0.1,1.2c0,0.1,0.2,0.1,0.4,0.2s0.4,0.1,0.6,0.1c0,0,0,0.1,0.1,0.2s0,0.2-0.1,0.2c-1.1-0.1-1.6-0.1-1.7-0.1
				c-0.2,0-0.4,0-0.5,0s-0.4,0-0.6,0s-0.4,0-0.5,0c0,0-0.1-0.1-0.1-0.2s0-0.2,0.1-0.2c0.2,0,0.3,0,0.6-0.1s0.4-0.1,0.4-0.2
				c0.1-0.2,0.1-0.6,0.1-1.2v-3c0-0.3-0.1-0.6-0.2-0.8s-0.5-0.3-1.1-0.3h-1.7v4.1c0,0.6,0,1,0.1,1.2c0,0.1,0.2,0.1,0.4,0.2
				s0.5,0.1,0.6,0.1c0,0,0,0.1,0.1,0.2s0,0.2-0.1,0.2c-1.1-0.1-1.6-0.1-1.7-0.1c-0.2,0-0.4,0-0.5,0s-0.4,0-0.6,0s-0.4,0-0.5,0
				c0,0-0.1-0.1-0.1-0.2s0-0.2,0.1-0.2c0.2,0,0.3,0,0.6-0.1s0.4-0.1,0.4-0.2c0.1-0.2,0.1-0.6,0.1-1.2V129h-0.9c0,0,0,0,0-0.1
				s0.1-0.2,0.2-0.3s0.2-0.2,0.3-0.2h0.5v-0.2c0-0.6,0.1-1.2,0.4-1.9s0.7-1.2,1.2-1.6s1.1-0.7,1.6-0.7c0.3,0,0.6,0.1,1,0.2
				s0.6,0.3,0.7,0.5c0.3,0.3,0.5,0.7,0.5,1c0,0.2-0.1,0.3-0.2,0.4s-0.3,0.2-0.5,0.2c-0.3,0-0.6-0.2-0.7-0.6c0-0.1,0-0.1-0.1-0.2
				s-0.1-0.2-0.1-0.2s-0.1-0.1-0.1-0.2c-0.1-0.2-0.2-0.3-0.4-0.4s-0.3-0.1-0.6-0.1c-0.4,0-0.8,0.3-1.1,0.9s-0.5,1.2-0.5,2v0.8h1.7
				V128.6z"/>
			<path d="M331.9,128.3c0.2,0,0.4,0,0.6,0.1s0.3,0.2,0.4,0.3c0,0.1,0.1,0.3,0.1,0.4c0,0.3-0.1,0.5-0.2,0.6s-0.2,0.2-0.3,0.2
				c-0.1,0-0.1,0-0.2,0s-0.1-0.1-0.2-0.1s-0.1-0.1-0.2-0.1c-0.2-0.1-0.4-0.2-0.6-0.2c-0.3,0-0.6,0.2-0.9,0.5s-0.4,0.6-0.4,0.9v2.4
				c0,0.6,0,1,0.1,1.2c0,0.1,0.2,0.1,0.6,0.2s0.6,0.1,0.8,0.1c0,0,0,0.1,0.1,0.2s0,0.2-0.1,0.2c-1.1-0.1-1.7-0.1-1.9-0.1
				c-0.1,0-0.7,0-1.8,0.1c0,0-0.1-0.1-0.1-0.2s0-0.2,0.1-0.2c0.2,0,0.3,0,0.6-0.1s0.4-0.1,0.4-0.2c0-0.1,0.1-0.5,0.1-1.2v-2.9
				c0-0.4,0-0.7-0.1-0.8c0-0.1-0.1-0.1-0.3-0.2s-0.3-0.1-0.4-0.1s-0.2,0-0.3,0c0,0,0-0.1,0-0.2s0-0.2,0-0.2c0.9-0.1,1.6-0.3,2.2-0.7
				c0,0,0.1,0,0.1,0.1s0.1,0.1,0.1,0.2c0,0.1,0,0.3-0.1,0.7s0,0.7,0,0.7l0,0l0,0l0,0c0.2-0.4,0.4-0.8,0.8-1.1
				S331.6,128.3,331.9,128.3z"/>
			<path d="M334.8,131.2c0,1,0.2,1.7,0.7,2.2s1.1,0.8,1.8,0.8c0.4,0,0.7-0.1,1-0.3s0.5-0.4,0.7-0.6l0,0c0,0,0,0,0.1,0.1s0,0.1,0,0.1
				c0,0.1,0,0.2-0.1,0.3s-0.2,0.3-0.3,0.4s-0.3,0.3-0.5,0.4s-0.4,0.3-0.7,0.4s-0.5,0.1-0.8,0.1c-0.9,0-1.7-0.3-2.2-0.9
				s-0.9-1.4-0.9-2.3c0-0.5,0.1-1,0.3-1.5s0.4-0.9,0.7-1.2s0.6-0.6,1-0.8s0.7-0.3,1.1-0.3s0.7,0.1,1,0.2s0.5,0.2,0.7,0.4
				s0.3,0.3,0.4,0.5s0.2,0.4,0.2,0.6s0.1,0.3,0.1,0.5s0,0.4-0.1,0.5s-0.2,0.2-0.3,0.2c-0.2,0-0.9,0-2,0.1S334.9,131.2,334.8,131.2z
				 M334.9,130.7h2.5c0.2,0,0.3-0.1,0.4-0.4c0-0.1,0-0.2-0.1-0.4s-0.1-0.3-0.2-0.5s-0.2-0.3-0.4-0.4s-0.4-0.2-0.6-0.2
				s-0.5,0.1-0.7,0.2s-0.4,0.3-0.5,0.5s-0.2,0.4-0.3,0.5s-0.1,0.3-0.2,0.5S334.9,130.7,334.9,130.7z"/>
			<path d="M341.4,133.2c0.1,0,0.3,0,0.4,0.1c0.2,0.3,0.3,0.7,0.3,1.1c0,0.4-0.2,1-0.6,1.6s-0.8,1.1-1.2,1.3c-0.1,0-0.1,0-0.2-0.1
				S340,137,340,137c0.1-0.1,0.2-0.2,0.3-0.2s0.2-0.2,0.3-0.3s0.2-0.3,0.3-0.5s0.1-0.4,0.1-0.6c0-0.2-0.1-0.4-0.3-0.6
				s-0.3-0.5-0.3-0.7s0.1-0.4,0.3-0.5S341.2,133.2,341.4,133.2z"/>
			<path d="M350.7,128.3c0.2,0,0.5,0,0.9,0.1s0.6,0.1,0.7,0.1c0.1,0.5,0.2,1,0.2,1.7c0,0.1-0.1,0.1-0.2,0.1s-0.2,0-0.3-0.1
				c-0.1-0.3-0.3-0.7-0.5-1s-0.5-0.5-0.8-0.5c-0.4,0-0.6,0.1-0.8,0.3s-0.3,0.4-0.3,0.7c0,0.1,0,0.3,0.1,0.4s0.1,0.2,0.1,0.3
				s0.1,0.2,0.2,0.2s0.2,0.2,0.3,0.2s0.2,0.1,0.3,0.2s0.3,0.2,0.3,0.2s0.2,0.1,0.3,0.2s0.3,0.2,0.4,0.2s0.2,0.1,0.3,0.2
				s0.3,0.2,0.3,0.3s0.2,0.2,0.2,0.3s0.1,0.2,0.2,0.4s0.1,0.3,0.1,0.4c0,0.6-0.2,1.1-0.7,1.5s-1,0.6-1.7,0.6c-0.2,0-0.4,0-0.6,0
				s-0.4-0.1-0.6-0.1s-0.4-0.1-0.6-0.1c-0.1-0.2-0.1-0.4-0.2-0.8s-0.1-0.6-0.1-0.8c0.1-0.1,0.2-0.1,0.3-0.1c0.1,0,0.1,0,0.1,0
				c0.1,0.4,0.3,0.7,0.6,1s0.7,0.5,1.1,0.5c0.3,0,0.6-0.1,0.8-0.3s0.3-0.5,0.3-0.8c0-0.2,0-0.3-0.1-0.5s-0.2-0.3-0.3-0.4
				s-0.3-0.2-0.4-0.3s-0.3-0.2-0.5-0.3s-0.4-0.2-0.5-0.3c-0.4-0.2-0.7-0.4-0.9-0.7s-0.3-0.6-0.3-1c0-0.6,0.2-1,0.7-1.4
				S350.1,128.3,350.7,128.3z"/>
			<path d="M358.4,128.3c0.3,0,0.6,0,0.9,0.1s0.4,0.2,0.6,0.4s0.3,0.4,0.4,0.7s0.1,0.6,0.2,0.9s0,0.7,0,1.2v1.7c0,0.6,0,1,0.1,1.2
				c0,0.1,0.2,0.1,0.4,0.2s0.4,0.1,0.6,0.1c0,0,0,0.1,0.1,0.2s0,0.2-0.1,0.2c-1.1-0.1-1.6-0.1-1.7-0.1c-0.2,0-0.4,0-0.5,0
				s-0.4,0-0.6,0s-0.4,0-0.5,0c0,0-0.1-0.1-0.1-0.2s0-0.2,0.1-0.2c0.2,0,0.3,0,0.6-0.1s0.4-0.1,0.4-0.2c0.1-0.2,0.1-0.6,0.1-1.2
				v-1.6c0-1-0.1-1.7-0.3-2s-0.6-0.5-1.2-0.5c-0.2,0-0.4,0.1-0.6,0.2s-0.4,0.3-0.6,0.4s-0.2,0.2-0.2,0.3v3.3c0,0.6,0,1,0.1,1.2
				c0,0.1,0.2,0.1,0.4,0.2s0.4,0.1,0.6,0.1c0,0,0,0.1,0.1,0.2s0,0.2-0.1,0.2c-1.1-0.1-1.6-0.1-1.7-0.1c-0.2,0-0.4,0-0.5,0
				s-0.4,0-0.6,0s-0.4,0-0.5,0c0,0-0.1-0.1-0.1-0.2s0-0.2,0.1-0.2c0.2,0,0.3,0,0.6-0.1s0.4-0.1,0.4-0.2c0.1-0.2,0.1-0.6,0.1-1.2
				v-2.8c0-0.5,0-0.8-0.1-0.9c0-0.1-0.1-0.1-0.3-0.2s-0.3-0.1-0.4-0.1s-0.2,0-0.3,0c0,0,0-0.1,0-0.2s0-0.2,0-0.2
				c0.9-0.1,1.6-0.3,2.2-0.7c0,0,0.1,0,0.1,0.1s0.1,0.1,0.1,0.2c-0.1,0.4-0.1,0.7-0.1,0.9v0.1l0,0c0.2-0.2,0.5-0.5,1-0.7
				S358.1,128.3,358.4,128.3z"/>
			<path d="M365.5,128.3c0.5,0,0.9,0.2,1.2,0.6s0.5,0.9,0.5,1.5v3.2c0,0.5,0.2,0.7,0.5,0.7h0.1h0.1h0.1h0.1c0,0,0,0,0.1,0s0,0,0,0
				s0.1,0,0.1,0.1s0,0.2-0.1,0.3s-0.3,0.2-0.6,0.4s-0.5,0.2-0.6,0.2c-0.2,0-0.4-0.1-0.6-0.3s-0.3-0.4-0.4-0.7
				c-0.2,0.2-0.4,0.4-0.9,0.6s-0.8,0.4-1,0.4c-0.5,0-0.9-0.2-1.3-0.5s-0.5-0.8-0.5-1.3c0-0.3,0.1-0.6,0.2-0.8s0.3-0.4,0.5-0.5
				s0.5-0.2,0.9-0.3s0.8-0.3,1.1-0.4s0.5-0.2,0.7-0.3c0.1,0,0.1-0.1,0.2-0.1s0-0.1,0-0.3v-0.4c0-0.4-0.1-0.7-0.4-1s-0.6-0.5-0.9-0.5
				s-0.5,0.1-0.6,0.2s-0.2,0.4-0.3,0.7c-0.1,0.5-0.3,0.8-0.7,0.8c-0.2,0-0.3-0.1-0.4-0.2s-0.1-0.3-0.1-0.5c0,0,0-0.1,0-0.2
				s0-0.1,0.1-0.2c0.3-0.3,0.8-0.6,1.3-0.9S365,128.3,365.5,128.3z M364.6,134.4c0.3,0,0.5-0.1,0.9-0.3s0.5-0.3,0.5-0.4v-2.1
				c-0.8,0.2-1.3,0.4-1.5,0.5c-0.3,0.1-0.5,0.3-0.7,0.5s-0.3,0.5-0.3,0.7c0,0.3,0.1,0.5,0.3,0.8S364.3,134.4,364.6,134.4z"/>
			<path d="M371,133.3c0,0.6,0,1,0.1,1.2c0,0.1,0.2,0.1,0.4,0.2s0.4,0.1,0.6,0.1c0,0,0,0.1,0.1,0.2s0,0.2-0.1,0.2
				c-1.1-0.1-1.6-0.1-1.7-0.1c-0.2,0-0.4,0-0.5,0s-0.4,0-0.6,0s-0.4,0-0.5,0c0,0-0.1-0.1-0.1-0.2s0-0.2,0.1-0.2c0.2,0,0.3,0,0.6-0.1
				s0.4-0.1,0.4-0.2c0.1-0.2,0.1-0.6,0.1-1.2v-6.9c0-0.4,0-0.7-0.1-0.8c-0.1-0.2-0.4-0.3-1-0.3c0,0,0,0,0-0.1s0-0.1,0-0.2
				s0-0.1,0-0.1c0.7-0.1,1.5-0.3,2.2-0.6c0,0,0.1,0,0.1,0.1s0.1,0.1,0.1,0.2c-0.1,0.3-0.2,0.8-0.2,1.4v5.6c0.2-0.1,0.6-0.4,1.3-1
				c0.1-0.1,0.3-0.2,0.5-0.4s0.3-0.3,0.4-0.3s0.2-0.2,0.3-0.2s0.2-0.2,0.2-0.2l0.1-0.1v-0.1c0,0-0.1,0-0.1-0.1s-0.1,0-0.1,0h-0.1
				h-0.1h-0.1h-0.1c0-0.1-0.1-0.1,0-0.3s0-0.2,0.1-0.2c0.5,0.1,1,0.1,1.5,0.1s1,0,1.4-0.1c0,0,0,0.1,0,0.2s0,0.2,0,0.2
				c-0.1,0-0.3,0-0.6,0.1s-0.5,0.2-0.6,0.3c-1.2,0.8-2,1.5-2.5,1.9c0.3,0.3,0.7,0.7,1.1,1.2s0.8,0.9,1.1,1.2s0.5,0.5,0.6,0.6
				c0.2,0.2,0.4,0.3,0.7,0.3s0.5,0.1,0.8,0.1c0,0,0,0.1,0,0.2s0,0.2,0,0.2c-0.1,0.1-0.5,0.1-1,0.1c-0.4,0-0.8-0.1-1.2-0.2
				s-0.6-0.3-0.8-0.5c-0.9-1-1.6-1.8-2.2-2.4c0,0,0,0-0.1-0.1l-0.1-0.1l0,0v1.4H371z"/>
			<path d="M377.6,131.2c0,1,0.2,1.7,0.7,2.2s1.1,0.8,1.8,0.8c0.4,0,0.7-0.1,1-0.3s0.5-0.4,0.7-0.6l0,0c0,0,0,0,0.1,0.1s0,0.1,0,0.1
				c0,0.1,0,0.2-0.1,0.3s-0.2,0.3-0.3,0.4s-0.3,0.3-0.5,0.4s-0.4,0.3-0.7,0.4s-0.5,0.1-0.8,0.1c-0.9,0-1.7-0.3-2.2-0.9
				s-0.9-1.4-0.9-2.3c0-0.5,0.1-1,0.3-1.5s0.4-0.9,0.7-1.2s0.6-0.6,1-0.8s0.7-0.3,1.1-0.3s0.7,0.1,1,0.2s0.5,0.2,0.7,0.4
				s0.3,0.3,0.4,0.5s0.2,0.4,0.2,0.6s0.1,0.3,0.1,0.5s0,0.4-0.1,0.5s-0.2,0.2-0.3,0.2c-0.2,0-0.9,0-2,0.1S377.7,131.2,377.6,131.2z
				 M377.6,130.7h2.5c0.2,0,0.3-0.1,0.4-0.4c0-0.1,0-0.2-0.1-0.4s-0.1-0.3-0.2-0.5s-0.2-0.3-0.4-0.4s-0.4-0.2-0.6-0.2
				s-0.5,0.1-0.7,0.2s-0.4,0.3-0.5,0.5s-0.2,0.4-0.3,0.5s-0.1,0.3-0.2,0.5S377.6,130.7,377.6,130.7z"/>
			<path d="M385.6,128.3c0.2,0,0.5,0,0.9,0.1s0.6,0.1,0.7,0.1c0.1,0.5,0.2,1,0.2,1.7c0,0.1-0.1,0.1-0.2,0.1s-0.2,0-0.3-0.1
				c-0.1-0.3-0.3-0.7-0.5-1s-0.5-0.5-0.8-0.5c-0.4,0-0.6,0.1-0.8,0.3s-0.3,0.4-0.3,0.7c0,0.1,0,0.3,0.1,0.4s0.1,0.2,0.1,0.3
				s0.1,0.2,0.2,0.2s0.2,0.2,0.3,0.2s0.2,0.1,0.3,0.2s0.3,0.2,0.3,0.2s0.2,0.1,0.3,0.2s0.3,0.2,0.4,0.2s0.2,0.1,0.3,0.2
				s0.3,0.2,0.3,0.3s0.2,0.2,0.2,0.3s0.1,0.2,0.2,0.4s0.1,0.3,0.1,0.4c0,0.6-0.2,1.1-0.7,1.5s-1,0.6-1.7,0.6c-0.2,0-0.4,0-0.6,0
				s-0.4-0.1-0.6-0.1s-0.4-0.1-0.6-0.1c-0.1-0.2-0.1-0.4-0.2-0.8s-0.1-0.6-0.1-0.8c0.1-0.1,0.2-0.1,0.3-0.1c0.1,0,0.1,0,0.1,0
				c0.1,0.4,0.3,0.7,0.6,1s0.7,0.5,1.1,0.5c0.3,0,0.6-0.1,0.8-0.3s0.3-0.5,0.3-0.8c0-0.2,0-0.3-0.1-0.5s-0.2-0.3-0.3-0.4
				s-0.3-0.2-0.4-0.3s-0.3-0.2-0.5-0.3s-0.4-0.2-0.5-0.3c-0.4-0.2-0.7-0.4-0.9-0.7s-0.3-0.6-0.3-1c0-0.6,0.2-1,0.7-1.4
				S385,128.3,385.6,128.3z"/>
			<path d="M390,133.2c0.1,0,0.3,0,0.4,0.1c0.2,0.3,0.3,0.7,0.3,1.1c0,0.4-0.2,1-0.6,1.6s-0.8,1.1-1.2,1.3c-0.1,0-0.1,0-0.2-0.1
				s-0.1-0.2-0.1-0.2c0.1-0.1,0.2-0.2,0.3-0.2s0.2-0.2,0.3-0.3s0.2-0.3,0.3-0.5s0.1-0.4,0.1-0.6c0-0.2-0.1-0.4-0.3-0.6
				s-0.3-0.5-0.3-0.7s0.1-0.4,0.3-0.5S389.7,133.2,390,133.2z"/>
			<path d="M320.4,144.4h2c0.1,0,0.1,0.1,0.1,0.2c0,0.2-0.1,0.3-0.2,0.5h-1.9v4.1c0,0.9,0.3,1.3,1,1.3c0.3,0,0.7-0.1,1-0.4v0.1
				c0,0.1,0,0.2-0.1,0.2c-0.1,0.1-0.2,0.2-0.3,0.3s-0.3,0.2-0.6,0.3s-0.5,0.2-0.7,0.2s-0.4,0-0.6-0.1s-0.4-0.1-0.5-0.3
				s-0.3-0.3-0.4-0.5s-0.1-0.5-0.1-0.8V145h-0.9c-0.1,0-0.1,0-0.1-0.1c0,0,0.1-0.1,0.2-0.2s0.2-0.2,0.2-0.3h0.6v-1
				c0.1-0.1,0.2-0.2,0.4-0.4s0.3-0.3,0.4-0.4s0.2-0.2,0.2-0.2s0.1,0,0.1-0.1s0.1,0,0.1,0l0,0L320.4,144.4L320.4,144.4z"/>
			<path d="M324.5,147.2c0,1,0.2,1.7,0.7,2.2s1.1,0.8,1.8,0.8c0.4,0,0.7-0.1,1-0.3s0.5-0.4,0.7-0.6l0,0c0,0,0,0,0.1,0.1s0,0.1,0,0.1
				c0,0.1,0,0.2-0.1,0.3s-0.2,0.3-0.3,0.4s-0.3,0.3-0.5,0.4s-0.4,0.3-0.7,0.4s-0.5,0.1-0.8,0.1c-0.9,0-1.7-0.3-2.2-0.9
				s-0.9-1.4-0.9-2.3c0-0.5,0.1-1,0.3-1.5s0.4-0.9,0.7-1.2s0.6-0.6,1-0.8s0.7-0.3,1.1-0.3s0.7,0.1,1,0.2s0.5,0.2,0.7,0.4
				s0.3,0.3,0.4,0.5s0.2,0.4,0.2,0.6s0.1,0.3,0.1,0.5s0,0.4-0.1,0.5s-0.2,0.2-0.3,0.2c-0.2,0-0.9,0-2,0.1S324.6,147.2,324.5,147.2z
				 M324.6,146.7h2.5c0.2,0,0.3-0.1,0.4-0.4c0-0.1,0-0.2-0.1-0.4s-0.1-0.3-0.2-0.5s-0.2-0.3-0.4-0.4s-0.4-0.2-0.6-0.2
				s-0.5,0.1-0.7,0.2s-0.4,0.3-0.5,0.5s-0.2,0.4-0.3,0.5s-0.1,0.3-0.2,0.5S324.6,146.7,324.6,146.7z"/>
			<path d="M331.2,147.2c0,1,0.2,1.7,0.7,2.2s1.1,0.8,1.8,0.8c0.4,0,0.7-0.1,1-0.3s0.5-0.4,0.7-0.6l0,0c0,0,0,0,0.1,0.1s0,0.1,0,0.1
				c0,0.1,0,0.2-0.1,0.3s-0.2,0.3-0.3,0.4s-0.3,0.3-0.5,0.4s-0.4,0.3-0.7,0.4s-0.5,0.1-0.8,0.1c-0.9,0-1.7-0.3-2.2-0.9
				s-0.9-1.4-0.9-2.3c0-0.5,0.1-1,0.3-1.5s0.4-0.9,0.7-1.2s0.6-0.6,1-0.8s0.7-0.3,1.1-0.3s0.7,0.1,1,0.2s0.5,0.2,0.7,0.4
				s0.3,0.3,0.4,0.5s0.2,0.4,0.2,0.6s0.1,0.3,0.1,0.5s0,0.4-0.1,0.5s-0.2,0.2-0.3,0.2c-0.2,0-0.9,0-2,0.1S331.4,147.2,331.2,147.2z
				 M331.3,146.7h2.5c0.2,0,0.3-0.1,0.4-0.4c0-0.1,0-0.2-0.1-0.4s-0.1-0.3-0.2-0.5s-0.2-0.3-0.4-0.4s-0.4-0.2-0.6-0.2
				s-0.5,0.1-0.7,0.2s-0.4,0.3-0.5,0.5s-0.2,0.4-0.3,0.5s-0.1,0.3-0.2,0.5S331.3,146.7,331.3,146.7z"/>
			<path d="M338.7,144.4h2c0.1,0,0.1,0.1,0.1,0.2c0,0.2-0.1,0.3-0.2,0.5h-1.9v4.1c0,0.9,0.3,1.3,1,1.3c0.3,0,0.7-0.1,1-0.4v0.1
				c0,0.1,0,0.2-0.1,0.2c-0.1,0.1-0.2,0.2-0.3,0.3s-0.3,0.2-0.6,0.3s-0.5,0.2-0.7,0.2s-0.4,0-0.6-0.1s-0.4-0.1-0.5-0.3
				s-0.3-0.3-0.4-0.5s-0.1-0.5-0.1-0.8V145h-0.9c-0.1,0-0.1,0-0.1-0.1c0,0,0.1-0.1,0.2-0.2s0.2-0.2,0.2-0.3h0.6v-1
				c0.1-0.1,0.2-0.2,0.4-0.4s0.3-0.3,0.4-0.4s0.2-0.2,0.2-0.2s0.1,0,0.1-0.1s0.1,0,0.1,0l0,0L338.7,144.4L338.7,144.4z"/>
			<path d="M345.9,144.3c0.3,0,0.6,0,0.9,0.1s0.4,0.2,0.6,0.4s0.3,0.4,0.4,0.7s0.1,0.6,0.2,0.9s0,0.7,0,1.2v1.7c0,0.6,0,1,0.1,1.2
				c0,0.1,0.2,0.1,0.4,0.2s0.4,0.1,0.6,0.1c0,0,0,0.1,0.1,0.2s0,0.2-0.1,0.2c-1.1-0.1-1.6-0.1-1.7-0.1c-0.2,0-0.4,0-0.5,0
				s-0.4,0-0.6,0s-0.4,0-0.5,0c0,0-0.1-0.1-0.1-0.2s0-0.2,0.1-0.2c0.2,0,0.3,0,0.6-0.1s0.4-0.1,0.4-0.2c0.1-0.2,0.1-0.6,0.1-1.2
				v-1.6c0-1-0.1-1.7-0.3-2s-0.6-0.5-1.2-0.5c-0.2,0-0.4,0.1-0.6,0.2s-0.4,0.3-0.6,0.4s-0.2,0.2-0.2,0.3v3.3c0,0.6,0,1,0.1,1.2
				c0,0.1,0.2,0.1,0.4,0.2s0.4,0.1,0.6,0.1c0,0,0,0.1,0.1,0.2s0,0.2-0.1,0.2c-1.1-0.1-1.6-0.1-1.7-0.1c-0.2,0-0.4,0-0.5,0
				s-0.4,0-0.6,0s-0.4,0-0.5,0c0,0-0.1-0.1-0.1-0.2s0-0.2,0.1-0.2c0.2,0,0.3,0,0.6-0.1s0.4-0.1,0.4-0.2c0.1-0.2,0.1-0.6,0.1-1.2
				v-6.9c0-0.4,0-0.7-0.1-0.8c-0.1-0.2-0.4-0.3-1-0.3c0,0,0,0,0-0.1s0-0.1,0-0.2s0-0.1,0-0.1c0.7-0.1,1.5-0.3,2.2-0.6
				c0,0,0.1,0,0.1,0.1s0.1,0.1,0.1,0.2c-0.1,0.3-0.2,0.8-0.2,1.4v3.5l0,0l0,0c0.2-0.2,0.5-0.5,1-0.7S345.5,144.3,345.9,144.3z"/>
			<path d="M350.8,149.2c0.1,0,0.3,0,0.4,0.1c0.2,0.3,0.3,0.7,0.3,1.1c0,0.4-0.2,1-0.6,1.6s-0.8,1.1-1.2,1.3c-0.1,0-0.1,0-0.2-0.1
				s-0.1-0.2-0.1-0.2c0.1-0.1,0.2-0.2,0.3-0.2s0.2-0.2,0.3-0.3s0.2-0.3,0.3-0.5s0.1-0.4,0.1-0.6c0-0.2-0.1-0.4-0.3-0.6
				s-0.3-0.5-0.3-0.7s0.1-0.4,0.3-0.5S350.5,149.2,350.8,149.2z"/>
			<path d="M358.5,144.5c0.2,0,0.3,0,0.5,0s0.3,0,0.5,0s0.4,0,0.5,0c0,0,0,0.1,0,0.2s0,0.2-0.1,0.2s-0.2,0-0.3,0s-0.2,0-0.3,0.1
				s-0.2,0.1-0.2,0.2c0,0,0,0.1,0.1,0.2c0.1,0.3,0.6,1.6,1.6,3.8c0.1-0.3,0.3-0.7,0.4-1.1s0.3-0.7,0.4-0.9s0.2-0.4,0.2-0.6
				s0.1-0.4,0.2-0.5s0.1-0.2,0.1-0.2c0-0.1,0-0.2-0.1-0.4s-0.2-0.3-0.3-0.5c-0.1-0.2-0.4-0.3-0.7-0.3c0,0-0.1-0.1-0.1-0.2
				s0-0.2,0.1-0.2s0.3,0,0.6,0s0.6,0,0.8,0c0,0,0.6,0,1.6-0.1c0,0.1,0,0.1,0,0.2s0,0.2,0,0.2c-0.5,0-0.8,0.2-0.8,0.5
				c0,0,0,0.1,0,0.2c0,0.1,0.1,0.2,0.1,0.3s0.1,0.3,0.2,0.5s0.2,0.5,0.3,0.7s0.2,0.6,0.4,1s0.3,0.8,0.5,1.2c0.8-1.9,1.2-3.1,1.4-3.5
				c0.1-0.2,0.1-0.3,0.1-0.4c0-0.1,0-0.2-0.1-0.3s-0.1-0.1-0.3-0.2s-0.2-0.1-0.3-0.1s-0.2,0-0.3,0c0,0,0-0.1-0.1-0.2s0-0.2,0.1-0.2
				s0.3,0,0.6,0s0.5,0,0.8,0c0.2,0,0.3,0,0.5,0s0.3,0,0.5,0s0.3,0,0.5,0c0,0,0,0.1,0,0.2s0,0.2-0.1,0.2s-0.3,0-0.6,0.1
				s-0.4,0.2-0.5,0.4c-0.9,2.3-1.7,4.2-2.3,5.6c0,0.1-0.1,0.1-0.1,0.2s-0.1,0.1-0.2,0.1s-0.2,0-0.2-0.1l-1.7-4.5l-1.7,4.3
				c0,0-0.1,0.1-0.1,0.2s-0.2,0.1-0.2,0.1s-0.1,0-0.1-0.1c-0.9-2.2-1.7-4.2-2.5-6c-0.1-0.2-0.4-0.3-0.8-0.3c0,0,0-0.1,0-0.2
				s0-0.2,0-0.2c0.2,0,0.3,0,0.5,0s0.4,0,0.5,0S358.3,144.5,358.5,144.5z"/>
			<path d="M371.9,144.3c0.5,0,0.9,0.2,1.2,0.6s0.5,0.9,0.5,1.5v3.2c0,0.5,0.2,0.7,0.5,0.7h0.1h0.1h0.1h0.1c0,0,0,0,0.1,0s0,0,0,0
				s0.1,0,0.1,0.1s0,0.2-0.1,0.3s-0.3,0.2-0.6,0.4s-0.5,0.2-0.6,0.2c-0.2,0-0.4-0.1-0.6-0.3s-0.3-0.4-0.4-0.7
				c-0.2,0.2-0.4,0.4-0.9,0.6s-0.8,0.4-1,0.4c-0.5,0-0.9-0.2-1.3-0.5s-0.5-0.8-0.5-1.3c0-0.3,0.1-0.6,0.2-0.8s0.3-0.4,0.5-0.5
				s0.5-0.2,0.9-0.3s0.8-0.3,1.1-0.4s0.5-0.2,0.7-0.3c0.1,0,0.1-0.1,0.2-0.1s0-0.1,0-0.3v-0.4c0-0.4-0.1-0.7-0.4-1s-0.6-0.5-0.9-0.5
				s-0.5,0.1-0.6,0.2s-0.2,0.4-0.3,0.7c-0.1,0.5-0.3,0.8-0.7,0.8c-0.2,0-0.3-0.1-0.4-0.2s-0.1-0.3-0.1-0.5c0,0,0-0.1,0-0.2
				s0-0.1,0.1-0.2c0.3-0.3,0.8-0.6,1.3-0.9S371.4,144.3,371.9,144.3z M371,150.4c0.3,0,0.5-0.1,0.9-0.3s0.5-0.3,0.5-0.4v-2.1
				c-0.8,0.2-1.3,0.4-1.5,0.5c-0.3,0.1-0.5,0.3-0.7,0.5s-0.3,0.5-0.3,0.7c0,0.3,0.1,0.5,0.3,0.8S370.7,150.4,371,150.4z"/>
			<path d="M377.3,144.4h2c0.1,0,0.1,0.1,0.1,0.2c0,0.2-0.1,0.3-0.2,0.5h-1.9v4.1c0,0.9,0.3,1.3,1,1.3c0.3,0,0.7-0.1,1-0.4v0.1
				c0,0.1,0,0.2-0.1,0.2c-0.1,0.1-0.2,0.2-0.3,0.3s-0.3,0.2-0.6,0.3s-0.5,0.2-0.7,0.2s-0.4,0-0.6-0.1s-0.4-0.1-0.5-0.3
				s-0.3-0.3-0.4-0.5s-0.1-0.5-0.1-0.8V145h-0.9c-0.1,0-0.1,0-0.1-0.1c0,0,0.1-0.1,0.2-0.2s0.2-0.2,0.2-0.3h0.6v-1
				c0.1-0.1,0.2-0.2,0.4-0.4s0.3-0.3,0.4-0.4s0.2-0.2,0.2-0.2s0.1,0,0.1-0.1s0.1,0,0.1,0l0,0L377.3,144.4L377.3,144.4z"/>
			<path d="M381.4,147.2c0,1,0.2,1.7,0.7,2.2s1.1,0.8,1.8,0.8c0.4,0,0.7-0.1,1-0.3s0.5-0.4,0.7-0.6l0,0c0,0,0,0,0.1,0.1s0,0.1,0,0.1
				c0,0.1,0,0.2-0.1,0.3s-0.2,0.3-0.3,0.4s-0.3,0.3-0.5,0.4s-0.4,0.3-0.7,0.4s-0.5,0.1-0.8,0.1c-0.9,0-1.7-0.3-2.2-0.9
				s-0.9-1.4-0.9-2.3c0-0.5,0.1-1,0.3-1.5s0.4-0.9,0.7-1.2s0.6-0.6,1-0.8s0.7-0.3,1.1-0.3s0.7,0.1,1,0.2s0.5,0.2,0.7,0.4
				s0.3,0.3,0.4,0.5s0.2,0.4,0.2,0.6s0.1,0.3,0.1,0.5s0,0.4-0.1,0.5s-0.2,0.2-0.3,0.2c-0.2,0-0.9,0-2,0.1S381.6,147.2,381.4,147.2z
				 M381.5,146.7h2.5c0.2,0,0.3-0.1,0.4-0.4c0-0.1,0-0.2-0.1-0.4s-0.1-0.3-0.2-0.5s-0.2-0.3-0.4-0.4s-0.4-0.2-0.6-0.2
				s-0.5,0.1-0.7,0.2s-0.4,0.3-0.5,0.5s-0.2,0.4-0.3,0.5s-0.1,0.3-0.2,0.5S381.5,146.7,381.5,146.7z"/>
			<path d="M391.1,144.3c0.2,0,0.4,0,0.6,0.1s0.3,0.2,0.4,0.3c0,0.1,0.1,0.3,0.1,0.4c0,0.3-0.1,0.5-0.2,0.6s-0.2,0.2-0.3,0.2
				c-0.1,0-0.1,0-0.2,0s-0.1-0.1-0.2-0.1s-0.1-0.1-0.2-0.1c-0.2-0.1-0.4-0.2-0.6-0.2c-0.3,0-0.6,0.2-0.9,0.5s-0.4,0.6-0.4,0.9v2.4
				c0,0.6,0,1,0.1,1.2c0,0.1,0.2,0.1,0.6,0.2s0.6,0.1,0.8,0.1c0,0,0,0.1,0.1,0.2s0,0.2-0.1,0.2c-1.1-0.1-1.7-0.1-1.9-0.1
				c-0.1,0-0.7,0-1.8,0.1c0,0-0.1-0.1-0.1-0.2s0-0.2,0.1-0.2c0.2,0,0.3,0,0.6-0.1s0.4-0.1,0.4-0.2c0-0.1,0.1-0.5,0.1-1.2v-2.9
				c0-0.4,0-0.7-0.1-0.8c0-0.1-0.1-0.1-0.3-0.2s-0.3-0.1-0.4-0.1s-0.2,0-0.3,0c0,0,0-0.1,0-0.2s0-0.2,0-0.2c0.9-0.1,1.6-0.3,2.2-0.7
				c0,0,0.1,0,0.1,0.1s0.1,0.1,0.1,0.2c0,0.1,0,0.3-0.1,0.7s0,0.7,0,0.7l0,0l0,0l0,0c0.2-0.4,0.4-0.8,0.8-1.1
				S390.8,144.3,391.1,144.3z"/>
		</g>
	</g>
</g>
</svg>
