<?xml version="1.0" encoding="utf-8"?>
<!-- Generator: Adobe Illustrator 23.0.2, SVG Export Plug-In . SVG Version: 6.00 Build 0)  -->
<svg version="1.1" id="Livello_1" xmlns="http://www.w3.org/2000/svg" xmlns:xlink="http://www.w3.org/1999/xlink" x="0px" y="0px"
	 viewBox="0 0 600 600" style="enable-background:new 0 0 600 600;" xml:space="preserve">
<style type="text/css">
	.st0{fill:none;stroke:#FFFFFF;stroke-width:2;stroke-miterlimit:10;}
	.st1{fill:none;stroke:#FFFFFF;stroke-width:2;stroke-miterlimit:10;stroke-dasharray:1.995,3.9901;}
	.st2{fill:#13120D;}
	.st3{font-family:'Raleway-Regular';}
	.st4{font-size:13px;}
</style>
<g>
	<g>
		<g>
			<line class="st0" x1="300" y1="300" x2="300" y2="299"/>
			<line class="st1" x1="300" y1="295.3" x2="300" y2="52.8"/>
			<line class="st0" x1="300" y1="50.9" x2="300" y2="50"/>
		</g>
	</g>
	<g>
		<g>
			<line class="st0" x1="300" y1="300" x2="300.4" y2="299.2"/>
			<line class="st1" x1="302.3" y1="296" x2="423.6" y2="85.9"/>
			<line class="st0" x1="424.5" y1="84.3" x2="425" y2="83.5"/>
		</g>
	</g>
	<g>
		<g>
			<line class="st0" x1="300" y1="300" x2="300.8" y2="299.5"/>
			<line class="st1" x1="304" y1="297.6" x2="514.1" y2="176.4"/>
			<line class="st0" x1="515.7" y1="175.5" x2="516.5" y2="175"/>
		</g>
	</g>
	<g>
		<g>
			<line class="st0" x1="300" y1="300" x2="300.9" y2="300"/>
			<line class="st1" x1="304.6" y1="300" x2="547.2" y2="300"/>
			<line class="st0" x1="549.1" y1="300" x2="550" y2="300"/>
		</g>
	</g>
	<g>
		<g>
			<line class="st0" x1="300" y1="300" x2="300.8" y2="300.4"/>
			<line class="st1" x1="304" y1="302.3" x2="514.1" y2="423.6"/>
			<line class="st0" x1="515.7" y1="424.5" x2="516.5" y2="425"/>
		</g>
	</g>
	<g>
		<g>
			<line class="st0" x1="300" y1="300" x2="300.4" y2="300.8"/>
			<line class="st1" x1="302.3" y1="304" x2="423.6" y2="514.1"/>
			<line class="st0" x1="424.5" y1="515.7" x2="425" y2="516.5"/>
		</g>
	</g>
	<g>
		<g>
			<line class="st0" x1="300" y1="300" x2="300" y2="300.9"/>
			<line class="st1" x1="300" y1="304.6" x2="300" y2="547.2"/>
			<line class="st0" x1="300" y1="549.1" x2="300" y2="550"/>
		</g>
	</g>
	<g>
		<g>
			<line class="st0" x1="300" y1="300" x2="299.5" y2="300.8"/>
			<line class="st1" x1="297.6" y1="304" x2="176.4" y2="514.1"/>
			<line class="st0" x1="175.5" y1="515.7" x2="175" y2="516.5"/>
		</g>
	</g>
	<g>
		<g>
			<line class="st0" x1="300" y1="300" x2="299.2" y2="300.4"/>
			<line class="st1" x1="296" y1="302.3" x2="85.9" y2="423.6"/>
			<line class="st0" x1="84.3" y1="424.5" x2="83.5" y2="425"/>
		</g>
	</g>
	<g>
		<g>
			<line class="st0" x1="300" y1="300" x2="299" y2="300"/>
			<line class="st1" x1="295.3" y1="300" x2="52.8" y2="300"/>
			<line class="st0" x1="50.9" y1="300" x2="50" y2="300"/>
		</g>
	</g>
	<g>
		<g>
			<line class="st0" x1="300" y1="300" x2="299.2" y2="299.5"/>
			<line class="st1" x1="296" y1="297.6" x2="85.9" y2="176.4"/>
			<line class="st0" x1="84.3" y1="175.5" x2="83.5" y2="175"/>
		</g>
	</g>
	<g>
		<g>
			<line class="st0" x1="300" y1="300" x2="299.5" y2="299.2"/>
			<line class="st1" x1="297.6" y1="296" x2="176.4" y2="85.9"/>
			<line class="st0" x1="175.5" y1="84.3" x2="175" y2="83.5"/>
		</g>
	</g>
</g>
<g>
	<text transform="matrix(1 0 0 1 271.5091 28.3058)" class="st2 st3 st4">ANIMALS</text>
</g>
<g>
	<text transform="matrix(1 0 0 1 275.5589 581.1749)" class="st2 st3 st4">PEOPLE</text>
</g>
<g>
	<text transform="matrix(1 0 0 1 435.822 64.7198)" class="st2 st3 st4">BODY</text>
</g>
<g>
	<text transform="matrix(1 0 0 1 123.0387 64.7198)" class="st2 st3 st4">OTHER</text>
</g>
<g>
	<text transform="matrix(1 0 0 1 535.2802 164.1783)"><tspan x="0" y="0" class="st2 st3 st4">FLYING</tspan><tspan x="0" y="15.6" class="st2 st3 st4">AND</tspan><tspan x="0" y="31.2" class="st2 st3 st4">FALLING</tspan></text>
</g>
<g>
	<text transform="matrix(1 0 0 1 2.9561 164.6822)"><tspan x="0" y="0" class="st2 st3 st4">WEATHER</tspan><tspan x="13.5" y="15.6" class="st2 st3 st4">EVENTS</tspan></text>
</g>
<g>
	<text transform="matrix(6.123234e-17 -1 1 6.123234e-17 582.5656 318.0333)" class="st2 st3 st4">FOOD</text>
</g>
<g>
	<text transform="matrix(6.123234e-17 -1 1 6.123234e-17 27.8072 328.1144)" class="st2 st3 st4">TRAVELS</text>
</g>
<g>
	<text transform="matrix(1 0 0 1 535.2797 443.4586)" class="st2 st3 st4">MONEY</text>
</g>
<g>
	<text transform="matrix(1 0 0 1 20.9586 443.4586)"><tspan x="0" y="0" class="st2 st3 st4">SUPER-</tspan><tspan x="-13.5" y="15.6" class="st2 st3 st4">NATURAL</tspan></text>
</g>
<g>
	<text transform="matrix(1 0 0 1 436.8304 547.215)" class="st2 st3 st4">NATURE</text>
</g>
<g>
	<text transform="matrix(1 0 0 1 86.2179 547.215)" class="st2 st3 st4">PREGNANCY</text>
</g>
</svg>
