<?xml version="1.0" encoding="utf-8"?>
<!-- Generator: Adobe Illustrator 23.0.2, SVG Export Plug-In . SVG Version: 6.00 Build 0)  -->
<svg version="1.1" id="Livello_1" xmlns="http://www.w3.org/2000/svg" xmlns:xlink="http://www.w3.org/1999/xlink" x="0px" y="0px"
	 viewBox="0 0 266.5 57.4" style="enable-background:new 0 0 266.5 57.4;" xml:space="preserve">
<style type="text/css">
	.st0{fill:url(#SVGID_1_);}
	.st1{fill:#607CBD;}
</style>
<g>
	
		<linearGradient id="SVGID_1_" gradientUnits="userSpaceOnUse" x1="1143.1572" y1="930.484" x2="1228.9578" y2="781.8729" gradientTransform="matrix(2.263869e-02 0.9997 0.9997 -2.263869e-02 -783.8105 -1144.3489)">
		<stop  offset="0" style="stop-color:#E8E8DF"/>
		<stop  offset="0.167" style="stop-color:#DAE8DF"/>
		<stop  offset="0.4789" style="stop-color:#B6E2E7"/>
		<stop  offset="1" style="stop-color:#8993C7"/>
	</linearGradient>
	<path class="st0" d="M0.4,24c-4.3,2.6,45.9,24.1,98.5,22.8c52.6-1,95.8-22.5,97.4-27.2c2.6-7.5-14.4-4.6-14.4-4.6l0,0
		c-4.9,0.5-12.3,0.8-18.5,0.8c-12-0.1-25.8-2.6-36.6-4l-2.5-0.4c-7.9-0.7-17.4-2.2-26.2-2.4C98.1,9,33.3,3.8,0.4,24z"/>
	<g>
		<path class="st1" d="M22.3,18.3c5.6-0.8,11.4-1,17-0.7c5.6,0.3,11.4,1.3,16.8,2.8c2.8,0.7,5.5,1.7,8.1,2.8s5.2,2.3,7.8,3.5
			c2.5,1.2,5.2,2.4,7.9,3.2c2.7,0.9,5.5,1.5,8.3,1.7c-2.8-0.2-5.6-0.8-8.3-1.6s-5.3-2-7.9-3.1c-2.6-1.2-5.2-2.4-7.8-3.4
			c-2.6-1.1-5.3-2-8-2.8c-5.5-1.5-11.1-2.4-16.8-2.7S28,17.9,22.5,18.8L22.3,18.3z"/>
	</g>
	<g>
		<path class="st1" d="M101.1,19.2c1.9,0,3.7,0.5,5.5,1.3c1.7,0.8,3.3,1.8,4.9,2.7s3.3,1.7,5.1,2.2c1.8,0.5,3.7,0.7,5.5,0.8
			c-1.9,0-3.7-0.2-5.5-0.7s-3.5-1.3-5.2-2.1c-1.6-0.9-3.2-1.9-4.9-2.6c-1.7-0.7-3.5-1.2-5.3-1.2L101.1,19.2z"/>
	</g>
	<path class="st1" d="M0.4,24.4c38-13.8,87.3-6.2,124.1-2.2c17.5,1.9,39.6,5.2,59.3,1.3c3.3-0.6,6.5-1.4,9.6-2.5
		c1-0.3,1.9-0.7,2.8-1c-20.8,8.4-58.6,4.3-77.5,0.1c-23.4-5.1-53-6.7-78.7-4.3C26.5,17,10.8,20.5,0.4,24.4"/>
</g>
</svg>
