<?xml version="1.0" encoding="utf-8"?>
<!-- Generator: Adobe Illustrator 23.0.2, SVG Export Plug-In . SVG Version: 6.00 Build 0)  -->
<svg version="1.1" id="Livello_1" xmlns="http://www.w3.org/2000/svg" xmlns:xlink="http://www.w3.org/1999/xlink" x="0px" y="0px"
	 viewBox="0 0 266.5 57.4" style="enable-background:new 0 0 266.5 57.4;" xml:space="preserve">
<style type="text/css">
	.st0{fill:url(#SVGID_1_);}
	.st1{fill:#607CBD;}
</style>
<g>
	
		<linearGradient id="SVGID_1_" gradientUnits="userSpaceOnUse" x1="1170.7247" y1="884.9082" x2="1227.6085" y2="786.3825" gradientTransform="matrix(2.263869e-02 0.9997 0.9997 -2.263869e-02 -796.7876 -1157.036)">
		<stop  offset="0" style="stop-color:#E8E8DF"/>
		<stop  offset="0.167" style="stop-color:#DAE8DF"/>
		<stop  offset="0.4789" style="stop-color:#B6E2E7"/>
		<stop  offset="1" style="stop-color:#8993C7"/>
	</linearGradient>
	<path class="st0" d="M0.4,24.2c-2.8,1.7,30.4,16,65.3,15.1c34.9-0.7,63.5-14.9,64.6-18c1.7-5-9.5-3-9.5-3l0,0
		c-3.3,0.3-8.1,0.5-12.3,0.5c-7.9,0-17.1-1.7-24.3-2.7l-1.7-0.3c-5.3-0.5-11.6-1.5-17.4-1.6C65.1,14.2,22.2,10.8,0.4,24.2z"/>
	<g>
		<path class="st1" d="M14.9,20.3c3.8-0.5,7.6-0.7,11.3-0.4c3.8,0.2,7.5,0.8,11.1,1.9c1.8,0.5,3.6,1.1,5.4,1.9s3.4,1.5,5.2,2.3
			c1.7,0.8,3.4,1.6,5.2,2.1c1.8,0.6,3.6,1,5.5,1.1c-1.9-0.1-3.7-0.5-5.5-1.1c-1.8-0.5-3.5-1.3-5.3-2.1c-1.7-0.8-3.4-1.6-5.2-2.3
			c-1.7-0.7-3.5-1.3-5.3-1.8c-3.6-1-7.3-1.6-11.1-1.8c-3.8-0.2-7.5,0-11.2,0.5L14.9,20.3z"/>
	</g>
	<g>
		<path class="st1" d="M67.1,20.9c1.2,0,2.5,0.3,3.6,0.9c1.1,0.5,2.2,1.2,3.3,1.8c1.1,0.6,2.2,1.1,3.4,1.5c1.2,0.3,2.4,0.5,3.7,0.5
			c-1.2,0-2.5-0.1-3.7-0.4c-1.2-0.4-2.4-0.9-3.4-1.4c-1.1-0.6-2.1-1.2-3.3-1.7c-1.1-0.5-2.3-0.8-3.5-0.8L67.1,20.9z"/>
	</g>
	<path class="st1" d="M0.4,24.4c25.1-9.2,57.8-4.1,82.2-1.5c11.6,1.2,26.3,3.4,39.3,0.9c2.2-0.4,4.3-0.9,6.4-1.6
		c0.6-0.2,1.2-0.4,1.9-0.7c-13.8,5.6-38.8,2.8-51.3,0.1c-15.6-3.4-35.2-4.5-52.3-2.9C17.7,19.5,7.3,21.8,0.4,24.4"/>
</g>
</svg>
