<?xml version="1.0" encoding="utf-8"?>
<!-- Generator: Adobe Illustrator 23.0.2, SVG Export Plug-In . SVG Version: 6.00 Build 0)  -->
<svg version="1.1" id="Livello_1" xmlns="http://www.w3.org/2000/svg" xmlns:xlink="http://www.w3.org/1999/xlink" x="0px" y="0px"
	 viewBox="0 0 266.5 57.4" style="enable-background:new 0 0 266.5 57.4;" xml:space="preserve">
<style type="text/css">
	.st0{fill:url(#SVGID_1_);}
	.st1{fill:#607CBD;}
</style>
<linearGradient id="SVGID_1_" gradientUnits="userSpaceOnUse" x1="1004.066" y1="-403.9833" x2="1118.8622" y2="-205.1504" gradientTransform="matrix(2.263869e-02 0.9997 -0.9997 2.263869e-02 -196.2358 -1033.069)">
	<stop  offset="0" style="stop-color:#E8E8DF"/>
	<stop  offset="0.167" style="stop-color:#DAE8DF"/>
	<stop  offset="0.4789" style="stop-color:#B6E2E7"/>
	<stop  offset="1" style="stop-color:#8993C7"/>
</linearGradient>
<path class="st0" d="M0.4,23.9c-5.7,3.5,61.4,32.2,131.8,30.5C202.6,53,260.3,24.3,262.5,18c3.5-10-19.2-6.1-19.2-6.1l0,0
	c-6.6,0.7-16.4,1.1-24.8,1.1c-16-0.1-34.5-3.5-49-5.4L166.1,7c-10.6-0.9-23.3-2.9-35-3.2C131.1,3.8,44.5-3.1,0.4,23.9z"/>
<g>
	<path class="st1" d="M29.8,16.2c7.5-1.1,15.2-1.4,22.8-0.9S67.7,17,75,19.1c3.7,1,7.3,2.3,10.8,3.8s6.9,3.1,10.4,4.7
		c3.4,1.6,6.9,3.2,10.5,4.3c3.6,1.2,7.3,2,11.1,2.3c-3.8-0.3-7.5-1.1-11.1-2.2c-3.6-1.1-7.1-2.7-10.6-4.2c-3.5-1.6-6.9-3.2-10.4-4.6
		c-3.5-1.5-7.1-2.7-10.7-3.7c-7.3-2-14.8-3.2-22.4-3.6S37.4,15.8,30,17L29.8,16.2z"/>
</g>
<g>
	<path class="st1" d="M135.1,17.4c2.5,0,5,0.7,7.3,1.8s4.4,2.4,6.6,3.6c2.2,1.2,4.4,2.3,6.8,3c2.4,0.7,4.9,1,7.4,1.1
		c-2.5,0-5-0.3-7.4-0.9c-2.4-0.7-4.7-1.7-6.9-2.8c-2.2-1.2-4.3-2.5-6.6-3.5s-4.7-1.6-7.1-1.6L135.1,17.4z"/>
</g>
<path class="st1" d="M0.4,24.4c50.8-18.5,116.8-8.3,165.9-3c23.4,2.5,53,6.9,79.3,1.8c4.4-0.8,8.7-1.9,12.9-3.3
	c1.3-0.4,2.5-0.9,3.8-1.4c-27.8,11.3-78.4,5.7-103.6,0.2c-31.3-6.8-70.9-9-105.3-5.8C35.4,14.5,14.4,19.2,0.4,24.4"/>
</svg>
