<?xml version="1.0" encoding="utf-8"?>
<!-- Generator: Adobe Illustrator 23.0.2, SVG Export Plug-In . SVG Version: 6.00 Build 0)  -->
<svg version="1.1" id="Livello_1" xmlns="http://www.w3.org/2000/svg" xmlns:xlink="http://www.w3.org/1999/xlink" x="0px" y="0px"
	 viewBox="0 0 266.5 57.4" style="enable-background:new 0 0 266.5 57.4;" xml:space="preserve">
<style type="text/css">
	.st0{fill:url(#SVGID_1_);}
	.st1{fill:#607CBD;}
</style>
<g>
	
		<linearGradient id="SVGID_1_" gradientUnits="userSpaceOnUse" x1="1122.8793" y1="962.9368" x2="1227.9706" y2="780.9133" gradientTransform="matrix(2.263869e-02 0.9997 0.9997 -2.263869e-02 -777.1244 -1133.8809)">
		<stop  offset="0" style="stop-color:#E8E8DF"/>
		<stop  offset="0.167" style="stop-color:#DAE8DF"/>
		<stop  offset="0.4789" style="stop-color:#B6E2E7"/>
		<stop  offset="1" style="stop-color:#8993C7"/>
	</linearGradient>
	<path class="st0" d="M0.4,23.9c-5.2,3.2,56.2,29.5,120.7,28c64.5-1.3,117.3-27.6,119.3-33.3c3.2-9.2-17.6-5.6-17.6-5.6l0,0
		c-6,0.6-15,1-22.7,1c-14.7-0.1-31.6-3.2-44.9-4.9l-3.1-0.5c-9.6-1-21.3-2.8-32-3.1C120.1,5.5,40.8-0.8,0.4,23.9z"/>
	<g>
		<path class="st1" d="M27.3,16.9c6.9-1,13.9-1.3,20.9-0.8c7,0.5,13.8,1.6,20.5,3.5c3.4,0.9,6.7,2.1,9.9,3.5
			c3.2,1.4,6.3,2.8,9.5,4.3c3.1,1.5,6.3,2.9,9.6,3.9c3.3,1.1,6.7,1.8,10.2,2.1c-3.5-0.3-6.9-1-10.2-2c-3.3-1-6.5-2.5-9.7-3.8
			c-3.2-1.5-6.3-2.9-9.5-4.2C75.3,22,72,20.9,68.7,20c-6.7-1.8-13.6-2.9-20.5-3.3c-7-0.4-13.9-0.1-20.7,1L27.3,16.9z"/>
	</g>
	<g>
		<path class="st1" d="M123.8,18c2.3,0,4.6,0.6,6.7,1.6c2.1,1,4,2.2,6,3.3s4,2.1,6.2,2.7s4.5,0.9,6.8,1c-2.3,0-4.6-0.3-6.8-0.8
			c-2.2-0.6-4.3-1.6-6.3-2.6c-2-1.1-3.9-2.3-6-3.2c-2.1-0.9-4.3-1.5-6.5-1.5L123.8,18z"/>
	</g>
	<path class="st1" d="M0.4,24.4c46.5-16.9,107-7.6,152-2.7c21.4,2.3,48.5,6.3,72.6,1.6c4-0.7,8-1.7,11.8-3c1.2-0.4,2.3-0.8,3.5-1.3
		c-25.5,10.3-71.8,5.2-94.9,0.2C116.7,13,80.5,11,49,13.9C32.5,15.3,13.2,19.6,0.4,24.4"/>
</g>
</svg>
