<?xml version="1.0" encoding="utf-8"?>
<!-- Generator: Adobe Illustrator 23.0.2, SVG Export Plug-In . SVG Version: 6.00 Build 0)  -->
<svg version="1.1" id="Livello_1" xmlns="http://www.w3.org/2000/svg" xmlns:xlink="http://www.w3.org/1999/xlink" x="0px" y="0px"
	 viewBox="0 0 266.5 57.4" style="enable-background:new 0 0 266.5 57.4;" xml:space="preserve">
<style type="text/css">
	.st0{fill:url(#SVGID_1_);}
	.st1{fill:#607CBD;}
</style>
<g>
	
		<linearGradient id="SVGID_1_" gradientUnits="userSpaceOnUse" x1="1198.1221" y1="839.1984" x2="1226.0486" y2="790.8281" gradientTransform="matrix(2.263869e-02 0.9997 0.9997 -2.263869e-02 -809.7646 -1169.723)">
		<stop  offset="0" style="stop-color:#E8E8DF"/>
		<stop  offset="0.167" style="stop-color:#DAE8DF"/>
		<stop  offset="0.4789" style="stop-color:#B6E2E7"/>
		<stop  offset="1" style="stop-color:#8993C7"/>
	</linearGradient>
	<path class="st0" d="M0.4,24.2C-1,25.1,15.3,32,32.5,31.6c17.1-0.3,31.2-7.3,31.7-8.9c0.9-2.4-4.7-1.5-4.7-1.5l0,0
		c-1.6,0.2-4,0.3-6,0.3c-3.9,0-8.4-0.9-11.9-1.3l-0.9-0.1c-2.6-0.2-5.7-0.7-8.5-0.8C32.2,19.3,11.1,17.6,0.4,24.2z"/>
	<g>
		<path class="st1" d="M7.5,22.3C9.3,22,11.2,22,13,22.1c1.8,0.1,3.7,0.4,5.4,0.9c0.9,0.2,1.8,0.6,2.6,0.9c0.9,0.4,1.7,0.8,2.5,1.1
			c0.8,0.4,1.7,0.8,2.6,1c0.9,0.3,1.8,0.5,2.7,0.6c-0.9-0.1-1.8-0.3-2.7-0.5c-0.9-0.3-1.7-0.7-2.6-1c-0.9-0.4-1.7-0.8-2.5-1.1
			c-0.7-0.4-1.6-0.6-2.5-0.9c-1.8-0.5-3.6-0.8-5.4-0.9s-3.7,0-5.5,0.3L7.5,22.3z"/>
	</g>
	<g>
		<path class="st1" d="M33.2,22.6c0.6,0,1.2,0.2,1.8,0.4c0.6,0.3,1.1,0.6,1.6,0.9c0.5,0.3,1.1,0.6,1.7,0.7c0.6,0.2,1.2,0.2,1.8,0.3
			c-0.6,0-1.2-0.1-1.8-0.2c-0.6-0.2-1.1-0.4-1.7-0.7c-0.5-0.3-1-0.6-1.6-0.9c-0.6-0.2-1.1-0.4-1.7-0.4L33.2,22.6z"/>
	</g>
	<path class="st1" d="M0.4,24.3c12.4-4.5,28.4-2,40.4-0.7c5.7,0.6,12.9,1.7,19.3,0.4c1.1-0.2,2.1-0.5,3.1-0.8
		c0.3-0.1,0.6-0.2,0.9-0.3c-6.8,2.7-19.1,1.4-25.2,0c-7.6-1.6-17.3-2.2-25.6-1.4C8.9,21.9,3.8,23,0.4,24.3"/>
</g>
</svg>
