<?xml version="1.0" encoding="utf-8"?>
<!-- Generator: Adobe Illustrator 23.0.2, SVG Export Plug-In . SVG Version: 6.00 Build 0)  -->
<svg version="1.1" id="Livello_1" xmlns="http://www.w3.org/2000/svg" xmlns:xlink="http://www.w3.org/1999/xlink" x="0px" y="0px"
	 viewBox="0 0 266.5 57.4" style="enable-background:new 0 0 266.5 57.4;" xml:space="preserve">
<style type="text/css">
	.st0{fill:url(#SVGID_1_);}
	.st1{fill:#607CBD;}
</style>
<g>
	
		<linearGradient id="SVGID_1_" gradientUnits="userSpaceOnUse" x1="1132.0673" y1="947.7697" x2="1227.5391" y2="782.4078" gradientTransform="matrix(2.263869e-02 0.9997 0.9997 -2.263869e-02 -781.45 -1138.1099)">
		<stop  offset="0" style="stop-color:#E8E8DF"/>
		<stop  offset="0.167" style="stop-color:#DAE8DF"/>
		<stop  offset="0.4789" style="stop-color:#B6E2E7"/>
		<stop  offset="1" style="stop-color:#8993C7"/>
	</linearGradient>
	<path class="st0" d="M0.4,24C-4.3,26.9,51.5,50.8,110,49.4c58.6-1.2,106.6-25,108.4-30.3c2.9-8.3-16-5.1-16-5.1l0,0
		c-5.5,0.6-13.6,0.9-20.6,0.9c-13.3-0.1-28.7-2.9-40.8-4.5l-2.8-0.5c-8.8-0.7-19.4-2.4-29.1-2.7C109.1,7.3,37.1,1.5,0.4,24z"/>
	<g>
		<path class="st1" d="M24.8,17.6c6.2-0.9,12.6-1.2,19-0.7c6.3,0.4,12.6,1.4,18.6,3.2c3.1,0.8,6.1,1.9,9,3.2
			c2.9,1.2,5.7,2.6,8.7,3.9c2.8,1.3,5.7,2.7,8.7,3.6c3,1,6.1,1.7,9.2,1.9c-3.2-0.2-6.2-0.9-9.2-1.8s-5.9-2.2-8.8-3.5
			s-5.7-2.7-8.7-3.8c-2.9-1.2-5.9-2.2-8.9-3.1c-6.1-1.7-12.3-2.7-18.6-3c-6.3-0.3-12.6-0.1-18.8,0.9L24.8,17.6z"/>
	</g>
	<g>
		<path class="st1" d="M112.4,18.6c2.1,0,4.2,0.6,6.1,1.5s3.7,2,5.5,3s3.7,1.9,5.7,2.5c2,0.6,4.1,0.8,6.2,0.9
			c-2.1,0-4.2-0.2-6.2-0.7c-2-0.6-3.9-1.4-5.7-2.3c-1.8-1-3.6-2.1-5.5-2.9c-1.9-0.8-3.9-1.3-5.9-1.3L112.4,18.6z"/>
	</g>
	<path class="st1" d="M0.4,24.4c42.3-15.4,97.2-6.9,138-2.5c19.5,2.1,44.1,5.7,66,1.5c3.7-0.7,7.2-1.6,10.7-2.7
		c1.1-0.3,2.1-0.7,3.2-1.2c-23.1,9.4-65.2,4.7-86.2,0.2c-26-5.7-59-7.5-87.6-4.8C29.5,16.2,12,20.1,0.4,24.4"/>
</g>
</svg>
