<?xml version="1.0" encoding="utf-8"?>
<!-- Generator: Adobe Illustrator 23.0.2, SVG Export Plug-In . SVG Version: 6.00 Build 0)  -->
<svg version="1.1" id="Livello_1" xmlns="http://www.w3.org/2000/svg" xmlns:xlink="http://www.w3.org/1999/xlink" x="0px" y="0px"
	 viewBox="0 0 266.5 57.4" style="enable-background:new 0 0 266.5 57.4;" xml:space="preserve">
<style type="text/css">
	.st0{fill:url(#SVGID_1_);}
	.st1{fill:#607CBD;}
</style>
<g>
	
		<linearGradient id="SVGID_1_" gradientUnits="userSpaceOnUse" x1="1180.0088" y1="869.4279" x2="1227.0764" y2="787.9044" gradientTransform="matrix(2.263869e-02 0.9997 0.9997 -2.263869e-02 -801.178 -1161.3282)">
		<stop  offset="0" style="stop-color:#E8E8DF"/>
		<stop  offset="0.167" style="stop-color:#DAE8DF"/>
		<stop  offset="0.4789" style="stop-color:#B6E2E7"/>
		<stop  offset="1" style="stop-color:#8993C7"/>
	</linearGradient>
	<path class="st0" d="M0.4,24.2c-2.3,1.4,25.2,13.2,54.1,12.5c28.9-0.6,52.5-12.3,53.4-14.9c1.4-4.1-7.9-2.5-7.9-2.5l0,0
		c-2.6,0.2-6.7,0.4-10.1,0.4c-6.6,0-14.2-1.4-20.1-2.2l-1.4-0.2c-4.3-0.4-9.6-1.2-14.4-1.3C54,15.9,18.5,13.1,0.4,24.2z"/>
	<g>
		<path class="st1" d="M12.5,21c3.1-0.4,6.2-0.6,9.4-0.4c3.1,0.2,6.2,0.7,9.2,1.6c1.5,0.4,3,0.9,4.4,1.6c1.4,0.7,2.8,1.3,4.3,1.9
			c1.4,0.7,2.8,1.3,4.3,1.8s3,0.8,4.6,0.9c-1.6-0.1-3.1-0.5-4.6-0.9c-1.5-0.5-2.9-1.1-4.3-1.7c-1.4-0.7-2.8-1.3-4.3-1.9
			c-1.4-0.6-2.9-1.1-4.4-1.5c-3-0.8-6.1-1.3-9.2-1.5c-3.1-0.2-6.2,0-9.3,0.5L12.5,21z"/>
	</g>
	<g>
		<path class="st1" d="M55.7,21.5c1,0,2.1,0.3,3,0.7c0.9,0.5,1.8,1,2.7,1.5c0.9,0.5,1.8,0.9,2.8,1.2c1,0.3,2,0.4,3,0.5
			c-1,0-2.1-0.1-3-0.4c-1-0.3-1.9-0.7-2.8-1.1c-0.9-0.5-1.8-1-2.7-1.4s-1.9-0.7-2.9-0.7L55.7,21.5z"/>
	</g>
	<path class="st1" d="M0.4,24.4c20.9-7.6,47.9-3.4,68.1-1.3c9.6,1,21.7,2.8,32.5,0.7c1.8-0.3,3.6-0.8,5.3-1.4c0.5-0.2,1-0.4,1.6-0.6
		c-11.4,4.8-32.2,2.5-42.5,0.2c-12.9-2.8-29.1-3.7-43.2-2.3C14.8,20.3,6.2,22.2,0.4,24.4"/>
</g>
</svg>
