<?xml version="1.0" encoding="utf-8"?>
<!-- Generator: Adobe Illustrator 23.0.2, SVG Export Plug-In . SVG Version: 6.00 Build 0)  -->
<svg version="1.1" id="Livello_1" xmlns="http://www.w3.org/2000/svg" xmlns:xlink="http://www.w3.org/1999/xlink" x="0px" y="0px"
	 viewBox="0 0 266.5 57.4" style="enable-background:new 0 0 266.5 57.4;" xml:space="preserve">
<style type="text/css">
	.st0{fill:url(#SVGID_1_);}
	.st1{fill:#607CBD;}
</style>
<g>
	
		<linearGradient id="SVGID_1_" gradientUnits="userSpaceOnUse" x1="1161.4646" y1="900.1669" x2="1228.0272" y2="784.8769" gradientTransform="matrix(2.263869e-02 0.9997 0.9997 -2.263869e-02 -792.4493 -1152.7946)">
		<stop  offset="0" style="stop-color:#E8E8DF"/>
		<stop  offset="0.167" style="stop-color:#DAE8DF"/>
		<stop  offset="0.4789" style="stop-color:#B6E2E7"/>
		<stop  offset="1" style="stop-color:#8993C7"/>
	</linearGradient>
	<path class="st0" d="M0.4,24.1c-3.3,2,35.6,18.7,76.4,17.7c40.8-0.8,74.3-17.5,75.6-21.1c2-5.8-11.1-3.5-11.1-3.5l0,0
		c-3.8,0.4-9.5,0.6-14.4,0.6c-9.3-0.1-20-2-28.4-3.1l-2-0.3c-6.2-0.6-13.5-1.8-20.3-1.9C76.2,12.5,26,8.5,0.4,24.1z"/>
	<g>
		<path class="st1" d="M17.4,19.6c4.3-0.6,8.8-0.8,13.2-0.5c4.4,0.3,8.8,1,13,2.2c2.1,0.6,4.2,1.3,6.3,2.2c2,0.9,4,1.8,6,2.7
			s4,1.9,6.1,2.5c2.1,0.7,4.2,1.2,6.4,1.3c-2.2-0.2-4.3-0.6-6.4-1.3c-2.1-0.6-4.1-1.6-6.1-2.4c-2-0.9-4-1.9-6-2.7
			c-2-0.9-4.1-1.6-6.2-2.1c-4.2-1.2-8.6-1.9-13-2.1c-4.4-0.2-8.8-0.1-13.1,0.6L17.4,19.6z"/>
	</g>
	<g>
		<path class="st1" d="M78.5,20.3c1.4,0,2.9,0.4,4.2,1s2.6,1.4,3.8,2.1c1.3,0.7,2.6,1.3,3.9,1.7c1.4,0.4,2.8,0.6,4.3,0.6
			c-1.4,0-2.9-0.2-4.3-0.5c-1.4-0.4-2.7-1-4-1.6c-1.3-0.7-2.5-1.4-3.8-2s-2.7-0.9-4.1-0.9V20.3z"/>
	</g>
	<path class="st1" d="M0.4,24.4c29.5-10.7,67.7-4.8,96.2-1.7c13.6,1.4,30.7,4,46,1c2.6-0.5,5-1.1,7.5-1.9c0.8-0.2,1.4-0.5,2.2-0.8
		c-16.1,6.6-45.5,3.3-60.1,0.1c-18.2-3.9-41.1-5.2-61.1-3.4C20.7,18.7,8.5,21.4,0.4,24.4"/>
</g>
</svg>
