<?xml version="1.0" encoding="utf-8"?>
<!-- Generator: Adobe Illustrator 23.0.2, SVG Export Plug-In . SVG Version: 6.00 Build 0)  -->
<svg version="1.1" id="Livello_1" xmlns="http://www.w3.org/2000/svg" xmlns:xlink="http://www.w3.org/1999/xlink" x="0px" y="0px"
	 viewBox="0 0 266.5 57.4" style="enable-background:new 0 0 266.5 57.4;" xml:space="preserve">
<style type="text/css">
	.st0{fill:url(#SVGID_1_);}
	.st1{fill:#607CBD;}
</style>
<g>
	
		<linearGradient id="SVGID_1_" gradientUnits="userSpaceOnUse" x1="1188.9866" y1="854.4301" x2="1226.5533" y2="789.3625" gradientTransform="matrix(2.263869e-02 0.9997 0.9997 -2.263869e-02 -805.439 -1165.494)">
		<stop  offset="0" style="stop-color:#E8E8DF"/>
		<stop  offset="0.167" style="stop-color:#DAE8DF"/>
		<stop  offset="0.4789" style="stop-color:#B6E2E7"/>
		<stop  offset="1" style="stop-color:#8993C7"/>
	</linearGradient>
	<path class="st0" d="M0.4,24.2c-1.9,1.1,20.1,10.5,43.1,10s41.9-9.9,42.7-11.9c1.1-3.3-6.3-2-6.3-2l0,0c-2.2,0.2-5.4,0.4-8.1,0.4
		c-5.2,0-11.3-1.1-16-1.8l-1.1-0.2c-3.5-0.3-7.6-0.9-11.5-1C43.2,17.7,14.8,15.4,0.4,24.2z"/>
	<g>
		<path class="st1" d="M10,21.7c2.5-0.4,5-0.5,7.5-0.3c2.5,0.2,4.9,0.6,7.3,1.2c1.2,0.3,2.4,0.8,3.5,1.2s2.3,1,3.4,1.5
			s2.3,1,3.4,1.4c1.2,0.4,2.4,0.7,3.6,0.8c-1.2-0.1-2.5-0.4-3.6-0.7c-1.1-0.3-2.3-0.9-3.5-1.4c-1.1-0.5-2.3-1-3.4-1.5
			s-2.3-0.9-3.5-1.2c-2.4-0.7-4.8-1-7.3-1.2c-2.5-0.2-5,0-7.4,0.4L10,21.7z"/>
	</g>
	<g>
		<path class="st1" d="M44.5,22.1c0.8,0,1.6,0.2,2.4,0.6c0.8,0.4,1.4,0.8,2.2,1.2c0.7,0.4,1.4,0.8,2.2,1c0.8,0.2,1.6,0.3,2.4,0.4
			c-0.8,0-1.6-0.1-2.4-0.3c-0.8-0.2-1.5-0.6-2.3-0.9c-0.7-0.4-1.4-0.8-2.2-1.1c-0.8-0.3-1.5-0.5-2.3-0.5L44.5,22.1z"/>
	</g>
	<path class="st1" d="M0.4,24.4c16.6-6.1,38.2-2.7,54.3-1c7.7,0.8,17.3,2.3,26,0.6c1.4-0.3,2.8-0.6,4.2-1.1c0.4-0.1,0.8-0.3,1.2-0.5
		c-9.1,3.7-25.7,1.9-33.9,0.1C42,20.3,29,19.6,17.8,20.6C11.9,21.2,5,22.7,0.4,24.4"/>
</g>
</svg>
