<?xml version="1.0" encoding="utf-8"?>
<!-- Generator: Adobe Illustrator 21.1.0, SVG Export Plug-In . SVG Version: 6.00 Build 0)  -->
<svg version="1.1" id="Layer_1" xmlns="http://www.w3.org/2000/svg" xmlns:xlink="http://www.w3.org/1999/xlink" x="0px" y="0px"
	 viewBox="0 0 348 499.1" style="enable-background:new 0 0 348 499.1;" xml:space="preserve">
<style type="text/css">
	.st0{fill:#FFFFFF;}
	.st1{fill:#FFDCDB;}
</style>
<title>legende-per-svg</title>
<g id="Livello_1">
	<rect x="45.8" y="30" class="st0" width="61.6" height="1"/>
	<rect x="110.8" y="30" class="st0" width="61.6" height="1"/>
	<rect x="175.7" y="30" class="st0" width="61.6" height="1"/>
	<rect x="240.6" y="30" class="st0" width="61.6" height="1"/>
	<path class="st1" d="M90.3,97.6h-3.8v9.7h-1.1v-9.7h-3.8v-0.9h8.6V97.6z"/>
	<path class="st1" d="M98.2,107.3h-1V103c0-0.7-0.1-1.4-0.5-2c-0.3-0.4-0.8-0.7-1.3-0.7c-0.3,0-0.6,0.1-0.9,0.2
		c-0.3,0.1-0.6,0.3-0.8,0.5c-0.3,0.2-0.5,0.4-0.7,0.7c-0.2,0.3-0.3,0.6-0.4,0.9v4.8h-1v-11h1v4.9c0.3-0.6,0.7-1.1,1.3-1.4
		c0.5-0.3,1.2-0.5,1.8-0.5c0.4,0,0.8,0.1,1.2,0.2c0.3,0.2,0.6,0.4,0.8,0.7c0.2,0.3,0.4,0.7,0.4,1.1c0.1,0.4,0.1,0.9,0.1,1.4
		L98.2,107.3z"/>
	<path class="st1" d="M100.4,97.9v-1.5h1v1.5H100.4z M100.4,107.3v-7.8h1v7.8H100.4z"/>
	<path class="st1" d="M106.3,107.5c-0.6,0-1.2-0.1-1.8-0.3c-0.6-0.2-1.1-0.5-1.5-0.9l0.5-0.7c0.4,0.3,0.9,0.6,1.3,0.8
		c0.5,0.2,1,0.3,1.5,0.3c0.5,0,1.1-0.1,1.5-0.4c0.4-0.2,0.6-0.7,0.6-1.1c0-0.2-0.1-0.4-0.2-0.5c-0.1-0.2-0.3-0.3-0.4-0.4
		c-0.2-0.1-0.5-0.2-0.7-0.3l-1-0.3c-0.4-0.1-0.8-0.2-1.2-0.3c-0.3-0.1-0.6-0.2-0.8-0.4c-0.2-0.1-0.4-0.3-0.5-0.5
		c-0.1-0.2-0.2-0.5-0.2-0.8c0-0.3,0.1-0.7,0.2-1c0.1-0.3,0.4-0.5,0.6-0.7c0.3-0.2,0.6-0.4,0.9-0.4c0.4-0.1,0.7-0.2,1.1-0.2
		c0.6,0,1.1,0.1,1.6,0.3c0.4,0.2,0.8,0.4,1.2,0.8l-0.5,0.6c-0.3-0.3-0.6-0.5-1-0.7c-0.4-0.1-0.9-0.2-1.3-0.2c-0.3,0-0.5,0-0.8,0.1
		c-0.2,0.1-0.4,0.1-0.6,0.3c-0.2,0.1-0.3,0.3-0.4,0.5c-0.1,0.2-0.2,0.4-0.2,0.7c0,0.2,0,0.4,0.1,0.5c0.1,0.1,0.2,0.3,0.3,0.3
		c0.2,0.1,0.4,0.2,0.6,0.3c0.2,0.1,0.5,0.2,0.9,0.2s0.9,0.2,1.3,0.4c0.4,0.1,0.7,0.2,1,0.4c0.2,0.1,0.4,0.3,0.6,0.6
		c0.1,0.3,0.2,0.5,0.2,0.8c0,0.7-0.3,1.3-0.8,1.7C107.9,107.3,107.1,107.5,106.3,107.5z"/>
	<path class="st1" d="M118.8,107.5c-0.6,0-1.2-0.2-1.7-0.5c-0.5-0.3-0.9-0.8-1.2-1.3v4.8h-1v-11h0.9v1.5c0.3-0.5,0.7-0.9,1.2-1.2
		c0.5-0.3,1.1-0.5,1.7-0.5c0.5,0,1,0.1,1.5,0.3c0.4,0.2,0.8,0.5,1.2,0.9c0.3,0.4,0.6,0.8,0.8,1.3c0.2,0.5,0.3,1,0.3,1.5
		c0,0.5-0.1,1.1-0.3,1.6c-0.2,0.5-0.4,0.9-0.7,1.3c-0.3,0.4-0.7,0.7-1.1,0.9C119.8,107.4,119.3,107.5,118.8,107.5z M118.5,106.6
		c0.4,0,0.8-0.1,1.2-0.3c0.3-0.2,0.6-0.4,0.9-0.7c0.2-0.3,0.4-0.6,0.6-1c0.1-0.4,0.2-0.8,0.2-1.2c0-0.8-0.3-1.6-0.8-2.2
		c-0.3-0.3-0.6-0.5-0.9-0.7c-0.4-0.2-0.8-0.3-1.2-0.3c-0.3,0-0.6,0.1-0.8,0.2c-0.3,0.1-0.5,0.2-0.8,0.4c-0.2,0.2-0.5,0.4-0.6,0.6
		c-0.2,0.2-0.3,0.5-0.3,0.7v2.4c0.1,0.3,0.3,0.5,0.5,0.8c0.2,0.2,0.4,0.4,0.6,0.6c0.2,0.2,0.5,0.3,0.8,0.4
		C118,106.5,118.2,106.6,118.5,106.6z"/>
	<path class="st1" d="M128,100.4c-0.6,0-1.3,0.2-1.8,0.6c-0.5,0.4-0.9,0.9-1.1,1.5v4.9h-1v-7.8h1v1.9c0.3-0.6,0.7-1.1,1.2-1.4
		c0.5-0.3,1-0.5,1.6-0.5h0.2L128,100.4z"/>
	<path class="st1" d="M132.3,107.5c-0.5,0-1.1-0.1-1.6-0.3c-0.5-0.2-0.9-0.5-1.2-0.9c-0.3-0.4-0.6-0.8-0.8-1.3
		c-0.2-0.5-0.3-1-0.3-1.5c0-0.5,0.1-1.1,0.3-1.6c0.4-1,1.1-1.7,2-2.2c1-0.4,2.1-0.4,3.1,0c0.5,0.2,0.9,0.5,1.2,0.9
		c0.7,0.8,1.1,1.8,1.1,2.8c0,0.5-0.1,1-0.3,1.5c-0.2,0.5-0.5,0.9-0.8,1.3C134.3,107,133.3,107.5,132.3,107.5L132.3,107.5z
		 M129.4,103.5c0,0.4,0.1,0.8,0.2,1.2c0.1,0.4,0.3,0.7,0.6,1c0.3,0.3,0.6,0.5,0.9,0.7c0.3,0.2,0.7,0.2,1.1,0.2
		c0.4,0,0.8-0.1,1.1-0.2c0.3-0.2,0.7-0.4,0.9-0.7c0.3-0.3,0.5-0.6,0.6-1c0.3-0.8,0.3-1.7,0-2.4c-0.1-0.4-0.3-0.7-0.6-1
		c-0.3-0.3-0.6-0.5-0.9-0.7c-0.3-0.2-0.7-0.2-1.1-0.2c-0.4,0-0.8,0.1-1.1,0.2c-0.3,0.2-0.6,0.4-0.9,0.7c-0.3,0.3-0.5,0.6-0.6,1
		C129.5,102.6,129.4,103,129.4,103.5L129.4,103.5z"/>
	<path class="st1" d="M136.7,110c-0.3,0-0.6,0-0.9-0.1c-0.3-0.1-0.6-0.2-0.8-0.4l0.5-0.7c0.1,0.1,0.3,0.2,0.5,0.3
		c0.2,0,0.4,0.1,0.6,0.1c0.2,0,0.4,0,0.5-0.1c0.3-0.1,0.6-0.4,0.8-0.7c0.1-0.2,0.1-0.4,0.1-0.6v-8.2h1v8.2c0,0.6-0.3,1.3-0.7,1.7
		c-0.2,0.2-0.5,0.4-0.7,0.5C137.3,110,137,110,136.7,110z M138,97.9v-1.5h1v1.5H138z"/>
	<path class="st1" d="M144.6,107.5c-0.5,0-1.1-0.1-1.6-0.3c-0.5-0.2-0.9-0.5-1.2-0.9c-0.3-0.4-0.6-0.8-0.8-1.3
		c-0.2-0.5-0.3-1-0.3-1.6c0-0.5,0.1-1.1,0.3-1.6c0.2-0.5,0.5-0.9,0.8-1.3c0.3-0.4,0.8-0.7,1.2-0.9c1-0.4,2.1-0.4,3.1,0
		c0.5,0.2,0.9,0.5,1.2,0.9c0.7,0.8,1.1,1.8,1.1,2.8v0.2c0,0.1,0,0.1,0,0.2h-6.7c0,0.4,0.1,0.8,0.3,1.2c0.2,0.3,0.4,0.7,0.6,0.9
		c0.3,0.3,0.6,0.5,0.9,0.6c0.6,0.2,1.2,0.3,1.8,0.1c0.2-0.1,0.5-0.2,0.7-0.3c0.2-0.1,0.4-0.3,0.6-0.4c0.2-0.2,0.3-0.4,0.4-0.6
		l0.9,0.2c-0.1,0.3-0.3,0.6-0.5,0.8c-0.2,0.2-0.5,0.4-0.8,0.6c-0.3,0.2-0.6,0.3-1,0.4C145.3,107.4,145,107.5,144.6,107.5z
		 M147.5,103c0-0.4-0.1-0.8-0.3-1.1c-0.2-0.3-0.4-0.6-0.6-0.9c-0.3-0.2-0.6-0.4-0.9-0.6c-0.3-0.1-0.7-0.2-1.1-0.2
		c-0.4,0-0.7,0.1-1.1,0.2c-0.3,0.1-0.6,0.3-0.9,0.6c-0.3,0.3-0.5,0.6-0.6,0.9c-0.2,0.4-0.3,0.7-0.3,1.1H147.5z"/>
	<path class="st1" d="M149.5,103.4c0-0.5,0.1-1.1,0.3-1.6c0.3-1,1.1-1.7,2-2.1c0.5-0.2,1-0.3,1.6-0.3c0.7,0,1.3,0.2,1.9,0.5
		c0.5,0.3,1,0.8,1.2,1.3l-1,0.3c-0.2-0.4-0.5-0.7-0.9-0.9c-0.7-0.4-1.6-0.5-2.4-0.1c-0.3,0.2-0.6,0.4-0.9,0.7
		c-0.3,0.3-0.5,0.6-0.6,1c-0.1,0.4-0.2,0.8-0.2,1.2c0,0.4,0.1,0.9,0.2,1.2c0.1,0.4,0.4,0.7,0.6,1c0.3,0.3,0.6,0.5,0.9,0.7
		c0.3,0.2,0.7,0.2,1.1,0.2c0.3,0,0.5,0,0.8-0.1c0.2-0.1,0.5-0.2,0.7-0.3c0.2-0.1,0.4-0.3,0.5-0.4c0.1-0.1,0.3-0.3,0.3-0.5l1,0.3
		c-0.1,0.3-0.3,0.5-0.5,0.8c-0.2,0.2-0.5,0.4-0.7,0.6c-0.3,0.2-0.6,0.3-0.9,0.4c-0.3,0.1-0.7,0.1-1.1,0.1c-0.5,0-1.1-0.1-1.6-0.3
		c-0.5-0.2-0.9-0.5-1.2-0.9c-0.3-0.4-0.6-0.8-0.8-1.3C149.6,104.5,149.5,103.9,149.5,103.4z"/>
	<path class="st1" d="M162,106.9l-0.3,0.1l-0.4,0.2c-0.2,0.1-0.3,0.1-0.5,0.1c-0.2,0-0.4,0.1-0.6,0.1c-0.2,0-0.4,0-0.6-0.1
		c-0.2-0.1-0.4-0.1-0.5-0.3c-0.2-0.1-0.3-0.3-0.4-0.5c-0.1-0.2-0.1-0.4-0.1-0.7v-5.6h-1.1v-0.8h1.1v-2.6h1v2.6h1.8v0.8h-1.8v5.3
		c0,0.2,0.1,0.5,0.3,0.6c0.2,0.1,0.4,0.2,0.6,0.2c0.3,0,0.5,0,0.8-0.1c0.1-0.1,0.3-0.1,0.4-0.2L162,106.9z"/>
	<path class="st1" d="M173.7,107.3h-1V103c0-0.7-0.1-1.4-0.4-2c-0.3-0.4-0.8-0.7-1.4-0.7c-0.3,0-0.6,0.1-0.9,0.2
		c-0.6,0.2-1.1,0.6-1.4,1.2c-0.2,0.3-0.3,0.6-0.4,0.9v4.8h-1v-11h1v4.9c0.3-0.6,0.7-1.1,1.3-1.4c0.5-0.3,1.2-0.5,1.8-0.5
		c0.4,0,0.8,0.1,1.1,0.2c0.3,0.2,0.6,0.4,0.8,0.7c0.2,0.3,0.4,0.7,0.4,1.1c0.1,0.5,0.1,0.9,0.1,1.4L173.7,107.3z"/>
	<path class="st1" d="M177.9,107.5c-0.3,0-0.7-0.1-1-0.2c-0.3-0.1-0.6-0.3-0.8-0.5c-0.2-0.2-0.4-0.5-0.6-0.8c-0.1-0.3-0.2-0.7-0.2-1
		c0-0.3,0.1-0.7,0.2-0.9c0.2-0.3,0.4-0.6,0.7-0.8c0.3-0.2,0.6-0.4,1-0.5c0.4-0.1,0.9-0.2,1.3-0.2c0.4,0,0.8,0,1.2,0.1
		c0.4,0.1,0.7,0.2,1.1,0.3v-0.7c0-0.6-0.2-1.2-0.6-1.6c-0.4-0.4-1-0.6-1.6-0.6c-0.4,0-0.8,0.1-1.2,0.2c-0.5,0.2-0.9,0.4-1.3,0.7
		l-0.4-0.7c0.9-0.6,1.9-1,2.9-1c0.9,0,1.7,0.3,2.3,0.8c0.6,0.6,0.9,1.4,0.8,2.3v3.5c0,0.3,0.1,0.4,0.4,0.4v0.9c-0.1,0-0.3,0-0.4,0
		c-0.2,0-0.4-0.1-0.6-0.2c-0.2-0.1-0.2-0.3-0.2-0.5V106c-0.4,0.5-0.8,0.8-1.4,1.1C179.1,107.3,178.5,107.5,177.9,107.5z
		 M178.1,106.7c0.5,0,1-0.1,1.5-0.3c0.4-0.2,0.7-0.4,1-0.8c0.1-0.1,0.2-0.2,0.2-0.3c0-0.1,0.1-0.2,0.1-0.3v-1.3
		c-0.3-0.1-0.7-0.2-1.1-0.3c-0.4-0.1-0.7-0.1-1.1-0.1c-0.6,0-1.2,0.1-1.8,0.4c-0.4,0.2-0.7,0.7-0.7,1.2c0,0.5,0.2,0.9,0.5,1.2
		c0.2,0.2,0.4,0.3,0.6,0.4C177.6,106.6,177.8,106.7,178.1,106.7L178.1,106.7z"/>
	<path class="st1" d="M186.7,107.5c-0.6,0-1.2-0.1-1.8-0.3c-0.6-0.2-1.1-0.5-1.5-0.9l0.5-0.7c0.4,0.3,0.9,0.6,1.3,0.8
		c0.5,0.2,1,0.3,1.5,0.3c0.5,0,1.1-0.1,1.5-0.4c0.4-0.2,0.6-0.7,0.6-1.1c0-0.2,0-0.4-0.1-0.5c-0.1-0.2-0.3-0.3-0.4-0.4
		c-0.2-0.1-0.5-0.2-0.7-0.3l-1-0.3c-0.5-0.1-0.8-0.2-1.2-0.3c-0.3-0.1-0.6-0.2-0.8-0.4c-0.2-0.1-0.4-0.3-0.5-0.5
		c-0.1-0.2-0.2-0.5-0.2-0.8c0-0.3,0.1-0.7,0.2-1c0.1-0.3,0.4-0.5,0.6-0.7c0.3-0.2,0.6-0.4,0.9-0.4c0.4-0.1,0.7-0.2,1.1-0.2
		c0.6,0,1.1,0.1,1.6,0.3c0.4,0.2,0.9,0.4,1.2,0.8l-0.5,0.6c-0.3-0.3-0.6-0.5-1-0.7c-0.4-0.1-0.9-0.2-1.3-0.2c-0.3,0-0.5,0-0.8,0.1
		c-0.2,0.1-0.4,0.1-0.6,0.3c-0.2,0.1-0.3,0.3-0.4,0.5c-0.1,0.2-0.2,0.4-0.1,0.7c0,0.2,0,0.4,0.1,0.5c0.1,0.1,0.2,0.3,0.4,0.3
		c0.2,0.1,0.4,0.2,0.6,0.3c0.2,0.1,0.5,0.2,0.9,0.2c0.5,0.1,0.9,0.2,1.3,0.4c0.4,0.1,0.7,0.2,1,0.4c0.2,0.1,0.4,0.3,0.6,0.6
		c0.1,0.3,0.2,0.5,0.2,0.8c0,0.7-0.3,1.3-0.8,1.7C188.3,107.3,187.5,107.5,186.7,107.5z"/>
	<path class="st1" d="M199.4,109.2v-2.7h-5v-0.9l5.3-6.9h0.7v6.9h1.3v0.9h-1.3v2.7H199.4z M195.5,105.6h4v-5.3L195.5,105.6z"/>
	<path class="st1" d="M206.7,103.4c0-0.5,0.1-1.1,0.3-1.6c0.2-0.5,0.5-0.9,0.8-1.3c0.3-0.4,0.8-0.7,1.2-0.9c0.5-0.2,1-0.3,1.6-0.3
		c0.7,0,1.4,0.2,1.9,0.5c0.5,0.3,1,0.8,1.2,1.3l-1,0.3c-0.2-0.4-0.5-0.7-0.9-0.9c-0.7-0.4-1.6-0.5-2.4-0.1c-0.3,0.2-0.6,0.4-0.9,0.7
		c-0.3,0.3-0.5,0.6-0.6,1c-0.1,0.4-0.2,0.8-0.2,1.2c0,0.4,0.1,0.9,0.2,1.2c0.1,0.4,0.3,0.7,0.6,1c0.3,0.3,0.6,0.5,0.9,0.7
		c0.3,0.2,0.7,0.2,1.1,0.2c0.3,0,0.5,0,0.8-0.1c0.2-0.1,0.5-0.2,0.7-0.3c0.2-0.1,0.4-0.3,0.5-0.4c0.1-0.1,0.2-0.3,0.3-0.5l1,0.3
		c-0.1,0.3-0.3,0.5-0.5,0.8c-0.2,0.2-0.5,0.4-0.7,0.6c-0.3,0.2-0.6,0.3-1,0.4c-1.4,0.4-2.9,0-3.9-1.1c-0.3-0.4-0.5-0.8-0.7-1.3
		C206.8,104.5,206.7,103.9,206.7,103.4z"/>
	<path class="st1" d="M222,107.3h-1V103c0-0.7-0.1-1.4-0.4-2c-0.3-0.4-0.8-0.7-1.4-0.7c-0.3,0-0.6,0.1-0.9,0.2
		c-0.6,0.2-1.1,0.6-1.4,1.2c-0.2,0.3-0.3,0.6-0.4,0.9v4.8h-1v-11h1v4.9c0.3-0.6,0.7-1.1,1.3-1.4c0.5-0.3,1.2-0.5,1.8-0.5
		c0.4,0,0.8,0.1,1.1,0.2c0.3,0.2,0.6,0.4,0.8,0.7c0.2,0.3,0.4,0.7,0.4,1.1c0.1,0.5,0.1,0.9,0.1,1.4L222,107.3z"/>
	<path class="st1" d="M226.1,107.5c-0.3,0-0.7-0.1-1-0.2c-0.3-0.1-0.6-0.3-0.8-0.5c-0.2-0.2-0.4-0.5-0.6-0.8c-0.1-0.3-0.2-0.7-0.2-1
		c0-0.3,0.1-0.7,0.2-0.9c0.2-0.3,0.4-0.6,0.7-0.8c0.3-0.2,0.6-0.4,1-0.5c0.4-0.1,0.9-0.2,1.3-0.2c0.4,0,0.8,0,1.2,0.1
		c0.4,0.1,0.7,0.2,1.1,0.3v-0.7c0-0.6-0.2-1.2-0.6-1.6c-0.4-0.4-1-0.6-1.6-0.6c-0.4,0-0.8,0.1-1.2,0.2c-0.5,0.2-0.9,0.4-1.3,0.7
		l-0.4-0.7c0.9-0.6,1.9-1,2.9-1c0.9,0,1.7,0.3,2.3,0.8c0.6,0.6,0.9,1.4,0.8,2.3v3.5c0,0.3,0.1,0.4,0.4,0.4v0.9c-0.1,0-0.3,0-0.4,0
		c-0.2,0-0.4-0.1-0.6-0.2c-0.2-0.1-0.2-0.3-0.2-0.5V106c-0.4,0.5-0.8,0.8-1.4,1.1C227.4,107.3,226.8,107.5,226.1,107.5z
		 M226.4,106.7c0.5,0,1-0.1,1.5-0.3c0.4-0.2,0.7-0.4,1-0.8c0.1-0.1,0.2-0.2,0.2-0.3c0-0.1,0.1-0.2,0.1-0.3v-1.3
		c-0.3-0.1-0.7-0.2-1.1-0.3c-0.4-0.1-0.7-0.1-1.1-0.1c-0.6,0-1.2,0.1-1.8,0.4c-0.4,0.2-0.7,0.7-0.7,1.2c0,0.5,0.2,0.9,0.5,1.2
		c0.2,0.2,0.4,0.3,0.6,0.4C225.9,106.6,226.1,106.7,226.4,106.7z"/>
	<path class="st1" d="M236.4,107.5c-0.6,0-1.2-0.2-1.7-0.5c-0.5-0.3-0.9-0.8-1.2-1.3v4.8h-1v-11h0.9v1.5c0.3-0.5,0.7-0.9,1.2-1.2
		c0.5-0.3,1.1-0.5,1.7-0.5c0.5,0,1,0.1,1.5,0.3c0.4,0.2,0.8,0.5,1.2,0.9c0.7,0.8,1,1.8,1,2.8c0,0.5-0.1,1.1-0.2,1.6
		c-0.2,0.5-0.4,0.9-0.7,1.3c-0.3,0.4-0.7,0.7-1.1,0.9C237.3,107.3,236.8,107.5,236.4,107.5z M236.1,106.6c0.4,0,0.8-0.1,1.1-0.3
		c0.3-0.2,0.6-0.4,0.9-0.7c0.2-0.3,0.4-0.6,0.6-1c0.1-0.4,0.2-0.8,0.2-1.2c0-0.8-0.3-1.6-0.8-2.2c-0.3-0.3-0.6-0.5-0.9-0.7
		c-0.4-0.2-0.8-0.3-1.1-0.3c-0.3,0-0.6,0.1-0.8,0.2c-0.3,0.1-0.5,0.2-0.8,0.4c-0.2,0.2-0.5,0.4-0.6,0.6c-0.2,0.2-0.3,0.5-0.3,0.7
		v2.4c0.1,0.3,0.3,0.5,0.5,0.8c0.2,0.2,0.4,0.4,0.6,0.6c0.2,0.2,0.5,0.3,0.8,0.4C235.5,106.5,235.8,106.6,236.1,106.6z"/>
	<path class="st1" d="M245.3,106.9l-0.3,0.1l-0.4,0.2c-0.2,0.1-0.3,0.1-0.5,0.1c-0.2,0-0.4,0.1-0.6,0.1c-0.2,0-0.4,0-0.6-0.1
		c-0.2-0.1-0.4-0.1-0.5-0.3c-0.2-0.1-0.3-0.3-0.4-0.5c-0.1-0.2-0.1-0.4-0.1-0.7v-5.6h-1.1v-0.8h1.1v-2.6h1v2.6h1.8v0.8h-1.8v5.3
		c0,0.2,0.1,0.5,0.3,0.6c0.2,0.1,0.4,0.2,0.6,0.2c0.3,0,0.5,0,0.8-0.1c0.1-0.1,0.3-0.1,0.4-0.2L245.3,106.9z"/>
	<path class="st1" d="M249.7,107.5c-0.5,0-1.1-0.1-1.6-0.3c-0.5-0.2-0.9-0.5-1.2-0.9c-0.3-0.4-0.6-0.8-0.8-1.3
		c-0.2-0.5-0.3-1-0.3-1.6c0-0.5,0.1-1.1,0.3-1.6c0.2-0.5,0.5-0.9,0.8-1.3c0.3-0.4,0.8-0.7,1.2-0.9c1-0.4,2.1-0.4,3.1,0
		c0.5,0.2,0.9,0.5,1.2,0.9c0.7,0.8,1.1,1.8,1.1,2.8v0.2c0,0.1,0,0.1,0,0.2h-6.7c0,0.4,0.1,0.8,0.3,1.2c0.2,0.3,0.4,0.7,0.6,0.9
		c0.3,0.3,0.6,0.5,0.9,0.6c0.6,0.2,1.2,0.3,1.8,0.1c0.2-0.1,0.5-0.2,0.7-0.3c0.2-0.1,0.4-0.3,0.6-0.4c0.2-0.2,0.3-0.4,0.4-0.6
		l0.9,0.2c-0.1,0.3-0.3,0.6-0.5,0.8c-0.2,0.2-0.5,0.4-0.8,0.6c-0.3,0.2-0.6,0.3-1,0.4C250.4,107.4,250.1,107.5,249.7,107.5z
		 M252.6,103c0-0.4-0.1-0.8-0.3-1.1c-0.2-0.3-0.4-0.6-0.6-0.9c-0.3-0.2-0.6-0.4-0.9-0.6c-0.3-0.1-0.7-0.2-1.1-0.2
		c-0.4,0-0.7,0.1-1.1,0.2c-0.3,0.1-0.6,0.3-0.9,0.6c-0.3,0.3-0.5,0.6-0.6,0.9c-0.2,0.4-0.3,0.7-0.3,1.1H252.6z"/>
	<path class="st1" d="M259,100.4c-0.6,0-1.3,0.2-1.8,0.6c-0.5,0.4-0.9,0.9-1.1,1.5v4.9h-1v-7.8h1v1.9c0.3-0.6,0.7-1.1,1.2-1.4
		c0.5-0.3,1-0.5,1.6-0.5h0.2L259,100.4z"/>
	<path class="st1" d="M263,107.5c-0.6,0-1.2-0.1-1.8-0.3c-0.6-0.2-1.1-0.5-1.5-0.9l0.5-0.7c0.4,0.3,0.9,0.6,1.3,0.8
		c0.5,0.2,1,0.3,1.5,0.3c0.5,0,1.1-0.1,1.5-0.4c0.4-0.2,0.6-0.7,0.6-1.1c0-0.2,0-0.4-0.1-0.5c-0.1-0.2-0.3-0.3-0.4-0.4
		c-0.2-0.1-0.5-0.2-0.7-0.3l-1-0.3c-0.5-0.1-0.8-0.2-1.2-0.3c-0.3-0.1-0.6-0.2-0.8-0.4c-0.2-0.1-0.4-0.3-0.5-0.5
		c-0.1-0.2-0.2-0.5-0.2-0.8c0-0.3,0.1-0.7,0.2-1c0.2-0.3,0.4-0.5,0.7-0.7c0.3-0.2,0.6-0.4,0.9-0.4c0.4-0.1,0.7-0.2,1.1-0.2
		c0.6,0,1.1,0.1,1.6,0.3c0.4,0.2,0.9,0.4,1.2,0.8l-0.5,0.6c-0.3-0.3-0.7-0.5-1-0.7c-0.4-0.1-0.9-0.2-1.3-0.2c-0.3,0-0.5,0-0.8,0.1
		c-0.2,0.1-0.4,0.1-0.6,0.3c-0.2,0.1-0.3,0.3-0.4,0.5c-0.1,0.2-0.2,0.4-0.1,0.7c0,0.2,0,0.4,0.1,0.5c0.1,0.1,0.2,0.3,0.4,0.3
		c0.2,0.1,0.4,0.2,0.6,0.3c0.2,0.1,0.5,0.2,0.9,0.2c0.5,0.1,0.9,0.2,1.3,0.4c0.3,0.1,0.7,0.2,1,0.4c0.2,0.1,0.4,0.3,0.6,0.6
		c0.1,0.3,0.2,0.5,0.2,0.8c0,0.7-0.3,1.3-0.8,1.7C264.6,107.3,263.8,107.5,263,107.5z"/>
	<path class="st1" d="M88.5,248.9c-0.3-0.4-0.7-0.6-1.2-0.8c-0.5-0.2-1.1-0.3-1.7-0.3c-0.7-0.1-1.5,0.1-2.1,0.5
		c-0.4,0.4-0.7,0.9-0.6,1.4c0,0.3,0,0.5,0.2,0.8c0.1,0.2,0.3,0.4,0.5,0.5c0.3,0.2,0.6,0.3,0.9,0.4c0.4,0.1,0.8,0.2,1.3,0.3
		c0.5,0.1,1,0.2,1.5,0.4c0.4,0.1,0.8,0.3,1.2,0.6c0.3,0.2,0.6,0.5,0.7,0.8c0.2,0.4,0.3,0.8,0.2,1.2c0,0.4-0.1,0.9-0.3,1.3
		c-0.2,0.4-0.5,0.7-0.8,0.9c-0.4,0.3-0.8,0.4-1.2,0.5c-2,0.5-4.2,0-5.8-1.4l0.5-0.9c0.2,0.2,0.4,0.4,0.7,0.6
		c0.3,0.2,0.6,0.3,0.9,0.5c0.7,0.3,1.5,0.4,2.2,0.4c0.7,0,1.4-0.1,2-0.5c0.5-0.3,0.7-0.8,0.7-1.4c0-0.3-0.1-0.6-0.2-0.8
		c-0.2-0.2-0.4-0.4-0.6-0.6c-0.3-0.2-0.7-0.3-1-0.4c-0.4-0.1-0.9-0.2-1.4-0.4s-1-0.3-1.5-0.4c-0.4-0.1-0.7-0.3-1.1-0.5
		c-0.3-0.2-0.5-0.4-0.7-0.7c-0.1-0.3-0.2-0.7-0.2-1.1c0-0.5,0.1-0.9,0.3-1.3c0.2-0.4,0.4-0.7,0.8-1c0.4-0.3,0.8-0.5,1.2-0.6
		c0.5-0.1,1-0.2,1.5-0.2c0.6,0,1.3,0.1,1.9,0.3c0.6,0.2,1.1,0.5,1.5,0.9L88.5,248.9z"/>
	<path class="st1" d="M100.7,249.7h1l-3.4,7.8h-0.8l-1.7-4l-1.7,4h-0.8l-3.4-7.8h1l2.8,6.8l1.5-3.6l-1.3-3.2h0.9l1,2.6l1-2.6h0.9
		l-1.3,3.2l1.5,3.6L100.7,249.7z"/>
	<path class="st1" d="M103.1,248.1v-1.5h1v1.5H103.1z M103.1,257.6v-7.8h1v7.8H103.1z"/>
	<path class="st1" d="M110.4,257.7c-0.6,0-1.2-0.2-1.8-0.5c-0.5-0.3-0.9-0.8-1.2-1.3v4.8h-1v-11h0.9v1.5c0.3-0.5,0.7-0.9,1.2-1.2
		c0.5-0.3,1.1-0.5,1.7-0.4c0.5,0,1,0.1,1.5,0.3c0.4,0.2,0.8,0.5,1.2,0.9c0.3,0.4,0.6,0.8,0.8,1.3c0.2,0.5,0.3,1,0.3,1.5
		c0,0.5-0.1,1.1-0.3,1.6c-0.2,0.5-0.4,0.9-0.7,1.3c-0.3,0.4-0.7,0.7-1.1,0.9C111.4,257.6,110.9,257.7,110.4,257.7z M110.1,256.8
		c0.4,0,0.8-0.1,1.2-0.3c0.3-0.2,0.6-0.4,0.9-0.7c0.3-0.3,0.4-0.6,0.6-1c0.1-0.4,0.2-0.8,0.2-1.2c0-0.4-0.1-0.8-0.2-1.2
		c-0.1-0.4-0.4-0.7-0.6-1c-0.3-0.3-0.6-0.5-0.9-0.7c-0.4-0.2-0.8-0.3-1.2-0.2c-0.3,0-0.6,0.1-0.8,0.1c-0.3,0.1-0.5,0.2-0.8,0.4
		c-0.2,0.2-0.5,0.4-0.6,0.6c-0.2,0.2-0.3,0.5-0.3,0.7v2.4c0.1,0.3,0.3,0.5,0.4,0.8c0.2,0.2,0.4,0.4,0.6,0.6c0.2,0.2,0.5,0.3,0.8,0.4
		C109.5,256.8,109.8,256.8,110.1,256.8z"/>
	<path class="st1" d="M119,257.7c-0.5,0-1.1-0.1-1.6-0.3c-0.5-0.2-0.9-0.5-1.2-0.9c-1.1-1.2-1.4-2.9-0.8-4.4
		c0.2-0.5,0.5-0.9,0.8-1.3c0.4-0.4,0.8-0.7,1.2-0.9c1.5-0.7,3.2-0.3,4.3,0.9c0.7,0.8,1.1,1.8,1.1,2.8v0.2c0,0.1,0,0.1,0,0.2h-6.7
		c0,0.4,0.1,0.8,0.3,1.2c0.2,0.3,0.4,0.7,0.6,0.9c0.3,0.3,0.6,0.5,0.9,0.6c0.3,0.1,0.7,0.2,1.1,0.2c0.3,0,0.5,0,0.8-0.1
		c0.2-0.1,0.5-0.2,0.7-0.3c0.2-0.1,0.4-0.3,0.6-0.5c0.2-0.2,0.3-0.4,0.4-0.6l0.9,0.2c-0.1,0.3-0.3,0.6-0.5,0.8
		c-0.2,0.2-0.5,0.4-0.8,0.6c-0.3,0.2-0.6,0.3-1,0.4C119.7,257.7,119.4,257.7,119,257.7z M121.9,253.2c0-0.4-0.1-0.8-0.3-1.1
		c-0.2-0.3-0.4-0.6-0.6-0.9c-0.5-0.5-1.3-0.8-2-0.8c-0.4,0-0.7,0.1-1.1,0.2c-0.7,0.3-1.2,0.8-1.5,1.5c-0.2,0.4-0.3,0.7-0.3,1.1
		L121.9,253.2z"/>
	<path class="st1" d="M132.1,250.6c-0.6,0-1.3,0.2-1.8,0.6c-0.5,0.4-0.9,0.9-1.1,1.5v4.9h-1v-7.8h1v1.9c0.3-0.6,0.7-1.1,1.2-1.4
		c0.5-0.3,1-0.5,1.6-0.5h0.2L132.1,250.6z"/>
	<path class="st1" d="M133.5,248.1v-1.5h1v1.5H133.5z M133.5,257.6v-7.8h1v7.8H133.5z"/>
	<path class="st1" d="M139.9,257.7c-0.5,0-1-0.1-1.5-0.3c-0.4-0.2-0.8-0.5-1.1-0.9c-0.3-0.4-0.6-0.8-0.8-1.3c-0.2-0.5-0.3-1-0.3-1.5
		c0-0.5,0.1-1.1,0.3-1.6c0.2-0.5,0.4-0.9,0.8-1.3c0.3-0.4,0.7-0.7,1.1-0.9c0.5-0.2,1-0.3,1.5-0.3c0.6,0,1.2,0.2,1.7,0.5
		c0.5,0.3,0.9,0.8,1.3,1.3v-1.6h0.9v7.8c0,0.5-0.1,1-0.3,1.4c-0.2,0.4-0.5,0.7-0.8,1c-0.4,0.3-0.8,0.5-1.2,0.6
		c-0.5,0.1-1,0.2-1.5,0.2c-0.8,0-1.5-0.1-2.2-0.5c-0.5-0.3-1-0.8-1.3-1.3l0.6-0.5c0.3,0.5,0.7,0.9,1.2,1.1c0.5,0.2,1.1,0.4,1.6,0.4
		c0.4,0,0.7-0.1,1.1-0.2c0.3-0.1,0.6-0.3,0.9-0.5c0.3-0.2,0.5-0.5,0.6-0.8c0.2-0.3,0.2-0.7,0.2-1.1V256
		C142.2,257,141.1,257.6,139.9,257.7L139.9,257.7z M140.2,256.8c0.3,0,0.6-0.1,0.9-0.2c0.3-0.1,0.5-0.3,0.8-0.4
		c0.2-0.2,0.4-0.4,0.6-0.6c0.2-0.2,0.3-0.5,0.3-0.7v-2.4c-0.1-0.3-0.3-0.5-0.4-0.8c-0.2-0.2-0.4-0.4-0.6-0.6
		c-0.2-0.2-0.5-0.3-0.8-0.4c-0.7-0.2-1.4-0.2-2,0.1c-0.3,0.2-0.6,0.4-0.9,0.7c-0.2,0.3-0.4,0.6-0.6,1c-0.1,0.4-0.2,0.8-0.2,1.2
		c0,0.4,0.1,0.8,0.2,1.2c0.1,0.4,0.4,0.7,0.6,1c0.3,0.3,0.6,0.5,0.9,0.7C139.4,256.7,139.8,256.8,140.2,256.8z"/>
	<path class="st1" d="M152.6,257.6h-1v-4.4c0-0.7-0.1-1.4-0.4-2c-0.3-0.4-0.8-0.7-1.4-0.7c-0.3,0-0.6,0.1-0.9,0.2
		c-0.3,0.1-0.6,0.3-0.8,0.5c-0.3,0.2-0.5,0.4-0.6,0.7c-0.2,0.3-0.3,0.6-0.4,0.9v4.8h-1v-10.9h1v4.9c0.3-0.6,0.7-1.1,1.3-1.4
		c0.5-0.3,1.2-0.5,1.8-0.5c0.4,0,0.8,0.1,1.1,0.2c0.3,0.2,0.6,0.4,0.8,0.7c0.2,0.3,0.4,0.7,0.4,1.1c0.1,0.5,0.1,0.9,0.1,1.4
		L152.6,257.6z"/>
	<path class="st1" d="M158.5,257.2l-0.3,0.1l-0.4,0.1c-0.2,0.1-0.3,0.1-0.5,0.1c-0.2,0-0.4,0.1-0.6,0.1c-0.2,0-0.4,0-0.6-0.1
		c-0.2-0.1-0.4-0.2-0.5-0.3c-0.2-0.1-0.3-0.3-0.4-0.5c-0.1-0.2-0.1-0.4-0.1-0.7v-5.6H154v-0.8h1.1v-2.6h1v2.6h1.8v0.8h-1.8v5.3
		c0,0.2,0.1,0.5,0.3,0.6c0.2,0.1,0.4,0.2,0.6,0.2c0.3,0,0.5,0,0.8-0.1c0.1-0.1,0.3-0.1,0.4-0.2L158.5,257.2z"/>
	<path class="st1" d="M166.9,257.7c-0.5,0-1.1-0.1-1.6-0.3c-0.5-0.2-0.9-0.5-1.2-0.9c-0.3-0.4-0.6-0.8-0.8-1.3
		c-0.2-0.5-0.3-1-0.3-1.6c0-0.5,0.1-1.1,0.3-1.6c0.2-0.5,0.5-0.9,0.8-1.3c0.3-0.4,0.8-0.7,1.2-0.9c0.5-0.2,1-0.3,1.5-0.3
		c0.5,0,1.1,0.1,1.6,0.3c0.5,0.2,0.9,0.5,1.2,0.9c1.1,1.2,1.4,2.9,0.8,4.4c-0.2,0.5-0.5,0.9-0.8,1.3c-0.3,0.4-0.8,0.7-1.2,0.9
		C168,257.6,167.4,257.7,166.9,257.7z M164.1,253.7c0,0.4,0.1,0.8,0.2,1.2c0.1,0.4,0.4,0.7,0.6,1c0.3,0.3,0.6,0.5,0.9,0.7
		c0.3,0.2,0.7,0.2,1.1,0.2c0.4,0,0.8-0.1,1.1-0.2c0.3-0.2,0.6-0.4,0.9-0.7c0.3-0.3,0.5-0.6,0.6-1c0.2-0.4,0.2-0.8,0.2-1.2
		c0-0.4-0.1-0.8-0.2-1.2c-0.1-0.4-0.4-0.7-0.6-1c-0.3-0.3-0.6-0.5-0.9-0.7c-0.3-0.2-0.7-0.2-1.1-0.2c-0.4,0-0.7,0.1-1.1,0.2
		c-0.3,0.2-0.6,0.4-0.9,0.7c-0.3,0.3-0.5,0.6-0.6,1C164.1,252.9,164.1,253.3,164.1,253.7L164.1,253.7z"/>
	<path class="st1" d="M176.4,250.6c-0.6,0-1.3,0.2-1.8,0.6c-0.5,0.4-0.9,0.9-1.1,1.5v4.9h-1v-7.8h1v1.9c0.3-0.6,0.7-1.1,1.2-1.4
		c0.5-0.3,1-0.5,1.6-0.5h0.2L176.4,250.6z"/>
	<path class="st1" d="M181.3,246.6h1v9.2c0,0.2,0.1,0.5,0.2,0.7c0.2,0.2,0.4,0.3,0.7,0.2c0.1,0,0.3,0,0.4,0c0.1,0,0.3-0.1,0.4-0.1
		l0.2,0.8c-0.2,0.1-0.5,0.2-0.7,0.2c-0.2,0-0.5,0.1-0.7,0.1c-0.4,0-0.8-0.1-1.1-0.4c-0.3-0.3-0.4-0.7-0.4-1.1L181.3,246.6z"/>
	<path class="st1" d="M188.7,257.7c-0.5,0-1.1-0.1-1.6-0.3c-0.5-0.2-0.9-0.5-1.2-0.9c-1.1-1.2-1.4-2.9-0.8-4.4
		c0.2-0.5,0.5-0.9,0.8-1.3c0.4-0.4,0.8-0.7,1.2-0.9c1.5-0.7,3.2-0.3,4.4,0.9c0.3,0.4,0.6,0.8,0.8,1.3c0.2,0.5,0.3,1,0.3,1.5v0.2
		c0,0.1,0,0.1,0,0.2h-6.7c0,0.4,0.1,0.8,0.3,1.2c0.2,0.3,0.4,0.7,0.6,0.9c0.3,0.3,0.6,0.5,0.9,0.6c0.3,0.1,0.7,0.2,1.1,0.2
		c0.3,0,0.5,0,0.8-0.1c0.2-0.1,0.5-0.2,0.7-0.3c0.2-0.1,0.4-0.3,0.6-0.5c0.2-0.2,0.3-0.4,0.4-0.6l0.9,0.2c-0.1,0.3-0.3,0.6-0.5,0.8
		c-0.2,0.2-0.5,0.4-0.8,0.6c-0.3,0.2-0.6,0.3-1,0.4C189.4,257.7,189,257.7,188.7,257.7z M191.6,253.2c0-0.4-0.1-0.8-0.3-1.1
		c-0.2-0.3-0.4-0.6-0.6-0.9c-0.3-0.3-0.6-0.5-0.9-0.6c-1-0.4-2.2-0.2-3,0.6c-0.3,0.3-0.5,0.6-0.6,0.9c-0.2,0.4-0.3,0.7-0.3,1.1
		H191.6z"/>
	<path class="st1" d="M194.4,257.6v-7h-1.1v-0.8h1.1v-0.2c0-0.8,0.2-1.6,0.6-2.3c0.4-0.5,1-0.8,1.7-0.8c0.3,0,0.6,0,0.9,0.1
		c0.3,0.1,0.5,0.2,0.8,0.4l-0.3,0.7c-0.2-0.1-0.3-0.2-0.5-0.3c-0.2-0.1-0.4-0.1-0.6-0.1c-0.4,0-0.9,0.2-1.1,0.6
		c-0.3,0.5-0.4,1-0.4,1.6v0.2h2.2v0.8h-2.2v7L194.4,257.6z"/>
	<path class="st1" d="M202.7,257.2l-0.3,0.1l-0.4,0.1c-0.2,0.1-0.3,0.1-0.5,0.1c-0.2,0-0.4,0.1-0.6,0.1c-0.2,0-0.4,0-0.6-0.1
		c-0.2-0.1-0.4-0.2-0.5-0.3c-0.2-0.1-0.3-0.3-0.4-0.5c-0.1-0.2-0.1-0.4-0.1-0.7v-5.6h-1.1v-0.8h1.1v-2.6h1v2.6h1.8v0.8h-1.8v5.3
		c0,0.2,0.1,0.5,0.3,0.6c0.2,0.1,0.4,0.2,0.6,0.2c0.3,0,0.5,0,0.8-0.1c0.1-0.1,0.3-0.1,0.4-0.2L202.7,257.2z"/>
	<path class="st1" d="M215.4,257.2l-0.3,0.1l-0.4,0.1c-0.2,0.1-0.3,0.1-0.5,0.1c-0.2,0-0.4,0.1-0.6,0.1c-0.2,0-0.4,0-0.6-0.1
		c-0.2-0.1-0.4-0.2-0.5-0.3c-0.2-0.1-0.3-0.3-0.4-0.5c-0.1-0.2-0.1-0.4-0.1-0.7v-5.6h-1.1v-0.8h1.1v-2.6h1v2.6h1.8v0.8H213v5.3
		c0,0.2,0.1,0.5,0.3,0.6c0.2,0.1,0.4,0.2,0.6,0.2c0.3,0,0.5,0,0.8-0.1c0.1-0.1,0.3-0.1,0.4-0.2L215.4,257.2z"/>
	<path class="st1" d="M219.8,257.7c-0.5,0-1.1-0.1-1.6-0.3c-0.5-0.2-0.9-0.5-1.2-0.9c-0.3-0.4-0.6-0.8-0.8-1.3
		c-0.2-0.5-0.3-1-0.3-1.6c0-0.5,0.1-1.1,0.3-1.6c0.2-0.5,0.5-0.9,0.8-1.3c0.3-0.4,0.8-0.7,1.2-0.9c0.5-0.2,1-0.3,1.5-0.3
		c0.5,0,1.1,0.1,1.6,0.3c0.5,0.2,0.9,0.5,1.2,0.9c1.1,1.2,1.4,2.9,0.8,4.4c-0.2,0.5-0.5,0.9-0.8,1.3c-0.3,0.4-0.8,0.7-1.2,0.9
		C220.9,257.6,220.4,257.7,219.8,257.7z M217,253.7c0,0.4,0.1,0.8,0.2,1.2c0.1,0.4,0.4,0.7,0.6,1c0.3,0.3,0.6,0.5,0.9,0.7
		c0.3,0.2,0.7,0.2,1.1,0.2c0.4,0,0.8-0.1,1.1-0.2c0.3-0.2,0.6-0.4,0.9-0.7c0.3-0.3,0.5-0.6,0.6-1c0.2-0.4,0.2-0.8,0.2-1.2
		c0-0.4-0.1-0.8-0.2-1.2c-0.1-0.4-0.4-0.7-0.6-1c-0.3-0.3-0.6-0.5-0.9-0.7c-0.3-0.2-0.7-0.2-1.1-0.2c-0.4,0-0.7,0.1-1.1,0.2
		c-0.3,0.2-0.6,0.4-0.9,0.7c-0.3,0.3-0.5,0.6-0.6,1C217.1,252.9,217,253.3,217,253.7L217,253.7z"/>
	<path class="st1" d="M240.9,257.6h-1v-4.4c0-0.7-0.1-1.4-0.4-2c-0.3-0.4-0.8-0.7-1.3-0.6c-0.3,0-0.6,0.1-0.8,0.2
		c-0.3,0.1-0.5,0.3-0.7,0.5c-0.2,0.2-0.4,0.4-0.6,0.7c-0.2,0.3-0.3,0.6-0.4,0.9v4.8h-1v-4.4c0-0.7-0.1-1.4-0.4-2
		c-0.3-0.4-0.8-0.7-1.3-0.6c-0.6,0-1.1,0.2-1.6,0.6c-0.5,0.4-0.8,1-1,1.6v4.8h-1v-7.8h0.9v1.8c0.3-0.6,0.7-1.1,1.3-1.4
		c0.5-0.3,1.1-0.5,1.7-0.5c0.6,0,1.1,0.2,1.6,0.6c0.4,0.4,0.7,0.9,0.7,1.5c0.5-1.2,1.7-2,3-2c0.4,0,0.8,0.1,1.1,0.2
		c0.3,0.2,0.6,0.4,0.7,0.7c0.2,0.3,0.3,0.7,0.4,1.1c0.1,0.5,0.1,0.9,0.1,1.4L240.9,257.6z"/>
	<path class="st1" d="M246.4,257.7c-0.5,0-1.1-0.1-1.6-0.3c-0.5-0.2-0.9-0.5-1.2-0.9c-0.4-0.4-0.6-0.8-0.8-1.3
		c-0.6-1.5-0.3-3.2,0.8-4.4c0.3-0.4,0.8-0.7,1.2-0.9c1-0.4,2.1-0.4,3.1,0c0.5,0.2,0.9,0.5,1.2,0.9c0.4,0.4,0.6,0.8,0.8,1.3
		c0.2,0.5,0.3,1,0.3,1.6c0,0.5-0.1,1.1-0.3,1.6c-0.2,0.5-0.5,0.9-0.8,1.3c-0.3,0.4-0.8,0.7-1.2,0.9
		C247.4,257.6,246.9,257.7,246.4,257.7z M243.5,253.7c0,0.4,0.1,0.8,0.2,1.2c0.1,0.4,0.3,0.7,0.6,1c0.3,0.3,0.6,0.5,0.9,0.7
		c0.7,0.3,1.5,0.3,2.2,0c0.3-0.2,0.7-0.4,0.9-0.7c0.3-0.3,0.5-0.6,0.6-1c0.2-0.4,0.2-0.8,0.2-1.2c0-0.4-0.1-0.8-0.2-1.2
		c-0.1-0.4-0.3-0.7-0.6-1c-0.3-0.3-0.6-0.5-0.9-0.7c-0.7-0.3-1.5-0.3-2.2,0c-0.3,0.2-0.6,0.4-0.9,0.7c-0.3,0.3-0.5,0.6-0.6,1
		C243.6,252.9,243.5,253.3,243.5,253.7L243.5,253.7z"/>
	<path class="st1" d="M254,257.6l-3.2-7.8h1l2.7,6.9l2.7-6.9h1l-3.2,7.8H254z"/>
	<path class="st1" d="M262.8,257.7c-0.5,0-1.1-0.1-1.6-0.3c-0.5-0.2-0.9-0.5-1.2-0.9c-1.1-1.2-1.4-2.9-0.8-4.4
		c0.2-0.5,0.5-0.9,0.8-1.3c0.3-0.4,0.8-0.7,1.2-0.9c1-0.4,2.1-0.4,3.1,0c0.5,0.2,0.9,0.5,1.2,0.9c0.7,0.8,1.1,1.8,1.1,2.8v0.2
		c0,0.1,0,0.1,0,0.2h-6.7c0,0.4,0.1,0.8,0.3,1.2c0.2,0.3,0.4,0.7,0.6,0.9c0.3,0.3,0.6,0.5,0.9,0.6c0.6,0.2,1.2,0.3,1.8,0.1
		c0.2-0.1,0.5-0.2,0.7-0.3c0.2-0.1,0.4-0.3,0.6-0.5c0.2-0.2,0.3-0.4,0.4-0.6l0.9,0.2c-0.1,0.3-0.3,0.6-0.5,0.8
		c-0.2,0.2-0.5,0.4-0.8,0.6c-0.3,0.2-0.6,0.3-1,0.4C263.5,257.7,263.1,257.7,262.8,257.7z M265.6,253.2c-0.1-0.8-0.4-1.5-0.9-2
		c-0.3-0.3-0.6-0.5-0.9-0.6c-0.3-0.1-0.7-0.2-1.1-0.2c-0.4,0-0.7,0.1-1.1,0.2c-0.3,0.1-0.6,0.3-0.9,0.6c-0.3,0.3-0.5,0.6-0.6,0.9
		c-0.2,0.4-0.3,0.7-0.3,1.1L265.6,253.2z"/>
	<path class="st1" d="M106.3,275.2l-0.3,0.1l-0.4,0.1c-0.2,0.1-0.3,0.1-0.5,0.1c-0.2,0-0.4,0.1-0.6,0.1c-0.2,0-0.4,0-0.6-0.1
		c-0.2-0.1-0.4-0.2-0.5-0.3c-0.2-0.1-0.3-0.3-0.4-0.5c-0.1-0.2-0.1-0.4-0.1-0.7v-5.6h-1.1v-0.8h1.1v-2.6h1v2.6h1.8v0.8h-1.8v5.3
		c0,0.2,0.1,0.5,0.3,0.6c0.2,0.1,0.4,0.2,0.6,0.2c0.3,0,0.5,0,0.8-0.1c0.1-0.1,0.3-0.1,0.4-0.2L106.3,275.2z"/>
	<path class="st1" d="M114.1,275.6h-1v-4.4c0-0.7-0.1-1.4-0.4-2c-0.3-0.4-0.8-0.7-1.3-0.7c-0.3,0-0.6,0.1-0.9,0.2
		c-0.3,0.1-0.6,0.3-0.8,0.5c-0.3,0.2-0.5,0.4-0.7,0.7c-0.2,0.3-0.3,0.6-0.4,0.9v4.8h-1v-10.9h1v4.9c0.3-0.6,0.7-1.1,1.3-1.4
		c0.5-0.3,1.2-0.5,1.8-0.5c0.4,0,0.8,0.1,1.1,0.2c0.3,0.2,0.6,0.4,0.8,0.7c0.2,0.3,0.4,0.7,0.4,1.1c0.1,0.5,0.1,0.9,0.1,1.4
		L114.1,275.6z"/>
	<path class="st1" d="M120.2,268.6c-0.6,0-1.3,0.2-1.8,0.6c-0.5,0.4-0.9,0.9-1.1,1.5v4.9h-1v-7.8h1v1.9c0.3-0.6,0.7-1.1,1.2-1.4
		c0.5-0.3,1-0.5,1.6-0.5h0.2L120.2,268.6z"/>
	<path class="st1" d="M124.5,275.7c-0.5,0-1.1-0.1-1.6-0.3c-0.5-0.2-0.9-0.5-1.2-0.9c-0.3-0.4-0.6-0.8-0.8-1.3
		c-0.2-0.5-0.3-1-0.3-1.5c0-0.5,0.1-1.1,0.3-1.6c0.2-0.5,0.5-0.9,0.8-1.3c0.3-0.4,0.8-0.7,1.2-0.9c0.5-0.2,1-0.3,1.5-0.3
		c0.5,0,1.1,0.1,1.6,0.3c0.5,0.2,0.9,0.5,1.2,0.9c1.1,1.2,1.4,2.9,0.8,4.4c-0.2,0.5-0.4,0.9-0.8,1.3
		C126.6,275.3,125.5,275.7,124.5,275.7L124.5,275.7z M121.7,271.7c0,0.4,0.1,0.8,0.2,1.2c0.1,0.4,0.4,0.7,0.6,1
		c0.3,0.3,0.6,0.5,0.9,0.7c0.7,0.3,1.5,0.3,2.2,0c0.3-0.2,0.6-0.4,0.9-0.7c0.3-0.3,0.5-0.6,0.6-1c0.2-0.4,0.2-0.8,0.2-1.2
		c0-0.4-0.1-0.8-0.2-1.2c-0.1-0.4-0.4-0.7-0.6-1c-0.3-0.3-0.6-0.5-0.9-0.7c-0.3-0.2-0.7-0.2-1.1-0.2c-0.4,0-0.7,0.1-1.1,0.2
		c-0.3,0.2-0.6,0.4-0.9,0.7c-0.3,0.3-0.5,0.6-0.6,1C121.7,270.9,121.7,271.3,121.7,271.7L121.7,271.7z"/>
	<path class="st1" d="M132.5,275.7c-0.7,0.1-1.4-0.3-1.9-0.9c-0.5-0.8-0.7-1.6-0.6-2.5v-4.6h1v4.4c0,1.8,0.6,2.7,1.8,2.7
		c0.3,0,0.6-0.1,0.9-0.1c0.3-0.1,0.6-0.3,0.8-0.4c0.2-0.2,0.5-0.4,0.7-0.7c0.2-0.3,0.4-0.6,0.5-0.9v-4.9h1v6.5
		c0,0.3,0.1,0.4,0.4,0.4v0.9h-0.3h-0.2c-0.2,0-0.4-0.1-0.6-0.3c-0.2-0.2-0.2-0.4-0.2-0.6v-0.9c-0.3,0.6-0.8,1.1-1.4,1.4
		C133.8,275.5,133.2,275.7,132.5,275.7z"/>
	<path class="st1" d="M142.1,275.7c-0.5,0-1-0.1-1.5-0.3c-0.4-0.2-0.8-0.5-1.2-0.9c-0.3-0.4-0.6-0.8-0.8-1.3c-0.4-1-0.4-2,0-3
		c0.2-0.5,0.4-0.9,0.7-1.3c0.3-0.4,0.7-0.7,1.1-0.9c0.5-0.2,1-0.3,1.5-0.3c0.6,0,1.2,0.2,1.7,0.5c0.5,0.3,0.9,0.8,1.3,1.3v-1.6h0.9
		v7.9c0,1-0.4,1.9-1.1,2.5c-0.4,0.3-0.8,0.5-1.2,0.6c-0.5,0.1-1,0.2-1.5,0.2c-0.8,0-1.5-0.1-2.2-0.5c-0.5-0.3-1-0.8-1.3-1.3l0.6-0.5
		c0.3,0.5,0.7,0.9,1.2,1.1c0.5,0.2,1.1,0.4,1.7,0.4c0.4,0,0.7-0.1,1.1-0.2c0.3-0.1,0.6-0.3,0.9-0.5c0.3-0.2,0.5-0.5,0.6-0.8
		c0.1-0.3,0.2-0.7,0.2-1.1V274c-0.3,0.5-0.7,0.9-1.2,1.2C143.3,275.5,142.7,275.6,142.1,275.7z M142.4,274.8c0.3,0,0.6-0.1,0.9-0.2
		c0.3-0.1,0.6-0.3,0.8-0.4c0.2-0.2,0.4-0.4,0.6-0.6c0.2-0.2,0.3-0.5,0.3-0.7v-2.4c-0.1-0.3-0.3-0.5-0.4-0.8c-0.4-0.5-0.9-0.8-1.4-1
		c-0.3-0.1-0.5-0.1-0.8-0.1c-0.4,0-0.8,0.1-1.2,0.3c-0.7,0.4-1.2,1-1.4,1.8c-0.1,0.4-0.2,0.8-0.2,1.2c0,0.4,0.1,0.8,0.2,1.2
		c0.1,0.4,0.3,0.7,0.6,1c0.3,0.3,0.6,0.5,0.9,0.7C141.6,274.7,142,274.8,142.4,274.8L142.4,274.8z"/>
	<path class="st1" d="M154.8,275.6h-1v-4.4c0.1-0.7-0.1-1.4-0.5-2c-0.3-0.4-0.8-0.7-1.3-0.7c-0.3,0-0.6,0.1-0.9,0.2
		c-0.3,0.1-0.6,0.3-0.8,0.5c-0.2,0.2-0.5,0.4-0.6,0.7c-0.2,0.3-0.3,0.6-0.4,0.9v4.8h-1v-10.9h1v4.9c0.3-0.6,0.7-1.1,1.3-1.4
		c0.5-0.3,1.2-0.5,1.8-0.5c0.4,0,0.8,0.1,1.1,0.2c0.3,0.2,0.6,0.4,0.8,0.7c0.2,0.3,0.4,0.7,0.4,1.1c0.1,0.5,0.1,0.9,0.1,1.4
		L154.8,275.6z"/>
	<path class="st1" d="M164.6,275.2l-0.3,0.1l-0.4,0.1c-0.2,0.1-0.3,0.1-0.5,0.1c-0.2,0-0.4,0.1-0.6,0.1c-0.2,0-0.4,0-0.6-0.1
		c-0.2-0.1-0.4-0.2-0.5-0.3c-0.2-0.1-0.3-0.3-0.4-0.5c-0.1-0.2-0.1-0.4-0.1-0.7v-5.6h-1.1v-0.8h1.1v-2.6h1v2.6h1.8v0.8h-1.8v5.3
		c0,0.2,0.1,0.5,0.3,0.6c0.2,0.1,0.4,0.2,0.6,0.2c0.3,0,0.5,0,0.8-0.1c0.1-0.1,0.3-0.1,0.4-0.2L164.6,275.2z"/>
	<path class="st1" d="M172.4,275.6h-1v-4.4c0-0.7-0.1-1.4-0.4-2c-0.3-0.4-0.8-0.7-1.4-0.7c-0.3,0-0.6,0.1-0.9,0.2
		c-0.3,0.1-0.6,0.3-0.8,0.5c-0.3,0.2-0.5,0.4-0.6,0.7c-0.2,0.3-0.3,0.6-0.4,0.9v4.8h-1v-10.9h1v4.9c0.3-0.6,0.7-1.1,1.3-1.4
		c0.5-0.3,1.2-0.5,1.8-0.5c0.4,0,0.8,0.1,1.1,0.2c0.3,0.2,0.6,0.4,0.8,0.7c0.2,0.3,0.4,0.7,0.4,1.1c0.1,0.5,0.1,0.9,0.1,1.4
		L172.4,275.6z"/>
	<path class="st1" d="M178,275.7c-0.5,0-1.1-0.1-1.6-0.3c-0.5-0.2-0.9-0.5-1.2-0.9c-1.1-1.2-1.4-2.9-0.8-4.4
		c0.2-0.5,0.5-0.9,0.8-1.3c0.4-0.4,0.8-0.7,1.2-0.9c1.5-0.7,3.2-0.3,4.4,0.9c0.3,0.4,0.6,0.8,0.8,1.3c0.2,0.5,0.3,1,0.3,1.5v0.2
		c0,0.1,0,0.1,0,0.2h-6.7c0,0.4,0.1,0.8,0.3,1.2c0.2,0.3,0.4,0.7,0.6,0.9c0.3,0.3,0.6,0.5,0.9,0.6c0.3,0.1,0.7,0.2,1.1,0.2
		c0.3,0,0.5,0,0.8-0.1c0.2-0.1,0.5-0.2,0.7-0.3c0.2-0.1,0.4-0.3,0.6-0.5c0.2-0.2,0.3-0.4,0.4-0.6l0.9,0.2c-0.1,0.3-0.3,0.6-0.5,0.8
		c-0.2,0.2-0.5,0.4-0.8,0.6c-0.3,0.2-0.6,0.3-1,0.4C178.7,275.7,178.4,275.7,178,275.7z M180.9,271.2c0-0.4-0.1-0.8-0.3-1.1
		c-0.2-0.3-0.4-0.6-0.6-0.9c-0.3-0.3-0.6-0.5-0.9-0.6c-1-0.4-2.2-0.2-3.1,0.6c-0.3,0.3-0.5,0.6-0.6,0.9c-0.2,0.4-0.3,0.7-0.3,1.1
		H180.9z"/>
	<path class="st1" d="M186.7,271.6c0-0.5,0.1-1.1,0.3-1.6c0.2-0.5,0.5-0.9,0.8-1.3c0.3-0.4,0.8-0.7,1.2-0.9c0.5-0.2,1-0.3,1.6-0.3
		c0.7,0,1.4,0.2,1.9,0.5c0.5,0.3,1,0.8,1.2,1.4l-1,0.3c-0.2-0.4-0.5-0.7-0.9-0.9c-0.8-0.4-1.7-0.4-2.4-0.1c-0.3,0.2-0.6,0.4-0.9,0.6
		c-0.3,0.3-0.5,0.6-0.6,1c-0.1,0.4-0.2,0.8-0.2,1.2c0,0.4,0.1,0.8,0.2,1.2c0.1,0.4,0.3,0.7,0.6,1c0.3,0.3,0.6,0.5,0.9,0.7
		c0.3,0.2,0.7,0.2,1.1,0.2c0.3,0,0.5,0,0.8-0.1c0.2-0.1,0.5-0.2,0.7-0.3c0.2-0.1,0.4-0.3,0.5-0.4c0.1-0.1,0.2-0.3,0.3-0.5l1,0.3
		c-0.1,0.3-0.3,0.5-0.5,0.8c-0.2,0.2-0.5,0.4-0.7,0.6c-0.3,0.2-0.6,0.3-0.9,0.4c-1.4,0.4-2.9,0-3.9-1.1
		C187.1,273.7,186.7,272.7,186.7,271.6L186.7,271.6z"/>
	<path class="st1" d="M202,275.6h-1v-4.4c0-0.7-0.1-1.4-0.4-2c-0.3-0.4-0.8-0.7-1.4-0.7c-0.3,0-0.6,0.1-0.9,0.2
		c-0.3,0.1-0.6,0.3-0.8,0.5c-0.3,0.2-0.5,0.4-0.6,0.7c-0.2,0.3-0.3,0.6-0.4,0.9v4.8h-1v-10.9h1v4.9c0.3-0.6,0.7-1.1,1.3-1.4
		c0.5-0.3,1.2-0.5,1.8-0.5c0.4,0,0.8,0.1,1.1,0.2c0.3,0.2,0.6,0.4,0.8,0.7c0.2,0.3,0.4,0.7,0.4,1.1c0.1,0.5,0.1,0.9,0.1,1.4V275.6z"
		/>
	<path class="st1" d="M206.2,275.7c-0.3,0-0.7-0.1-1-0.2c-0.3-0.1-0.6-0.3-0.8-0.5c-0.2-0.2-0.4-0.5-0.6-0.8c-0.1-0.3-0.2-0.7-0.2-1
		c0-0.3,0.1-0.7,0.2-1c0.2-0.3,0.4-0.6,0.7-0.8c0.3-0.2,0.6-0.4,1-0.5c0.4-0.1,0.9-0.2,1.3-0.2c0.4,0,0.8,0,1.2,0.1
		c0.4,0.1,0.7,0.2,1.1,0.3v-0.7c0-0.6-0.2-1.2-0.6-1.6c-0.4-0.4-1-0.6-1.6-0.6c-0.4,0-0.8,0.1-1.2,0.2c-0.5,0.2-0.9,0.4-1.3,0.7
		l-0.4-0.7c0.9-0.6,1.9-1,2.9-1c0.8,0,1.7,0.2,2.3,0.8c0.6,0.6,0.9,1.4,0.8,2.3v3.5c0,0.3,0.1,0.4,0.4,0.4v0.9c-0.1,0-0.3,0-0.4,0
		c-0.2,0-0.4-0.1-0.6-0.2c-0.2-0.1-0.2-0.3-0.2-0.5v-0.6c-0.4,0.5-0.8,0.8-1.4,1.1C207.4,275.5,206.8,275.7,206.2,275.7z
		 M206.4,274.9c0.5,0,1-0.1,1.5-0.3c0.4-0.2,0.7-0.4,1-0.8c0.1-0.1,0.2-0.2,0.2-0.3c0-0.1,0.1-0.2,0.1-0.3V272
		c-0.3-0.1-0.7-0.2-1.1-0.3c-0.4-0.1-0.7-0.1-1.1-0.1c-0.6,0-1.2,0.1-1.8,0.5c-0.4,0.2-0.7,0.7-0.7,1.2c0,0.2,0,0.5,0.1,0.7
		c0.1,0.2,0.2,0.4,0.4,0.5c0.2,0.2,0.4,0.3,0.6,0.4C205.9,274.9,206.2,274.9,206.4,274.9z"/>
	<path class="st1" d="M216.4,275.7c-0.6,0-1.2-0.2-1.7-0.5c-0.5-0.3-0.9-0.8-1.2-1.3v4.8h-1v-11h0.9v1.5c0.3-0.5,0.7-0.9,1.2-1.2
		c0.5-0.3,1.1-0.5,1.7-0.5c0.5,0,1,0.1,1.5,0.3c0.4,0.2,0.8,0.5,1.2,0.9c0.7,0.8,1,1.8,1,2.8c0,0.5-0.1,1.1-0.2,1.6
		c-0.2,0.5-0.4,0.9-0.7,1.3c-0.3,0.4-0.7,0.7-1.1,0.9C217.3,275.6,216.9,275.7,216.4,275.7z M216.1,274.8c0.4,0,0.8-0.1,1.1-0.3
		c0.3-0.2,0.6-0.4,0.9-0.7c0.2-0.3,0.4-0.6,0.6-1c0.1-0.4,0.2-0.8,0.2-1.2c0-0.4-0.1-0.8-0.2-1.2c-0.1-0.4-0.3-0.7-0.6-1
		c-0.3-0.3-0.6-0.5-0.9-0.7c-0.4-0.2-0.8-0.3-1.1-0.2c-0.3,0-0.6,0.1-0.8,0.1c-0.3,0.1-0.5,0.2-0.8,0.4c-0.2,0.2-0.5,0.4-0.6,0.6
		c-0.2,0.2-0.3,0.5-0.3,0.7v2.4c0.1,0.3,0.3,0.5,0.5,0.8c0.2,0.2,0.4,0.4,0.6,0.6c0.2,0.2,0.5,0.3,0.8,0.4
		C215.5,274.8,215.8,274.8,216.1,274.8z"/>
	<path class="st1" d="M225.3,275.2l-0.3,0.1l-0.4,0.1c-0.2,0.1-0.3,0.1-0.5,0.1c-0.2,0-0.4,0.1-0.6,0.1c-0.2,0-0.4,0-0.6-0.1
		c-0.2-0.1-0.4-0.2-0.5-0.3c-0.2-0.1-0.3-0.3-0.4-0.5c-0.1-0.2-0.1-0.4-0.1-0.7v-5.6h-1.1v-0.8h1.1v-2.6h1v2.6h1.8v0.8h-1.8v5.3
		c0,0.2,0.1,0.5,0.3,0.6c0.2,0.1,0.4,0.2,0.6,0.2c0.3,0,0.5,0,0.8-0.1l0.4-0.2L225.3,275.2z"/>
	<path class="st1" d="M229.7,275.7c-0.5,0-1.1-0.1-1.6-0.3c-0.5-0.2-0.9-0.5-1.2-0.9c-1.1-1.2-1.4-2.9-0.8-4.4
		c0.2-0.5,0.5-0.9,0.8-1.3c0.3-0.4,0.8-0.7,1.2-0.9c1-0.4,2.1-0.4,3.1,0c0.5,0.2,0.9,0.5,1.2,0.9c0.7,0.8,1.1,1.8,1.1,2.8v0.2
		c0,0.1,0,0.1,0,0.2h-6.7c0,0.4,0.1,0.8,0.3,1.2c0.2,0.3,0.4,0.7,0.6,0.9c0.3,0.3,0.6,0.5,0.9,0.6c0.6,0.2,1.2,0.3,1.8,0.1
		c0.2-0.1,0.5-0.2,0.7-0.3c0.2-0.1,0.4-0.3,0.6-0.5c0.2-0.2,0.3-0.4,0.4-0.6l0.9,0.2c-0.1,0.3-0.3,0.6-0.5,0.8
		c-0.2,0.2-0.5,0.4-0.8,0.6c-0.3,0.2-0.6,0.3-1,0.4C230.5,275.7,230.1,275.7,229.7,275.7z M232.6,271.2c-0.1-0.8-0.4-1.5-0.9-2
		c-0.3-0.3-0.6-0.5-0.9-0.6c-0.3-0.1-0.7-0.2-1.1-0.2c-0.4,0-0.7,0.1-1.1,0.2c-0.3,0.1-0.6,0.3-0.9,0.6c-0.3,0.3-0.5,0.6-0.6,0.9
		c-0.2,0.4-0.3,0.7-0.3,1.1L232.6,271.2z"/>
	<path class="st1" d="M239.1,268.6c-0.6,0-1.3,0.2-1.8,0.6c-0.5,0.4-0.9,0.9-1.1,1.5v4.9h-1v-7.8h1v1.9c0.3-0.6,0.7-1.1,1.2-1.4
		c0.5-0.3,1-0.5,1.6-0.5h0.2L239.1,268.6z"/>
	<path class="st1" d="M243,275.7c-0.6,0-1.2-0.1-1.8-0.3c-0.6-0.2-1.1-0.5-1.5-0.9l0.5-0.7c0.4,0.3,0.9,0.6,1.3,0.8
		c0.5,0.2,1,0.3,1.5,0.3c0.5,0,1.1-0.1,1.5-0.4c0.4-0.2,0.6-0.6,0.6-1.1c0-0.2,0-0.4-0.1-0.5c-0.1-0.2-0.3-0.3-0.4-0.4
		c-0.2-0.1-0.5-0.2-0.7-0.3l-1-0.3c-0.4-0.1-0.8-0.2-1.2-0.3c-0.3-0.1-0.6-0.2-0.8-0.4c-0.2-0.1-0.4-0.3-0.5-0.5
		c-0.1-0.2-0.2-0.5-0.2-0.8c0-0.3,0.1-0.7,0.2-1c0.1-0.3,0.4-0.5,0.6-0.7c0.3-0.2,0.6-0.4,0.9-0.4c0.4-0.1,0.7-0.2,1.1-0.1
		c0.6,0,1.1,0.1,1.6,0.3c0.4,0.2,0.9,0.4,1.2,0.8l-0.5,0.6c-0.3-0.3-0.6-0.5-1-0.7c-0.4-0.2-0.9-0.2-1.3-0.2c-0.3,0-0.5,0-0.8,0.1
		c-0.2,0.1-0.4,0.1-0.6,0.3c-0.2,0.1-0.3,0.3-0.4,0.5c-0.1,0.2-0.2,0.4-0.1,0.7c0,0.2,0,0.4,0.1,0.5c0.1,0.1,0.2,0.3,0.4,0.3
		c0.2,0.1,0.4,0.2,0.6,0.3c0.2,0.1,0.5,0.1,0.9,0.2c0.5,0.1,0.9,0.2,1.3,0.4c0.4,0.1,0.7,0.2,1,0.4c0.2,0.1,0.4,0.3,0.6,0.6
		c0.1,0.3,0.2,0.5,0.2,0.8c0,0.7-0.3,1.3-0.8,1.7C244.7,275.6,243.8,275.8,243,275.7z"/>
	<rect x="76.2" y="31" class="st1" width="0.8" height="0.4"/>
	<path class="st1" d="M77,77.8h-0.8v-0.8H77V77.8z M77,75.1h-0.8v-0.8H77V75.1z M77,72.4h-0.8v-0.8H77V72.4z M77,69.6h-0.8v-0.8H77
		V69.6z M77,66.9h-0.8v-0.8H77V66.9z M77,64.2h-0.8v-0.8H77V64.2z M77,61.5h-0.8v-0.8H77V61.5z M77,58.7h-0.8V58H77V58.7z M77,56
		h-0.8v-0.8H77V56z M77,53.3h-0.8v-0.8H77V53.3z M77,50.5h-0.8v-0.8H77V50.5z M77,47.8h-0.8V47H77V47.8z M77,45.1h-0.8v-0.8H77V45.1
		z M77,42.4h-0.8v-0.8H77V42.4z M77,39.6h-0.8v-0.8H77V39.6z M77,36.9h-0.8v-0.8H77V36.9z M77,34.2h-0.8v-0.8H77V34.2z"/>
	<rect x="76.2" y="79.8" class="st1" width="0.8" height="0.4"/>
	<path class="st1" d="M73.6,35.4c0.1,0.1,0.3,0.1,0.4-0.1c0,0,0,0,0,0l2.6-4.1l2.6,4.1c0.1,0.1,0.3,0.2,0.4,0.1c0,0,0,0,0,0
		c0.1-0.1,0.2-0.3,0.1-0.4l-2.9-4.5c-0.1-0.1-0.3-0.2-0.4-0.1c0,0-0.1,0.1-0.1,0.1L73.5,35c0,0.1,0,0.1,0,0.2
		C73.5,35.3,73.5,35.3,73.6,35.4z"/>
	<rect x="141.1" y="31" class="st1" width="0.8" height="0.4"/>
	<path class="st1" d="M142,77.8h-0.8v-0.8h0.8V77.8z M142,75.1h-0.8v-0.8h0.8V75.1z M142,72.4h-0.8v-0.8h0.8V72.4z M142,69.6h-0.8
		v-0.8h0.8V69.6z M142,66.9h-0.8v-0.8h0.8V66.9z M142,64.2h-0.8v-0.8h0.8V64.2z M142,61.5h-0.8v-0.8h0.8V61.5z M142,58.7h-0.8V58
		h0.8V58.7z M142,56h-0.8v-0.8h0.8V56z M142,53.3h-0.8v-0.8h0.8V53.3z M142,50.5h-0.8v-0.8h0.8V50.5z M142,47.8h-0.8V47h0.8V47.8z
		 M142,45.1h-0.8v-0.8h0.8V45.1z M142,42.4h-0.8v-0.8h0.8V42.4z M142,39.6h-0.8v-0.8h0.8V39.6z M142,36.9h-0.8v-0.8h0.8V36.9z
		 M142,34.2h-0.8v-0.8h0.8V34.2z"/>
	<rect x="141.1" y="79.8" class="st1" width="0.8" height="0.4"/>
	<path class="st1" d="M138.5,35.4c0.1,0.1,0.3,0.1,0.4-0.1c0,0,0,0,0,0l2.6-4.1l2.6,4.1c0.1,0.1,0.3,0.2,0.4,0.1c0,0,0,0,0,0
		c0.1-0.1,0.2-0.3,0.1-0.4l-2.9-4.5c-0.1-0.1-0.2-0.1-0.3-0.1c-0.1,0-0.2,0.1-0.3,0.1l-2.9,4.6c0,0.1,0,0.1,0,0.2
		C138.4,35.3,138.4,35.3,138.5,35.4z"/>
	<rect x="206.1" y="31" class="st1" width="0.8" height="0.4"/>
	<path class="st1" d="M206.9,77.8h-0.8v-0.8h0.8V77.8z M206.9,75.1h-0.8v-0.8h0.8V75.1z M206.9,72.4h-0.8v-0.8h0.8V72.4z
		 M206.9,69.6h-0.8v-0.8h0.8V69.6z M206.9,66.9h-0.8v-0.8h0.8V66.9z M206.9,64.2h-0.8v-0.8h0.8V64.2z M206.9,61.5h-0.8v-0.8h0.8
		V61.5z M206.9,58.7h-0.8V58h0.8V58.7z M206.9,56h-0.8v-0.8h0.8V56z M206.9,53.3h-0.8v-0.8h0.8V53.3z M206.9,50.5h-0.8v-0.8h0.8
		V50.5z M206.9,47.8h-0.8V47h0.8V47.8z M206.9,45.1h-0.8v-0.8h0.8V45.1z M206.9,42.4h-0.8v-0.8h0.8V42.4z M206.9,39.6h-0.8v-0.8h0.8
		V39.6z M206.9,36.9h-0.8v-0.8h0.8V36.9z M206.9,34.2h-0.8v-0.8h0.8V34.2z"/>
	<rect x="206.1" y="79.8" class="st1" width="0.8" height="0.4"/>
	<path class="st1" d="M203.4,35.4c0.1,0.1,0.3,0.1,0.4-0.1c0,0,0,0,0,0l2.6-4.1l2.6,4.1c0.1,0.1,0.3,0.2,0.4,0.1c0,0,0,0,0,0
		c0.1-0.1,0.2-0.3,0.1-0.4l-2.9-4.5c-0.1-0.1-0.2-0.1-0.3-0.1c-0.1,0-0.2,0.1-0.3,0.1l-2.9,4.6c0,0.1,0,0.1-0.1,0.2
		C203.2,35.3,203.3,35.4,203.4,35.4z"/>
	<rect x="271" y="31" class="st1" width="0.8" height="0.4"/>
	<path class="st1" d="M271.8,77.8H271v-0.8h0.8L271.8,77.8z M271.8,75.1H271v-0.8h0.8L271.8,75.1z M271.8,72.4H271v-0.8h0.8
		L271.8,72.4z M271.8,69.6H271v-0.8h0.8L271.8,69.6z M271.8,66.9H271v-0.8h0.8L271.8,66.9z M271.8,64.2H271v-0.8h0.8L271.8,64.2z
		 M271.8,61.5H271v-0.8h0.8L271.8,61.5z M271.8,58.7H271V58h0.8L271.8,58.7z M271.8,56H271v-0.8h0.8L271.8,56z M271.8,53.3H271v-0.8
		h0.8L271.8,53.3z M271.8,50.5H271v-0.8h0.8L271.8,50.5z M271.8,47.8H271V47h0.8L271.8,47.8z M271.8,45.1H271v-0.8h0.8L271.8,45.1z
		 M271.8,42.4H271v-0.8h0.8L271.8,42.4z M271.8,39.6H271v-0.8h0.8L271.8,39.6z M271.8,36.9H271v-0.8h0.8L271.8,36.9z M271.8,34.2
		H271v-0.8h0.8L271.8,34.2z"/>
	<rect x="271" y="79.8" class="st1" width="0.8" height="0.4"/>
	<path class="st1" d="M268.3,35.4c0.1,0.1,0.3,0.1,0.4-0.1c0,0,0,0,0,0l2.6-4.1l2.6,4.1c0.1,0.1,0.3,0.2,0.4,0.1s0.2-0.3,0.1-0.4
		l-2.9-4.5c-0.1-0.1-0.3-0.2-0.4-0.1c0,0-0.1,0.1-0.1,0.1l-2.9,4.6c0,0.1,0,0.1,0,0.2C268.2,35.3,268.2,35.4,268.3,35.4z"/>
	<path class="st1" d="M271.4,80.6h-0.8v-0.8h0.8V80.6z M268.6,80.6h-0.8v-0.8h0.8V80.6z M265.8,80.6H265v-0.8h0.8L265.8,80.6z
		 M263,80.6h-0.8v-0.8h0.8V80.6z M260.2,80.6h-0.8v-0.8h0.8V80.6z M257.4,80.6h-0.8v-0.8h0.8V80.6z M254.6,80.6h-0.8v-0.8h0.8V80.6z
		 M251.8,80.6H251v-0.8h0.8L251.8,80.6z M249,80.6h-0.8v-0.8h0.8V80.6z M246.2,80.6h-0.8v-0.8h0.8V80.6z M243.4,80.6h-0.8v-0.8h0.8
		V80.6z M240.6,80.6h-0.8v-0.8h0.8V80.6z M237.8,80.6H237v-0.8h0.8L237.8,80.6z M235,80.6h-0.8v-0.8h0.8V80.6z M232.2,80.6h-0.8
		v-0.8h0.8V80.6z M229.4,80.6h-0.8v-0.8h0.8V80.6z M226.6,80.6h-0.8v-0.8h0.8V80.6z M223.8,80.6H223v-0.8h0.8L223.8,80.6z M221,80.6
		h-0.8v-0.8h0.8V80.6z M218.2,80.6h-0.8v-0.8h0.8V80.6z M215.4,80.6h-0.8v-0.8h0.8V80.6z M212.6,80.6h-0.8v-0.8h0.8V80.6z
		 M209.8,80.6H209v-0.8h0.8L209.8,80.6z M207,80.6h-0.8v-0.8h0.8V80.6z M204.2,80.6h-0.8v-0.8h0.8V80.6z M201.4,80.6h-0.8v-0.8h0.8
		V80.6z M198.6,80.6h-0.8v-0.8h0.8V80.6z M195.8,80.6H195v-0.8h0.8L195.8,80.6z M193,80.6h-0.8v-0.8h0.8V80.6z M190.2,80.6h-0.8
		v-0.8h0.8V80.6z M187.4,80.6h-0.8v-0.8h0.8V80.6z M184.6,80.6h-0.8v-0.8h0.8V80.6z M181.8,80.6H181v-0.8h0.8L181.8,80.6z M179,80.6
		h-0.8v-0.8h0.8V80.6z M176.2,80.6h-0.8v-0.8h0.8V80.6z M173.4,80.6h-0.8v-0.8h0.8V80.6z M170.6,80.6h-0.8v-0.8h0.8V80.6z
		 M167.8,80.6H167v-0.8h0.8L167.8,80.6z M165,80.6h-0.8v-0.8h0.8V80.6z M162.2,80.6h-0.8v-0.8h0.8V80.6z M159.4,80.6h-0.8v-0.8h0.8
		V80.6z M156.6,80.6h-0.8v-0.8h0.8V80.6z M153.8,80.6H153v-0.8h0.8L153.8,80.6z M151,80.6h-0.8v-0.8h0.8V80.6z M148.2,80.6h-0.8
		v-0.8h0.8V80.6z M145.4,80.6h-0.8v-0.8h0.8V80.6z M142.6,80.6h-0.8v-0.8h0.8V80.6z M139.8,80.6H139v-0.8h0.8L139.8,80.6z M137,80.6
		h-0.8v-0.8h0.8V80.6z M134.2,80.6h-0.8v-0.8h0.8V80.6z M131.4,80.6h-0.8v-0.8h0.8V80.6z M128.6,80.6h-0.8v-0.8h0.8V80.6z
		 M125.8,80.6H125v-0.8h0.8L125.8,80.6z M123,80.6h-0.8v-0.8h0.8V80.6z M120.2,80.6h-0.8v-0.8h0.8V80.6z M117.4,80.6h-0.8v-0.8h0.8
		V80.6z M114.6,80.6h-0.8v-0.8h0.8V80.6z M111.8,80.6H111v-0.8h0.8L111.8,80.6z M109,80.6h-0.8v-0.8h0.8V80.6z M106.2,80.6h-0.8
		v-0.8h0.8V80.6z M103.4,80.6h-0.8v-0.8h0.8V80.6z M100.6,80.6h-0.8v-0.8h0.8V80.6z M97.8,80.6H97v-0.8h0.8L97.8,80.6z M95,80.6
		h-0.8v-0.8H95L95,80.6z M92.2,80.6h-0.8v-0.8h0.8V80.6z M89.4,80.6h-0.8v-0.8h0.8V80.6z M86.6,80.6h-0.8v-0.8h0.8V80.6z M83.8,80.6
		H83v-0.8h0.8L83.8,80.6z M81,80.6h-0.8v-0.8H81L81,80.6z M78.2,80.6h-0.8v-0.8h0.8V80.6z"/>
	<path class="st1" d="M33.8,387.5v-10.6h7v0.9h-6v3.9h5v0.9h-5v4.9H33.8z"/>
	<path class="st1" d="M45.2,387.7c-0.5,0-1.1-0.1-1.6-0.3c-0.5-0.2-0.9-0.5-1.2-0.9c-0.3-0.4-0.6-0.8-0.8-1.3
		c-0.2-0.5-0.3-1-0.3-1.5c0-1.1,0.4-2.1,1.1-2.9c0.3-0.4,0.8-0.7,1.2-0.9c0.5-0.2,1-0.3,1.5-0.3c0.5,0,1.1,0.1,1.5,0.3
		c0.5,0.2,0.9,0.5,1.2,0.9c0.4,0.4,0.6,0.8,0.8,1.3c0.2,0.5,0.3,1,0.3,1.6c0,0.5-0.1,1-0.3,1.5c-0.2,0.5-0.5,0.9-0.8,1.3
		c-0.3,0.4-0.8,0.7-1.2,0.9C46.3,387.6,45.8,387.7,45.2,387.7z M42.4,383.7c0,0.8,0.3,1.6,0.8,2.2c0.3,0.3,0.6,0.5,0.9,0.7
		c0.7,0.3,1.5,0.3,2.2,0c0.3-0.2,0.7-0.4,0.9-0.7c0.3-0.3,0.5-0.6,0.6-1c0.3-0.8,0.3-1.7,0-2.5c-0.1-0.4-0.4-0.7-0.6-1
		c-0.3-0.3-0.6-0.5-0.9-0.7c-0.3-0.2-0.7-0.2-1.1-0.2c-0.4,0-0.7,0.1-1.1,0.2c-0.3,0.2-0.6,0.4-0.9,0.7c-0.3,0.3-0.5,0.6-0.6,1
		C42.4,382.8,42.4,383.2,42.4,383.7L42.4,383.7z"/>
	<path class="st1" d="M54.7,380.6c-0.6,0-1.3,0.2-1.8,0.6c-0.5,0.4-0.9,0.9-1.1,1.5v4.9h-1v-7.8h1v1.9c0.3-0.6,0.7-1.1,1.2-1.4
		c0.5-0.3,1-0.5,1.6-0.5h0.2L54.7,380.6z"/>
	<path class="st1" d="M62.9,387.7c-0.5,0-1.1-0.1-1.6-0.3c-0.5-0.2-0.9-0.5-1.2-0.9c-0.4-0.4-0.6-0.8-0.8-1.3
		c-0.2-0.5-0.3-1-0.3-1.6c0-0.5,0.1-1.1,0.3-1.5c0.2-0.5,0.5-0.9,0.8-1.3c0.3-0.4,0.8-0.7,1.2-0.9c0.5-0.2,1-0.3,1.6-0.3
		c1.1,0,2.1,0.4,2.8,1.2c0.7,0.8,1.1,1.8,1.1,2.8v0.2c0,0.1,0,0.1,0,0.2h-6.7c0,0.4,0.1,0.8,0.3,1.2c0.2,0.3,0.4,0.7,0.6,0.9
		c0.3,0.3,0.6,0.5,0.9,0.6c0.3,0.1,0.7,0.2,1.1,0.2c0.3,0,0.5,0,0.8-0.1c0.2-0.1,0.5-0.2,0.7-0.3c0.2-0.1,0.4-0.3,0.6-0.4
		c0.2-0.2,0.3-0.4,0.4-0.6l0.9,0.2c-0.1,0.3-0.3,0.6-0.5,0.8c-0.2,0.2-0.5,0.4-0.8,0.6c-0.3,0.2-0.6,0.3-1,0.4
		C63.6,387.6,63.3,387.7,62.9,387.7z M65.8,383.2c0-0.4-0.1-0.8-0.3-1.1c-0.2-0.3-0.4-0.6-0.6-0.9c-0.3-0.2-0.6-0.4-0.9-0.6
		c-0.3-0.1-0.7-0.2-1.1-0.2c-0.4,0-0.7,0.1-1.1,0.2c-0.3,0.1-0.6,0.3-0.9,0.6c-0.3,0.3-0.5,0.6-0.6,0.9c-0.2,0.4-0.2,0.7-0.3,1.1
		H65.8z"/>
	<path class="st1" d="M70.3,387.7c-0.3,0-0.7-0.1-1-0.2c-0.3-0.1-0.6-0.3-0.8-0.5c-0.2-0.2-0.4-0.5-0.5-0.8c-0.1-0.3-0.2-0.7-0.2-1
		c0-0.3,0.1-0.7,0.2-0.9c0.2-0.3,0.4-0.6,0.7-0.8c0.3-0.2,0.6-0.4,1-0.5c0.4-0.1,0.9-0.2,1.3-0.2c0.4,0,0.8,0,1.2,0.1
		c0.4,0.1,0.7,0.2,1.1,0.3v-0.7c0-0.6-0.2-1.2-0.6-1.6c-0.4-0.4-1-0.6-1.6-0.6c-0.4,0-0.8,0.1-1.2,0.2c-0.5,0.2-0.9,0.4-1.3,0.7
		l-0.4-0.7c0.9-0.6,1.9-1,2.9-1c0.9,0,1.7,0.3,2.3,0.8c0.6,0.6,0.9,1.4,0.8,2.3v3.5c0,0.3,0.1,0.4,0.4,0.4v0.9c-0.1,0-0.3,0-0.4,0
		c-0.2,0-0.4-0.1-0.6-0.2c-0.2-0.1-0.2-0.3-0.2-0.5v-0.6c-0.4,0.5-0.8,0.8-1.4,1.1C71.5,387.5,70.9,387.7,70.3,387.7z M70.5,386.9
		c0.5,0,1-0.1,1.5-0.3c0.4-0.2,0.7-0.4,1-0.8c0.1-0.1,0.2-0.2,0.2-0.3c0-0.1,0.1-0.2,0.1-0.3V384c-0.3-0.1-0.7-0.2-1.1-0.3
		c-0.4-0.1-0.7-0.1-1.1-0.1c-0.6,0-1.2,0.1-1.8,0.5c-0.4,0.2-0.7,0.7-0.7,1.2c0,0.5,0.2,0.9,0.5,1.2c0.2,0.2,0.4,0.3,0.6,0.4
		C70,386.9,70.3,386.9,70.5,386.9z"/>
	<path class="st1" d="M76,383.6c0-0.5,0.1-1.1,0.3-1.6c0.2-0.5,0.5-0.9,0.8-1.3c0.4-0.4,0.8-0.7,1.2-0.9c0.5-0.2,1-0.3,1.6-0.3
		c0.7,0,1.3,0.2,1.9,0.5c0.5,0.3,1,0.8,1.2,1.4l-1,0.3c-0.2-0.4-0.5-0.7-0.9-0.9c-0.4-0.2-0.9-0.3-1.3-0.3c-0.4,0-0.8,0.1-1.1,0.2
		c-0.3,0.2-0.6,0.4-0.9,0.7c-0.3,0.3-0.5,0.6-0.6,1c-0.2,0.4-0.2,0.8-0.2,1.2c0,0.4,0.1,0.8,0.2,1.2c0.1,0.4,0.4,0.7,0.6,1
		c0.3,0.3,0.6,0.5,0.9,0.7c0.3,0.2,0.7,0.2,1.1,0.2c0.3,0,0.5,0,0.7-0.1c0.2-0.1,0.5-0.2,0.7-0.3c0.2-0.1,0.4-0.3,0.5-0.4
		c0.1-0.1,0.3-0.3,0.3-0.5l1,0.3c-0.1,0.3-0.3,0.5-0.5,0.8c-0.2,0.2-0.5,0.5-0.8,0.6c-0.3,0.2-0.6,0.3-0.9,0.4
		c-0.4,0.1-0.7,0.1-1.1,0.1c-0.5,0-1.1-0.1-1.6-0.3c-0.5-0.2-0.9-0.5-1.2-0.9c-0.4-0.4-0.6-0.8-0.8-1.3
		C76.1,384.7,76,384.2,76,383.6z"/>
	<path class="st1" d="M91.3,387.5h-1v-4.4c0-0.7-0.1-1.4-0.5-2c-0.3-0.4-0.8-0.7-1.3-0.7c-0.3,0-0.6,0.1-0.9,0.2
		c-0.3,0.1-0.6,0.3-0.8,0.5c-0.3,0.2-0.5,0.4-0.7,0.7c-0.2,0.3-0.3,0.6-0.4,0.9v4.8h-1v-11h1v4.9c0.3-0.6,0.7-1.1,1.3-1.4
		c0.5-0.3,1.2-0.5,1.8-0.5c0.4,0,0.8,0.1,1.1,0.2c0.3,0.2,0.6,0.4,0.8,0.7c0.2,0.3,0.4,0.7,0.4,1.1c0.1,0.5,0.1,0.9,0.1,1.4
		L91.3,387.5z"/>
	<path class="st1" d="M96.8,383.6c0-0.5,0.1-1.1,0.3-1.6c0.2-0.5,0.5-0.9,0.8-1.3c0.4-0.4,0.8-0.7,1.2-0.9c0.5-0.2,1-0.3,1.6-0.3
		c0.7,0,1.3,0.2,1.9,0.5c0.5,0.3,1,0.8,1.2,1.4l-1,0.3c-0.2-0.4-0.5-0.7-0.9-0.9c-0.7-0.4-1.6-0.5-2.4-0.1c-0.3,0.2-0.6,0.4-0.9,0.7
		c-0.3,0.3-0.5,0.6-0.6,1c-0.1,0.4-0.2,0.8-0.2,1.2c0,0.4,0.1,0.9,0.2,1.2c0.1,0.4,0.4,0.7,0.6,1c0.3,0.3,0.6,0.5,0.9,0.7
		c0.3,0.2,0.7,0.2,1.1,0.2c0.3,0,0.5,0,0.7-0.1c0.2-0.1,0.5-0.2,0.7-0.3c0.2-0.1,0.4-0.3,0.5-0.4c0.1-0.1,0.3-0.3,0.3-0.5l1,0.3
		c-0.1,0.3-0.3,0.5-0.5,0.8c-0.2,0.2-0.5,0.4-0.7,0.6c-0.3,0.2-0.6,0.3-1,0.4c-0.3,0.1-0.7,0.1-1.1,0.1c-0.5,0-1.1-0.1-1.6-0.3
		c-0.5-0.2-0.9-0.5-1.2-0.9c-0.3-0.4-0.6-0.8-0.8-1.3C96.8,384.7,96.8,384.1,96.8,383.6z"/>
	<path class="st1" d="M112.1,387.5h-1v-4.4c0-0.7-0.1-1.4-0.5-2c-0.3-0.4-0.8-0.7-1.3-0.7c-0.3,0-0.6,0.1-0.9,0.2
		c-0.6,0.2-1.1,0.6-1.4,1.2c-0.2,0.3-0.3,0.6-0.4,0.9v4.8h-1v-11h1v4.9c0.3-0.6,0.7-1.1,1.3-1.4c0.5-0.3,1.2-0.5,1.8-0.5
		c0.4,0,0.8,0.1,1.1,0.2c0.3,0.2,0.6,0.4,0.8,0.7c0.2,0.3,0.4,0.7,0.4,1.1c0.1,0.5,0.1,0.9,0.1,1.4L112.1,387.5z"/>
	<path class="st1" d="M116.3,387.7c-0.3,0-0.7-0.1-1-0.2c-0.3-0.1-0.6-0.3-0.8-0.5c-0.2-0.2-0.4-0.5-0.5-0.8c-0.1-0.3-0.2-0.7-0.2-1
		c0-0.3,0.1-0.7,0.2-0.9c0.2-0.3,0.4-0.6,0.7-0.8c0.3-0.2,0.6-0.4,1-0.5c0.4-0.1,0.9-0.2,1.3-0.2c0.4,0,0.8,0,1.2,0.1
		c0.4,0.1,0.7,0.2,1.1,0.3v-0.7c0-0.6-0.2-1.2-0.6-1.6c-0.4-0.4-1-0.6-1.6-0.6c-0.4,0-0.8,0.1-1.2,0.2c-0.5,0.2-0.9,0.4-1.3,0.7
		l-0.4-0.7c0.9-0.6,1.9-1,2.9-1c0.9,0,1.7,0.3,2.3,0.8c0.6,0.6,0.9,1.4,0.8,2.3v3.5c0,0.3,0.1,0.4,0.4,0.4v0.9c-0.1,0-0.3,0-0.4,0
		c-0.2,0-0.4-0.1-0.6-0.2c-0.2-0.1-0.2-0.3-0.2-0.5v-0.6c-0.4,0.5-0.8,0.8-1.4,1.1C117.5,387.5,116.9,387.7,116.3,387.7z
		 M116.5,386.9c0.5,0,1-0.1,1.5-0.3c0.4-0.2,0.7-0.4,1-0.8c0.1-0.1,0.2-0.2,0.2-0.3c0-0.1,0.1-0.2,0.1-0.3V384
		c-0.3-0.1-0.7-0.2-1.1-0.3c-0.4-0.1-0.7-0.1-1.1-0.1c-0.6,0-1.2,0.1-1.8,0.5c-0.4,0.2-0.7,0.7-0.7,1.2c0,0.5,0.2,0.9,0.5,1.2
		c0.2,0.2,0.4,0.3,0.6,0.4C116,386.9,116.3,386.9,116.5,386.9z"/>
	<path class="st1" d="M126.5,387.7c-0.6,0-1.2-0.2-1.8-0.5c-0.5-0.3-0.9-0.8-1.2-1.3v4.8h-1v-11h0.9v1.5c0.3-0.5,0.7-0.9,1.2-1.2
		c0.5-0.3,1.1-0.5,1.7-0.5c0.5,0,1,0.1,1.5,0.3c0.4,0.2,0.8,0.5,1.2,0.9c0.7,0.8,1,1.8,1,2.8c0,0.5-0.1,1.1-0.3,1.6
		c-0.2,0.5-0.4,0.9-0.7,1.3c-0.3,0.4-0.7,0.7-1.1,0.9C127.4,387.6,127,387.7,126.5,387.7z M126.2,386.8c0.4,0,0.8-0.1,1.2-0.3
		c0.3-0.2,0.6-0.4,0.9-0.7c0.3-0.3,0.4-0.6,0.6-1c0.1-0.4,0.2-0.8,0.2-1.2c0-0.4-0.1-0.8-0.2-1.2c-0.1-0.4-0.4-0.7-0.6-1
		c-0.3-0.3-0.6-0.5-0.9-0.7c-0.4-0.2-0.8-0.3-1.2-0.3c-0.3,0-0.6,0.1-0.8,0.2c-0.3,0.1-0.5,0.2-0.8,0.4c-0.2,0.2-0.5,0.4-0.6,0.6
		c-0.2,0.2-0.3,0.5-0.3,0.7v2.4c0.1,0.3,0.3,0.5,0.4,0.8c0.2,0.2,0.4,0.4,0.6,0.6c0.2,0.2,0.5,0.3,0.8,0.4
		C125.6,386.7,125.9,386.8,126.2,386.8z"/>
	<path class="st1" d="M135.4,387.2l-0.3,0.1l-0.4,0.1c-0.2,0.1-0.3,0.1-0.5,0.1c-0.2,0-0.4,0.1-0.6,0.1c-0.2,0-0.4,0-0.6-0.1
		c-0.2-0.1-0.4-0.1-0.5-0.3c-0.2-0.1-0.3-0.3-0.4-0.5c-0.1-0.2-0.1-0.4-0.1-0.7v-5.6h-1.1v-0.8h1.1v-2.6h1v2.6h1.8v0.8H133v5.3
		c0,0.2,0.1,0.5,0.3,0.6c0.2,0.1,0.4,0.2,0.6,0.2c0.3,0,0.5,0,0.8-0.1l0.4-0.2L135.4,387.2z"/>
	<path class="st1" d="M139.8,387.7c-0.5,0-1.1-0.1-1.6-0.3c-0.5-0.2-0.9-0.5-1.2-0.9c-0.4-0.4-0.6-0.8-0.8-1.3
		c-0.2-0.5-0.3-1-0.3-1.6c0-0.5,0.1-1.1,0.3-1.5c0.2-0.5,0.5-0.9,0.8-1.3c0.3-0.4,0.8-0.7,1.2-0.9c0.5-0.2,1-0.3,1.6-0.3
		c1.1,0,2.1,0.4,2.8,1.2c0.7,0.8,1.1,1.8,1.1,2.8v0.2c0,0.1,0,0.1,0,0.2H137c0,0.4,0.1,0.8,0.3,1.2c0.2,0.3,0.4,0.7,0.6,0.9
		c0.3,0.3,0.6,0.5,0.9,0.6c0.3,0.1,0.7,0.2,1.1,0.2c0.3,0,0.5,0,0.8-0.1c0.2-0.1,0.5-0.2,0.7-0.3c0.2-0.1,0.4-0.3,0.6-0.4
		c0.2-0.2,0.3-0.4,0.4-0.6l0.9,0.2c-0.1,0.3-0.3,0.6-0.5,0.8c-0.2,0.2-0.5,0.4-0.8,0.6c-0.3,0.2-0.6,0.3-1,0.4
		C140.6,387.6,140.2,387.7,139.8,387.7z M142.7,383.2c0-0.4-0.1-0.8-0.3-1.1c-0.2-0.3-0.4-0.6-0.6-0.9c-0.3-0.2-0.6-0.4-0.9-0.6
		c-0.3-0.1-0.7-0.2-1.1-0.2c-0.4,0-0.7,0.1-1.1,0.2c-0.3,0.1-0.6,0.3-0.9,0.6c-0.3,0.3-0.5,0.6-0.6,0.9c-0.2,0.4-0.2,0.7-0.3,1.1
		H142.7z"/>
	<path class="st1" d="M149.2,380.6c-0.6,0-1.3,0.2-1.8,0.6c-0.5,0.4-0.9,0.9-1.1,1.5v4.9h-1v-7.8h1v1.9c0.3-0.6,0.7-1.1,1.2-1.4
		c0.5-0.3,1-0.5,1.6-0.5h0.2L149.2,380.6z"/>
	<path class="st1" d="M157.7,387.2l-0.3,0.1l-0.4,0.1c-0.2,0.1-0.3,0.1-0.5,0.1c-0.2,0-0.4,0.1-0.6,0.1c-0.2,0-0.4,0-0.6-0.1
		c-0.2-0.1-0.4-0.1-0.5-0.3c-0.2-0.1-0.3-0.3-0.4-0.5c-0.1-0.2-0.1-0.4-0.1-0.7v-5.6h-1.1v-0.8h1.1v-2.6h1v2.6h1.8v0.8h-1.8v5.3
		c0,0.2,0.1,0.5,0.3,0.6c0.2,0.1,0.4,0.2,0.6,0.2c0.3,0,0.5,0,0.8-0.1l0.4-0.2L157.7,387.2z"/>
	<path class="st1" d="M165.6,387.5h-1v-4.4c0-0.7-0.1-1.4-0.4-2c-0.3-0.4-0.8-0.7-1.3-0.7c-0.3,0-0.6,0.1-0.9,0.2
		c-0.6,0.2-1.1,0.6-1.4,1.2c-0.2,0.3-0.3,0.6-0.4,0.9v4.8h-1v-11h1v4.9c0.3-0.6,0.7-1.1,1.3-1.4c0.5-0.3,1.2-0.5,1.8-0.5
		c0.4,0,0.8,0.1,1.1,0.2c0.3,0.2,0.6,0.4,0.8,0.7c0.2,0.3,0.4,0.7,0.4,1.1c0.1,0.5,0.1,0.9,0.1,1.4L165.6,387.5z"/>
	<path class="st1" d="M171.1,387.7c-0.5,0-1.1-0.1-1.6-0.3c-0.5-0.2-0.9-0.5-1.2-0.9c-0.3-0.4-0.6-0.8-0.8-1.3
		c-0.2-0.5-0.3-1-0.3-1.6c0-0.5,0.1-1.1,0.3-1.5c0.2-0.5,0.5-0.9,0.8-1.3c0.4-0.4,0.8-0.7,1.2-0.9c1.5-0.7,3.2-0.3,4.4,0.9
		c0.7,0.8,1.1,1.8,1.1,2.8v0.2c0,0.1,0,0.1,0,0.2h-6.7c0,0.4,0.1,0.8,0.3,1.2c0.2,0.3,0.4,0.7,0.6,0.9c0.3,0.3,0.6,0.5,0.9,0.6
		c0.3,0.1,0.7,0.2,1.1,0.2c0.3,0,0.5,0,0.8-0.1c0.2-0.1,0.5-0.2,0.7-0.3c0.2-0.1,0.4-0.3,0.6-0.4c0.2-0.2,0.3-0.4,0.4-0.6l0.9,0.2
		c-0.1,0.3-0.3,0.6-0.5,0.8c-0.2,0.2-0.5,0.4-0.8,0.6c-0.3,0.2-0.6,0.3-1,0.4C171.9,387.6,171.5,387.7,171.1,387.7z M174,383.2
		c0-0.4-0.1-0.8-0.3-1.1c-0.2-0.3-0.4-0.6-0.6-0.9c-0.5-0.5-1.3-0.8-2-0.8c-0.4,0-0.7,0.1-1.1,0.2c-0.7,0.3-1.2,0.8-1.5,1.5
		c-0.2,0.4-0.3,0.7-0.3,1.1H174z"/>
	<path class="st1" d="M180.5,380.6c-0.6,0-1.3,0.2-1.8,0.6c-0.5,0.4-0.9,0.9-1.1,1.5v4.9h-1v-7.8h1v1.9c0.3-0.6,0.7-1.1,1.2-1.4
		c0.5-0.3,1-0.5,1.6-0.5h0.2L180.5,380.6z"/>
	<path class="st1" d="M184.8,387.7c-0.5,0-1.1-0.1-1.6-0.3c-0.5-0.2-0.9-0.5-1.2-0.9c-0.3-0.4-0.6-0.8-0.8-1.3
		c-0.2-0.5-0.3-1-0.3-1.6c0-0.5,0.1-1.1,0.3-1.5c0.2-0.5,0.5-0.9,0.8-1.3c0.4-0.4,0.8-0.7,1.2-0.9c1.5-0.7,3.2-0.3,4.4,0.9
		c0.7,0.8,1.1,1.8,1.1,2.8v0.2c0,0.1,0,0.1,0,0.2H182c0,0.4,0.1,0.8,0.3,1.2c0.2,0.3,0.4,0.7,0.6,0.9c0.3,0.3,0.6,0.5,0.9,0.6
		c0.3,0.1,0.7,0.2,1.1,0.2c0.3,0,0.5,0,0.8-0.1c0.2-0.1,0.5-0.2,0.7-0.3c0.2-0.1,0.4-0.3,0.6-0.4c0.2-0.2,0.3-0.4,0.4-0.6l0.9,0.2
		c-0.1,0.3-0.3,0.6-0.5,0.8c-0.2,0.2-0.5,0.4-0.8,0.6c-0.3,0.2-0.6,0.3-1,0.4C185.5,387.6,185.2,387.7,184.8,387.7z M187.7,383.2
		c0-0.4-0.1-0.8-0.3-1.1c-0.2-0.3-0.4-0.6-0.6-0.9c-0.3-0.2-0.6-0.4-0.9-0.6c-0.3-0.1-0.7-0.2-1.1-0.2c-0.4,0-0.7,0.1-1.1,0.2
		c-0.3,0.1-0.6,0.3-0.9,0.6c-0.3,0.3-0.5,0.6-0.6,0.9c-0.2,0.4-0.3,0.7-0.3,1.1H187.7z"/>
	<path class="st1" d="M194.1,378.1v-1.5h1v1.5H194.1z M194.1,387.5v-7.8h1v7.8H194.1z"/>
	<path class="st1" d="M199.9,387.7c-0.6,0-1.2-0.1-1.8-0.3c-0.6-0.2-1.1-0.5-1.5-0.9l0.5-0.7c0.4,0.3,0.9,0.6,1.4,0.8
		c0.5,0.2,1,0.3,1.5,0.3c0.5,0,1.1-0.1,1.5-0.4c0.4-0.2,0.6-0.7,0.6-1.1c0-0.2,0-0.4-0.1-0.5c-0.1-0.2-0.3-0.3-0.4-0.4
		c-0.2-0.1-0.5-0.2-0.7-0.3l-1-0.3c-0.4-0.1-0.8-0.2-1.2-0.3c-0.3-0.1-0.6-0.2-0.8-0.4c-0.2-0.1-0.4-0.3-0.5-0.5
		c-0.1-0.2-0.2-0.5-0.2-0.7c0-0.3,0.1-0.7,0.2-1c0.2-0.3,0.4-0.5,0.6-0.7c0.3-0.2,0.6-0.4,0.9-0.5c0.4-0.1,0.7-0.2,1.1-0.1
		c0.6,0,1.1,0.1,1.6,0.3c0.4,0.2,0.9,0.4,1.2,0.8l-0.5,0.6c-0.3-0.3-0.7-0.5-1.1-0.7c-0.4-0.1-0.9-0.2-1.3-0.2c-0.3,0-0.5,0-0.8,0.1
		c-0.2,0-0.4,0.1-0.6,0.3c-0.2,0.1-0.3,0.3-0.4,0.5c-0.1,0.2-0.2,0.4-0.1,0.6c0,0.2,0,0.4,0.1,0.5c0.1,0.1,0.2,0.3,0.3,0.3
		c0.2,0.1,0.4,0.2,0.6,0.3c0.2,0.1,0.5,0.1,0.9,0.2c0.5,0.1,0.9,0.2,1.3,0.4c0.3,0.1,0.7,0.2,1,0.4c0.2,0.1,0.4,0.3,0.6,0.6
		c0.1,0.3,0.2,0.5,0.2,0.8c0,0.7-0.3,1.3-0.8,1.7C201.5,387.6,200.7,387.8,199.9,387.7z"/>
	<path class="st1" d="M210.4,387.7c-0.3,0-0.7-0.1-1-0.2c-0.3-0.1-0.6-0.3-0.8-0.5c-0.2-0.2-0.4-0.5-0.6-0.8c-0.1-0.3-0.2-0.7-0.2-1
		c0-0.3,0.1-0.7,0.2-0.9c0.2-0.3,0.4-0.6,0.7-0.8c0.3-0.2,0.6-0.4,1-0.5c0.4-0.1,0.9-0.2,1.3-0.2c0.4,0,0.8,0,1.2,0.1
		c0.4,0.1,0.7,0.2,1.1,0.3v-0.7c0-0.6-0.2-1.2-0.6-1.6c-0.4-0.4-1-0.6-1.6-0.6c-0.4,0-0.8,0.1-1.2,0.2c-0.5,0.2-0.9,0.4-1.3,0.7
		l-0.4-0.7c0.9-0.6,1.9-1,2.9-1c0.9,0,1.7,0.3,2.3,0.8c0.6,0.6,0.9,1.4,0.8,2.3v3.5c0,0.3,0.1,0.4,0.4,0.4v0.9c-0.1,0-0.3,0-0.4,0
		c-0.2,0-0.4-0.1-0.6-0.2c-0.2-0.1-0.2-0.3-0.2-0.5v-0.6c-0.4,0.5-0.8,0.8-1.4,1.1C211.7,387.5,211,387.7,210.4,387.7z M210.7,386.9
		c0.5,0,1-0.1,1.5-0.3c0.4-0.2,0.7-0.4,1-0.8c0.1-0.1,0.2-0.2,0.2-0.3c0-0.1,0.1-0.2,0.1-0.3V384c-0.3-0.1-0.7-0.2-1.1-0.3
		c-0.4-0.1-0.7-0.1-1.1-0.1c-0.6,0-1.2,0.1-1.8,0.5c-0.4,0.2-0.7,0.7-0.7,1.2c0,0.5,0.2,0.9,0.5,1.2c0.2,0.2,0.4,0.3,0.6,0.4
		C210.2,386.9,210.4,386.9,210.7,386.9z"/>
	<path class="st1" d="M223.5,387.5l2.3-10.6h4.3c0.3,0,0.7,0.1,1,0.2c0.3,0.1,0.6,0.4,0.8,0.6c0.2,0.3,0.4,0.6,0.5,0.9
		c0.1,0.3,0.2,0.7,0.2,1c0,0.4-0.1,0.9-0.2,1.3c-0.2,0.4-0.4,0.8-0.6,1.1c-0.3,0.3-0.6,0.6-0.9,0.9c-0.4,0.2-0.8,0.4-1.2,0.5
		l1.6,4.1h-1.2l-1.5-3.9h-2.9l-0.8,3.9L223.5,387.5z M228.9,382.7c0.3,0,0.7-0.1,1-0.2c0.3-0.2,0.6-0.4,0.8-0.7
		c0.2-0.3,0.4-0.6,0.5-0.9c0.1-0.3,0.2-0.7,0.2-1c0-0.3,0-0.5-0.1-0.8c-0.1-0.2-0.2-0.4-0.3-0.6c-0.1-0.2-0.3-0.3-0.5-0.4
		c-0.2-0.1-0.4-0.2-0.6-0.2h-3.2l-1,4.9L228.9,382.7z"/>
	<path class="st1" d="M235.2,376.9h6.7l-0.2,0.9h-5.6l-0.8,3.8h4.9l-0.2,0.9h-4.9l-0.9,4.1h5.8l-0.2,0.9H233L235.2,376.9z"/>
	<path class="st1" d="M247.1,376.9h0.9l1.9,10.6h-1.1l-0.6-3.3h-4.5l-2,3.3h-1.1L247.1,376.9z M248.2,383.4l-0.9-5.3l-3.2,5.3H248.2
		z"/>
	<path class="st1" d="M253.7,376.9h3.4c0.6,0,1.2,0.1,1.7,0.3c0.5,0.2,0.9,0.5,1.2,0.9c0.3,0.4,0.6,0.8,0.7,1.3
		c0.1,0.5,0.2,1.1,0.2,1.6c0,0.9-0.1,1.8-0.5,2.6c-0.3,0.8-0.7,1.5-1.3,2.1c-1.1,1.2-2.7,1.9-4.4,1.9h-3.4L253.7,376.9z
		 M255.1,386.6c0.7,0,1.4-0.1,2-0.5c0.6-0.3,1.1-0.7,1.5-1.2c0.4-0.5,0.8-1.1,1-1.8c0.2-0.7,0.3-1.4,0.3-2.1c0-0.5-0.1-0.9-0.2-1.3
		c-0.1-0.4-0.3-0.7-0.6-1c-0.3-0.3-0.6-0.5-1-0.7c-0.4-0.2-0.9-0.3-1.3-0.2h-2.4l-1.9,8.8H255.1z"/>
	<path class="st1" d="M269,387.7c-0.6,0-1.2-0.1-1.8-0.3c-0.6-0.2-1.1-0.5-1.5-0.9l0.5-0.7c0.4,0.3,0.9,0.6,1.3,0.8
		c0.5,0.2,1,0.3,1.5,0.3c0.5,0,1.1-0.1,1.5-0.4c0.4-0.2,0.6-0.7,0.6-1.1c0-0.2,0-0.4-0.1-0.5c-0.1-0.2-0.3-0.3-0.4-0.4
		c-0.2-0.1-0.5-0.2-0.7-0.3l-1-0.3c-0.5-0.1-0.8-0.2-1.2-0.3c-0.3-0.1-0.6-0.2-0.8-0.4c-0.2-0.1-0.4-0.3-0.5-0.5
		c-0.1-0.2-0.2-0.5-0.2-0.8c0-0.3,0.1-0.7,0.2-1c0.1-0.3,0.4-0.5,0.6-0.7c0.3-0.2,0.6-0.4,0.9-0.5c0.4-0.1,0.7-0.2,1.1-0.1
		c0.6,0,1.1,0.1,1.6,0.3c0.4,0.2,0.9,0.4,1.2,0.8l-0.5,0.6c-0.3-0.3-0.7-0.5-1-0.7c-0.4-0.1-0.9-0.2-1.3-0.2c-0.3,0-0.5,0-0.8,0.1
		c-0.2,0.1-0.4,0.1-0.6,0.3c-0.2,0.1-0.3,0.3-0.4,0.5c-0.1,0.2-0.2,0.4-0.1,0.6c0,0.2,0,0.4,0.1,0.5c0.1,0.1,0.2,0.3,0.4,0.3
		c0.2,0.1,0.4,0.2,0.6,0.3c0.2,0.1,0.5,0.1,0.9,0.2s0.9,0.2,1.3,0.4c0.3,0.1,0.7,0.2,1,0.4c0.2,0.1,0.4,0.3,0.6,0.6
		c0.1,0.3,0.2,0.5,0.2,0.8c0,0.7-0.3,1.3-0.8,1.7C270.6,387.5,269.8,387.7,269,387.7z"/>
	<path class="st1" d="M277.1,387.7c-0.5,0-1.1-0.1-1.6-0.3c-0.5-0.2-0.9-0.5-1.2-0.9c-0.3-0.4-0.6-0.8-0.8-1.3
		c-0.2-0.5-0.3-1-0.3-1.6c0-0.5,0.1-1.1,0.3-1.5c0.2-0.5,0.5-0.9,0.8-1.3c0.4-0.4,0.8-0.7,1.2-0.9c1.5-0.7,3.2-0.3,4.4,0.9
		c0.7,0.8,1.1,1.8,1.1,2.8v0.2c0,0.1,0,0.1,0,0.2h-6.7c0,0.4,0.1,0.8,0.3,1.2c0.2,0.3,0.4,0.7,0.6,0.9c0.3,0.3,0.6,0.5,0.9,0.6
		c0.3,0.1,0.7,0.2,1.1,0.2c0.3,0,0.5,0,0.8-0.1c0.2-0.1,0.5-0.2,0.7-0.3c0.2-0.1,0.4-0.3,0.6-0.4c0.2-0.2,0.3-0.4,0.4-0.6l0.9,0.2
		c-0.1,0.3-0.3,0.6-0.5,0.8c-0.2,0.2-0.5,0.4-0.8,0.6c-0.3,0.2-0.6,0.3-1,0.4C277.8,387.6,277.4,387.7,277.1,387.7z M279.9,383.2
		c0-0.4-0.1-0.8-0.3-1.1c-0.2-0.3-0.4-0.6-0.6-0.9c-0.3-0.2-0.6-0.4-0.9-0.6c-1-0.4-2.2-0.2-3,0.6c-0.3,0.3-0.5,0.6-0.6,0.9
		c-0.2,0.4-0.3,0.7-0.3,1.1H279.9z"/>
	<path class="st1" d="M282,383.6c0-0.5,0.1-1.1,0.3-1.6c0.3-1,1.1-1.7,2-2.1c0.5-0.2,1-0.3,1.6-0.3c0.7,0,1.3,0.2,1.9,0.5
		c0.5,0.3,1,0.8,1.2,1.4l-1,0.3c-0.2-0.4-0.5-0.7-0.9-0.9c-0.4-0.2-0.9-0.3-1.3-0.3c-0.4,0-0.8,0.1-1.1,0.2
		c-0.3,0.2-0.6,0.4-0.9,0.7c-0.3,0.3-0.5,0.6-0.6,1c-0.2,0.4-0.2,0.8-0.2,1.2c0,0.4,0.1,0.9,0.2,1.2c0.1,0.4,0.4,0.7,0.6,1
		c0.3,0.3,0.6,0.5,0.9,0.7c0.6,0.3,1.2,0.3,1.9,0.1c0.2-0.1,0.5-0.2,0.7-0.3c0.2-0.1,0.4-0.3,0.5-0.4c0.1-0.1,0.3-0.3,0.3-0.5l1,0.3
		c-0.1,0.3-0.3,0.5-0.5,0.8c-0.2,0.2-0.5,0.5-0.7,0.6c-0.3,0.2-0.6,0.3-0.9,0.4c-0.4,0.1-0.7,0.1-1.1,0.1c-0.5,0-1.1-0.1-1.6-0.3
		c-0.5-0.2-0.9-0.5-1.2-0.9c-0.3-0.4-0.6-0.8-0.8-1.3C282.1,384.7,282,384.2,282,383.6z"/>
	<path class="st1" d="M294.5,387.2l-0.3,0.1l-0.4,0.1c-0.2,0.1-0.3,0.1-0.5,0.1c-0.2,0-0.4,0.1-0.6,0.1c-0.2,0-0.4,0-0.6-0.1
		c-0.2-0.1-0.4-0.1-0.5-0.3c-0.2-0.1-0.3-0.3-0.4-0.5c-0.1-0.2-0.1-0.4-0.1-0.7v-5.6H290v-0.8h1.1v-2.6h1v2.6h1.8v0.8h-1.8v5.3
		c0,0.2,0.1,0.5,0.3,0.6c0.2,0.1,0.4,0.2,0.6,0.2c0.3,0,0.5,0,0.8-0.1l0.4-0.2L294.5,387.2z"/>
	<path class="st1" d="M295.8,378.1v-1.5h1v1.5H295.8z M295.8,387.5v-7.8h1v7.8H295.8z"/>
	<path class="st1" d="M302.4,387.7c-0.5,0-1.1-0.1-1.6-0.3c-0.5-0.2-0.9-0.5-1.2-0.9c-0.3-0.4-0.6-0.8-0.8-1.3
		c-0.2-0.5-0.3-1-0.3-1.5c0-1.1,0.4-2.1,1.1-2.9c0.3-0.4,0.8-0.7,1.2-0.9c0.5-0.2,1-0.3,1.5-0.3c0.5,0,1.1,0.1,1.5,0.3
		c0.5,0.2,0.9,0.5,1.2,0.9c0.4,0.4,0.6,0.8,0.8,1.3c0.2,0.5,0.3,1,0.3,1.6c0,0.5-0.1,1-0.3,1.5c-0.2,0.5-0.5,0.9-0.8,1.3
		c-0.3,0.4-0.8,0.7-1.2,0.9C303.4,387.6,302.9,387.7,302.4,387.7z M299.5,383.7c0,0.8,0.3,1.6,0.8,2.2c0.3,0.3,0.6,0.5,0.9,0.7
		c0.7,0.3,1.5,0.3,2.2,0c0.3-0.2,0.7-0.4,0.9-0.7c0.3-0.3,0.5-0.6,0.6-1c0.3-0.8,0.3-1.7,0-2.5c-0.1-0.4-0.4-0.7-0.6-1
		c-0.3-0.3-0.6-0.5-0.9-0.7c-0.3-0.2-0.7-0.2-1.1-0.2c-0.4,0-0.7,0.1-1.1,0.2c-0.3,0.2-0.6,0.4-0.9,0.7c-0.3,0.3-0.5,0.6-0.6,1
		C299.6,382.8,299.5,383.2,299.5,383.7L299.5,383.7z"/>
	<path class="st1" d="M314.5,387.5h-1v-4.4c0-0.7-0.1-1.4-0.4-2c-0.3-0.4-0.8-0.7-1.3-0.6c-0.3,0-0.6,0.1-0.9,0.2
		c-0.3,0.1-0.6,0.3-0.8,0.5c-0.3,0.2-0.5,0.4-0.7,0.7c-0.2,0.3-0.3,0.6-0.4,0.9v4.8h-1v-7.8h0.9v1.8c0.3-0.6,0.8-1.1,1.4-1.4
		c0.6-0.4,1.3-0.5,1.9-0.5c0.4,0,0.8,0.1,1.1,0.2c0.3,0.2,0.5,0.4,0.7,0.7c0.2,0.3,0.3,0.7,0.4,1.1c0.1,0.5,0.1,0.9,0.1,1.4
		L314.5,387.5z"/>
	<path class="st1" d="M56.4,397.7h1l-3.4,7.8h-0.8l-1.7-4l-1.7,4H49l-3.4-7.8h1l2.8,6.8l1.5-3.6l-1.3-3.2h0.9l1,2.5l1-2.5h0.9
		l-1.3,3.2l1.5,3.6L56.4,397.7z"/>
	<path class="st1" d="M58.8,396.1v-1.5h1v1.5H58.8z M58.8,405.5v-7.8h1v7.8H58.8z"/>
	<path class="st1" d="M65.8,405.2l-0.3,0.1l-0.4,0.1c-0.2,0.1-0.3,0.1-0.5,0.1c-0.2,0-0.4,0.1-0.6,0.1c-0.2,0-0.4,0-0.6-0.1
		c-0.2-0.1-0.4-0.1-0.5-0.3c-0.2-0.1-0.3-0.3-0.4-0.5c-0.1-0.2-0.1-0.4-0.1-0.7v-5.6h-1.1v-0.8h1.1v-2.6h1v2.6h1.8v0.8h-1.8v5.3
		c0,0.2,0.1,0.5,0.3,0.6c0.2,0.1,0.4,0.2,0.6,0.2c0.3,0,0.5,0,0.8-0.1l0.4-0.2L65.8,405.2z"/>
	<path class="st1" d="M73.6,405.5h-1v-4.4c0-0.7-0.1-1.4-0.4-2c-0.3-0.4-0.8-0.7-1.3-0.7c-0.3,0-0.6,0.1-0.9,0.2
		c-0.6,0.2-1.1,0.6-1.4,1.2c-0.2,0.3-0.3,0.6-0.4,0.9v4.8h-1v-11h1v4.9c0.3-0.6,0.7-1.1,1.3-1.4c0.5-0.3,1.2-0.5,1.8-0.5
		c0.4,0,0.8,0.1,1.1,0.2c0.3,0.2,0.6,0.4,0.8,0.7c0.2,0.3,0.4,0.7,0.4,1.1c0.1,0.5,0.1,0.9,0.1,1.4L73.6,405.5z"/>
	<path class="st1" d="M83.4,405.2l-0.3,0.1l-0.4,0.1c-0.2,0.1-0.3,0.1-0.5,0.1c-0.2,0-0.4,0.1-0.6,0.1c-0.2,0-0.4,0-0.6-0.1
		c-0.2-0.1-0.4-0.1-0.5-0.3c-0.2-0.1-0.3-0.3-0.4-0.5c-0.1-0.2-0.1-0.4-0.1-0.7v-5.6h-1.1v-0.8H80v-2.6h1v2.6h1.8v0.8H81v5.3
		c0,0.2,0.1,0.5,0.3,0.6c0.2,0.1,0.4,0.2,0.6,0.2c0.3,0,0.5,0,0.8-0.1l0.4-0.2L83.4,405.2z"/>
	<path class="st1" d="M91.2,405.5h-1v-4.4c0-0.7-0.1-1.4-0.5-2c-0.3-0.4-0.8-0.7-1.3-0.7c-0.3,0-0.6,0.1-0.9,0.2
		c-0.3,0.1-0.6,0.3-0.8,0.5c-0.3,0.2-0.5,0.4-0.7,0.7c-0.2,0.3-0.3,0.6-0.4,0.9v4.8h-1v-11h1v4.9c0.3-0.6,0.7-1,1.3-1.4
		c0.5-0.3,1.2-0.5,1.8-0.5c0.4,0,0.8,0.1,1.1,0.2c0.3,0.2,0.6,0.4,0.8,0.7c0.2,0.3,0.4,0.7,0.4,1.1c0.1,0.5,0.1,0.9,0.1,1.4
		L91.2,405.5z"/>
	<path class="st1" d="M96.8,405.7c-0.5,0-1.1-0.1-1.6-0.3c-0.5-0.2-0.9-0.5-1.2-0.9c-0.3-0.4-0.6-0.8-0.8-1.3
		c-0.2-0.5-0.3-1-0.3-1.6c0-0.5,0.1-1.1,0.3-1.5c0.2-0.5,0.5-0.9,0.8-1.3c0.3-0.4,0.8-0.7,1.2-0.9c1.5-0.7,3.2-0.3,4.3,0.9
		c0.7,0.8,1.1,1.8,1.1,2.8v0.2c0,0.1,0,0.1,0,0.2h-6.7c0,0.4,0.1,0.8,0.3,1.2c0.2,0.3,0.4,0.7,0.6,0.9c0.3,0.3,0.6,0.5,0.9,0.6
		c0.6,0.2,1.2,0.3,1.8,0.1c0.2-0.1,0.5-0.2,0.7-0.3c0.2-0.1,0.4-0.3,0.6-0.4c0.2-0.2,0.3-0.4,0.4-0.6l0.9,0.2
		c-0.1,0.3-0.3,0.6-0.5,0.8c-0.2,0.2-0.5,0.4-0.8,0.6c-0.3,0.2-0.6,0.3-1,0.4C97.5,405.6,97.1,405.7,96.8,405.7z M99.7,401.2
		c0-0.4-0.1-0.8-0.3-1.1c-0.2-0.3-0.4-0.6-0.6-0.9c-0.5-0.5-1.2-0.8-1.9-0.8c-0.4,0-0.7,0.1-1.1,0.2c-0.3,0.1-0.6,0.3-0.9,0.6
		c-0.3,0.3-0.5,0.6-0.6,0.9c-0.2,0.4-0.3,0.7-0.3,1.1L99.7,401.2z"/>
	<path class="st1" d="M106,396.1v-1.5h1v1.5H106z M106,405.5v-7.8h1v7.8H106z"/>
	<path class="st1" d="M115.9,405.5h-1v-4.4c0-0.7-0.1-1.4-0.4-2c-0.3-0.4-0.8-0.7-1.3-0.6c-0.3,0-0.6,0.1-0.9,0.2
		c-0.3,0.1-0.6,0.3-0.8,0.5c-0.3,0.2-0.5,0.4-0.7,0.7c-0.2,0.3-0.3,0.6-0.4,0.9v4.8h-1v-7.8h0.9v1.8c0.3-0.6,0.8-1.1,1.4-1.4
		c0.6-0.4,1.3-0.5,2-0.5c0.4,0,0.8,0.1,1.1,0.2c0.3,0.2,0.5,0.4,0.7,0.7c0.2,0.3,0.3,0.7,0.4,1.1c0.1,0.5,0.1,0.9,0.1,1.4
		L115.9,405.5z"/>
	<path class="st1" d="M120.7,405.7c-0.6,0-1.2-0.1-1.8-0.3c-0.6-0.2-1.1-0.5-1.5-0.9l0.5-0.7c0.4,0.3,0.9,0.6,1.3,0.8
		c0.5,0.2,1,0.3,1.5,0.3c0.5,0,1.1-0.1,1.5-0.4c0.4-0.2,0.6-0.7,0.6-1.1c0-0.2,0-0.4-0.2-0.5c-0.1-0.2-0.3-0.3-0.4-0.4
		c-0.2-0.1-0.5-0.2-0.7-0.3l-1-0.3c-0.4-0.1-0.8-0.2-1.2-0.3c-0.3-0.1-0.6-0.2-0.8-0.4c-0.2-0.1-0.4-0.3-0.5-0.5
		c-0.1-0.2-0.2-0.5-0.2-0.8c0-0.3,0.1-0.7,0.2-1c0.1-0.3,0.4-0.5,0.6-0.7c0.3-0.2,0.6-0.4,0.9-0.5c0.4-0.1,0.7-0.2,1.1-0.1
		c0.6,0,1.1,0.1,1.6,0.3c0.4,0.2,0.9,0.4,1.2,0.8l-0.5,0.6c-0.3-0.3-0.7-0.5-1.1-0.7c-0.4-0.1-0.9-0.2-1.3-0.2c-0.3,0-0.5,0-0.8,0.1
		c-0.2,0.1-0.4,0.1-0.6,0.3c-0.2,0.1-0.3,0.3-0.4,0.5c-0.1,0.2-0.2,0.4-0.2,0.6c0,0.2,0,0.4,0.1,0.5c0.1,0.1,0.2,0.3,0.3,0.3
		c0.2,0.1,0.4,0.2,0.6,0.3c0.2,0.1,0.5,0.1,0.9,0.2s0.9,0.2,1.3,0.4c0.4,0.1,0.7,0.2,1,0.4c0.2,0.1,0.4,0.3,0.6,0.6
		c0.1,0.3,0.2,0.5,0.2,0.8c0,0.7-0.3,1.3-0.8,1.7C122.3,405.5,121.5,405.8,120.7,405.7z"/>
	<path class="st1" d="M125.4,396.1v-1.5h1v1.5H125.4z M125.4,405.5v-7.8h1v7.8H125.4z"/>
	<path class="st1" d="M131.8,405.6c-0.5,0-1-0.1-1.5-0.3c-0.4-0.2-0.8-0.5-1.2-0.9c-0.6-0.8-1-1.8-1-2.8c0-0.5,0.1-1.1,0.3-1.5
		c0.2-0.5,0.4-0.9,0.7-1.3c0.3-0.4,0.7-0.7,1.1-0.9c0.5-0.2,1-0.3,1.5-0.3c0.6,0,1.2,0.2,1.7,0.5c0.5,0.3,0.9,0.8,1.3,1.3v-1.6h0.9
		v7.8c0,0.5-0.1,1-0.3,1.4c-0.2,0.4-0.5,0.7-0.8,1c-0.4,0.3-0.8,0.5-1.2,0.6c-0.5,0.1-1,0.2-1.5,0.2c-0.8,0-1.5-0.1-2.2-0.5
		c-0.5-0.3-1-0.8-1.3-1.3l0.6-0.5c0.3,0.5,0.7,0.9,1.2,1.1c0.5,0.2,1.1,0.4,1.6,0.4c0.4,0,0.7-0.1,1.1-0.2c0.3-0.1,0.6-0.3,0.9-0.5
		c0.3-0.2,0.5-0.5,0.6-0.8c0.2-0.3,0.2-0.7,0.2-1.1V404c-0.3,0.5-0.7,0.9-1.2,1.2C132.9,405.5,132.4,405.6,131.8,405.6z
		 M132.1,404.8c0.3,0,0.6-0.1,0.9-0.2c0.6-0.2,1-0.6,1.4-1.1c0.2-0.2,0.3-0.4,0.3-0.7v-2.4c-0.1-0.3-0.3-0.5-0.4-0.8
		c-0.2-0.2-0.4-0.4-0.6-0.6c-0.2-0.2-0.5-0.3-0.8-0.4c-0.3-0.1-0.5-0.1-0.8-0.1c-0.4,0-0.8,0.1-1.2,0.3c-0.3,0.2-0.6,0.4-0.9,0.7
		c-0.2,0.3-0.4,0.6-0.6,1c-0.1,0.4-0.2,0.8-0.2,1.1c0,0.4,0.1,0.8,0.2,1.2c0.1,0.4,0.3,0.7,0.6,1c0.3,0.3,0.6,0.5,0.9,0.7
		C131.3,404.7,131.7,404.8,132.1,404.8z"/>
	<path class="st1" d="M144.5,405.5h-1v-4.4c0-0.7-0.1-1.4-0.5-2c-0.3-0.4-0.8-0.7-1.3-0.7c-0.3,0-0.6,0.1-0.9,0.2
		c-0.3,0.1-0.6,0.3-0.8,0.5c-0.3,0.2-0.5,0.4-0.7,0.7c-0.2,0.3-0.3,0.6-0.4,0.9v4.8h-1v-11h1v4.9c0.3-0.6,0.7-1.1,1.3-1.4
		c0.5-0.3,1.2-0.5,1.8-0.5c0.4,0,0.8,0.1,1.1,0.2c0.3,0.2,0.6,0.4,0.8,0.7c0.2,0.3,0.4,0.7,0.4,1.1c0.1,0.5,0.1,0.9,0.1,1.4
		L144.5,405.5z"/>
	<path class="st1" d="M150.3,405.2l-0.3,0.1l-0.4,0.1c-0.2,0.1-0.3,0.1-0.5,0.1c-0.2,0-0.4,0.1-0.6,0.1c-0.2,0-0.4,0-0.6-0.1
		c-0.2-0.1-0.4-0.1-0.5-0.3c-0.2-0.1-0.3-0.3-0.4-0.5c-0.1-0.2-0.1-0.4-0.1-0.7v-5.6h-1.1v-0.8h1.1v-2.6h1v2.6h1.8v0.8h-1.8v5.3
		c0,0.2,0.1,0.5,0.3,0.6c0.2,0.1,0.4,0.2,0.6,0.2c0.3,0,0.5,0,0.8-0.1l0.4-0.2L150.3,405.2z"/>
	<path class="st1" d="M154.2,405.7c-0.6,0-1.2-0.1-1.8-0.3c-0.6-0.2-1.1-0.5-1.5-0.9l0.5-0.7c0.4,0.3,0.9,0.6,1.3,0.8
		c0.5,0.2,1,0.3,1.5,0.3c0.5,0,1.1-0.1,1.5-0.4c0.4-0.2,0.6-0.7,0.6-1.1c0-0.2,0-0.4-0.1-0.5c-0.1-0.2-0.3-0.3-0.4-0.4
		c-0.2-0.1-0.5-0.2-0.7-0.3l-1-0.3c-0.4-0.1-0.8-0.2-1.2-0.3c-0.3-0.1-0.6-0.2-0.8-0.4c-0.2-0.1-0.4-0.3-0.5-0.5
		c-0.1-0.2-0.2-0.5-0.1-0.8c0-0.3,0.1-0.7,0.2-1c0.1-0.3,0.4-0.5,0.6-0.7c0.3-0.2,0.6-0.4,0.9-0.5c0.4-0.1,0.7-0.2,1.1-0.1
		c0.6,0,1.1,0.1,1.6,0.3c0.4,0.2,0.8,0.4,1.2,0.8l-0.5,0.6c-0.3-0.3-0.7-0.5-1.1-0.7c-0.4-0.1-0.9-0.2-1.3-0.2c-0.3,0-0.5,0-0.8,0.1
		c-0.2,0.1-0.4,0.1-0.6,0.3c-0.2,0.1-0.3,0.3-0.4,0.5c-0.1,0.2-0.2,0.4-0.1,0.6c0,0.2,0,0.4,0.1,0.5c0.1,0.1,0.2,0.3,0.3,0.3
		c0.2,0.1,0.4,0.2,0.6,0.3c0.2,0.1,0.5,0.1,0.9,0.2c0.5,0.1,0.9,0.2,1.3,0.4c0.4,0.1,0.7,0.2,1,0.4c0.2,0.1,0.4,0.3,0.6,0.6
		c0.1,0.3,0.2,0.5,0.2,0.8c0,0.7-0.3,1.3-0.8,1.7C155.8,405.5,155,405.8,154.2,405.7z"/>
	<path class="st1" d="M163.1,405.5v-7H162v-0.8h1.1v-0.2c0-0.8,0.2-1.6,0.6-2.3c0.4-0.5,1-0.8,1.7-0.8c0.3,0,0.6,0,0.9,0.1
		c0.3,0.1,0.5,0.2,0.8,0.4l-0.3,0.7c-0.2-0.1-0.3-0.2-0.5-0.2c-0.2-0.1-0.4-0.1-0.6-0.1c-0.4,0-0.9,0.2-1.1,0.5
		c-0.3,0.5-0.4,1-0.4,1.6v0.2h2.2v0.8h-2.2v7L163.1,405.5z"/>
	<path class="st1" d="M170.6,405.7c-0.5,0-1.1-0.1-1.6-0.3c-0.5-0.2-0.9-0.5-1.2-0.9c-0.3-0.4-0.6-0.8-0.8-1.3
		c-0.2-0.5-0.3-1-0.3-1.5c0-0.5,0.1-1.1,0.3-1.6c0.4-1,1.1-1.7,2-2.2c1-0.4,2.1-0.4,3.1,0c0.5,0.2,0.9,0.5,1.2,0.9
		c0.7,0.8,1.1,1.8,1.1,2.9c0,0.5-0.1,1-0.3,1.5c-0.2,0.5-0.5,0.9-0.8,1.3C172.7,405.3,171.6,405.7,170.6,405.7L170.6,405.7z
		 M167.8,401.7c0,0.4,0.1,0.8,0.2,1.2c0.1,0.4,0.3,0.7,0.6,1c0.3,0.3,0.6,0.5,0.9,0.7c0.3,0.2,0.7,0.2,1.1,0.2
		c0.4,0,0.8-0.1,1.1-0.2c0.3-0.2,0.7-0.4,0.9-0.7c0.3-0.3,0.5-0.6,0.6-1c0.3-0.8,0.3-1.7,0-2.5c-0.1-0.4-0.3-0.7-0.6-1
		c-0.3-0.3-0.6-0.5-0.9-0.7c-0.3-0.2-0.7-0.2-1.1-0.2c-0.4,0-0.8,0.1-1.1,0.2c-0.3,0.2-0.6,0.4-0.9,0.7c-0.3,0.3-0.5,0.6-0.6,1
		C167.9,400.8,167.8,401.3,167.8,401.7L167.8,401.7z"/>
	<path class="st1" d="M178.7,405.7c-0.7,0.1-1.4-0.3-1.9-0.8c-0.5-0.8-0.7-1.6-0.6-2.5v-4.6h1v4.4c0,1.8,0.6,2.6,1.8,2.6
		c0.3,0,0.6-0.1,0.9-0.1c0.3-0.1,0.6-0.2,0.8-0.4c0.2-0.2,0.5-0.4,0.7-0.7c0.2-0.3,0.4-0.6,0.5-0.9v-4.9h1v6.5
		c0,0.3,0.1,0.4,0.4,0.4v0.9h-0.3h-0.2c-0.2,0-0.4-0.1-0.6-0.2c-0.2-0.2-0.2-0.4-0.2-0.6v-0.9C181.2,404.9,180,405.7,178.7,405.7
		L178.7,405.7z"/>
	<path class="st1" d="M191.7,405.5h-1v-4.4c0-0.7-0.1-1.4-0.4-2c-0.3-0.4-0.8-0.7-1.3-0.6c-0.3,0-0.6,0.1-0.9,0.2
		c-0.3,0.1-0.6,0.3-0.8,0.5c-0.3,0.2-0.5,0.4-0.7,0.7c-0.2,0.3-0.3,0.6-0.4,0.9v4.8h-1v-7.8h0.9v1.8c0.3-0.6,0.8-1.1,1.4-1.4
		c0.6-0.4,1.3-0.5,2-0.5c0.4,0,0.8,0.1,1.1,0.2c0.3,0.2,0.5,0.4,0.7,0.7c0.2,0.3,0.3,0.7,0.4,1.1c0.1,0.5,0.1,0.9,0.1,1.4
		L191.7,405.5z"/>
	<path class="st1" d="M197.1,405.7c-0.5,0-1-0.1-1.5-0.3c-0.9-0.4-1.6-1.2-2-2.2c-0.2-0.5-0.3-1-0.3-1.5c0-0.5,0.1-1.1,0.3-1.6
		c0.2-0.5,0.4-0.9,0.7-1.3c0.3-0.4,0.7-0.7,1.1-0.9c1-0.5,2.2-0.4,3.2,0.2c0.5,0.3,0.9,0.8,1.2,1.2v-4.8h1v9.6
		c0,0.3,0.1,0.4,0.4,0.4v0.9c-0.1,0-0.2,0-0.4,0c-0.2,0-0.5-0.1-0.6-0.2c-0.2-0.1-0.3-0.3-0.3-0.6V404c-0.3,0.5-0.7,0.9-1.3,1.2
		C198.2,405.5,197.6,405.7,197.1,405.7z M197.3,404.8c0.3,0,0.5-0.1,0.8-0.1c0.3-0.1,0.6-0.2,0.8-0.4c0.2-0.2,0.5-0.4,0.6-0.6
		c0.2-0.2,0.3-0.5,0.3-0.8v-2.4c-0.1-0.3-0.3-0.5-0.4-0.8c-0.2-0.2-0.4-0.4-0.6-0.6c-0.2-0.2-0.5-0.3-0.8-0.4
		c-0.7-0.2-1.4-0.2-2,0.1c-0.3,0.2-0.6,0.4-0.9,0.7c-0.2,0.3-0.4,0.6-0.6,1c-0.1,0.4-0.2,0.8-0.2,1.2c0,0.8,0.3,1.6,0.8,2.2
		c0.3,0.3,0.6,0.5,0.9,0.7C196.5,404.7,196.9,404.8,197.3,404.8z"/>
	<path class="st1" d="M209,405.7c-0.3,0-0.7-0.1-1-0.2c-0.3-0.1-0.6-0.3-0.8-0.5c-0.2-0.2-0.4-0.5-0.5-0.8c-0.1-0.3-0.2-0.7-0.2-1
		c0-0.3,0.1-0.7,0.2-0.9c0.2-0.3,0.4-0.6,0.7-0.8c0.3-0.2,0.6-0.4,1-0.5c0.4-0.1,0.9-0.2,1.3-0.2c0.4,0,0.8,0,1.2,0.1
		c0.4,0.1,0.7,0.2,1.1,0.3v-0.7c0-0.6-0.2-1.2-0.6-1.6c-0.4-0.4-1-0.6-1.6-0.6c-0.4,0-0.8,0.1-1.2,0.2c-0.5,0.2-0.9,0.4-1.3,0.7
		l-0.4-0.7c0.9-0.6,1.9-1,2.9-1c0.9,0,1.7,0.3,2.3,0.8c0.6,0.6,0.9,1.4,0.8,2.3v3.5c0,0.3,0.1,0.4,0.4,0.4v0.9c-0.1,0-0.3,0-0.4,0
		c-0.2,0-0.4-0.1-0.6-0.2c-0.2-0.1-0.2-0.3-0.2-0.5v-0.6c-0.4,0.5-0.8,0.8-1.4,1.1C210.2,405.5,209.6,405.7,209,405.7z M209.2,404.9
		c0.5,0,1-0.1,1.5-0.3c0.4-0.2,0.7-0.4,1-0.8c0.1-0.1,0.2-0.2,0.2-0.3c0-0.1,0.1-0.2,0.1-0.3V402c-0.3-0.1-0.7-0.2-1.1-0.3
		c-0.4-0.1-0.7-0.1-1.1-0.1c-0.6,0-1.3,0.1-1.8,0.4c-0.4,0.2-0.7,0.7-0.7,1.2c0,0.5,0.2,0.9,0.5,1.2c0.2,0.2,0.4,0.3,0.6,0.4
		C208.7,404.9,209,404.9,209.2,404.9L209.2,404.9z"/>
	<path class="st1" d="M221.8,405.5h-1v-4.4c0-0.7-0.1-1.4-0.4-2c-0.3-0.4-0.8-0.7-1.3-0.6c-0.3,0-0.6,0.1-0.9,0.2
		c-0.3,0.1-0.6,0.3-0.8,0.5c-0.3,0.2-0.5,0.4-0.7,0.7c-0.2,0.3-0.3,0.6-0.4,0.9v4.8h-1v-7.8h0.9v1.8c0.3-0.6,0.8-1.1,1.4-1.4
		c0.6-0.4,1.3-0.5,1.9-0.5c0.4,0,0.8,0.1,1.1,0.2c0.3,0.2,0.5,0.4,0.7,0.7c0.2,0.3,0.3,0.7,0.4,1.1c0.1,0.5,0.1,0.9,0.1,1.4
		L221.8,405.5z"/>
	<path class="st1" d="M227.1,405.7c-0.5,0-1-0.1-1.5-0.3c-0.4-0.2-0.8-0.5-1.2-0.9c-0.3-0.4-0.6-0.8-0.8-1.3c-0.2-0.5-0.3-1-0.3-1.5
		c0-0.5,0.1-1.1,0.3-1.6c0.2-0.5,0.4-0.9,0.7-1.3c0.3-0.4,0.7-0.7,1.1-0.9c0.4-0.2,0.9-0.3,1.4-0.3c0.6,0,1.2,0.2,1.8,0.5
		c0.5,0.3,0.9,0.8,1.2,1.2v-4.8h1v9.6c0,0.3,0.1,0.4,0.4,0.4v0.9c-0.1,0-0.2,0-0.4,0c-0.2,0-0.5-0.1-0.6-0.2
		c-0.2-0.1-0.3-0.3-0.3-0.6V404c-0.3,0.5-0.7,0.9-1.3,1.2C228.3,405.5,227.7,405.7,227.1,405.7z M227.4,404.8c0.3,0,0.5-0.1,0.8-0.1
		c0.3-0.1,0.6-0.2,0.8-0.4c0.2-0.2,0.5-0.4,0.6-0.6c0.2-0.2,0.3-0.5,0.3-0.8v-2.4c-0.1-0.3-0.2-0.5-0.4-0.8
		c-0.2-0.2-0.4-0.5-0.7-0.6c-0.2-0.2-0.5-0.3-0.8-0.4c-0.3-0.1-0.5-0.1-0.8-0.1c-0.4,0-0.8,0.1-1.1,0.3c-0.3,0.2-0.6,0.4-0.9,0.7
		c-0.2,0.3-0.4,0.6-0.6,1c-0.1,0.4-0.2,0.8-0.2,1.2c0,0.4,0.1,0.8,0.2,1.2c0.1,0.4,0.4,0.7,0.6,1c0.3,0.3,0.6,0.5,0.9,0.7
		C226.6,404.7,227,404.8,227.4,404.8L227.4,404.8z"/>
	<path class="st1" d="M238.6,394.9h6.7l-0.2,0.9h-5.6l-0.8,3.8h4.9l-0.2,0.9h-4.9l-0.9,4.1h5.8l-0.2,0.9h-6.8L238.6,394.9z"/>
	<path class="st1" d="M248.8,400.3l-2.7-5.4h1.2l2.3,4.6l4.3-4.6h1.2l-5,5.4l2.6,5.2h-1.1l-2.2-4.5l-4.1,4.5H244L248.8,400.3z"/>
	<path class="st1" d="M256.4,394.9h4.2c0.3,0,0.7,0.1,1,0.2c0.3,0.1,0.6,0.4,0.8,0.6c0.2,0.3,0.4,0.6,0.5,0.9c0.1,0.3,0.2,0.7,0.2,1
		c0,0.5-0.1,1-0.3,1.4c-0.2,0.5-0.5,0.9-0.8,1.3c-0.3,0.4-0.7,0.7-1.2,0.9c-0.4,0.2-0.9,0.3-1.4,0.3H256l-0.9,3.9h-1L256.4,394.9z
		 M259.4,400.7c0.3,0,0.7-0.1,1-0.2c0.3-0.2,0.6-0.4,0.8-0.7c0.2-0.3,0.4-0.6,0.5-0.9c0.1-0.3,0.2-0.7,0.2-1.1c0-0.3,0-0.5-0.1-0.8
		c-0.1-0.2-0.2-0.4-0.3-0.6c-0.1-0.2-0.3-0.3-0.5-0.4c-0.2-0.1-0.4-0.2-0.6-0.1h-3.1l-1,4.9L259.4,400.7z"/>
	<path class="st1" d="M265.4,394.9h1l-2.1,9.7h5.8l-0.2,0.9h-6.9L265.4,394.9z"/>
	<path class="st1" d="M274.6,405.6c-0.6,0-1.1-0.1-1.6-0.4c-0.5-0.2-0.9-0.6-1.2-1c-0.3-0.4-0.6-0.9-0.7-1.4
		c-0.2-0.5-0.2-1.1-0.2-1.6c0-0.8,0.2-1.6,0.5-2.4c0.3-0.8,0.8-1.4,1.4-2c0.6-0.6,1.2-1.1,1.9-1.4c0.7-0.4,1.5-0.5,2.3-0.5
		c0.5,0,1.1,0.1,1.6,0.4c0.5,0.2,0.9,0.6,1.2,1c0.3,0.4,0.6,0.9,0.7,1.4c0.2,0.5,0.2,1.1,0.2,1.6c0,0.8-0.2,1.6-0.5,2.4
		c-0.3,0.7-0.8,1.4-1.3,2c-0.6,0.6-1.2,1.1-1.9,1.4C276.2,405.4,275.4,405.6,274.6,405.6z M274.8,404.7c0.6,0,1.3-0.2,1.9-0.5
		c0.6-0.3,1.1-0.7,1.5-1.2c0.4-0.5,0.8-1.1,1-1.7c0.2-0.6,0.4-1.2,0.4-1.9c0-0.5-0.1-0.9-0.2-1.4c-0.1-0.4-0.3-0.8-0.6-1.1
		c-0.2-0.3-0.6-0.6-0.9-0.8c-0.4-0.2-0.8-0.3-1.2-0.3c-0.7,0-1.3,0.2-1.9,0.5c-0.6,0.3-1.1,0.7-1.5,1.2c-0.4,0.5-0.8,1.1-1,1.7
		c-0.2,0.6-0.4,1.3-0.4,1.9c0,0.5,0.1,0.9,0.2,1.4c0.1,0.4,0.3,0.8,0.6,1.1c0.2,0.3,0.6,0.6,0.9,0.8
		C274,404.6,274.4,404.7,274.8,404.7L274.8,404.7z"/>
	<path class="st1" d="M281.4,405.5l2.3-10.6h4.3c0.3,0,0.7,0.1,1,0.2c0.3,0.1,0.6,0.4,0.8,0.6c0.2,0.3,0.4,0.6,0.5,0.9
		c0.1,0.3,0.2,0.7,0.2,1c0,0.4-0.1,0.9-0.2,1.3c-0.2,0.4-0.4,0.8-0.6,1.1c-0.3,0.3-0.6,0.6-1,0.9c-0.4,0.2-0.7,0.4-1.2,0.5l1.6,4.1
		h-1.2l-1.5-3.9h-2.9l-0.8,3.9L281.4,405.5z M286.7,400.7c0.3,0,0.7-0.1,1-0.2c0.3-0.2,0.6-0.4,0.8-0.7c0.2-0.3,0.4-0.6,0.5-0.9
		c0.1-0.3,0.2-0.7,0.2-1c0-0.3,0-0.5-0.1-0.8c-0.1-0.2-0.2-0.4-0.3-0.6c-0.1-0.2-0.3-0.3-0.5-0.4c-0.2-0.1-0.4-0.2-0.6-0.2h-3.2
		l-1,4.9L286.7,400.7z"/>
	<path class="st1" d="M293.1,394.9h6.7l-0.2,0.9h-5.6l-0.8,3.8h4.9l-0.2,0.9h-4.9l-0.9,4.1h5.8l-0.2,0.9h-6.8L293.1,394.9z"/>
	<path class="st1" d="M300.5,406.8l0.3-1.3h-0.4v-1.4h1v1.4l-0.4,1.3H300.5z"/>
	<path class="st1" d="M86.8,423.7c-0.3,0-0.7-0.1-1-0.2c-0.3-0.1-0.6-0.3-0.8-0.5c-0.2-0.2-0.4-0.5-0.6-0.8c-0.1-0.3-0.2-0.7-0.2-1
		c0-0.3,0.1-0.7,0.2-0.9c0.2-0.3,0.4-0.6,0.7-0.8c0.3-0.2,0.6-0.4,1-0.5c0.4-0.1,0.9-0.2,1.3-0.2c0.4,0,0.8,0,1.2,0.1
		c0.4,0.1,0.7,0.2,1.1,0.3v-0.7c0-0.6-0.2-1.2-0.6-1.6c-0.4-0.4-1-0.6-1.6-0.6c-0.4,0-0.8,0.1-1.2,0.2c-0.5,0.2-0.9,0.4-1.3,0.7
		l-0.4-0.7c0.9-0.6,1.9-1,2.9-1c0.9,0,1.7,0.3,2.3,0.8c0.6,0.6,0.9,1.4,0.8,2.3v3.5c0,0.3,0.1,0.4,0.4,0.4v0.9c-0.1,0-0.3,0-0.4,0
		c-0.2,0-0.4-0.1-0.6-0.2c-0.1-0.1-0.2-0.3-0.2-0.5v-0.6c-0.4,0.5-0.8,0.8-1.4,1.1C88,423.5,87.4,423.7,86.8,423.7z M87,422.9
		c0.5,0,1-0.1,1.5-0.3c0.4-0.2,0.7-0.4,1-0.8c0.1-0.1,0.1-0.2,0.2-0.3c0-0.1,0.1-0.2,0.1-0.3V420c-0.3-0.1-0.7-0.2-1.1-0.3
		c-0.4-0.1-0.7-0.1-1.1-0.1c-0.6,0-1.2,0.1-1.8,0.5c-0.4,0.2-0.7,0.7-0.7,1.2c0,0.2,0,0.5,0.1,0.7c0.2,0.4,0.6,0.8,1,0.9
		C86.5,422.9,86.8,422.9,87,422.9L87,422.9z"/>
	<path class="st1" d="M99.6,423.5h-1v-4.4c0-0.7-0.1-1.4-0.4-2c-0.3-0.4-0.8-0.7-1.3-0.6c-0.3,0-0.6,0.1-0.9,0.2
		c-0.3,0.1-0.6,0.3-0.8,0.5c-0.3,0.2-0.5,0.4-0.7,0.7c-0.2,0.3-0.3,0.6-0.4,0.9v4.8h-1v-7.8h0.9v1.8c0.3-0.6,0.8-1.1,1.4-1.4
		c0.6-0.4,1.3-0.5,2-0.5c0.4,0,0.8,0.1,1.1,0.2c0.3,0.2,0.5,0.4,0.7,0.7c0.2,0.3,0.3,0.7,0.4,1.1c0.1,0.5,0.1,0.9,0.1,1.4
		L99.6,423.5z"/>
	<path class="st1" d="M105.6,414.1v-1.5h1v1.5H105.6z M105.6,423.5v-7.8h1v7.8H105.6z"/>
	<path class="st1" d="M115.4,423.5h-1v-4.4c0-0.7-0.1-1.4-0.4-2c-0.3-0.4-0.8-0.7-1.3-0.6c-0.3,0-0.6,0.1-0.9,0.2
		c-0.3,0.1-0.6,0.3-0.8,0.5c-0.3,0.2-0.5,0.4-0.7,0.7c-0.2,0.3-0.3,0.6-0.4,0.9v4.8h-1v-7.8h0.9v1.8c0.3-0.6,0.8-1.1,1.4-1.4
		c0.6-0.4,1.3-0.5,2-0.5c0.4,0,0.8,0.1,1.1,0.2c0.3,0.2,0.5,0.4,0.7,0.7c0.2,0.3,0.3,0.7,0.4,1.1c0.1,0.5,0.1,0.9,0.1,1.4
		L115.4,423.5z"/>
	<path class="st1" d="M121.3,423.2l-0.3,0.1l-0.4,0.1c-0.2,0.1-0.3,0.1-0.5,0.1c-0.2,0-0.4,0.1-0.6,0.1c-0.2,0-0.4,0-0.6-0.1
		c-0.2-0.1-0.4-0.1-0.5-0.3c-0.2-0.1-0.3-0.3-0.4-0.5c-0.1-0.2-0.1-0.4-0.1-0.7v-5.6h-1.1v-0.8h1.1v-2.6h1v2.6h1.8v0.8h-1.8v5.3
		c0,0.2,0.1,0.5,0.3,0.6c0.2,0.1,0.4,0.2,0.6,0.2c0.3,0,0.5,0,0.8-0.1c0.1-0.1,0.3-0.1,0.4-0.2L121.3,423.2z"/>
	<path class="st1" d="M125.7,423.7c-0.5,0-1.1-0.1-1.6-0.3c-0.5-0.2-0.9-0.5-1.2-0.9c-0.3-0.4-0.6-0.8-0.8-1.3
		c-0.2-0.5-0.3-1-0.3-1.6c0-0.5,0.1-1.1,0.3-1.5c0.2-0.5,0.5-0.9,0.8-1.3c0.4-0.4,0.8-0.7,1.2-0.9c1.5-0.7,3.2-0.3,4.4,0.9
		c0.7,0.8,1.1,1.8,1.1,2.8v0.2c0,0.1,0,0.1,0,0.2h-6.7c0,0.4,0.1,0.8,0.3,1.2c0.2,0.3,0.4,0.7,0.6,0.9c0.3,0.3,0.6,0.5,0.9,0.6
		c0.3,0.1,0.7,0.2,1.1,0.2c0.3,0,0.5,0,0.8-0.1c0.2-0.1,0.5-0.2,0.7-0.3c0.2-0.1,0.4-0.3,0.6-0.4c0.2-0.2,0.3-0.4,0.4-0.6l0.9,0.2
		c-0.1,0.3-0.3,0.6-0.5,0.8c-0.2,0.2-0.5,0.4-0.8,0.6c-0.3,0.2-0.6,0.3-1,0.4C126.4,423.6,126.1,423.7,125.7,423.7z M128.6,419.2
		c0-0.4-0.1-0.8-0.3-1.1c-0.2-0.3-0.4-0.6-0.6-0.9c-0.5-0.5-1.3-0.8-2-0.8c-0.4,0-0.7,0.1-1.1,0.2c-0.7,0.3-1.2,0.8-1.5,1.5
		c-0.2,0.4-0.3,0.7-0.3,1.1H128.6z"/>
	<path class="st1" d="M135.1,416.6c-0.6,0-1.3,0.2-1.8,0.6c-0.5,0.4-0.9,0.9-1.1,1.5v4.9h-1v-7.8h1v1.9c0.3-0.6,0.7-1,1.2-1.4
		c0.5-0.3,1-0.5,1.6-0.5h0.2L135.1,416.6z"/>
	<path class="st1" d="M138.3,423.7c-0.3,0-0.7-0.1-1-0.2c-0.3-0.1-0.6-0.3-0.8-0.5c-0.2-0.2-0.4-0.5-0.6-0.8c-0.1-0.3-0.2-0.7-0.2-1
		c0-0.3,0.1-0.7,0.2-0.9c0.2-0.3,0.4-0.6,0.7-0.8c0.3-0.2,0.6-0.4,1-0.5c0.4-0.1,0.9-0.2,1.3-0.2c0.4,0,0.8,0,1.2,0.1
		c0.4,0.1,0.7,0.2,1.1,0.3v-0.7c0-0.6-0.2-1.2-0.6-1.6c-0.4-0.4-1-0.6-1.6-0.6c-0.4,0-0.8,0.1-1.2,0.2c-0.5,0.2-0.9,0.4-1.3,0.7
		l-0.4-0.7c0.9-0.6,1.9-1,2.9-1c0.9,0,1.7,0.3,2.3,0.8c0.6,0.6,0.9,1.4,0.8,2.3v3.5c0,0.3,0.1,0.4,0.4,0.4v0.9c-0.1,0-0.3,0-0.4,0
		c-0.2,0-0.4-0.1-0.6-0.2c-0.1-0.1-0.2-0.3-0.2-0.5v-0.6c-0.4,0.5-0.8,0.8-1.4,1.1C139.5,423.5,138.9,423.7,138.3,423.7z
		 M138.5,422.9c0.5,0,1-0.1,1.5-0.3c0.4-0.2,0.7-0.4,1-0.8c0.1-0.1,0.2-0.2,0.2-0.3c0-0.1,0.1-0.2,0.1-0.3V420
		c-0.3-0.1-0.7-0.2-1.1-0.3c-0.4-0.1-0.7-0.1-1.1-0.1c-0.6,0-1.2,0.1-1.8,0.5c-0.4,0.3-0.7,0.7-0.7,1.2c0,0.2,0,0.5,0.1,0.7
		c0.1,0.2,0.2,0.4,0.4,0.5c0.2,0.2,0.4,0.3,0.6,0.4C138,422.9,138.3,422.9,138.5,422.9L138.5,422.9z"/>
	<path class="st1" d="M143.9,419.6c0-0.5,0.1-1.1,0.3-1.6c0.3-1,1.1-1.7,2-2.1c0.5-0.2,1-0.3,1.6-0.3c0.7,0,1.3,0.2,1.9,0.5
		c0.5,0.3,1,0.8,1.2,1.4l-1,0.3c-0.2-0.4-0.5-0.7-0.9-0.9c-0.7-0.4-1.6-0.5-2.4-0.1c-0.3,0.2-0.6,0.4-0.9,0.7
		c-0.3,0.3-0.5,0.6-0.6,1c-0.1,0.4-0.2,0.8-0.2,1.2c0,0.4,0.1,0.9,0.2,1.2c0.1,0.4,0.3,0.7,0.6,1c0.3,0.3,0.6,0.5,0.9,0.7
		c0.3,0.2,0.7,0.2,1.1,0.2c0.3,0,0.5,0,0.8-0.1c0.2-0.1,0.5-0.2,0.7-0.3c0.2-0.1,0.4-0.3,0.5-0.4c0.1-0.1,0.3-0.3,0.3-0.5l1,0.3
		c-0.1,0.3-0.3,0.5-0.5,0.8c-0.2,0.2-0.5,0.4-0.7,0.6c-0.3,0.2-0.6,0.3-0.9,0.4c-0.3,0.1-0.7,0.1-1.1,0.1c-0.5,0-1.1-0.1-1.6-0.3
		c-0.5-0.2-0.9-0.5-1.2-0.9c-0.3-0.4-0.6-0.8-0.8-1.3C144,420.7,143.9,420.1,143.9,419.6z"/>
	<path class="st1" d="M156.5,423.2l-0.3,0.1l-0.4,0.1c-0.1,0-0.3,0.1-0.5,0.1c-0.2,0-0.4,0.1-0.6,0.1c-0.2,0-0.4,0-0.6-0.1
		c-0.2-0.1-0.4-0.1-0.5-0.3c-0.2-0.1-0.3-0.3-0.4-0.5c-0.1-0.2-0.1-0.4-0.1-0.7v-5.6h-1v-0.8h1.1v-2.6h1v2.6h1.8v0.8h-1.8v5.3
		c0,0.2,0.1,0.5,0.3,0.6c0.2,0.1,0.4,0.2,0.6,0.2c0.3,0,0.5,0,0.8-0.1c0.1-0.1,0.3-0.1,0.4-0.2L156.5,423.2z"/>
	<path class="st1" d="M157.7,414.1v-1.5h1v1.5H157.7z M157.7,423.5v-7.8h1v7.8H157.7z"/>
	<path class="st1" d="M163.4,423.5l-3.2-7.8h1.1l2.7,6.9l2.7-6.9h1l-3.2,7.8H163.4z"/>
	<path class="st1" d="M172.1,423.7c-0.5,0-1.1-0.1-1.6-0.3c-0.5-0.2-0.9-0.5-1.2-0.9c-0.3-0.4-0.6-0.8-0.8-1.3
		c-0.2-0.5-0.3-1-0.3-1.6c0-0.5,0.1-1.1,0.3-1.5c0.2-0.5,0.5-0.9,0.8-1.3c0.3-0.4,0.8-0.7,1.2-0.9c1-0.4,2.1-0.4,3.1,0
		c0.5,0.2,0.9,0.5,1.2,0.9c0.7,0.8,1.1,1.8,1.1,2.8v0.2c0,0.1,0,0.1,0,0.2h-6.7c0,0.4,0.1,0.8,0.3,1.2c0.2,0.3,0.4,0.7,0.6,0.9
		c0.3,0.3,0.6,0.5,0.9,0.6c0.6,0.2,1.2,0.3,1.8,0.1c0.2-0.1,0.5-0.2,0.7-0.3c0.2-0.1,0.4-0.3,0.6-0.4c0.2-0.2,0.3-0.4,0.4-0.6
		l0.9,0.2c-0.1,0.3-0.3,0.6-0.5,0.8c-0.2,0.2-0.5,0.4-0.8,0.6c-0.3,0.2-0.6,0.3-1,0.4C172.9,423.6,172.5,423.7,172.1,423.7z
		 M175,419.2c0-0.4-0.1-0.8-0.3-1.1c-0.2-0.3-0.4-0.6-0.6-0.9c-0.3-0.2-0.6-0.4-0.9-0.6c-0.3-0.1-0.7-0.2-1.1-0.2
		c-0.4,0-0.7,0.1-1.1,0.2c-0.3,0.1-0.6,0.3-0.9,0.6c-0.3,0.3-0.5,0.6-0.6,0.9c-0.2,0.4-0.3,0.7-0.3,1.1H175z"/>
	<path class="st1" d="M183.3,423.5l-3.2-7.8h1l2.7,6.9l2.7-6.9h1l-3.2,7.8H183.3z"/>
	<path class="st1" d="M189,414.1v-1.5h1v1.5H189z M189,423.5v-7.8h1v7.8H189z"/>
	<path class="st1" d="M194.8,423.7c-0.6,0-1.2-0.1-1.8-0.3c-0.6-0.2-1.1-0.5-1.5-0.9l0.5-0.7c0.4,0.3,0.9,0.6,1.3,0.8
		c0.5,0.2,1,0.3,1.5,0.3c0.5,0,1.1-0.1,1.5-0.4c0.4-0.2,0.6-0.7,0.6-1.1c0-0.2,0-0.4-0.1-0.5c-0.1-0.2-0.3-0.3-0.4-0.4
		c-0.2-0.1-0.5-0.2-0.7-0.3l-1-0.3c-0.5-0.1-0.8-0.2-1.2-0.3c-0.3-0.1-0.6-0.2-0.8-0.4c-0.2-0.1-0.4-0.3-0.5-0.5
		c-0.1-0.2-0.2-0.5-0.2-0.8c0-0.3,0.1-0.7,0.2-1c0.1-0.3,0.4-0.5,0.6-0.7c0.3-0.2,0.6-0.4,0.9-0.5c0.4-0.1,0.7-0.2,1.1-0.1
		c0.6,0,1.1,0.1,1.6,0.3c0.4,0.2,0.9,0.4,1.2,0.8l-0.5,0.6c-0.3-0.3-0.6-0.5-1-0.7c-0.4-0.1-0.9-0.2-1.3-0.2c-0.3,0-0.5,0-0.8,0.1
		c-0.2,0.1-0.4,0.1-0.6,0.3c-0.2,0.1-0.3,0.3-0.4,0.5c-0.1,0.2-0.2,0.4-0.1,0.6c0,0.2,0,0.4,0.1,0.5c0.1,0.1,0.2,0.3,0.4,0.3
		c0.2,0.1,0.4,0.2,0.6,0.3c0.2,0.1,0.5,0.1,0.9,0.2c0.5,0.1,0.9,0.2,1.3,0.4c0.4,0.1,0.7,0.2,1,0.4c0.2,0.1,0.4,0.3,0.6,0.6
		c0.1,0.3,0.2,0.5,0.2,0.8c0,0.7-0.3,1.3-0.8,1.7C196.5,423.6,195.6,423.8,194.8,423.7z"/>
	<path class="st1" d="M202,423.7c-0.7,0.1-1.4-0.3-1.9-0.8c-0.5-0.8-0.7-1.6-0.6-2.5v-4.6h1v4.4c0,1.8,0.6,2.6,1.8,2.6
		c0.3,0,0.6-0.1,0.9-0.1c0.3-0.1,0.6-0.2,0.8-0.4c0.2-0.2,0.5-0.4,0.7-0.7c0.2-0.3,0.4-0.6,0.5-0.9v-4.9h1v6.5
		c0,0.3,0.1,0.4,0.4,0.4v0.9h-0.3H206c-0.2,0-0.4-0.1-0.6-0.2c-0.2-0.2-0.2-0.4-0.2-0.6v-0.9c-0.3,0.6-0.8,1.1-1.4,1.4
		C203.3,423.5,202.6,423.7,202,423.7z"/>
	<path class="st1" d="M210.4,423.7c-0.3,0-0.7-0.1-1-0.2c-0.3-0.1-0.6-0.3-0.8-0.5c-0.2-0.2-0.4-0.5-0.6-0.8c-0.1-0.3-0.2-0.7-0.2-1
		c0-0.3,0.1-0.7,0.2-0.9c0.2-0.3,0.4-0.6,0.7-0.8c0.3-0.2,0.6-0.4,1-0.5c0.4-0.1,0.9-0.2,1.3-0.2c0.4,0,0.8,0,1.2,0.1
		c0.4,0.1,0.7,0.2,1.1,0.3v-0.7c0-0.6-0.2-1.2-0.6-1.6c-0.4-0.4-1-0.6-1.6-0.6c-0.4,0-0.8,0.1-1.2,0.2c-0.5,0.2-0.9,0.4-1.3,0.7
		l-0.4-0.7c0.9-0.6,1.9-1,2.9-1c0.9,0,1.7,0.3,2.3,0.8c0.6,0.6,0.9,1.4,0.8,2.3v3.5c0,0.3,0.1,0.4,0.4,0.4v0.9c-0.1,0-0.3,0-0.4,0
		c-0.2,0-0.4-0.1-0.6-0.2c-0.2-0.1-0.2-0.3-0.2-0.5v-0.6c-0.4,0.5-0.8,0.8-1.4,1.1C211.6,423.5,211,423.7,210.4,423.7z M210.6,422.9
		c0.5,0,1-0.1,1.5-0.3c0.4-0.2,0.7-0.4,1-0.8c0.1-0.1,0.2-0.2,0.2-0.3c0-0.1,0.1-0.2,0.1-0.3V420c-0.3-0.1-0.7-0.2-1.1-0.3
		c-0.4-0.1-0.7-0.1-1.1-0.1c-0.6,0-1.2,0.1-1.8,0.5c-0.4,0.2-0.7,0.7-0.7,1.2c0,0.5,0.2,0.9,0.5,1.2c0.2,0.2,0.4,0.3,0.6,0.4
		C210.1,422.9,210.4,422.9,210.6,422.9z"/>
	<path class="st1" d="M216.7,412.6h1v9.2c0,0.3,0.1,0.5,0.2,0.7c0.2,0.2,0.4,0.3,0.7,0.2c0.1,0,0.3,0,0.4,0c0.1,0,0.3-0.1,0.4-0.1
		l0.2,0.8c-0.2,0.1-0.5,0.2-0.7,0.2c-0.2,0-0.5,0.1-0.7,0.1c-0.4,0-0.8-0.1-1.1-0.4c-0.3-0.3-0.4-0.7-0.4-1.1L216.7,412.6z"/>
	<path class="st1" d="M220.7,414.1v-1.5h1v1.5H220.7z M220.7,423.5v-7.8h1v7.8H220.7z"/>
	<path class="st1" d="M223.3,422.9l5.3-6.4h-5.2v-0.8h6.3v0.7l-5.3,6.4h5.2v0.8h-6.4V422.9z"/>
	<path class="st1" d="M233.3,423.7c-0.3,0-0.7-0.1-1-0.2c-0.3-0.1-0.6-0.3-0.8-0.5c-0.2-0.2-0.4-0.5-0.6-0.8c-0.1-0.3-0.2-0.7-0.2-1
		c0-0.3,0.1-0.7,0.2-0.9c0.2-0.3,0.4-0.6,0.7-0.8c0.3-0.2,0.6-0.4,1-0.5c0.4-0.1,0.9-0.2,1.3-0.2c0.4,0,0.8,0,1.2,0.1
		c0.4,0.1,0.7,0.2,1.1,0.3v-0.7c0-0.6-0.2-1.2-0.6-1.6c-0.4-0.4-1-0.6-1.6-0.6c-0.4,0-0.8,0.1-1.2,0.2c-0.5,0.2-0.9,0.4-1.3,0.7
		l-0.4-0.7c0.9-0.6,1.9-1,2.9-1c0.9,0,1.7,0.3,2.3,0.8c0.6,0.6,0.9,1.4,0.8,2.3v3.5c0,0.3,0.1,0.4,0.4,0.4v0.9c-0.1,0-0.3,0-0.4,0
		c-0.2,0-0.4-0.1-0.6-0.2c-0.1-0.1-0.2-0.3-0.2-0.5v-0.6c-0.4,0.5-0.8,0.8-1.4,1.1C234.5,423.5,233.9,423.7,233.3,423.7z
		 M233.6,422.9c0.5,0,1-0.1,1.5-0.3c0.4-0.2,0.7-0.4,1-0.8c0.1-0.1,0.2-0.2,0.2-0.3c0-0.1,0.1-0.2,0.1-0.3V420
		c-0.3-0.1-0.7-0.2-1-0.3c-0.4-0.1-0.7-0.1-1.1-0.1c-0.6,0-1.2,0.1-1.8,0.5c-0.4,0.2-0.7,0.7-0.7,1.2c0,0.2,0,0.5,0.1,0.7
		c0.1,0.2,0.2,0.4,0.4,0.5c0.2,0.2,0.4,0.3,0.6,0.4C233.1,422.9,233.3,422.9,233.6,422.9z"/>
	<path class="st1" d="M243.2,423.2l-0.3,0.1l-0.4,0.1c-0.2,0.1-0.3,0.1-0.5,0.1c-0.2,0-0.4,0.1-0.6,0.1c-0.2,0-0.4,0-0.6-0.1
		c-0.2-0.1-0.4-0.1-0.5-0.3c-0.2-0.1-0.3-0.3-0.4-0.5c-0.1-0.2-0.1-0.4-0.1-0.7v-5.6h-1.1v-0.8h1.1v-2.6h1v2.6h1.8v0.8h-1.8v5.3
		c0,0.2,0.1,0.5,0.3,0.6c0.2,0.1,0.4,0.2,0.6,0.2c0.3,0,0.5,0,0.8-0.1l0.4-0.2L243.2,423.2z"/>
	<path class="st1" d="M244.5,414.1v-1.5h1v1.5H244.5z M244.5,423.5v-7.8h1v7.8H244.5z"/>
	<path class="st1" d="M251.1,423.7c-0.5,0-1.1-0.1-1.6-0.3c-0.5-0.2-0.9-0.5-1.2-0.9c-0.3-0.4-0.6-0.8-0.8-1.3
		c-0.2-0.5-0.3-1-0.3-1.5c0-1.1,0.4-2.1,1.1-2.9c0.3-0.4,0.8-0.7,1.2-0.9c0.5-0.2,1-0.3,1.5-0.3c0.5,0,1.1,0.1,1.6,0.3
		c0.5,0.2,0.9,0.5,1.2,0.9c0.4,0.4,0.6,0.8,0.8,1.3c0.2,0.5,0.3,1,0.3,1.6c0,0.5-0.1,1-0.3,1.5c-0.2,0.5-0.5,0.9-0.8,1.3
		c-0.3,0.4-0.8,0.7-1.2,0.9C252.2,423.6,251.6,423.7,251.1,423.7z M248.2,419.7c0,0.8,0.3,1.6,0.8,2.2c0.3,0.3,0.6,0.5,0.9,0.7
		c0.7,0.3,1.5,0.3,2.2,0c0.3-0.2,0.7-0.4,0.9-0.7c0.3-0.3,0.5-0.6,0.6-1c0.3-0.8,0.3-1.7,0-2.5c-0.1-0.4-0.4-0.7-0.6-1
		c-0.3-0.3-0.6-0.5-0.9-0.7c-0.3-0.2-0.7-0.2-1.1-0.2c-0.4,0-0.7,0.1-1.1,0.2c-0.3,0.2-0.6,0.4-0.9,0.7c-0.3,0.3-0.5,0.6-0.6,1
		C248.3,418.8,248.2,419.2,248.2,419.7L248.2,419.7z"/>
	<path class="st1" d="M263.2,423.5h-1v-4.4c0-0.7-0.1-1.4-0.4-2c-0.3-0.4-0.8-0.7-1.3-0.6c-0.3,0-0.6,0.1-0.9,0.2
		c-0.3,0.1-0.6,0.3-0.8,0.5c-0.3,0.2-0.5,0.4-0.7,0.7c-0.2,0.3-0.3,0.6-0.4,0.9v4.8h-1v-7.8h0.9v1.8c0.3-0.6,0.8-1.1,1.4-1.4
		c0.6-0.4,1.3-0.5,1.9-0.5c0.4,0,0.8,0.1,1.1,0.2c0.3,0.2,0.5,0.4,0.7,0.7c0.2,0.3,0.3,0.7,0.4,1.1c0.1,0.5,0.1,0.9,0.1,1.4
		L263.2,423.5z"/>
	<path class="st1" d="M122.3,444.9h-0.8v-0.8h0.8V444.9z M122.3,442.1h-0.8v-0.8h0.8V442.1z M122.3,439.3h-0.8v-0.8h0.8V439.3z
		 M122.3,436.5h-0.8v-0.8h0.8V436.5z M122.3,433.7h-0.8v-0.8h0.8V433.7z M122.3,430.9h-0.8v-0.8h0.8V430.9z M121.5,428.1
		L121.5,428.1l0.8-0.1L121.5,428.1z"/>
	<path class="st1" d="M125,440.5c-0.1-0.1-0.3,0-0.4,0.1l-2.6,4.1l-2.6-4.1c-0.1-0.1-0.3-0.2-0.4-0.1c-0.1,0.1-0.2,0.3-0.1,0.4
		l2.9,4.6c0.1,0.1,0.3,0.2,0.4,0.1c0,0,0.1-0.1,0.1-0.1l2.9-4.6c0-0.1,0-0.1,0-0.2C125.2,440.6,125.1,440.5,125,440.5z"/>
	<path class="st1" d="M225.1,444.9h-0.8v-0.8h0.8V444.9z M225.1,442.1h-0.8v-0.8h0.8V442.1z M225.1,439.3h-0.8v-0.8h0.8V439.3z
		 M225.1,436.5h-0.8v-0.8h0.8V436.5z M225.1,433.7h-0.8v-0.8h0.8V433.7z M225.1,430.9h-0.8v-0.8h0.8V430.9z M224.3,428.1
		L224.3,428.1l0.8-0.1L224.3,428.1z"/>
	<path class="st1" d="M227.8,440.5c-0.2-0.1-0.4,0-0.4,0.1l-2.6,4.1l-2.6-4.1c-0.1-0.1-0.3-0.2-0.4-0.1c-0.1,0.1-0.2,0.3-0.1,0.4
		l2.9,4.6c0.1,0.1,0.2,0.1,0.3,0.1c0.1,0,0.2-0.1,0.3-0.1l2.9-4.6c0,0,0.1-0.1,0.1-0.2C227.9,440.6,227.9,440.5,227.8,440.5z"/>
</g>
<g id="Modalit_Isolamento">
	<polygon class="st1" points="319.1,261.5 310.7,270.8 309.8,270 317.4,261.5 309.8,253.1 310.7,252.3 	"/>
	<polygon class="st1" points="28.9,261.5 37.2,252.3 38.2,253.1 30.6,261.5 38.2,270 37.2,270.8 	"/>
	<path class="st0" d="M202.7,459.9v1.5h-6.1v-8.8h6v1.5h-4.3v2.1h3.7v1.4h-3.7v2.3L202.7,459.9z"/>
	<path class="st0" d="M205.5,452.6l2.2,3.3l2.2-3.3h1.9l-3.1,4.5l3.1,4.4h-1.9l-2.1-3.2l-2.1,3.2h-1.9l3.1-4.4l-3.1-4.5H205.5z"/>
	<path class="st0" d="M213.1,461.4v-8.8h3.8c0.4,0,0.8,0.1,1.1,0.3c0.3,0.2,0.6,0.4,0.9,0.7c0.2,0.3,0.4,0.6,0.6,1
		c0.1,0.3,0.2,0.7,0.2,1.1c0,0.4-0.1,0.7-0.2,1.1c-0.1,0.3-0.3,0.7-0.6,0.9c-0.2,0.3-0.5,0.5-0.9,0.7c-0.3,0.2-0.7,0.3-1.1,0.2h-2.1
		v3L213.1,461.4z M214.8,456.9h2c0.3,0,0.6-0.1,0.8-0.4c0.2-0.3,0.3-0.7,0.3-1c0-0.2,0-0.4-0.1-0.6c-0.1-0.2-0.2-0.3-0.3-0.5
		c-0.1-0.1-0.2-0.2-0.4-0.3c-0.1-0.1-0.3-0.1-0.4-0.1h-1.9L214.8,456.9z"/>
	<path class="st0" d="M221.3,461.4v-8.8h1.7v7.3h4.5v1.5H221.3z"/>
	<path class="st0" d="M232.3,461.5c-0.6,0-1.2-0.1-1.8-0.4c-0.5-0.2-1-0.6-1.4-1c-0.4-0.4-0.7-0.9-0.9-1.4c-0.2-0.5-0.3-1.1-0.3-1.6
		c0-0.6,0.1-1.2,0.3-1.7c0.2-0.5,0.5-1,0.9-1.4c0.4-0.4,0.8-0.8,1.4-1c0.5-0.3,1.1-0.4,1.7-0.4c0.6,0,1.2,0.1,1.8,0.4
		c0.5,0.2,1,0.6,1.4,1c0.4,0.4,0.7,0.9,0.9,1.4c0.2,0.5,0.3,1.1,0.3,1.6c0,1.7-1,3.3-2.6,4.1C233.5,461.3,232.9,461.5,232.3,461.5z
		 M229.8,457c0,0.4,0.1,0.8,0.2,1.1c0.1,0.3,0.3,0.7,0.5,1c0.2,0.3,0.5,0.5,0.8,0.7c0.3,0.2,0.7,0.3,1.1,0.2c0.4,0,0.8-0.1,1.1-0.3
		c0.3-0.2,0.6-0.4,0.8-0.7c0.2-0.3,0.4-0.6,0.5-1c0.1-0.3,0.2-0.7,0.2-1.1c0-0.4-0.1-0.8-0.2-1.1c-0.1-0.3-0.3-0.7-0.5-0.9
		c-0.2-0.3-0.5-0.5-0.8-0.6c-0.3-0.2-0.7-0.3-1.1-0.2c-0.4,0-0.8,0.1-1.1,0.3c-0.3,0.2-0.6,0.4-0.8,0.7c-0.2,0.3-0.4,0.6-0.5,1
		C229.8,456.3,229.8,456.6,229.8,457z"/>
	<path class="st0" d="M238.5,461.4v-8.8h3.9c0.4,0,0.8,0.1,1.1,0.3c0.3,0.2,0.6,0.4,0.9,0.7c0.2,0.3,0.4,0.6,0.6,1
		c0.1,0.3,0.2,0.7,0.2,1.1c0,0.6-0.1,1.1-0.4,1.6c-0.3,0.4-0.7,0.8-1.2,1l2,3.3h-1.9l-1.8-3h-1.7v3L238.5,461.4z M240.2,456.9h2.1
		c0.2,0,0.3,0,0.4-0.1c0.1-0.1,0.3-0.2,0.4-0.3c0.1-0.1,0.2-0.3,0.2-0.5c0.1-0.2,0.1-0.4,0.1-0.6c0-0.2,0-0.4-0.1-0.6
		c-0.1-0.3-0.3-0.6-0.6-0.8c-0.1-0.1-0.3-0.1-0.4-0.1h-2.1V456.9z"/>
	<path class="st0" d="M253.4,459.9v1.5h-6.1v-8.8h6v1.5H249v2.1h3.7v1.4H249v2.3L253.4,459.9z"/>
	<path class="st0" d="M105.6,461.4v-8.8h3.9c0.4,0,0.8,0.1,1.1,0.3c0.3,0.2,0.6,0.4,0.9,0.7c0.2,0.3,0.4,0.6,0.6,1
		c0.1,0.3,0.2,0.7,0.2,1.1c0,0.5-0.1,1.1-0.4,1.6c-0.3,0.4-0.7,0.8-1.2,1l2,3.3h-1.9l-1.8-3h-1.7v3L105.6,461.4z M107.3,456.9h2.2
		c0.2,0,0.3,0,0.4-0.1c0.1-0.1,0.3-0.2,0.4-0.3c0.1-0.1,0.2-0.3,0.2-0.5c0.1-0.2,0.1-0.4,0.1-0.6c0-0.2,0-0.4-0.1-0.6
		c-0.1-0.2-0.1-0.3-0.3-0.5c-0.1-0.1-0.2-0.2-0.4-0.3c-0.1-0.1-0.3-0.1-0.4-0.1h-2.1V456.9z"/>
	<path class="st0" d="M120.5,459.9v1.5h-6.1v-8.8h6v1.5h-4.3v2.1h3.7v1.4h-3.7v2.3L120.5,459.9z"/>
	<path class="st0" d="M124.9,452.6h1.5l3.4,8.8H128l-0.8-2.2h-3.1l-0.8,2.2h-1.8L124.9,452.6z M126.9,458l-1.2-3.5l-1.3,3.5H126.9z"
		/>
	<path class="st0" d="M131.2,461.4v-8.8h3.2c0.7,0,1.3,0.1,1.9,0.4c0.5,0.2,1,0.5,1.4,1c0.4,0.4,0.7,0.9,0.8,1.4
		c0.2,0.6,0.3,1.1,0.3,1.7c0,0.6-0.1,1.2-0.3,1.8c-0.2,0.5-0.5,1-0.9,1.4c-0.4,0.4-0.9,0.7-1.4,0.9c-0.6,0.2-1.2,0.3-1.8,0.3H131.2z
		 M137.1,457c0-0.4-0.1-0.8-0.2-1.2c-0.1-0.3-0.3-0.6-0.5-0.9c-0.2-0.3-0.5-0.5-0.8-0.6c-0.4-0.1-0.7-0.2-1.1-0.2h-1.5v5.8h1.5
		c0.4,0,0.8-0.1,1.1-0.2c0.3-0.1,0.6-0.3,0.8-0.6c0.2-0.3,0.4-0.6,0.5-0.9C137,457.8,137.1,457.4,137.1,457L137.1,457z"/>
	<path class="st1" d="M98.8,164.1v12.7h-2.4v-5.4h-5.8v5.4h-2.5v-12.7h2.5v5.1h5.8v-5.1H98.8z"/>
	<path class="st1" d="M107.5,176.8c-0.9,0-1.7-0.2-2.5-0.5c-0.8-0.3-1.4-0.8-2-1.4c-1.1-1.2-1.7-2.8-1.7-4.4c0-0.8,0.2-1.7,0.5-2.4
		c0.3-0.8,0.8-1.5,1.3-2.1c0.6-0.6,1.2-1.1,2-1.4c0.8-0.4,1.6-0.5,2.5-0.5c0.9,0,1.7,0.2,2.5,0.6c0.7,0.4,1.4,0.9,1.9,1.5
		c0.5,0.6,1,1.3,1.2,2.1c0.3,0.8,0.4,1.6,0.4,2.4c0,0.8-0.2,1.6-0.5,2.4c-0.3,0.7-0.7,1.4-1.3,2c-0.6,0.6-1.2,1.1-2,1.4
		C109.2,176.6,108.4,176.8,107.5,176.8z M103.9,170.4c0,0.5,0.1,1.1,0.2,1.6c0.2,0.5,0.4,1,0.7,1.4c0.3,0.4,0.7,0.7,1.2,0.9
		c0.5,0.2,1,0.4,1.6,0.4c0.5,0,1.1-0.1,1.6-0.4c0.5-0.2,0.9-0.6,1.2-1c0.3-0.4,0.6-0.9,0.7-1.4c0.2-0.5,0.2-1,0.2-1.5
		c0-0.5-0.1-1.1-0.3-1.6c-0.2-0.5-0.4-0.9-0.7-1.4c-0.3-0.4-0.7-0.7-1.2-0.9c-0.5-0.2-1-0.4-1.6-0.4c-0.6,0-1.1,0.1-1.6,0.4
		c-0.5,0.2-0.9,0.6-1.2,1c-0.3,0.4-0.6,0.9-0.7,1.4C104,169.4,103.9,169.9,103.9,170.4z"/>
	<path class="st1" d="M120.2,164.1h2.3l1.4,4.2l1.4-4.2h2.3l-2.2,5.8l1.6,4.1l3.6-9.9h2.7l-5.2,12.7h-2.1l-2.1-5.3l-2.2,5.3h-2.1
		l-5.1-12.7h2.6l3.6,9.9l1.6-4.1L120.2,164.1z"/>
	<path class="st1" d="M148.8,166.2h-4.1v10.5h-2.4v-10.5h-4v-2.2h10.5L148.8,166.2z"/>
	<path class="st1" d="M155.9,176.8c-0.9,0-1.7-0.2-2.5-0.5c-0.7-0.3-1.4-0.8-1.9-1.4c-1.7-1.9-2.2-4.5-1.2-6.9
		c0.3-0.8,0.8-1.5,1.3-2.1c0.6-0.6,1.2-1.1,2-1.4c0.8-0.4,1.6-0.5,2.5-0.5c0.9,0,1.7,0.2,2.5,0.6c0.7,0.4,1.4,0.9,1.9,1.5
		c0.5,0.6,1,1.3,1.2,2.1c0.3,0.8,0.4,1.6,0.4,2.4c0,0.8-0.2,1.6-0.5,2.4c-0.3,0.7-0.7,1.4-1.3,2c-0.6,0.6-1.2,1.1-2,1.4
		C157.6,176.6,156.7,176.8,155.9,176.8z M152.2,170.4c0,0.5,0.1,1.1,0.2,1.6c0.2,0.5,0.4,0.9,0.7,1.4c0.3,0.4,0.7,0.7,1.2,0.9
		c0.5,0.2,1,0.4,1.6,0.4c0.5,0,1.1-0.1,1.6-0.4c0.5-0.2,0.9-0.6,1.2-1c0.3-0.4,0.6-0.9,0.7-1.4c0.2-0.5,0.2-1,0.2-1.5
		c0-0.5-0.1-1.1-0.3-1.6c-0.2-0.5-0.4-0.9-0.7-1.4c-0.7-0.8-1.7-1.3-2.7-1.3c-0.5,0-1.1,0.1-1.6,0.4c-0.5,0.2-0.9,0.6-1.2,1
		c-0.3,0.4-0.6,0.9-0.7,1.4C152.3,169.4,152.2,169.9,152.2,170.4L152.2,170.4z"/>
	<path class="st1" d="M172.1,168.6v8.1h-2.5v-12.7h1.9l6.6,8.3v-8.3h2.5v12.7h-2L172.1,168.6z"/>
	<path class="st1" d="M187.6,164.1h2.2l4.8,12.7H192l-1.2-3.2h-4.4l-1.2,3.2h-2.5L187.6,164.1z M190.4,171.8l-1.8-5l-1.8,5H190.4z"
		/>
	<path class="st1" d="M196.9,164.1l3.4,9.6l3.4-9.6h2.6l-4.9,12.7h-2.1l-5-12.7L196.9,164.1z"/>
	<path class="st1" d="M208.4,176.7v-12.7h2.5v12.7L208.4,176.7z"/>
	<path class="st1" d="M223,175.3c-0.9,1-2.2,1.5-3.5,1.5c-0.8,0-1.6-0.2-2.3-0.5c-0.7-0.3-1.4-0.8-1.9-1.4c-0.6-0.6-1-1.3-1.3-2.1
		c-0.3-0.8-0.5-1.7-0.5-2.6c0-0.8,0.2-1.7,0.5-2.5c0.3-0.7,0.8-1.4,1.3-2c0.6-0.6,1.2-1.1,2-1.4c0.8-0.3,1.6-0.5,2.4-0.5
		c1.1,0,2.1,0.2,3.1,0.8c0.8,0.5,1.5,1.2,1.9,2l-1.8,1.4c-0.3-0.6-0.8-1.1-1.4-1.4c-0.6-0.3-1.2-0.5-1.9-0.5c-0.5,0-1,0.1-1.5,0.3
		c-0.4,0.2-0.8,0.5-1.1,0.9c-0.3,0.4-0.6,0.9-0.7,1.4c-0.2,0.5-0.3,1.1-0.3,1.6c0,0.6,0.1,1.1,0.3,1.7c0.2,0.5,0.4,1,0.8,1.4
		c0.3,0.4,0.7,0.7,1.2,0.9c0.5,0.2,1,0.3,1.5,0.3c1.3,0,2.5-0.7,3.3-1.7V172h-2.6v-1.8h4.5v6.5h-2V175.3z"/>
	<path class="st1" d="M231.5,164.1h2.2l4.8,12.7h-2.5l-1.2-3.2h-4.4l-1.1,3.2h-2.5L231.5,164.1z M234.3,171.8l-1.8-5l-1.8,5H234.3z"
		/>
	<path class="st1" d="M248.8,166.2h-4.1v10.5h-2.4v-10.5h-4v-2.2h10.6L248.8,166.2z"/>
	<path class="st1" d="M259.9,174.6v2.2h-8.8v-12.7h8.6v2.2h-6.2v3.1h5.3v2h-5.3v3.3L259.9,174.6z"/>
	<path class="st1" d="M122.3,187.6h-4v10.5h-2.4v-10.5h-4.1v-2.2h10.6L122.3,187.6z"/>
	<path class="st1" d="M135.3,185.5v12.7h-2.4v-5.4h-5.8v5.4h-2.5v-12.7h2.5v5.1h5.8v-5.1H135.3z"/>
	<path class="st1" d="M147.4,196v2.2h-8.8v-12.7h8.6v2.2h-6.2v3.1h5.3v2h-5.3v3.3H147.4z"/>
	<path class="st1" d="M155.1,198.1v-12.7h5.4c0.6,0,1.1,0.1,1.6,0.4c0.5,0.2,0.9,0.6,1.3,1c0.4,0.4,0.6,0.9,0.8,1.4
		c0.2,0.5,0.3,1,0.3,1.5c0,0.5-0.1,1.1-0.3,1.6c-0.2,0.5-0.5,1-0.8,1.4c-0.4,0.4-0.8,0.7-1.2,0.9c-0.5,0.2-1,0.4-1.6,0.4h-3v4.2
		L155.1,198.1z M157.5,191.7h2.9c0.4,0,0.9-0.2,1.1-0.6c0.3-0.4,0.5-1,0.4-1.5c0-0.3,0-0.6-0.1-0.9c-0.1-0.2-0.2-0.5-0.4-0.6
		c-0.1-0.2-0.3-0.3-0.5-0.4c-0.2-0.1-0.4-0.1-0.6-0.1h-2.8V191.7z"/>
	<path class="st1" d="M166.9,198.1v-12.7h5.6c0.6,0,1.1,0.1,1.6,0.4c0.5,0.2,0.9,0.6,1.3,1c0.4,0.4,0.6,0.9,0.8,1.4
		c0.2,0.5,0.3,1,0.3,1.5c0,0.8-0.2,1.6-0.6,2.2c-0.4,0.7-1,1.2-1.7,1.5l2.9,4.8h-2.8l-2.6-4.2h-2.4v4.2L166.9,198.1z M169.4,191.7
		h3.1c0.2,0,0.4-0.1,0.6-0.2c0.2-0.1,0.4-0.3,0.5-0.4c0.1-0.2,0.3-0.4,0.3-0.6c0.1-0.3,0.1-0.5,0.1-0.8c0-0.3,0-0.6-0.1-0.8
		c-0.1-0.2-0.2-0.5-0.4-0.6c-0.2-0.2-0.3-0.3-0.6-0.4c-0.2-0.1-0.4-0.1-0.6-0.1h-3L169.4,191.7z"/>
	<path class="st1" d="M184.9,198.2c-0.9,0-1.7-0.2-2.5-0.5c-1.5-0.7-2.6-2-3.2-3.5c-0.6-1.5-0.6-3.3,0-4.8c0.3-0.7,0.8-1.4,1.3-2
		c0.6-0.6,1.2-1.1,2-1.4c0.8-0.4,1.6-0.5,2.5-0.5c0.9,0,1.7,0.2,2.5,0.6c0.7,0.4,1.4,0.9,1.9,1.5c1.1,1.2,1.7,2.8,1.7,4.4
		c0,0.8-0.2,1.6-0.5,2.4c-0.3,0.7-0.7,1.4-1.3,2c-0.6,0.6-1.2,1.1-2,1.4C186.6,198.1,185.7,198.2,184.9,198.2z M181.2,191.8
		c0,0.5,0.1,1.1,0.2,1.6c0.2,0.5,0.4,0.9,0.7,1.4c0.3,0.4,0.7,0.7,1.2,0.9c1,0.5,2.1,0.5,3.1,0c0.5-0.2,0.9-0.6,1.2-1
		c0.3-0.4,0.6-0.9,0.7-1.4c0.2-0.5,0.2-1,0.2-1.5c0-0.5-0.1-1.1-0.3-1.6c-0.2-0.5-0.4-1-0.7-1.4c-0.3-0.4-0.7-0.7-1.2-0.9
		c-1-0.5-2.1-0.5-3.1,0c-0.5,0.2-0.9,0.6-1.2,1c-0.3,0.4-0.6,0.9-0.7,1.4C181.3,190.8,181.2,191.3,181.2,191.8L181.2,191.8z"/>
	<path class="st1" d="M192.4,195.6c0.3,0.2,0.5,0.3,0.8,0.4c0.4,0.1,0.9,0.2,1.4,0.2c0.4,0,0.8-0.1,1.2-0.3c0.3-0.2,0.5-0.5,0.7-0.8
		c0.2-0.4,0.3-0.9,0.3-1.3c0.1-0.5,0.1-1.1,0.1-1.9v-6.4h2.5v6.4c0,0.9,0,1.8-0.1,2.6c-0.1,0.7-0.3,1.4-0.6,2
		c-0.3,0.6-0.8,1-1.4,1.3c-0.8,0.3-1.6,0.5-2.5,0.5c-1,0-1.9-0.2-2.7-0.8L192.4,195.6z"/>
	<path class="st1" d="M211.3,196v2.2h-8.8v-12.7h8.6v2.2H205v3.1h5.3v2H205v3.3H211.3z"/>
	<path class="st1" d="M212.9,191.7c0-0.8,0.1-1.6,0.4-2.3c0.3-0.7,0.7-1.4,1.2-2c0.6-0.6,1.2-1.1,2-1.4c0.8-0.4,1.7-0.6,2.6-0.6
		c1.1,0,2.1,0.2,3,0.8c0.8,0.5,1.5,1.2,1.9,2l-1.9,1.3c-0.1-0.3-0.3-0.6-0.6-0.9c-0.2-0.2-0.5-0.4-0.8-0.6c-0.3-0.1-0.6-0.3-0.9-0.3
		c-0.3-0.1-0.6-0.1-0.9-0.1c-0.6,0-1.1,0.1-1.6,0.4c-0.4,0.2-0.8,0.6-1.1,1c-0.3,0.4-0.5,0.9-0.7,1.4c-0.1,0.5-0.2,1-0.2,1.5
		c0,0.5,0.1,1.1,0.3,1.6c0.2,0.5,0.4,1,0.8,1.4c0.3,0.4,0.7,0.7,1.2,0.9c0.5,0.2,1,0.4,1.5,0.4c0.3,0,0.6,0,0.9-0.1
		c0.3-0.1,0.6-0.2,0.9-0.3c0.3-0.2,0.5-0.4,0.8-0.6c0.2-0.3,0.4-0.6,0.6-0.9l2,1.2c-0.2,0.5-0.5,0.9-0.9,1.3
		c-0.4,0.4-0.8,0.7-1.3,0.9c-0.5,0.3-1,0.4-1.5,0.6c-0.5,0.1-1,0.2-1.6,0.2c-0.9,0-1.7-0.2-2.5-0.6c-0.7-0.4-1.4-0.9-1.9-1.5
		c-0.5-0.6-1-1.3-1.3-2.1C213.1,193.4,212.9,192.5,212.9,191.7z"/>
	<path class="st1" d="M236,187.6h-4v10.5h-2.4v-10.5h-4v-2.2H236V187.6z"/>
</g>
</svg>
