<?xml version="1.0" encoding="utf-8"?>
<!-- Generator: Adobe Illustrator 23.0.1, SVG Export Plug-In . SVG Version: 6.00 Build 0)  -->
<!DOCTYPE svg PUBLIC "-//W3C//DTD SVG 1.1//EN" "http://www.w3.org/Graphics/SVG/1.1/DTD/svg11.dtd" [
	<!ENTITY ns_extend "http://ns.adobe.com/Extensibility/1.0/">
	<!ENTITY ns_ai "http://ns.adobe.com/AdobeIllustrator/10.0/">
	<!ENTITY ns_graphs "http://ns.adobe.com/Graphs/1.0/">
	<!ENTITY ns_vars "http://ns.adobe.com/Variables/1.0/">
	<!ENTITY ns_imrep "http://ns.adobe.com/ImageReplacement/1.0/">
	<!ENTITY ns_sfw "http://ns.adobe.com/SaveForWeb/1.0/">
	<!ENTITY ns_custom "http://ns.adobe.com/GenericCustomNamespace/1.0/">
	<!ENTITY ns_adobe_xpath "http://ns.adobe.com/XPath/1.0/">
]>
<svg version="1.1" id="Livello_1" xmlns:x="&ns_extend;" xmlns:i="&ns_ai;" xmlns:graph="&ns_graphs;"
	 xmlns="http://www.w3.org/2000/svg" xmlns:xlink="http://www.w3.org/1999/xlink" x="0px" y="0px" viewBox="0 0 510.2 510.2"
	 style="enable-background:new 0 0 510.2 510.2;" xml:space="preserve">
<style type="text/css">
	.st0{opacity:0.78;fill:none;stroke:#404896;stroke-width:1.5;stroke-miterlimit:10;enable-background:new    ;}
	.st1{fill:none;stroke:#444695;stroke-width:0.5;stroke-miterlimit:10;}
	.st2{opacity:0.5;}
	.st3{fill:#454897;}
</style>
<metadata>
	<x:xmpmeta  xmlns:x="adobe:ns:meta/">
		<rdf:RDF  xmlns:rdf="http://www.w3.org/1999/02/22-rdf-syntax-ns#">
			
				<rdf:Description  rdf:about="" xmlns:dc="http://purl.org/dc/elements/1.1/" xmlns:stDim="http://ns.adobe.com/xap/1.0/sType/Dimensions#" xmlns:stFnt="http://ns.adobe.com/xap/1.0/sType/Font#" xmlns:xmp="http://ns.adobe.com/xap/1.0/" xmlns:xmpG="http://ns.adobe.com/xap/1.0/g/" xmlns:xmpGImg="http://ns.adobe.com/xap/1.0/g/img/" xmlns:xmpTPg="http://ns.adobe.com/xap/1.0/t/pg/">
				<xmp:CreatorTool>Adobe Illustrator CC 23.0 (Macintosh)</xmp:CreatorTool>
				<xmp:CreateDate>2019-05-28T11:38:26+02:00</xmp:CreateDate>
				<xmp:Thumbnails>
					<rdf:Alt>
						<rdf:li  rdf:parseType="Resource">
							<xmpGImg:width>256</xmpGImg:width>
							<xmpGImg:height>252</xmpGImg:height>
							<xmpGImg:format>JPEG</xmpGImg:format>
							<xmpGImg:image>/9j/4AAQSkZJRgABAgEASABIAAD/7QAsUGhvdG9zaG9wIDMuMAA4QklNA+0AAAAAABAASAAAAAEA
AQBIAAAAAQAB/+4ADkFkb2JlAGTAAAAAAf/bAIQABgQEBAUEBgUFBgkGBQYJCwgGBggLDAoKCwoK
DBAMDAwMDAwQDA4PEA8ODBMTFBQTExwbGxscHx8fHx8fHx8fHwEHBwcNDA0YEBAYGhURFRofHx8f
Hx8fHx8fHx8fHx8fHx8fHx8fHx8fHx8fHx8fHx8fHx8fHx8fHx8fHx8fHx8f/8AAEQgA/AEAAwER
AAIRAQMRAf/EAaIAAAAHAQEBAQEAAAAAAAAAAAQFAwIGAQAHCAkKCwEAAgIDAQEBAQEAAAAAAAAA
AQACAwQFBgcICQoLEAACAQMDAgQCBgcDBAIGAnMBAgMRBAAFIRIxQVEGE2EicYEUMpGhBxWxQiPB
UtHhMxZi8CRygvElQzRTkqKyY3PCNUQnk6OzNhdUZHTD0uIIJoMJChgZhJRFRqS0VtNVKBry4/PE
1OT0ZXWFlaW1xdXl9WZ2hpamtsbW5vY3R1dnd4eXp7fH1+f3OEhYaHiImKi4yNjo+Ck5SVlpeYmZ
qbnJ2en5KjpKWmp6ipqqusra6voRAAICAQIDBQUEBQYECAMDbQEAAhEDBCESMUEFURNhIgZxgZEy
obHwFMHR4SNCFVJicvEzJDRDghaSUyWiY7LCB3PSNeJEgxdUkwgJChgZJjZFGidkdFU38qOzwygp
0+PzhJSktMTU5PRldYWVpbXF1eX1RlZmdoaWprbG1ub2R1dnd4eXp7fH1+f3OEhYaHiImKi4yNjo
+DlJWWl5iZmpucnZ6fkqOkpaanqKmqq6ytrq+v/aAAwDAQACEQMRAD8A9U4q7FXYq7FXYq7FXYq7
FXYq7FXYq7FXYq7FUPc3JQ8E3fufDCAxJPRDUdt3Yk++JkvB3uB4H4TQ/PFidkTb3XNuD/a7Hxxp
MZIjAzdirsVdirsVdirsVdirsVdirsVdirsVdirF/N3nSTy/qGn2htUMN/UC+uZWgtxIJI0WD1RH
IiyyLIzJ6hUHjStTsqgY/P8Aqv6Xa3k0qEafHrP6DkuUumaUSPCsscoiMKqV+IBvjqO1cVSLzr51
m1Tyr5w0xrZbZ7bRbu9tri3ufVdWgZ4+LtEAiurIrfBI3gaEYVTeP8xgmnafLZWKXFrqMzWWjGKS
R3maCNnld4YoZGjRBE4pu1aVAG4VVYvzD1D9KaNp19o7aXNqkcbf6bI0atK0rxyQwP6fB5I1QScH
KMysKCu2BWV6zc3NrpF7c2wVriCCSSIOSF5IhI5UB22xVgtl+Y+vR6FpCPpZ1bXbnSoNVuIbUyHn
FKqhacISqySsH2PFBT7WFUzj8/ahearNaaZo0s9rDNcWct6/NUint4mYmQhDH6fqr6Z4yFq78aYq
xXT9d80ai/kLXngt7nWL7Rr25aJp5IYJf3Ns4d+MThG/evQKh605UxV6X5Z1yLXvLmma3FE0Eep2
sN2sLEFkEyB+JI60rgVMsVdirsVcTQE+GKpYrFiWPUmpwzXFuldnrcs2sS2rIq2hLpayivJpIaCU
Hen7W3yyZx1G+rIlLF8x6iJTI/1Z4PrZtfq6chPTmVDCrEH7syBiFfBxpDdknIqQR1G4yimNpqrc
lDeIr9+VOSG8VdirsVY/5080v5b02G+Fr60Mk6w3FwxcQWyMjN607RpK6x8lCcuNAWFaDFWPax+Z
mrae+oNHpFvcW2madYardSremrQ3rSI6xcYXR2Qwtx+LiwoaiuKprcecg3m2Hy1LaIYL2Sa19Zbg
NMGjtfrHJ44wRGrqGUVcPtXjTFWJeQvzCWx/L6ynEC3dnpsUFrd3Bmb121C6kCxwCLg7Hk00ZaQn
vsGOFU61H8ytX06whuL/AEM2PrXE1sLm7lkgtKxxo8LNI0POMTs5RTKiqCpqelVWfggio3BwK850
f8xNcGlI1/aR3Wp32qalZafDbmVh6djcTqxdY4XfjGkSqCqsWrU8d6FUcv5janNcwWtv5euXvUjt
JNVszz9S3N2xHAMsbITGilz6jJUdN60VSC71nzJqlta3N7FA89n5sNlYpHK6KVgmkjEchEY+EcF+
OjHvTtirPfKXmCfW9NnnubZbS7tLu5sbqFJPVj9S1laJmRysZZW41FVBwKq6v5X0jV50lvkkegRZ
IlldI5Vjf1UWVFIVwrjkK/qJGKoM+QvLpmkm43AeW+GqPS6np9bVQokA50FFAFOmKoM/lX5L+qzW
i206W09vNZyQrd3QT6tcOHkhVfUosdRso2FTTriqtP8Alt5Sm9TlbzI0jxzs0VzcRMLiJeK3Ksjq
UnK/C0i0ZhXkTXFUS/krQmuYLgpK8lsYniWWeaSMzQMzxTSKz/HIruTyY1PftRVF6JoFrpWgQaKG
a4t4o2idpOr8yS9fYljtiqWr+XflZI9PSOK5ibS0MNnNHeXazLAaAwNKJfUaH4R+7Y8R2GKou38n
aBbavPqtvA8NxdENcQxzTLbPIF4eq1sHEBk4inPhXFUJZ/l55ZsxYi2S5jXTIZrawX63csIoZ1Cu
iBpCAOKqB4UFMVTfQ9GsNE0i00nT1aOxsoxDbRu7SFY1+yvJyzEKNhU9MVR2KuxV2KuYVUjxGKpM
xdQyqeLUIBIrQ+NO+WmNtOOfCUpi8u20ENmYXVby1kEj3YjHOXrzVqGvxcvHJ+ISTfJslJSj8tRR
yLNFIq3iXLXK3Hp7lXNTGw5AkfTlnifKmglPWHh1OUBSm0a8UVfAAfdlRcgN4pdirsVS/WdCsNYi
ijvPVAiZmUwyvESHQxurFCtVZGIIP68VSm6/LnypcpdxvbyrDe2dvps8MdxNGn1W0JMMSqrgKF5H
p4nFV6/l95XW++vpDcJd+ubsSpd3SUnaH6u8oCyAcnj2c0+L9quKqEH5X+SYbVbVLFvQFv8AVJEM
85EsIYsiy/H8ZjY1jZviQ/ZIxVEz+Q/L1xZLZXAuZ7fhJFMs13cStNHMEEkczSOzSKwiUUY7U274
qj9E0OHSRfenIztf3cl5LXZVaQKoVFqeKhUX6anvTFUuk/L3yq8LxfV5kDXj6jE8dzcI8FzKzNJJ
busgaHmZG5COgapriqq/kfy219FfCCWO6iiWB5I7i4QzRKxZUueMg+sAMxP73l1PicVWP5C8uNO8
wjuEL336TKJdXKxi7qWMix+pwWrMSQooa74qt0/yLpOn6tbX9o8yC3ku7j0nlkl53F9x9V2aR32+
GvGnU1xVkeKuxVTuYnmt5YkleB5EZVnj480JFOS8gy1HaoOKvGIPM/5ifWrXT57289blP5cuLpYr
cIdYDPJBdgeif3X1dQ7b03p23Kp1H5xuz5yXRU12SWD1L3TJ0mW2hkWaK3DwMqBTJ6hZWKu1Fk34
pQDFUk0TzZqlr5J8nWFrrkNlDfaYfX1q8mhVIr+KKEJZtIYZlVl5O5SQcmpTl1GKss0HUde1Tzze
WUnmKkGmWunXUmnwRW/CZp4pROPjT1kj5cG68hUb4q9AwK7FXYq7FXYq7FXYqgr20ZiZIxUn7S/x
yyEmnJDqEBRumWbNO6pGm9chKTMBG21seQkcUA+yPfIEtsY9UXkWx2KuxV2KuxV2KuxV5X+YGq+f
tL1q/sNHvLmYahaDUtI4pAFh+oMWvrYsYX2ljZBGTvybCqG17znrVn5dj1GPWbm3uNci1DUNFt5o
bdKRQoHtIvVkTiCysH9Pi0j14igBJVU5vNV7a6p5k1yy1A3F9Jo+lXVnZKY3jeNxMJ5o4grSOluC
0h4V71r0xVFXHmXXGsNJEPm+1ki1bWVtYb6yNtccbSS1aRlMrxJG8iSoCCqDiGAYNir1Gzhmhs4I
Z52uZ4o0SW5YKrSOqgM5VQFBY70ApgVWxV2KuxV2KuxVrgla8RWta070pX7sVdwTly4jlWtab1pT
9WKtelHx48F4g1C0FK9cVcI4w5cKA52LUFSPniq7FXYq7FXYq7FXYq7FXYqtaKNjVlBPiRjaCA5Y
41+yoB8QMVpdil2KuxV2KuxV2KuxV2KuoKg03GwPehxVoIgCgKKL9kU6bU2xVwVQagAECn0Yqt9C
Hiq+mvFd1FBQH2xVfirsVdirsVdirsVQ15fwWoHP4pG+yg6n+mNMJTASqXX7sGqRxqvYNUn8CMmI
20SzluDzI4alxEOP80daj6D/AFyfhMY6nvCdQTxTxCWJgyN0IyoinLjIEWF+BLsVdirsVdirsVdi
rsVdirsVdirsVdirsVdirsVdirsVWTzxQRmWVgqL1JwgWiUgBZSeXzDI7EW0Q4j9qTv9A/rkzADm
1wnKZ9IWDX71WrJFGy+C8gfvJOACJZTE4ppY6jBeKeFVkX7UZ6j39xglGlhMFFZFm7FXYq7FXYqp
3EywQPM3RATTx9sIFlEpULYw03ISXVw4GxZ3Y0UAbnc9AMZHeg1Rhe5Y7Z+d/K+pTyxWl8JGijeY
gxyoDHH9pkLoocD/ACa5mjTyiBYcbJE2t0jzj5Y1m6W10+99S4dDJGjxSxc1HUp6qIGp7ZOeGcRZ
DWYFlOi3T214sRP7qc8SP8r9k/wzGyCw2YJGMq6Fk2Y7nuxV2KuxV2KuxV2KuxV2KuxV2KuxV2Ku
xV2KuxV2KuxViuv37TXphB/dQniB4t3P8My8UKFuu1GS5V3MdXzz5Wivm003UhvI5fq8qLb3DgS1
A481jKdT45XPTZJeqtveOTt8JjCNdUenmnQHtdRuVu1MOkPJHqJCvyiaL7dU48j02IBB7ZV+XnYF
fVyWeQFMLa5jeOG9tHqrqskTAEVVhUbGh3GDcGi4U65hlUEqzQpKvRwDT+GBuBsWvxS7FXYq7FUF
rQJ0yYD/ACf+JjJw5teX6WM3qJJpd1E8LXCPDIrW6GjSAqQUUkihbp1yF+sHk5UIel5roq+YIJJd
LsIdUOgCxuFe31W2VHgf0+MccEwAMlWFOI2p9+bWRgfUeHjsfSefvcWcUT5O8s6pHb6HqOq3bctN
t3Fnp5g9BoWmXg4kYks/w+wy7JkBJAHNwM0qunolnWSeH+bmtPnUZrJ7Jx7kMwzHdk7FXYq7FXYq
7FXYq7FXYq7FXYq7FXYq7FXYq7FXYq7FWB6gWF/PXr6j/wDEjmyxj0ulyGpn3vPdINxZeZ9SkuF1
uJZtUeaGK0gY2UsbcQHlPpmoNNyG6ZdkhcAPT9PXm7EZutpfqHlbXhZ+ZdV02GYXl1e39vc2TI3+
lWcrApJGtKsyMxZSOv4GyGSNxB5AD4Ficot6jonqRaPYxSKUdbeJXRhQhggBBB6HNbnAMiWkSZho
xJ02En/K/wCJHMeQ3czCfSEbkW12KuxV2KrJollieJ/suCp+nCDSCLFMUnEtpM0Mw3XofEdiMmcf
FuGOPVcG0lGW5iI71yUMMguXV4yEDI/NqDM2EaDqcuTiOydeXFgnvnX1EMlsqu8IYcxzqFJXqBsd
8xMzl6aF7sozHc52KuxV2KuxV2KuxV2KuxV2KuxV2KuxV2KuxV2KuxVB6trOmaTaG61G4W3hB4qW
3ZmPRUUVZmPgork4QMjQW2KTfW78SajJp81hbzSH0FnoJWWg+NkG8fI1+Ft8yoyEdrt12pw733qC
28o2ByzxA44jJEonAVPXKzK2YFL7aCW5nWGIVZup7AdycjI0GUImRoMvhiSGJIk+ygCj6MxSbdnE
UKX4EuxV2KuxV2KqF3Y212nCZa0+yw2YfI5KMiOTCeMS5pPL5UUk8Lig7ArU/eDl41Hk4stHfVUt
fKtrG/KaQy/5IHEfTuTglqCeSYaOI5m1PX/L00rQanopS21uwUi3bpHNFWrW01Osb9v5TuMjjydJ
fSfxblcNckdoGuW2s6eLqJGhlRjFd2sm0kEybPE48V/VvkcmMxNJBTHK0uxV2KuxV2KuxV2KuxV2
KuxV2KuxV2KuxV2Ksd1DzTNNeSaV5dt11HUozxuZ2JFnan/i+Rerf8Vr8Xyy+OKhcth9pRarpPlS
C3uxqepztquskU+uTABYhWvG3i+zEvy38TgnmsUNo/jmtJ46I6lHAZTsQemUqRaVz6BCxrDIY/8A
JI5D9YyQk0ywA8lFfLbEj1bjbwVf4k/wyzxa6Nf5bvKaWdjbWicIVpX7THdj8zlcpE83IhjERsr5
Fm7FXYq7FXYq7FXYq7FXYq7FWL+YbafRdQPmjT0Z4+KprtogqZrdOk6jvLCPvWozIxkSHAfh+PNB
ZJbXEFzbxXFu4lgmUSRSKaqysKgg+4ygijRSqYFdirsVdirsVdirsVdirsVdirsVdiqjeXtpZWsl
3dzJBbQrylmkIVVHuThjEk0FYwJNa82D90ZdJ8tsP70fBeXi/wCTXeCI+P2mHgDmRUcfnL7B+tHN
kmnabYabZx2dhAltbRCiRRig+Z8Se5OUSkZGylE5FXYq7FXYq7FXYq7FXYq7FXYq7FXYq7FXYq7F
XEAih6YqxXSD/hzXToL/AA6RqJefRWPSKT7U1p8t+cftUdsyJ+uPF/EOf60cmVZjpdirsVdirsVd
irsVdirsVdirsVS/W9d0/RrQXF2xLSN6dvbxjnNNIfsxxIN2Y/7eTx4zI0EEpPZaBf6xdR6r5mUc
Y2ElhogPKGA9nm7Szf8ACr28ctlkERUPifx0WmUZjpdirsVdirsVdirsVdirsVdirsVdirsVdirs
VdirsVdiqWeZNFGsaVJarJ6N0hWayuR1huIjyikHybr7VGWYp8MrQQt8s60dX0mO4lj9G9iZre/t
/wDfVzEeMqfKu49qY5YcMq6dFBTXK0uxV2KuxV2KuxV2KuxV2KpTr/mGDSlhhSJrvU7wlLDT4qc5
XArUk/YRf2nOwGWY8Zl5AdUEobQvLs8d2dZ1qVbvXZVoGWvo2qN1htlP2R/M3Vu+SyZRXDHaP3+9
QE/ylLsVdirsVdirsVdirsVdirsVdirsVdirsVdirsVdirsVdirsVYvODonnGO4G2m+YaQT/AMqX
0S/um/57Rgr81GZA9cK6x+5HVlGY6XYq7FXYq7FXYq7FXYqkvmPzGNLENpaQ/XdZvarYWCmhYjq7
n9iNOrMctxYuLc7RHMoJd5e8utYNJf6hML7XLof6XekUCr1EMIP2Il7Dv1OOTJew2ioCdZUl2Kux
V2KuxV2KuxV2KuxV2KuxV2KuxV2KuxV2KuxV2KuxV2KuxVK/M+jnV9EubOM8LkgSWcvQx3ER5xOD
2o6j6MsxT4ZAoIX+XNXGr6Jaahx4PMn76M9UlUlJU/2LqRjlhwyIUJjlaXYq7FXYq7FXYqlPmLX4
9Jt40iiN3qd23padYKQHmk/41RRu7HYDLMePiPcBzKCVPy75fexabUdQdbrXb4A3t0B8KgfZhhB+
zEnbx6nDkyXsPpCgJ1lSXYq7FXYq7FXYq7FXYq7FXYq7FXYq7FXYq7FXYq7FXYq7FXYq7FXYq7FW
NaDTTfNGs6P0huuOrWY67TH07hfakq8v9ll+T1QEu7b9SAyXKEuxV2KuxV2KoDXNatNH09ry5DP8
SxwQRjlJNK5okUa/tMx6ZPHAyNBBKX+XNEvEnk1vWuL65eKFKKeUdrDWq28Xy/bP7TZPLkFcMfpH
2+agJ/lKXYq7FXYq7FXYq7FXYq7FXYq7FXYq7FXYq7FXYq7FXYq7FXYq7FXYq7FXYqxvzRWz1jQN
YXZY7k2FzTb91fDgpJ8FmSPL8W8ZR8r+SCyTKEuxV2KuxVSu7q2tLaW6uZFht4FMksrGiqqipJwg
EmgrG9BtLjXNQTzNqUbRxKCNCsX6xQv1uJB/v2Uf8Cu2X5CIDgHx/UgMpzHS7FXYq7FXYq7FXYq7
FXYq7FXYq7FXYq7FXYq07qilmNAO+KCaQr6gK/AlR4k0yfC1nI0uoGvxR7exx4VGRFRypItVPzHf
IU2A2uxS7FXYq7FXYq7FUm852L3vlbU4I/74QNLBT/fsP72P/h0GW4JVMIKYaXepf6ZaXyCiXcMc
6geEiBh+vITjRI7konIq7FXYqxO4/wCdr1lrQb+XNJlH1w/s3l2hqIfeKE7v4tt2zJH7uN/xH7Aj
myzMZLsVdirsVdirsVdirsVdirsVdirsVWSyxxLyc08B3OEC0GQCFbUt/hTb3OT4GvxVyagCfjSg
8Qa5ExSJopHV15Kag98i2AoG6kMkhH7K7AfxyQaZG0vh1HTZpfShuoZZd/3aSKzbddga5bwEdGC/
67a+nJJ6qenESsr8hxUr9oMa7U748BW0Rb3IBWRCGU71HQg5CUWUZJoCCAR0PTK292KuxV2KuxV2
KuIBBBFQdiDirHfy/LJ5Ygs3P7zT5biyceH1ed41H/AKMv1H1337oDIsoS7FWPeadTvDJb6BpUhT
VtSBrOu5tbVdpbg+4+yni3yy/FAfVLkPtPcgpvpemWel6db6fZp6dtbIEjXv4kk9yx3J7nKpyMjZ
SisirsVdirsVdirsVdirsVdirsVdiriQASeg64qk1zM0khdjQdvYZfEOLI2UNbanpUrcY7yCR6E8
VkRjQbk0B7YJxl3N2OI6oi2v9OuWKW1zDM4FSsbqxA8aKTlRjIc3IoIuCQxygfstsR/HEbhqlsVg
FV98bpgBYYNpsMvDSTMkUVq13I0d2oJlLo70jc0FA52zNnIb13KIK1xdRW1lrGmSBhe3E8xt4QpJ
kE5HArt74x3IPRiYsktEaG3hjb7SIqt8wKZVLdqPNPoP7iP/AFR+rMc83KjyX4EuxV2KuxV2KuxV
jvlNfRv/ADHaHrFqbygf5NzBFMPxc5fm3ET/AEUBkWUJQuq6naaXp1xqF4/C2tkLyEbk06Ko7sx2
A7nJQgZGgqVeVNLu40n1nVE46zqpEk6dfQhX+5t1r/Iv2vFicszTH0j6R+LQE/ylLsVdirsVdirs
VdirsVdirsVdirsVWT19F6eBxRLkktyv7pz/AJJ/Vl8C4xDHfLtlMmhi5eSN42tn9NBCFdTQ7mSp
J29suyn1V5tkZKOgpILvRDcpFbxiF2tpoweUpK8eDsQKGm+DKNpU2iTM5BtXvmHFEzYXzqYpT/K2
4w1ag0VtQcg3ALHIArk47sZ0ApQwtLKFHfqfAZcTQcMCynKgAADoNhlDlOxV2KuxV2KuxV2Ksd0P
4fOHmZezfUZPpMBT/mXl+T6I/FA5siyhLFrqnmLzQtl9vR9CdZbvus18RWKL3EKnm3+UR4ZkD0Qv
+KX3ftRzZTmOl2KuxV2KuxV2KuxV2KuxV2KuxV2KuxVxAIIPQ7HFUslQo5Ru3T3GWBoKwBRkrY02
N8iUq8EZkkH8q7nK2wbo10R14sKjFmRaFeyf9h9vf+ow2F3WjT3J+NwB7b/0yXEwMCeaKihjiWiD
5nuciTbMRAX4EuxV2KuxV2KuxV2Kse0sAedtfptW104n51uRX7hl8/7uPvP6EdUX5o1mTSdJea3T
1b+dlttOg/35cy7Rr8h9o+wOQxQ4pb8uqkqnl3Rk0fSYbIOZphWS6uG+1LPIeUsjH/KY45J8UrUB
MsrS7FXYq7FXYq7FXYq7FXYq7FXYq7FXYq7FVksMcq0YfI9xhBpBiChG0+SvwuCPfbJcTV4ZXJYN
X4328F/twGSRjRaIqLxUUGRbAKbxS7FXYq7FXYq7FXYq7FXYq7FXYqx3Rjy85+Y268YrCOvhRJWp
/wAPX6cvn/dx+KBzUrT/AHN+cJr0/Fp3l/la2vg97IB9Yf8A55IRH8y2E+iFdZfd0XqyfMdLsVdi
rsVdirsVdirsVdirsVdirsVdirsVdirsVdirsVdirsVdirsVdirsVdirsVdirsVdirsVYPLrD2En
m3UrUepdzX0Gn6dFtV7kW0MaKBvWkkhJ9gcyxC+AHlVn3WxtlHl/R4tH0a105DzMKfvZTuZJWPKS
Qk93ck5j5J8UiUgJhkEuxV2KuxV2KuxV2KuxV2KuxV2KuxV2KuxV2KuxV2KuxV2KuxV2KuxV2Kux
V2KuxV2KuxV2KuxV5t5K/wBznmGe5+1YafeXd+Qa0N1dSvFADXr6dtHy9uQzPz+iNdSAPgP2sQ9J
zAZOxV2KuxV2KuxV2KuxV2KuxV2KuxV2KuxV2KuxV2KuxV2KuxV2KuxV2KuxV2KuxV2KuxV2KuxV
L/MWqppOg6jqbkKtlbSz1PiiEgb+J2yeOHFIDvKCUl/LDQn0fyZYRzil5dILu7J6+pMAQpr/ACpx
X6Mt1WTiyHuCxGzKsx0uxV2KuxV2KuxV2KuxV2KuxV2KuxV2KuxV2KuxV2KuxV2KuxV2KuxV2Kux
V2KuxV2KuxV2KuxVhn5lt9eh0byuu7a/fxR3KDr9TtiLi5IPbZFH05laXa5/zR9p2DGXczPMVk7F
XYq7FXYq7FXYq7FXYq7FXYq7FXYq7FXYq7FXYq7FXYq7FXYq7FXYq7FXYq7FXYq7FXYqlOp636Lm
C2AaUbM53Cnw9zlscfUuNlz0aHNKZNSvftPO9fZio+4UGSELaDlPegfVgOs2uryr699ZxyQ28jsx
4pLTmAK0qadcu8M8Jj0LEakgsx0/UIL2H1ItiNnQ9QcxJwMTu52PIJiwici2OxV2KuxV2KuxV2Ku
xVZLKsa1PXsMUE0l815MT9riOwXbLYxaJTKkt1cA15t9Jr+vJcIYiZRtre8yEk2Y9D2OVyjTdDJf
NF5BsdirsVdirsVdirsVdirsVdirsVdirsVdirsVQ2pXDW9jNKv2lFF+bGg/XkoCy15ZcMSXn/mL
W/0Hod5qxh+sm1UN6PLhy5OF+1Rqfa8MzscOOQi6+AspDL57a2e+i12wNhcWdul2kUUq3Ikjkf01
CsFjoxegpTMiOHYcJu1OLi5K1j5gv21G2sNX0ttLmv0d7FvWWdXMY5PG3FV4OF3p+OA1RIN1zTLT
WNmX6Bcvb6jGtfglPpsPHl0/HMfPEGLDTSMZ0zLMB2zsVdirsVdirsVdirsVS+5kLzN4KeI+jJgN
Mjuk+r6h9QgWf0/V5SJHxrx+2aVrQ5fCN7NYG7pdXji1aHTzESsgAe4r8KO4YohFOrcD3yBieG2+
ACZNHTcZXGaZ4q3CZwOXhVj1I3+jbIlMTYX4EuxV2KuxV2KuxV2KuxV2KuxV2KuxV2KuxVBa0pbT
JqCtOJ+gMCclDm1Zx6CwDzhol1rPlu+0y1ZEnukVY3lJCAh1bcqGPbwzM0+URkCXCGxtB3P5b6BJ
o15ZWMZtLm7CE3heSaRXiYPGeUrM3EMPs1wy1khME7hysMeIN2XlzzLe6zp+oeYZbPhpQc2sNl6h
9SWReBkkMgXjQdFHfvlU9RARIhfq73Nx4d92S2MJOqQhR0lB+gNX9Qw8Xo+DqpQrLt3syzEdg7FX
Yq7FXYq7FXYq7FUrlqszg/zH8ctHJxzzSfVdO1C/niirCtgsscrtVvVPA1KgU47/ADy2EwB5oClL
5duZorucyhdRlnE1u6yyemojK+mGUUBoF68cicoBA6ORFP8A4uA5gBqfEAaivz2zGHNtJ2RtoKQL
9J/HJFpjyVcDJ2KuxV2KuxV2KuxV2KuxV2KuxV2KuxV2KtOiujIwqrAhh4g4oItjl5ZvaScWFYif
gftTwPvh9zjGPCd+SlziA6gZAglysZiFjyqBtv4YYwJciWaMRaaaJpjxsbucUkYfu1PUA9ScunLa
g4GOG/EU4ypvdirsVdirsVdirsVdiqFvLct+8QVI+0PHJRLXOPVBgZK2ulRQBucgTbZHZdHE0z06
IOpxGyTumAAAAHQdMDN2KuxV2KuxV2KuxV2KuxV2KuxV2KuxV2KuxV2KrZfS9NvV4+n+1ypT6a4o
NdUlm/w7yPX3486ZaOJoPAibD9B+oPq/H1e3OvKvtz/hglxMocF7c0zytudirsVdirsVdirsVdir
sVdiqhN9U5fHTl3pWv00w7sDSxfqVf61xXZErx4jjTj2p0wM28VdirsVdirsVdirsVdir//Z
								</xmpGImg:image>
						</rdf:li>
					</rdf:Alt>
				</xmp:Thumbnails>
				<xmpTPg:MaxPageSize  rdf:parseType="Resource">
					<stDim:w>180.000000</stDim:w>
					<stDim:h>180.000000</stDim:h>
					<stDim:unit>Millimeters</stDim:unit>
				</xmpTPg:MaxPageSize>
				<xmpTPg:NPages>1</xmpTPg:NPages>
				<xmpTPg:HasVisibleTransparency>True</xmpTPg:HasVisibleTransparency>
				<xmpTPg:HasVisibleOverprint>False</xmpTPg:HasVisibleOverprint>
				<xmpTPg:Fonts>
					<rdf:Bag>
						<rdf:li  rdf:parseType="Resource">
							<stFnt:fontName>Amiri-Regular</stFnt:fontName>
							<stFnt:fontFamily>Amiri</stFnt:fontFamily>
							<stFnt:fontFace>Regular</stFnt:fontFace>
							<stFnt:fontType>TrueType</stFnt:fontType>
							<stFnt:versionString>Version 000.107</stFnt:versionString>
							<stFnt:composite>False</stFnt:composite>
							<stFnt:fontFileName>Amiri-Regular.ttf</stFnt:fontFileName>
						</rdf:li>
						<rdf:li  rdf:parseType="Resource">
							<stFnt:fontName>Raleway-Bold</stFnt:fontName>
							<stFnt:fontFamily>Raleway</stFnt:fontFamily>
							<stFnt:fontFace>Bold</stFnt:fontFace>
							<stFnt:fontType>Open Type</stFnt:fontType>
							<stFnt:versionString>Version 3.000g; ttfautohint (v1.5) -l 8 -r 28 -G 28 -x 14 -D latn -f cyrl -w G -c -X &quot;&quot;
								</stFnt:versionString>
							<stFnt:composite>False</stFnt:composite>
							<stFnt:fontFileName>Raleway-Bold.ttf</stFnt:fontFileName>
						</rdf:li>
					</rdf:Bag>
				</xmpTPg:Fonts>
				<xmpTPg:PlateNames>
					<rdf:Seq>
						<rdf:li>Cyan</rdf:li>
						<rdf:li>Magenta</rdf:li>
						<rdf:li>Yellow</rdf:li>
						<rdf:li>Black</rdf:li>
					</rdf:Seq>
				</xmpTPg:PlateNames>
				<xmpTPg:SwatchGroups>
					<rdf:Seq>
						<rdf:li  rdf:parseType="Resource">
							<xmpG:groupName>Gruppo campioni predefinito</xmpG:groupName>
							<xmpG:groupType>0</xmpG:groupType>
							<xmpG:Colorants>
								<rdf:Seq>
									<rdf:li  rdf:parseType="Resource">
										<xmpG:swatchName>Bianco</xmpG:swatchName>
										<xmpG:mode>CMYK</xmpG:mode>
										<xmpG:type>PROCESS</xmpG:type>
										<xmpG:cyan>0.000000</xmpG:cyan>
										<xmpG:magenta>0.000000</xmpG:magenta>
										<xmpG:yellow>0.000000</xmpG:yellow>
										<xmpG:black>0.000000</xmpG:black>
									</rdf:li>
									<rdf:li  rdf:parseType="Resource">
										<xmpG:swatchName>Nero</xmpG:swatchName>
										<xmpG:mode>CMYK</xmpG:mode>
										<xmpG:type>PROCESS</xmpG:type>
										<xmpG:cyan>0.000000</xmpG:cyan>
										<xmpG:magenta>0.000000</xmpG:magenta>
										<xmpG:yellow>0.000000</xmpG:yellow>
										<xmpG:black>100.000000</xmpG:black>
									</rdf:li>
									<rdf:li  rdf:parseType="Resource">
										<xmpG:swatchName>Rosso CMYK</xmpG:swatchName>
										<xmpG:mode>CMYK</xmpG:mode>
										<xmpG:type>PROCESS</xmpG:type>
										<xmpG:cyan>0.000000</xmpG:cyan>
										<xmpG:magenta>100.000000</xmpG:magenta>
										<xmpG:yellow>100.000000</xmpG:yellow>
										<xmpG:black>0.000000</xmpG:black>
									</rdf:li>
									<rdf:li  rdf:parseType="Resource">
										<xmpG:swatchName>Giallo CMYK</xmpG:swatchName>
										<xmpG:mode>CMYK</xmpG:mode>
										<xmpG:type>PROCESS</xmpG:type>
										<xmpG:cyan>0.000000</xmpG:cyan>
										<xmpG:magenta>0.000000</xmpG:magenta>
										<xmpG:yellow>100.000000</xmpG:yellow>
										<xmpG:black>0.000000</xmpG:black>
									</rdf:li>
									<rdf:li  rdf:parseType="Resource">
										<xmpG:swatchName>Verde CMYK</xmpG:swatchName>
										<xmpG:mode>CMYK</xmpG:mode>
										<xmpG:type>PROCESS</xmpG:type>
										<xmpG:cyan>100.000000</xmpG:cyan>
										<xmpG:magenta>0.000000</xmpG:magenta>
										<xmpG:yellow>100.000000</xmpG:yellow>
										<xmpG:black>0.000000</xmpG:black>
									</rdf:li>
									<rdf:li  rdf:parseType="Resource">
										<xmpG:swatchName>Cyan CMYK</xmpG:swatchName>
										<xmpG:mode>CMYK</xmpG:mode>
										<xmpG:type>PROCESS</xmpG:type>
										<xmpG:cyan>100.000000</xmpG:cyan>
										<xmpG:magenta>0.000000</xmpG:magenta>
										<xmpG:yellow>0.000000</xmpG:yellow>
										<xmpG:black>0.000000</xmpG:black>
									</rdf:li>
									<rdf:li  rdf:parseType="Resource">
										<xmpG:swatchName>Blu CMYK</xmpG:swatchName>
										<xmpG:mode>CMYK</xmpG:mode>
										<xmpG:type>PROCESS</xmpG:type>
										<xmpG:cyan>100.000000</xmpG:cyan>
										<xmpG:magenta>100.000000</xmpG:magenta>
										<xmpG:yellow>0.000000</xmpG:yellow>
										<xmpG:black>0.000000</xmpG:black>
									</rdf:li>
									<rdf:li  rdf:parseType="Resource">
										<xmpG:swatchName>Magenta CMYK</xmpG:swatchName>
										<xmpG:mode>CMYK</xmpG:mode>
										<xmpG:type>PROCESS</xmpG:type>
										<xmpG:cyan>0.000000</xmpG:cyan>
										<xmpG:magenta>100.000000</xmpG:magenta>
										<xmpG:yellow>0.000000</xmpG:yellow>
										<xmpG:black>0.000000</xmpG:black>
									</rdf:li>
									<rdf:li  rdf:parseType="Resource">
										<xmpG:swatchName>C=15 M=100 Y=90 K=10</xmpG:swatchName>
										<xmpG:mode>CMYK</xmpG:mode>
										<xmpG:type>PROCESS</xmpG:type>
										<xmpG:cyan>15.000000</xmpG:cyan>
										<xmpG:magenta>100.000000</xmpG:magenta>
										<xmpG:yellow>90.000000</xmpG:yellow>
										<xmpG:black>10.000000</xmpG:black>
									</rdf:li>
									<rdf:li  rdf:parseType="Resource">
										<xmpG:swatchName>C=0 M=90 Y=85 K=0</xmpG:swatchName>
										<xmpG:mode>CMYK</xmpG:mode>
										<xmpG:type>PROCESS</xmpG:type>
										<xmpG:cyan>0.000000</xmpG:cyan>
										<xmpG:magenta>90.000000</xmpG:magenta>
										<xmpG:yellow>85.000000</xmpG:yellow>
										<xmpG:black>0.000000</xmpG:black>
									</rdf:li>
									<rdf:li  rdf:parseType="Resource">
										<xmpG:swatchName>C=0 M=80 Y=95 K=0</xmpG:swatchName>
										<xmpG:mode>CMYK</xmpG:mode>
										<xmpG:type>PROCESS</xmpG:type>
										<xmpG:cyan>0.000000</xmpG:cyan>
										<xmpG:magenta>80.000000</xmpG:magenta>
										<xmpG:yellow>95.000000</xmpG:yellow>
										<xmpG:black>0.000000</xmpG:black>
									</rdf:li>
									<rdf:li  rdf:parseType="Resource">
										<xmpG:swatchName>C=0 M=50 Y=100 K=0</xmpG:swatchName>
										<xmpG:mode>CMYK</xmpG:mode>
										<xmpG:type>PROCESS</xmpG:type>
										<xmpG:cyan>0.000000</xmpG:cyan>
										<xmpG:magenta>50.000000</xmpG:magenta>
										<xmpG:yellow>100.000000</xmpG:yellow>
										<xmpG:black>0.000000</xmpG:black>
									</rdf:li>
									<rdf:li  rdf:parseType="Resource">
										<xmpG:swatchName>C=0 M=35 Y=85 K=0</xmpG:swatchName>
										<xmpG:mode>CMYK</xmpG:mode>
										<xmpG:type>PROCESS</xmpG:type>
										<xmpG:cyan>0.000000</xmpG:cyan>
										<xmpG:magenta>35.000000</xmpG:magenta>
										<xmpG:yellow>85.000000</xmpG:yellow>
										<xmpG:black>0.000000</xmpG:black>
									</rdf:li>
									<rdf:li  rdf:parseType="Resource">
										<xmpG:swatchName>C=5 M=0 Y=90 K=0</xmpG:swatchName>
										<xmpG:mode>CMYK</xmpG:mode>
										<xmpG:type>PROCESS</xmpG:type>
										<xmpG:cyan>5.000000</xmpG:cyan>
										<xmpG:magenta>0.000000</xmpG:magenta>
										<xmpG:yellow>90.000000</xmpG:yellow>
										<xmpG:black>0.000000</xmpG:black>
									</rdf:li>
									<rdf:li  rdf:parseType="Resource">
										<xmpG:swatchName>C=20 M=0 Y=100 K=0</xmpG:swatchName>
										<xmpG:mode>CMYK</xmpG:mode>
										<xmpG:type>PROCESS</xmpG:type>
										<xmpG:cyan>20.000000</xmpG:cyan>
										<xmpG:magenta>0.000000</xmpG:magenta>
										<xmpG:yellow>100.000000</xmpG:yellow>
										<xmpG:black>0.000000</xmpG:black>
									</rdf:li>
									<rdf:li  rdf:parseType="Resource">
										<xmpG:swatchName>C=50 M=0 Y=100 K=0</xmpG:swatchName>
										<xmpG:mode>CMYK</xmpG:mode>
										<xmpG:type>PROCESS</xmpG:type>
										<xmpG:cyan>50.000000</xmpG:cyan>
										<xmpG:magenta>0.000000</xmpG:magenta>
										<xmpG:yellow>100.000000</xmpG:yellow>
										<xmpG:black>0.000000</xmpG:black>
									</rdf:li>
									<rdf:li  rdf:parseType="Resource">
										<xmpG:swatchName>C=75 M=0 Y=100 K=0</xmpG:swatchName>
										<xmpG:mode>CMYK</xmpG:mode>
										<xmpG:type>PROCESS</xmpG:type>
										<xmpG:cyan>75.000000</xmpG:cyan>
										<xmpG:magenta>0.000000</xmpG:magenta>
										<xmpG:yellow>100.000000</xmpG:yellow>
										<xmpG:black>0.000000</xmpG:black>
									</rdf:li>
									<rdf:li  rdf:parseType="Resource">
										<xmpG:swatchName>C=85 M=10 Y=100 K=10</xmpG:swatchName>
										<xmpG:mode>CMYK</xmpG:mode>
										<xmpG:type>PROCESS</xmpG:type>
										<xmpG:cyan>85.000000</xmpG:cyan>
										<xmpG:magenta>10.000000</xmpG:magenta>
										<xmpG:yellow>100.000000</xmpG:yellow>
										<xmpG:black>10.000000</xmpG:black>
									</rdf:li>
									<rdf:li  rdf:parseType="Resource">
										<xmpG:swatchName>C=90 M=30 Y=95 K=30</xmpG:swatchName>
										<xmpG:mode>CMYK</xmpG:mode>
										<xmpG:type>PROCESS</xmpG:type>
										<xmpG:cyan>90.000000</xmpG:cyan>
										<xmpG:magenta>30.000000</xmpG:magenta>
										<xmpG:yellow>95.000000</xmpG:yellow>
										<xmpG:black>30.000000</xmpG:black>
									</rdf:li>
									<rdf:li  rdf:parseType="Resource">
										<xmpG:swatchName>C=75 M=0 Y=75 K=0</xmpG:swatchName>
										<xmpG:mode>CMYK</xmpG:mode>
										<xmpG:type>PROCESS</xmpG:type>
										<xmpG:cyan>75.000000</xmpG:cyan>
										<xmpG:magenta>0.000000</xmpG:magenta>
										<xmpG:yellow>75.000000</xmpG:yellow>
										<xmpG:black>0.000000</xmpG:black>
									</rdf:li>
									<rdf:li  rdf:parseType="Resource">
										<xmpG:swatchName>C=80 M=10 Y=45 K=0</xmpG:swatchName>
										<xmpG:mode>CMYK</xmpG:mode>
										<xmpG:type>PROCESS</xmpG:type>
										<xmpG:cyan>80.000000</xmpG:cyan>
										<xmpG:magenta>10.000000</xmpG:magenta>
										<xmpG:yellow>45.000000</xmpG:yellow>
										<xmpG:black>0.000000</xmpG:black>
									</rdf:li>
									<rdf:li  rdf:parseType="Resource">
										<xmpG:swatchName>C=70 M=15 Y=0 K=0</xmpG:swatchName>
										<xmpG:mode>CMYK</xmpG:mode>
										<xmpG:type>PROCESS</xmpG:type>
										<xmpG:cyan>70.000000</xmpG:cyan>
										<xmpG:magenta>15.000000</xmpG:magenta>
										<xmpG:yellow>0.000000</xmpG:yellow>
										<xmpG:black>0.000000</xmpG:black>
									</rdf:li>
									<rdf:li  rdf:parseType="Resource">
										<xmpG:swatchName>C=85 M=50 Y=0 K=0</xmpG:swatchName>
										<xmpG:mode>CMYK</xmpG:mode>
										<xmpG:type>PROCESS</xmpG:type>
										<xmpG:cyan>85.000000</xmpG:cyan>
										<xmpG:magenta>50.000000</xmpG:magenta>
										<xmpG:yellow>0.000000</xmpG:yellow>
										<xmpG:black>0.000000</xmpG:black>
									</rdf:li>
									<rdf:li  rdf:parseType="Resource">
										<xmpG:swatchName>C=100 M=95 Y=5 K=0</xmpG:swatchName>
										<xmpG:mode>CMYK</xmpG:mode>
										<xmpG:type>PROCESS</xmpG:type>
										<xmpG:cyan>100.000000</xmpG:cyan>
										<xmpG:magenta>95.000000</xmpG:magenta>
										<xmpG:yellow>5.000000</xmpG:yellow>
										<xmpG:black>0.000000</xmpG:black>
									</rdf:li>
									<rdf:li  rdf:parseType="Resource">
										<xmpG:swatchName>C=100 M=100 Y=25 K=25</xmpG:swatchName>
										<xmpG:mode>CMYK</xmpG:mode>
										<xmpG:type>PROCESS</xmpG:type>
										<xmpG:cyan>100.000000</xmpG:cyan>
										<xmpG:magenta>100.000000</xmpG:magenta>
										<xmpG:yellow>25.000000</xmpG:yellow>
										<xmpG:black>25.000000</xmpG:black>
									</rdf:li>
									<rdf:li  rdf:parseType="Resource">
										<xmpG:swatchName>C=75 M=100 Y=0 K=0</xmpG:swatchName>
										<xmpG:mode>CMYK</xmpG:mode>
										<xmpG:type>PROCESS</xmpG:type>
										<xmpG:cyan>75.000000</xmpG:cyan>
										<xmpG:magenta>100.000000</xmpG:magenta>
										<xmpG:yellow>0.000000</xmpG:yellow>
										<xmpG:black>0.000000</xmpG:black>
									</rdf:li>
									<rdf:li  rdf:parseType="Resource">
										<xmpG:swatchName>C=50 M=100 Y=0 K=0</xmpG:swatchName>
										<xmpG:mode>CMYK</xmpG:mode>
										<xmpG:type>PROCESS</xmpG:type>
										<xmpG:cyan>50.000000</xmpG:cyan>
										<xmpG:magenta>100.000000</xmpG:magenta>
										<xmpG:yellow>0.000000</xmpG:yellow>
										<xmpG:black>0.000000</xmpG:black>
									</rdf:li>
									<rdf:li  rdf:parseType="Resource">
										<xmpG:swatchName>C=35 M=100 Y=35 K=10</xmpG:swatchName>
										<xmpG:mode>CMYK</xmpG:mode>
										<xmpG:type>PROCESS</xmpG:type>
										<xmpG:cyan>35.000000</xmpG:cyan>
										<xmpG:magenta>100.000000</xmpG:magenta>
										<xmpG:yellow>35.000000</xmpG:yellow>
										<xmpG:black>10.000000</xmpG:black>
									</rdf:li>
									<rdf:li  rdf:parseType="Resource">
										<xmpG:swatchName>C=10 M=100 Y=50 K=0</xmpG:swatchName>
										<xmpG:mode>CMYK</xmpG:mode>
										<xmpG:type>PROCESS</xmpG:type>
										<xmpG:cyan>10.000000</xmpG:cyan>
										<xmpG:magenta>100.000000</xmpG:magenta>
										<xmpG:yellow>50.000000</xmpG:yellow>
										<xmpG:black>0.000000</xmpG:black>
									</rdf:li>
									<rdf:li  rdf:parseType="Resource">
										<xmpG:swatchName>C=0 M=95 Y=20 K=0</xmpG:swatchName>
										<xmpG:mode>CMYK</xmpG:mode>
										<xmpG:type>PROCESS</xmpG:type>
										<xmpG:cyan>0.000000</xmpG:cyan>
										<xmpG:magenta>95.000000</xmpG:magenta>
										<xmpG:yellow>20.000000</xmpG:yellow>
										<xmpG:black>0.000000</xmpG:black>
									</rdf:li>
									<rdf:li  rdf:parseType="Resource">
										<xmpG:swatchName>C=25 M=25 Y=40 K=0</xmpG:swatchName>
										<xmpG:mode>CMYK</xmpG:mode>
										<xmpG:type>PROCESS</xmpG:type>
										<xmpG:cyan>25.000000</xmpG:cyan>
										<xmpG:magenta>25.000000</xmpG:magenta>
										<xmpG:yellow>40.000000</xmpG:yellow>
										<xmpG:black>0.000000</xmpG:black>
									</rdf:li>
									<rdf:li  rdf:parseType="Resource">
										<xmpG:swatchName>C=40 M=45 Y=50 K=5</xmpG:swatchName>
										<xmpG:mode>CMYK</xmpG:mode>
										<xmpG:type>PROCESS</xmpG:type>
										<xmpG:cyan>40.000000</xmpG:cyan>
										<xmpG:magenta>45.000000</xmpG:magenta>
										<xmpG:yellow>50.000000</xmpG:yellow>
										<xmpG:black>5.000000</xmpG:black>
									</rdf:li>
									<rdf:li  rdf:parseType="Resource">
										<xmpG:swatchName>C=50 M=50 Y=60 K=25</xmpG:swatchName>
										<xmpG:mode>CMYK</xmpG:mode>
										<xmpG:type>PROCESS</xmpG:type>
										<xmpG:cyan>50.000000</xmpG:cyan>
										<xmpG:magenta>50.000000</xmpG:magenta>
										<xmpG:yellow>60.000000</xmpG:yellow>
										<xmpG:black>25.000000</xmpG:black>
									</rdf:li>
									<rdf:li  rdf:parseType="Resource">
										<xmpG:swatchName>C=55 M=60 Y=65 K=40</xmpG:swatchName>
										<xmpG:mode>CMYK</xmpG:mode>
										<xmpG:type>PROCESS</xmpG:type>
										<xmpG:cyan>55.000000</xmpG:cyan>
										<xmpG:magenta>60.000000</xmpG:magenta>
										<xmpG:yellow>65.000000</xmpG:yellow>
										<xmpG:black>40.000000</xmpG:black>
									</rdf:li>
									<rdf:li  rdf:parseType="Resource">
										<xmpG:swatchName>C=25 M=40 Y=65 K=0</xmpG:swatchName>
										<xmpG:mode>CMYK</xmpG:mode>
										<xmpG:type>PROCESS</xmpG:type>
										<xmpG:cyan>25.000000</xmpG:cyan>
										<xmpG:magenta>40.000000</xmpG:magenta>
										<xmpG:yellow>65.000000</xmpG:yellow>
										<xmpG:black>0.000000</xmpG:black>
									</rdf:li>
									<rdf:li  rdf:parseType="Resource">
										<xmpG:swatchName>C=30 M=50 Y=75 K=10</xmpG:swatchName>
										<xmpG:mode>CMYK</xmpG:mode>
										<xmpG:type>PROCESS</xmpG:type>
										<xmpG:cyan>30.000000</xmpG:cyan>
										<xmpG:magenta>50.000000</xmpG:magenta>
										<xmpG:yellow>75.000000</xmpG:yellow>
										<xmpG:black>10.000000</xmpG:black>
									</rdf:li>
									<rdf:li  rdf:parseType="Resource">
										<xmpG:swatchName>C=35 M=60 Y=80 K=25</xmpG:swatchName>
										<xmpG:mode>CMYK</xmpG:mode>
										<xmpG:type>PROCESS</xmpG:type>
										<xmpG:cyan>35.000000</xmpG:cyan>
										<xmpG:magenta>60.000000</xmpG:magenta>
										<xmpG:yellow>80.000000</xmpG:yellow>
										<xmpG:black>25.000000</xmpG:black>
									</rdf:li>
									<rdf:li  rdf:parseType="Resource">
										<xmpG:swatchName>C=40 M=65 Y=90 K=35</xmpG:swatchName>
										<xmpG:mode>CMYK</xmpG:mode>
										<xmpG:type>PROCESS</xmpG:type>
										<xmpG:cyan>40.000000</xmpG:cyan>
										<xmpG:magenta>65.000000</xmpG:magenta>
										<xmpG:yellow>90.000000</xmpG:yellow>
										<xmpG:black>35.000000</xmpG:black>
									</rdf:li>
									<rdf:li  rdf:parseType="Resource">
										<xmpG:swatchName>C=40 M=70 Y=100 K=50</xmpG:swatchName>
										<xmpG:mode>CMYK</xmpG:mode>
										<xmpG:type>PROCESS</xmpG:type>
										<xmpG:cyan>40.000000</xmpG:cyan>
										<xmpG:magenta>70.000000</xmpG:magenta>
										<xmpG:yellow>100.000000</xmpG:yellow>
										<xmpG:black>50.000000</xmpG:black>
									</rdf:li>
									<rdf:li  rdf:parseType="Resource">
										<xmpG:swatchName>C=50 M=70 Y=80 K=70</xmpG:swatchName>
										<xmpG:mode>CMYK</xmpG:mode>
										<xmpG:type>PROCESS</xmpG:type>
										<xmpG:cyan>50.000000</xmpG:cyan>
										<xmpG:magenta>70.000000</xmpG:magenta>
										<xmpG:yellow>80.000000</xmpG:yellow>
										<xmpG:black>70.000000</xmpG:black>
									</rdf:li>
								</rdf:Seq>
							</xmpG:Colorants>
						</rdf:li>
						<rdf:li  rdf:parseType="Resource">
							<xmpG:groupName>Grigi</xmpG:groupName>
							<xmpG:groupType>1</xmpG:groupType>
							<xmpG:Colorants>
								<rdf:Seq>
									<rdf:li  rdf:parseType="Resource">
										<xmpG:swatchName>C=0 M=0 Y=0 K=100</xmpG:swatchName>
										<xmpG:mode>CMYK</xmpG:mode>
										<xmpG:type>PROCESS</xmpG:type>
										<xmpG:cyan>0.000000</xmpG:cyan>
										<xmpG:magenta>0.000000</xmpG:magenta>
										<xmpG:yellow>0.000000</xmpG:yellow>
										<xmpG:black>100.000000</xmpG:black>
									</rdf:li>
									<rdf:li  rdf:parseType="Resource">
										<xmpG:swatchName>C=0 M=0 Y=0 K=90</xmpG:swatchName>
										<xmpG:mode>CMYK</xmpG:mode>
										<xmpG:type>PROCESS</xmpG:type>
										<xmpG:cyan>0.000000</xmpG:cyan>
										<xmpG:magenta>0.000000</xmpG:magenta>
										<xmpG:yellow>0.000000</xmpG:yellow>
										<xmpG:black>89.999400</xmpG:black>
									</rdf:li>
									<rdf:li  rdf:parseType="Resource">
										<xmpG:swatchName>C=0 M=0 Y=0 K=80</xmpG:swatchName>
										<xmpG:mode>CMYK</xmpG:mode>
										<xmpG:type>PROCESS</xmpG:type>
										<xmpG:cyan>0.000000</xmpG:cyan>
										<xmpG:magenta>0.000000</xmpG:magenta>
										<xmpG:yellow>0.000000</xmpG:yellow>
										<xmpG:black>79.998800</xmpG:black>
									</rdf:li>
									<rdf:li  rdf:parseType="Resource">
										<xmpG:swatchName>C=0 M=0 Y=0 K=70</xmpG:swatchName>
										<xmpG:mode>CMYK</xmpG:mode>
										<xmpG:type>PROCESS</xmpG:type>
										<xmpG:cyan>0.000000</xmpG:cyan>
										<xmpG:magenta>0.000000</xmpG:magenta>
										<xmpG:yellow>0.000000</xmpG:yellow>
										<xmpG:black>69.999700</xmpG:black>
									</rdf:li>
									<rdf:li  rdf:parseType="Resource">
										<xmpG:swatchName>C=0 M=0 Y=0 K=60</xmpG:swatchName>
										<xmpG:mode>CMYK</xmpG:mode>
										<xmpG:type>PROCESS</xmpG:type>
										<xmpG:cyan>0.000000</xmpG:cyan>
										<xmpG:magenta>0.000000</xmpG:magenta>
										<xmpG:yellow>0.000000</xmpG:yellow>
										<xmpG:black>59.999100</xmpG:black>
									</rdf:li>
									<rdf:li  rdf:parseType="Resource">
										<xmpG:swatchName>C=0 M=0 Y=0 K=50</xmpG:swatchName>
										<xmpG:mode>CMYK</xmpG:mode>
										<xmpG:type>PROCESS</xmpG:type>
										<xmpG:cyan>0.000000</xmpG:cyan>
										<xmpG:magenta>0.000000</xmpG:magenta>
										<xmpG:yellow>0.000000</xmpG:yellow>
										<xmpG:black>50.000000</xmpG:black>
									</rdf:li>
									<rdf:li  rdf:parseType="Resource">
										<xmpG:swatchName>C=0 M=0 Y=0 K=40</xmpG:swatchName>
										<xmpG:mode>CMYK</xmpG:mode>
										<xmpG:type>PROCESS</xmpG:type>
										<xmpG:cyan>0.000000</xmpG:cyan>
										<xmpG:magenta>0.000000</xmpG:magenta>
										<xmpG:yellow>0.000000</xmpG:yellow>
										<xmpG:black>39.999400</xmpG:black>
									</rdf:li>
									<rdf:li  rdf:parseType="Resource">
										<xmpG:swatchName>C=0 M=0 Y=0 K=30</xmpG:swatchName>
										<xmpG:mode>CMYK</xmpG:mode>
										<xmpG:type>PROCESS</xmpG:type>
										<xmpG:cyan>0.000000</xmpG:cyan>
										<xmpG:magenta>0.000000</xmpG:magenta>
										<xmpG:yellow>0.000000</xmpG:yellow>
										<xmpG:black>29.998800</xmpG:black>
									</rdf:li>
									<rdf:li  rdf:parseType="Resource">
										<xmpG:swatchName>C=0 M=0 Y=0 K=20</xmpG:swatchName>
										<xmpG:mode>CMYK</xmpG:mode>
										<xmpG:type>PROCESS</xmpG:type>
										<xmpG:cyan>0.000000</xmpG:cyan>
										<xmpG:magenta>0.000000</xmpG:magenta>
										<xmpG:yellow>0.000000</xmpG:yellow>
										<xmpG:black>19.999700</xmpG:black>
									</rdf:li>
									<rdf:li  rdf:parseType="Resource">
										<xmpG:swatchName>C=0 M=0 Y=0 K=10</xmpG:swatchName>
										<xmpG:mode>CMYK</xmpG:mode>
										<xmpG:type>PROCESS</xmpG:type>
										<xmpG:cyan>0.000000</xmpG:cyan>
										<xmpG:magenta>0.000000</xmpG:magenta>
										<xmpG:yellow>0.000000</xmpG:yellow>
										<xmpG:black>9.999100</xmpG:black>
									</rdf:li>
									<rdf:li  rdf:parseType="Resource">
										<xmpG:swatchName>C=0 M=0 Y=0 K=5</xmpG:swatchName>
										<xmpG:mode>CMYK</xmpG:mode>
										<xmpG:type>PROCESS</xmpG:type>
										<xmpG:cyan>0.000000</xmpG:cyan>
										<xmpG:magenta>0.000000</xmpG:magenta>
										<xmpG:yellow>0.000000</xmpG:yellow>
										<xmpG:black>4.998800</xmpG:black>
									</rdf:li>
								</rdf:Seq>
							</xmpG:Colorants>
						</rdf:li>
						<rdf:li  rdf:parseType="Resource">
							<xmpG:groupName>Vivaci</xmpG:groupName>
							<xmpG:groupType>1</xmpG:groupType>
							<xmpG:Colorants>
								<rdf:Seq>
									<rdf:li  rdf:parseType="Resource">
										<xmpG:swatchName>C=0 M=100 Y=100 K=0</xmpG:swatchName>
										<xmpG:mode>CMYK</xmpG:mode>
										<xmpG:type>PROCESS</xmpG:type>
										<xmpG:cyan>0.000000</xmpG:cyan>
										<xmpG:magenta>100.000000</xmpG:magenta>
										<xmpG:yellow>100.000000</xmpG:yellow>
										<xmpG:black>0.000000</xmpG:black>
									</rdf:li>
									<rdf:li  rdf:parseType="Resource">
										<xmpG:swatchName>C=0 M=75 Y=100 K=0</xmpG:swatchName>
										<xmpG:mode>CMYK</xmpG:mode>
										<xmpG:type>PROCESS</xmpG:type>
										<xmpG:cyan>0.000000</xmpG:cyan>
										<xmpG:magenta>75.000000</xmpG:magenta>
										<xmpG:yellow>100.000000</xmpG:yellow>
										<xmpG:black>0.000000</xmpG:black>
									</rdf:li>
									<rdf:li  rdf:parseType="Resource">
										<xmpG:swatchName>C=0 M=10 Y=95 K=0</xmpG:swatchName>
										<xmpG:mode>CMYK</xmpG:mode>
										<xmpG:type>PROCESS</xmpG:type>
										<xmpG:cyan>0.000000</xmpG:cyan>
										<xmpG:magenta>10.000000</xmpG:magenta>
										<xmpG:yellow>95.000000</xmpG:yellow>
										<xmpG:black>0.000000</xmpG:black>
									</rdf:li>
									<rdf:li  rdf:parseType="Resource">
										<xmpG:swatchName>C=85 M=10 Y=100 K=0</xmpG:swatchName>
										<xmpG:mode>CMYK</xmpG:mode>
										<xmpG:type>PROCESS</xmpG:type>
										<xmpG:cyan>85.000000</xmpG:cyan>
										<xmpG:magenta>10.000000</xmpG:magenta>
										<xmpG:yellow>100.000000</xmpG:yellow>
										<xmpG:black>0.000000</xmpG:black>
									</rdf:li>
									<rdf:li  rdf:parseType="Resource">
										<xmpG:swatchName>C=100 M=90 Y=0 K=0</xmpG:swatchName>
										<xmpG:mode>CMYK</xmpG:mode>
										<xmpG:type>PROCESS</xmpG:type>
										<xmpG:cyan>100.000000</xmpG:cyan>
										<xmpG:magenta>90.000000</xmpG:magenta>
										<xmpG:yellow>0.000000</xmpG:yellow>
										<xmpG:black>0.000000</xmpG:black>
									</rdf:li>
									<rdf:li  rdf:parseType="Resource">
										<xmpG:swatchName>C=60 M=90 Y=0 K=0</xmpG:swatchName>
										<xmpG:mode>CMYK</xmpG:mode>
										<xmpG:type>PROCESS</xmpG:type>
										<xmpG:cyan>60.000000</xmpG:cyan>
										<xmpG:magenta>90.000000</xmpG:magenta>
										<xmpG:yellow>0.003100</xmpG:yellow>
										<xmpG:black>0.003100</xmpG:black>
									</rdf:li>
								</rdf:Seq>
							</xmpG:Colorants>
						</rdf:li>
					</rdf:Seq>
				</xmpTPg:SwatchGroups>
				<dc:format>image/svg+xml</dc:format>
			</rdf:Description>
		</rdf:RDF>
	</x:xmpmeta>
	<sfw  xmlns="&ns_sfw;">
		<slices></slices>
		<sliceSourceBounds  bottomLeftOrigin="true" height="288.2" width="294.8" x="107.6" y="110.9"></sliceSourceBounds>
	</sfw>
</metadata>
<g id="lines">
	<g>
		<path class="st0" d="M200.7,376.1c21.9-83.7,78.5-153.4,153.6-192.8"/>
		<path class="st0" d="M201.2,373.2c8.2-19.7,12.7-41.3,12.7-64c0-4.9-0.2-9.7-0.6-14.5c-1.3-15.6-4.8-30.7-10.2-44.8
			c-9.8-25.9-25.9-48.8-46.5-66.7"/>
	</g>
</g>
<g id="circles">
	
		<image style="overflow:visible;opacity:0.5;enable-background:new    ;" width="192" height="192" xlink:href="F02EBC323A3F8EE3.png"  transform="matrix(0.2344 0 0 0.2344 232.6821 111.0857)">
	</image>
	
		<image style="overflow:visible;opacity:0.5;enable-background:new    ;" width="192" height="192" xlink:href="F02EBC323A3F8EE1.png"  transform="matrix(0.235 0 0 0.235 287.9422 354.1458)">
	</image>
	
		<image style="overflow:visible;enable-background:new    ;" width="192" height="192" xlink:href="F02EBC323A3F8EE7.png"  transform="matrix(0.235 0 0 0.235 176.8222 354.1458)">
	</image>
	
		<image style="overflow:visible;opacity:0.5;enable-background:new    ;" width="196" height="196" xlink:href="F02EBC323A3F8EE0.png"  transform="matrix(0.2308 0 0 0.2308 107.6421 267.3257)">
	</image>
	
		<image style="overflow:visible;enable-background:new    ;" width="192" height="192" xlink:href="F02EBC323A3F8EEE.png"  transform="matrix(0.2344 0 0 0.2344 132.4821 159.2057)">
	</image>
	
		<image style="overflow:visible;enable-background:new    ;" width="192" height="192" xlink:href="F02EBC323A3F8EEF.png"  transform="matrix(0.2344 0 0 0.2344 332.6421 159.2057)">
	</image>
	
		<image style="overflow:visible;opacity:0.5;enable-background:new    ;" width="192" height="188" xlink:href="F02EBC323A3F8EE2.png"  transform="matrix(0.2362 0 0 0.2362 357.0672 267.7433)">
	</image>
	<g>
		<circle class="st1" cx="155.2" cy="182.1" r="22"/>
		<circle class="st1" cx="355" cy="182.1" r="22"/>
		<circle class="st1" cx="380.2" cy="290" r="22"/>
		<circle class="st1" cx="199.6" cy="376.8" r="22"/>
	</g>
</g>
<g id="languages">
	<g class="st2">
		<path class="st3" d="M249,128.1h1.7l3.7,9.7h-1.9l-0.9-2.4h-3.4l-0.9,2.4h-1.9L249,128.1z M251.2,134l-1.3-3.8l-1.4,3.8H251.2z"/>
		<path class="st3" d="M256.1,137.8v-9.7h4.3c0.4,0,0.9,0.1,1.2,0.3c0.4,0.2,0.7,0.4,1,0.7s0.5,0.6,0.6,1c0.2,0.4,0.2,0.8,0.2,1.2
			c0,0.6-0.2,1.2-0.5,1.7s-0.7,0.9-1.3,1.1l2.2,3.6h-2.1l-2-3.2H258v3.2L256.1,137.8L256.1,137.8z M258,132.9h2.4
			c0.2,0,0.3,0,0.5-0.1s0.3-0.2,0.4-0.3s0.2-0.3,0.3-0.5s0.1-0.4,0.1-0.6c0-0.2,0-0.4-0.1-0.6c-0.1-0.2-0.2-0.4-0.3-0.5
			c-0.1-0.1-0.3-0.2-0.4-0.3c-0.2-0.1-0.3-0.1-0.5-0.1H258V132.9z"/>
	</g>
	<g>
		<path class="st3" d="M352.9,184.3v1.6h-6.7v-9.7h6.6v1.6h-4.7v2.3h4.1v1.5h-4.1v2.5h4.8V184.3z"/>
		<path class="st3" d="M356.9,179.8v6.2H355v-9.7h1.5l5,6.3v-6.3h1.9v9.6h-1.5L356.9,179.8z"/>
	</g>
	<g class="st2">
		<path class="st3" d="M371.6,294.2v-9.7h6.5v1.6h-4.6v2.5h3.8v1.5h-3.8v4h-1.9V294.2z"/>
		<path class="st3" d="M380.1,294.2v-9.7h4.3c0.4,0,0.9,0.1,1.2,0.3c0.4,0.2,0.7,0.4,1,0.7c0.3,0.3,0.5,0.6,0.6,1s0.2,0.8,0.2,1.2
			c0,0.6-0.2,1.2-0.5,1.7s-0.7,0.9-1.3,1.1l2.2,3.6h-2.1l-2-3.2H382v3.2L380.1,294.2L380.1,294.2z M382,289.3h2.4
			c0.2,0,0.3,0,0.5-0.1s0.3-0.2,0.4-0.3c0.1-0.1,0.2-0.3,0.3-0.5s0.1-0.4,0.1-0.6s0-0.4-0.1-0.6s-0.2-0.4-0.3-0.5
			c-0.1-0.1-0.3-0.2-0.4-0.3c-0.2-0.1-0.3-0.1-0.5-0.1H382V289.3z"/>
	</g>
	<g class="st2">
		<path class="st3" d="M302.8,379c0.1,0.1,0.3,0.2,0.6,0.3c0.3,0.1,0.6,0.2,1,0.2s0.7-0.1,0.9-0.2c0.2-0.1,0.4-0.3,0.5-0.6
			c0.1-0.3,0.2-0.6,0.2-1s0.1-0.9,0.1-1.4v-4.9h1.9v4.9c0,0.7,0,1.4-0.1,2s-0.2,1.1-0.5,1.5s-0.6,0.8-1.1,1s-1.1,0.4-1.9,0.4
			s-1.5-0.2-2.1-0.6L302.8,379z"/>
		<path class="st3" d="M313.2,371.3h1.7l3.7,9.7h-1.9l-0.9-2.4h-3.4l-0.9,2.4h-1.9L313.2,371.3z M315.4,377.3l-1.3-3.8l-1.4,3.8
			H315.4z"/>
	</g>
	<g>
		<path class="st3" d="M190.4,381v-9.7h4.1c0.4,0,0.9,0.1,1.2,0.3c0.4,0.2,0.7,0.4,1,0.7c0.3,0.3,0.5,0.6,0.6,1s0.2,0.8,0.2,1.2
			c0,0.4-0.1,0.8-0.2,1.2c-0.1,0.4-0.3,0.7-0.6,1s-0.6,0.5-1,0.7s-0.8,0.3-1.2,0.3h-2.3v3.2L190.4,381L190.4,381z M192.3,376.1h2.2
			c0.3,0,0.6-0.1,0.9-0.4c0.2-0.3,0.3-0.7,0.3-1.1c0-0.2,0-0.5-0.1-0.7s-0.2-0.4-0.3-0.5s-0.3-0.2-0.4-0.3c-0.2-0.1-0.3-0.1-0.5-0.1
			h-2.1L192.3,376.1L192.3,376.1z"/>
		<path class="st3" d="M203.7,381.1c-0.7,0-1.3-0.1-1.9-0.4c-0.6-0.3-1.1-0.6-1.5-1.1s-0.7-1-1-1.6c-0.2-0.6-0.3-1.2-0.3-1.8
			c0-0.6,0.1-1.3,0.4-1.9s0.6-1.1,1-1.6s0.9-0.8,1.5-1.1c0.6-0.3,1.2-0.4,1.9-0.4s1.3,0.1,1.9,0.4c0.6,0.3,1.1,0.7,1.5,1.1
			c0.4,0.5,0.7,1,1,1.6s0.3,1.2,0.3,1.8c0,0.6-0.1,1.3-0.4,1.8c-0.2,0.6-0.6,1.1-1,1.6s-0.9,0.8-1.5,1.1
			C205,380.9,204.4,381.1,203.7,381.1z M200.9,376.2c0,0.4,0.1,0.8,0.2,1.2c0.1,0.4,0.3,0.7,0.6,1c0.2,0.3,0.5,0.5,0.9,0.7
			s0.7,0.3,1.2,0.3s0.9-0.1,1.2-0.3c0.3-0.2,0.6-0.4,0.9-0.7c0.2-0.3,0.4-0.7,0.5-1c0.1-0.4,0.2-0.8,0.2-1.2c0-0.4-0.1-0.8-0.2-1.2
			c-0.1-0.4-0.3-0.7-0.6-1s-0.5-0.5-0.9-0.7c-0.3-0.2-0.7-0.3-1.2-0.3s-0.9,0.1-1.2,0.3c-0.4,0.2-0.6,0.4-0.9,0.7
			c-0.2,0.3-0.4,0.6-0.5,1S200.9,375.8,200.9,376.2z"/>
	</g>
	<g class="st2">
		<path class="st3" d="M120.9,294.2v-9.7h4.3c0.4,0,0.9,0.1,1.2,0.3c0.4,0.2,0.7,0.4,1,0.7c0.3,0.3,0.5,0.6,0.6,1
			c0.2,0.4,0.2,0.8,0.2,1.2c0,0.6-0.2,1.2-0.5,1.7s-0.7,0.9-1.3,1.1l2.2,3.6h-2.1l-2-3.2h-1.9v3.2L120.9,294.2L120.9,294.2z
			 M122.8,289.3h2.4c0.2,0,0.3,0,0.5-0.1s0.3-0.2,0.4-0.3c0.1-0.1,0.2-0.3,0.3-0.5s0.1-0.4,0.1-0.6s0-0.4-0.1-0.6s-0.2-0.4-0.3-0.5
			c-0.1-0.1-0.3-0.2-0.4-0.3c-0.2-0.1-0.3-0.1-0.5-0.1h-2.3L122.8,289.3L122.8,289.3z"/>
		<path class="st3" d="M134.7,292.6c0.4,0,0.8-0.1,1.1-0.3s0.5-0.4,0.7-0.7c0.2-0.3,0.3-0.6,0.4-1c0.1-0.4,0.1-0.8,0.1-1.2v-4.9h1.9
			v4.9c0,0.7-0.1,1.3-0.2,1.9c-0.2,0.6-0.4,1.1-0.7,1.5s-0.8,0.8-1.3,1s-1.2,0.4-1.9,0.4c-0.8,0-1.4-0.1-2-0.4s-1-0.6-1.3-1.1
			c-0.3-0.4-0.6-1-0.7-1.5c-0.2-0.6-0.2-1.2-0.2-1.8v-4.9h1.9v4.9c0,0.4,0,0.8,0.1,1.2c0.1,0.4,0.2,0.7,0.4,1s0.4,0.5,0.7,0.7
			C133.9,292.5,134.3,292.6,134.7,292.6z"/>
	</g>
	<g>
		<path class="st3" d="M152.8,178.8c-0.1-0.1-0.2-0.1-0.3-0.3c-0.2-0.1-0.4-0.2-0.6-0.3c-0.2-0.1-0.5-0.2-0.8-0.3s-0.6-0.1-0.9-0.1
			c-0.5,0-0.9,0.1-1.2,0.3s-0.4,0.5-0.4,0.8c0,0.2,0,0.4,0.1,0.5s0.2,0.2,0.4,0.3s0.4,0.2,0.7,0.3s0.6,0.2,1,0.3
			c0.5,0.1,0.9,0.3,1.3,0.4c0.4,0.1,0.7,0.3,1,0.5s0.5,0.5,0.6,0.8s0.2,0.7,0.2,1.1c0,0.5-0.1,1-0.3,1.3s-0.5,0.7-0.8,0.9
			s-0.7,0.4-1.1,0.5c-0.4,0.1-0.9,0.2-1.4,0.2c-0.7,0-1.4-0.1-2.2-0.3c-0.7-0.2-1.3-0.5-1.9-0.9l0.8-1.6c0.1,0.1,0.2,0.2,0.4,0.3
			s0.5,0.3,0.8,0.4c0.3,0.1,0.6,0.2,1,0.3s0.7,0.1,1.1,0.1c1,0,1.6-0.3,1.6-1c0-0.2-0.1-0.4-0.2-0.5s-0.3-0.3-0.5-0.4
			c-0.2-0.1-0.5-0.2-0.8-0.3s-0.7-0.2-1-0.3c-0.5-0.1-0.9-0.3-1.2-0.4c-0.3-0.1-0.6-0.3-0.9-0.5s-0.4-0.4-0.5-0.7s-0.2-0.6-0.2-1
			c0-0.5,0.1-0.9,0.3-1.3s0.4-0.7,0.8-1c0.3-0.3,0.7-0.4,1.1-0.6c0.4-0.1,0.9-0.2,1.4-0.2c0.7,0,1.3,0.1,1.9,0.3
			c0.6,0.2,1.1,0.5,1.5,0.8L152.8,178.8z"/>
		<path class="st3" d="M156.1,185.9v-9.7h4.1c0.4,0,0.9,0.1,1.2,0.3c0.4,0.2,0.7,0.4,1,0.7s0.5,0.6,0.6,1c0.2,0.4,0.2,0.8,0.2,1.2
			s-0.1,0.8-0.2,1.2c-0.1,0.4-0.3,0.7-0.6,1s-0.6,0.5-1,0.7s-0.8,0.3-1.2,0.3h-2.3v3.2h-1.8V185.9z M157.9,181.1h2.2
			c0.3,0,0.6-0.1,0.9-0.4c0.2-0.3,0.3-0.7,0.3-1.1c0-0.2,0-0.5-0.1-0.7s-0.2-0.4-0.3-0.5s-0.3-0.2-0.4-0.3c-0.2-0.1-0.3-0.1-0.5-0.1
			h-2.1L157.9,181.1L157.9,181.1z"/>
	</g>
</g>
<g id="subjects">
	<g>
		<path d="M316.7,128.3c0.2,0,0.5,0,0.9,0.1s0.6,0.1,0.7,0.1c0.1,0.5,0.2,1,0.2,1.7c0,0.1-0.1,0.1-0.2,0.1s-0.2,0-0.3-0.1
			c-0.1-0.3-0.3-0.7-0.5-1s-0.5-0.5-0.8-0.5c-0.4,0-0.6,0.1-0.8,0.3s-0.3,0.4-0.3,0.7c0,0.1,0,0.3,0.1,0.4s0.1,0.2,0.1,0.3
			s0.1,0.2,0.2,0.2s0.2,0.2,0.3,0.2s0.2,0.1,0.3,0.2s0.3,0.2,0.3,0.2s0.2,0.1,0.3,0.2s0.3,0.2,0.4,0.2s0.2,0.1,0.3,0.2
			s0.3,0.2,0.3,0.3s0.2,0.2,0.2,0.3s0.1,0.2,0.2,0.4s0.1,0.3,0.1,0.4c0,0.6-0.2,1.1-0.7,1.5s-1,0.6-1.7,0.6c-0.2,0-0.4,0-0.6,0
			s-0.4-0.1-0.6-0.1s-0.4-0.1-0.6-0.1c-0.1-0.2-0.1-0.4-0.2-0.8s-0.1-0.6-0.1-0.8c0.1-0.1,0.2-0.1,0.3-0.1c0.1,0,0.1,0,0.1,0
			c0.1,0.4,0.3,0.7,0.6,1s0.7,0.5,1.1,0.5c0.3,0,0.6-0.1,0.8-0.3s0.3-0.5,0.3-0.8c0-0.2,0-0.3-0.1-0.5s-0.2-0.3-0.3-0.4
			s-0.3-0.2-0.4-0.3s-0.3-0.2-0.5-0.3s-0.4-0.2-0.5-0.3c-0.4-0.2-0.7-0.4-0.9-0.7s-0.3-0.6-0.3-1c0-0.6,0.2-1,0.7-1.4
			S316.1,128.3,316.7,128.3z"/>
		<path d="M324.5,128.3c0.3,0,0.6,0,0.9,0.1s0.4,0.2,0.6,0.4s0.3,0.4,0.4,0.7s0.1,0.6,0.2,0.9s0,0.7,0,1.2v1.7c0,0.6,0,1,0.1,1.2
			c0,0.1,0.2,0.1,0.4,0.2s0.4,0.1,0.6,0.1c0,0,0,0.1,0.1,0.2s0,0.2-0.1,0.2c-1.1-0.1-1.6-0.1-1.7-0.1c-0.2,0-0.4,0-0.5,0
			s-0.4,0-0.6,0s-0.4,0-0.5,0c0,0-0.1-0.1-0.1-0.2s0-0.2,0.1-0.2c0.2,0,0.3,0,0.6-0.1s0.4-0.1,0.4-0.2c0.1-0.2,0.1-0.6,0.1-1.2v-1.6
			c0-1-0.1-1.7-0.3-2s-0.6-0.5-1.2-0.5c-0.2,0-0.4,0.1-0.6,0.2s-0.4,0.3-0.6,0.4s-0.2,0.2-0.2,0.3v3.3c0,0.6,0,1,0.1,1.2
			c0,0.1,0.2,0.1,0.4,0.2s0.4,0.1,0.6,0.1c0,0,0,0.1,0.1,0.2s0,0.2-0.1,0.2c-1.1-0.1-1.6-0.1-1.7-0.1c-0.2,0-0.4,0-0.5,0
			s-0.4,0-0.6,0s-0.4,0-0.5,0c0,0-0.1-0.1-0.1-0.2s0-0.2,0.1-0.2c0.2,0,0.3,0,0.6-0.1s0.4-0.1,0.4-0.2c0.1-0.2,0.1-0.6,0.1-1.2v-2.8
			c0-0.5,0-0.8-0.1-0.9c0-0.1-0.1-0.1-0.3-0.2s-0.3-0.1-0.4-0.1s-0.2,0-0.3,0c0,0,0-0.1,0-0.2s0-0.2,0-0.2c0.9-0.1,1.6-0.3,2.2-0.7
			c0,0,0.1,0,0.1,0.1s0.1,0.1,0.1,0.2c-0.1,0.4-0.1,0.7-0.1,0.9v0.1l0,0c0.2-0.2,0.5-0.5,1-0.7S324.2,128.3,324.5,128.3z"/>
		<path d="M331.5,128.3c0.5,0,0.9,0.2,1.2,0.6s0.5,0.9,0.5,1.5v3.2c0,0.5,0.2,0.7,0.5,0.7h0.1h0.1h0.1h0.1c0,0,0,0,0.1,0s0,0,0,0
			s0.1,0,0.1,0.1s0,0.2-0.1,0.3s-0.3,0.2-0.6,0.4s-0.5,0.2-0.6,0.2c-0.2,0-0.4-0.1-0.6-0.3s-0.3-0.4-0.4-0.7
			c-0.2,0.2-0.4,0.4-0.9,0.6s-0.8,0.4-1,0.4c-0.5,0-0.9-0.2-1.3-0.5s-0.5-0.8-0.5-1.3c0-0.3,0.1-0.6,0.2-0.8s0.3-0.4,0.5-0.5
			s0.5-0.2,0.9-0.3s0.8-0.3,1.1-0.4s0.5-0.2,0.7-0.3c0.1,0,0.1-0.1,0.2-0.1s0-0.1,0-0.3v-0.4c0-0.4-0.1-0.7-0.4-1s-0.6-0.5-0.9-0.5
			s-0.5,0.1-0.6,0.2s-0.2,0.4-0.3,0.7c-0.1,0.5-0.3,0.8-0.7,0.8c-0.2,0-0.3-0.1-0.4-0.2s-0.1-0.3-0.1-0.5c0,0,0-0.1,0-0.2
			s0-0.1,0.1-0.2c0.3-0.3,0.8-0.6,1.3-0.9S331,128.3,331.5,128.3z M330.7,134.4c0.3,0,0.5-0.1,0.9-0.3s0.5-0.3,0.5-0.4v-2.1
			c-0.8,0.2-1.3,0.4-1.5,0.5c-0.3,0.1-0.5,0.3-0.7,0.5s-0.3,0.5-0.3,0.7c0,0.3,0.1,0.5,0.3,0.8S330.4,134.4,330.7,134.4z"/>
		<path d="M337.1,133.3c0,0.6,0,1,0.1,1.2c0,0.1,0.2,0.1,0.4,0.2s0.4,0.1,0.6,0.1c0,0,0,0.1,0.1,0.2s0,0.2-0.1,0.2
			c-1.1-0.1-1.6-0.1-1.7-0.1c-0.2,0-0.4,0-0.5,0s-0.4,0-0.6,0s-0.4,0-0.5,0c0,0-0.1-0.1-0.1-0.2s0-0.2,0.1-0.2c0.2,0,0.3,0,0.6-0.1
			s0.4-0.1,0.4-0.2c0.1-0.2,0.1-0.6,0.1-1.2v-6.9c0-0.4,0-0.7-0.1-0.8c-0.1-0.2-0.4-0.3-1-0.3c0,0,0,0,0-0.1s0-0.1,0-0.2
			s0-0.1,0-0.1c0.7-0.1,1.5-0.3,2.2-0.6c0,0,0.1,0,0.1,0.1s0.1,0.1,0.1,0.2c-0.1,0.3-0.2,0.8-0.2,1.4v5.6c0.2-0.1,0.6-0.4,1.3-1
			c0.1-0.1,0.3-0.2,0.5-0.4s0.3-0.3,0.4-0.3s0.2-0.2,0.3-0.2s0.2-0.2,0.2-0.2l0.1-0.1v-0.1c0,0-0.1,0-0.1-0.1s-0.1,0-0.1,0h-0.1
			h-0.1h-0.1h-0.1c0-0.1-0.1-0.1,0-0.3s0-0.2,0.1-0.2c0.5,0.1,1,0.1,1.5,0.1s1,0,1.4-0.1c0,0,0,0.1,0,0.2s0,0.2,0,0.2
			c-0.1,0-0.3,0-0.6,0.1s-0.5,0.2-0.6,0.3c-1.2,0.8-2,1.5-2.5,1.9c0.3,0.3,0.7,0.7,1.1,1.2s0.8,0.9,1.1,1.2s0.5,0.5,0.6,0.6
			c0.2,0.2,0.4,0.3,0.7,0.3s0.5,0.1,0.8,0.1c0,0,0,0.1,0,0.2s0,0.2,0,0.2c-0.1,0.1-0.5,0.1-1,0.1c-0.4,0-0.8-0.1-1.2-0.2
			s-0.6-0.3-0.8-0.5c-0.9-1-1.6-1.8-2.2-2.4c0,0,0,0-0.1-0.1l-0.1-0.1l0,0v1.4H337.1z"/>
		<path d="M343.7,131.2c0,1,0.2,1.7,0.7,2.2s1.1,0.8,1.8,0.8c0.4,0,0.7-0.1,1-0.3s0.5-0.4,0.7-0.6l0,0c0,0,0,0,0.1,0.1s0,0.1,0,0.1
			c0,0.1,0,0.2-0.1,0.3s-0.2,0.3-0.3,0.4s-0.3,0.3-0.5,0.4s-0.4,0.3-0.7,0.4s-0.5,0.1-0.8,0.1c-0.9,0-1.7-0.3-2.2-0.9
			s-0.9-1.4-0.9-2.3c0-0.5,0.1-1,0.3-1.5s0.4-0.9,0.7-1.2s0.6-0.6,1-0.8s0.7-0.3,1.1-0.3s0.7,0.1,1,0.2s0.5,0.2,0.7,0.4
			s0.3,0.3,0.4,0.5s0.2,0.4,0.2,0.6s0.1,0.3,0.1,0.5s0,0.4-0.1,0.5s-0.2,0.2-0.3,0.2c-0.2,0-0.9,0-2,0.1S343.8,131.2,343.7,131.2z
			 M343.7,130.7h2.5c0.2,0,0.3-0.1,0.4-0.4c0-0.1,0-0.2-0.1-0.4s-0.1-0.3-0.2-0.5s-0.2-0.3-0.4-0.4s-0.4-0.2-0.6-0.2
			s-0.5,0.1-0.7,0.2s-0.4,0.3-0.5,0.5s-0.2,0.4-0.3,0.5s-0.1,0.3-0.2,0.5S343.7,130.7,343.7,130.7z"/>
		<path d="M351.7,128.3c0.2,0,0.5,0,0.9,0.1s0.6,0.1,0.7,0.1c0.1,0.5,0.2,1,0.2,1.7c0,0.1-0.1,0.1-0.2,0.1s-0.2,0-0.3-0.1
			c-0.1-0.3-0.3-0.7-0.5-1s-0.5-0.5-0.8-0.5c-0.4,0-0.6,0.1-0.8,0.3s-0.3,0.4-0.3,0.7c0,0.1,0,0.3,0.1,0.4s0.1,0.2,0.1,0.3
			s0.1,0.2,0.2,0.2s0.2,0.2,0.3,0.2s0.2,0.1,0.3,0.2s0.3,0.2,0.3,0.2s0.2,0.1,0.3,0.2s0.3,0.2,0.4,0.2s0.2,0.1,0.3,0.2
			s0.3,0.2,0.3,0.3s0.2,0.2,0.2,0.3s0.1,0.2,0.2,0.4s0.1,0.3,0.1,0.4c0,0.6-0.2,1.1-0.7,1.5s-1,0.6-1.7,0.6c-0.2,0-0.4,0-0.6,0
			s-0.4-0.1-0.6-0.1s-0.4-0.1-0.6-0.1c-0.1-0.2-0.1-0.4-0.2-0.8s-0.1-0.6-0.1-0.8c0.1-0.1,0.2-0.1,0.3-0.1c0.1,0,0.1,0,0.1,0
			c0.1,0.4,0.3,0.7,0.6,1s0.7,0.5,1.1,0.5c0.3,0,0.6-0.1,0.8-0.3s0.3-0.5,0.3-0.8c0-0.2,0-0.3-0.1-0.5s-0.2-0.3-0.3-0.4
			s-0.3-0.2-0.4-0.3s-0.3-0.2-0.5-0.3s-0.4-0.2-0.5-0.3c-0.4-0.2-0.7-0.4-0.9-0.7s-0.3-0.6-0.3-1c0-0.6,0.2-1,0.7-1.4
			S351.1,128.3,351.7,128.3z"/>
		<path d="M356.1,133.2c0.1,0,0.3,0,0.4,0.1c0.2,0.3,0.3,0.7,0.3,1.1c0,0.4-0.2,1-0.6,1.6s-0.8,1.1-1.2,1.3c-0.1,0-0.1,0-0.2-0.1
			s-0.1-0.2-0.1-0.2c0.1-0.1,0.2-0.2,0.3-0.2s0.2-0.2,0.3-0.3s0.2-0.3,0.3-0.5s0.1-0.4,0.1-0.6c0-0.2-0.1-0.4-0.3-0.6
			s-0.3-0.5-0.3-0.7s0.1-0.4,0.3-0.5S355.8,133.2,356.1,133.2z"/>
		<path d="M364.7,128.4h2c0.1,0,0.1,0.1,0.1,0.2c0,0.2-0.1,0.3-0.2,0.5h-1.9v4.1c0,0.9,0.3,1.3,1,1.3c0.3,0,0.7-0.1,1-0.4v0.1
			c0,0.1,0,0.2-0.1,0.2c-0.1,0.1-0.2,0.2-0.3,0.3s-0.3,0.2-0.6,0.3s-0.5,0.2-0.7,0.2s-0.4,0-0.6-0.1s-0.4-0.1-0.5-0.3
			s-0.3-0.3-0.4-0.5s-0.1-0.5-0.1-0.8V129h-0.9c-0.1,0-0.1,0-0.1-0.1c0,0,0.1-0.1,0.2-0.2s0.2-0.2,0.2-0.3h0.6v-1
			c0.1-0.1,0.2-0.2,0.4-0.4s0.3-0.3,0.4-0.4s0.2-0.2,0.2-0.2s0.1,0,0.1-0.1s0.1,0,0.1,0l0,0L364.7,128.4L364.7,128.4z"/>
		<path d="M368.8,131.2c0,1,0.2,1.7,0.7,2.2s1.1,0.8,1.8,0.8c0.4,0,0.7-0.1,1-0.3s0.5-0.4,0.7-0.6l0,0c0,0,0,0,0.1,0.1s0,0.1,0,0.1
			c0,0.1,0,0.2-0.1,0.3s-0.2,0.3-0.3,0.4s-0.3,0.3-0.5,0.4s-0.4,0.3-0.7,0.4s-0.5,0.1-0.8,0.1c-0.9,0-1.7-0.3-2.2-0.9
			s-0.9-1.4-0.9-2.3c0-0.5,0.1-1,0.3-1.5s0.4-0.9,0.7-1.2s0.6-0.6,1-0.8s0.7-0.3,1.1-0.3s0.7,0.1,1,0.2s0.5,0.2,0.7,0.4
			s0.3,0.3,0.4,0.5s0.2,0.4,0.2,0.6s0.1,0.3,0.1,0.5s0,0.4-0.1,0.5s-0.2,0.2-0.3,0.2c-0.2,0-0.9,0-2,0.1S369,131.2,368.8,131.2z
			 M368.9,130.7h2.5c0.2,0,0.3-0.1,0.4-0.4c0-0.1,0-0.2-0.1-0.4s-0.1-0.3-0.2-0.5s-0.2-0.3-0.4-0.4s-0.4-0.2-0.6-0.2
			s-0.5,0.1-0.7,0.2s-0.4,0.3-0.5,0.5s-0.2,0.4-0.3,0.5s-0.1,0.3-0.2,0.5S368.9,130.7,368.9,130.7z"/>
		<path d="M375.5,131.2c0,1,0.2,1.7,0.7,2.2s1.1,0.8,1.8,0.8c0.4,0,0.7-0.1,1-0.3s0.5-0.4,0.7-0.6l0,0c0,0,0,0,0.1,0.1s0,0.1,0,0.1
			c0,0.1,0,0.2-0.1,0.3s-0.2,0.3-0.3,0.4s-0.3,0.3-0.5,0.4s-0.4,0.3-0.7,0.4s-0.5,0.1-0.8,0.1c-0.9,0-1.7-0.3-2.2-0.9
			s-0.9-1.4-0.9-2.3c0-0.5,0.1-1,0.3-1.5s0.4-0.9,0.7-1.2s0.6-0.6,1-0.8s0.7-0.3,1.1-0.3s0.7,0.1,1,0.2s0.5,0.2,0.7,0.4
			s0.3,0.3,0.4,0.5s0.2,0.4,0.2,0.6s0.1,0.3,0.1,0.5s0,0.4-0.1,0.5s-0.2,0.2-0.3,0.2c-0.2,0-0.9,0-2,0.1S375.7,131.2,375.5,131.2z
			 M375.6,130.7h2.5c0.2,0,0.3-0.1,0.4-0.4c0-0.1,0-0.2-0.1-0.4s-0.1-0.3-0.2-0.5s-0.2-0.3-0.4-0.4s-0.4-0.2-0.6-0.2
			s-0.5,0.1-0.7,0.2s-0.4,0.3-0.5,0.5s-0.2,0.4-0.3,0.5s-0.1,0.3-0.2,0.5S375.6,130.7,375.6,130.7z"/>
		<path d="M383,128.4h2c0.1,0,0.1,0.1,0.1,0.2c0,0.2-0.1,0.3-0.2,0.5H383v4.1c0,0.9,0.3,1.3,1,1.3c0.3,0,0.7-0.1,1-0.4v0.1
			c0,0.1,0,0.2-0.1,0.2c-0.1,0.1-0.2,0.2-0.3,0.3s-0.3,0.2-0.6,0.3s-0.5,0.2-0.7,0.2s-0.4,0-0.6-0.1s-0.4-0.1-0.5-0.3
			s-0.3-0.3-0.4-0.5s-0.1-0.5-0.1-0.8V129h-0.9c-0.1,0-0.1,0-0.1-0.1c0,0,0.1-0.1,0.2-0.2s0.2-0.2,0.2-0.3h0.6v-1
			c0.1-0.1,0.2-0.2,0.4-0.4s0.3-0.3,0.4-0.4s0.2-0.2,0.2-0.2s0.1,0,0.1-0.1s0.1,0,0.1,0l0,0L383,128.4L383,128.4z"/>
		<path d="M390.2,128.3c0.3,0,0.6,0,0.9,0.1s0.4,0.2,0.6,0.4s0.3,0.4,0.4,0.7s0.1,0.6,0.2,0.9s0,0.7,0,1.2v1.7c0,0.6,0,1,0.1,1.2
			c0,0.1,0.2,0.1,0.4,0.2s0.4,0.1,0.6,0.1c0,0,0,0.1,0.1,0.2s0,0.2-0.1,0.2c-1.1-0.1-1.6-0.1-1.7-0.1c-0.2,0-0.4,0-0.5,0
			s-0.4,0-0.6,0s-0.4,0-0.5,0c0,0-0.1-0.1-0.1-0.2s0-0.2,0.1-0.2c0.2,0,0.3,0,0.6-0.1s0.4-0.1,0.4-0.2c0.1-0.2,0.1-0.6,0.1-1.2v-1.6
			c0-1-0.1-1.7-0.3-2s-0.6-0.5-1.2-0.5c-0.2,0-0.4,0.1-0.6,0.2s-0.4,0.3-0.6,0.4S388,130,388,130v3.3c0,0.6,0,1,0.1,1.2
			c0,0.1,0.2,0.1,0.4,0.2s0.4,0.1,0.6,0.1c0,0,0,0.1,0.1,0.2s0,0.2-0.1,0.2c-1.1-0.1-1.6-0.1-1.7-0.1c-0.2,0-0.4,0-0.5,0
			s-0.4,0-0.6,0s-0.4,0-0.5,0c0,0-0.1-0.1-0.1-0.2s0-0.2,0.1-0.2c0.2,0,0.3,0,0.6-0.1s0.4-0.1,0.4-0.2c0.1-0.2,0.1-0.6,0.1-1.2v-6.9
			c0-0.4,0-0.7-0.1-0.8c-0.1-0.2-0.4-0.3-1-0.3c0,0,0,0,0-0.1s0-0.1,0-0.2s0-0.1,0-0.1c0.7-0.1,1.5-0.3,2.2-0.6c0,0,0.1,0,0.1,0.1
			s0.1,0.1,0.1,0.2c-0.1,0.3-0.2,0.8-0.2,1.4v3.5l0,0l0,0c0.2-0.2,0.5-0.5,1-0.7S389.9,128.3,390.2,128.3z"/>
		<path d="M395.1,133.2c0.1,0,0.3,0,0.4,0.1c0.2,0.3,0.3,0.7,0.3,1.1c0,0.4-0.2,1-0.6,1.6s-0.8,1.1-1.2,1.3c-0.1,0-0.1,0-0.2-0.1
			s-0.1-0.2-0.1-0.2c0.1-0.1,0.2-0.2,0.3-0.2s0.2-0.2,0.3-0.3s0.2-0.3,0.3-0.5s0.1-0.4,0.1-0.6c0-0.2-0.1-0.4-0.3-0.6
			s-0.3-0.5-0.3-0.7s0.1-0.4,0.3-0.5S394.8,133.2,395.1,133.2z"/>
		<path d="M339,144.5c0.2,0,0.3,0,0.5,0s0.3,0,0.5,0s0.4,0,0.5,0c0,0,0,0.1,0,0.2s0,0.2-0.1,0.2s-0.2,0-0.3,0s-0.2,0-0.3,0.1
			s-0.2,0.1-0.2,0.2c0,0,0,0.1,0.1,0.2c0.1,0.3,0.6,1.6,1.6,3.8c0.1-0.3,0.3-0.7,0.4-1.1s0.3-0.7,0.4-0.9s0.2-0.4,0.2-0.6
			s0.1-0.4,0.2-0.5s0.1-0.2,0.1-0.2c0-0.1,0-0.2-0.1-0.4s-0.2-0.3-0.3-0.5c-0.1-0.2-0.4-0.3-0.7-0.3c0,0-0.1-0.1-0.1-0.2
			s0-0.2,0.1-0.2s0.3,0,0.6,0s0.6,0,0.8,0c0,0,0.6,0,1.6-0.1c0,0.1,0,0.1,0,0.2s0,0.2,0,0.2c-0.5,0-0.8,0.2-0.8,0.5c0,0,0,0.1,0,0.2
			c0,0.1,0.1,0.2,0.1,0.3s0.1,0.3,0.2,0.5s0.2,0.5,0.3,0.7s0.2,0.6,0.4,1s0.3,0.8,0.5,1.2c0.8-1.9,1.2-3.1,1.4-3.5
			c0.1-0.2,0.1-0.3,0.1-0.4c0-0.1,0-0.2-0.1-0.3s-0.1-0.1-0.3-0.2s-0.2-0.1-0.3-0.1s-0.2,0-0.3,0c0,0,0-0.1-0.1-0.2s0-0.2,0.1-0.2
			s0.3,0,0.6,0s0.5,0,0.8,0c0.2,0,0.3,0,0.5,0s0.3,0,0.5,0s0.3,0,0.5,0c0,0,0,0.1,0,0.2s0,0.2-0.1,0.2s-0.3,0-0.6,0.1
			s-0.4,0.2-0.5,0.4c-0.9,2.3-1.7,4.2-2.3,5.6c0,0.1-0.1,0.1-0.1,0.2s-0.1,0.1-0.2,0.1s-0.2,0-0.2-0.1l-1.7-4.5l-1.7,4.3
			c0,0-0.1,0.1-0.1,0.2s-0.2,0.1-0.2,0.1s-0.1,0-0.1-0.1c-0.9-2.2-1.7-4.2-2.5-6c-0.1-0.2-0.4-0.3-0.8-0.3c0,0,0-0.1,0-0.2
			s0-0.2,0-0.2c0.2,0,0.3,0,0.5,0s0.4,0,0.5,0S338.8,144.5,339,144.5z"/>
		<path d="M352.3,144.3c0.5,0,0.9,0.2,1.2,0.6s0.5,0.9,0.5,1.5v3.2c0,0.5,0.2,0.7,0.5,0.7h0.1h0.1h0.1h0.1c0,0,0,0,0.1,0s0,0,0,0
			s0.1,0,0.1,0.1s0,0.2-0.1,0.3s-0.3,0.2-0.6,0.4s-0.5,0.2-0.6,0.2c-0.2,0-0.4-0.1-0.6-0.3s-0.3-0.4-0.4-0.7
			c-0.2,0.2-0.4,0.4-0.9,0.6s-0.8,0.4-1,0.4c-0.5,0-0.9-0.2-1.3-0.5s-0.5-0.8-0.5-1.3c0-0.3,0.1-0.6,0.2-0.8s0.3-0.4,0.5-0.5
			s0.5-0.2,0.9-0.3s0.8-0.3,1.1-0.4s0.5-0.2,0.7-0.3c0.1,0,0.1-0.1,0.2-0.1s0-0.1,0-0.3v-0.4c0-0.4-0.1-0.7-0.4-1s-0.6-0.5-0.9-0.5
			s-0.5,0.1-0.6,0.2s-0.2,0.4-0.3,0.7c-0.1,0.5-0.3,0.8-0.7,0.8c-0.2,0-0.3-0.1-0.4-0.2s-0.1-0.3-0.1-0.5c0,0,0-0.1,0-0.2
			s0-0.1,0.1-0.2c0.3-0.3,0.8-0.6,1.3-0.9S351.8,144.3,352.3,144.3z M351.5,150.4c0.3,0,0.5-0.1,0.9-0.3s0.5-0.3,0.5-0.4v-2.1
			c-0.8,0.2-1.3,0.4-1.5,0.5c-0.3,0.1-0.5,0.3-0.7,0.5s-0.3,0.5-0.3,0.7c0,0.3,0.1,0.5,0.3,0.8S351.2,150.4,351.5,150.4z"/>
		<path d="M357.8,144.4h2c0.1,0,0.1,0.1,0.1,0.2c0,0.2-0.1,0.3-0.2,0.5h-1.9v4.1c0,0.9,0.3,1.3,1,1.3c0.3,0,0.7-0.1,1-0.4v0.1
			c0,0.1,0,0.2-0.1,0.2c-0.1,0.1-0.2,0.2-0.3,0.3s-0.3,0.2-0.6,0.3s-0.5,0.2-0.7,0.2s-0.4,0-0.6-0.1s-0.4-0.1-0.5-0.3
			s-0.3-0.3-0.4-0.5s-0.1-0.5-0.1-0.8V145h-0.9c-0.1,0-0.1,0-0.1-0.1c0,0,0.1-0.1,0.2-0.2s0.2-0.2,0.2-0.3h0.6v-1
			c0.1-0.1,0.2-0.2,0.4-0.4s0.3-0.3,0.4-0.4s0.2-0.2,0.2-0.2s0.1,0,0.1-0.1s0.1,0,0.1,0l0,0L357.8,144.4L357.8,144.4z"/>
		<path d="M361.9,147.2c0,1,0.2,1.7,0.7,2.2s1.1,0.8,1.8,0.8c0.4,0,0.7-0.1,1-0.3s0.5-0.4,0.7-0.6l0,0c0,0,0,0,0.1,0.1s0,0.1,0,0.1
			c0,0.1,0,0.2-0.1,0.3s-0.2,0.3-0.3,0.4s-0.3,0.3-0.5,0.4s-0.4,0.3-0.7,0.4s-0.5,0.1-0.8,0.1c-0.9,0-1.7-0.3-2.2-0.9
			s-0.9-1.4-0.9-2.3c0-0.5,0.1-1,0.3-1.5s0.4-0.9,0.7-1.2s0.6-0.6,1-0.8s0.7-0.3,1.1-0.3s0.7,0.1,1,0.2s0.5,0.2,0.7,0.4
			s0.3,0.3,0.4,0.5s0.2,0.4,0.2,0.6s0.1,0.3,0.1,0.5s0,0.4-0.1,0.5s-0.2,0.2-0.3,0.2c-0.2,0-0.9,0-2,0.1S362,147.2,361.9,147.2z
			 M362,146.7h2.5c0.2,0,0.3-0.1,0.4-0.4c0-0.1,0-0.2-0.1-0.4s-0.1-0.3-0.2-0.5s-0.2-0.3-0.4-0.4s-0.4-0.2-0.6-0.2s-0.5,0.1-0.7,0.2
			s-0.4,0.3-0.5,0.5s-0.2,0.4-0.3,0.5s-0.1,0.3-0.2,0.5S362,146.7,362,146.7z"/>
		<path d="M371.6,144.3c0.2,0,0.4,0,0.6,0.1s0.3,0.2,0.4,0.3c0,0.1,0.1,0.3,0.1,0.4c0,0.3-0.1,0.5-0.2,0.6s-0.2,0.2-0.3,0.2
			c-0.1,0-0.1,0-0.2,0s-0.1-0.1-0.2-0.1s-0.1-0.1-0.2-0.1c-0.2-0.1-0.4-0.2-0.6-0.2c-0.3,0-0.6,0.2-0.9,0.5s-0.4,0.6-0.4,0.9v2.4
			c0,0.6,0,1,0.1,1.2c0,0.1,0.2,0.1,0.6,0.2s0.6,0.1,0.8,0.1c0,0,0,0.1,0.1,0.2s0,0.2-0.1,0.2c-1.1-0.1-1.7-0.1-1.9-0.1
			c-0.1,0-0.7,0-1.8,0.1c0,0-0.1-0.1-0.1-0.2s0-0.2,0.1-0.2c0.2,0,0.3,0,0.6-0.1s0.4-0.1,0.4-0.2c0-0.1,0.1-0.5,0.1-1.2v-2.9
			c0-0.4,0-0.7-0.1-0.8c0-0.1-0.1-0.1-0.3-0.2s-0.3-0.1-0.4-0.1s-0.2,0-0.3,0c0,0,0-0.1,0-0.2s0-0.2,0-0.2c0.9-0.1,1.6-0.3,2.2-0.7
			c0,0,0.1,0,0.1,0.1s0.1,0.1,0.1,0.2c0,0.1,0,0.3-0.1,0.7s0,0.7,0,0.7l0,0l0,0l0,0c0.2-0.4,0.4-0.8,0.8-1.1
			S371.3,144.3,371.6,144.3z"/>
	</g>
	<g>
		<path d="M118.1,128.3c0.2,0,0.5,0,0.9,0.1s0.6,0.1,0.7,0.1c0.1,0.5,0.2,1,0.2,1.7c0,0.1-0.1,0.1-0.2,0.1s-0.2,0-0.3-0.1
			c-0.1-0.3-0.3-0.7-0.5-1s-0.5-0.5-0.8-0.5c-0.4,0-0.6,0.1-0.8,0.3s-0.3,0.4-0.3,0.7c0,0.1,0,0.3,0.1,0.4s0.1,0.2,0.1,0.3
			s0.1,0.2,0.2,0.2s0.2,0.2,0.3,0.2s0.2,0.1,0.3,0.2s0.3,0.2,0.3,0.2s0.2,0.1,0.3,0.2s0.3,0.2,0.4,0.2s0.2,0.1,0.3,0.2
			s0.3,0.2,0.3,0.3s0.2,0.2,0.2,0.3s0.1,0.2,0.2,0.4s0.1,0.3,0.1,0.4c0,0.6-0.2,1.1-0.7,1.5s-1,0.6-1.7,0.6c-0.2,0-0.4,0-0.6,0
			s-0.4-0.1-0.6-0.1s-0.4-0.1-0.6-0.1c-0.1-0.2-0.1-0.4-0.2-0.8s-0.1-0.6-0.1-0.8c0.1-0.1,0.2-0.1,0.3-0.1c0.1,0,0.1,0,0.1,0
			c0.1,0.4,0.3,0.7,0.6,1s0.7,0.5,1.1,0.5c0.3,0,0.6-0.1,0.8-0.3s0.3-0.5,0.3-0.8c0-0.2,0-0.3-0.1-0.5s-0.2-0.3-0.3-0.4
			s-0.3-0.2-0.4-0.3s-0.3-0.2-0.5-0.3s-0.4-0.2-0.5-0.3c-0.4-0.2-0.7-0.4-0.9-0.7s-0.3-0.6-0.3-1c0-0.6,0.2-1,0.7-1.4
			S117.5,128.3,118.1,128.3z"/>
		<path d="M125.9,128.3c0.3,0,0.6,0,0.9,0.1s0.4,0.2,0.6,0.4s0.3,0.4,0.4,0.7s0.1,0.6,0.2,0.9c0.1,0.3,0,0.7,0,1.2v1.7
			c0,0.6,0,1,0.1,1.2c0,0.1,0.2,0.1,0.4,0.2s0.4,0.1,0.6,0.1c0,0,0,0.1,0.1,0.2s0,0.2-0.1,0.2c-1.1-0.1-1.6-0.1-1.7-0.1
			c-0.2,0-0.4,0-0.5,0s-0.4,0-0.6,0s-0.4,0-0.5,0c0,0-0.1-0.1-0.1-0.2s0-0.2,0.1-0.2c0.2,0,0.3,0,0.6-0.1s0.4-0.1,0.4-0.2
			c0.1-0.2,0.1-0.6,0.1-1.2v-1.6c0-1-0.1-1.7-0.3-2s-0.6-0.5-1.2-0.5c-0.2,0-0.4,0.1-0.6,0.2s-0.4,0.3-0.6,0.4s-0.2,0.2-0.2,0.3v3.3
			c0,0.6,0,1,0.1,1.2c0,0.1,0.2,0.1,0.4,0.2s0.4,0.1,0.6,0.1c0,0,0,0.1,0.1,0.2s0,0.2-0.1,0.2c-1.1-0.1-1.6-0.1-1.7-0.1
			c-0.2,0-0.4,0-0.5,0s-0.4,0-0.6,0s-0.4,0-0.5,0c0,0-0.1-0.1-0.1-0.2s0-0.2,0.1-0.2c0.2,0,0.3,0,0.6-0.1s0.4-0.1,0.4-0.2
			c0.1-0.2,0.1-0.6,0.1-1.2v-2.8c0-0.5,0-0.8-0.1-0.9c0-0.1-0.1-0.1-0.3-0.2s-0.3-0.1-0.4-0.1s-0.2,0-0.3,0c0,0,0-0.1,0-0.2
			s0-0.2,0-0.2c0.9-0.1,1.6-0.3,2.2-0.7c0,0,0.1,0,0.1,0.1s0.1,0.1,0.1,0.2c-0.1,0.4-0.1,0.7-0.1,0.9v0.1l0,0c0.2-0.2,0.5-0.5,1-0.7
			S125.5,128.3,125.9,128.3z"/>
		<path d="M132.9,128.3c0.5,0,0.9,0.2,1.2,0.6s0.5,0.9,0.5,1.5v3.2c0,0.5,0.2,0.7,0.5,0.7h0.1h0.1h0.1h0.1c0,0,0,0,0.1,0s0,0,0,0
			s0.1,0,0.1,0.1s0,0.2-0.1,0.3s-0.3,0.2-0.6,0.4s-0.5,0.2-0.6,0.2c-0.2,0-0.4-0.1-0.6-0.3s-0.3-0.4-0.4-0.7
			c-0.2,0.2-0.4,0.4-0.9,0.6s-0.8,0.4-1,0.4c-0.5,0-0.9-0.2-1.3-0.5s-0.5-0.8-0.5-1.3c0-0.3,0.1-0.6,0.2-0.8s0.3-0.4,0.5-0.5
			s0.5-0.2,0.9-0.3s0.8-0.3,1.1-0.4s0.5-0.2,0.7-0.3c0.1,0,0.1-0.1,0.2-0.1s0-0.1,0-0.3v-0.4c0-0.4-0.1-0.7-0.4-1s-0.6-0.5-0.9-0.5
			c-0.3,0-0.5,0.1-0.6,0.2s-0.2,0.4-0.3,0.7c-0.1,0.5-0.3,0.8-0.7,0.8c-0.2,0-0.3-0.1-0.4-0.2s-0.1-0.3-0.1-0.5c0,0,0-0.1,0-0.2
			s0-0.1,0.1-0.2c0.3-0.3,0.8-0.6,1.3-0.9S132.4,128.3,132.9,128.3z M132,134.4c0.3,0,0.5-0.1,0.9-0.3s0.5-0.3,0.5-0.4v-2.1
			c-0.8,0.2-1.3,0.4-1.5,0.5c-0.3,0.1-0.5,0.3-0.7,0.5s-0.3,0.5-0.3,0.7c0,0.3,0.1,0.5,0.3,0.8S131.8,134.4,132,134.4z"/>
		<path d="M138.5,133.3c0,0.6,0,1,0.1,1.2c0,0.1,0.2,0.1,0.4,0.2s0.4,0.1,0.6,0.1c0,0,0,0.1,0.1,0.2s0,0.2-0.1,0.2
			c-1.1-0.1-1.6-0.1-1.7-0.1c-0.2,0-0.4,0-0.5,0s-0.4,0-0.6,0s-0.4,0-0.5,0c0,0-0.1-0.1-0.1-0.2s0-0.2,0.1-0.2c0.2,0,0.3,0,0.6-0.1
			s0.4-0.1,0.4-0.2c0.1-0.2,0.1-0.6,0.1-1.2v-6.9c0-0.4,0-0.7-0.1-0.8c-0.1-0.2-0.4-0.3-1-0.3c0,0,0,0,0-0.1s0-0.1,0-0.2
			s0-0.1,0-0.1c0.7-0.1,1.5-0.3,2.2-0.6c0,0,0.1,0,0.1,0.1s0.1,0.1,0.1,0.2c-0.1,0.3-0.2,0.8-0.2,1.4v5.6c0.2-0.1,0.6-0.4,1.3-1
			c0.1-0.1,0.3-0.2,0.5-0.4s0.3-0.3,0.4-0.3s0.2-0.2,0.3-0.2s0.2-0.2,0.2-0.2l0.1-0.1v-0.1c0,0-0.1,0-0.1-0.1s-0.1,0-0.1,0H141h-0.1
			h-0.1h-0.1c0-0.1-0.1-0.1,0-0.3s0-0.2,0.1-0.2c0.5,0.1,1,0.1,1.5,0.1s1,0,1.4-0.1c0,0,0,0.1,0,0.2s0,0.2,0,0.2
			c-0.1,0-0.3,0-0.6,0.1s-0.5,0.2-0.6,0.3c-1.2,0.8-2,1.5-2.5,1.9c0.3,0.3,0.7,0.7,1.1,1.2s0.8,0.9,1.1,1.2s0.5,0.5,0.6,0.6
			c0.2,0.2,0.4,0.3,0.7,0.3s0.5,0.1,0.8,0.1c0,0,0,0.1,0,0.2s0,0.2,0,0.2c-0.1,0.1-0.5,0.1-1,0.1c-0.4,0-0.8-0.1-1.2-0.2
			s-0.6-0.3-0.8-0.5c-0.9-1-1.6-1.8-2.2-2.4c0,0,0,0-0.1-0.1l-0.1-0.1l0,0v1.4H138.5z"/>
		<path d="M145,131.2c0,1,0.2,1.7,0.7,2.2s1.1,0.8,1.8,0.8c0.4,0,0.7-0.1,1-0.3s0.5-0.4,0.7-0.6l0,0c0,0,0,0,0.1,0.1s0,0.1,0,0.1
			c0,0.1,0,0.2-0.1,0.3s-0.2,0.3-0.3,0.4s-0.3,0.3-0.5,0.4s-0.4,0.3-0.7,0.4s-0.5,0.1-0.8,0.1c-0.9,0-1.7-0.3-2.2-0.9
			s-0.9-1.4-0.9-2.3c0-0.5,0.1-1,0.3-1.5s0.4-0.9,0.7-1.2s0.6-0.6,1-0.8s0.7-0.3,1.1-0.3c0.4,0,0.7,0.1,1,0.2s0.5,0.2,0.7,0.4
			s0.3,0.3,0.4,0.5s0.2,0.4,0.2,0.6s0.1,0.3,0.1,0.5s0,0.4-0.1,0.5s-0.2,0.2-0.3,0.2c-0.2,0-0.9,0-2,0.1S145.1,131.2,145,131.2z
			 M145.1,130.7h2.5c0.2,0,0.3-0.1,0.4-0.4c0-0.1,0-0.2-0.1-0.4s-0.1-0.3-0.2-0.5s-0.2-0.3-0.4-0.4s-0.4-0.2-0.6-0.2
			c-0.2,0-0.5,0.1-0.7,0.2s-0.4,0.3-0.5,0.5s-0.2,0.4-0.3,0.5s-0.1,0.3-0.2,0.5S145.1,130.7,145.1,130.7z"/>
		<path d="M153,128.3c0.2,0,0.5,0,0.9,0.1s0.6,0.1,0.7,0.1c0.1,0.5,0.2,1,0.2,1.7c0,0.1-0.1,0.1-0.2,0.1c-0.1,0-0.2,0-0.3-0.1
			c-0.1-0.3-0.3-0.7-0.5-1s-0.5-0.5-0.8-0.5c-0.4,0-0.6,0.1-0.8,0.3s-0.3,0.4-0.3,0.7c0,0.1,0,0.3,0.1,0.4s0.1,0.2,0.1,0.3
			s0.1,0.2,0.2,0.2s0.2,0.2,0.3,0.2s0.2,0.1,0.3,0.2s0.3,0.2,0.3,0.2s0.2,0.1,0.3,0.2s0.3,0.2,0.4,0.2s0.2,0.1,0.3,0.2
			s0.3,0.2,0.3,0.3s0.2,0.2,0.2,0.3s0.1,0.2,0.2,0.4s0.1,0.3,0.1,0.4c0,0.6-0.2,1.1-0.7,1.5s-1,0.6-1.7,0.6c-0.2,0-0.4,0-0.6,0
			s-0.4-0.1-0.6-0.1s-0.4-0.1-0.6-0.1c-0.1-0.2-0.1-0.4-0.2-0.8s-0.1-0.6-0.1-0.8c0.1-0.1,0.2-0.1,0.3-0.1s0.1,0,0.1,0
			c0.1,0.4,0.3,0.7,0.6,1s0.7,0.5,1.1,0.5c0.3,0,0.6-0.1,0.8-0.3s0.3-0.5,0.3-0.8c0-0.2,0-0.3-0.1-0.5s-0.2-0.3-0.3-0.4
			s-0.3-0.2-0.4-0.3s-0.3-0.2-0.5-0.3s-0.4-0.2-0.5-0.3c-0.4-0.2-0.7-0.4-0.9-0.7s-0.3-0.6-0.3-1c0-0.6,0.2-1,0.7-1.4
			S152.4,128.3,153,128.3z"/>
		<path d="M157.4,133.2c0.1,0,0.3,0,0.4,0.1c0.2,0.3,0.3,0.7,0.3,1.1c0,0.4-0.2,1-0.6,1.6s-0.8,1.1-1.2,1.3c-0.1,0-0.1,0-0.2-0.1
			S156,137,156,137c0.1-0.1,0.2-0.2,0.3-0.2s0.2-0.2,0.3-0.3s0.2-0.3,0.3-0.5s0.1-0.4,0.1-0.6c0-0.2-0.1-0.4-0.3-0.6
			s-0.3-0.5-0.3-0.7s0.1-0.4,0.3-0.5S157.1,133.2,157.4,133.2z"/>
		<path d="M166.1,128.4h2c0.1,0,0.1,0.1,0.1,0.2c0,0.2-0.1,0.3-0.2,0.5h-1.9v4.1c0,0.9,0.3,1.3,1,1.3c0.3,0,0.7-0.1,1-0.4v0.1
			c0,0.1,0,0.2-0.1,0.2c-0.1,0.1-0.2,0.2-0.3,0.3s-0.3,0.2-0.6,0.3s-0.5,0.2-0.7,0.2s-0.4,0-0.6-0.1s-0.4-0.1-0.5-0.3
			s-0.3-0.3-0.4-0.5s-0.1-0.5-0.1-0.8V129H164c-0.1,0-0.1,0-0.1-0.1c0,0,0.1-0.1,0.2-0.2s0.2-0.2,0.2-0.3h0.6v-1
			c0.1-0.1,0.2-0.2,0.4-0.4s0.3-0.3,0.4-0.4s0.2-0.2,0.2-0.2s0.1,0,0.1-0.1s0.1,0,0.1,0l0,0L166.1,128.4L166.1,128.4z"/>
		<path d="M170.2,131.2c0,1,0.2,1.7,0.7,2.2s1.1,0.8,1.8,0.8c0.4,0,0.7-0.1,1-0.3s0.5-0.4,0.7-0.6l0,0c0,0,0,0,0.1,0.1s0,0.1,0,0.1
			c0,0.1,0,0.2-0.1,0.3s-0.2,0.3-0.3,0.4s-0.3,0.3-0.5,0.4s-0.4,0.3-0.7,0.4s-0.5,0.1-0.8,0.1c-0.9,0-1.7-0.3-2.2-0.9
			s-0.9-1.4-0.9-2.3c0-0.5,0.1-1,0.3-1.5s0.4-0.9,0.7-1.2s0.6-0.6,1-0.8s0.7-0.3,1.1-0.3c0.4,0,0.7,0.1,1,0.2s0.5,0.2,0.7,0.4
			s0.3,0.3,0.4,0.5s0.2,0.4,0.2,0.6s0.1,0.3,0.1,0.5s0,0.4-0.1,0.5s-0.2,0.2-0.3,0.2c-0.2,0-0.9,0-2,0.1S170.3,131.2,170.2,131.2z
			 M170.3,130.7h2.5c0.2,0,0.3-0.1,0.4-0.4c0-0.1,0-0.2-0.1-0.4s-0.1-0.3-0.2-0.5s-0.2-0.3-0.4-0.4s-0.4-0.2-0.6-0.2
			c-0.2,0-0.5,0.1-0.7,0.2s-0.4,0.3-0.5,0.5s-0.2,0.4-0.3,0.5s-0.1,0.3-0.2,0.5S170.2,130.7,170.3,130.7z"/>
		<path d="M176.9,131.2c0,1,0.2,1.7,0.7,2.2s1.1,0.8,1.8,0.8c0.4,0,0.7-0.1,1-0.3s0.5-0.4,0.7-0.6l0,0c0,0,0,0,0.1,0.1s0,0.1,0,0.1
			c0,0.1,0,0.2-0.1,0.3s-0.2,0.3-0.3,0.4s-0.3,0.3-0.5,0.4s-0.4,0.3-0.7,0.4s-0.5,0.1-0.8,0.1c-0.9,0-1.7-0.3-2.2-0.9
			s-0.9-1.4-0.9-2.3c0-0.5,0.1-1,0.3-1.5s0.4-0.9,0.7-1.2s0.6-0.6,1-0.8s0.7-0.3,1.1-0.3c0.4,0,0.7,0.1,1,0.2s0.5,0.2,0.7,0.4
			s0.3,0.3,0.4,0.5s0.2,0.4,0.2,0.6s0.1,0.3,0.1,0.5s0,0.4-0.1,0.5s-0.2,0.2-0.3,0.2c-0.2,0-0.9,0-2,0.1S177,131.2,176.9,131.2z
			 M177,130.7h2.5c0.2,0,0.3-0.1,0.4-0.4c0-0.1,0-0.2-0.1-0.4s-0.1-0.3-0.2-0.5s-0.2-0.3-0.4-0.4s-0.4-0.2-0.6-0.2
			c-0.2,0-0.5,0.1-0.7,0.2s-0.4,0.3-0.5,0.5s-0.2,0.4-0.3,0.5s-0.1,0.3-0.2,0.5S177,130.7,177,130.7z"/>
		<path d="M184.4,128.4h2c0.1,0,0.1,0.1,0.1,0.2c0,0.2-0.1,0.3-0.2,0.5h-1.9v4.1c0,0.9,0.3,1.3,1,1.3c0.3,0,0.7-0.1,1-0.4v0.1
			c0,0.1,0,0.2-0.1,0.2c-0.1,0.1-0.2,0.2-0.3,0.3s-0.3,0.2-0.6,0.3s-0.5,0.2-0.7,0.2s-0.4,0-0.6-0.1s-0.4-0.1-0.5-0.3
			s-0.3-0.3-0.4-0.5s-0.1-0.5-0.1-0.8V129h-0.9c-0.1,0-0.1,0-0.1-0.1c0,0,0.1-0.1,0.2-0.2s0.2-0.2,0.2-0.3h0.6v-1
			c0.1-0.1,0.2-0.2,0.4-0.4s0.3-0.3,0.4-0.4s0.2-0.2,0.2-0.2s0.1,0,0.1-0.1s0.1,0,0.1,0l0,0v2.1H184.4z"/>
		<path d="M191.5,128.3c0.3,0,0.6,0,0.9,0.1s0.4,0.2,0.6,0.4s0.3,0.4,0.4,0.7s0.1,0.6,0.2,0.9s0,0.7,0,1.2v1.7c0,0.6,0,1,0.1,1.2
			c0,0.1,0.2,0.1,0.4,0.2s0.4,0.1,0.6,0.1c0,0,0,0.1,0.1,0.2s0,0.2-0.1,0.2c-1.1-0.1-1.6-0.1-1.7-0.1c-0.2,0-0.4,0-0.5,0
			s-0.4,0-0.6,0s-0.4,0-0.5,0c0,0-0.1-0.1-0.1-0.2s0-0.2,0.1-0.2c0.2,0,0.3,0,0.6-0.1s0.4-0.1,0.4-0.2c0.1-0.2,0.1-0.6,0.1-1.2v-1.6
			c0-1-0.1-1.7-0.3-2s-0.6-0.5-1.2-0.5c-0.2,0-0.4,0.1-0.6,0.2s-0.4,0.3-0.6,0.4s-0.2,0.2-0.2,0.3v3.3c0,0.6,0,1,0.1,1.2
			c0,0.1,0.2,0.1,0.4,0.2s0.4,0.1,0.6,0.1c0,0,0,0.1,0.1,0.2s0,0.2-0.1,0.2c-1.1-0.1-1.6-0.1-1.7-0.1c-0.2,0-0.4,0-0.5,0
			s-0.4,0-0.6,0s-0.4,0-0.5,0c0,0-0.1-0.1-0.1-0.2s0-0.2,0.1-0.2c0.2,0,0.3,0,0.6-0.1s0.4-0.1,0.4-0.2c0.1-0.2,0.1-0.6,0.1-1.2v-6.9
			c0-0.4,0-0.7-0.1-0.8c-0.1-0.2-0.4-0.3-1-0.3c0,0,0,0,0-0.1s0-0.1,0-0.2s0-0.1,0-0.1c0.7-0.1,1.5-0.3,2.2-0.6c0,0,0.1,0,0.1,0.1
			s0.1,0.1,0.1,0.2c-0.1,0.3-0.2,0.8-0.2,1.4v3.5l0,0l0,0c0.2-0.2,0.5-0.5,1-0.7S191.2,128.3,191.5,128.3z"/>
		<path d="M138.8,144.5c0.2,0,0.3,0,0.5,0s0.3,0,0.5,0s0.4,0,0.5,0c0,0,0,0.1,0,0.2s0,0.2-0.1,0.2s-0.2,0-0.3,0s-0.2,0-0.3,0.1
			s-0.2,0.1-0.2,0.2c0,0,0,0.1,0.1,0.2c0.1,0.3,0.6,1.6,1.6,3.8c0.1-0.3,0.3-0.7,0.4-1.1s0.3-0.7,0.4-0.9s0.2-0.4,0.2-0.6
			s0.1-0.4,0.2-0.5s0.1-0.2,0.1-0.2c0-0.1,0-0.2-0.1-0.4s-0.2-0.3-0.3-0.5s-0.4-0.3-0.7-0.3c0,0-0.1-0.1-0.1-0.2s0-0.2,0.1-0.2
			s0.3,0,0.6,0s0.6,0,0.8,0c0,0,0.6,0,1.6-0.1c0,0.1,0,0.1,0,0.2s0,0.2,0,0.2c-0.5,0-0.8,0.2-0.8,0.5c0,0,0,0.1,0,0.2
			c0,0.1,0.1,0.2,0.1,0.3s0.1,0.3,0.2,0.5s0.2,0.5,0.3,0.7s0.2,0.6,0.4,1s0.3,0.8,0.5,1.2c0.8-1.9,1.2-3.1,1.4-3.5
			c0.1-0.2,0.1-0.3,0.1-0.4c0-0.1,0-0.2-0.1-0.3s-0.1-0.1-0.3-0.2s-0.2-0.1-0.3-0.1s-0.2,0-0.3,0c0,0,0-0.1-0.1-0.2s0-0.2,0.1-0.2
			s0.3,0,0.6,0s0.5,0,0.8,0c0.2,0,0.3,0,0.5,0s0.3,0,0.5,0s0.3,0,0.5,0c0,0,0,0.1,0,0.2s0,0.2-0.1,0.2s-0.3,0-0.6,0.1
			s-0.4,0.2-0.5,0.4c-0.9,2.3-1.7,4.2-2.3,5.6c0,0.1-0.1,0.1-0.1,0.2s-0.1,0.1-0.2,0.1c-0.1,0-0.2,0-0.2-0.1l-1.7-4.5l-1.7,4.3
			c0,0-0.1,0.1-0.1,0.2s-0.2,0.1-0.2,0.1s-0.1,0-0.1-0.1c-0.9-2.2-1.7-4.2-2.5-6c-0.1-0.2-0.4-0.3-0.8-0.3c0,0,0-0.1,0-0.2
			s0-0.2,0-0.2c0.2,0,0.3,0,0.5,0s0.4,0,0.5,0S138.6,144.5,138.8,144.5z"/>
		<path d="M152.1,144.3c0.5,0,0.9,0.2,1.2,0.6s0.5,0.9,0.5,1.5v3.2c0,0.5,0.2,0.7,0.5,0.7h0.1h0.1h0.1h0.1c0,0,0,0,0.1,0s0,0,0,0
			s0.1,0,0.1,0.1s0,0.2-0.1,0.3s-0.3,0.2-0.6,0.4s-0.5,0.2-0.6,0.2c-0.2,0-0.4-0.1-0.6-0.3s-0.3-0.4-0.4-0.7
			c-0.2,0.2-0.4,0.4-0.9,0.6s-0.8,0.4-1,0.4c-0.5,0-0.9-0.2-1.3-0.5s-0.5-0.8-0.5-1.3c0-0.3,0.1-0.6,0.2-0.8s0.3-0.4,0.5-0.5
			s0.5-0.2,0.9-0.3s0.8-0.3,1.1-0.4s0.5-0.2,0.7-0.3c0.1,0,0.1-0.1,0.2-0.1s0-0.1,0-0.3v-0.4c0-0.4-0.1-0.7-0.4-1s-0.6-0.5-0.9-0.5
			c-0.3,0-0.5,0.1-0.6,0.2s-0.2,0.4-0.3,0.7c-0.1,0.5-0.3,0.8-0.7,0.8c-0.2,0-0.3-0.1-0.4-0.2s-0.1-0.3-0.1-0.5c0,0,0-0.1,0-0.2
			s0-0.1,0.1-0.2c0.3-0.3,0.8-0.6,1.3-0.9S151.6,144.3,152.1,144.3z M151.3,150.4c0.3,0,0.5-0.1,0.9-0.3s0.5-0.3,0.5-0.4v-2.1
			c-0.8,0.2-1.3,0.4-1.5,0.5c-0.3,0.1-0.5,0.3-0.7,0.5s-0.3,0.5-0.3,0.7c0,0.3,0.1,0.5,0.3,0.8S151,150.4,151.3,150.4z"/>
		<path d="M157.6,144.4h2c0.1,0,0.1,0.1,0.1,0.2c0,0.2-0.1,0.3-0.2,0.5h-1.9v4.1c0,0.9,0.3,1.3,1,1.3c0.3,0,0.7-0.1,1-0.4v0.1
			c0,0.1,0,0.2-0.1,0.2c-0.1,0.1-0.2,0.2-0.3,0.3s-0.3,0.2-0.6,0.3s-0.5,0.2-0.7,0.2s-0.4,0-0.6-0.1s-0.4-0.1-0.5-0.3
			s-0.3-0.3-0.4-0.5s-0.1-0.5-0.1-0.8V145h-0.9c-0.1,0-0.1,0-0.1-0.1c0,0,0.1-0.1,0.2-0.2s0.2-0.2,0.2-0.3h0.6v-1
			c0.1-0.1,0.2-0.2,0.4-0.4s0.3-0.3,0.4-0.4s0.2-0.2,0.2-0.2s0.1,0,0.1-0.1s0.1,0,0.1,0l0,0v2.1H157.6z"/>
		<path d="M161.7,147.2c0,1,0.2,1.7,0.7,2.2s1.1,0.8,1.8,0.8c0.4,0,0.7-0.1,1-0.3s0.5-0.4,0.7-0.6l0,0c0,0,0,0,0.1,0.1s0,0.1,0,0.1
			c0,0.1,0,0.2-0.1,0.3s-0.2,0.3-0.3,0.4s-0.3,0.3-0.5,0.4s-0.4,0.3-0.7,0.4s-0.5,0.1-0.8,0.1c-0.9,0-1.7-0.3-2.2-0.9
			s-0.9-1.4-0.9-2.3c0-0.5,0.1-1,0.3-1.5s0.4-0.9,0.7-1.2s0.6-0.6,1-0.8s0.7-0.3,1.1-0.3c0.4,0,0.7,0.1,1,0.2s0.5,0.2,0.7,0.4
			s0.3,0.3,0.4,0.5s0.2,0.4,0.2,0.6s0.1,0.3,0.1,0.5s0,0.4-0.1,0.5s-0.2,0.2-0.3,0.2c-0.2,0-0.9,0-2,0.1S161.8,147.2,161.7,147.2z
			 M161.8,146.7h2.5c0.2,0,0.3-0.1,0.4-0.4c0-0.1,0-0.2-0.1-0.4s-0.1-0.3-0.2-0.5s-0.2-0.3-0.4-0.4s-0.4-0.2-0.6-0.2
			c-0.2,0-0.5,0.1-0.7,0.2s-0.4,0.3-0.5,0.5s-0.2,0.4-0.3,0.5s-0.1,0.3-0.2,0.5S161.7,146.7,161.8,146.7z"/>
		<path d="M171.4,144.3c0.2,0,0.4,0,0.6,0.1s0.3,0.2,0.4,0.3c0,0.1,0.1,0.3,0.1,0.4c0,0.3-0.1,0.5-0.2,0.6s-0.2,0.2-0.3,0.2
			s-0.1,0-0.2,0s-0.1-0.1-0.2-0.1s-0.1-0.1-0.2-0.1c-0.2-0.1-0.4-0.2-0.6-0.2c-0.3,0-0.6,0.2-0.9,0.5s-0.4,0.6-0.4,0.9v2.4
			c0,0.6,0,1,0.1,1.2c0,0.1,0.2,0.1,0.6,0.2s0.6,0.1,0.8,0.1c0,0,0,0.1,0.1,0.2s0,0.2-0.1,0.2c-1.1-0.1-1.7-0.1-1.9-0.1
			c-0.1,0-0.7,0-1.8,0.1c0,0-0.1-0.1-0.1-0.2s0-0.2,0.1-0.2c0.2,0,0.3,0,0.6-0.1s0.4-0.1,0.4-0.2c0-0.1,0.1-0.5,0.1-1.2v-2.9
			c0-0.4,0-0.7-0.1-0.8c0-0.1-0.1-0.1-0.3-0.2s-0.3-0.1-0.4-0.1s-0.2,0-0.3,0c0,0,0-0.1,0-0.2s0-0.2,0-0.2c0.9-0.1,1.6-0.3,2.2-0.7
			c0,0,0.1,0,0.1,0.1s0.1,0.1,0.1,0.2c0,0.1,0,0.3-0.1,0.7s0,0.7,0,0.7l0,0l0,0l0,0c0.2-0.4,0.4-0.8,0.8-1.1
			S171.1,144.3,171.4,144.3z"/>
	</g>
</g>
</svg>
