<svg id="Livello_1" data-name="Livello 1" xmlns="http://www.w3.org/2000/svg" viewBox="0 0 312.94 96.07"><defs><style>.cls-1{fill:#ffe8e8;}.cls-2{fill:#424399;}</style></defs><title>0.got-it</title><rect class="cls-1" width="312.94" height="96.07" rx="28.35"/><path class="cls-2" d="M112.1,58.89a10,10,0,0,1-7.61,3.23A11.4,11.4,0,0,1,99.34,61a13,13,0,0,1-4.18-3,18.12,18.12,0,0,1-2.86-4.57,13.5,13.5,0,0,1-1-5.52,16.54,16.54,0,0,1,1-5.33,11.58,11.58,0,0,1,2.86-4.38,13.32,13.32,0,0,1,4.18-3.05,12.84,12.84,0,0,1,5.34-1.14,12.32,12.32,0,0,1,6.66,1.72A10.28,10.28,0,0,1,115.53,40l-3.81,3a9.46,9.46,0,0,0-2.85-3.23,11,11,0,0,0-4.19-1,6.26,6.26,0,0,0-3.24.76A6.77,6.77,0,0,0,99,41.75a9.1,9.1,0,0,0-1.52,3,6.51,6.51,0,0,0-.76,3.42,11.08,11.08,0,0,0,.57,3.62A7.19,7.19,0,0,0,99,54.7a6.93,6.93,0,0,0,2.67,1.9,6.26,6.26,0,0,0,3.24.76c2.66,0,5.14-1.33,7.23-3.81v-1.9h-5.52v-4h10.09V61.93H112.1Z"/><path class="cls-2" d="M134.57,62.12A13,13,0,0,1,129.05,61a11.73,11.73,0,0,1-4.19-3.24,13.85,13.85,0,0,1-2.67-4.57,16.3,16.3,0,0,1-1-5.14,16.59,16.59,0,0,1,1-5.33,18.89,18.89,0,0,1,2.86-4.57,12.23,12.23,0,0,1,4.38-3.05,12.8,12.8,0,0,1,5.33-1.14,13,13,0,0,1,5.52,1.14,11.87,11.87,0,0,1,4.19,3.24,13.78,13.78,0,0,1,2.67,4.57,16.4,16.4,0,0,1,1,5.14,16.5,16.5,0,0,1-1,5.33,11.62,11.62,0,0,1-2.86,4.38,11.91,11.91,0,0,1-4.38,3A10.11,10.11,0,0,1,134.57,62.12Zm-8-13.9a10.77,10.77,0,0,0,.57,3.43,15.81,15.81,0,0,0,1.53,3.05,13.08,13.08,0,0,0,2.47,2.09,8.12,8.12,0,0,0,6.86,0,8.29,8.29,0,0,0,4-5.14,10.58,10.58,0,0,0,0-6.85,15,15,0,0,0-1.53-3,8.72,8.72,0,0,0-2.47-2.1,8.12,8.12,0,0,0-6.86,0,6.73,6.73,0,0,0-2.47,2.1,9.31,9.31,0,0,0-1.53,3A10.76,10.76,0,0,0,126.57,48.22Z"/><path class="cls-2" d="M173.22,39.08h-8.94v23h-5.34v-23h-8.76V34.32h23Z"/><path class="cls-2" d="M188.08,61.93V34.32h5.33v27.8h-5.33Z"/><path class="cls-2" d="M221.59,39.08h-9v23h-5.33v-23h-8.95V34.32h23l.19,4.76Z"/></svg>