<svg enable-background="new 0 0 93.5 130.4" viewBox="0 0 93.5 130.4" xmlns="http://www.w3.org/2000/svg" xmlns:xlink="http://www.w3.org/1999/xlink"><linearGradient id="a" gradientTransform="matrix(.9986 -.05221873 .05221873 .9986 143.1495 152.7173)" gradientUnits="userSpaceOnUse" x1="-94.208" x2="-94.1295" y1="-27.5181" y2="-133.0575"><stop offset="0" stop-color="#edeced"/><stop offset=".09470155" stop-color="#e4e7e8"/><stop offset=".3898" stop-color="#cadada"/><stop offset="1" stop-color="#7c8f8c"/></linearGradient><path d="m51 24.3c-.3 6.4-1.9 19.2-.9 22.9.9 3.2 2.2 9.3 3.4 12.4 1.5 4.1 3.8 7.2 6.2 10.6 8.5 11.7 30.3 27.1 33.1 37.9.5 2.1-4.5 5.7-8.8 10.2-2.6 2.7-11.8 7.3-14.1 8.7-2.5 1.6-5.5 2.3-8.3 2.4-6.1.3-11.6-2.4-17.4-3.7s-11.8-1.8-17.6-.8c-5.3.9-10.7 2.6-16.1 2-4.4-.5-9.1-3.2-9.8-8.5 1.5-1.5 3.4-2.7 5-4.1 1.8-1.5 3.5-3.2 5-5 7.8-8.7 12.9-19.8 19.5-29.6 3.1-4.6 6.1-9.2 9-13.9 1.8-2.9 5.1-7.5 4.4-11.4" fill="url(#a)"/><g fill="#374e5a"><path d="m37.6 74.6c-.4 3.6-.1 7.3 1.1 10.7s3.2 6.5 5.4 9.4 4.7 5.6 7 8.5c2.3 2.8 4.4 5.9 6 9.2-1.6-3.3-3.8-6.3-6.1-9.1s-4.8-5.5-7.1-8.4-4.3-6-5.6-9.5c-1.3-3.4-1.7-7.1-1.3-10.8z"/><path d="m43.1 60.1c-.1 2.4.8 4.7 1.9 6.8 1.2 2.1 2.8 4 4.4 5.8 3.3 3.6 7.1 6.6 10.6 10.1 3.5 3.4 6.9 6.9 9.9 10.8 1.5 1.9 2.9 4 4 6.2s1.9 4.6 1.9 7c0-2.5-.8-4.8-1.9-7s-2.5-4.2-4-6.1c-3-3.8-6.5-7.3-10-10.7s-7.3-6.4-10.7-10c-1.7-1.8-3.3-3.7-4.5-5.8s-2.2-4.5-2.1-7.1z"/><path d="m29.5 100.5c-.1 3-1.3 5.9-2.9 8.5-.8 1.3-1.7 2.5-2.7 3.6s-2.2 2.1-3.5 2.8c1.3-.8 2.3-1.9 3.3-3s1.9-2.3 2.6-3.6c.8-1.3 1.5-2.6 2-4 .7-1.3 1.1-2.8 1.2-4.3z" opacity=".7"/><path d="m32.2 88c.1 1.7-.3 3.3-.9 4.8s-1.5 3-2.4 4.4-1.9 2.7-3 3.9-2.3 2.4-3.6 3.4c1.2-1.2 2.2-2.4 3.3-3.7 1-1.3 2-2.6 2.9-3.9s1.7-2.8 2.4-4.2c.6-1.5 1.2-3 1.3-4.7z"/><path d="m50.3.9c5.6 22.4-5.8 51.2-13.1 72.6-4.2 12.4-10.7 28.8-7 42-4-12.2 3.9-34.3 9.1-45.3 6.5-13.6 11.2-30.9 12.5-45.9.8-7.9.1-17.2-1.5-23.4"/></g></svg>