<?xml version="1.0" encoding="utf-8"?>
<!-- Generator: Adobe Illustrator 23.0.1, SVG Export Plug-In . SVG Version: 6.00 Build 0)  -->
<!DOCTYPE svg PUBLIC "-//W3C//DTD SVG 1.1//EN" "http://www.w3.org/Graphics/SVG/1.1/DTD/svg11.dtd" [
	<!ENTITY ns_extend "http://ns.adobe.com/Extensibility/1.0/">
	<!ENTITY ns_ai "http://ns.adobe.com/AdobeIllustrator/10.0/">
	<!ENTITY ns_graphs "http://ns.adobe.com/Graphs/1.0/">
	<!ENTITY ns_vars "http://ns.adobe.com/Variables/1.0/">
	<!ENTITY ns_imrep "http://ns.adobe.com/ImageReplacement/1.0/">
	<!ENTITY ns_sfw "http://ns.adobe.com/SaveForWeb/1.0/">
	<!ENTITY ns_custom "http://ns.adobe.com/GenericCustomNamespace/1.0/">
	<!ENTITY ns_adobe_xpath "http://ns.adobe.com/XPath/1.0/">
]>
<svg version="1.1" xmlns:x="&ns_extend;" xmlns:i="&ns_ai;" xmlns:graph="&ns_graphs;"
	 xmlns="http://www.w3.org/2000/svg" xmlns:xlink="http://www.w3.org/1999/xlink" x="0px" y="0px" viewBox="0 0 378 1340.9"
	 style="enable-background:new 0 0 378 1340.9;" xml:space="preserve">
<style type="text/css">
	.st0{fill:url(#SVGID_1_);}
	.st1{fill:#FFFFFF;}
	.st2{opacity:0.5;fill:#FFFFFF;}
	.st3{opacity:0.9;fill:#FFFFFF;}
</style>
<metadata>
	<sfw  xmlns="&ns_sfw;">
		<slices></slices>
		<sliceSourceBounds  bottomLeftOrigin="true" height="1478.9" width="456.3" x="5289.3" y="-1478.9"></sliceSourceBounds>
	</sfw>
</metadata>
<g id="sky">
	<linearGradient id="SVGID_1_" gradientUnits="userSpaceOnUse" x1="189" y1="1456.3748" x2="189" y2="-22.5335">
		<stop  offset="0" style="stop-color:#CDF1E0"/>
		<stop  offset="0.1442" style="stop-color:#BFE0E6"/>
		<stop  offset="0.2889" style="stop-color:#B5D3EB"/>
		<stop  offset="0.4607" style="stop-color:#94A9D2"/>
		<stop  offset="0.8465" style="stop-color:#414092"/>
		<stop  offset="0.8626" style="stop-color:#3D3B8F"/>
		<stop  offset="0.8639" style="stop-color:#3D3B8E"/>
		<stop  offset="0.9532" style="stop-color:#2C2B68"/>
		<stop  offset="1" style="stop-color:#252559"/>
	</linearGradient>
	<rect x="-39.2" y="-22.5" class="st0" width="456.3" height="1478.9"/>
</g>
<g id="stars">
	<g>
		<path class="st1" d="M68.7,766.5c-0.5,0-0.5,0.8,0,0.8C69.3,767.3,69.3,766.5,68.7,766.5L68.7,766.5z"/>
		<path class="st1" d="M42.6,778.7c-0.6,0-0.6,0.9,0,0.9C43.1,779.6,43.1,778.7,42.6,778.7L42.6,778.7z"/>
		<path class="st1" d="M88.5,828.8c-0.6,0-0.6,1,0,1C89.1,829.8,89.1,828.8,88.5,828.8L88.5,828.8z"/>
		<path class="st1" d="M368.6,849.3c-0.5,0-0.5,0.8,0,0.8C369.1,850.1,369.1,849.3,368.6,849.3L368.6,849.3z"/>
		<path class="st1" d="M81.2,773.4c-0.4,0-0.4,0.7,0,0.7C81.7,774.1,81.7,773.4,81.2,773.4L81.2,773.4z"/>
		<path class="st1" d="M49.9,825.5c-0.7,0-0.7,1.1,0,1.1C50.6,826.6,50.6,825.5,49.9,825.5L49.9,825.5z"/>
		<path class="st1" d="M39.9,774.8c-0.5,0-0.5,0.8,0,0.8C40.4,775.6,40.4,774.8,39.9,774.8L39.9,774.8z"/>
		<path class="st1" d="M24.2,236.6c0.7,0,0.7-1,0-1C23.5,235.6,23.5,236.6,24.2,236.6L24.2,236.6z"/>
		<path class="st2" d="M4.1,330.1c0.7,0,0.7-1.1,0-1.1C3.4,329,3.4,330.1,4.1,330.1L4.1,330.1z"/>
		<path class="st1" d="M13.9,330.2c0.5,0,0.5-0.8,0-0.8C13.4,329.5,13.4,330.2,13.9,330.2L13.9,330.2z"/>
		<path class="st1" d="M45.5,302.4c0.5,0,0.5-0.8,0-0.8C45,301.6,45,302.4,45.5,302.4L45.5,302.4z"/>
		<path class="st1" d="M59.4,322.7c0.5,0,0.5-0.8,0-0.8C58.9,322,58.9,322.7,59.4,322.7L59.4,322.7z"/>
		<path class="st1" d="M39.7,397.7c0.6,0,0.6-0.9,0-0.9C39.1,396.8,39.1,397.7,39.7,397.7L39.7,397.7z"/>
		<path class="st1" d="M16.9,164.5c0.5,0,0.5-0.8,0-0.8C16.4,163.6,16.4,164.5,16.9,164.5L16.9,164.5z"/>
		<path class="st1" d="M8.7,188.2c0.5,0,0.5-0.7,0-0.7C8.3,187.5,8.3,188.2,8.7,188.2L8.7,188.2z"/>
		<path class="st1" d="M131.1,20.6c0.6,0,0.6-0.9,0-0.9C130.6,19.7,130.6,20.6,131.1,20.6L131.1,20.6z"/>
		<path class="st1" d="M115.5,30.6c0.6,0,0.6-0.9,0-0.9C114.9,29.7,114.9,30.6,115.5,30.6L115.5,30.6z"/>
		<path class="st1" d="M110.1,45.8c0.7,0,0.7-1.1,0-1.1C109.4,44.7,109.4,45.8,110.1,45.8L110.1,45.8z"/>
		<path class="st1" d="M-10.7,247.2c0.5,0,0.5-0.8,0-0.8C-11.2,246.3-11.2,247.2-10.7,247.2L-10.7,247.2z"/>
		<path class="st1" d="M-9.3,261.2c0.7,0,0.7-1,0-1C-9.9,260.2-9.9,261.2-9.3,261.2L-9.3,261.2z"/>
		<path class="st1" d="M36.1,279.1c0.5,0,0.5-0.8,0-0.8C35.6,278.3,35.6,279.1,36.1,279.1L36.1,279.1z"/>
		<path class="st1" d="M124.6,256.4c0.7,0,0.7-1,0-1C124,255.4,124,256.4,124.6,256.4L124.6,256.4z"/>
		<path class="st1" d="M135,238.1c0.5,0,0.5-0.8,0-0.8C134.5,237.2,134.5,238.1,135,238.1L135,238.1z"/>
		<path class="st1" d="M115.3,229.3c0.5,0,0.5-0.8,0-0.8C114.8,228.5,114.8,229.3,115.3,229.3L115.3,229.3z"/>
		<path class="st1" d="M102.2,250.1c0.5,0,0.5-0.8,0-0.8C101.7,249.3,101.7,250.1,102.2,250.1L102.2,250.1z"/>
		<path class="st1" d="M80.1,253.7c0.5,0,0.5-0.8,0-0.8C79.6,252.9,79.5,253.7,80.1,253.7L80.1,253.7z"/>
		<path class="st1" d="M86.3,299.9c0.6,0,0.6-0.9,0-0.9C85.7,299,85.7,299.9,86.3,299.9L86.3,299.9z"/>
		<path class="st1" d="M121.3,317.2c0.6,0,0.6-1,0-1C120.6,316.2,120.6,317.2,121.3,317.2L121.3,317.2z"/>
		<path class="st1" d="M103.9,368.4c0.5,0,0.5-0.8,0-0.8C103.4,367.7,103.4,368.4,103.9,368.4L103.9,368.4z"/>
		<path class="st2" d="M80.5,169.7c0.5,0,0.5-0.8,0-0.8C80,168.9,80,169.7,80.5,169.7L80.5,169.7z"/>
		<path class="st1" d="M102.7,120.9c0.6,0,0.6-0.9,0-0.9C102.1,120,102.1,120.9,102.7,120.9L102.7,120.9z"/>
		<path class="st1" d="M-17.4,91.1c0.6,0,0.6-0.9,0-0.9C-18,90.2-18,91.1-17.4,91.1L-17.4,91.1z"/>
		<path class="st1" d="M132.2,71.9c0.6,0,0.6-0.9,0-0.9C131.6,71,131.6,71.9,132.2,71.9L132.2,71.9z"/>
		<path class="st2" d="M48.6,25.5c0.6,0,0.6-1,0-1C48,24.5,48,25.5,48.6,25.5L48.6,25.5z"/>
		<path class="st2" d="M48.3,38.9c0.5,0,0.5-0.8,0-0.8C47.8,38,47.8,38.9,48.3,38.9L48.3,38.9z"/>
		<path class="st1" d="M12.2,11c0.5,0,0.5-0.8,0-0.8C11.6,10.2,11.6,11,12.2,11L12.2,11z"/>
		<path class="st1" d="M49.2,80.5c0.6,0,0.6-0.9,0-0.9C48.6,79.6,48.6,80.5,49.2,80.5L49.2,80.5z"/>
		<path class="st1" d="M-15.2,48.6c0.4,0,0.4-0.6,0-0.6C-15.6,48-15.6,48.6-15.2,48.6L-15.2,48.6z"/>
		<path class="st2" d="M24.1,74.4c0.6,0,0.6-0.9,0-0.9C23.5,73.5,23.5,74.4,24.1,74.4L24.1,74.4z"/>
		<path class="st1" d="M9.3,88C10,88,10,87,9.3,87C8.6,87,8.6,88,9.3,88L9.3,88z"/>
		<path class="st1" d="M48.1,10c0.6,0,0.6-0.9,0-0.9C47.5,9.1,47.5,10,48.1,10L48.1,10z"/>
		<path class="st1" d="M28.1-3.1c0.6,0,0.6-0.9,0-0.9C27.5-4,27.5-3.1,28.1-3.1L28.1-3.1z"/>
		<path class="st1" d="M26.3,14.9c0.6,0,0.6-0.9,0-0.9C25.7,14,25.7,14.9,26.3,14.9L26.3,14.9z"/>
		<path class="st2" d="M123.7,6.7c0.5,0,0.5-0.7,0-0.7C123.3,6,123.3,6.7,123.7,6.7L123.7,6.7z"/>
		<path class="st1" d="M160.4,10.5c0.8,0,0.8-1.2,0-1.2C159.6,9.4,159.6,10.5,160.4,10.5L160.4,10.5z"/>
		<path class="st1" d="M143.5-1.4c0.5,0,0.5-0.8,0-0.8C143-2.2,143-1.4,143.5-1.4L143.5-1.4z"/>
		<path class="st1" d="M128.2,100.2c0.5,0,0.5-0.8,0-0.8C127.7,99.4,127.7,100.2,128.2,100.2L128.2,100.2z"/>
		<path class="st1" d="M142.1,112c0.6,0,0.6-0.9,0-0.9C141.5,111.1,141.5,112,142.1,112L142.1,112z"/>
		<path class="st1" d="M153.9,106.8c0.6,0,0.6-0.9,0-0.9C153.4,105.9,153.4,106.8,153.9,106.8L153.9,106.8z"/>
		<path class="st1" d="M138.9,131.7c0.8,0,0.8-1.2,0-1.2C138.2,130.5,138.1,131.7,138.9,131.7L138.9,131.7z"/>
		<path class="st1" d="M154.8,147.4c0.5,0,0.5-0.8,0-0.8C154.3,146.6,154.3,147.4,154.8,147.4L154.8,147.4z"/>
		<path class="st1" d="M135.9,179c0.7,0,0.7-1.1,0-1.1C135.2,177.9,135.2,179,135.9,179L135.9,179z"/>
		<path class="st1" d="M140.1,190.1c0.6,0,0.6-0.9,0-0.9C139.6,189.2,139.6,190.1,140.1,190.1L140.1,190.1z"/>
		<path class="st1" d="M28,161.8c0.4,0,0.4-0.7,0-0.7C27.6,161.2,27.6,161.8,28,161.8L28,161.8z"/>
		<path class="st1" d="M52.7,121.4c0.6,0,0.6-0.9,0-0.9C52.1,120.5,52.1,121.4,52.7,121.4L52.7,121.4z"/>
		<path class="st2" d="M93.7,137.7c0.6,0,0.6-0.9,0-0.9C93.2,136.9,93.2,137.7,93.7,137.7L93.7,137.7z"/>
		<path class="st2" d="M85.4,150.7c0.4,0,0.4-0.7,0-0.7C85,150,85,150.7,85.4,150.7L85.4,150.7z"/>
		<path class="st2" d="M104.9,162.7c0.6,0,0.6-1,0-1C104.3,161.8,104.3,162.7,104.9,162.7L104.9,162.7z"/>
		<path class="st1" d="M125.7,164.3c0.5,0,0.5-0.7,0-0.7C125.2,163.5,125.2,164.3,125.7,164.3L125.7,164.3z"/>
		<path class="st1" d="M38.9,218.7c0.6,0,0.6-1,0-1C38.2,217.7,38.2,218.7,38.9,218.7L38.9,218.7z"/>
		<path class="st2" d="M50.4,201c0.5,0,0.5-0.7,0-0.7C49.9,200.3,49.9,201,50.4,201L50.4,201z"/>
		<path class="st1" d="M63.7,212.1c0.6,0,0.6-0.9,0-0.9C63.1,211.2,63.1,212.1,63.7,212.1L63.7,212.1z"/>
		<path class="st1" d="M36.1,225.2c0.7,0,0.7-1.1,0-1.1C35.4,224.1,35.4,225.2,36.1,225.2L36.1,225.2z"/>
		<path class="st1" d="M52.6,231.7c0.5,0,0.5-0.8,0-0.8C52.1,230.9,52.1,231.7,52.6,231.7L52.6,231.7z"/>
		<path class="st1" d="M72.9,266.6c0.4,0,0.4-0.5,0-0.5C72.6,266,72.6,266.6,72.9,266.6L72.9,266.6z"/>
		<path class="st1" d="M67.5,233.3c0.5,0,0.5-0.8,0-0.8C67,232.5,67,233.3,67.5,233.3L67.5,233.3z"/>
		<path class="st2" d="M122.9,350.8c0.6,0,0.6-0.9,0-0.9C122.4,349.9,122.4,350.8,122.9,350.8L122.9,350.8z"/>
		<path class="st1" d="M105.8,341.9c0.4,0,0.4-0.6,0-0.6C105.5,341.3,105.5,341.9,105.8,341.9L105.8,341.9z"/>
		<path class="st1" d="M113.2,331.9c0.8,0,0.8-1.2,0-1.2C112.4,330.7,112.4,331.9,113.2,331.9L113.2,331.9z"/>
		<path class="st1" d="M143.1,328.4c0.8,0,0.8-1.2,0-1.2C142.3,327.1,142.3,328.4,143.1,328.4L143.1,328.4z"/>
		<path class="st1" d="M154.8,286.1c0.6,0,0.7-1,0-1C154.2,285.1,154.2,286.1,154.8,286.1L154.8,286.1z"/>
		<path class="st2" d="M145.7,266.9c0.6,0,0.6-1,0-1C145.1,266,145.1,266.9,145.7,266.9L145.7,266.9z"/>
		<path class="st1" d="M-1.9,3.7c0.4,0,0.4-0.7,0-0.7C-2.4,3-2.4,3.7-1.9,3.7L-1.9,3.7z"/>
		<path class="st1" d="M85.9,44.7c0.4,0,0.4-0.6,0-0.6C85.6,44.1,85.6,44.7,85.9,44.7L85.9,44.7z"/>
		<path class="st1" d="M95.1,23.2c0.6,0,0.6-0.9,0-0.9C94.5,22.3,94.5,23.2,95.1,23.2L95.1,23.2z"/>
		<path class="st1" d="M124.6,44.9c0.5,0,0.5-0.8,0-0.8C124.1,44.1,124.1,44.9,124.6,44.9L124.6,44.9z"/>
		<path class="st1" d="M96.3,72.2c0.7,0,0.7-1,0-1C95.6,71.2,95.6,72.2,96.3,72.2L96.3,72.2z"/>
		<path class="st1" d="M74.3,61.3c0.7,0,0.7-1.1,0-1.1C73.6,60.2,73.6,61.3,74.3,61.3L74.3,61.3z"/>
		<path class="st1" d="M77.2,79.8c0.6,0,0.6-0.9,0-0.9C76.6,78.9,76.6,79.8,77.2,79.8L77.2,79.8z"/>
		<path class="st1" d="M72.5,85.9c0.6,0,0.6-0.9,0-0.9C71.9,85.1,71.9,85.9,72.5,85.9L72.5,85.9z"/>
		<path class="st1" d="M82.7,91.2c0.5,0,0.5-0.9,0-0.9C82.1,90.3,82.1,91.2,82.7,91.2L82.7,91.2z"/>
		<path class="st1" d="M-2.8,110.4c0.6,0,0.6-1,0-1C-3.4,109.4-3.4,110.4-2.8,110.4L-2.8,110.4z"/>
		<path class="st1" d="M14.6,64.8c0.5,0,0.5-0.8,0-0.8C14,64,14,64.8,14.6,64.8L14.6,64.8z"/>
		<path class="st1" d="M52.6,20.7c0.6,0,0.6-0.9,0-0.9C52,19.8,52,20.7,52.6,20.7L52.6,20.7z"/>
		<path class="st1" d="M-0.6,122c0.4,0,0.4-0.6,0-0.6C-1,121.3-1,122-0.6,122L-0.6,122z"/>
		<path class="st1" d="M17.9,135.3c0.5,0,0.5-0.7,0-0.7C17.4,134.6,17.4,135.3,17.9,135.3L17.9,135.3z"/>
		<path class="st1" d="M-9.5,100c0.4,0,0.4-0.7,0-0.7C-9.9,99.3-9.9,100-9.5,100L-9.5,100z"/>
		<path class="st1" d="M14.2,115.6c0.6,0,0.6-0.9,0-0.9C13.6,114.8,13.6,115.6,14.2,115.6L14.2,115.6z"/>
		<path class="st1" d="M17.7,98.9c0.5,0,0.5-0.8,0-0.8C17.2,98.1,17.2,98.9,17.7,98.9L17.7,98.9z"/>
		<path class="st2" d="M67.6,152.6c0.4,0,0.4-0.7,0-0.7C67.2,152,67.2,152.6,67.6,152.6L67.6,152.6z"/>
		<path class="st1" d="M39.2,184.9c0.5,0,0.5-0.7,0-0.7C38.7,184.1,38.7,184.9,39.2,184.9L39.2,184.9z"/>
		<path class="st1" d="M32.3,185.7c0.4,0,0.4-0.7,0-0.7C31.8,185.1,31.8,185.7,32.3,185.7L32.3,185.7z"/>
		<path class="st1" d="M74.6,265.8c0.8,0,0.8-1.2,0-1.2C73.8,264.6,73.8,265.8,74.6,265.8L74.6,265.8z"/>
		<path class="st1" d="M76.7,259.3c0.8,0,0.8-1.2,0-1.2C75.9,258.1,75.9,259.3,76.7,259.3L76.7,259.3z"/>
		<path class="st1" d="M-16.5,229.5c0.8,0,0.8-1.2,0-1.2C-17.3,228.3-17.3,229.5-16.5,229.5L-16.5,229.5z"/>
		<path class="st1" d="M7.8,283.7c0.8,0,0.8-1.2,0-1.2C7,282.5,7,283.7,7.8,283.7L7.8,283.7z"/>
		<path class="st1" d="M3.9,282.7c0.8,0,0.8-1.2,0-1.2C3.2,281.5,3.2,282.7,3.9,282.7L3.9,282.7z"/>
		<path class="st1" d="M101.3,59.7c0.8,0,0.8-1.2,0-1.2C100.5,58.5,100.5,59.7,101.3,59.7L101.3,59.7z"/>
		<path class="st1" d="M51.2,45.4c0.8,0,0.8-1.2,0-1.2C50.4,44.3,50.4,45.4,51.2,45.4L51.2,45.4z"/>
		<path class="st1" d="M19.9,302.9c0.8,0,0.8-1.2,0-1.2C19.1,301.7,19.1,302.9,19.9,302.9L19.9,302.9z"/>
		<path class="st1" d="M33.4,9.2c0.5,0,0.5-0.8,0-0.8C32.9,8.4,32.9,9.2,33.4,9.2L33.4,9.2z"/>
		<path class="st1" d="M139.8,97.5c0.5,0,0.5-0.8,0-0.8C139.3,96.7,139.3,97.5,139.8,97.5L139.8,97.5z"/>
		<path class="st1" d="M132.3,108.7c0.6,0,0.6-1,0-1C131.7,107.8,131.7,108.7,132.3,108.7L132.3,108.7z"/>
		<path class="st1" d="M133.4,128.2c0.5,0,0.5-0.7,0-0.7C133,127.5,133,128.2,133.4,128.2L133.4,128.2z"/>
		<path class="st1" d="M134.1,131.7c0.7,0,0.7-1.1,0-1.1C133.3,130.6,133.3,131.7,134.1,131.7L134.1,131.7z"/>
		<path class="st1" d="M187,135.9c0.5,0,0.5-0.8,0-0.8C186.5,135.1,186.5,135.9,187,135.9L187,135.9z"/>
		<path class="st2" d="M79.8,135.4c0.4,0,0.4-0.6,0-0.6C79.3,134.8,79.3,135.4,79.8,135.4L79.8,135.4z"/>
		<path class="st1" d="M60.3,133.4c0.6,0,0.6-1,0-1C59.7,132.5,59.7,133.4,60.3,133.4L60.3,133.4z"/>
		<path class="st1" d="M102.5,164c0.7,0,0.7-1.1,0-1.1C101.8,162.9,101.8,164,102.5,164L102.5,164z"/>
		<path class="st1" d="M130.4,210.4c0.5,0,0.5-0.8,0-0.8C129.8,209.6,129.8,210.4,130.4,210.4L130.4,210.4z"/>
		<path class="st1" d="M65.8,179.7c0.6,0,0.6-1,0-1C65.1,178.7,65.1,179.7,65.8,179.7L65.8,179.7z"/>
		<path class="st1" d="M261.8,174.9c0.7,0,0.7-1.1,0-1.1C261.1,173.7,261.1,174.9,261.8,174.9L261.8,174.9z"/>
		<path class="st1" d="M-1.8,401.7c0.5,0,0.5-0.8,0-0.8C-2.2,401-2.2,401.7-1.8,401.7L-1.8,401.7z"/>
		<path class="st1" d="M16.3,369.2c0.5,0,0.5-0.8,0-0.8C15.8,368.4,15.8,369.2,16.3,369.2L16.3,369.2z"/>
		<path class="st1" d="M44.2,461.7c0.4,0,0.4-0.7,0-0.7C43.8,461,43.8,461.7,44.2,461.7L44.2,461.7z"/>
		<path class="st1" d="M78.4,446.1c0.4,0,0.4-0.6,0-0.6C78,445.5,78,446.1,78.4,446.1L78.4,446.1z"/>
		<path class="st1" d="M94.1,438.8c0.7,0,0.7-1.1,0-1.1C93.4,437.6,93.4,438.8,94.1,438.8L94.1,438.8z"/>
		<path class="st1" d="M83.6,430.1c0.6,0,0.6-0.9,0-0.9C83,429.1,83,430.1,83.6,430.1L83.6,430.1z"/>
		<path class="st1" d="M62.3,396.2c0.5,0,0.5-0.8,0-0.8C61.7,395.4,61.7,396.2,62.3,396.2L62.3,396.2z"/>
		<path class="st2" d="M78.9,358.8c0.6,0,0.6-0.9,0-0.9C78.3,357.9,78.3,358.8,78.9,358.8L78.9,358.8z"/>
		<path class="st1" d="M137.2,385.6c0.5,0,0.5-0.7,0-0.7C136.7,384.9,136.7,385.6,137.2,385.6L137.2,385.6z"/>
		<path class="st2" d="M20.8,491.1c-0.7,0-0.7,1.1,0,1.1C21.5,492.2,21.5,491.1,20.8,491.1L20.8,491.1z"/>
		<path class="st1" d="M6.4,461.4c-0.4,0-0.4,0.7,0,0.7C6.9,462.1,6.9,461.4,6.4,461.4L6.4,461.4z"/>
		<path class="st1" d="M124,592.6c-0.5,0-0.5,0.8,0,0.8C124.6,593.4,124.6,592.6,124,592.6L124,592.6z"/>
		<path class="st1" d="M119.4,581.7c-0.7,0-0.7,1,0,1C120,582.7,120,581.7,119.4,581.7L119.4,581.7z"/>
		<path class="st1" d="M130.9,574.3c-0.7,0-0.7,1.1,0,1.1C131.6,575.4,131.6,574.3,130.9,574.3L130.9,574.3z"/>
		<path class="st2" d="M84.5,479.3c-0.6,0-0.6,0.9,0,0.9C85.1,480.2,85.1,479.3,84.5,479.3L84.5,479.3z"/>
		<path class="st1" d="M110.2,469.1c-0.6,0-0.6,0.9,0,0.9C110.7,470,110.7,469.1,110.2,469.1L110.2,469.1z"/>
		<path class="st1" d="M131.9,468.3c-0.6,0-0.6,0.9,0,0.9C132.5,469.2,132.5,468.3,131.9,468.3L131.9,468.3z"/>
		<path class="st1" d="M137.4,479.4c-0.4,0-0.5,0.7,0,0.7C137.8,480.1,137.8,479.4,137.4,479.4L137.4,479.4z"/>
		<path class="st1" d="M119.6,480.6c-0.5,0-0.5,0.8,0,0.8C120,481.4,120,480.6,119.6,480.6L119.6,480.6z"/>
		<path class="st1" d="M118.4,486.3c-0.5,0-0.5,0.8,0,0.8C118.9,487.1,118.9,486.3,118.4,486.3L118.4,486.3z"/>
		<path class="st2" d="M132.4,455.9c-0.8,0-0.8,1.2,0,1.2C133.2,457.1,133.2,455.9,132.4,455.9L132.4,455.9z"/>
		<path class="st1" d="M113.6,511.9c-0.6,0-0.6,0.9,0,0.9C114.2,512.8,114.2,511.9,113.6,511.9L113.6,511.9z"/>
		<path class="st1" d="M145.4,525.4c-0.6,0-0.7,1,0,1C146.1,526.4,146.1,525.4,145.4,525.4L145.4,525.4z"/>
		<path class="st1" d="M142.3,508.3c-0.7,0-0.7,1.1,0,1.1C142.9,509.4,143,508.3,142.3,508.3L142.3,508.3z"/>
		<path class="st2" d="M29.4,520c-0.5,0-0.5,0.8,0,0.8C29.9,520.7,29.9,520,29.4,520L29.4,520z"/>
		<path class="st2" d="M18.9,505.4c-0.5,0-0.5,0.8,0,0.8C19.4,506.2,19.4,505.4,18.9,505.4L18.9,505.4z"/>
		<path class="st2" d="M45.6,494.1c-0.4,0-0.4,0.6,0,0.6C46,494.7,46,494.1,45.6,494.1L45.6,494.1z"/>
		<path class="st1" d="M-16.5,639.4c-0.5,0-0.5,0.7,0,0.7C-16,640.2-16,639.4-16.5,639.4L-16.5,639.4z"/>
		<path class="st1" d="M132.9,618.8c-0.5,0-0.5,0.8,0,0.8C133.4,619.6,133.4,618.8,132.9,618.8L132.9,618.8z"/>
		<path class="st1" d="M152.1,586.6c-0.5,0-0.5,0.7,0,0.7C152.5,587.3,152.5,586.6,152.1,586.6L152.1,586.6z"/>
		<path class="st2" d="M74.9,601c-0.5,0-0.5,0.8,0,0.8C75.4,601.8,75.4,601,74.9,601L74.9,601z"/>
		<path class="st2" d="M32.8,568.2c-0.6,0-0.6,0.9,0,0.9C33.3,569,33.3,568.2,32.8,568.2L32.8,568.2z"/>
		<path class="st1" d="M-6.3,583.4c-0.5,0-0.5,0.8,0,0.8C-5.8,584.3-5.8,583.4-6.3,583.4L-6.3,583.4z"/>
		<path class="st1" d="M-8.1,555.5c-0.7,0-0.7,1,0,1C-7.5,556.6-7.5,555.5-8.1,555.5L-8.1,555.5z"/>
		<path class="st1" d="M88.8,717.6c-0.6,0-0.6,0.9,0,0.9C89.4,718.4,89.4,717.6,88.8,717.6L88.8,717.6z"/>
		<path class="st3" d="M110.8,736.8c-0.6,0-0.6,0.9,0,0.9C111.4,737.7,111.4,736.8,110.8,736.8L110.8,736.8z"/>
		<path class="st2" d="M116.9,729c-0.7,0-0.7,1,0,1C117.6,730,117.6,729,116.9,729L116.9,729z"/>
		<path class="st1" d="M118.3,824.9c-0.4,0-0.4,0.6,0,0.6C118.6,825.5,118.6,824.9,118.3,824.9L118.3,824.9z"/>
		<path class="st1" d="M34.2,811.8c-0.7,0-0.7,1.1,0,1.1C34.9,813,34.9,811.8,34.2,811.8L34.2,811.8z"/>
		<path class="st1" d="M24.2,662.9c-0.4,0-0.4,0.7,0,0.7C24.6,663.5,24.6,662.9,24.2,662.9L24.2,662.9z"/>
		<path class="st1" d="M12.9,670.5c-0.6,0-0.6,1,0,1C13.5,671.5,13.5,670.5,12.9,670.5L12.9,670.5z"/>
		<path class="st1" d="M4.6,673.9c-0.6,0-0.6,0.9,0,0.9C5.2,674.7,5.2,673.9,4.6,673.9L4.6,673.9z"/>
		<path class="st1" d="M137.8,626.9c-0.6,0-0.6,0.9,0,0.9C138.3,627.8,138.3,626.9,137.8,626.9L137.8,626.9z"/>
		<path class="st1" d="M139.8,643.8c-0.6,0-0.6,0.9,0,0.9C140.3,644.7,140.3,643.8,139.8,643.8L139.8,643.8z"/>
		<path class="st1" d="M154.2,649.6c-0.4,0-0.4,0.7,0,0.7C154.7,650.3,154.7,649.6,154.2,649.6L154.2,649.6z"/>
		<path class="st1" d="M153.6,630c-0.6,0-0.6,1,0,1C154.3,631,154.3,630,153.6,630L153.6,630z"/>
		<path class="st2" d="M121.1,677.5c0.5,0,0.5-0.8,0-0.8"/>
		<path class="st1" d="M91,564.3c-0.5,0-0.5,0.8,0,0.8C91.5,565.1,91.5,564.3,91,564.3L91,564.3z"/>
		<path class="st2" d="M51.1,583.1c-0.6,0-0.6,0.9,0,0.9C51.7,584,51.7,583.1,51.1,583.1L51.1,583.1z"/>
		<path class="st2" d="M57.3,594.2c-0.6,0-0.6,1,0,1C57.9,595.2,57.9,594.2,57.3,594.2L57.3,594.2z"/>
		<path class="st2" d="M47,592.1c-0.5,0-0.5,0.8,0,0.8C47.5,592.9,47.5,592.1,47,592.1L47,592.1z"/>
		<path class="st2" d="M39.5,588.9c-0.4,0-0.4,0.7,0,0.7C39.9,589.6,39.9,588.9,39.5,588.9L39.5,588.9z"/>
		<path class="st1" d="M24.2,600.7c-0.5,0-0.5,0.8,0,0.8C24.7,601.5,24.7,600.7,24.2,600.7L24.2,600.7z"/>
		<path class="st1" d="M25.9,618.7c-0.8,0-0.8,1.2,0,1.2C26.7,619.9,26.7,618.7,25.9,618.7L25.9,618.7z"/>
		<path class="st1" d="M44.5,617.7c-0.6,0-0.6,0.9,0,0.9C45.1,618.6,45.1,617.7,44.5,617.7L44.5,617.7z"/>
		<path class="st1" d="M69.4,626.5c-0.4,0-0.4,0.6,0,0.6C69.8,627.1,69.8,626.5,69.4,626.5L69.4,626.5z"/>
		<path class="st1" d="M55.2,654c-0.5,0-0.5,0.8,0,0.8C55.7,654.8,55.7,654,55.2,654L55.2,654z"/>
		<path class="st1" d="M26.6,451.9c-0.4,0-0.4,0.6,0,0.6C27,452.6,27,451.9,26.6,451.9L26.6,451.9z"/>
		<path class="st1" d="M26.9,439.3c-0.6,0-0.6,1,0,1C27.5,440.3,27.5,439.3,26.9,439.3L26.9,439.3z"/>
		<path class="st1" d="M7.1,437c-0.6,0-0.6,1,0,1C7.7,438,7.7,437,7.1,437L7.1,437z"/>
		<path class="st1" d="M84,663.1c-0.6,0-0.6,0.9,0,0.9C84.6,664,84.6,663.1,84,663.1L84,663.1z"/>
		<path class="st2" d="M144.4,688.9c-0.5,0-0.5,0.7,0,0.7C144.9,689.6,144.9,688.9,144.4,688.9L144.4,688.9z"/>
		<path class="st1" d="M146.3,754.5c-0.6,0-0.6,0.9,0,0.9C146.8,755.4,146.8,754.5,146.3,754.5L146.3,754.5z"/>
		<path class="st1" d="M119.6,762.4c-0.5,0-0.5,0.8,0,0.8C120.1,763.3,120.1,762.4,119.6,762.4L119.6,762.4z"/>
		<path class="st1" d="M124.1,773c-0.5,0-0.5,0.8,0,0.8C124.6,773.8,124.6,773,124.1,773L124.1,773z"/>
		<path class="st1" d="M-5.7,831.1c-0.7,0-0.7,1,0,1C-5,832.1-5,831.1-5.7,831.1L-5.7,831.1z"/>
		<path class="st1" d="M238.6,868.4c-0.8,0-0.8,1.2,0,1.2C239.4,869.7,239.4,868.4,238.6,868.4L238.6,868.4z"/>
		<path class="st1" d="M-7.2,745.9c-0.7,0-0.7,1,0,1C-6.6,746.9-6.6,745.9-7.2,745.9L-7.2,745.9z"/>
		<path class="st1" d="M22,761.2c-0.7,0-0.7,1.1,0,1.1C22.7,762.3,22.7,761.2,22,761.2L22,761.2z"/>
		<path class="st1" d="M90.6,855.9c-0.6,0-0.6,0.9,0,0.9C91.2,856.8,91.2,855.9,90.6,855.9L90.6,855.9z"/>
		<path class="st1" d="M22.1,738.1c-0.6,0-0.6,0.9,0,0.9C22.7,738.9,22.7,738.1,22.1,738.1L22.1,738.1z"/>
		<path class="st1" d="M10.3,738.7c-0.5,0-0.5,0.9,0,0.9C10.9,739.6,10.9,738.7,10.3,738.7L10.3,738.7z"/>
		<path class="st1" d="M49.3,690.7c-0.6,0-0.6,0.9,0,0.9C49.9,691.6,49.9,690.7,49.3,690.7L49.3,690.7z"/>
		<path class="st1" d="M90.9,689.5c-0.7,0-0.7,1.1,0,1.1C91.6,690.5,91.6,689.5,90.9,689.5L90.9,689.5z"/>
		<path class="st1" d="M62.6,672.2c-0.6,0-0.6,0.9,0,0.9C63.1,673.1,63.1,672.2,62.6,672.2L62.6,672.2z"/>
		<path class="st1" d="M26.9,678.2c-0.5,0-0.5,0.8,0,0.8C27.5,679,27.5,678.2,26.9,678.2L26.9,678.2z"/>
		<path class="st1" d="M9,780.2c-0.5,0-0.5,0.7,0,0.7C9.5,780.9,9.5,780.2,9,780.2L9,780.2z"/>
		<path class="st2" d="M33,596.1c-0.5,0-0.5,0.7,0,0.7C33.5,596.8,33.5,596.1,33,596.1L33,596.1z"/>
		<path class="st2" d="M37,597.4c-0.5,0-0.5,0.8,0,0.8C37.5,598.3,37.5,597.4,37,597.4L37,597.4z"/>
		<path class="st1" d="M33.9,570.9c-0.6,0-0.6,1,0,1C34.5,571.9,34.5,570.9,33.9,570.9L33.9,570.9z"/>
		<path class="st1" d="M75.8,516.4c-0.6,0-0.6,1,0,1C76.4,517.4,76.4,516.4,75.8,516.4L75.8,516.4z"/>
		<path class="st1" d="M107,525.2c-0.6,0-0.6,1,0,1C107.7,526.2,107.7,525.2,107,525.2L107,525.2z"/>
		<path class="st1" d="M96.2,529.2c-0.6,0-0.6,0.9,0,0.9C96.8,530.1,96.8,529.2,96.2,529.2L96.2,529.2z"/>
		<path class="st1" d="M106.9,527.4c-0.5,0-0.5,0.8,0,0.8C107.4,528.3,107.4,527.4,106.9,527.4L106.9,527.4z"/>
		<path class="st2" d="M116.7,514.4c-0.8,0-0.8,1.2,0,1.2C117.5,515.6,117.5,514.4,116.7,514.4L116.7,514.4z"/>
		<path class="st1" d="M91.4,506.5c-0.7,0-0.7,1.1,0,1.1C92.1,507.6,92.1,506.5,91.4,506.5L91.4,506.5z"/>
		<path class="st1" d="M114,577.1c-0.8,0-0.8,1.2,0,1.2C114.8,578.3,114.8,577.1,114,577.1L114,577.1z"/>
		<path class="st1" d="M7.1,599.2c-0.8,0-0.8,1.2,0,1.2C7.8,600.4,7.8,599.2,7.1,599.2L7.1,599.2z"/>
		<path class="st1" d="M36.8,548.4c-0.8,0-0.8,1.2,0,1.2C37.5,549.6,37.6,548.4,36.8,548.4L36.8,548.4z"/>
		<path class="st1" d="M-12.9,542.5c-0.8,0-0.8,1.2,0,1.2C-12.2,543.7-12.2,542.5-12.9,542.5L-12.9,542.5z"/>
		<path class="st1" d="M-15.7,535.3c-0.8,0-0.8,1.2,0,1.2C-14.9,536.5-14.9,535.3-15.7,535.3L-15.7,535.3z"/>
		<path class="st1" d="M115.7,592.2c-0.5,0-0.5,0.7,0,0.7C116.2,592.9,116.2,592.2,115.7,592.2L115.7,592.2z"/>
		<path class="st1" d="M120.5,579.8c0.4,0,0.4-0.6,0-0.6"/>
		<path class="st1" d="M144.8,602.1c-0.4,0-0.4,0.7,0,0.7C145.2,602.7,145.2,602.1,144.8,602.1L144.8,602.1z"/>
		<path class="st1" d="M152.3,595.3c-0.6,0-0.6,1,0,1C152.9,596.2,152.9,595.3,152.3,595.3L152.3,595.3z"/>
		<path class="st1" d="M147.2,643.7c-0.5,0-0.5,0.7,0,0.7C147.6,644.4,147.6,643.7,147.2,643.7L147.2,643.7z"/>
		<path class="st2" d="M134.1,715.6c-0.6,0-0.6,0.9,0,0.9C134.7,716.5,134.7,715.6,134.1,715.6L134.1,715.6z"/>
		<path class="st2" d="M57.9,473.8c-0.7,0-0.7,1,0,1C58.6,474.9,58.6,473.8,57.9,473.8L57.9,473.8z"/>
		<path class="st1" d="M61.3,430.2c-0.7,0-0.7,1.1,0,1.1C62,431.3,62,430.2,61.3,430.2L61.3,430.2z"/>
		<path class="st1" d="M-13.9,430c-0.5,0-0.5,0.8,0,0.8C-13.4,430.8-13.4,430-13.9,430L-13.9,430z"/>
		<path class="st1" d="M110.4,393.6c-0.5,0-0.5,0.8,0,0.8C110.9,394.4,110.9,393.6,110.4,393.6L110.4,393.6z"/>
		<path class="st2" d="M107.3,422.8c-0.5,0-0.5,0.7,0,0.7C107.8,423.5,107.8,422.8,107.3,422.8L107.3,422.8z"/>
		<path class="st1" d="M36.8,365.2c-0.6,0-0.6,0.9,0,0.9C37.4,366.1,37.4,365.2,36.8,365.2L36.8,365.2z"/>
		<path class="st1" d="M74.6,505.9c-0.5,0-0.5,0.7,0,0.7C75.1,506.6,75.1,505.9,74.6,505.9L74.6,505.9z"/>
		<path class="st2" d="M275.2,338c0.7,0,0.7-1.1,0-1.1C274.5,336.9,274.5,338,275.2,338L275.2,338z"/>
		<path class="st1" d="M301,362.7c0.4,0,0.4-0.7,0-0.7C300.6,362,300.6,362.7,301,362.7L301,362.7z"/>
		<path class="st1" d="M337.1,235.1c0.7,0,0.7-1,0-1C336.4,234.1,336.4,235.1,337.1,235.1L337.1,235.1z"/>
		<path class="st1" d="M186.6,235.1c0.5,0,0.5-0.8,0-0.8C186.1,234.3,186.1,235.1,186.6,235.1L186.6,235.1z"/>
		<path class="st1" d="M195.5,246.8c0.7,0,0.7-1,0-1C194.9,245.8,194.9,246.8,195.5,246.8L195.5,246.8z"/>
		<path class="st1" d="M185.7,245c0.7,0,0.7-1.1,0-1.1C184.9,243.9,184.9,245,185.7,245L185.7,245z"/>
		<path class="st2" d="M224.9,356c0.6,0,0.6-0.9,0-0.9C224.3,355,224.3,356,224.9,356L224.9,356z"/>
		<path class="st1" d="M194.3,357c0.6,0,0.6-0.9,0-0.9C193.7,356.1,193.7,357,194.3,357L194.3,357z"/>
		<path class="st1" d="M177.3,362.2c0.6,0,0.6-0.9,0-0.9C176.7,361.2,176.6,362.2,177.3,362.2L177.3,362.2z"/>
		<path class="st1" d="M176.4,348.3c0.4,0,0.5-0.7,0-0.7C176,347.6,176,348.3,176.4,348.3L176.4,348.3z"/>
		<path class="st1" d="M184.6,349.3c0.5,0,0.5-0.8,0-0.8C184.1,348.5,184.1,349.3,184.6,349.3L184.6,349.3z"/>
		<path class="st1" d="M188,339c0.5,0,0.5-0.8,0-0.8C187.5,338.1,187.5,339,188,339L188,339z"/>
		<path class="st2" d="M176.6,374c0.8,0,0.8-1.2,0-1.2C175.8,372.8,175.8,374,176.6,374L176.6,374z"/>
		<path class="st1" d="M198.9,321.6c0.6,0,0.6-0.9,0-0.9C198.3,320.7,198.3,321.6,198.9,321.6L198.9,321.6z"/>
		<path class="st1" d="M165.2,304.9c0.6,0,0.7-1,0-1C164.6,303.9,164.6,304.9,165.2,304.9L165.2,304.9z"/>
		<path class="st1" d="M163.3,312.3c0.7,0,0.7-1.1,0-1.1C162.6,311.3,162.6,312.3,163.3,312.3L163.3,312.3z"/>
		<path class="st2" d="M328,331.3c0.7,0,0.7-1.1,0-1.1C327.3,330.1,327.3,331.3,328,331.3L328,331.3z"/>
		<path class="st1" d="M328.8,337.3c0.5,0,0.5-0.8,0-0.8C328.3,336.5,328.3,337.3,328.8,337.3L328.8,337.3z"/>
		<path class="st1" d="M364.8,300.9c0.5,0,0.5-0.8,0-0.8C364.3,300.2,364.3,300.9,364.8,300.9L364.8,300.9z"/>
		<path class="st1" d="M375.1,327.2c0.5,0,0.5-0.8,0-0.8C374.6,326.4,374.6,327.2,375.1,327.2L375.1,327.2z"/>
		<path class="st2" d="M272.6,320.6c0.5,0,0.5-0.8,0-0.8C272.1,319.8,272.1,320.6,272.6,320.6L272.6,320.6z"/>
		<path class="st2" d="M291.2,321.8c0.5,0,0.5-0.8,0-0.8C290.7,321,290.7,321.8,291.2,321.8L291.2,321.8z"/>
		<path class="st1" d="M264.5,334.7c0.4,0,0.4-0.6,0-0.6C264.1,334.2,264.1,334.7,264.5,334.7L264.5,334.7z"/>
		<path class="st1" d="M349.7,402.4c0.6,0,0.6-0.9,0-0.9C349.2,401.4,349.2,402.4,349.7,402.4L349.7,402.4z"/>
		<path class="st1" d="M331,170.2c0.5,0,0.5-0.8,0-0.8C330.4,169.4,330.4,170.2,331,170.2L331,170.2z"/>
		<path class="st1" d="M322.2,185.2c0.5,0,0.5-0.7,0-0.7C321.7,184.4,321.7,185.2,322.2,185.2L322.2,185.2z"/>
		<path class="st1" d="M166.8,220.3c0.5,0,0.5-0.8,0-0.8C166.3,219.5,166.3,220.3,166.8,220.3L166.8,220.3z"/>
		<path class="st1" d="M155.6,250.3c0.5,0,0.5-0.7,0-0.7C155.2,249.6,155.2,250.3,155.6,250.3L155.6,250.3z"/>
		<path class="st2" d="M233.4,232.7c0.5,0,0.5-0.8,0-0.8C232.9,231.9,232.9,232.7,233.4,232.7L233.4,232.7z"/>
		<path class="st2" d="M275,264.2c0.6,0,0.6-0.9,0-0.9C274.4,263.3,274.4,264.2,275,264.2L275,264.2z"/>
		<path class="st1" d="M304.5,246.1c0.5,0,0.5-0.8,0-0.8C304,245.2,304,246.1,304.5,246.1L304.5,246.1z"/>
		<path class="st1" d="M313.2,263.2c0.7,0,0.7-1,0-1C312.6,262.2,312.6,263.2,313.2,263.2L313.2,263.2z"/>
		<path class="st1" d="M351.8,280.4c0.5,0,0.5-0.8,0-0.8C351.3,279.5,351.3,280.4,351.8,280.4L351.8,280.4z"/>
		<path class="st1" d="M398.9,256.2c0.5,0,0.5-0.8,0-0.8C398.4,255.4,398.4,256.2,398.9,256.2L398.9,256.2z"/>
		<path class="st1" d="M403.8,302.9c0.6,0,0.6-0.9,0-0.9C403.2,302,403.2,302.9,403.8,302.9L403.8,302.9z"/>
		<path class="st2" d="M388.3,171.7c0.5,0,0.5-0.8,0-0.8C387.8,170.9,387.8,171.7,388.3,171.7L388.3,171.7z"/>
		<path class="st1" d="M250.1,48.3c0.6,0,0.6-0.9,0-0.9C249.6,47.4,249.6,48.3,250.1,48.3L250.1,48.3z"/>
		<path class="st1" d="M206.3,113.8c0.6,0,0.6-0.9,0-0.9C205.7,112.9,205.7,113.8,206.3,113.8L206.3,113.8z"/>
		<path class="st1" d="M252.1,107.3c0.5,0,0.5-0.8,0-0.8C251.5,106.4,251.5,107.3,252.1,107.3L252.1,107.3z"/>
		<path class="st1" d="M263.2,120.6c0.5,0,0.5-0.8,0-0.8C262.6,119.7,262.6,120.6,263.2,120.6L263.2,120.6z"/>
		<path class="st1" d="M274.5,112.9c0.5,0,0.5-0.7,0-0.7C274.1,112.2,274.1,112.9,274.5,112.9L274.5,112.9z"/>
		<path class="st1" d="M294.6,109.7c0.5,0,0.5-0.8,0-0.8C294.1,108.9,294.1,109.7,294.6,109.7L294.6,109.7z"/>
		<path class="st1" d="M294.3,100.4c0.6,0,0.6-0.9,0-0.9C293.7,99.5,293.7,100.4,294.3,100.4L294.3,100.4z"/>
		<path class="st1" d="M279.4,95.1c0.4,0,0.4-0.6,0-0.6C279,94.5,279,95.1,279.4,95.1L279.4,95.1z"/>
		<path class="st1" d="M291.6,70.2c0.7,0,0.7-1,0-1C290.9,69.2,290.9,70.2,291.6,70.2L291.6,70.2z"/>
		<path class="st1" d="M244.1,74.8c0.5,0,0.5-0.7,0-0.7C243.6,74,243.6,74.8,244.1,74.8L244.1,74.8z"/>
		<path class="st2" d="M222.8,71.5c0.5,0,0.5-0.7,0-0.7C222.3,70.8,222.3,71.5,222.8,71.5L222.8,71.5z"/>
		<path class="st1" d="M207.4,83.4c0.6,0,0.6-0.9,0-0.9C206.8,82.5,206.8,83.4,207.4,83.4L207.4,83.4z"/>
		<path class="st3" d="M189,93.4c0.6,0,0.6-0.9,0-0.9C188.4,92.5,188.4,93.4,189,93.4L189,93.4z"/>
		<path class="st2" d="M185.1,98.2c0.7,0,0.7-1,0-1C184.4,97.1,184.4,98.2,185.1,98.2L185.1,98.2z"/>
		<path class="st2" d="M371,27.2c0.6,0,0.6-1,0-1C370.3,26.2,370.3,27.2,371,27.2L371,27.2z"/>
		<path class="st2" d="M360.6,39.1c0.5,0,0.5-0.8,0-0.8C360.1,38.3,360.1,39.1,360.6,39.1L360.6,39.1z"/>
		<path class="st1" d="M330.3,22.5c0.5,0,0.5-0.8,0-0.8C329.7,21.7,329.7,22.5,330.3,22.5L330.3,22.5z"/>
		<path class="st1" d="M367.8,83c0.6,0,0.6-0.9,0-0.9C367.2,82.1,367.2,83,367.8,83L367.8,83z"/>
		<path class="st1" d="M183.4,11.8c0.4,0,0.4-0.6,0-0.6C183,11.2,183,11.8,183.4,11.8L183.4,11.8z"/>
		<path class="st1" d="M180.7,27.3c0.7,0,0.7-1.1,0-1.1C179.9,26.2,179.9,27.3,180.7,27.3L180.7,27.3z"/>
		<path class="st1" d="M209.4,13.6c0.6,0,0.6-0.9,0-0.9C208.8,12.6,208.8,13.6,209.4,13.6L209.4,13.6z"/>
		<path class="st1" d="M222.4,24.4c0.4,0,0.4-0.7,0-0.7C222,23.8,222,24.4,222.4,24.4L222.4,24.4z"/>
		<path class="st1" d="M234.4,26.8c0.7,0,0.7-1,0-1C233.7,25.7,233.7,26.8,234.4,26.8L234.4,26.8z"/>
		<path class="st1" d="M258.6,12.3c0.7,0,0.7-1.1,0-1.1C257.9,11.2,257.9,12.3,258.6,12.3L258.6,12.3z"/>
		<path class="st1" d="M305.9,41.7c0.4,0,0.4-0.6,0-0.6C305.5,41.1,305.5,41.7,305.9,41.7L305.9,41.7z"/>
		<path class="st2" d="M337.4,72.5c0.6,0,0.6-0.9,0-0.9C336.8,71.6,336.8,72.5,337.4,72.5L337.4,72.5z"/>
		<path class="st1" d="M328.4,82c0.7,0,0.7-1.1,0-1.1C327.7,80.9,327.7,82,328.4,82L328.4,82z"/>
		<path class="st1" d="M360.1,12.4c0.6,0,0.6-0.9,0-0.9C359.5,11.5,359.5,12.4,360.1,12.4L360.1,12.4z"/>
		<path class="st1" d="M348.1,1.2c0.6,0,0.6-0.9,0-0.9C347.5,0.3,347.5,1.2,348.1,1.2L348.1,1.2z"/>
		<path class="st1" d="M350.6,11.8c0.6,0,0.6-0.9,0-0.9C350,10.9,350,11.8,350.6,11.8L350.6,11.8z"/>
		<path class="st1" d="M286.3,166.6c0.4,0,0.4-0.7,0-0.7C285.9,165.9,285.9,166.6,286.3,166.6L286.3,166.6z"/>
		<path class="st1" d="M291.5,153.2c0.6,0,0.6-1,0-1C290.9,152.2,290.9,153.2,291.5,153.2L291.5,153.2z"/>
		<path class="st1" d="M304.8,163.8c0.6,0,0.6-0.9,0-0.9C304.2,162.9,304.2,163.8,304.8,163.8L304.8,163.8z"/>
		<path class="st1" d="M347,152.1c0.4,0,0.4-0.7,0-0.7C346.5,151.4,346.5,152.1,347,152.1L347,152.1z"/>
		<path class="st1" d="M376.6,123.4c0.6,0,0.6-0.9,0-0.9C376,122.5,376,123.4,376.6,123.4L376.6,123.4z"/>
		<path class="st2" d="M402.7,135.3c0.6,0,0.6-0.9,0-0.9C402.1,134.5,402.1,135.3,402.7,135.3L402.7,135.3z"/>
		<path class="st2" d="M403.1,148.6c0.4,0,0.4-0.7,0-0.7C402.6,147.9,402.6,148.6,403.1,148.6L403.1,148.6z"/>
		<path class="st1" d="M202.7,204.9c0.6,0,0.6-0.9,0-0.9C202.1,204,202.1,204.9,202.7,204.9L202.7,204.9z"/>
		<path class="st1" d="M202.9,178.7c0.6,0,0.6-0.9,0-0.9C202.4,177.8,202.4,178.7,202.9,178.7L202.9,178.7z"/>
		<path class="st1" d="M152.7,178.6c0.4,0,0.4-0.7,0-0.7C152.3,177.9,152.2,178.6,152.7,178.6L152.7,178.6z"/>
		<path class="st1" d="M147.6,197.4c0.6,0,0.6-1,0-1C147,196.5,147,197.4,147.6,197.4L147.6,197.4z"/>
		<path class="st2" d="M191.1,144.8c0.5,0,0.5-0.8,0-0.8C190.6,144,190.6,144.8,191.1,144.8L191.1,144.8z"/>
		<path class="st1" d="M218.6,258c0.5,0,0.5-0.8,0-0.8C218.1,257.2,218.1,258,218.6,258L218.6,258z"/>
		<path class="st2" d="M253.2,249.3c0.6,0,0.6-0.9,0-0.9C252.6,248.4,252.6,249.3,253.2,249.3L253.2,249.3z"/>
		<path class="st2" d="M254.4,229.1c0.6,0,0.6-1,0-1C253.7,228.1,253.7,229.1,254.4,229.1L254.4,229.1z"/>
		<path class="st2" d="M260.1,225.7c0.5,0,0.5-0.8,0-0.8C259.6,224.9,259.6,225.7,260.1,225.7L260.1,225.7z"/>
		<path class="st2" d="M262.4,237.2c0.4,0,0.4-0.7,0-0.7C261.9,236.5,261.9,237.2,262.4,237.2L262.4,237.2z"/>
		<path class="st1" d="M275.7,229.1c0.5,0,0.5-0.8,0-0.8C275.2,228.3,275.2,229.1,275.7,229.1L275.7,229.1z"/>
		<path class="st1" d="M277.5,212.5c0.8,0,0.8-1.2,0-1.2C276.7,211.2,276.7,212.5,277.5,212.5L277.5,212.5z"/>
		<path class="st1" d="M255.9,215.6c0.6,0,0.6-0.9,0-0.9C255.3,214.7,255.3,215.6,255.9,215.6L255.9,215.6z"/>
		<path class="st1" d="M233.8,205.5c0.4,0,0.4-0.6,0-0.6C233.4,204.9,233.4,205.5,233.8,205.5L233.8,205.5z"/>
		<path class="st1" d="M253.6,171.6c0.5,0,0.5-0.8,0-0.8C253.2,170.9,253.2,171.6,253.6,171.6L253.6,171.6z"/>
		<path class="st1" d="M350.5,211.4c0.6,0,0.6-1,0-1C349.8,210.4,349.8,211.4,350.5,211.4L350.5,211.4z"/>
		<path class="st2" d="M370.9,202.9c0.5,0,0.5-0.7,0-0.7C370.4,202.1,370.4,202.9,370.9,202.9L370.9,202.9z"/>
		<path class="st1" d="M382.4,216.5c0.6,0,0.6-0.9,0-0.9C381.8,215.6,381.8,216.5,382.4,216.5L382.4,216.5z"/>
		<path class="st1" d="M358.6,225.1c0.7,0,0.7-1.1,0-1.1C357.9,224,357.9,225.1,358.6,225.1L358.6,225.1z"/>
		<path class="st1" d="M369.3,238.4c0.5,0,0.5-0.8,0-0.8C368.8,237.6,368.8,238.4,369.3,238.4L369.3,238.4z"/>
		<path class="st1" d="M399.3,267.4c0.4,0,0.4-0.5,0-0.5C398.9,266.8,398.9,267.4,399.3,267.4L399.3,267.4z"/>
		<path class="st1" d="M384.8,239.2c0.5,0,0.5-0.8,0-0.8C384.3,238.5,384.3,239.2,384.8,239.2L384.8,239.2z"/>
		<path class="st1" d="M270.8,368.2c0.4,0,0.4-0.6,0-0.6C270.4,367.5,270.4,368.2,270.8,368.2L270.8,368.2z"/>
		<path class="st1" d="M279.4,384.1c0.6,0,0.6-1,0-1C278.7,383.1,278.7,384.1,279.4,384.1L279.4,384.1z"/>
		<path class="st1" d="M291.9,397.8c0.6,0,0.6-1,0-1C291.2,396.8,291.2,397.8,291.9,397.8L291.9,397.8z"/>
		<path class="st1" d="M217.5,165.8c0.6,0,0.6-0.9,0-0.9C216.9,164.8,216.9,165.8,217.5,165.8L217.5,165.8z"/>
		<path class="st2" d="M164.4,131.9c0.5,0,0.5-0.7,0-0.7C164,131.2,164,131.9,164.4,131.9L164.4,131.9z"/>
		<path class="st1" d="M158.3,76.8c0.6,0,0.6-0.9,0-0.9C157.7,75.9,157.7,76.8,158.3,76.8L158.3,76.8z"/>
		<path class="st1" d="M181.5,72.8c0.5,0,0.5-0.8,0-0.8C181,72,181,72.8,181.5,72.8L181.5,72.8z"/>
		<path class="st1" d="M184.8,53.1c0.5,0,0.5-0.8,0-0.8C184.2,52.3,184.2,53.1,184.8,53.1L184.8,53.1z"/>
		<path class="st1" d="M167.9,53.8c0.7,0,0.7-1,0-1C167.2,52.8,167.2,53.8,167.9,53.8L167.9,53.8z"/>
		<path class="st1" d="M157.2,35.2c0.8,0,0.8-1.2,0-1.2C156.5,34,156.5,35.2,157.2,35.2L157.2,35.2z"/>
		<path class="st2" d="M215.2,51.7c0.5,0,0.5-0.7,0-0.7C214.7,51,214.7,51.7,215.2,51.7L215.2,51.7z"/>
		<path class="st2" d="M159.8,105.9c0.7,0,0.7-1.1,0-1.1C159.1,104.8,159.1,105.9,159.8,105.9L159.8,105.9z"/>
		<path class="st1" d="M286.9,2.3c0.6,0,0.6-1,0-1C286.2,1.4,286.2,2.3,286.9,2.3L286.9,2.3z"/>
		<path class="st1" d="M273.4,30.2c0.5,0,0.5-0.8,0-0.8C272.9,29.5,272.9,30.2,273.4,30.2L273.4,30.2z"/>
		<path class="st1" d="M300.8,20.1c0.6,0,0.6-0.9,0-0.9C300.2,19.2,300.2,20.1,300.8,20.1L300.8,20.1z"/>
		<path class="st1" d="M299,3.4c0.5,0,0.5-0.8,0-0.8C298.5,2.6,298.5,3.4,299,3.4L299,3.4z"/>
		<path class="st1" d="M312.2,3c0.4,0,0.4-0.7,0-0.7C311.8,2.3,311.8,3,312.2,3L312.2,3z"/>
		<path class="st1" d="M399.7,39.9c0.4,0,0.4-0.6,0-0.6C399.4,39.3,399.4,39.9,399.7,39.9L399.7,39.9z"/>
		<path class="st1" d="M399,69.1c0.7,0,0.7-1.1,0-1.1C398.3,68,398.3,69.1,399,69.1L399,69.1z"/>
		<path class="st1" d="M388.3,78.8c0.6,0,0.6-0.9,0-0.9C387.7,77.9,387.7,78.8,388.3,78.8L388.3,78.8z"/>
		<path class="st1" d="M386.6,90.8c0.6,0,0.6-0.9,0-0.9C386,89.9,386,90.8,386.6,90.8L386.6,90.8z"/>
		<path class="st1" d="M402.6,84.7c0.5,0,0.5-0.9,0-0.9C402,83.8,402,84.7,402.6,84.7L402.6,84.7z"/>
		<path class="st1" d="M317.4,112.1c0.6,0,0.6-1,0-1C316.8,111.2,316.8,112.1,317.4,112.1L317.4,112.1z"/>
		<path class="st1" d="M333.3,64.4c0.5,0,0.5-0.8,0-0.8C332.7,63.6,332.7,64.4,333.3,64.4L333.3,64.4z"/>
		<path class="st1" d="M379.7,23.7c0.6,0,0.6-0.9,0-0.9C379.1,22.8,379.1,23.7,379.7,23.7L379.7,23.7z"/>
		<path class="st1" d="M252.7,134.5c0.6,0,0.6-0.9,0-0.9C252.1,133.6,252.1,134.5,252.7,134.5L252.7,134.5z"/>
		<path class="st1" d="M220.7,135.1c0.7,0,0.7-1.1,0-1.1C220.1,134.1,220.1,135.1,220.7,135.1L220.7,135.1z"/>
		<path class="st1" d="M242.2,154c0.6,0,0.6-0.9,0-0.9C241.6,153.1,241.6,154,242.2,154L242.2,154z"/>
		<path class="st1" d="M282.5,155.7c0.5,0,0.5-0.8,0-0.8C282,154.9,282,155.7,282.5,155.7L282.5,155.7z"/>
		<path class="st1" d="M318.9,126.8c0.4,0,0.4-0.6,0-0.6C318.5,126.2,318.5,126.8,318.9,126.8L318.9,126.8z"/>
		<path class="st1" d="M336.9,134.3c0.5,0,0.5-0.7,0-0.7C336.5,133.6,336.5,134.3,336.9,134.3L336.9,134.3z"/>
		<path class="st1" d="M299.8,102.9c0.4,0,0.4-0.7,0-0.7C299.4,102.3,299.4,102.9,299.8,102.9L299.8,102.9z"/>
		<path class="st1" d="M335.9,116.7c0.6,0,0.6-0.9,0-0.9C335.3,115.9,335.3,116.7,335.9,116.7L335.9,116.7z"/>
		<path class="st1" d="M333.3,101.7c0.5,0,0.5-0.8,0-0.8C332.7,100.9,332.7,101.7,333.3,101.7L333.3,101.7z"/>
		<path class="st2" d="M390.6,151.2c0.4,0,0.4-0.7,0-0.7C390.1,150.6,390.1,151.2,390.6,151.2L390.6,151.2z"/>
		<path class="st1" d="M360.7,189.8c0.5,0,0.5-0.7,0-0.7C360.3,189,360.3,189.8,360.7,189.8L360.7,189.8z"/>
		<path class="st1" d="M355.2,187.8c0.4,0,0.4-0.7,0-0.7C354.8,187.1,354.8,187.8,355.2,187.8L355.2,187.8z"/>
		<path class="st2" d="M267.7,229.5c0.5,0,0.5-0.7,0-0.7C267.2,228.7,267.2,229.5,267.7,229.5L267.7,229.5z"/>
		<path class="st2" d="M272.2,237.3c0.5,0,0.5-0.8,0-0.8C271.7,236.4,271.6,237.3,272.2,237.3L272.2,237.3z"/>
		<path class="st1" d="M265,259.3c0.6,0,0.6-1,0-1C264.3,258.3,264.3,259.3,265,259.3L265,259.3z"/>
		<path class="st1" d="M236.3,307c0.6,0,0.6-1,0-1C235.6,306,235.6,307,236.3,307L236.3,307z"/>
		<path class="st1" d="M207.5,303.9c0.6,0,0.6-1,0-1C206.9,302.9,206.9,303.9,207.5,303.9L207.5,303.9z"/>
		<path class="st1" d="M203.5,304.1c0.6,0,0.6-0.9,0-0.9C203,303.2,203,304.1,203.5,304.1L203.5,304.1z"/>
		<path class="st1" d="M191.2,301.7c0.5,0,0.5-0.8,0-0.8C190.7,300.9,190.7,301.7,191.2,301.7L191.2,301.7z"/>
		<path class="st2" d="M191.1,312.5c0.8,0,0.8-1.2,0-1.2C190.3,311.3,190.3,312.5,191.1,312.5L191.1,312.5z"/>
		<path class="st1" d="M217.2,324c0.7,0,0.7-1.1,0-1.1C216.4,322.9,216.4,324,217.2,324L217.2,324z"/>
		<path class="st1" d="M190.4,242.1c0.8,0,0.8-1.2,0-1.2C189.6,240.9,189.6,242.1,190.4,242.1L190.4,242.1z"/>
		<path class="st1" d="M389.5,253.2c0.8,0,0.8-1.2,0-1.2C388.7,252,388.7,253.2,389.5,253.2L389.5,253.2z"/>
		<path class="st1" d="M393,263.2c0.8,0,0.8-1.2,0-1.2C392.2,262,392.2,263.2,393,263.2L393,263.2z"/>
		<path class="st1" d="M301.8,225c0.8,0,0.8-1.2,0-1.2C301.1,223.8,301.1,225,301.8,225L301.8,225z"/>
		<path class="st1" d="M272.2,284.1c0.8,0,0.8-1.2,0-1.2C271.4,282.9,271.4,284.1,272.2,284.1L272.2,284.1z"/>
		<path class="st1" d="M327.7,286.4c0.8,0,0.8-1.2,0-1.2C327,285.2,326.9,286.4,327.7,286.4L327.7,286.4z"/>
		<path class="st1" d="M319.7,286.5c0.8,0,0.8-1.2,0-1.2C318.9,285.3,318.9,286.5,319.7,286.5L319.7,286.5z"/>
		<path class="st1" d="M274.3,64.4c0.8,0,0.8-1.2,0-1.2C273.6,63.2,273.6,64.4,274.3,64.4L274.3,64.4z"/>
		<path class="st1" d="M372.9,43c0.8,0,0.8-1.2,0-1.2C372.1,41.8,372.1,43,372.9,43L372.9,43z"/>
		<path class="st1" d="M345.4,299.5c0.8,0,0.8-1.2,0-1.2C344.6,298.3,344.6,299.5,345.4,299.5L345.4,299.5z"/>
		<path class="st1" d="M192.6,237.3c0.5,0,0.5-0.7,0-0.7C192.1,236.6,192.1,237.3,192.6,237.3L192.6,237.3z"/>
		<path class="st1" d="M187.9,248.1c0.4,0,0.4-0.6,0-0.6C187.5,247.5,187.5,248.1,187.9,248.1L187.9,248.1z"/>
		<path class="st1" d="M158.6,221.9c0.4,0,0.4-0.7,0-0.7C158.2,221.3,158.2,221.9,158.6,221.9L158.6,221.9z"/>
		<path class="st1" d="M150.6,225.4c0.6,0,0.6-1,0-1C150,224.5,150,225.4,150.6,225.4L150.6,225.4z"/>
		<path class="st1" d="M157.5,195.1c0.5,0,0.5-0.7,0-0.7C157,194.4,157,195.1,157.5,195.1L157.5,195.1z"/>
		<path class="st2" d="M173.6,114.4c0.6,0,0.6-0.9,0-0.9C173,113.5,173,114.4,173.6,114.4L173.6,114.4z"/>
		<path class="st1" d="M351,4.3c0.5,0,0.5-0.8,0-0.8C350.5,3.5,350.5,4.3,351,4.3L351,4.3z"/>
		<path class="st2" d="M400,139.9c0.4,0,0.4-0.6,0-0.6C399.6,139.2,399.6,139.9,400,139.9L400,139.9z"/>
		<path class="st1" d="M376.8,132.1c0.6,0,0.6-1,0-1C376.1,131.2,376.1,132.1,376.8,132.1L376.8,132.1z"/>
		<path class="st2" d="M241.6,359.5c0.7,0,0.7-1,0-1C240.9,358.4,240.9,359.5,241.6,359.5L241.6,359.5z"/>
		<path class="st1" d="M239.5,397c0.7,0,0.7-1.1,0-1.1C238.8,396,238.8,397,239.5,397L239.5,397z"/>
		<path class="st1" d="M314.3,399.6c0.5,0,0.5-0.8,0-0.8C313.8,398.9,313.8,399.6,314.3,399.6L314.3,399.6z"/>
		<path class="st1" d="M329.5,372.4c0.5,0,0.5-0.8,0-0.8C329,371.6,329,372.4,329.5,372.4L329.5,372.4z"/>
		<path class="st1" d="M366.2,461.8c0.4,0,0.4-0.7,0-0.7C365.7,461.1,365.7,461.8,366.2,461.8L366.2,461.8z"/>
		<path class="st1" d="M396.6,444.7c0.4,0,0.4-0.6,0-0.6C396.2,444,396.2,444.7,396.6,444.7L396.6,444.7z"/>
		<path class="st1" d="M377.4,391.4c0.5,0,0.5-0.8,0-0.8C376.9,390.6,376.9,391.4,377.4,391.4L377.4,391.4z"/>
		<path class="st2" d="M392.5,361c0.6,0,0.6-0.9,0-0.9C392,360.1,392,361,392.5,361L392.5,361z"/>
		<path class="st1" d="M194.9,434.7c0.5,0,0.5-0.8,0-0.8C194.4,433.9,194.4,434.7,194.9,434.7L194.9,434.7z"/>
		<path class="st2" d="M201.7,406.5c0.5,0,0.5-0.7,0-0.7C201.3,405.8,201.3,406.5,201.7,406.5L201.7,406.5z"/>
		<path class="st1" d="M267,457.5c0.6,0,0.6-0.9,0-0.9C266.4,456.6,266.4,457.5,267,457.5L267,457.5z"/>
		<path class="st1" d="M228.4,483.8c0.5,0,0.5-0.7,0-0.7C227.9,483.1,227.9,483.8,228.4,483.8L228.4,483.8z"/>
		<path class="st2" d="M340.5,486.4c-0.7,0-0.7,1.1,0,1.1C341.2,487.5,341.2,486.4,340.5,486.4L340.5,486.4z"/>
		<path class="st1" d="M327.8,466.7c-0.4,0-0.4,0.7,0,0.7C328.3,467.4,328.3,466.7,327.8,466.7L327.8,466.7z"/>
		<path class="st1" d="M280.7,594.5c-0.7,0-0.7,1,0,1C281.4,595.6,281.4,594.5,280.7,594.5L280.7,594.5z"/>
		<path class="st2" d="M399.5,478.4c-0.6,0-0.6,0.9,0,0.9C400.1,479.3,400.1,478.4,399.5,478.4L399.5,478.4z"/>
		<path class="st2" d="M294.9,494.9c-0.7,0-0.7,1.1,0,1.1C295.7,496,295.7,494.9,294.9,494.9L294.9,494.9z"/>
		<path class="st1" d="M295,495.5c-0.5,0-0.5,0.8,0,0.8C295.5,496.3,295.5,495.5,295,495.5L295,495.5z"/>
		<path class="st1" d="M266.6,532.4c-0.5,0-0.5,0.8,0,0.8C267.1,533.1,267.1,532.4,266.6,532.4L266.6,532.4z"/>
		<path class="st1" d="M249.4,502.1c-0.5,0-0.5,0.8,0,0.8C249.9,502.8,249.9,502.1,249.4,502.1L249.4,502.1z"/>
		<path class="st2" d="M353.3,516.4c-0.5,0-0.5,0.8,0,0.8C353.8,517.2,353.8,516.4,353.3,516.4L353.3,516.4z"/>
		<path class="st2" d="M340.7,508.1c-0.5,0-0.5,0.8,0,0.8C341.2,508.9,341.2,508.1,340.7,508.1L340.7,508.1z"/>
		<path class="st2" d="M358,498.1c-0.4,0-0.4,0.6,0,0.6C358.4,498.7,358.4,498.1,358,498.1L358,498.1z"/>
		<path class="st1" d="M274.1,430c-0.6,0-0.6,0.9,0,0.9C274.7,430.9,274.7,430,274.1,430L274.1,430z"/>
		<path class="st1" d="M291.8,653.6c-0.5,0-0.5,0.8,0,0.8C292.3,654.5,292.3,653.6,291.8,653.6L291.8,653.6z"/>
		<path class="st1" d="M305.6,645.6c-0.5,0-0.5,0.7,0,0.7C306.1,646.3,306.1,645.6,305.6,645.6L305.6,645.6z"/>
		<path class="st1" d="M169.1,797.7c-0.6,0-0.6,0.9,0,0.9C169.7,798.5,169.7,797.7,169.1,797.7L169.1,797.7z"/>
		<path class="st1" d="M190.7,799.6c-0.6,0-0.6,0.9,0,0.9C191.3,800.5,191.4,799.6,190.7,799.6L190.7,799.6z"/>
		<path class="st1" d="M205.8,789.4c-0.7,0-0.7,1.1,0,1.1C206.5,790.5,206.5,789.4,205.8,789.4L205.8,789.4z"/>
		<path class="st2" d="M389.2,594.1c-0.5,0-0.5,0.8,0,0.8C389.7,594.9,389.7,594.1,389.2,594.1L389.2,594.1z"/>
		<path class="st2" d="M353.5,564.7c-0.6,0-0.6,0.9,0,0.9C354.1,565.6,354.1,564.7,353.5,564.7L353.5,564.7z"/>
		<path class="st1" d="M319.3,585.9c-0.5,0-0.5,0.8,0,0.8C319.9,586.7,319.9,585.9,319.3,585.9L319.3,585.9z"/>
		<path class="st1" d="M311.1,563.5c-0.7,0-0.7,1,0,1C311.7,564.5,311.7,563.5,311.1,563.5L311.1,563.5z"/>
		<path class="st1" d="M271.6,547.4c-0.5,0-0.5,0.8,0,0.8C272.1,548.2,272.1,547.4,271.6,547.4L271.6,547.4z"/>
		<path class="st1" d="M179.8,573.1c-0.7,0-0.7,1,0,1C180.5,574.2,180.5,573.1,179.8,573.1L179.8,573.1z"/>
		<path class="st1" d="M171.7,589c-0.5,0-0.5,0.8,0,0.8C172.3,589.8,172.3,589,171.7,589L171.7,589z"/>
		<path class="st1" d="M193.2,593.6c-0.5,0-0.5,0.8,0,0.8C193.7,594.5,193.7,593.6,193.2,593.6L193.2,593.6z"/>
		<path class="st1" d="M196.6,574.1c-0.5,0-0.5,0.8,0,0.8C197.1,574.9,197.1,574.1,196.6,574.1L196.6,574.1z"/>
		<path class="st1" d="M220.2,529.5c-0.6,0-0.6,0.9,0,0.9C220.8,530.4,220.8,529.5,220.2,529.5L220.2,529.5z"/>
		<path class="st1" d="M176.2,514.4c-0.6,0-0.6,1,0,1C176.8,515.4,176.8,514.4,176.2,514.4L176.2,514.4z"/>
		<path class="st1" d="M211.3,461.7c-0.5,0-0.5,0.8,0,0.8C211.8,462.5,211.8,461.7,211.3,461.7L211.3,461.7z"/>
		<path class="st2" d="M229.4,660.3c-0.5,0-0.5,0.8,0,0.8C229.9,661.1,229.9,660.3,229.4,660.3L229.4,660.3z"/>
		<path class="st1" d="M202,709.2c-0.6,0-0.6,0.9,0,0.9C202.6,710.1,202.6,709.2,202,709.2L202,709.2z"/>
		<path class="st1" d="M368.9,719.1c-0.5,0-0.5,0.8,0,0.8C369.5,719.9,369.5,719.1,368.9,719.1L368.9,719.1z"/>
		<path class="st1" d="M365.6,707.7c-0.5,0-0.5,0.8,0,0.8C366.1,708.6,366.1,707.7,365.6,707.7L365.6,707.7z"/>
		<path class="st1" d="M345.1,715c-0.5,0-0.5,0.7,0,0.7C345.6,715.7,345.6,715,345.1,715L345.1,715z"/>
		<path class="st1" d="M326.5,717.6c-0.5,0-0.5,0.8,0,0.8C327,718.4,327,717.6,326.5,717.6L326.5,717.6z"/>
		<path class="st2" d="M384.9,773.7c-0.7,0-0.7,1,0,1C385.5,774.7,385.5,773.7,384.9,773.7L384.9,773.7z"/>
		<path class="st1" d="M175.8,756.7c-0.6,0-0.6,0.9,0,0.9C176.4,757.6,176.4,756.7,175.8,756.7L175.8,756.7z"/>
		<path class="st2" d="M261.9,786.6c-0.5,0-0.5,0.8,0,0.8C262.5,787.4,262.5,786.6,261.9,786.6L261.9,786.6z"/>
		<path class="st1" d="M257.2,746.6c-0.6,0-0.6,0.9,0,0.9C257.8,747.5,257.8,746.6,257.2,746.6L257.2,746.6z"/>
		<path class="st1" d="M326.2,783.1c-0.4,0-0.4,0.6,0,0.6C326.6,783.7,326.6,783.1,326.2,783.1L326.2,783.1z"/>
		<path class="st2" d="M285.1,751c-0.6,0-0.6,0.9,0,0.9C285.6,751.9,285.6,751,285.1,751L285.1,751z"/>
		<path class="st1" d="M294.6,738.1c-0.7,0-0.7,1.1,0,1.1C295.3,739.2,295.3,738.1,294.6,738.1L294.6,738.1z"/>
		<path class="st2" d="M191,820.8c-0.5,0-0.5,0.7,0,0.7C191.5,821.5,191.5,820.8,191,820.8L191,820.8z"/>
		<path class="st2" d="M208.4,856.3c-0.5,0-0.5,0.7,0,0.7C208.9,857,208.9,856.3,208.4,856.3L208.4,856.3z"/>
		<path class="st2" d="M369.5,824.2c-0.5,0-0.5,0.7,0,0.7C370,824.9,370,824.2,369.5,824.2L369.5,824.2z"/>
		<path class="st2" d="M74.1,863.8c-0.5,0-0.5,0.7,0,0.7C74.6,864.5,74.6,863.8,74.1,863.8L74.1,863.8z"/>
		<path class="st2" d="M71.2,740.1c-0.5,0-0.5,0.7,0,0.7C71.7,740.8,71.7,740.1,71.2,740.1L71.2,740.1z"/>
		<path class="st1" d="M151.7,814.9c-0.8,0-0.8,1.2,0,1.2C152.4,816,152.4,814.9,151.7,814.9L151.7,814.9z"/>
		<path class="st1" d="M147.8,863.5c-0.8,0-0.8,1.2,0,1.2C148.5,864.7,148.5,863.5,147.8,863.5L147.8,863.5z"/>
		<path class="st1" d="M243.3,827.7c-0.8,0-0.8,1.2,0,1.2C244.1,828.9,244.1,827.7,243.3,827.7L243.3,827.7z"/>
		<path class="st1" d="M162.4,820.6c-0.5,0-0.5,0.8,0,0.8C162.9,821.4,162.9,820.6,162.4,820.6L162.4,820.6z"/>
		<path class="st1" d="M152.7,678.4c-0.5,0-0.5,0.8,0,0.8C153.2,679.2,153.2,678.4,152.7,678.4L152.7,678.4z"/>
		<path class="st1" d="M166.1,651.7c-0.7,0-0.7,1.1,0,1.1C166.8,652.8,166.8,651.7,166.1,651.7L166.1,651.7z"/>
		<path class="st1" d="M168.6,638.9c-0.6,0-0.6,0.9,0,0.9C169.2,639.8,169.2,638.9,168.6,638.9L168.6,638.9z"/>
		<path class="st1" d="M339.2,657.5c-0.4,0-0.4,0.7,0,0.7C339.7,658.2,339.7,657.5,339.2,657.5L339.2,657.5z"/>
		<path class="st1" d="M337.4,675.6c-0.6,0-0.6,1,0,1C338,676.5,338,675.6,337.4,675.6L337.4,675.6z"/>
		<path class="st1" d="M322.9,665.5c-0.6,0-0.6,0.9,0,0.9C323.5,666.3,323.5,665.5,322.9,665.5L322.9,665.5z"/>
		<path class="st1" d="M274.8,669.8c-0.4,0-0.4,0.7,0,0.7C275.2,670.5,275.2,669.8,274.8,669.8L274.8,669.8z"/>
		<path class="st1" d="M250.6,703c-0.6,0-0.6,0.9,0,0.9C251.2,703.9,251.2,703,250.6,703L250.6,703z"/>
		<path class="st2" d="M215.4,687.5c-0.6,0-0.6,0.9,0,0.9C216,688.4,216,687.5,215.4,687.5L215.4,687.5z"/>
		<path class="st2" d="M226.9,677c-0.4,0-0.4,0.7,0,0.7C227.4,677.7,227.4,677,226.9,677L226.9,677z"/>
		<path class="st2" d="M197.6,672.6c-0.6,0-0.6,1,0,1C198.2,673.6,198.2,672.6,197.6,672.6L197.6,672.6z"/>
		<path class="st1" d="M176.2,667.1c-0.5,0-0.5,0.7,0,0.7C176.7,667.8,176.7,667.1,176.2,667.1L176.2,667.1z"/>
		<path class="st1" d="M399.2,565.7c-0.5,0-0.5,0.8,0,0.8C399.7,566.5,399.7,565.7,399.2,565.7L399.2,565.7z"/>
		<path class="st2" d="M368.7,583.8c-0.6,0-0.6,0.9,0,0.9C369.3,584.8,369.3,583.8,368.7,583.8L368.7,583.8z"/>
		<path class="st2" d="M369.9,593.9c-0.6,0-0.6,1,0,1C370.5,594.9,370.5,593.9,369.9,593.9L369.9,593.9z"/>
		<path class="st2" d="M362.8,591.7c-0.5,0-0.5,0.8,0,0.8C363.3,592.5,363.3,591.7,362.8,591.7L362.8,591.7z"/>
		<path class="st2" d="M368,596.2c-0.4,0-0.4,0.7,0,0.7C368.4,596.8,368.4,596.2,368,596.2L368,596.2z"/>
		<path class="st1" d="M349.9,596.1c-0.5,0-0.5,0.8,0,0.8C350.5,596.8,350.5,596.1,349.9,596.1L349.9,596.1z"/>
		<path class="st1" d="M341.7,619.5c-0.8,0-0.8,1.2,0,1.2C342.5,620.7,342.5,619.5,341.7,619.5L341.7,619.5z"/>
		<path class="st1" d="M367.6,610c-0.6,0-0.6,0.9,0,0.9C368.2,610.9,368.2,610,367.6,610L367.6,610z"/>
		<path class="st1" d="M384.6,621.7c-0.4,0-0.4,0.6,0,0.6C385,622.3,385,621.7,384.6,621.7L384.6,621.7z"/>
		<path class="st1" d="M370,658c-0.5,0-0.5,0.8,0,0.8C370.5,658.7,370.5,658,370,658L370,658z"/>
		<path class="st1" d="M273.3,614.9c-0.6,0-0.6,1,0,1C273.9,616,273.9,614.9,273.3,614.9L273.3,614.9z"/>
		<path class="st2" d="M258.2,628.4c-0.5,0-0.5,0.7,0,0.7C258.7,629.1,258.7,628.4,258.2,628.4L258.2,628.4z"/>
		<path class="st1" d="M245.3,625.1c-0.6,0-0.6,0.9,0,0.9C245.9,626,245.9,625.1,245.3,625.1L245.3,625.1z"/>
		<path class="st1" d="M264.5,596.8c-0.7,0-0.7,1.1,0,1.1C265.2,597.9,265.2,596.8,264.5,596.8L264.5,596.8z"/>
		<path class="st1" d="M252.4,588.8c-0.5,0-0.5,0.8,0,0.8C252.9,589.6,252.9,588.8,252.4,588.8L252.4,588.8z"/>
		<path class="st1" d="M230.9,592c-0.5,0-0.5,0.8,0,0.8C231.3,592.7,231.3,592,230.9,592L230.9,592z"/>
		<path class="st1" d="M350.7,460.3c-0.4,0-0.4,0.6,0,0.6C351.1,460.9,351.1,460.3,350.7,460.3L350.7,460.3z"/>
		<path class="st1" d="M347.5,444.1c-0.6,0-0.6,1,0,1C348.1,445.1,348.1,444.1,347.5,444.1L347.5,444.1z"/>
		<path class="st1" d="M329.1,436.6c-0.6,0-0.6,1,0,1C329.7,437.6,329.7,436.6,329.1,436.6L329.1,436.6z"/>
		<path class="st2" d="M179.8,481.9c-0.6,0-0.6,0.9,0,0.9C180.4,482.8,180.4,481.9,179.8,481.9L179.8,481.9z"/>
		<path class="st1" d="M199.9,485.1c-0.4,0-0.4,0.6,0,0.6C200.2,485.7,200.2,485.1,199.9,485.1L199.9,485.1z"/>
		<path class="st1" d="M191.8,497c-0.8,0-0.8,1.2,0,1.2C192.6,498.1,192.6,497,191.8,497L191.8,497z"/>
		<path class="st1" d="M168.4,490.7c-0.8,0-0.8,1.2,0,1.2C169.2,491.9,169.2,490.7,168.4,490.7L168.4,490.7z"/>
		<path class="st1" d="M153.1,540.8c-0.6,0-0.7,1,0,1C153.7,541.8,153.7,540.8,153.1,540.8L153.1,540.8z"/>
		<path class="st2" d="M152,555.2c-0.6,0-0.6,1,0,1C152.6,556.1,152.6,555.2,152,555.2L152,555.2z"/>
		<path class="st1" d="M338.1,821.8c-0.6,0-0.6,1,0,1C338.8,822.8,338.8,821.8,338.1,821.8L338.1,821.8z"/>
		<path class="st1" d="M318.2,803.2c-0.6,0-0.6,0.9,0,0.9C318.8,804.2,318.8,803.2,318.2,803.2L318.2,803.2z"/>
		<path class="st1" d="M328,826.1c-0.5,0-0.5,0.8,0,0.8C328.5,826.8,328.5,826.1,328,826.1L328,826.1z"/>
		<path class="st1" d="M218.6,786.4c-0.4,0-0.4,0.6,0,0.6C219,787,219,786.4,218.6,786.4L218.6,786.4z"/>
		<path class="st1" d="M216.5,807.5c-0.6,0-0.6,0.9,0,0.9C217,808.4,217,807.5,216.5,807.5L216.5,807.5z"/>
		<path class="st1" d="M186.5,777.2c-0.5,0-0.5,0.8,0,0.8C187,778,187,777.2,186.5,777.2L186.5,777.2z"/>
		<path class="st1" d="M222,762.3c-0.7,0-0.7,1.1,0,1.1C222.8,763.4,222.8,762.3,222,762.3L222,762.3z"/>
		<path class="st1" d="M232.5,751.6c-0.6,0-0.6,0.9,0,0.9C233.1,752.5,233.1,751.6,232.5,751.6L232.5,751.6z"/>
		<path class="st1" d="M236,736.9c-0.6,0-0.6,0.9,0,0.9C236.6,737.7,236.6,736.9,236,736.9L236,736.9z"/>
		<path class="st1" d="M226.8,742.2c-0.5,0-0.5,0.9,0,0.9C227.3,743.1,227.3,742.2,226.8,742.2L226.8,742.2z"/>
		<path class="st1" d="M308.7,718.3c-0.6,0-0.6,1,0,1C309.3,719.3,309.3,718.3,308.7,718.3L308.7,718.3z"/>
		<path class="st1" d="M295.6,765.3c-0.5,0-0.5,0.8,0,0.8C296.1,766.2,296.2,765.3,295.6,765.3L295.6,765.3z"/>
		<path class="st1" d="M246.5,804.1c-0.6,0-0.6,0.9,0,0.9C247.1,805,247.1,804.1,246.5,804.1L246.5,804.1z"/>
		<path class="st1" d="M367.4,691.8c-0.6,0-0.6,0.9,0,0.9C368,692.8,368,691.8,367.4,691.8L367.4,691.8z"/>
		<path class="st1" d="M381.3,674.7c-0.6,0-0.6,0.9,0,0.9C381.8,675.5,381.8,674.7,381.3,674.7L381.3,674.7z"/>
		<path class="st1" d="M347.3,672.6c-0.5,0-0.5,0.8,0,0.8C347.8,673.4,347.8,672.6,347.3,672.6L347.3,672.6z"/>
		<path class="st1" d="M305.1,699.4c-0.4,0-0.4,0.6,0,0.6C305.5,700,305.5,699.4,305.1,699.4L305.1,699.4z"/>
		<path class="st1" d="M288.9,693.1c-0.5,0-0.5,0.7,0,0.7C289.3,693.8,289.3,693.1,288.9,693.1L288.9,693.1z"/>
		<path class="st1" d="M284.7,713.7c-0.6,0-0.6,0.9,0,0.9C285.3,714.6,285.3,713.7,284.7,713.7L284.7,713.7z"/>
		<path class="st1" d="M283.3,723.8c-0.5,0-0.5,0.8,0,0.8C283.8,724.6,283.8,723.8,283.3,723.8L283.3,723.8z"/>
		<path class="st2" d="M236.8,668.5c-0.4,0-0.4,0.7,0,0.7C237.2,669.1,237.2,668.5,236.8,668.5L236.8,668.5z"/>
		<path class="st1" d="M270.9,639.5c-0.5,0-0.5,0.7,0,0.7C271.4,640.2,271.4,639.5,270.9,639.5L270.9,639.5z"/>
		<path class="st1" d="M271.9,638.6c-0.4,0-0.4,0.7,0,0.7C272.3,639.3,272.3,638.6,271.9,638.6L271.9,638.6z"/>
		<path class="st2" d="M354.9,600.8c-0.5,0-0.5,0.7,0,0.7C355.4,601.5,355.4,600.8,354.9,600.8L354.9,600.8z"/>
		<path class="st2" d="M359.4,595.4c-0.5,0-0.5,0.8,0,0.8C359.9,596.2,359.9,595.4,359.4,595.4L359.4,595.4z"/>
		<path class="st1" d="M349.8,570.3c-0.6,0-0.6,1,0,1C350.4,571.3,350.4,570.3,349.8,570.3L349.8,570.3z"/>
		<path class="st1" d="M388.2,516.5c-0.6,0-0.6,1,0,1C388.9,517.5,388.9,516.5,388.2,516.5L388.2,516.5z"/>
		<path class="st1" d="M405,507.1c-0.7,0-0.7,1.1,0,1.1C405.8,508.2,405.8,507.1,405,507.1L405,507.1z"/>
		<path class="st1" d="M321.6,600.9c-0.8,0-0.8,1.2,0,1.2C322.4,602.1,322.4,600.9,321.6,600.9L321.6,600.9z"/>
		<path class="st1" d="M357.6,550.4c-0.8,0-0.8,1.2,0,1.2C358.3,551.6,358.3,550.4,357.6,550.4L357.6,550.4z"/>
		<path class="st1" d="M305.6,545.8c-0.8,0-0.8,1.2,0,1.2C306.3,546.9,306.3,545.8,305.6,545.8L305.6,545.8z"/>
		<path class="st1" d="M298.1,542.6c-0.8,0-0.8,1.2,0,1.2C298.9,543.8,298.9,542.6,298.1,542.6L298.1,542.6z"/>
		<path class="st1" d="M210.4,768.8c-0.8,0-0.8,1.2,0,1.2C211.1,770,211.1,768.8,210.4,768.8L210.4,768.8z"/>
		<path class="st1" d="M256,781c-0.8,0-0.8,1.2,0,1.2C256.7,782.2,256.7,781,256,781L256,781z"/>
		<path class="st1" d="M284.6,531.2c-0.8,0-0.8,1.2,0,1.2C285.4,532.4,285.4,531.2,284.6,531.2L284.6,531.2z"/>
		<path class="st2" d="M225.9,689c-0.4,0-0.4,0.6,0,0.6C226.3,689.6,226.3,689,225.9,689L225.9,689z"/>
		<path class="st1" d="M246,691.6c-0.6,0-0.6,1,0,1C246.7,692.6,246.7,691.6,246,691.6L246,691.6z"/>
		<path class="st1" d="M200.7,659.6c-0.7,0-0.7,1.1,0,1.1C201.4,660.7,201.4,659.6,200.7,659.6L200.7,659.6z"/>
		<path class="st1" d="M174.1,619.6c-0.5,0-0.5,0.8,0,0.8C174.6,620.4,174.6,619.6,174.1,619.6L174.1,619.6z"/>
		<path class="st1" d="M177.3,639.5c-0.6,0-0.6,1,0,1C177.9,640.4,177.9,639.5,177.3,639.5L177.3,639.5z"/>
		<path class="st1" d="M168.4,648c-0.7,0-0.7,1.1,0,1.1C169.1,649.1,169.1,648,168.4,648L168.4,648z"/>
		<path class="st2" d="M372.7,473.8c-0.7,0-0.7,1,0,1C373.4,474.9,373.4,473.8,372.7,473.8L372.7,473.8z"/>
		<path class="st1" d="M378,433.5c-0.7,0-0.7,1.1,0,1.1C378.7,434.5,378.7,433.5,378,433.5L378,433.5z"/>
		<path class="st1" d="M313.3,432c-0.5,0-0.5,0.8,0,0.8C313.8,432.7,313.8,432,313.3,432L313.3,432z"/>
		<path class="st1" d="M294.2,457.2c-0.5,0-0.5,0.8,0,0.8C294.7,458,294.7,457.2,294.2,457.2L294.2,457.2z"/>
		<path class="st1" d="M267.7,364.5c-0.4,0-0.4,0.7,0,0.7C268.2,365.2,268.2,364.5,267.7,364.5L267.7,364.5z"/>
		<path class="st1" d="M222.9,373.9c-0.4,0-0.4,0.6,0,0.6C223.3,374.6,223.3,373.9,222.9,373.9L222.9,373.9z"/>
		<path class="st1" d="M210.7,392.4c-0.7,0-0.7,1.1,0,1.1C211.5,393.6,211.5,392.4,210.7,392.4L210.7,392.4z"/>
		<path class="st1" d="M217.2,390.2c-0.6,0-0.6,0.9,0,0.9C217.8,391.1,217.8,390.2,217.2,390.2L217.2,390.2z"/>
		<path class="st1" d="M239.9,432.1c-0.5,0-0.5,0.8,0,0.8C240.4,432.9,240.4,432.1,239.9,432.1L239.9,432.1z"/>
		<path class="st2" d="M224.8,464.6c-0.6,0-0.6,0.9,0,0.9C225.3,465.4,225.3,464.6,224.8,464.6L224.8,464.6z"/>
		<path class="st1" d="M171.8,447.6c-0.5,0-0.5,0.7,0,0.7C172.3,448.3,172.3,447.6,171.8,447.6L171.8,447.6z"/>
		<path class="st1" d="M352.4,366.8c-0.6,0-0.6,0.9,0,0.9C353,367.7,353,366.8,352.4,366.8L352.4,366.8z"/>
		<path class="st1" d="M390.2,503.5c-0.5,0-0.5,0.7,0,0.7C390.6,504.2,390.6,503.5,390.2,503.5L390.2,503.5z"/>
		<path class="st1" d="M360.4,757.7c-0.6,0-0.6,1,0,1C361.1,758.7,361.1,757.7,360.4,757.7L360.4,757.7z"/>
		<path class="st1" d="M352.1,753.9c-0.6,0-0.6,0.9,0,0.9C352.7,754.8,352.7,753.9,352.1,753.9L352.1,753.9z"/>
		<path class="st1" d="M353.9,767.3c-0.5,0-0.5,0.8,0,0.8C354.4,768.1,354.4,767.3,353.9,767.3L353.9,767.3z"/>
		<path class="st1" d="M341.6,760.9c-0.4,0-0.4,0.7,0,0.7C342,761.6,342,760.9,341.6,760.9L341.6,760.9z"/>
		<path class="st1" d="M313.3,986.9c0.5,0,0.5-0.8,0-0.8C312.8,986.1,312.8,986.9,313.3,986.9L313.3,986.9z"/>
		<path class="st1" d="M340.5,983.4c0.6,0,0.6-0.9,0-0.9C339.9,982.4,339.9,983.4,340.5,983.4L340.5,983.4z"/>
		<path class="st1" d="M347.8,1106.9c0.5,0,0.5-0.8,0-0.8C347.3,1106.1,347.3,1106.9,347.8,1106.9L347.8,1106.9z"/>
		<path class="st1" d="M286.3,939.7c0.6,0,0.6-1,0-1C285.7,938.7,285.7,939.7,286.3,939.7L286.3,939.7z"/>
		<path class="st1" d="M32,902.2c0.5,0,0.5-0.8,0-0.8C31.5,901.4,31.5,902.2,32,902.2L32,902.2z"/>
		<path class="st1" d="M256.6,972.5c0.4,0,0.4-0.7,0-0.7C256.2,971.8,256.2,972.5,256.6,972.5L256.6,972.5z"/>
		<path class="st1" d="M403.2,849.5c0.7,0,0.7-1.1,0-1.1C402.5,848.4,402.5,849.5,403.2,849.5L403.2,849.5z"/>
		<path class="st1" d="M320.2,957.3c0.7,0,0.7-1.1,0-1.1C319.5,956.2,319.5,957.3,320.2,957.3L320.2,957.3z"/>
		<path class="st1" d="M331,999.5c0.5,0,0.5-0.8,0-0.8C330.5,998.7,330.5,999.5,331,999.5L331,999.5z"/>
		<path class="st1" d="M288.7,1036.2c0.6,0,0.6-0.9,0-0.9C288.1,1035.4,288.1,1036.2,288.7,1036.2L288.7,1036.2z"/>
		<path class="st3" d="M278.8,1013.1c0.6,0,0.6-0.9,0-0.9C278.2,1012.2,278.2,1013.1,278.8,1013.1L278.8,1013.1z"/>
		<path class="st2" d="M263.4,1093.5c0.7,0,0.7-1,0-1C262.7,1092.4,262.7,1093.5,263.4,1093.5L263.4,1093.5z"/>
		<path class="st1" d="M274.9,950.1c0.4,0,0.4-0.6,0-0.6C274.5,949.5,274.5,950.1,274.9,950.1L274.9,950.1z"/>
		<path class="st1" d="M340.3,935.3c0.7,0,0.7-1.1,0-1.1C339.5,934.1,339.5,935.3,340.3,935.3L340.3,935.3z"/>
		<path class="st1" d="M228.1,1009.2c0.6,0,0.6-0.9,0-0.9C227.5,1008.4,227.5,1009.2,228.1,1009.2L228.1,1009.2z"/>
		<path class="st1" d="M274.7,991.4c0.5,0,0.5-0.8,0-0.8C274.2,990.5,274.2,991.4,274.7,991.4L274.7,991.4z"/>
		<path class="st1" d="M390.4,919.2c0.7,0,0.7-1,0-1C389.7,918.2,389.7,919.2,390.4,919.2L390.4,919.2z"/>
		<path class="st1" d="M128.8,876.6c0.8,0,0.8-1.2,0-1.2C128,875.3,128,876.6,128.8,876.6L128.8,876.6z"/>
		<path class="st1" d="M375.8,998.8c0.7,0,0.7-1,0-1C375.1,997.8,375.1,998.8,375.8,998.8L375.8,998.8z"/>
		<path class="st1" d="M337.4,1010.5c0.7,0,0.7-1.1,0-1.1C336.7,1009.4,336.7,1010.5,337.4,1010.5L337.4,1010.5z"/>
		<path class="st1" d="M274.1,890.8c0.6,0,0.6-0.9,0-0.9C273.5,889.9,273.5,890.8,274.1,890.8L274.1,890.8z"/>
		<path class="st1" d="M336,1046.4c0.6,0,0.6-0.9,0-0.9C335.5,1045.6,335.5,1046.4,336,1046.4L336,1046.4z"/>
		<path class="st1" d="M385.5,1035.5c0.5,0,0.5-0.9,0-0.9C385,1034.6,385,1035.5,385.5,1035.5L385.5,1035.5z"/>
		<path class="st1" d="M383.1,1009.1c0.5,0,0.5-0.8,0-0.8C382.5,1008.2,382.5,1009.1,383.1,1009.1L383.1,1009.1z"/>
		<path class="st1" d="M394.8,973.8c0.5,0,0.5-0.7,0-0.7C394.3,973.1,394.3,973.8,394.8,973.8L394.8,973.8z"/>
		<path class="st2" d="M256.9,1035.2c0.6,0,0.6-0.9,0-0.9C256.3,1034.3,256.3,1035.2,256.9,1035.2L256.9,1035.2z"/>
		<path class="st1" d="M209,942.7c0.6,0,0.6-0.9,0-0.9C208.4,941.8,208.4,942.7,209,942.7L209,942.7z"/>
		<path class="st1" d="M218.5,946c0.6,0,0.6-0.9,0-0.9C217.9,945,217.9,946,218.5,946L218.5,946z"/>
		<path class="st1" d="M190.8,958.2c0.7,0,0.7-1.1,0-1.1C190.1,957.1,190.1,958.2,190.8,958.2L190.8,958.2z"/>
		<path class="st1" d="M149.3,1135.3c0.6,0,0.6-0.9,0-0.9C148.7,1134.3,148.7,1135.3,149.3,1135.3L149.3,1135.3z"/>
		<path class="st1" d="M53.3,885.7c0.5,0,0.5-0.8,0-0.8C52.8,884.9,52.8,885.7,53.3,885.7L53.3,885.7z"/>
		<path class="st1" d="M31.8,1043.8c0.5,0,0.5-0.8,0-0.8C31.2,1042.9,31.2,1043.8,31.8,1043.8L31.8,1043.8z"/>
		<path class="st1" d="M33.5,1049.4c0.5,0,0.5-0.7,0-0.7C33.1,1048.7,33.1,1049.4,33.5,1049.4L33.5,1049.4z"/>
		<path class="st1" d="M51.1,1051.7c0.5,0,0.5-0.8,0-0.8C50.6,1050.8,50.6,1051.7,51.1,1051.7L51.1,1051.7z"/>
		<path class="st2" d="M15.8,981.2c0.7,0,0.7-1,0-1C15.1,980.2,15.1,981.2,15.8,981.2L15.8,981.2z"/>
		<path class="st1" d="M200.9,982.7c0.6,0,0.6-0.9,0-0.9C200.3,981.8,200.3,982.7,200.9,982.7L200.9,982.7z"/>
		<path class="st2" d="M102.4,943.4c0.5,0,0.5-0.8,0-0.8C101.8,942.6,101.8,943.4,102.4,943.4L102.4,943.4z"/>
		<path class="st1" d="M305.7,1119c0.6,0,0.6-0.9,0-0.9C305.2,1118.1,305.1,1119,305.7,1119L305.7,1119z"/>
		<path class="st1" d="M62.5,988.8c0.4,0,0.4-0.6,0-0.6C62.1,988.2,62.1,988.8,62.5,988.8L62.5,988.8z"/>
		<path class="st2" d="M96.2,1002.2c0.6,0,0.6-0.9,0-0.9C95.6,1001.4,95.6,1002.2,96.2,1002.2L96.2,1002.2z"/>
		<path class="st2" d="M203.8,942.6c0.5,0,0.5-0.7,0-0.7C203.3,941.9,203.3,942.6,203.8,942.6L203.8,942.6z"/>
		<path class="st2" d="M177.8,912.8c0.5,0,0.5-0.7,0-0.7C177.3,912.1,177.3,912.8,177.8,912.8L177.8,912.8z"/>
		<path class="st2" d="M14.9,933.5c0.5,0,0.5-0.7,0-0.7C14.4,932.8,14.4,933.5,14.9,933.5L14.9,933.5z"/>
		<path class="st2" d="M322.6,881.9c0.5,0,0.5-0.7,0-0.7C322.1,881.2,322.1,881.9,322.6,881.9L322.6,881.9z"/>
		<path class="st2" d="M286.5,1029.3c0.5,0,0.5-0.7,0-0.7C286,1028.6,286,1029.3,286.5,1029.3L286.5,1029.3z"/>
		<path class="st1" d="M239.4,948.2c0.8,0,0.8-1.2,0-1.2C238.7,947,238.7,948.2,239.4,948.2L239.4,948.2z"/>
		<path class="st1" d="M230.9,888.5c0.8,0,0.8-1.2,0-1.2C230.2,887.3,230.2,888.5,230.9,888.5L230.9,888.5z"/>
		<path class="st1" d="M134,946.7c0.8,0,0.8-1.2,0-1.2C133.2,945.5,133.2,946.7,134,946.7L134,946.7z"/>
		<path class="st1" d="M213.5,927.7c0.5,0,0.5-0.8,0-0.8C213,926.9,213,927.7,213.5,927.7L213.5,927.7z"/>
		<path class="st1" d="M158.6,1037.1c0.6,0,0.6-0.9,0-0.9C158,1036.2,158,1037.1,158.6,1037.1L158.6,1037.1z"/>
		<path class="st1" d="M27.6,949.5c0.6,0,0.6-1,0-1C26.9,948.5,26.9,949.5,27.6,949.5L27.6,949.5z"/>
		<path class="st1" d="M76.6,962c0.6,0,0.6-0.9,0-0.9C76,961.1,76,962,76.6,962L76.6,962z"/>
		<path class="st1" d="M77.4,926.9c0.5,0,0.5-0.8,0-0.8C76.9,926.2,76.9,926.9,77.4,926.9L77.4,926.9z"/>
		<path class="st1" d="M145.3,955.6c0.4,0,0.4-0.6,0-0.6C145,955.1,145,955.6,145.3,955.6L145.3,955.6z"/>
		<path class="st1" d="M161,936.5c0.6,0,0.6-0.9,0-0.9C160.4,935.6,160.4,936.5,161,936.5L161,936.5z"/>
		<path class="st1" d="M183.1,983.3c0.5,0,0.5-0.8,0-0.8C182.6,982.5,182.6,983.3,183.1,983.3L183.1,983.3z"/>
		<path class="st1" d="M155.3,969c0.7,0,0.7-1.1,0-1.1C154.6,967.9,154.6,969,155.3,969L155.3,969z"/>
		<path class="st1" d="M152.1,1072.3c0.6,0,0.6-0.9,0-0.9C151.5,1071.4,151.5,1072.3,152.1,1072.3L152.1,1072.3z"/>
		<path class="st1" d="M138.8,1039.1c0.6,0,0.6-0.9,0-0.9C138.3,1038.2,138.3,1039.1,138.8,1039.1L138.8,1039.1z"/>
		<path class="st1" d="M171.9,1085.6c0.5,0,0.5-0.9,0-0.9C171.4,1084.8,171.4,1085.6,171.9,1085.6L171.9,1085.6z"/>
		<path class="st1" d="M318.2,887.7c0.6,0,0.6-1,0-1C317.6,886.8,317.6,887.7,318.2,887.7L318.2,887.7z"/>
		<path class="st1" d="M110.1,944.4c0.6,0,0.6-0.9,0-0.9C109.6,943.5,109.6,944.4,110.1,944.4L110.1,944.4z"/>
		<path class="st1" d="M66.9,1034c0.4,0,0.4-0.6,0-0.6C66.5,1033.4,66.5,1034,66.9,1034L66.9,1034z"/>
		<path class="st1" d="M118.3,1053.3c0.6,0,0.6-0.9,0-0.9C117.7,1052.4,117.7,1053.3,118.3,1053.3L118.3,1053.3z"/>
		<path class="st1" d="M96.9,1027.3c0.5,0,0.5-0.8,0-0.8C96.4,1026.5,96.4,1027.3,96.9,1027.3L96.9,1027.3z"/>
		<path class="st1" d="M67.3,1094.7c0.8,0,0.8-1.2,0-1.2C66.5,1093.5,66.5,1094.7,67.3,1094.7L67.3,1094.7z"/>
		<path class="st1" d="M111.1,954.6c0.8,0,0.8-1.2,0-1.2C110.3,953.5,110.3,954.6,111.1,954.6L111.1,954.6z"/>
		<path class="st1" d="M174.3,1124.1c0.6,0,0.6-0.9,0-0.9C173.6,1123.2,173.6,1124.1,174.3,1124.1L174.3,1124.1z"/>
		<path class="st1" d="M13.2,970.1c0.5,0,0.5-0.8,0-0.8C12.7,969.3,12.7,970.1,13.2,970.1L13.2,970.1z"/>
		<path class="st1" d="M25.2,1132.7c0.6,0,0.6-1,0-1C24.6,1131.7,24.6,1132.7,25.2,1132.7L25.2,1132.7z"/>
	</g>
</g>
</svg>
